<?xml version="1.0"?>
	<svg xmlns="http://www.w3.org/2000/svg" 
		width="30" 
		height="30" 
		viewbox="0 0 30 30" 
		code="80562" 
		 transform=""
		><path d="M23.6210526 7.61052632C27.1578947 7.61052632 30 10.4526316 30 13.9578947 30 17.417849 27.2499005 20.212944 23.8487383 20.3328347L23.6210526 20.3368421 22.2947368 20.3368421 22.2947368 19.9578947C22.2947368 18.7987616 21.6793298 17.7515207 20.7381191 17.1584304L20.5578947 17.0526316 20.5578947 16.7684211C20.5578947 14.0626039 18.4322423 11.8657457 15.7550863 11.7519955L15.5368421 11.7473684 14.4315789 11.7473684C11.7257618 11.7473684 9.52890363 13.8730208 9.41515335 16.5501769L9.41052632 16.7684211 9.41052632 17.0526316C8.42631579 17.5596491 7.75194932 18.5736842 7.6800574 19.7489008L7.67368421 19.9578947 7.67368421 20.3368421 5.4 20.3368421C2.4 20.3368421 0 17.9368421 0 14.9368421 0 12.0408216 2.28435455 9.65577507 5.18158471 9.54115414L5.4 9.53684211 5.64327485 9.54619883 5.87251462 9.56959064 5.87251462 9.56959064 6.09473684 9.6 6.15946528 9.34883881C7.13963803 5.77022551 10.3605569 3.12263998 14.2241605 3.00414364L14.4947368 3 14.8006661 3.00527854C17.9487322 3.11407771 20.6779461 4.89575265 22.0982465 7.5125988L22.2315789 7.76842105 22.5003789 7.71562105C22.8631579 7.65094737 23.2421053 7.61052632 23.6210526 7.61052632Z"/>
	</svg>
	