<?xml version="1.0"?>
	<svg xmlns="http://www.w3.org/2000/svg" 
		width="30" 
		height="30" 
		viewbox="0 0 30 30" 
		code="80564" 
		 transform=""
		><path d="M12.9932601 1.39347352L13.1454362 1.39820924C13.3482098 1.4135048 13.5496497 1.46480949 13.739884 1.55313214L13.8803045 1.62633076C13.8803045 1.62633076 21.7675873 6.20824111 21.7800927 6.21716074 22.1872581 6.47157187 22.4522921 6.8697728 22.5483462 7.30741731 22.7152008 7.89286695 22.6160782 8.54223095 22.2357532 9.05937533L22.1250448 9.19698918 18.8201654 12.9609382 24.8254961 12.6266538 24.990322 12.6255134 25.1533122 12.6399421C25.5306653 12.6914712 25.8844618 12.8669808 26.154745 13.144306 26.4634807 13.4611695 26.6369661 13.8830388 26.6432488 14.3213919L26.6377048 14.486374 25.911898 23.3918841C25.8426426 24.2422096 25.1665256 24.8979108 24.3437562 24.968142L24.1971329 24.9743787 24.0553601 24.9686862 24.0553601 24.9686862C23.1571363 24.8953523 22.4761854 24.1455395 22.472736 23.260691L22.4785131 23.1120587 23.0439907 16.1758145 20.7194637 16.305306C21.2936816 17.4750773 21.616626 18.7905657 21.616626 20.1816244 21.616626 22.4053206 20.791246 24.4349293 19.4318088 25.9847806L19.2239243 26.2136244 16.9981855 23.9877512C17.9130077 22.9815363 18.4714482 21.645609 18.4714482 20.1816244 18.4714482 17.0589474 15.9309675 14.5184219 12.8083354 14.5184219 11.4358499 14.5184219 10.1758358 15.0092388 9.19459989 15.8244551L9.00211901 15.9917743 6.77624575 13.7659011C7.94140927 12.6698893 9.40440932 11.8873322 11.031321 11.5535029L11.3824049 11.4888856 15.6448223 6.63441113 13.230068 5.23214683 10.3090912 7.83770943C10.0168184 8.09851432 9.66029089 8.24135789 9.29776902 8.26961034L9.14220537 8.27471258C8.67543254 8.2690309 8.21250905 8.07471897 7.87725966 7.69893972 7.28130294 7.03080335 7.30131631 6.02708754 7.89753957 5.38344629L8.01607419 5.26715301 11.8689057 1.83036167C12.1468037 1.58249459 12.4886406 1.43795402 12.8415095 1.40214664L12.9932601 1.39347352ZM22.9646553-4.64517314e-13C24.5568764-4.64517314e-13 25.8474884 1.29088099 25.8474884 2.88310201 25.8474884 4.41854444 24.6474167 5.67357837 23.1340513 5.76126518L22.9646553 5.7661592C21.3722102 5.7661592 20.0815533 4.47541267 20.0815533 2.88310201 20.0815533 1.29088099 21.372255-4.64517314e-13 22.9646553-4.64517314e-13Z"/>
	</svg>
	