<?xml version="1.0"?>
	<svg xmlns="http://www.w3.org/2000/svg" 
		width="30" 
		height="30" 
		viewbox="0 0 30 30" 
		code="80568" 
		 transform=""
		><path d="M2.8125 4L25.3125 4C26.8472222 4 28.0342078 5.13014403 28.1200274 6.63700274L28.125 6.8125 28.125 21.8125C28.125 23.3472222 26.994856 24.5342078 25.4879973 24.6200274L25.3125 24.625 2.8125 24.625C1.27777778 24.625 0.0907921811 23.494856 0.00497256516 21.9879973L0 21.8125 0 6.8125C0 5.27777778 1.13014403 4.09079218 2.63700274 4.00497257L2.8125 4 25.3125 4 2.8125 4ZM10.3125 14.3125L6.5625 14.3125C5.02777778 14.3125 3.84079218 15.442644 3.75497257 16.9495027L3.75 17.125 3.75 19.9375C3.75 20.4598214 4.07334184 20.8204719 4.56990251 20.8693285L4.6875 20.875 12.1875 20.875C12.7098214 20.875 13.0704719 20.5516582 13.1193285 20.0550975L13.125 19.9375 13.125 17.125C13.125 15.5902778 11.994856 14.4032922 10.4879973 14.3174726L10.3125 14.3125ZM20.625 17.125L15.9375 17.125C15.375 17.125 15 17.5 15 18.0625 15 18.5848214 15.3233418 18.9454719 15.8199025 18.9943285L15.9375 19 20.625 19C21.1875 19 21.5625 18.625 21.5625 18.0625 21.5625 17.5401786 21.2391582 17.1795281 20.7425975 17.1306715L20.625 17.125ZM23.4375 13.375L15.9375 13.375C15.375 13.375 15 13.75 15 14.3125 15 14.8348214 15.3233418 15.1954719 15.8199025 15.2443285L15.9375 15.25 23.4375 15.25C24 15.25 24.375 14.875 24.375 14.3125 24.375 13.7901786 24.0516582 13.4295281 23.5550975 13.3806715L23.4375 13.375ZM8.4375 7.75L8.26200274 7.75497257C6.75514403 7.84079218 5.625 9.02777778 5.625 10.5625 5.625 12.0972222 6.75514403 13.2842078 8.26200274 13.3700274L8.4375 13.375 8.61299726 13.3700274C10.119856 13.2842078 11.25 12.0972222 11.25 10.5625 11.25 9.02777778 10.119856 7.84079218 8.61299726 7.75497257L8.4375 7.75Z"/>
	</svg>
	