<?xml version="1.0"?>
	<svg xmlns="http://www.w3.org/2000/svg" 
		width="30" 
		height="30" 
		viewbox="0 0 30 30" 
		code="81164" 
		 transform=""
		><path d="M6.26699313 3.0001592L6.14571702 3.0048055C5.69938523 3.04354635 5.30762565 3.31745955 5.11801033 3.72336465 4.94735653 4.08867924 4.96377332 4.51095728 5.15590952 4.85942247L5.22644748 4.97266433 12.3619069 15.1244011C12.5012016 15.3216123 12.5186134 15.5768792 12.4141424 15.7886043L12.3619069 15.8763816 5.22644748 26.0281183C4.958447 26.4111043 4.92585224 26.9114079 5.14189515 27.3259293 5.35793807 27.7404506 5.78671176 28.0002952 6.25415416 28 6.62287357 28.0015202 6.97103274 27.8397027 7.20735433 27.5620227L7.28186085 27.4652366 15.1860114 16.2189505C15.4627759 15.8234402 15.4858396 15.3080047 15.2552025 14.8925068L15.1860114 14.7818322 7.28186085 3.53554604C7.04848225 3.20176037 6.66933579 3.00421195 6.26699313 3.0001592Z"/>
	</svg>
	