<?xml version="1.0"?>
	<svg xmlns="http://www.w3.org/2000/svg" 
		width="30" 
		height="30" 
		viewbox="0 0 30 30" 
		code="81155" 
		 transform=""
		><path d="M5.22644362 14.7818322L13.1305942 3.53554604C13.5274435 2.96795931 14.3092733 2.82954925 14.87686 3.2263985 15.4110593 3.59990369 15.5650883 4.31442974 15.2505051 4.87039996L15.1860076 4.97266433 8.05054817 15.1244011C7.91125349 15.3216123 7.89384165 15.5768792 7.99831266 15.7886043L8.05054817 15.8763816 15.1860076 26.0281183C15.4540081 26.4111043 15.4866028 26.9114079 15.2705599 27.3259293 15.054517 27.7404506 14.6257433 28.0002952 14.1583009 28 13.7895815 28.0015202 13.4414223 27.8397027 13.2051007 27.5620227L13.1305942 27.4652366 5.22644362 16.2189505C4.9496792 15.8234402 4.92661549 15.3080047 5.15725251 14.8925068L5.22644362 14.7818322 13.1305942 3.53554604 5.22644362 14.7818322Z"/>
	</svg>
	