<?xml version="1.0"?>
	<svg xmlns="http://www.w3.org/2000/svg" 
		width="30" 
		height="30" 
		viewbox="0 0 30 30" 
		code="80572" 
		 transform=""
		><path d="M26.2781967 12.0341618L26.2781967 27.2572184C26.2781967 27.7056734 26.1003841 28.1356963 25.7839961 28.4523849 25.5071566 28.7294875 25.1441345 28.8998865 24.7583488 28.9373698L24.5918033 28.94522 4.36836066 28.94522C3.4883266 28.94522 2.76614827 28.2669316 2.69256727 27.4028652L2.68639344 27.2572184 2.68639344 12.0341618 26.2781967 12.0341618ZM16.2793443 15.4190375L12.6852459 15.4190375C11.692763 15.4190375 10.8881967 16.2264876 10.8881967 17.2225278 10.8881967 18.1687659 11.6143178 18.9448015 12.5378599 19.0200395L12.6852459 19.026018 16.2793443 19.026018C17.2718271 19.026018 18.0763934 18.2185679 18.0763934 17.2225278 18.0763934 16.2762896 17.3502723 15.500254 16.4267302 15.4250161L16.2793443 15.4190375Z"/>
	</svg>
	