<?xml version="1.0"?>
	<svg xmlns="http://www.w3.org/2000/svg" 
		width="30" 
		height="30" 
		viewbox="0 0 30 30" 
		code="80580" 
		 transform=""
		><path d="M28.7903226 20.516129C29.458409 20.516129 30 21.0577201 30 21.7258065 30 22.3521374 29.5239923 22.8672909 28.9140051 22.9292384L28.7903226 22.9354839 17.6612903 22.9354839C16.9932039 22.9354839 16.4516129 22.3938928 16.4516129 21.7258065 16.4516129 21.0577201 16.9932039 20.516129 17.6612903 20.516129L28.7903226 20.516129ZM26.8548387 15.6774194C27.5229251 15.6774194 28.0645161 16.2190104 28.0645161 16.8870968 28.0645161 17.5134278 27.5885084 18.0285812 26.9785212 18.0905288L26.8548387 18.0967742 17.6612903 18.0967742C16.9932039 18.0967742 16.4516129 17.5551832 16.4516129 16.8870968 16.4516129 16.2190104 16.9932039 15.6774194 17.6612903 15.6774194L26.8548387 15.6774194ZM24.9193548 10.8387097C25.5874412 10.8387097 26.1290323 11.3803007 26.1290323 12.0483871 26.1290323 12.6747181 25.6530245 13.1898715 25.0430373 13.2518191L24.9193548 13.2580645 17.6612903 13.2580645C16.9932039 13.2580645 16.4516129 12.7164735 16.4516129 12.0483871 16.4516129 11.3803007 16.9932039 10.8387097 17.6612903 10.8387097L24.9193548 10.8387097ZM22.983871 6C23.6519574 6 24.1935484 6.54159103 24.1935484 7.20967742 24.1935484 7.83600841 23.7175406 8.35116184 23.1075535 8.41310941L22.983871 8.41935484 17.6612903 8.41935484C16.9932039 8.41935484 16.4516129 7.87776381 16.4516129 7.20967742 16.4516129 6.54159103 16.9932039 6 17.6612903 6L22.983871 6Z"/>
	</svg>
	