<?xml version="1.0"?>
	<svg xmlns="http://www.w3.org/2000/svg" 
		width="30" 
		height="30" 
		viewbox="0 0 30 30" 
		code="80584" 
		 transform=""
		><path d="M8.25 11.5C9.2125 11.5 10 12.2875 10 13.25L10 22C10 22.9625 9.2125 23.75 8.25 23.75L8 23.75C7.0375 23.75 6.25 22.9625 6.25 22L6.25 13.25C6.25 12.2875 7.0375 11.5 8 11.5L8.25 11.5ZM20.75 16.25C21.7125 16.25 22.5 17.0375 22.5 18L22.5 22C22.5 22.9625 21.7125 23.75 20.75 23.75 19.7875 23.75 19 22.9625 19 22L19 18C19 17.0375 19.7875 16.25 20.75 16.25Z"/>
	</svg>
	