<?xml version="1.0"?>
	<svg xmlns="http://www.w3.org/2000/svg" 
		width="30" 
		height="30" 
		viewbox="0 0 30 30" 
		code="80594" 
		 transform=""
		><path d="M12.79532149 3.999999999999666L17.6929822 3.999999999999666C19.0474222 3.999999999999666 20.0581795 4.956579721 20.136873 6.281357959999999L20.1418126 6.44883037 20.141 7.673 25.0394734 7.67324556C26.3324558 7.67324556 27.399754 8.68882449 27.4830691 9.96168342L27.4883037 10.122075930000001 27.4883037 17.4685671C27.4883037 18.7615495 26.4727248 19.8288477 25.1998659 19.9121628L25.0394734 19.9173974 5.44883037 19.9173974C4.15584794 19.9173974 3.0885497063 18.901818499999997 3.0052346198 17.6289596L2.9999999999996056 17.4685671 2.9999999999996056 10.122075930000001C2.9999999999996056 8.829093499999999 4.01557893 7.76179527 5.28843786 7.67848018L5.44883037 7.67324556 10.346 7.673 10.34649112 6.44883037C10.34649112 5.09439042 11.30307084 4.0836331053 12.62784907 4.00493962375L12.79532149 3.999999999999666ZM15.2441519 15.0197367C14.5095028 15.0197367 14.0197367 15.5095028 14.0197367 16.2441519 14.0197367 16.978801 14.5095028 17.4685671 15.2441519 17.4685671 15.978801 17.4685671 16.4685671 16.978801 16.4685671 16.2441519 16.4685671 15.5095028 15.978801 15.0197367 15.2441519 15.0197367ZM17.692999999999998 6.448L12.794 6.448 12.795 7.673 17.692 7.673 17.692999999999998 6.448Z"/>
	</svg>
	