<?xml version="1.0"?>
	<svg xmlns="http://www.w3.org/2000/svg" 
		width="30" 
		height="30" 
		viewbox="0 0 30 30" 
		code="80602" 
		 transform=""
		><path d="M8.61523438 20.1015625C9.0695613 20.1015625 9.24430242 20.22970599 9.26849735 20.63653917L9.27148438 20.74414062 9.27148438 21.5507812C9.27148438 21.992488 9.13169148 22.1546089 8.72306608 22.1769369L8.61523438 22.1796875 7.822265625 22.1796875C7.367938702 22.1796875 7.193197578 22.051544 7.169002653 21.6554641L7.166015625 21.5507812 7.166015625 20.74414062C7.166015625 20.2898137 7.305808524 20.12672199 7.714433923 20.10431928L7.822265625 20.1015625 8.61523438 20.1015625ZM12.27929688 20.1015625L13.0859375 20.1015625C13.54026442 20.1015625 13.71500555 20.22970599 13.73920047 20.63653917L13.7421875 20.74414062 13.7421875 21.5507812C13.7421875 21.992488 13.6023946 22.1546089 13.1937692 22.1769369L13.0859375 22.1796875 12.27929688 22.1796875C11.82496995 22.1796875 11.65022883 22.051544 11.6260339 21.6554641L11.62304688 21.5507812 11.62304688 20.74414062C11.62304688 20.2898137 11.76283977 20.12672199 12.171465170000001 20.10431928L12.27929688 20.1015625 13.0859375 20.1015625ZM17.5566406 20.1015625C18.0351562 20.1015625 18.1992188 20.25195312 18.1992188 20.74414062L18.1992188 21.5507812C18.1992188 22.0292969 18.0351562 22.1796875 17.5566406 22.1796875L16.75 22.1796875C16.2578125 22.1796875 16.09375 22.0292969 16.09375 21.5507812L16.09375 20.74414062C16.09375 20.25195312 16.2578125 20.1015625 16.75 20.1015625L17.5566406 20.1015625ZM8.61523438 15.71289062C9.0695613 15.71289062 9.24430242 15.84103412 9.26849735 16.237114L9.27148438 16.34179688 9.27148438 17.1484375C9.27148438 17.60276442 9.13169148 17.76585614 8.72306608 17.78825885L8.61523438 17.79101562 7.822265625 17.79101562C7.367938702 17.79101562 7.193197578 17.66287213 7.169002653 17.25603895L7.166015625 17.1484375 7.166015625 16.34179688C7.166015625 15.90009014 7.305808524 15.73796921 7.714433923 15.71564118L7.822265625 15.71289062 8.61523438 15.71289062ZM13.0859375 15.71289062C13.54026442 15.71289062 13.71500555 15.84103412 13.73920047 16.237114L13.7421875 16.34179688 13.7421875 17.1484375C13.7421875 17.60276442 13.6023946 17.76585614 13.1937692 17.78825885L13.0859375 17.79101562 12.27929688 17.79101562C11.82496995 17.79101562 11.65022883 17.66287213 11.6260339 17.25603895L11.62304688 17.1484375 11.62304688 16.34179688C11.62304688 15.90009014 11.76283977 15.73796921 12.171465170000001 15.71564118L12.27929688 15.71289062 13.0859375 15.71289062ZM17.5566406 15.71289062C17.9983474 15.71289062 18.1721177 15.84103412 18.1962379 16.237114L18.1992188 16.34179688 18.1992188 17.1484375C18.1992188 17.60276442 18.0594259 17.76585614 17.6615538 17.78825885L17.5566406 17.79101562 16.75 17.79101562C16.29567308 17.79101562 16.12093195 17.66287213 16.09673703 17.25603895L16.09375 17.1484375 16.09375 16.34179688C16.09375 15.90009014 16.2335429 15.73796921 16.6421683 15.71564118L16.75 15.71289062 17.5566406 15.71289062ZM22.0136719 15.71289062C22.4679988 15.71289062 22.642739900000002 15.84103412 22.6669348 16.237114L22.6699219 16.34179688 22.6699219 17.1484375C22.6699219 17.60276442 22.530129000000002 17.76585614 22.1215036 17.78825885L22.0136719 17.79101562 21.2070312 17.79101562C20.7653245 17.79101562 20.591554199999997 17.66287213 20.567433899999997 17.25603895L20.5644531 17.1484375 20.5644531 16.34179688C20.5644531 15.90009014 20.704245999999998 15.73796921 21.1021181 15.71564118L21.2070312 15.71289062 22.0136719 15.71289062ZM13.0859375 11.310546875C13.54026442 11.310546875 13.71500555 11.438690366 13.73920047 11.845523548L13.7421875 11.953125 13.7421875 12.75976562C13.7421875 13.20147236 13.6023946 13.36359329 13.1937692 13.38592132L13.0859375 13.38867188 12.27929688 13.38867188C11.82496995 13.38867188 11.65022883 13.26052838 11.6260339 12.8644485L11.62304688 12.75976562 11.62304688 11.953125C11.62304688 11.498798077 11.76283977 11.335706361 12.171465170000001 11.313303653L12.27929688 11.310546875 13.0859375 11.310546875ZM17.5566406 11.310546875C17.9983474 11.310546875 18.1721177 11.438690366 18.1962379 11.845523548L18.1992188 11.953125 18.1992188 12.75976562C18.1992188 13.20147236 18.0594259 13.36359329 17.6615538 13.38592132L17.5566406 13.38867188 16.75 13.38867188C16.29567308 13.38867188 16.12093195 13.26052838 16.09673703 12.8644485L16.09375 12.75976562 16.09375 11.953125C16.09375 11.498798077 16.2335429 11.335706361 16.6421683 11.313303653L16.75 11.310546875 17.5566406 11.310546875ZM22.0136719 11.310546875C22.4679988 11.310546875 22.642739900000002 11.438690366 22.6669348 11.845523548L22.6699219 11.953125 22.6699219 12.75976562C22.6699219 13.20147236 22.530129000000002 13.36359329 22.1215036 13.38592132L22.0136719 13.38867188 21.2070312 13.38867188C20.7653245 13.38867188 20.591554199999997 13.26052838 20.567433899999997 12.8644485L20.5644531 12.75976562 20.5644531 11.953125C20.5644531 11.498798077 20.704245999999998 11.335706361 21.1021181 11.313303653L21.2070312 11.310546875 22.0136719 11.310546875Z"/>
	</svg>
	