<?xml version="1.0"?>
	<svg xmlns="http://www.w3.org/2000/svg" 
		width="30" 
		height="30" 
		viewbox="0 0 30 30" 
		code="80603" 
		 transform=""
		><path d="M24.3242188 2C27.2910156 2 28.8359375 3.53125 28.8359375 6.45703125L28.8359375 6.45703125 28.8359375 23.0957031C28.8359375 26.0214844 27.2910156 27.5527344 24.3242188 27.5527344L24.3242188 27.5527344 5.49804688 27.5527344C2.54492188 27.5527344 1 26.0214844 1 23.0957031L1 23.0957031 1 6.45703125C1 3.51757812 2.54492188 2 5.49804688 2L5.49804688 2ZM24.3378906 8.671875L5.484375 8.671875C4.34960938 8.671875 3.72070312 9.25976562 3.72070312 10.46289062L3.72070312 10.46289062 3.72070312 23.0410156C3.72070312 24.2441406 4.34960938 24.8320312 5.484375 24.8320312L5.484375 24.8320312 24.3378906 24.8320312C25.4726562 24.8320312 26.1015625 24.2441406 26.1015625 23.0410156L26.1015625 23.0410156 26.1015625 10.46289062C26.1015625 9.25976562 25.4726562 8.671875 24.3378906 8.671875L24.3378906 8.671875Z"/>
	</svg>
	