<?xml version="1.0"?>
	<svg xmlns="http://www.w3.org/2000/svg" 
		width="30" 
		height="30" 
		viewbox="0 0 30 30" 
		code="80615" 
		 transform=""
		><path d="M7.85664175 13.5015929L3.75240722 16.3354691C2.99856822 16.9008484 2.15386471 15.7398017 2.79544515 15.2180518L6.97716292 12.2312346C7.75892188 11.7426352 8.6384007 12.9152737 7.85664175 13.5015929ZM1.89572969 7.83384044L6.78172318 8.71331927C7.72133731 8.80728068 7.48643378 10.1661073 6.68512084 10.0967482L1.60257008 9.29963849C0.625371387 9.10419875 0.918530996 7.6384007 1.89572969 7.83384044ZM19.4853062 5.29312383L15.4787916 8.22471992C14.5993128 8.71331927 13.8175538 7.54068083 14.5993128 6.95436161L18.7035473 4.12048539C19.4853062 3.53416618 20.3647851 4.80452448 19.4853062 5.29312383ZM6.23790267 1.79544515L9.22471992 5.97716292C9.71331927 6.75892188 8.54068083 7.6384007 7.95436161 6.85664175L5.12048539 2.75240722C4.55510615 1.99856822 5.71615281 1.15386471 6.23790267 1.79544515ZM13.6221141 0.895729693L12.7426352 5.78172318C12.5471955 6.75892188 11.1791173 6.46576227 11.2768372 5.58628344L12.156316 0.602570084C12.3517558-0.374628613 13.8175538-0.081469004 13.6221141 0.895729693Z"/>
	</svg>
	