<?xml version="1.0"?>
	<svg xmlns="http://www.w3.org/2000/svg" 
		width="30" 
		height="30" 
		viewbox="0 0 30 30" 
		code="80616" 
		 transform=""
		><path d="M19.1204082 7.255102041C19.7391388 7.260158223 20.266512900000002 7.705210521 20.375510300000002 8.31428571L20.6816327 9.98265306C21.3997566 10.18191105 22.0891339 10.47309581 22.7326531 10.848979589999999L24.1346939 9.8755102C24.6458305 9.51738441 25.3403371 9.57805692 25.7816327 10.01938776L26.7826531 11.020408159999999C27.223984 11.46170374 27.2846565 12.15621035 26.9265307 12.66734694L25.9530613 14.057142859999999C26.3303474 14.710412909999999 26.6205642 15.41022647 26.8163266 16.138775510000002L28.4846939 16.44489796C29.0916223 16.55193948 29.53723 17.0745975 29.5469388 17.6908163L29.5469388 19.0989796C29.5460377 19.7221471 29.0983772 20.254953399999998 28.4846939 20.363265300000002L26.8163266 20.669387800000003C26.6190949 21.3916107 26.3289136 22.0851646 25.9530613 22.7326531L26.9265307 24.122449C27.2987253 24.6384497 27.2375544 25.3490737 26.7826531 25.7938776L25.7938776 26.7826531C25.352582 27.2239839 24.6580754 27.2846564 24.1469388 26.9265306L22.7326531 25.9530612C22.0793055 26.3301901 21.379513 26.6203981 20.6510205 26.8163265L20.344898 28.4846939C20.2365861 29.0983771 19.7037799 29.5460376 19.0806123 29.5469388L17.6908164 29.5469388C17.0676488 29.5460376 16.534842599999998 29.0983771 16.42653068 28.4846939L16.120408230000002 26.8163265C15.39291537 26.6203129 14.69414594 26.3301023 14.041836799999999 25.9530612L12.66428578 26.9265306C12.1531492 27.2846564 11.45864259 27.2239839 11.01734701 26.7826531L10.0163266 25.7938776C9.56921701 25.3500155 9.50959883 24.6475578 9.87551027 24.1346939L10.84897966 22.7326531C10.47200136 22.0803129 10.18179429 21.381551899999998 9.98571435 20.654081599999998L8.31734701 20.3479592C7.7036637500000005 20.2396473 7.256003299 19.706841 7.25510211 19.0836735L7.25510211 17.6908163C7.255738529 17.068616499999997 7.701819216 16.53615603 8.31428578 16.42653061L9.98265313 16.12040816C10.17851519 15.39189303 10.46872673 14.692092169999999 10.84591844 14.03877551L9.87551027 12.66428571C9.51738448 12.15314913 9.57805699 11.45864252 10.01938782 11.01734694L11.020408230000001 10.01632653C11.46203023 9.57763441 12.154487450000001 9.51831778 12.66428578 9.8755102L14.054081700000001 10.848979589999999C14.70637531 10.47190704 15.40514896 10.18169472 16.13265313 9.98571429L16.438775579999998 8.31734694C16.5470875 7.703663681 17.0798937 7.25600323 17.7030613 7.255102041L19.1204082 7.255102041ZM18.4010205 14.57755102C16.28937664 14.57755102 14.57755109 16.28937657 14.57755109 18.4010204 14.57755109 20.5126642 16.28937664 22.2244898 18.4010205 22.2244898 20.5126643 22.2244898 22.224489900000002 20.5126642 22.224489900000002 18.4010204 22.224489900000002 16.28937657 20.5126643 14.57755102 18.4010205 14.57755102Z"/>
	</svg>
	