<?xml version="1.0"?>
	<svg xmlns="http://www.w3.org/2000/svg" 
		width="30" 
		height="30" 
		viewbox="0 0 30 30" 
		code="80617" 
		 transform=""
		><path d="M0.835714355 10.3346939C0.352056838 10.2486124-0.000179788378 9.82799285-7.28306304e-14 9.33673469L-7.28306304e-14 8.22244898C-0.000179788378 7.73119082 0.352056838 7.31057126 0.835714355 7.2244898L2.15204089 6.99489796C2.30740709 6.42161748 2.53689434 5.8710539 2.83469395 5.35714286L2.06326537 4.26122449C1.78098756 3.85842637 1.8287511 3.31108201 2.17653068 2.96326531L2.9663266 2.17346939C3.31313159 1.82616155 3.85938913 1.77838016 4.26122456 2.06020408L5.35714293 2.83469388C5.87114802 2.53783121 6.42172222 2.30936864 6.99489803 2.15510204L7.22448986 0.83877551C7.30925416 0.353901106 7.73022129-1.13686838e-13 8.22244905-1.13686838e-13L9.33979599-1.13686838e-13C9.82989855 0.00130154459 10.2488164 0.353192517 10.3346939 0.835714286L10.5642858 2.15204082C11.1386679 2.3070232 11.6902925 2.53652372 12.2051021 2.83469388L13.2979593 2.06632653C13.6997947 1.7845026 14.2460522 1.832284 14.5928572 2.17959184L15.3857144 2.96632653C15.7334939 3.31414323 15.7812575 3.86148759 15.4989797 4.26428571L14.7306123 5.35714286C14.9544462 5.75416085 15.1380128 6.1725695 15.2785715 6.60612245 14.9521867 7.01039976 14.7331718 7.49054783 14.6418368 8.00204082L14.5346939 8.61428571 14.2071429 8.74897959 13.7020409 8.39693878C13.1813226 8.030889 12.5599736 7.83518009 11.9234695 7.83673469 11.822449 7.83673469 11.7275511 7.85510204 11.617347 7.86428571 11.1893738 6.5061264 9.8664001 5.63526561 8.44969399 5.77914616 7.03298788 5.9230267 5.91211017 7.04208481 5.7659281 8.45855528 5.61974603 9.87502576 6.48845624 11.1994126 7.84591844 11.6295918 7.77367396 12.3643162 7.96698013 13.1006172 8.3908164 13.705102L8.74591844 14.2102041C8.70000007 14.3173469 8.6540817 14.427551 8.61122456 14.5377551L7.99897966 14.644898C7.48748667 14.736233 7.00733861 14.9552479 6.60306129 15.2816327 6.16953017 15.1410166 5.75112713 14.9574525 5.3540817 14.7336735L4.25816333 15.5020408C3.85622948 15.7813322 3.31190035 15.7323168 2.9663266 15.3857143L2.17653068 14.5959184C1.8287511 14.2481017 1.78098756 13.7007573 2.06326537 13.2979592L2.83469395 12.205102C2.53779985 11.6911125 2.30933553 11.140534 2.15510211 10.5673469L0.835714355 10.3346939Z"/>
	</svg>
	