<?xml version="1.0"?>
	<svg xmlns="http://www.w3.org/2000/svg" 
		width="30" 
		height="30" 
		viewbox="0 0 30 30" 
		code="80633" 
		 transform=""
		><path d="M10.403500000000001 5.0284999999999975L8.591000000000001 6.8409999999999975 5.891 4.115999999999998C5.4035 3.628499999999997 4.6035 3.628499999999999 4.116 4.116 3.628499999999999 4.603499999999999 3.6285000000000007 5.403499999999998 4.116000000000001 5.890999999999998L6.841000000000001 8.590999999999998 5.028500000000001 10.403499999999998C4.641000000000001 10.790999999999999 4.916000000000001 11.465999999999998 5.478500000000001 11.465999999999998L10.841000000000001 11.465999999999998C11.191 11.465999999999998 11.466000000000001 11.190999999999997 11.466000000000001 10.840999999999998L11.466000000000001 5.478499999999998C11.466000000000001 4.915999999999998 10.791 4.640999999999997 10.403500000000001 5.0284999999999975L10.403500000000001 5.0284999999999975ZM19.596500000000002 24.971499999999995L21.409000000000002 23.158999999999995 24.109 25.883999999999993C24.596500000000002 26.371499999999994 25.396500000000003 26.371499999999994 25.884000000000004 25.883999999999993 26.371500000000005 25.396499999999996 26.371500000000005 24.596499999999995 25.884000000000004 24.108999999999995L23.159000000000002 21.408999999999995 24.971500000000002 19.596499999999995C25.359 19.208999999999996 25.084000000000003 18.533999999999995 24.521500000000003 18.533999999999995L19.159000000000002 18.533999999999995C18.809 18.533999999999995 18.534000000000002 18.808999999999994 18.534000000000002 19.158999999999995L18.534000000000002 24.521499999999996C18.534000000000002 25.083999999999996 19.209000000000003 25.358999999999995 19.596500000000002 24.971499999999995L19.596500000000002 24.971499999999995Z"/>
	</svg>
	