<?xml version="1.0"?>
	<svg xmlns="http://www.w3.org/2000/svg" 
		width="30" 
		height="30" 
		viewbox="0 0 30 30" 
		code="80627" 
		 transform=""
		><path d="M6.25 27.5L23.75 27.5C24.4375 27.5 25 28.0625 25 28.75 25 29.3945312 24.5056152 29.9291992 23.8773346 29.993515L23.75 30 6.25 30C5.5625 30 5 29.4375 5 28.75 5 28.1054688 5.49438477 27.5708008 6.12266541 27.506485L6.25 27.5 23.75 27.5 6.25 27.5ZM6.25 0L23.75 0C24.4375 0 25 0.5625 25 1.25 25 1.89453125 24.5056152 2.42919922 23.8773346 2.49351501L23.75 2.5 6.25 2.5C5.5625 2.5 5 1.9375 5 1.25 5 0.60546875 5.49438477 0.0708007812 6.12266541 0.00648498535L6.25 0 23.75 0 6.25 0Z"/>
	</svg>
	