<?xml version="1.0"?>
	<svg xmlns="http://www.w3.org/2000/svg" 
		width="30" 
		height="30" 
		viewbox="0 0 30 30" 
		code="80640" 
		 transform=""
		><path d="M15 0C6.71566667 0 0 6.71566667 0 15 0 23.2843333 6.71566667 30 15 30 23.2846667 30 30 23.2843333 30 15 30 6.71566667 23.2846667 0 15 0ZM17.0546667 15.7626667L17.2206667 18.087C18.098 18.757 18.6666667 19.811 18.6666667 21 18.6666667 23.025 17.025 24.6666667 15 24.6666667 12.975 24.6666667 11.3333333 23.025 11.3333333 21 11.3333333 19.811 11.902 18.757 12.7793333 18.087L12.945 15.7696667C7.472 16.2893333 3.89233333 18.757 2.573 19.8316667 1.99 18.333 1.66666667 16.7046667 1.66666667 15 1.66666667 7.636 7.63633333 1.66666667 15 1.66666667 22.364 1.66666667 28.3333333 7.636 28.3333333 15 28.3333333 16.6176667 28.045 18.168 27.5173333 19.6023333 26.2736667 18.6446667 22.654 16.2566667 17.0546667 15.7626667Z"/>
	</svg>
	