<?xml version="1.0"?>
	<svg xmlns="http://www.w3.org/2000/svg" 
		width="30" 
		height="30" 
		viewbox="0 0 30 30" 
		code="80644" 
		 transform=""
		><path d="M28.7903226 9.482999999999997C29.458409 9.482999999999997 30 8.941408999999997 30 8.273322599999997 30 7.605236199999997 29.458409 7.063645199999996 28.7903226 7.063645199999996L17.66129032 7.063645199999996C16.993203932 7.063645199999996 16.451612903 7.605236199999997 16.451612903 8.273322599999997 16.451612903 8.941408999999997 16.993203932 9.482999999999997 17.66129032 9.482999999999997L28.7903226 9.482999999999997ZM26.854838700000002 14.321709699999998C27.522925100000002 14.321709699999998 28.0645161 13.780118699999997 28.0645161 13.112032299999997 28.0645161 12.443945899999997 27.522925100000002 11.902354899999997 26.854838700000002 11.902354899999997L17.66129032 11.902354899999997C16.993203932 11.902354899999997 16.451612903 12.443945899999997 16.451612903 13.112032299999997 16.451612903 13.780118699999997 16.993203932 14.321709699999998 17.66129032 14.321709699999998L26.854838700000002 14.321709699999998ZM24.91935484 19.160419379999997C25.58744123 19.160419379999997 26.1290323 18.618828349999998 26.1290323 17.950741959999995 26.1290323 17.282655569999996 25.58744123 16.741064539999996 24.91935484 16.741064539999996L17.66129032 16.741064539999996C16.993203932 16.741064539999996 16.451612903 17.282655569999996 16.451612903 17.950741959999995 16.451612903 18.618828349999998 16.993203932 19.160419379999997 17.66129032 19.160419379999997L24.91935484 19.160419379999997ZM22.983870969999998 23.999129055999997C23.65195736 23.999129055999997 24.19354839 23.45753803 24.19354839 22.789451639999996 24.19354839 22.121365249999997 23.65195736 21.579774219999997 22.983870969999998 21.579774219999997L17.66129032 21.579774219999997C16.993203932 21.579774219999997 16.451612903 22.121365249999997 16.451612903 22.789451639999996 16.451612903 23.45753803 16.993203932 23.999129055999997 17.66129032 23.999129055999997L22.983870969999998 23.999129055999997Z"/>
	</svg>
	