<?xml version="1.0"?>
	<svg xmlns="http://www.w3.org/2000/svg" 
		width="30" 
		height="30" 
		viewbox="0 0 30 30" 
		code="80646" 
		 transform=""
		><path d="M18.5652174 2.999999999999922C24.8695652 2.999999999999922 30 8.13043478 30 14.4347826 30 20.7391304 24.8695652 25.8695652 18.5652174 25.8695652 15.8204159 25.8695652 13.3142928 24.9148516 11.3512495 23.3098259L11.0869565 23.0869565 13.6521739 23.0869565C15 23.0869565 16.0869565 22 16.0869565 20.6521739 16.0869565 19.3582609 15.0852174 18.3047652 13.812608 18.222555800000002L13.6521739 18.2173913 9.2173913 18.2173913C8.73913043 18.2173913 8.30434783 18.3478261 7.91304348 18.6086957 7.75 18.1847826 7.61141304 17.7608696 7.49728261 17.318614099999998L7.39130435 16.8695652 13.6521739 16.8695652C15 16.8695652 16.0869565 15.7826087 16.0869565 14.4347826 16.0869565 13.1408696 15.0852174 12.08737391 13.812608 12.00516452L13.6521739 12 7.39130435 12C7.45652174 11.67391304 7.54619565 11.32336957 7.66032609 10.98505435L7.7826087 10.65217391 13.6521739 10.65217391C15 10.65217391 16.0869565 9.56521739 16.0869565 8.2173913 16.0869565 6.9234782599999996 15.0852174 5.86998261 13.812608 5.78777322L13.6521739 5.7826087 11.0869565 5.7826087C13.1304348 4.0434782600000005 15.6956522 2.999999999999922 18.5652174 2.999999999999922ZM8.95652174 19.3478261L13.3913043 19.3478261C14.1304348 19.3478261 14.7391304 19.9565217 14.7391304 20.6956522 14.7391304 21.3913043 14.1999398 21.9714157 13.5202878 22.037257L13.3913043 22.0434783 8.95652174 22.0434783C8.2173913 22.0434783 7.60869565 21.4347826 7.60869565 20.6956522 7.60869565 20 8.14788626 19.4198887 8.8275383 19.3540474L8.95652174 19.3478261ZM13.3913043 13.1304348C14.1304348 13.1304348 14.7391304 13.7391304 14.7391304 14.4782609 14.7391304 15.173913 14.1999398 15.7540244 13.5202878 15.8198657L13.3913043 15.826087 5.13043478 15.826087C4.39130435 15.826087 3.7826087 15.2173913 3.7826087 14.4782609 3.7826087 13.7826087 4.32179931 13.2024974 5.00145134 13.1366561L5.13043478 13.1304348 13.3913043 13.1304348ZM13.3913043 6.91304348C14.1304348 6.91304348 14.7391304 7.52173913 14.7391304 8.26086957 14.7391304 8.95652174 14.1999398 9.53663307 13.5202878 9.60247436L13.3913043 9.60869565 1.34782609 9.60869565C0.608695652 9.60869565-6.4659389e-13 9-6.4659389e-13 8.26086957-6.4659389e-13 7.56521739 0.539190612 6.98510606 1.21884264 6.91926477L1.34782609 6.91304348 13.3913043 6.91304348Z"/>
	</svg>
	