<?xml version="1.0"?>
	<svg xmlns="http://www.w3.org/2000/svg" 
		width="30" 
		height="30" 
		viewbox="0 0 30 30" 
		code="80647" 
		 transform=""
		><path d="M18.5652174 3C15.69565217 3 13.13043478 4.0434782600000005 11.086956520000001 5.7826087L13.65217391 5.7826087C15 5.7826087 16.08695652 6.86956522 16.08695652 8.2173913 16.08695652 9.56521739 15 10.65217391 13.65217391 10.65217391L7.7826086960000005 10.65217391C7.608695652 11.08695652 7.47826087 11.56521739 7.391304348 12L13.65217391 12C15 12 16.08695652 13.0869565 16.08695652 14.4347826 16.08695652 15.7826087 15 16.8695652 13.65217391 16.8695652L7.391304348 16.8695652C7.52173913 17.478260900000002 7.695652174 18.0434783 7.913043478 18.6086957 8.30434783 18.3478261 8.73913043 18.2173913 9.2173913 18.2173913L13.65217391 18.2173913C15 18.2173913 16.08695652 19.3043478 16.08695652 20.6521739 16.08695652 22 15 23.0869565 13.65217391 23.0869565L11.086956520000001 23.0869565C13.086956520000001 24.826087 15.69565217 25.8695652 18.5652174 25.8695652 24.8695652 25.8695652 30 20.7391304 30 14.4347826 30 8.13043478 24.8695652 3 18.5652174 3Z"/>
	</svg>
	