<?xml version="1.0"?>
	<svg xmlns="http://www.w3.org/2000/svg" 
		width="30" 
		height="30" 
		viewbox="0 0 30 30" 
		code="80649" 
		 transform=""
		><path d="M6.85630259 20.54250386L22.8103641 20.54250386 22.8103641 15.44156792C22.8103641 15.13742916 23.0583033 14.889489954 23.362442 14.889489954L27.1145887 14.889489954C27.4220333 14.889489954 27.6666667 15.13742916 27.6666667 15.44156792L27.6666667 24.8500343C27.6666667 25.1541731 27.4220333 25.3988065 27.1145887 25.3988065 18.929289 25.3988065 10.7406835 25.3988065 2.552077967 25.3988065 2.247939207 25.3988065 2 25.1541731 2 24.8500343L2 15.44156792C2 15.13742916 2.247939207 14.889489954 2.552077967 14.889489954L6.30422463 14.889489954C6.60836339 14.889489954 6.85630259 15.13742916 6.85630259 15.44156792L6.85630259 20.54250386Z"/>
	</svg>
	