<?xml version="1.0"?>
	<svg xmlns="http://www.w3.org/2000/svg" 
		width="30" 
		height="30" 
		viewbox="0 0 30 30" 
		code="80652" 
		 transform=""
		><path d="M19.057072 19.6674938L29.0322581 28.9727047C28.808933 29.0471464 28.5111663 29.1215881 28.2878412 29.1215881L28.2878412 29.1215881 1.7866005 29.1215881C1.48883375 29.1215881 1.191067 29.0471464 0.967741935 28.9727047L0.967741935 28.9727047 11.0173697 19.6674938 12.8039702 20.93300248C14.1439206 21.900744420000002 15.8560794 21.900744420000002 17.2704715 20.93300248L17.2704715 20.93300248 19.057072 19.6674938ZM30 12.000000000000014L30 27.781637699999997 20.248139 18.84863524 30 12.000000000000014ZM3.37507799e-14 12.000000000000014L9.75186104 18.84863524 0.0744416873 27.781637699999997C0.0148883375 27.662531 0.00297766749 27.543424299999998 0.000595533499 27.462431799999997L3.37507799e-14 12.000000000000014Z"/>
	</svg>
	