<?xml version="1.0"?>
	<svg xmlns="http://www.w3.org/2000/svg" 
		width="30" 
		height="30" 
		viewbox="0 0 30 30" 
		code="80654" 
		 transform=""
		><path d="M19.057072 15.09181141L29.0322581 24.3970223C28.808933 24.471464 28.5111663 24.5459057 28.2878412 24.5459057L28.2878412 24.5459057 1.7866005 24.5459057C1.48883375 24.5459057 1.191067 24.471464 0.967741935 24.3970223L0.967741935 24.3970223 11.0173697 15.09181141 12.8039702 16.357320100000003C14.1439206 17.325062000000003 15.8560794 17.325062000000003 17.2704715 16.357320100000003L17.2704715 16.357320100000003 19.057072 15.09181141ZM30 7.424317618L30 23.2059553 20.248139 14.27295285 30 7.424317618ZM3.37507799e-14 7.424317618L9.75186104 14.27295285 0.0744416873 23.2059553C0.0148883375 23.0868486 0.00297766749 22.9677419 0.000595533499 22.8867494L3.37507799e-14 7.424317618Z"/>
	</svg>
	