<?xml version="1.0"?>
	<svg xmlns="http://www.w3.org/2000/svg" 
		width="30" 
		height="30" 
		viewbox="0 0 30 30" 
		code="80665" 
		 transform=""
		><path d="M14.06666667 14.06666667L15 15.373333330000001C15.09333333 15.26133333 15.168 15.14 15.251999999999999 15.01866667M9.426156034 14.09889677L13.2528227 19.5122301C12.09205746 19.2102286 11.07047641 18.51818986 10.35948937 17.5522301 9.632575351 16.55588554 9.300111848 15.32577058 9.426156034 14.09889677L9.426156034 14.09889677ZM12.87948937 9.618896768C13.51211284 9.417993444 14.180315570000001 9.354355089 14.839489369999999 9.432230101 15.51463725 9.531748724 16.17367472 9.720045146 16.79948937 9.992230101 16.2364817 10.01103915 15.702076739999999 10.244841319999999 15.30615603 10.64556343 14.87106888 11.01694078 14.63028331 11.5673078 14.6528227 12.13889677 14.67163175 12.70190444 14.90543392 13.2363094 15.30615603 13.632230100000001 15.67753338 14.06731726 16.2279004 14.30810283 16.79948937 14.28556343 17.358269489999998 14.24877811 17.88656893 14.0176471 18.292822700000002 13.632230100000001 18.72790986 13.26085275 18.96869543 12.71048573 18.946156029999997 12.13889677 19.3804638 12.97164066 19.5743691 13.90884972 19.506156 14.84556343 19.4731483 15.82089984 19.1479942 16.76384672 18.5728227 17.5522301 14.176822699999999 13.072230099999999 12.87948937 9.618896768 12.87948937 9.618896768Z"/>
	</svg>
	