<?xml version="1.0"?>
	<svg xmlns="http://www.w3.org/2000/svg" 
		width="30" 
		height="30" 
		viewbox="0 0 30 30" 
		code="80664" 
		 transform=""
		><path d="M14.0666667 14.0666667L15 15.3733333C15.0933333 15.2613333 15.168 15.14 15.252 15.0186667M6.88048533 3.08481686C7.11338872 2.889533189 7.42679388 2.819887598 7.72048533 2.898150191 8.02227271 2.970011014 8.28764312 3.14913604 8.467151999999999 3.40215019L8.467151999999999 3.40215019 10.987152 6.91148352C12.323627 6.53614019 13.7056423 6.34768355 15.0938187 6.35148352 17.8812585 6.3551997 20.6181724 7.09577641 23.027152 8.49815019 25.3785156 9.83941854 27.3405373 11.76927594 28.7204853 14.0981502 28.9802202 14.4118777 29.1133701 14.8113273 29.0938187 15.2181502 29.0551535 15.614802 28.9275443 15.9976297 28.7204853 16.3381502L28.7204853 16.3381502 28.4404853 16.8048169C27.7260282 17.9824221 26.8459058 19.0511422 25.827152 19.9781502 24.7483174 21.0646979 23.4840015 21.949719 22.0938187 22.5914835L22.0938187 22.5914835 24.147152 25.4848169C24.3424357 25.7177202 24.4120813 26.0311254 24.3338187 26.3248169 24.2945668 26.6298413 24.124131 26.9025386 23.867152 27.0714835L23.867152 27.0714835 23.2138187 27.5381502C22.9809153 27.7334339 22.6675101 27.8030795 22.3738187 27.7248169 22.0775309 27.6625631 21.8129444 27.4971965 21.627152 27.2581502L21.627152 27.2581502 5.947152 5.13815019C5.75186833 4.9052468000000005 5.68222274 4.59184164 5.76048533 4.298150189999999 5.79973719 3.99312575 5.97017298 3.7204284899999998 6.227152 3.5514835199999997L6.227152 3.5514835199999997ZM6.04048533 9.00215019L8.84048533 13.0154835C8.57357119 13.6988264 8.446616460000001 14.4288161 8.467151999999999 15.1621502 8.46893964 16.3042314 8.75779051 17.427540399999998 9.307152 18.4288169 9.89238151 19.4340987 10.72853681 20.270254 11.7338187 20.8554835 12.6997874 21.4973589 13.8412192 21.8234823 15.0004853 21.7888169L15.0004853 21.7888169 16.4938187 23.9354835C16.000365600000002 24.0160209 15.5001263 24.0472859 15.0004853 24.0288169 12.2130455 24.0251007 9.47613156 23.284524 7.067152 21.8821502 4.7157883599999995 20.5408818 2.75376666 18.6110244 1.373818666 16.2821502L1.373818666 16.2821502 1.2804853330000001 16.1888169C1.0895143745 15.8810113 0.99222704202 15.524291 1.000485332643 15.1621502 1.0391505167 14.7654984 1.166759744 14.3826707 1.373818666 14.0421502L1.373818666 14.0421502 1.560485333 13.6688169C2.67664247 11.79063393 4.20940472 10.19400658 6.04048533 9.00215019L6.04048533 9.00215019ZM15.3831724 8.40364087L15.0938187 8.40481686C14.234196 8.42391474 13.3832759 8.58149254 12.5738187 8.87148352L12.5738187 8.87148352 13.507152 10.17815019C13.507152 10.17815019 14.8044853 13.6314835 19.2004853 18.1114835L19.2004853 18.1114835 20.1338187 19.4181502C20.5843628 18.7984853 20.9779647 18.1393584 21.3098187 17.4488169L21.3098187 17.4488169 21.3098187 17.4861502C21.5926214 16.7314969 21.7319011 15.9306386 21.7204853 15.1248169 21.7307117 13.9394409 21.407282 12.7750939 20.787152 11.76481686 20.2019225 10.759535 19.3657672 9.9233797 18.3604853 9.33815019 17.3945166 8.696274800000001 16.2530848 8.37015142 15.0938187 8.40481686Z"/>
	</svg>
	