<?xml version="1.0"?>
	<svg xmlns="http://www.w3.org/2000/svg" 
		width="30" 
		height="30" 
		viewbox="0 0 30 30" 
		code="80670" 
		 transform=""
		><path d="M9.4105 22.75C10.9558007 23.8807453 11.9903396 25.649766 12.0773784 27.6694936L12.0833333 27.9464286 12.0833333 28.3797619C12.0833333 28.9958333 11.6086141 29.5030878 10.9986875 29.5640881L10.875 29.5702381 1.20833333 29.5702381C0.581888021 29.5702381 0.0680159505 29.1014881 0.00622899373 28.5014253L0 28.3797619 0 27.9464286C0 25.8119048 1.05729167 23.9321429 2.67283333 22.75 3.49933333 23.6714286 4.69679167 24.2654762 6.04166667 24.2654762 7.38654167 24.2654762 8.584 23.6714286 9.4105 22.75ZM26.3271667 22.75C27.8724674 23.8807453 28.9070063 25.649766 28.994045 27.6694936L29 27.9464286 29 28.3797619C29 28.9958333 28.5252808 29.5030878 27.9153542 29.5640881L27.7916667 29.5702381 18.125 29.5702381C17.4985547 29.5702381 16.9846826 29.1014881 16.9228957 28.5014253L16.9166667 28.3797619 16.9166667 27.9464286C16.9166667 25.8119048 17.9739583 23.9321429 19.5895 22.75 20.416 23.6714286 21.6134583 24.2654762 22.9583333 24.2654762 24.3032083 24.2654762 25.4994583 23.6714286 26.3271667 22.75ZM6.04408333 16.5833333C7.86393062 16.5833333 9.33920833 18.0368089 9.33920833 19.8297619 9.33920833 21.6227149 7.86393062 23.0761905 6.04408333 23.0761905 4.22423605 23.0761905 2.74895833 21.6227149 2.74895833 19.8297619 2.74895833 18.0368089 4.22423605 16.5833333 6.04408333 16.5833333ZM22.9595417 16.5833333C24.779389 16.5833333 26.2546667 18.0368089 26.2546667 19.8297619 26.2546667 21.6227149 24.779389 23.0761905 22.9595417 23.0761905 21.1396944 23.0761905 19.6644167 21.6227149 19.6644167 19.8297619 19.6644167 18.0368089 21.1396944 16.5833333 22.9595417 16.5833333ZM17.8688333 7.16547619C19.4141341 8.29622153 20.448673 10.0652421 20.5357117 12.0849698L20.5416667 12.3619048 20.5416667 12.7952381C20.5416667 13.4113095 20.0669474 13.918564 19.4570208 13.9795643L19.3333333 13.9857143 9.66666667 13.9857143C9.04022135 13.9857143 8.52634928 13.5169643 8.46456233 12.9169015L8.45833333 12.7952381 8.45833333 12.3619048C8.45833333 10.227381 9.515625 8.34761905 11.1311667 7.16666667 11.9576667 8.08928571 13.155125 8.68333333 14.5 8.68333333 15.844875 8.68333333 17.0423333 8.08928571 17.8688333 7.16547619ZM14.5012083 1C16.3210556 1 17.7963333 2.45347558 17.7963333 4.24642857 17.7963333 6.03938156 16.3210556 7.49285714 14.5012083 7.49285714 12.681361 7.49285714 11.2060833 6.03938156 11.2060833 4.24642857 11.2060833 2.45347558 12.681361 1 14.5012083 1Z"/>
	</svg>
	