<?xml version="1.0"?>
	<svg xmlns="http://www.w3.org/2000/svg" 
		width="30" 
		height="30" 
		viewbox="0 0 30 30" 
		code="80675" 
		 transform=""
		><path d="M21.3691406 19.8046875L20.4316406 19.8046875C19.7519531 19.8046875 19.2011719 20.3554688 19.2011719 21.0351562L19.2011719 23.203125 17.0332031 23.203125C16.3535156 23.203125 15.8027344 23.7539062 15.8027344 24.4335938L15.8027344 25.3710938C15.8027344 26.0507812 16.3535156 26.6015625 17.0332031 26.6015625L19.2011719 26.6015625 19.2011719 28.7695312C19.2011719 29.4492188 19.7519531 30 20.4316406 30L21.3691406 30C22.0488281 30 22.5996094 29.4492188 22.5996094 28.7695312L22.5996094 26.6015625 24.7675781 26.6015625C25.4472656 26.6015625 25.9980469 26.0507812 25.9980469 25.3710938L25.9980469 24.4335938C25.9980469 23.7539062 25.4472656 23.203125 24.7675781 23.203125L22.5996094 23.203125 22.5996094 21.0351562C22.5996094 20.3554688 22.0488281 19.8046875 21.3691406 19.8046875Z"/>
	</svg>
	