<?xml version="1.0"?>
	<svg xmlns="http://www.w3.org/2000/svg" 
		width="30" 
		height="30" 
		viewbox="0 0 30 30" 
		code="80690" 
		 transform=""
		><path d="M28.125 12.41176471L11.52625 12.41176471C11.2575 12.41176471 11.01875 12.24252941 10.93375 11.98929412L10.2525 9.97205882C9.9975 9.21482353 9.2825 8.705882353 8.47375 8.705882353L1.875 8.705882353C0.84125 8.705882353 0 9.53723529 0 10.55882353 0 12.25735294 0.25125 13.944764710000001 0.745 15.57288235L3.2425 23.7987059C3.6425 25.1155294 4.845 26 6.23625 26L23.8925 26C25.1875 26 26.36375 25.1945882 26.81875 23.996352899999998L29.5225 16.87241176C29.84 16.03611765 30 15.15905882 30 14.264705880000001 30 13.24311765 29.15875 12.41176471 28.125 12.41176471Z"/>
	</svg>
	