<?xml version="1.0"?>
	<svg xmlns="http://www.w3.org/2000/svg" 
		width="30" 
		height="30" 
		viewbox="0 0 30 30" 
		code="80688" 
		 transform=""
		><path d="M28.898453 10.25702304C28.7377121 10.20287186 28.5692958 10.17497468 28.3996795 10.17440413L17.7540794 10.17440413C16.6386629 10.17078252 15.6200618 9.540219910000001 15.1194541 8.54344556L14.1678066 6.64321053C14.0946022 6.49619666 14.008591 6.35591643 13.9107699 6.22399604 13.3561112 5.456862763 12.4675863 5.00179239546 11.5209414 4.999999999999984L1.64951108 4.999999999999984C1.18760581 4.99823923969 0.746284594 5.190960208 0.433634614 5.53097434 0.120984633 5.870988471-0.0341184917 6.32689286 0.00631267135 6.78702864L1.42613401 24.032962C1.49770627 24.8856498 2.21058616 25.5415231 3.06627246 25.5415231L27.4357922 25.5415231C28.2677382 25.5423873 28.9599159 24.9022229 29.0239113 24.0727415L29.9939186 11.90940133C30.0584315 11.170629250000001 29.6040461 10.4852434 28.898453 10.25702304L28.898453 10.25702304Z"/>
	</svg>
	