<?xml version="1.0"?>
	<svg xmlns="http://www.w3.org/2000/svg" 
		width="30" 
		height="30" 
		viewbox="0 0 30 30" 
		code="80698" 
		 transform=""
		><path d="M24.9154519 16.9539359C24.9154519 17.4717201 24.8804665 17.9930029 24.8104956 18.5072886 24.8279883 18.3848397 24.845481 18.2588921 24.8594752 18.1364431 24.7230321 19.1335277 24.4536443 20.109621 24.0653061 21.0367347 24.1107872 20.9247813 24.1597668 20.812828 24.2052478 20.7008746 23.8204082 21.6069971 23.3201166 22.4571429 22.7218659 23.2373178 22.7953353 23.1428571 22.8688047 23.0483965 22.9422741 22.9539359 22.3440233 23.7271137 21.6478134 24.4198251 20.8781341 25.0180758 20.9725948 24.9446064 21.0670554 24.871137 21.161516 24.7976676 20.3813411 25.3994169 19.5311953 25.8962099 18.6250729 26.2810496 18.7370262 26.2355685 18.8489796 26.1865889 18.9609329 26.1411079 18.0338192 26.5329446 17.0577259 26.7988338 16.0606414 26.935277 16.1830904 26.9177843 16.3090379 26.9002915 16.4314869 26.8862974 15.4029155 27.0227405 14.3568513 27.0227405 13.3282799 26.8862974 13.4507289 26.9037901 13.5766764 26.9212828 13.6991254 26.935277 12.7020408 26.7988338 11.7259475 26.5294461 10.7988338 26.1411079 10.9107872 26.1865889 11.0227405 26.2355685 11.1346939 26.2810496 10.2285714 25.8962099 9.37842566 25.3959184 8.59825073 24.7976676 8.69271137 24.871137 8.78717201 24.9446064 8.88163265 25.0180758 8.10845481 24.4198251 7.41574344 23.7236152 6.81749271 22.9539359 6.8909621 23.0483965 6.96443149 23.1428571 7.03790087 23.2373178 6.4361516 22.4571429 5.9393586 21.6069971 5.55451895 20.7008746 5.6 20.812828 5.64897959 20.9247813 5.69446064 21.0367347 5.30262391 20.109621 5.03673469 19.1335277 4.90029155 18.1364431 4.91778426 18.2588921 4.93527697 18.3848397 4.94927114 18.5072886 4.81282799 17.4822157 4.81282799 16.4466472 4.94577259 15.4215743 4.92827988 15.5440233 4.91078717 15.6699708 4.896793 15.7924198 5.03323615 14.7883382 5.30262391 13.8052478 5.69446064 12.871137 5.64897959 12.9830904 5.6 13.0950437 5.55451895 13.2069971 5.94285714 12.2938776 6.44664723 11.4367347 7.05189504 10.6530612 6.97842566 10.7475219 6.90495627 10.8419825 6.83148688 10.9364431 7.36676385 10.2507289 7.97201166 9.6244898 8.5877551 9.0122449 9.32244898 8.27755102 10.0746356 7.56734694 10.8373178 6.86413994 12.2017493 5.60466472 13.5906706 4.37317784 14.993586 3.15568513 15.2874636 2.90029155 15.5813411 2.6483965 15.8787172 2.39650146 15.2174927 2.39650146 14.5597668 2.39650146 13.8985423 2.39650146 14.7311953 3.10670554 15.5568513 3.82740525 16.3755102 4.5516035 17.9218659 5.91953353 19.4542274 7.30495627 20.9236152 8.75335277 21.6268222 9.44956268 22.3300292 10.1562682 22.9387755 10.9364431 22.8653061 10.8419825 22.7918367 10.7475219 22.7183673 10.6530612 23.3236152 11.4367347 23.8274052 12.2938776 24.2157434 13.2069971 24.1702624 13.0950437 24.1212828 12.9830904 24.0758017 12.871137 24.4676385 13.8052478 24.7370262 14.7883382 24.8734694 15.7924198 24.8559767 15.6699708 24.838484 15.5440233 24.8244898 15.4215743 24.8804665 15.928863 24.9154519 16.4396501 24.9154519 16.9539359 24.9189504 17.6851312 25.5591837 18.3883382 26.3148688 18.3533528 27.0705539 18.3183673 27.7177843 17.7376093 27.7142998 16.9539359 27.7072886 14.7918367 27.161516 12.6507289 26.122449 10.754519 25.3947522 9.42857143 24.3976676 8.28804665 23.3376093 7.21749271 22.3580175 6.22390671 21.3364431 5.27230321 20.3043732 4.33119534 19.3422741 3.45306122 18.3696793 2.58542274 17.3865889 1.72827988 16.8897959 1.29446064 16.3895044 0.857142857 15.8857143 0.4303207 15.8787172 0.423323615 15.8717201 0.419825073 15.864723 0.412827988 15.5883382 0.178425656 15.2524781-0.0139941691 14.8746356 0.00349854227 14.4862974 0.0209912536 14.1819242 0.160932945 13.8845481 0.412827988 13.2688047 0.937609329 12.6600583 1.46938776 12.051312 2.00116618 10.7673469 3.12769679 9.49737609 4.26472303 8.25189504 5.43323615 7.13236152 6.48279883 5.98483965 7.54285714 5.01574344 8.73586006 4.57492711 9.27463557 4.16209913 9.83790087 3.80874636 10.4361516 3.45539359 11.0344023 3.16851312 11.6641399 2.90962099 12.3078717 2.41282799 13.5393586 2.15043732 14.8548105 2.05947522 16.1772595 1.9090379 18.4548105 2.41282799 20.7498542 3.43440233 22.7825073 4.40349854 24.7102041 5.89037901 26.3440233 7.65714286 27.5685131 9.4728863 28.8279883 11.6104956 29.5381924 13.8005831 29.7411079 16.0431487 29.9510204 18.2927114 29.503207 20.3323615 28.5690962 22.3020408 27.6699708 23.9603499 26.2250729 25.251312 24.5002915 25.9055394 23.625656 26.3988338 22.6740525 26.8116618 21.6664723 27.2349854 20.6309038 27.4763848 19.5603499 27.6163265 18.4548105 27.6793003 17.954519 27.7142998 17.4542274 27.7142998 16.9504373 27.7142998 16.219242 27.0705539 15.516035 26.3148688 15.5510204 25.5556851 15.5895044 24.9154519 16.1702624 24.9154519 16.9539359Z"/>
	</svg>
	