<?xml version="1.0"?>
	<svg xmlns="http://www.w3.org/2000/svg" 
		width="30" 
		height="30" 
		viewbox="0 0 30 30" 
		code="80705" 
		 transform=""
		><path d="M0 14.4431631C0 15.1350906 0.55601318 15.6046129 1.27265239 15.6046129 1.68039539 15.6046129 2.01400329 15.4192751 2.31054366 15.1350906L14.6169687 3.90362438C14.7405272 3.79242175 14.8640857 3.74299835 15 3.74299835 15.1359143 3.74299835 15.2718287 3.79242175 15.3953871 3.90362438L27.6894563 15.1350906C27.9736409 15.4192751 28.3196046 15.6046129 28.7273476 15.6046129 29.4439868 15.6046129 30 15.1350906 30 14.4431631 30 14.0354201 29.8640857 13.7265239 29.5428336 13.4299835L25.0700165 9.35255354 25.0700165 1.90197694C25.0700165 1.3583196 24.7116969 1 24.1556837 1L22.1540362 1C21.5980231 1 21.2273476 1.3583196 21.2273476 1.90197694L21.2273476 5.86820428 16.7545305 1.77841845C16.223229 1.28418451 15.6301483 1.04942339 15 1.04942339 14.3698517 1.04942339 13.776771 1.29654036 13.2454695 1.77841845L0.457166392 13.4299835C0.135914333 13.7265239 0 14.0354201 0 14.4431631Z"/>
	</svg>
	