<?xml version="1.0"?>
	<svg xmlns="http://www.w3.org/2000/svg" 
		width="30" 
		height="30" 
		viewbox="0 0 30 30" 
		code="80711" 
		 transform=""
		><path d="M13.8957484 14.2036981C13.7865463 14.1753055 13.6904484 14.146913 13.5921665 14.1272566 12.6737826 13.9857501 12.0235487 13.1547895 12.1070181 12.2293242 12.178955 11.2743284 12.9886663 10.5444342 13.9459813 10.5716364 14.4657833 10.5716364 14.9855853 10.6043971 15.5010191 10.5716364 16.5144146 10.4908269 17.5168898 11.1919043 17.5037855 12.5765869 17.4906813 14.2080662 17.5037855 15.8417295 17.5037855 17.4732088 17.5037855 19.1046881 17.5037855 20.7121429 17.5037855 22.332702 17.5037855 22.4440881 17.5037855 22.5511061 17.5190738 22.6930689L17.8488642 22.7651423C18.7591912 22.9348187 19.3921693 23.7676034 19.3119986 24.6901315 19.2318278 25.6126596 18.4646802 26.3237688 17.5387302 26.3338667 16.3244029 26.3542511 15.1100756 26.3542511 13.8957484 26.3338667 12.9366336 26.3323521 12.1489691 25.575501 12.1092021 24.6172098 12.0305766 23.7719856 12.6552126 22.9769943 13.5288293 22.7651423 13.6380314 22.7389337 13.7472335 22.7192774 13.8870122 22.6930689L13.8870122 14.2036981 13.8957484 14.2036981Z"/>
	</svg>
	