<?xml version="1.0"?>
	<svg xmlns="http://www.w3.org/2000/svg" 
		width="30" 
		height="30" 
		viewbox="0 0 30 30" 
		code="80719" 
		 transform=""
		><path d="M13.021316 21.8029978L11.2938442 23.5400017C9.95528559 24.8844693 7.7768355 24.8844693 6.4382769 23.5400017 5.09971829 22.1938628 5.09971829 20.0053425 6.4382769 18.6592575L11.2938442 13.7801846C12.6332611 12.4340457 14.8099946 12.4340457 16.1485532 13.7801846 16.5668092 14.2005396 16.8392093 14.7076398 16.996813 15.2425587 17.1242156 15.1684291 17.2549977 15.1077776 17.3622841 14.9999528L19.6186777 12.7330978C19.3303456 12.2394758 18.9984015 11.7643458 18.5759613 11.3406481 15.8954646 8.64589035 11.5470401 8.64589035 8.86568504 11.3406481L4.01097604 16.2197211C1.32967465 18.9153414 1.32967465 23.2839178 4.01097604 25.9795382 6.69227742 28.6734873 11.0398973 28.6734873 13.7212523 25.9795382L17.4008536 22.2814705C15.9306546 22.4987914 14.4210814 22.3505323 13.021316 21.8029978Z"/>
	</svg>
	