<?xml version="1.0"?>
	<svg xmlns="http://www.w3.org/2000/svg" 
		width="30" 
		height="30" 
		viewbox="0 0 30 30" 
		code="80722" 
		 transform=""
		><path d="M4.60845588 20.5565257L6.57306985 20.5565257C7.44623162 20.5565257 8.18152574 21.2688419 8.18152574 22.1649816 8.18152574 22.9896344 7.52566154 23.6913126 6.71721782 23.7667317L6.57306985 23.7734375 4.60845588 23.7734375C3.72380515 23.7734375 3 23.0381434 3 22.1649816 3 21.3186275 3.64561632 20.6362393 4.46259993 20.5630306L4.60845588 20.5565257 6.57306985 20.5565257 4.60845588 20.5565257ZM4.60845588 13.2725184L6.57306985 13.2725184C7.44623162 13.2725184 8.18152574 13.9963235 8.18152574 14.8809743 8.18152574 15.7164777 7.52566154 16.4085109 6.71721782 16.4828248L6.57306985 16.4894301 4.60845588 16.4894301C3.72380515 16.4894301 3 15.765625 3 14.8809743 3 14.0454708 3.64561632 13.3534376 4.46259993 13.2791238L4.60845588 13.2725184ZM4.60845588 6L6.57306985 6C7.44623162 6 8.18152574 6.71231618 8.18152574 7.60845588 8.18152574 8.43310866 7.52566154 9.1347869 6.71721782 9.21020593L6.57306985 9.21691176 4.60845588 9.21691176C3.72380515 9.21691176 3 8.48161765 3 7.60845588 3 6.76210172 3.64561632 6.0797136 4.46259993 6.0065049L4.60845588 6Z"/>
	</svg>
	