<?xml version="1.0"?>
	<svg xmlns="http://www.w3.org/2000/svg" 
		width="30" 
		height="30" 
		viewbox="0 0 30 30" 
		code="80721" 
		 transform=""
		><path d="M26.3800551 20.7403493C27.1842831 20.7403493 27.8046875 21.3722426 27.8046875 22.1649816 27.8046875 22.9577206 27.1727941 23.589614 26.3800551 23.589614L11.9613971 23.589614C11.1571691 23.589614 10.5252757 22.9577206 10.5252757 22.1649816 10.5252757 21.3607537 11.1571691 20.7403493 11.9613971 20.7403493L26.3800551 20.7403493ZM11.9613971 13.4563419L26.3800551 13.4563419C27.1842831 13.4563419 27.8046875 14.0882353 27.8046875 14.8809743 27.8046875 15.6378947 27.244948 16.2319818 26.5181847 16.2992553L26.3800551 16.3056066 11.9613971 16.3056066C11.1571691 16.3056066 10.5252757 15.6737132 10.5252757 14.8809743 10.5252757 14.1240538 11.0850152 13.5299667 11.821357 13.4626932L11.9613971 13.4563419ZM11.9613971 6.18382353L26.3800551 6.18382353C27.1842831 6.18382353 27.8046875 6.81571691 27.8046875 7.60845588 27.8046875 8.35456315 27.244948 8.95819128 26.5181847 9.02662467L26.3800551 9.03308824 11.9613971 9.03308824C11.1571691 9.03308824 10.5252757 8.40119485 10.5252757 7.60845588 10.5252757 6.85153547 11.0850152 6.25744835 11.821357 6.19017485L11.9613971 6.18382353Z"/>
	</svg>
	