<?xml version="1.0"?>
	<svg xmlns="http://www.w3.org/2000/svg" 
		width="30" 
		height="30" 
		viewbox="0 0 30 30" 
		code="80724" 
		 transform=""
		><path d="M14.8420139 0C17.7829861 0 20.1284722 2.43009868 20.1284722 5.390625 20.1284722 7.80838816 18.5607639 9.86842105 16.3854167 10.546875L16.3854167 10.546875 16.3854167 18.2935855C16.3854167 21.0320724 15.4496528 23.2524671 14.8420139 23.2524671 14.234375 23.2524671 13.2864583 21.0197368 13.2864583 18.2935855L13.2864583 18.2935855 13.2864583 10.5345395C11.1232639 9.85608553 9.55555556 7.80838816 9.55555556 5.390625 9.55555556 2.43009868 11.9131944 0 14.8420139 0ZM13.3472222 2.02302632C12.3871528 2.02302632 11.5364583 2.86184211 11.5364583 3.86101974 11.5364583 4.84786184 12.3871528 5.71134868 13.3472222 5.71134868 14.34375 5.71134868 15.1579861 4.84786184 15.1579861 3.86101974 15.1579861 2.86184211 14.34375 2.02302632 13.3472222 2.02302632Z"/>
	</svg>
	