<?xml version="1.0"?>
	<svg xmlns="http://www.w3.org/2000/svg" 
		width="30" 
		height="30" 
		viewbox="0 0 30 30" 
		code="80728" 
		 transform=""
		><path d="M24.5242424 14.6909091C25.4480642 14.6909091 26.1969752 15.4398146 26.1969752 16.3636364L26.1969752 28.3242424C26.1977743 28.7684021 26.0218964 29.1946457 25.7081119 29.5089986 25.3943274 29.8233516 24.9684028 30 24.5242424 30L5.9 30C5.45583961 30 5.02991501 29.8233516 4.71613054 29.5089986 4.40234607 29.1946457 4.22646809 28.7684021 4.22726725 28.3242424L4.22726725 16.3636364C4.22726725 15.4398146 4.97617824 14.6909091 5.9 14.6909091L24.5242424 14.6909091ZM15.5 20C14.1192881 20 13 21.1192881 13 22.5 13 23.8807119 14.1192881 25 15.5 25 16.8807119 25 18 23.8807119 18 22.5 18 21.1192881 16.8807119 20 15.5 20Z"/>
	</svg>
	