<?xml version="1.0"?>
	<svg xmlns="http://www.w3.org/2000/svg" 
		width="30" 
		height="30" 
		viewbox="0 0 30 30" 
		code="80731" 
		 transform=""
		><path d="M14.6363636 23.6967773C9.82181818 23.6967773 5.90909091 19.7840501 5.90909091 14.9695046 5.90909091 13.8204137 6.12727273 12.7004137 6.54909091 11.6967773 6.76727273 11.173141 6.60727273 10.5767773 6.21454545 10.1840501 5.47272727 9.44223187 4.22181818 9.70405006 3.82909091 10.6785955 3.29090909 12.0022319 3 13.4567773 3 14.9695046 3 21.3985955 8.20727273 26.6058682 14.6363636 26.6058682L14.6363636 29.2095046C14.6363636 29.8640501 15.4218182 30.1840501 15.8727273 29.7185955L19.9309091 25.6604137C20.2218182 25.3695046 20.2218182 24.9185955 19.9309091 24.6276864L15.8727273 20.5695046C15.4218182 20.1185955 14.6363636 20.4385955 14.6363636 21.093141L14.6363636 23.6967773Z"/>
	</svg>
	