<?xml version="1.0"?>
	<svg xmlns="http://www.w3.org/2000/svg" 
		width="30" 
		height="30" 
		viewbox="0 0 30 30" 
		code="80734" 
		 transform=""
		><path d="M27.181328 23.5264508C27.2471907 23.3486002 27.3078276 23.1665267 27.3514651 22.9775121 27.3951025 22.7884975 27.4204182 22.5982694 27.4391857 22.4095462L28.9031102 21.7490576C29.0347962 21.6889647 29.1028775 21.5417914 29.0583831 21.3987929L28.3391996 19.1423205C28.2940441 19.0021859 28.1528862 18.9153 28.0085302 18.9362699L26.4098001 19.1734908C26.1588583 18.8772527 25.870548 18.6085854 25.545168 18.3796239L25.6748319 16.8108131C25.6794161 16.6700959 25.5831984 16.5362717 25.4360263 16.5022944L23.0812726 15.9586566C22.9341005 15.9246793 22.788956 16.0027806 22.7343333 16.1319455L22.1631531 17.5988242C21.7703333 17.6619762 21.3940869 17.774202 21.0380185 17.9333173L19.7050802 17.0192674C19.5838653 16.9400022 19.4195664 16.9533513 19.3175498 17.0595085L17.6819797 18.7723433C17.5799631 18.8785005 17.5766376 19.0406238 17.667992 19.1552262L18.6912761 20.3899321C18.6254134 20.5677826 18.5647765 20.7498561 18.521139 20.9388707 18.4775015 21.1278853 18.4521859 21.3181134 18.4334183 21.5068367L16.9724373 22.1680048C16.8407513 22.2280977 16.77267 22.375271 16.8171645 22.5182695L17.5363479 24.7747419C17.5815035 24.9148765 17.7226613 25.0017624 17.8670173 24.9807925L19.4657474 24.7435716C19.7166892 25.0398097 20.0049995 25.308477 20.3303796 25.5374385L20.2007156 27.1062493C20.193188 27.246287 20.2894057 27.3801111 20.4365778 27.4140885L22.7913314 27.9577262C22.9385035 27.9917036 23.0836481 27.9136022 23.1382708 27.7844373L23.709451 26.3175586C24.1022708 26.2544066 24.4785172 26.1421808 24.8345856 25.9830655L26.1675238 26.8971154C26.2887388 26.9763807 26.4530377 26.9630315 26.5550542 26.8568743L28.1906244 25.1440396C28.2926409 25.0378824 28.2959664 24.875759 28.204612 24.7611566L27.181328 23.5264508ZM22.3060674 23.8236916C21.1449776 23.5556329 20.4227069 22.3997582 20.6907656 21.2386684 20.9588243 20.0775785 22.114699 19.3553079 23.2757889 19.6233666 24.4368787 19.8914253 25.1591494 21.0473 24.8910906 22.2083898 24.6230319 23.3694796 23.4671573 24.0917503 22.3060674 23.8236916Z"/>
	</svg>
	