<?xml version="1.0"?>
	<svg xmlns="http://www.w3.org/2000/svg" 
		width="30" 
		height="30" 
		viewbox="0 0 30 30" 
		code="80741" 
		 transform=""
		><path d="M19.921875 16.40625L26.484375 16.40625C28.3421875 16.40625 29.8933854 17.8736198 29.9947344 19.728638L30 19.921875 30 26.484375C30 28.3421875 28.5326302 29.8933854 26.677612 29.9947344L26.484375 30 19.921875 30C18.0640625 30 16.5128646 28.5326302 16.4115156 26.677612L16.40625 26.484375 16.40625 19.921875C16.40625 18.0640625 17.8736198 16.5128646 19.728638 16.4115156L19.921875 16.40625 26.484375 16.40625 19.921875 16.40625ZM3.515625 0L10.078125 0C11.9359375 0 13.4871354 1.46736979 13.5884844 3.32238802L13.59375 3.515625 13.59375 10.078125C13.59375 11.9359375 12.1263802 13.4871354 10.271362 13.5884844L10.078125 13.59375 3.515625 13.59375C1.6578125 13.59375 0.106614583 12.1263802 0.005265625 10.271362L0 10.078125 0 3.515625C0 1.6578125 1.46736979 0.106614583 3.32238802 0.005265625L3.515625 0 10.078125 0 3.515625 0Z"/>
	</svg>
	