<?xml version="1.0"?>
	<svg xmlns="http://www.w3.org/2000/svg" 
		width="30" 
		height="30" 
		viewbox="0 0 30 30" 
		code="80740" 
		 transform=""
		><path d="M3.515625 16.40625L10.078125 16.40625C11.9359375 16.40625 13.4871354 17.8736198 13.5884844 19.728638L13.59375 19.921875 13.59375 26.484375C13.59375 28.3421875 12.1263802 29.8933854 10.271362 29.9947344L10.078125 30 3.515625 30C1.6578125 30 0.106614583 28.5326302 0.005265625 26.677612L0 26.484375 0 19.921875C0 18.0640625 1.46736979 16.5128646 3.32238802 16.4115156L3.515625 16.40625 10.078125 16.40625 3.515625 16.40625ZM19.921875 0L26.484375 0C28.3421875 0 29.8933854 1.46736979 29.9947344 3.32238802L30 3.515625 30 10.078125C30 11.9359375 28.5326302 13.4871354 26.677612 13.5884844L26.484375 13.59375 19.921875 13.59375C18.0640625 13.59375 16.5128646 12.1263802 16.4115156 10.271362L16.40625 10.078125 16.40625 3.515625C16.40625 1.6578125 17.8736198 0.106614583 19.728638 0.005265625L19.921875 0 26.484375 0 19.921875 0Z"/>
	</svg>
	