<?xml version="1.0"?>
	<svg xmlns="http://www.w3.org/2000/svg" 
		width="30" 
		height="30" 
		viewbox="0 0 30 30" 
		code="80743" 
		 transform=""
		><path d="M21.6481481 10.0777778C25.4390322 10.387617 28.6360719 13.0251704 29.6606659 16.688094 30.6852599 20.3510176 29.3206905 24.2645455 26.2407407 26.4962963 26.782156 27.5026225 27.61829 28.3193716 28.637037 28.837037L28.637037 28.837037C28.4888889 28.9111111 25.2074074 30.5518519 22.5666667 28.0666667 21.8339841 28.2003222 21.0878518 28.2450901 20.3444444 28.2 17.1065596 27.9691006 14.237814 26.0283498 12.8188363 23.1088095 11.3998587 20.1892693 11.6462254 16.7344873 13.4651326 14.0458465 15.2840398 11.3572057 18.3991522 9.8431746 21.637037 10.0740741L21.6481481 10.0777778ZM20.8814815 20.0777689L16.8814815 20.0777689C16.674561 20.0767924 16.4757774 20.1583014 16.3291137 20.30427 16.1824501 20.4502386 16.1 20.6486327 16.1 20.8555556L16.1 20.8555556C16.1 21.2871559 16.4498812 21.637037 16.8814815 21.637037L20.8814815 21.637037C21.3116347 21.6349984 21.6592593 21.2857136 21.6592593 20.8555556L21.6592593 20.8555556C21.6551957 20.4288963 21.3081601 20.0851658 20.8814815 20.0851852L20.8814815 20.0777689ZM25.6962963 16.6185185L16.8074074 16.6185185C16.6004846 16.6185185 16.4020904 16.7009686 16.2561219 16.8476322 16.1101533 16.9942959 16.0286443 17.1930795 16.0296208 17.4L16.0296208 17.4C16.0296208 17.6062795 16.1115738 17.8041103 16.2574355 17.9499719 16.4032971 18.0958336 16.6011279 18.1777778 16.8074074 18.1777778L25.6962963 18.1777778C25.9025758 18.1777778 26.1004066 18.0958336 26.2462682 17.9499719 26.3921299 17.8041103 26.4740741 17.6062795 26.4740741 17.4L26.4740741 17.4C26.4720354 16.9718923 26.1244089 16.6259211 25.6962963 16.6259259L25.6962963 16.6185185Z"/>
	</svg>
	