<?xml version="1.0"?>
	<svg xmlns="http://www.w3.org/2000/svg" 
		width="30" 
		height="30" 
		viewbox="0 0 30 30" 
		code="80746" 
		 transform=""
		><path d="M11.1265823-1.77635684e-14C16.8227848-1.77635684e-14 21.5696203 4.25316456 22.2151899 9.91139241L22.2151899 9.91139241 22.2243938 10.0170914C22.2398312 10.5068354 21.8759494 10.9392405 21.3797468 10.9746835L21.3797468 10.9746835 21.3417722 10.9746835C20.8481013 11.0126582 20.3924051 10.6329114 20.3164557 10.1392405L20.3164557 10.1392405 20.3164557 10.1012658C19.556962 3.4556962 11.8481013-0.911392405 4.89873418 4.02531646 4.82278481 4.06329114 4.74683544 4.10126582 4.70886076 4.17721519-1.44303797 11.2405063 3.41772152 19.8227848 10.4050633 20.278481L10.4050633 20.278481 10.5249333 20.301971C10.9926597 20.4193693 11.3135346 20.8130477 11.278481 21.3037975L11.278481 21.3037975 11.278481 21.3417722C11.2405063 21.8734177 10.7848101 22.2531646 10.2531646 22.2151899L10.2531646 22.2151899 9.96748365 22.1905863C4.3696097 21.6339346 1.0658141e-14 16.8025316 1.0658141e-14 11.1265823 1.0658141e-14 5.01265823 4.97468354-1.77635684e-14 11.1265823-1.77635684e-14ZM9.53164557 4.51898734C12.4556962 3.72151899 15.4177215 5.08860759 16.8227848 7.67088608L16.8227848 7.67088608 16.8761257 7.77787893C17.0578234 8.21241855 16.8636806 8.71665044 16.443038 8.96202532L16.443038 8.96202532 16.3360451 9.01536618C15.9015055 9.19706389 15.3972736 9.00292113 15.1518987 8.58227848L15.1518987 8.58227848 15.0463007 8.3980549C14.0613859 6.76675924 12.1546112 5.86437613 10.1772152 6.30379747 8.69620253 6.60759494 7.48101266 7.67088608 6.94936709 9.07594937 6.03797468 11.4303797 7.21518987 13.9367089 9.34177215 14.8860759L9.34177215 14.8860759 9.44342086 14.939426C9.86566779 15.1896797 10.0470163 15.6808318 9.83544304 16.1392405L9.83544304 16.1392405 9.78209304 16.2408892C9.53183932 16.6631361 9.04068716 16.8444846 8.58227848 16.6329114L8.58227848 16.6329114 8.37556894 16.5372284C5.58021183 15.1826832 4.01265823 11.9222423 5.05063291 8.73417722 5.69620253 6.6835443 7.40506329 5.05063291 9.53164557 4.51898734Z"/>
	</svg>
	