<?xml version="1.0"?>
	<svg xmlns="http://www.w3.org/2000/svg" 
		width="30" 
		height="30" 
		viewbox="0 0 30 30" 
		code="80750" 
		 transform=""
		><path d="M2.42124496 7.17146261C1.88413678 7.17146261 1.4516129 7.66731121 1.4516129 8.2831118L1.4516129 22.45541C1.4516129 23.0712119 1.88413678 23.5670592 2.42124496 23.5670592L4.92245494 23.5670592 4.92245494 29.0322581 9.68981246 23.5670592 19.5489629 23.5670592C20.0860702 23.5670592 20.5185949 23.0712119 20.5185949 22.45541L20.5185949 8.2831118C20.5185949 7.66731121 20.0860702 7.17146261 19.5489629 7.17146261L2.42124496 7.17146261ZM9.52208578 10.3900982L9.7583723 10.3900982C9.9156829 10.3900982 10.1200411 10.4043693 10.3717383 10.4341752 10.6548975 10.4639811 10.859255 10.4794764 10.9851036 10.4794764 11.0165643 10.5986988 10.9852215 10.7629986 10.8908342 10.971638 10.8279096 11.0610551 10.7965642 11.1348458 10.7965642 11.1944576 10.7336402 11.3434853 10.6860097 11.5815764 10.6545477 11.9094388 10.623087 11.9988559 10.6080242 12.0596029 10.6080242 12.0894082 10.7653348 12.0894082 10.9383475 12.0584238 11.1271201 11.9988114 11.9136731 11.9093943 12.6207844 11.7760808 13.2500268 11.5972466L13.2500268 12.6697181C12.4005492 12.8783576 11.5354867 13.0426573 10.6545471 13.1618803L10.4182605 13.1618803C10.3867998 13.4599368 10.3554519 13.817073 10.3239905 14.2343518 10.3869145 14.2343518 10.4821756 14.2200788 10.6080242 14.1902792 11.1428799 14.1008615 11.5353112 14.0413393 11.7870084 14.0115334 11.7870084 13.9817275 11.8032935 13.9222073 11.8347542 13.8327883L11.8347542 13.5646706C11.8032935 13.4454476 11.834637 13.370432 11.9290242 13.3406267L13.0614855 13.5193719 13.1092314 13.6540431C13.0777706 13.713655 13.0301382 13.8326999 12.9672149 14.0115334 13.7223059 14.0711452 14.3353804 14.2949672 14.8073122 14.6824408 15.5309412 15.3679709 15.8932505 16.1120045 15.8932505 16.916757L15.8932505 17.2301734C15.8617898 18.3031771 15.2487141 19.1972413 14.0531539 19.9125773 13.5812221 20.1808286 13.202627 20.3153663 12.9194678 20.3153663L12.8729442 20.3153663 12.6366615 20.09132C12.2905777 19.8230687 12.0235287 19.6302318 11.8347561 19.51101 12.6213091 19.3917871 13.2970744 19.1524729 13.8633928 18.7948046 14.4297112 18.3179139 14.7293304 17.7667166 14.7607924 17.1407983L14.7607924 16.9620532C14.7293316 16.2765225 14.3983652 15.709833 13.7691234 15.2627482 13.6432754 15.1733311 13.4552017 15.0995404 13.2035045 15.0399286L13.1557587 15.0399286C13.0299101 14.9803168 12.8568973 14.9350632 12.6366627 14.9052579 12.2276549 16.0080669 11.5518896 17.1104615 10.608026 18.2132698 10.7024127 18.511327 10.8115091 18.7649103 10.9373577 18.9735498 10.7800472 19.0033557 10.5606293 19.0926373 10.2774695 19.2416675 10.1201595 19.2714734 10.0098376 19.3012354 9.94691296 19.3310407 9.85252698 19.2714289 9.77355106 19.1678767 9.71062644 19.0188485 9.49039123 19.1678767 9.31737847 19.2714289 9.19153049 19.3310407 8.53082611 19.7781248 7.94909702 20.0019474 7.44570323 20.0019474L7.25716382 20.0019474C6.53353482 19.9423356 6.13987922 19.4363931 6.07695492 18.4826124L6.07695492 18.3038673C6.10841691 17.3798918 6.56476364 16.5000956 7.44570323 15.6655372 7.85471104 15.2780642 8.4364395 14.9209275 9.19153049 14.5930657 9.22299123 14.3844256 9.23927635 14.0713195 9.23927635 13.6540406 9.27073709 13.3857894 9.28579988 13.2667438 9.28579988 13.2965497L8.57816452 13.2965497C8.23208133 13.3263556 7.96503174 13.3406223 7.77625915 13.3406223L7.06862379 13.3406223C7.03716305 13.3406223 6.98953002 13.3263494 6.92660666 13.2965497L6.73806725 12.9378352C6.70660651 12.8484181 6.6752586 12.7746268 6.64379723 12.7150156L6.64379723 12.6697144C6.54941062 12.4908802 6.53312676 12.3575667 6.59605137 12.2681496L7.11514732 12.2681496C7.33538253 12.2979555 7.49333438 12.3122222 7.58772036 12.3122222L8.29535635 12.3122222C8.76728751 12.3122222 9.14465844 12.2824602 9.42781764 12.2228496 9.42781764 12.1632378 9.44288043 12.0739536 9.47434117 11.9547313 9.53726579 11.5076465 9.5698354 11.150511 9.5698354 10.8822598 9.5698354 10.7034256 9.55355028 10.5391258 9.52208954 10.3900982L9.52208578 10.3900982ZM11.5984696 14.8611815C11.0636138 14.9506005 10.6862429 15.0398847 10.4660077 15.1293011 10.4345469 15.1293018 10.3869145 15.1435741 10.3239912 15.1733738L10.3239912 16.2017714C10.3239912 16.7382732 10.3402763 17.0073494 10.371737 17.0073494 10.9695174 16.2324022 11.3782337 15.5169057 11.5984696 14.8611815L11.5984696 14.8611815ZM9.19152924 15.6202391C8.43643824 16.037518 7.85470978 16.6197009 7.44570198 17.3648422 7.25692939 17.6032869 7.16289255 17.9009009 7.16289255 18.2585685 7.16289255 18.6758474 7.36725071 18.8841772 7.77625852 18.8841772 8.1538037 18.8841772 8.54623491 18.7211016 8.95524272 18.3932398 8.98670346 18.3634339 9.01927557 18.3336719 9.05073694 18.3038673 9.20804754 18.1250331 9.31714529 18.0202567 9.38006927 17.9904508L9.33354574 17.8557796C9.23915976 17.1404436 9.19152861 16.3951863 9.19152861 15.6202391L9.19152924 15.6202391Z"/>
	</svg>
	