<?xml version="1.0"?>
	<svg xmlns="http://www.w3.org/2000/svg" 
		width="30" 
		height="30" 
		viewbox="0 0 30 30" 
		code="80753" 
		 transform=""
		><path d="M26.125 2C27.0625 2 28 2.625 28 3.5625L28 11.6875C28 12.3125 27.375 12.9375 26.75 12.9375 26.4722222 12.9375 26.1944444 12.9375 25.9166667 12.7180213L25.8125 12.625 23 9.8125 15.5 17.3125C14.875 17.9375 13.625 17.9375 12.6875 17.3125 12.0625 16.6875 12.0625 15.4375 12.6875 14.5L20.1875 7 17.375 4.1875C17.0625 3.875 17.0625 3.5625 17.0625 3.25 17.0625 2.625 17.375 2 18 2L26.125 2Z"/>
	</svg>
	