<?xml version="1.0"?>
	<svg xmlns="http://www.w3.org/2000/svg" 
		width="30" 
		height="30" 
		viewbox="0 0 30 30" 
		code="80760" 
		 transform=""
		><path d="M10.7851208 11.6897311L18.2870739 19.1916842C19.129359 20.0339694 20.0053356 19.8992037 20.7914684 19.1130709L26.3617809 13.5652194C27.1479137 12.7790865 27.2714489 11.90311 26.4291637 11.0608248L25.2948864 9.93777795C23.9584606 11.1282076 20.207484 13.8010592 19.6234997 13.2170748 19.4750079 13.0685831 19.5371221 12.9336788 19.6249016 12.8282141L20.0453974 12.3811938C21.21637 11.1087167 22.6067206 9.27007553 22.7904919 7.42215295L16.8832653 1.50369591C16.1869762 0.807406852 15.1537731 0.818637321 14.5810192 1.62723107 13.4467419 3.2331881 13.4804333 5.91727013 10.7851208 9.1291842 10.0439098 10.0276217 9.92037467 10.824985 10.7851208 11.6897311Z"/>
	</svg>
	