<?xml version="1.0"?>
	<svg xmlns="http://www.w3.org/2000/svg" 
		width="30" 
		height="30" 
		viewbox="0 0 30 30" 
		code="80767" 
		 transform=""
		><path d="M16.2719452 3.8174408L16.4 3.825C21.5125 4.4625 25.525 8.475 26.1625 13.5875 26.25 14.275 25.7625 14.9 25.075 14.9875 25.025 15 24.975 15 24.925 15 24.3 15 23.7625 14.5375 23.6875 13.9 23.1875 9.925 20.075 6.8125 16.1 6.3125 15.4125 6.2375 14.925 5.6125 15.0125 4.925 15.0875 4.2375 15.7125 3.75 16.4 3.825ZM15.05 9.85C15.225 9.175 15.9125 8.775 16.575 8.95 18.7625 9.5125 20.475 11.225 21.0625 13.4375 21.225 14.1 20.825 14.7875 20.1625 14.9625 20.0625 14.9875 19.95 15 19.85 15 19.2875 15 18.7875 14.625 18.6375 14.0625 18.2875 12.7375 17.2625 11.7125 15.95 11.375 15.275 11.2 14.875 10.525 15.05 9.85Z"/>
	</svg>
	