<?xml version="1.0"?>
	<svg xmlns="http://www.w3.org/2000/svg" 
		width="30" 
		height="30" 
		viewbox="0 0 30 30" 
		code="80772" 
		 transform=""
		><path d="M13.2780925 27.5220703L27.5444988 13.2554037C27.9950196 12.8048828 27.623405 12.3775391 27.4885092 12.2426433 26.3215821 11.0759766 24.1473633 11.1754558 21.7741863 12.1811849 21.7705404 12.1791016 21.7661133 12.1775391 21.7632488 12.1751953 18.7971029 10.0186849 15.8379883 7.85253909 12.8778321 5.68795576L13.2898113 5.27493492C13.773405 4.79186201 13.773405 4.00696617 13.2898113 3.52285159L13.1293946 3.36269534C12.6455404 2.87936201 11.8616863 2.87884117 11.3773113 3.36269534L3.36246751 11.3775391C2.87887376 11.8611328 2.87939459 12.6455078 3.36272792 13.129362L3.52366542 13.2895183C4.00673834 13.7736328 4.79111334 13.7736328 5.27548834 13.2900391L5.57314459 12.991862C7.73876959 15.9119141 9.90100917 18.8340495 12.0760092 21.7473308 12.1043946 21.7850912 12.1267904 21.8215495 12.1465821 21.8577474 11.1853842 24.1720703 11.1353842 26.2470703 12.2075196 27.4496745 12.3679363 27.6098308 12.7786133 28.0215495 13.2780925 27.5220703Z"/>
	</svg>
	