<?xml version="1.0"?>
	<svg xmlns="http://www.w3.org/2000/svg" 
		width="30" 
		height="30" 
		viewbox="0 0 30 30" 
		code="80777" 
		 transform=""
		><path d="M13.3354683 8.634778913L14.9454683 11.43477891C16.4641188 13.99511919 15.9662167 17.271231059999998 13.7554683 19.2647789L15.1654683 21.6947789C15.5980156 22.4824585 16.350130800000002 23.0445365 17.2280777 23.236228 18.1060246 23.4279194 19.0239724 23.230484 19.7454683 22.6947789 20.9936116 21.6695893 21.2925863 19.8800122 20.4454683 18.504778899999998 19.6963859 17.22671246 19.4862709 15.70322953 19.861433 14.27010999 20.2365952 12.83699045 21.166239 11.61187371 22.4454683 10.86477891L25.5654683 8.994778913C26.1657115 8.729786789 26.8689994 8.96565757 27.188087 9.53897755 27.5071746 10.11229753 27.3370028 10.83430204 26.7954683 11.20477891L23.6954683 12.99477891C22.2025085 13.88674405 21.7109 15.81742465 22.5954683 17.31477891L22.5954683 17.31477891C23.3777918 18.6304771 23.5917337 20.2076487 23.1881779 21.684210399999998 22.7846221 23.160772100000003 21.7982348 24.4098843 20.4554683 25.1447789 17.6995898 26.508145 14.3588903 25.4534195 12.8854683 22.754778899999998L11.57546833 20.5247789C8.744251290000001 21.421016299999998 5.67126635 20.221802699999998 4.195468330000001 17.64477891L2.585468326 14.844778909999999C2.5091307560000002 14.71781064 2.467730988 14.57291145 2.465468326 14.42477891L13.0054683 8.324778913C13.1403529 8.397936457 13.2540315 8.504725424 13.3354683 8.634778913Z"/>
	</svg>
	