<?xml version="1.0"?>
	<svg xmlns="http://www.w3.org/2000/svg" 
		width="30" 
		height="30" 
		viewbox="0 0 30 30" 
		code="80783" 
		 transform=""
		><path d="M6.25 10L23.75 10C25.7580645 10 27.3915193 11.5686785 27.4948139 13.550485L27.5 13.75 27.5 18.75C27.5 20.07 26.4632 21.1596 25.163744 21.244656L25 21.25 22.5 21.25 22.5 23.75C22.5 25.07 21.4632 26.1596 20.163744 26.244656L20 26.25 10 26.25C8.68 26.25 7.5904 25.2132 7.505344 23.913744L7.5 23.75 7.5 21.25 5 21.25C3.68 21.25 2.5904 20.2132 2.505344 18.913744L2.5 18.75 2.5 13.75C2.5 11.7419355 4.06867846 10.1084807 6.05048505 10.0051861L6.25 10 23.75 10ZM20 17.5L10 17.5 10 22.5C10 23.1445312 10.4943848 23.6791992 11.1226654 23.743515L11.25 23.75 18.75 23.75C19.3945312 23.75 19.9291992 23.2556152 19.993515 22.6273346L20 22.5 20 17.5ZM23.75 12.5C23.0625 12.5 22.5 13.0625 22.5 13.75 22.5 14.4375 23.0625 15 23.75 15 24.4375 15 25 14.4375 25 13.75 25 13.0625 24.4375 12.5 23.75 12.5Z"/>
	</svg>
	