<?xml version="1.0"?>
	<svg xmlns="http://www.w3.org/2000/svg" 
		width="31" 
		height="30" 
		viewbox="0 0 31 30" 
		code="80802" 
		 transform=""
		><path d="M15.01666667 8.00787037037L15.12181642 8.0149113448C15.67528159 8.0752990737 16.17838503 8.499570312 16.24300564 9.12537375L16.25 9.2625 16.25 11.25C25 12.5 28.75 18.75 30 25 26.9460227 20.724431799999998 22.698218 18.7171358 16.673238230000003 18.6281036L16.25 18.625 16.25 20.725C16.25 21.425463 15.71481481 21.9078875 15.12181642 21.9725887L15.01666667 21.979629600000003C14.7452381 21.9863757 14.46768707 21.9046863 14.228620020000001 21.7159027L14.1125 21.6125 8.375 15.875C7.92 15.42 7.889666667 14.70366667 8.284 14.21382222L8.375 14.1125 14.1125 8.375C14.3375 8.15 14.608418369999999 8.0352040816 14.880648690000001 8.0119533528L15.01666667 8.00787037037Z"/>
	</svg>
	