<?xml version="1.0"?>
	<svg xmlns="http://www.w3.org/2000/svg" 
		width="30" 
		height="30" 
		viewbox="0 0 30 30" 
		code="80804" 
		 transform=""
		><path d="M10.6676432 5.68522135L10.6676432 14.0478516C10.6676432 15.4427791 11.2930863 16.1392952 12.6337099 16.1972249L12.8209635 16.2011719 21.0582682 16.2011719 21.0582682 25.3727214C21.0582682 27.6745334 19.9616952 28.8691262 17.7685493 28.9462081L17.5377604 28.9501953 6.53190104 28.9501953C4.24957997 28.9501953 3.07694283 27.8405114 3.00366376 25.6004919L3 25.3727214 3 9.26269531C3 6.95832283 4.10968392 5.76363428 6.30840008 5.68895548L6.53190104 5.68522135 10.6676432 5.68522135ZM12.2171224 6.2890625C12.5979818 6.39648438 12.9788411 6.63783482 13.3883995 7.02746333L19.5315755 13.2617188C20.0328776 13.7858073 20.3404948 14.1959635 20.4658203 14.6402995L12.8095703 14.6402995C12.4222005 14.6402995 12.2171224 14.4466146 12.2171224 14.0592448L12.2171224 6.2890625Z"/>
	</svg>
	