<?xml version="1.0"?>
	<svg xmlns="http://www.w3.org/2000/svg" 
		width="30" 
		height="30" 
		viewbox="0 0 30 30" 
		code="80810" 
		 transform=""
		><path d="M15.8912683 21.1434286L19.8228398 16.677C20.3836969 16.7958571 20.9426969 16.8571429 21.4998398 16.8571429 21.6261255 16.8571429 21.7474588 16.8381587 21.8693424 16.8216508L22.0532683 16.8014286 27.4556969 22.2038571C28.1414985 22.8879048 28.1795986 23.9744881 27.5699972 24.7048264L27.4556969 24.8298571 24.8296969 27.4558571C24.1456493 28.1416587 23.059066 28.1797588 22.3287277 27.5701574L22.2036969 27.4558571 15.8912683 21.1434286 19.8228398 16.677 15.8912683 21.1434286ZM2.27098264 3.82185714L3.82169692 2.27114286C4.10533328 1.98750649 4.53631321 1.92181582 4.88999358 2.09639562L4.99355406 2.156 8.99012549 4.81728571C9.44425883 5.12061905 9.53439216 5.7426546 9.20767809 6.16095801L9.13126835 6.24728571 8.67441121 6.70414286 12.6969826 10.7285714 10.6002683 12.5727143 6.70398264 8.67457143 6.24898264 9.12957143C5.86071597 9.51610476 5.23463597 9.48363365 4.88864723 9.08047572L4.81898264 8.98842857 2.15583978 4.99371429C1.93298264 4.65774026 1.95262844 4.22200236 2.19245242 3.91114372L2.27098264 3.82185714 3.82169692 2.27114286 2.27098264 3.82185714Z"/>
	</svg>
	