<?xml version="1.0"?>
	<svg xmlns="http://www.w3.org/2000/svg" 
		width="30" 
		height="30" 
		viewbox="0 0 30 30" 
		code="80811" 
		 transform=""
		><path d="M21.4998398 15C25.0896969 15 27.9998398 12.0898571 27.9998398 8.5 27.9998398 7.92242857 27.8995541 7.37085714 27.7584112 6.83785714L23.7414112 10.8548571C23.0152683 11.581 21.8396969 11.581 21.1154112 10.8548571L19.1468398 8.88628571C18.4206969 8.16014286 18.4206969 6.98457143 19.1468398 6.26028571L23.1638398 2.24328571C22.6289826 2.10028571 22.0774112 2 21.4998398 2 17.9099826 2 14.9998398 4.91014286 14.9998398 8.5 14.9998398 9.30971429 15.1651255 10.0748571 15.4362683 10.7898571L3.08812549 21.6578571C1.63769692 23.1082857 1.63769692 25.4594286 3.08812549 26.9098571 4.53855406 28.3602857 6.88969692 28.3602857 8.34012549 26.9098571L19.2099826 14.5617143C19.9249826 14.8347143 20.6901255 15 21.4998398 15ZM5.71412549 26.1428571C4.68898264 26.1428571 3.85698264 25.3108571 3.85698264 24.2857143 3.85698264 23.2605714 4.68898264 22.4285714 5.71412549 22.4285714 6.73926835 22.4285714 7.57126835 23.2605714 7.57126835 24.2857143 7.57126835 25.3108571 6.73926835 26.1428571 5.71412549 26.1428571Z"/>
	</svg>
	