<?xml version="1.0"?>
	<svg xmlns="http://www.w3.org/2000/svg" 
		width="30" 
		height="30" 
		viewbox="0 0 30 30" 
		code="80849" 
		 transform=""
		><path d="M2.19512195 23.4146341L10.2439024 23.4146341C11.4022269 23.4146341 12.3530177 24.3150629 12.4335055 25.4531514L12.4390244 25.6097561 12.4390244 27.804878C12.4390244 28.9632025 11.5385956 29.9139933 10.4005072 29.9944811L10.2439024 30 2.19512195 30C1.03679745 30 0.0860067315 29.0995712 0.00551892664 27.9614828L-1.98063788e-13 27.804878-1.98063788e-13 25.6097561C-1.98063788e-13 24.4514316 0.900428789 23.5006409 2.03851722 23.4201531L2.19512195 23.4146341 10.2439024 23.4146341 2.19512195 23.4146341ZM19.7560976 11.7073171L27.804878 11.7073171C28.9632025 11.7073171 29.9139933 12.6077459 29.9944811 13.7458343L30 13.902439 30 16.097561C30 17.2558855 29.0995712 18.2066762 27.9614828 18.287164L27.804878 18.2926829 19.7560976 18.2926829C18.5977731 18.2926829 17.6469823 17.3922541 17.5664945 16.2541657L17.5609756 16.097561 17.5609756 13.902439C17.5609756 12.7441145 18.4614044 11.7933238 19.5994928 11.712836L19.7560976 11.7073171 27.804878 11.7073171 19.7560976 11.7073171Z"/>
	</svg>
	