<?xml version="1.0"?>
	<svg xmlns="http://www.w3.org/2000/svg" 
		width="30" 
		height="30" 
		viewbox="0 0 30 30" 
		code="80835" 
		 transform=""
		><path d="M28.6105263 18.9473684C29.3684211 20.0842105 29.8105263 21.4105263 29.8105263 22.8631579 29.8105263 26.6842105 26.6842105 29.8105263 22.8631579 29.8105263 21.4105263 29.8105263 20.0526316 29.3684211 18.9473684 28.6105263 19.4842105 28.4526316 20.0210526 28.2631579 20.5263158 28.0421053 21.2526316 28.3578947 22.0421053 28.5473684 22.8631579 28.5473684 25.9894737 28.5473684 28.5473684 25.9894737 28.5473684 22.8631579 28.5473684 22.0105263 28.3578947 21.2526316 28.0421053 20.5263158 28.2631579 20.0210526 28.4526316 19.4842105 28.6105263 18.9473684ZM1.2 18.9473684C1.35789474 19.4842105 1.54736842 20.0210526 1.76842105 20.5263158 1.45263158 21.2526316 1.26315789 22.0421053 1.26315789 22.8631579 1.26315789 25.9894737 3.82105263 28.5473684 6.94736842 28.5473684 7.8 28.5473684 8.58947368 28.3578947 9.28421053 28.0421053 9.78947368 28.2631579 10.3263158 28.4526316 10.8631579 28.6105263 9.72631579 29.3684211 8.4 29.8105263 6.94736842 29.8105263 3.12631579 29.8105263 1.50990331e-14 26.6842105 1.50990331e-14 22.8631579 1.50990331e-14 21.4105263 0.442105263 20.0526316 1.2 18.9473684ZM22.8631579-2.22932783e-13C26.6842105-2.22932783e-13 29.8105263 3.12631579 29.8105263 6.94736842 29.8105263 8.4 29.3684211 9.72631579 28.6105263 10.8631579 28.4526316 10.3263158 28.2631579 9.78947368 28.0421053 9.28421053 28.3578947 8.55789474 28.5473684 7.76842105 28.5473684 6.94736842 28.5473684 3.82105263 25.9894737 1.26315789 22.8631579 1.26315789 22.0421053 1.26315789 21.2526316 1.45263158 20.5263158 1.76842105 20.0210526 1.54736842 19.4842105 1.35789474 18.9473684 1.2 20.0842105 0.442105263 21.4105263-2.22932783e-13 22.8631579-2.22932783e-13ZM6.94736842-2.22932783e-13C8.4-2.22932783e-13 9.75789474 0.442105263 10.8631579 1.2 10.3263158 1.35789474 9.78947368 1.54736842 9.28421053 1.76842105 8.55789474 1.45263158 7.76842105 1.26315789 6.94736842 1.26315789 3.82105263 1.26315789 1.26315789 3.82105263 1.26315789 6.94736842 1.26315789 7.8 1.45263158 8.55789474 1.76842105 9.28421053 1.54736842 9.78947368 1.35789474 10.3263158 1.2 10.8631579 0.442105263 9.72631579 1.28785871e-13 8.4 1.28785871e-13 6.94736842 1.28785871e-13 3.12631579 3.12631579-2.22932783e-13 6.94736842-2.22932783e-13Z"/>
	</svg>
	