<?xml version="1.0"?>
	<svg xmlns="http://www.w3.org/2000/svg" 
		width="30" 
		height="30" 
		viewbox="0 0 30 30" 
		code="80839" 
		 transform=""
		><path d="M15.3166524 4.00082569L18.6194155 4.00082569C18.0981294 4.00082569 17.5231734 4.1310096 16.8945475 4.39137743 16.3557253 4.61454985 15.9105263 4.87937753 15.5589505 5.18586047L15.3909646 5.34257321 4.84854472 15.8701306C4.48469032 16.2532512 4.30276312 16.7005003 4.30276312 17.2118782 4.30276312 17.6675218 4.44205113 18.0631094 4.72062716 18.3986409L4.84854472 18.5387632 11.7785674 25.4687859C11.484071 25.7737411 11.2237032 25.9950262 10.9974639 26.1326413 10.7712247 26.2702565 10.481132 26.339064 10.1271859 26.339064 9.67973027 26.339064 9.28137318 26.199776 8.93211458 25.9212L8.78543835 25.7932824 1.5457816 18.5387632C1.1819272 18.1749088 1 17.7326138 1 17.2118782 1 16.7644226 1.13928801 16.3660655 1.41786404 16.0168069L1.5457816 15.8701306 12.0882015 5.34257321C12.4614137 4.96881051 12.962608 4.65174525 13.5917844 4.39137743 14.1310784 4.16820501 14.6305371 4.04067791 15.0901604 4.00879613L15.3166524 4.00082569 18.6194155 4.00082569 15.3166524 4.00082569Z"/>
	</svg>
	