<?xml version="1.0"?>
	<svg xmlns="http://www.w3.org/2000/svg" 
		width="30" 
		height="30" 
		viewbox="0 0 30 30" 
		code="80842" 
		 transform=""
		><path d="M28.4912095 14.0231205L16.8972313 2.42852168C16.6235484 2.15483875 16.2524318 2.00124119 15.8654901 2.00093089L7.9463723 2C6.8522612 2 5.96449834 2.88745257 5.96449834 3.98187396L5.96418804 11.902233C5.96418804 12.2891747 6.1177856 12.6606015 6.39146852 12.9342844L17.9860673 24.528573C18.2765064 24.819012 18.6566215 24.9639212 19.0367367 24.9639212 19.4168519 24.9639212 19.796967 24.8187017 20.0874061 24.528573L28.4912095 16.1235283C29.0711567 15.5432709 29.0711567 14.6030676 28.4912095 14.0231205ZM10.256852 7.48172623C9.4001189 7.48172623 8.70536146 6.78696879 8.70536146 5.93023573 8.70536146 5.07350268 9.4001189 4.37874523 10.256852 4.37874523 11.113585 4.37874523 11.8083425 5.07350268 11.8083425 5.93023573 11.8083425 6.78727909 11.113585 7.48172623 10.256852 7.48172623Z"/>
	</svg>
	