<?xml version="1.0"?>
	<svg xmlns="http://www.w3.org/2000/svg" 
		width="30" 
		height="30" 
		viewbox="0 0 30 30" 
		code="80850" 
		 transform=""
		><path d="M20.5242424 14.6909091C21.4480642 14.6909091 22.1969724 15.4398146 22.1969724 16.3636364L22.1969724 28.3242424C22.1977743 28.7684021 22.0218964 29.1946457 21.7081119 29.5089986 21.3943274 29.8233516 20.9684028 30 20.5242424 30L1.9 30C1.45583961 30 1.02991501 29.8233516 0.716130538 29.5089986 0.402346069 29.1946457 0.226468089 28.7684021 0.227269978 28.3242424L0.227269978 16.3636364C0.227269978 15.4398146 0.976178237 14.6909091 1.9 14.6909091L20.5242424 14.6909091ZM11.5 20C10.1192881 20 9 21.1192881 9 22.5 9 23.8807119 10.1192881 25 11.5 25 12.8807119 25 14 23.8807119 14 22.5 14 21.1192881 12.8807119 20 11.5 20Z"/>
	</svg>
	