<?xml version="1.0"?>
	<svg xmlns="http://www.w3.org/2000/svg" 
		width="30" 
		height="30" 
		viewbox="0 0 30 30" 
		code="80851" 
		 transform=""
		><path d="M17.1136428 12.7272727C17.113648 12.9955418 16.8970582 13.2134852 16.6287943 13.2151515L14.4894004 13.2151515C14.2199524 13.2151515 14.0015216 12.9967207 14.0015216 12.7272727L14.0015216 8.00606061C13.9462072 5.21706934 15.4024674 2.61593426 17.8090073 1.20522605 20.2155472-0.205482168 23.1965869-0.205482168 25.6031268 1.20522605 28.0096667 2.61593426 29.4659269 5.21706934 29.4106125 8.00606061L29.4106125 12.7272727C29.4106177 12.9955418 29.1940279 13.2134852 28.925764 13.2151515L26.7863701 13.2151515C26.5169221 13.2151515 26.2984913 12.9967207 26.2984913 12.7272727L26.2984913 8.04242424C26.3474479 6.3740874 25.4876945 4.81044924 24.0527249 3.95803689 22.6177552 3.10562453 20.8333533 3.09855993 19.3916792 3.93958339 17.9500052 4.78060685 17.0778977 6.33738842 17.1136428 8.00606061L17.1136428 12.7272727Z"/>
	</svg>
	