<?xml version="1.0"?>
	<svg xmlns="http://www.w3.org/2000/svg" 
		width="30" 
		height="30" 
		viewbox="0 0 30 30" 
		code="80858" 
		 transform=""
		><path d="M17.0625 10.546875L21.28125 10.546875C23.5994318 10.546875 25.388688 12.2658833 25.4949991 14.5498803L25.5 14.765625 25.5 28.40625 21.5845335 28.40625 21.5939421 26.7981939C21.6606132 20.243709 21.9340617 14.9365008 17.2910217 14.7696694L17.0625 14.765625 14.25 14.765625C15.7195312 13.9640625 16.6814062 12.5279297 17.0150566 10.8189316L17.0625 10.546875 21.28125 10.546875 17.0625 10.546875ZM17.0625 0C19.453125 0 21.28125 1.828125 21.28125 4.21875 21.28125 6.53693182 19.5622417 8.32618802 17.2782447 8.43249906L17.0625 8.4375 16.921875 8.4375C16.3828125 6.55078125 14.9396973 5.05151367 13.0876058 4.43477376L12.84375 4.359375 12.84375 4.21875C12.84375 1.828125 14.671875 0 17.0625 0Z"/>
	</svg>
	