<?xml version="1.0" encoding="UTF-8"?>
<svg width="30px" height="30px" viewBox="0 0 30 30" version="1.1" xmlns="http://www.w3.org/2000/svg" xmlns:xlink="http://www.w3.org/1999/xlink">
    <!-- Generator: Sketch 58 (84663) - https://sketch.com -->
    <title>accessibility-secondary</title>
    <desc>Created with Sketch.</desc>
    <g id="accessibility-secondary" stroke="none" stroke-width="1" fill="none" fill-rule="evenodd">
        <g id="Group-10-Copy">
            <rect id="Rectangle" x="0" y="0" width="30" height="30"></rect>
            <g id="Group" transform="translate(6.000000, 0.000000)" fill="#A5B1C5" fill-rule="nonzero">
                <path d="M5.86890572,1.83036167 C6.4247017,1.33462751 7.23625348,1.25219938 7.88030448,1.62633076 C7.88030448,1.62633076 15.7675873,6.20824111 15.7800927,6.21716074 C16.1872581,6.47157187 16.4522921,6.8697728 16.5483462,7.30741731 C16.7303694,7.94608964 16.5958578,8.66082535 16.1250448,9.19698918 L16.1250448,9.19698918 L12.8201654,12.9609382 L18.8254961,12.6266538 C19.3216785,12.5994915 19.807238,12.787745 20.154745,13.144306 C20.5020726,13.5007774 20.6782241,13.9901468 20.6377048,14.486374 L20.6377048,14.486374 L19.911898,23.3918841 C19.8385688,24.2922287 19.0848825,24.9743787 18.1971329,24.9743787 C18.150204,24.9743787 18.1028269,24.972541 18.0553601,24.9686862 C17.1072349,24.8912782 16.4011947,24.0601391 16.4785131,23.1120587 L16.4785131,23.1120587 L17.0439907,16.1758145 L14.7194637,16.305306 C15.2936816,17.4750773 15.616626,18.7905657 15.616626,20.1816244 C15.616626,22.5165054 14.7066445,24.6374049 13.2239243,26.2136244 L13.2239243,26.2136244 L10.9981855,23.9877512 C11.9130077,22.9815363 12.4714482,21.645609 12.4714482,20.1816244 C12.4714482,17.0589474 9.93096754,14.5184219 6.80833539,14.5184219 C5.34435085,14.5184219 4.00833385,15.0768624 3.00211901,15.9917743 L3.00211901,15.9917743 L0.77624575,13.7659011 C2.02463524,12.5916028 3.6149289,11.7771376 5.38240495,11.4888856 L5.38240495,11.4888856 L9.64482226,6.63441113 L7.23006801,5.23214683 L4.30909119,7.83770943 C3.59928594,8.47109274 2.5105085,8.40874498 1.87725966,7.69893972 C1.24405564,6.98904482 1.30622411,5.90031221 2.01607419,5.26715301 L2.01607419,5.26715301 Z M16.9646553,-4.53859172e-13 C18.5568764,-4.53859172e-13 19.8474884,1.29088099 19.8474884,2.88310201 C19.8474884,4.47541267 18.5568764,5.7661592 16.9646553,5.7661592 C15.3722102,5.7661592 14.0815533,4.47541267 14.0815533,2.88310201 C14.0815533,1.29088099 15.372255,-4.53859172e-13 16.9646553,-4.53859172e-13 Z" id="Combined-Shape"></path>
            </g>
        </g>
    </g>
</svg>