<?xml version="1.0"?>
	<svg xmlns="http://www.w3.org/2000/svg" width="30" height="30" viewbox="" code="65612"  transform=""><path d="M18.97894737 18.6L18.6 18.6 18.6 16.76842105C18.6 15.09473684 17.242105260000002 13.705263158 15.53684211 13.705263158L14.431578949999999 13.705263158C12.75789474 13.705263158 11.36842105 15.06315789 11.36842105 16.76842105L11.36842105 18.6 10.98947368 18.6C10.23157895 18.6 9.631578947 19.2 9.631578947 19.95789474L9.631578947 25.6421053C9.631578947 26.4 10.23157895 27 10.98947368 27L18.97894737 27C19.7368421 27 20.3368421 26.4 20.3368421 25.6421053L20.3368421 19.95789474C20.3684211 19.2 19.7368421 18.6 18.97894737 18.6ZM15.88421053 24.568421100000002C15.91578947 24.726315800000002 15.82105263 24.852631600000002 15.66315789 24.852631600000002L14.305263159999999 24.852631600000002C14.14736842 24.852631600000002 14.05263158 24.6947368 14.08421053 24.568421100000002L14.52631579 22.83157895C14.14736842 22.673684209999998 13.89473684 22.29473684 13.89473684 21.85263158 13.89473684 21.25263158 14.36842105 20.77894737 14.96842105 20.77894737 15.568421050000001 20.77894737 16.04210526 21.25263158 16.04210526 21.85263158 16.04210526 22.29473684 15.78947368 22.673684209999998 15.410526319999999 22.83157895L15.88421053 24.568421100000002ZM16.76842105 18.6L13.23157895 18.6 13.23157895 16.76842105C13.23157895 16.10526316 13.76842105 15.53684211 14.46315789 15.53684211L15.568421050000001 15.53684211C16.23157895 15.53684211 16.8 16.07368421 16.8 16.76842105L16.8 18.6 16.76842105 18.6Z"/></svg>
	