<?xml version="1.0" encoding="UTF-8"?>
<svg width="30px" height="30px" viewBox="0 0 30 30" version="1.1" xmlns="http://www.w3.org/2000/svg" xmlns:xlink="http://www.w3.org/1999/xlink">
    <!-- Generator: Sketch 58 (84663) - https://sketch.com -->
    <title>access-levels-secondary</title>
    <desc>Created with Sketch.</desc>
    <g id="access-levels-secondary" stroke="none" stroke-width="1" fill="none" fill-rule="evenodd">
        <g id="Group-47-Copy">
            <rect id="Rectangle-Copy-2" x="0" y="0" width="30" height="30"></rect>
            <g id="Group-39" transform="translate(0.000000, 3.000000)" fill="#A5B1C5" fill-rule="nonzero">
                <path d="M23.6210526,4.61052632 C23.1473684,4.61052632 22.6736842,4.67368421 22.2315789,4.76842105 C20.8105263,1.92631579 17.8736842,-1.88293825e-13 14.4947368,-1.88293825e-13 C10.4210526,-1.88293825e-13 7.01052632,2.81052632 6.09473684,6.6 C5.87368421,6.56842105 5.65263158,6.53684211 5.4,6.53684211 C2.4,6.53684211 0,8.96842105 0,11.9368421 C0,14.9368421 2.4,17.3368421 5.4,17.3368421 L7.67368421,17.3368421 L7.67368421,16.9578947 C7.67368421,15.6947368 8.36842105,14.5894737 9.41052632,14.0526316 L9.41052632,13.7684211 C9.41052632,10.9894737 11.6526316,8.74736842 14.4315789,8.74736842 L15.5368421,8.74736842 C18.3157895,8.74736842 20.5578947,10.9894737 20.5578947,13.7684211 L20.5578947,14.0526316 C21.6,14.6210526 22.2947368,15.7263158 22.2947368,16.9578947 L22.2947368,17.3368421 L23.6210526,17.3368421 C27.1263158,17.3368421 30,14.4947368 30,10.9578947 C30,7.45263158 27.1578947,4.61052632 23.6210526,4.61052632 Z" id="Path"></path>
            </g>
        </g>
    </g>
</svg>