<?xml version="1.0" encoding="UTF-8"?>
<svg width="30px" height="30px" viewBox="0 0 30 30" version="1.1" xmlns="http://www.w3.org/2000/svg" xmlns:xlink="http://www.w3.org/1999/xlink">
    <!-- Generator: Sketch 58 (84663) - https://sketch.com -->
    <title>access-levels</title>
    <desc>Created with Sketch.</desc>
    <g id="access-levels" stroke="none" stroke-width="1" fill="none" fill-rule="evenodd">
        <g id="Group-47-Copy">
            <rect id="Rectangle-Copy-2" x="0" y="0" width="30" height="30"></rect>
            <g id="Group-39" transform="translate(9.000000, 13.000000)" fill="#7A8391" fill-rule="nonzero">
                <path d="M9.97894737,5.6 L9.6,5.6 L9.6,3.76842105 C9.6,2.09473684 8.24210526,0.705263158 6.53684211,0.705263158 L5.43157895,0.705263158 C3.75789474,0.705263158 2.36842105,2.06315789 2.36842105,3.76842105 L2.36842105,5.6 L1.98947368,5.6 C1.23157895,5.6 0.631578947,6.2 0.631578947,6.95789474 L0.631578947,12.6421053 C0.631578947,13.4 1.23157895,14 1.98947368,14 L9.97894737,14 C10.7368421,14 11.3368421,13.4 11.3368421,12.6421053 L11.3368421,6.95789474 C11.3684211,6.2 10.7368421,5.6 9.97894737,5.6 Z M6.88421053,11.5684211 C6.91578947,11.7263158 6.82105263,11.8526316 6.66315789,11.8526316 L5.30526316,11.8526316 C5.14736842,11.8526316 5.05263158,11.6947368 5.08421053,11.5684211 L5.52631579,9.83157895 C5.14736842,9.67368421 4.89473684,9.29473684 4.89473684,8.85263158 C4.89473684,8.25263158 5.36842105,7.77894737 5.96842105,7.77894737 C6.56842105,7.77894737 7.04210526,8.25263158 7.04210526,8.85263158 C7.04210526,9.29473684 6.78947368,9.67368421 6.41052632,9.83157895 L6.88421053,11.5684211 Z M7.76842105,5.6 L4.23157895,5.6 L4.23157895,3.76842105 C4.23157895,3.10526316 4.76842105,2.53684211 5.46315789,2.53684211 L6.56842105,2.53684211 C7.23157895,2.53684211 7.8,3.07368421 7.8,3.76842105 L7.8,5.6 L7.76842105,5.6 Z" id="Shape"></path>
            </g>
        </g>
    </g>
</svg>