<?xml version="1.0"?>
	<svg xmlns="http://www.w3.org/2000/svg" width="30" height="30" viewbox="0 0 30 30" code="78922"  transform=""><path d="M23.6210526 7.61052632C23.1473684 7.61052632 22.6736842 7.67368421 22.2315789 7.76842105 20.8105263 4.92631579 17.8736842 2.9999999999998117 14.4947368 2.9999999999998117 10.4210526 2.9999999999998117 7.01052632 5.81052632 6.09473684 9.6 5.87368421 9.568421050000001 5.65263158 9.53684211 5.4 9.53684211 2.4 9.53684211 0 11.96842105 0 14.9368421 0 17.9368421 2.4 20.3368421 5.4 20.3368421L7.67368421 20.3368421 7.67368421 19.9578947C7.67368421 18.6947368 8.36842105 17.5894737 9.41052632 17.052631599999998L9.41052632 16.768421099999998C9.41052632 13.9894737 11.6526316 11.74736842 14.4315789 11.74736842L15.5368421 11.74736842C18.3157895 11.74736842 20.5578947 13.9894737 20.5578947 16.768421099999998L20.5578947 17.052631599999998C21.6 17.6210526 22.2947368 18.726315800000002 22.2947368 19.9578947L22.2947368 20.3368421 23.6210526 20.3368421C27.1263158 20.3368421 30 17.4947368 30 13.9578947 30 10.45263158 27.1578947 7.61052632 23.6210526 7.61052632Z"/></svg>
	