<?xml version="1.0"?>
	<svg xmlns="http://www.w3.org/2000/svg" 
		width="30" 
		height="30" 
		viewbox="0 0 30 30" 
		code="80563" 
		 transform=""
		><path d="M14.4315789 13.7052632L15.5368421 13.7052632C17.181203 13.7052632 18.5025644 14.997261 18.59485 16.5902356L18.6 16.7684211 18.6 18.6 18.9789474 18.6C19.6922601 18.6 20.2936806 19.1314879 20.3356401 19.8258776L20.3368421 25.6421053C20.3368421 26.355418 19.8053542 26.9288654 19.1109645 26.9938616L18.9789474 27 10.9894737 27C10.276161 27 9.70271353 26.4685121 9.63771733 25.7741224L9.63157895 25.6421053 9.63157895 19.9578947C9.63157895 19.244582 10.1630668 18.6711346 10.8574566 18.6061384L10.9894737 18.6 11.3684211 18.6 11.3684211 16.7684211C11.3684211 15.1240602 12.6604189 13.8026987 14.2533935 13.7104132L14.4315789 13.7052632 15.5368421 13.7052632 14.4315789 13.7052632ZM14.9684211 20.7789474L14.8502082 20.7851602C14.3073684 20.8426667 13.8947368 21.2926316 13.8947368 21.8526316 13.8947368 22.2505263 14.0993684 22.5972632 14.4165474 22.7777368L14.5263158 22.8315789 14.0842105 24.5684211C14.0571429 24.6766917 14.1228786 24.8081633 14.2416449 24.843517L14.3052632 24.8526316 15.6631579 24.8526316C15.7984962 24.8526316 15.8874329 24.7598281 15.8901949 24.6338806L15.8842105 24.5684211 15.4105263 22.8315789C15.7894737 22.6736842 16.0421053 22.2947368 16.0421053 21.8526316 16.0421053 21.2926316 15.6294737 20.8426667 15.0866339 20.7851602L14.9684211 20.7789474ZM15.5684211 15.5368421L14.4631579 15.5368421C13.8118421 15.5368421 13.299301 16.0364309 13.2377775 16.6453048L13.2315789 16.7684211 13.2315789 18.6 16.8 18.6 16.8 16.7684211C16.8 16.1171053 16.3004112 15.6045641 15.6915373 15.5430407L15.5684211 15.5368421Z"/>
	</svg>
	