<?xml version="1.0"?>
	<svg xmlns="http://www.w3.org/2000/svg" 
		width="30" 
		height="30" 
		viewbox="0 0 30 30" 
		code="80567" 
		 transform=""
		><path d="M24.525 16.45C26.961363640000002 16.8742424 29.82086777 18.003719 29.991933799999998 19.827032000000003L30 20 30 26.875C30 27.1931818 29.77272727 27.4493802 29.46844478 27.4933321L29.375 27.5 26.1875 27.5C26.2125 27.3666667 26.23194444 27.2277778 26.24212963 27.087037L26.25 26.875 26.25 20C26.25 18.525 25.5625 17.3625 24.525 16.45ZM22.5 6.25C24.575 6.25 26.2375 7.925 26.2375 10 26.2375 12.00806452 24.6805281 13.64151925 22.69947677 13.74481387L22.5 13.75C22.1 13.75 21.7125 13.6875 21.3625 13.575 22.0625 12.55 22.4875 11.3375 22.4875 10 22.4875 8.6625 22.075 7.4375 21.3625 6.425 21.7125 6.3125 22.1 6.25 22.5 6.25Z"/>
	</svg>
	