<?xml version="1.0"?>
	<svg xmlns="http://www.w3.org/2000/svg" 
		width="30" 
		height="30" 
		viewbox="0 0 30 30" 
		code="80566" 
		 transform=""
		><path d="M16.25 16.25C18.6931818 16.25 23.5240186 17.443827499999998 23.7423401 19.8314824L23.75 20 23.75 27.5C23.75 28.1445313 23.2556152 28.6791992 22.6273346 28.743515L22.5 28.75 10 28.75C9.35546875 28.75 8.82080078 28.2556152 8.75648499 27.6273346L8.75 27.5 8.75 20C8.75 17.5 13.75 16.25 16.25 16.25ZM5 8.75C5.64453125 8.75 6.17919922 9.24438477 6.24351501 9.87266541L6.25 10 6.25 12.5 8.75 12.5C9.4375 12.5 10 13.0625 10 13.75 10 14.39453125 9.50561523 14.92919922 8.87733459 14.99351501L8.75 15 6.25 15 6.25 17.5C6.25 18.1445312 5.75561523 18.6791992 5.12733459 18.743515000000002L5 18.75C4.35546875 18.75 3.82080078 18.2556152 3.75648499 17.627334599999998L3.75 17.5 3.75 15 1.25 15C0.5625 15 0 14.4375 0 13.75 0 13.10546875 0.494384766 12.570800779999999 1.12266541 12.50648499L1.25 12.5 3.75 12.5 3.75 10C3.75 9.3125 4.3125 8.75 5 8.75ZM16.25 6.25C18.325 6.25 19.9875 7.925 19.9875 10 19.9875 12.00806452 18.4305281 13.64151925 16.4494768 13.74481387L16.25 13.75C14.175 13.75 12.5 12.075 12.5 10 12.5 7.925 14.175 6.25 16.25 6.25Z"/>
	</svg>
	