<?xml version="1.0"?>
	<svg xmlns="http://www.w3.org/2000/svg" 
		width="30" 
		height="30" 
		viewbox="0 0 30 30" 
		code="81163" 
		 transform=""
		><path d="M24.3768842 14.7818322L16.4727336 3.53554604C16.0758844 2.96795931 15.2940545 2.82954925 14.7264678 3.2263985 14.1922685 3.59990369 14.0382396 4.31442974 14.3528228 4.87039996L14.4173203 4.97266433 21.5527797 15.1244011C21.6920744 15.3216123 21.7094862 15.5768792 21.6050152 15.7886043L21.5527797 15.8763816 14.4173203 26.0281183C14.1493198 26.4111043 14.116725 26.9114079 14.3327679 27.3259293 14.5488109 27.7404506 14.9775845 28.0002952 15.4450269 28 15.8137464 28.0015202 16.1619055 27.8397027 16.3982271 27.5620227L16.4727336 27.4652366 24.3768842 16.2189505C24.6536487 15.8234402 24.6767124 15.3080047 24.4460753 14.8925068L24.3768842 14.7818322 16.4727336 3.53554604 24.3768842 14.7818322Z"/>
	</svg>
	