<?xml version="1.0"?>
	<svg xmlns="http://www.w3.org/2000/svg" 
		width="30" 
		height="30" 
		viewbox="0 0 30 30" 
		code="81127" 
		 transform=""
		><path d="M26.1910213 14.1009627L16.7310213 0.640962682C16.2560564-0.0383475599 15.3203315-0.204002202 14.6410213 0.270962682 14.0016705 0.717988456 13.8173225 1.57316149 14.1938282 2.23856864L14.2710213 2.36096268 22.8110213 14.5109627C22.9777347 14.7469928 22.9985738 15.0525063 22.8735388 15.3059073L22.8110213 15.4109627 14.2710213 27.5609627C13.9502677 28.0193354 13.911257 28.6181185 14.1698257 29.1142341 14.4283944 29.6103497 14.9415678 29.921342 15.5010213 29.9209886 15.9423193 29.9228081 16.3590099 29.7291385 16.6418489 29.3968001L16.7310213 29.2809627 26.1910213 15.8209627C26.5222639 15.3476003 26.5498675 14.7307067 26.2738319 14.2334224L26.1910213 14.1009627 16.7310213 0.640962682 26.1910213 14.1009627Z"/>
	</svg>
	