<svg xmlns="http://www.w3.org/2000/svg" width="30" height="30" viewBox="0 0 30 30">
  <g fill="none" fill-rule="evenodd" class="angle-double-left-secondary">
    <path fill="#A7B3C6" fill-rule="nonzero" d="M23.3363347,3.0001592 L23.4576108,3.0048055 C23.9039426,3.04354635 24.2957022,3.31745955 24.4853175,3.72336465 C24.6559713,4.08867924 24.6395545,4.51095728 24.4474183,4.85942247 L24.3768804,4.97266433 L17.241421,15.1244011 C17.1021263,15.3216123 17.0847144,15.5768792 17.1891854,15.7886043 L17.241421,15.8763816 L24.3768804,26.0281183 C24.6448808,26.4111043 24.6774756,26.9114079 24.4614327,27.3259293 C24.2453898,27.7404506 23.8166161,28.0002952 23.3491737,28 C22.9804543,28.0015202 22.6322951,27.8397027 22.3959735,27.5620227 L22.321467,27.4652366 L14.4173164,16.2189505 C14.140552,15.8234402 14.1174883,15.3080047 14.3481253,14.8925068 L14.4173164,14.7818322 L22.321467,3.53554604 C22.5548456,3.20176037 22.9339921,3.00421195 23.3363347,3.0001592 L23.3363347,3.0001592 Z" class="angle-double-left-secondary__shape"/>
  </g>
</svg>
