<?xml version="1.0"?>
	<svg xmlns="http://www.w3.org/2000/svg" 
		width="30" 
		height="30" 
		viewbox="0 0 30 30" 
		code="80578" 
		 transform=""
		><path d="M5.533816433 2.0000000000000746L23.6835752 2.0000000000000746C23.9478084 2.0000000000000746 24.1688131 2.194581365 24.2103717 2.4475265889999998L24.2173916 2.533816433 24.2173916 20.1497587 17.2777454 20.1497587C17.0121926 20.1497587 16.792243499999998 20.3433636 16.750909200000002 20.5969924L16.743929 20.6835752 16.743929 27.6231888 5.533816433 27.6231888C5.269553853 27.6231888 5.0485726064 27.4286074 5.00701898274 27.1756622L4.999999999999831 27.0893723 4.999999999999831 2.533816433C4.999999999999831 2.26958316 5.194554989 2.0485784677 5.447518676 2.00701986193L5.533816433 2.0000000000000746 23.6835752 2.0000000000000746 5.533816433 2.0000000000000746ZM21.5482769 15.8792273L7.6690496 15.8792273C7.3739909 15.8792273 7.135233169999999 16.1182456 7.135233169999999 16.4130437 7.135233169999999 16.6783619 7.32862693 16.8984986 7.58240348 16.9398728L7.6690496 16.946860100000002 21.5482769 16.946860100000002C21.8433355 16.946860100000002 22.0820933 16.7078417 22.0820933 16.4130437 22.0820933 16.1477255 21.8886995 15.9275887 21.634923 15.8862146L21.5482769 15.8792273ZM21.5482769 11.60869579L7.6690496 11.60869579C7.3739909 11.60869579 7.135233169999999 11.84771418 7.135233169999999 12.1425122 7.135233169999999 12.4078305 7.32862693 12.6279672 7.58240348 12.6693413L7.6690496 12.6763287 21.5482769 12.6763287C21.8433355 12.6763287 22.0820933 12.4373103 22.0820933 12.1425122 22.0820933 11.87719399 21.8886995 11.65705727 21.634923 11.61568311L21.5482769 11.60869579ZM21.5482769 7.33816433L7.6690496 7.33816433C7.3739909 7.33816433 7.135233169999999 7.57718272 7.135233169999999 7.87198076 7.135233169999999 8.137298999999999 7.32862693 8.35743572 7.58240348 8.39880988L7.6690496 8.4057972 21.5482769 8.4057972C21.8433355 8.4057972 22.0820933 8.16677881 22.0820933 7.87198076 22.0820933 7.60666252 21.8886995 7.3865258 21.634923 7.34515164L21.5482769 7.33816433Z"/>
	</svg>
	