<?xml version="1.0"?>
	<svg xmlns="http://www.w3.org/2000/svg" 
		width="30" 
		height="30" 
		viewbox="0 0 30 30" 
		code="80581" 
		 transform=""
		><path d="M1.73464076 16.8460044L4.88709678 19.9984605 4.88709678 6.96774194C4.88709678 6.43327282 5.32036965 6 5.85483871 6 6.38930778 6 6.82258065 6.43327282 6.82258065 6.96774194L6.82258065 19.9984605 9.97503668 16.8460044C10.3718597 16.4491814 11.015237 16.4491814 11.4120601 16.8460044 11.8088832 17.2428275 11.8088832 17.8862048 11.4120601 18.2830278L6.57335042 23.1217375C6.42072617 23.2743618 6.23162939 23.3682844 6.03411588 23.4035054L5.91482222 23.4175938 5.79485521 23.4175938C5.55514564 23.4035054 5.31947611 23.3048866 5.136327 23.1217375L0.297617306 18.2830278C-0.0992057685 17.8862048-0.0992057685 17.2428275 0.297617306 16.8460044 0.511291269 16.6323305 0.796451371 16.5337117 1.07611254 16.5501482L1.19540621 16.5642366C1.39291973 16.5994575 1.5820165 16.6933802 1.73464076 16.8460044Z"/>
	</svg>
	