<?xml version="1.0"?>
	<svg xmlns="http://www.w3.org/2000/svg" 
		width="30" 
		height="30" 
		viewbox="0 0 30 30" 
		code="80588" 
		 transform=""
		><path d="M7.85314685 5.916083916L8.271385890000001 5.922795381C10.36295969 5.989929956 12.4554302 6.56102221 14.3335842 7.6495229600000005L14.7062937 7.87412587 14.7062937 25.2027972 15.1055029 25.0034077C16.9808826 24.1019244 19.0267879 23.6070791 21.1120452 23.5451063L21.5594406 23.5384615 22.0586434 23.5466853C23.3893287 23.5905455 24.7137483 23.8098462 25.9817762 24.2045874L26.4545455 24.3608392 26.4545455 6.89314685 26.8559284 7.06265063C27.2555569 7.23751161 27.6494053 7.42943105 28.0328213 7.6472906300000005L28.4125874 7.87412587 28.4125874 25.8293706C28.4125874 26.3776224 27.9622378 26.8083916 27.4531469 26.8083916 27.3160839 26.8083916 27.179021 26.7692308 27.041958 26.7104895 25.4333513 25.9694459 23.724641 25.5620805 21.99283 25.5037938L21.5594406 25.4965035 21.1412015 25.503215C18.9101895 25.5748252 16.6781571 26.2198272 14.7062937 27.4545455 12.7344303 26.2198272 10.50239795 25.5748252 8.271385890000001 25.503215L7.85314685 25.4965035 7.41975739 25.5037938C5.68794637 25.5620805 3.97923615 25.9694459 2.37062937 26.7104895 2.2335664299999998 26.7692308 2.0965035 26.8083916 1.959440559 26.8083916 1.486713287 26.8083916 1.0646353646 26.436963 1.00675039246 25.9449408L1.0000000000000533 25.8293706 1.0000000000000533 7.87412587C2.97186343 6.63940765 5.20389576 5.994405594 7.43490782 5.922795381L7.85314685 5.916083916Z"/>
	</svg>
	