<?xml version="1.0"?>
	<svg xmlns="http://www.w3.org/2000/svg" 
		width="30" 
		height="30" 
		viewbox="0 0 30 30" 
		code="80596" 
		 transform=""
		><path d="M7.71304519 14.390625C12.0255452 11.278125 17.8880452 11.278125 22.1880452 14.390625 23.0074202 14.9725 23.0935139 16.152281199999997 22.4570436 16.9118359L22.3380452 17.040625C21.7255452 17.653125 20.7630452 17.703125 20.0505452 17.203125 17.000545199999998 15.040625 12.9005452 15.040625 9.85054519 17.203125 9.13804519 17.715625 8.175545190000001 17.653125 7.56304519 17.040625 6.80054519 16.278125 6.85054519 15.015625 7.71304519 14.390625ZM2.650545191 9.378125C9.800545190000001 3.540625 20.1255452 3.540625 27.2630452 9.378125 28.0755452 10.040625 28.1255452 11.265625 27.3880452 12.003125 26.7505452 12.640625 25.7255452 12.690625 25.0255452 12.115625 19.1755452 7.328125 10.70054519 7.328125 4.863045189999999 12.128125 4.175545189999999 12.703125 3.16304519 12.640625 2.525545191 12.003125 1.775545191 11.253125 1.838045191 10.028125 2.650545191 9.378125Z"/>
	</svg>
	