<?xml version="1.0"?>
	<svg xmlns="http://www.w3.org/2000/svg" 
		width="30" 
		height="30" 
		viewbox="0 0 30 30" 
		code="80598" 
		 transform=""
		><path d="M25.0060489 11.2419937L26.1453719 12.37095914C26.912861200000002 13.1286089 26.8764547 13.9610396 26.1871164 14.7172872L26.0728695 14.8360396 21.0598487 19.8283455C20.70562281 20.1825714 20.33252044 20.3941747 19.955642779999998 20.4471105L19.82989778 20.4588572 19.70399742 20.4588572C19.373413810000002 20.4426401 19.04250904 20.3023518 18.72139974 20.0271049L18.58441068 19.9008479 11.603468449 12.90954815C10.816299888 12.12237959 10.842374847 11.36325391 11.486327928 10.52560817L11.803845949 10.13547856C13.98056266 7.40070928 13.916953079999999 4.95280566 15.03179468 3.556742757 15.32698289 3.183873439 15.720567169999999 3.00261752052 16.12580362 3.000028150257L16.261195 3.00576454666C16.5711035 3.0339203329 16.8821811 3.164956778 17.15606228 3.393147685L17.28972555 3.515312833 22.7170456 8.94263291C22.5460551 10.562542950000001 21.3585211 12.15899429 20.32986322 13.3243269L20.15022385 13.5254156 19.841487790000002 13.8635446C19.743169860000002 13.9798212 19.6684937 14.1179209 19.80659345 14.2560207 19.85339158 14.3028188 19.92208518 14.3270177 20.009317680000002 14.3314711L20.10260551 14.3294483C20.94812249 14.2579237 23.0586846 12.82156032 24.3570893 11.78640082L24.704168199999998 11.50308365 25.0060489 11.2419937 26.1453719 12.37095914 25.0060489 11.2419937Z"/>
	</svg>
	