<?xml version="1.0"?>
	<svg xmlns="http://www.w3.org/2000/svg" 
		width="30" 
		height="30" 
		viewbox="0 0 30 30" 
		code="80599" 
		 transform=""
		><path d="M8.805653880000001 12.545686666L8.93973535 12.553086381C9.29741025 12.589161488 9.65533372 12.757232333 9.995608050000001 13.05928755L10.12234866 13.17884266 18.6361981 21.69269209C19.4233666 22.489700300000003 19.4627251 23.3988799 18.7809141 24.1715843L18.6672705 24.292419799999998 17.8179571 25.1520908C17.4590704 25.506316599999998 17.064528 25.7032382 16.662644800000002 25.735305L16.5284507 25.739877800000002C16.1252857 25.735217 15.717926 25.5648623 15.3346863 25.2212632L15.2078719 25.1003034 12.53564174 22.438430699999998C11.91419288 23.6606135 11.106309360000001 25.794254600000002 10.163778579999999 26.736785400000002 9.51840037 27.3868066 8.76479201 27.7350323 7.99065726 27.7842614L7.81168632 27.7903421C6.91540897 27.7940613 6.0007855 27.4000213 5.20254515 26.612495600000003 3.648922994 25.0795884 3.597135589 23.090952 5.0678979 21.64090469 5.95726027 20.77087628 7.88421208 20.00009556 9.114024090000001 19.40435166L9.36625254 19.27939901 6.70437991 16.59681141C5.90737174 15.78996364 5.86752133 14.8896396 6.558187950000001 14.11784542L6.67330746 13.99708367 7.51226343 13.14777022C7.9162051899999994 12.743828458 8.35898751 12.541857577 8.805653880000001 12.545686666ZM7.55369335 23.3485944L7.44256621 23.3551937C7.25807358 23.378300199999998 7.07897547 23.4620951 6.93224449 23.6088261 6.59044762 23.9609804 6.58009013 24.489212000000002 6.93224449 24.851723800000002 7.1083216700000005 25.0329797 7.33359688 25.118429 7.55757741 25.1158396L7.66922602 25.107244299999998C7.85434801 25.0808112 8.03272685 24.9941392 8.17514222 24.851723800000002 8.516939090000001 24.489212000000002 8.516939090000001 23.9609804 8.17514222 23.6088261 8.02841124 23.4664107 7.8493131300000005 23.3815369 7.66482049 23.356452400000002L7.55369335 23.3485944 7.55369335 23.3485944Z"/>
	</svg>
	