<?xml version="1.0"?>
	<svg xmlns="http://www.w3.org/2000/svg" 
		width="30" 
		height="30" 
		viewbox="0 0 30 30" 
		code="80600" 
		 transform=""
		><path d="M2.67819255 6.14387883C3.20321475 5.618856625 4.02962923 5.572040582 4.60831651 6.01311927L4.72058824 6.10784314 7.98039216 9.36764706 21.4509804 9.36764706 24.7107843 6.10784314C25.0004998 5.8378834699999995 25.3710928 5.706886472 25.7392599 5.713382351L25.8770461 5.722260413C26.1975227 5.758000779 26.5081696 5.898868465 26.75318 6.14387883 27.2782022 6.66890103 27.3250182 7.4953155 26.8839396 8.07400278L26.7892157 8.18627451 23.5294118 11.44607843 23.5294118 15.2352941 27.9411765 15.2352941C28.7533599 15.2352941 29.4117647 15.8936989 29.4117647 16.7058824 29.4117647 17.470290300000002 28.8285411 18.0984791 28.0828039 18.169738600000002L27.9411765 18.176470600000002 23.5294118 18.176470600000002C23.5258952 19.2868524 23.3113007 20.3864415 22.8970588 21.4166667L22.9979345 21.478641 22.9979345 21.478641 23.0931373 21.5490196 27.254902 25.7107843C27.7948213 26.2902152 27.77889 27.1931563 27.2188663 27.75318 26.9738559 27.9981904 26.663209 28.139058 26.3427324 28.1747984L26.2049461 28.1836765C25.8893743 28.1892444 25.5720202 28.0937971 25.3053432 27.8964091L25.1764706 27.7892157 21.3529412 23.9656863 21.1254579 24.2172249C19.8885279 25.5332276 18.27717 26.4380906 16.5096561 26.8092424L16.1764706 26.872549 16.1764706 12.29411765 13.2352941 12.29411765 13.2352941 26.872549C11.3351832 26.5493709 9.59635761 25.6135748 8.28150063 24.2127803L8.05392157 23.9607843 4.23039216 27.7843137C3.97689114 28.0205284 3.66146825 28.1503498 3.33993029 28.1747626L3.20191661 28.1787745C2.83374951 28.1722786 2.46800831 28.0282899 2.18799647 27.748278 1.66297427 27.2232558 1.61615823 26.3968414 2.05723691 25.8181541L2.15196078 25.7058824 6.31372549 21.5441176C6.37518295 21.4944782 6.44078258 21.4501984 6.50980392 21.4117647 6.14307996 20.4957176 5.93409278 19.5251324 5.8908037 18.541121699999998L5.88235294 18.1715686 1.47058824 18.1715686 1.32896077 18.164836700000002C0.583223611 18.093577099999997-1.90070182e-13 17.465388400000002-1.90070182e-13 16.7009804-1.90070182e-13 15.9365724 0.583223611 15.3083836 1.32896077 15.2371241L1.47058824 15.2303922 5.88235294 15.2303922 5.88235294 11.44117647 2.64215686 8.18627451C2.10223753 7.606843619999999 2.11816887 6.70390251 2.67819255 6.14387883Z"/>
	</svg>
	