<?xml version="1.0"?>
	<svg xmlns="http://www.w3.org/2000/svg" 
		width="30" 
		height="30" 
		viewbox="0 0 30 30" 
		code="80605" 
		 transform=""
		><path d="M25 5L21.0375 5 19.4875 3.3125C19.025 2.8 18.35 2.5 17.65 2.5L12.35 2.5C11.65 2.5 10.975 2.8 10.5 3.3125L8.9625 5 5 5C3.625 5 2.5 6.125 2.5 7.5L2.5 22.5C2.5 23.875 3.625 25 5 25L25 25C26.375 25 27.5 23.875 27.5 22.5L27.5 7.5C27.5 6.125 26.375 5 25 5ZM15 21.25C11.55 21.25 8.75 18.45 8.75 15 8.75 11.55 11.55 8.75 15 8.75 18.45 8.75 21.25 11.55 21.25 15 21.25 18.45 18.45 21.25 15 21.25Z"/>
	</svg>
	