<?xml version="1.0"?>
	<svg xmlns="http://www.w3.org/2000/svg" 
		width="30" 
		height="30" 
		viewbox="0 0 30 30" 
		code="80606" 
		 transform=""
		><path d="M29.8 6.46666667C29.5666667 6.1 29.1666667 5.83333333 28.7333333 5.83333333L7.66666667 4.86666667 6.93333333 2C6.76666667 1.4 6.26666667 1.0000000000000426 5.63333333 1.0000000000000426L1.33333333 1.0000000000000426C0.6 1.0000000000000426 4.26325641e-14 1.6 4.26325641e-14 2.3333333300000003 4.26325641e-14 3.06666667 0.6 3.66666667 1.33333333 3.66666667L4.6 3.66666667 8.26666667 17.9333333 7.36666667 21.6666667C7.26666667 22.0666667 7.36666667 22.5 7.6 22.8 7.86666667 23.1333333 8.23333333 23.3 8.63333333 23.3L24.9666667 23.3C25.7 23.3 26.3 22.7 26.3 21.9666667 26.3 21.2333333 25.7 20.6333333 24.9666667 20.6333333L10.3666667 20.6333333 10.7333333 19.1 24.0666667 18.4666667C24.5666667 18.4333333 25 18.1333333 25.2 17.7L29.8666667 7.7C30.0666667 7.33333333 30.0333333 6.86666667 29.8 6.46666667Z"/>
	</svg>
	