<?xml version="1.0"?>
	<svg xmlns="http://www.w3.org/2000/svg" 
		width="30" 
		height="30" 
		viewbox="0 0 30 30" 
		code="80611" 
		 transform=""
		><path d="M8.25 9C9.2125 9 10 9.7875 10 10.75L10 19.5C10 20.4625 9.2125 21.25 8.25 21.25L8 21.25C7.0375 21.25 6.25 20.4625 6.25 19.5L6.25 10.75C6.25 9.7875 7.0375 9 8 9L8.25 9ZM15 3.75C15.9625 3.75 16.75 4.5375 16.75 5.5L16.75 19.5C16.75 20.4625 15.9625 21.25 15 21.25 14.0375 21.25 13.25 20.4625 13.25 19.5L13.25 5.5C13.25 4.5375 14.0375 3.75 15 3.75ZM22 13.75C22.9625 13.75 23.75 14.5375 23.75 15.5L23.75 19.5C23.75 20.4625 22.9625 21.25 22 21.25 21.0375 21.25 20.25 20.4625 20.25 19.5L20.25 15.5C20.25 14.5375 21.0375 13.75 22 13.75Z"/>
	</svg>
	