<?xml version="1.0"?>
	<svg xmlns="http://www.w3.org/2000/svg" 
		width="30" 
		height="30" 
		viewbox="0 0 30 30" 
		code="80612" 
		 transform=""
		><path d="M24.5242424 14.690909091C25.4480642 14.690909091 26.1969724 15.4398146 26.1969724 16.36363636L26.1969724 28.3242424C26.1977743 28.7684021 26.0218964 29.194645700000002 25.7081119 29.508998599999998 25.3943274 29.823351600000002 24.9684028 30 24.5242424 30L5.9 30C5.45583961 30 5.02991501 29.823351600000002 4.716130538 29.508998599999998 4.402346069 29.194645700000002 4.226468089 28.7684021 4.227269978 28.3242424L4.227269978 16.36363636C4.227269978 15.4398146 4.976178237 14.690909091 5.9 14.690909091L24.5242424 14.690909091ZM18.8575758 18.45347508C18.605017 18.45347508 18.3628877 18.5542022 18.1848485 18.73333333L14 22.92424242C13.92662167 22.99807856 13.82682413 23.03959798 13.72272727 23.03959798 13.61863042 23.03959798 13.51883287 22.99807856 13.44545455 22.92424242L12.31515152 21.81818182C12.13312221 21.63497905 11.88553213 21.53195759 11.62727273 21.53195759 11.36901332 21.53195759 11.12142324 21.63497905 10.93939394 21.81818182L10.43939394 22.31818182C10.06110987 22.69875675 10.06110987 23.31336447 10.43939394 23.69393939L13.04242424 26.2939394C13.41364255 26.6633867 14.0136302 26.6633867 14.3848485 26.2939394L20.0606061 20.60606061C20.2386237 20.42866005 20.338685 20.18768261 20.338685 19.93636364 20.338685 19.68504466 20.2386237 19.44406722 20.0606061 19.26666667L19.530303 18.73333333C19.3522638 18.5542022 19.1101345 18.45347508 18.8575758 18.45347508Z"/>
	</svg>
	