<?xml version="1.0"?>
	<svg xmlns="http://www.w3.org/2000/svg" 
		width="30" 
		height="30" 
		viewbox="0 0 30 30" 
		code="80613" 
		 transform=""
		><path d="M10.70909091 12.7272727C10.70909608 12.9955418 10.49250628 13.2134852 10.22424242 13.2151515L8.08484848 13.2151515C7.815400471 13.2151515 7.5969696970000005 12.9967207 7.5969696970000005 12.7272727L7.5969696970000005 8.00606061C7.54165532 5.21706934 8.99791552 2.61593426 11.40445542 1.20522605 13.81099532-0.205482168 16.79203498-0.205482168 19.1985749 1.20522605 21.605114800000003 2.61593426 23.061375 5.21706934 23.0060606 8.00606061L23.0060606 12.7272727C23.0060658 12.9955418 22.789476 13.2134852 22.5212121 13.2151515L20.381818199999998 13.2151515C20.1123702 13.2151515 19.8939394 12.9967207 19.8939394 12.7272727L19.8939394 8.04242424C19.942895999999998 6.3740874 19.083142600000002 4.81044924 17.648173 3.95803689 16.21320336 3.10562453 14.42880141 3.09855993 12.98712734 3.93958339 11.54545327 4.78060685 10.67334581 6.33738842 10.70909091 8.00606061L10.70909091 12.7272727Z"/>
	</svg>
	