<?xml version="1.0"?>
	<svg xmlns="http://www.w3.org/2000/svg" 
		width="30" 
		height="30" 
		viewbox="0 0 30 30" 
		code="80622" 
		 transform=""
		><path d="M25.8796953 17.908132430000002L29.750643 19.91409886C30.083119 20.08667852 30.083119 20.36591552 29.750643 20.538184219999998L29.750643 20.538184219999998 15.6020134 27.8707985C15.2695375 28.0430672 14.7304625 28.0430672 14.3979866 27.8707985L14.3979866 27.8707985 0.249356955 20.538184219999998C-0.0831189851 20.36591552-0.0831189851 20.08667852 0.249356955 19.91409886L0.249356955 19.91409886 4.11906762 17.90875434 14.3002541 23.1853385C14.6859262 23.385282099999998 15.3115995 23.385282099999998 15.6972716 23.1853385L15.6972716 23.1853385 25.8796953 17.908132430000002ZM25.8796953 11.999999999999979L29.750643 14.00596644C30.083119 14.178546090000001 30.083119 14.45778309 29.750643 14.63005179L29.750643 14.63005179 15.6020134 21.962666040000002C15.2695375 22.134934700000002 14.7304625 22.134934700000002 14.3979866 21.962666040000002L14.3979866 21.962666040000002 0.249356955 14.63005179C-0.0831189851 14.45747214-0.0831189851 14.17823514 0.249356955 14.00596644L0.249356955 14.00596644 4.11906762 12.000621908677 14.3002541 17.27720608C14.6859262 17.47714971 15.3115995 17.47714971 15.6972716 17.27720608L15.6972716 17.27720608 25.8796953 11.999999999999979Z"/>
	</svg>
	