<?xml version="1.0"?>
	<svg xmlns="http://www.w3.org/2000/svg" 
		width="30" 
		height="30" 
		viewbox="0 0 30 30" 
		code="80626" 
		 transform=""
		><path d="M5 5L25 5C26.32 5 27.4096 6.0368 27.494656 7.336256L27.5 7.5 27.5 22.5C27.5 23.82 26.4632 24.9096 25.163744 24.994656L25 25 5 25C3.68 25 2.5904 23.9632 2.505344 22.663744L2.5 22.5 2.5 7.5C2.5 6.18 3.5368 5.0904 4.836256 5.005344L5 5ZM15 16.25C12.9674342 16.25 8.96764197 17.2336132 8.75853418 19.2123786L8.75 19.375 8.75 21.25 21.25 21.25 21.25 19.375C21.25 17.2875 17.0875 16.25 15 16.25ZM15 8.4375C13.45 8.4375 12.1875 9.7 12.1875 11.25 12.1875 12.8 13.45 14.0625 15 14.0625 16.55 14.0625 17.8125 12.8 17.8125 11.25 17.8125 9.7 16.55 8.4375 15 8.4375Z"/>
	</svg>
	