<?xml version="1.0"?>
	<svg xmlns="http://www.w3.org/2000/svg" 
		width="30" 
		height="30" 
		viewbox="0 0 30 30" 
		code="80629" 
		 transform=""
		><path d="M29.625 28.0116279C29.7102273 28.0116279 29.7954545 28.0843023 29.8214962 28.1690891L29.8295455 28.2209302 29.8295455 29.5813953C29.8295455 29.6686047 29.7585227 29.755814 29.6756629 29.7824612L29.625 29.7906977 28.2613636 29.7906977C28.1761364 29.7906977 28.0909091 29.7180233 28.0648674 29.6332364L28.0568182 29.5813953 28.0568182 28.8139535C28.0568182 28.7267442 28.1278409 28.6395349 28.2107008 28.6128876L28.2613636 28.6046512 28.4318182 28.6046512C28.5170455 28.6046512 28.6022727 28.5319767 28.6283144 28.4471899L28.6363636 28.3953488 28.6363636 28.2209302C28.6363636 28.1337209 28.7073864 28.0465116 28.7902462 28.0198643L28.8409091 28.0116279 29.625 28.0116279ZM25.3295455 28.6046512C25.4147727 28.6046512 25.5 28.6773256 25.5260417 28.7621124L25.5340909 28.8139535 25.5340909 29.5813953C25.5340909 29.6686047 25.4630682 29.755814 25.3802083 29.7824612L25.3295455 29.7906977 23.5568182 29.7906977C23.4715909 29.7906977 23.3863636 29.7180233 23.360322 29.6332364L23.3522727 29.5813953 23.3522727 28.8139535C23.3522727 28.7267442 23.4232955 28.6395349 23.5061553 28.6128876L23.5568182 28.6046512 25.3295455 28.6046512ZM29.5909091 23.3023256C29.6761364 23.3023256 29.7613636 23.375 29.7874053 23.4597868L29.7954545 23.5116279 29.7954545 25.255814C29.7954545 25.3430233 29.7244318 25.4302326 29.641572 25.4568798L29.5909091 25.4651163 28.8409091 25.4651163C28.7556818 25.4651163 28.6704545 25.3924419 28.6444129 25.307655L28.6363636 25.255814 28.6363636 23.5116279C28.6363636 23.4244186 28.7073864 23.3372093 28.7902462 23.310562L28.8409091 23.3023256 29.5909091 23.3023256ZM29.5909091 18.627907C29.6761364 18.627907 29.7613636 18.7005814 29.7874053 18.7853682L29.7954545 18.8372093 29.7954545 20.5813953C29.7954545 20.6686047 29.7244318 20.755814 29.641572 20.7824612L29.5909091 20.7906977 28.8409091 20.7906977C28.7556818 20.7906977 28.6704545 20.7180233 28.6444129 20.6332364L28.6363636 20.5813953 28.6363636 18.8372093C28.6363636 18.75 28.7073864 18.6627907 28.7902462 18.6361434L28.8409091 18.627907 29.5909091 18.627907ZM20.8324219 4.59014423L26.6097656 2.98677885C26.7910156 2.92481303 26.9454138 3.05562975 26.9536185 3.20786674L26.9496094 3.265625 25.3863281 9.22596154C25.3561198 9.41185897 25.1379485 9.48759497 24.9943657 9.40420887L24.9445313 9.36538462 23.3472656 7.72716346 11.2828125 20.1009615C10.9769531 20.4146635 10.5011719 20.4146635 10.1953125 20.1009615 9.91725852 19.815778 9.89198089 19.3865623 10.1194796 19.0751911L10.1953125 18.9855769 22.2597656 6.64663462 20.6964844 5.04326923C20.575651 4.91933761 20.6159288 4.7127849 20.7695811 4.61945368L20.8324219 4.59014423 26.6097656 2.98677885 20.8324219 4.59014423ZM29.5909091 13.9186047C29.6761364 13.9186047 29.7613636 13.9912791 29.7874053 14.0760659L29.7954545 14.127907 29.7954545 15.872093C29.7954545 15.9593023 29.7244318 16.0465116 29.641572 16.0731589L29.5909091 16.0813953 28.8409091 16.0813953C28.7556818 16.0813953 28.6704545 16.0087209 28.6444129 15.9239341L28.6363636 15.872093 28.6363636 14.127907C28.6363636 14.0406977 28.7073864 13.9534884 28.7902462 13.9268411L28.8409091 13.9186047 29.5909091 13.9186047ZM29.5909091 9.20930233C29.6761364 9.20930233 29.7613636 9.28197674 29.7874053 9.36676357L29.7954545 9.41860465 29.7954545 11.1627907C29.7954545 11.25 29.7244318 11.3372093 29.641572 11.3638566L29.5909091 11.372093 28.8409091 11.372093C28.7556818 11.372093 28.6704545 11.2994186 28.6444129 11.2146318L28.6363636 11.1627907 28.6363636 9.41860465C28.6363636 9.33139535 28.7073864 9.24418605 28.7902462 9.21753876L28.8409091 9.20930233 29.5909091 9.20930233ZM1.15909091 4.53488372C1.24431818 4.53488372 1.32954545 4.60755814 1.35558712 4.69234496L1.36363636 4.74418605 1.36363636 6.48837209C1.36363636 6.5755814 1.29261364 6.6627907 1.20975379 6.68943798L1.15909091 6.69767442 0.375 6.69767442C0.289772727 6.69767442 0.204545455 6.625 0.178503788 6.54021318L0.170454545 6.48837209 0.170454545 4.74418605C0.170454545 4.65697674 0.241477273 4.56976744 0.324337121 4.54312016L0.375 4.53488372 1.15909091 4.53488372ZM28.8409091 4.53488372L29.5909091 4.53488372C29.6761364 4.53488372 29.7613636 4.60755814 29.7874053 4.69234496L29.7954545 4.74418605 29.7954545 6.48837209C29.7954545 6.5755814 29.7244318 6.6627907 29.641572 6.68943798L29.5909091 6.69767442 28.8409091 6.69767442C28.7556818 6.69767442 28.6704545 6.625 28.6444129 6.54021318L28.6363636 6.48837209 28.6363636 4.74418605C28.6363636 4.65697674 28.7073864 4.56976744 28.7902462 4.54312016L28.8409091 4.53488372ZM1.73863636 0.209302326C1.82386364 0.209302326 1.90909091 0.281976744 1.93513258 0.366763566L1.94318182 0.418604651 1.94318182 1.18604651C1.94318182 1.27325581 1.87215909 1.36046512 1.78929924 1.3871124L1.73863636 1.39534884 1.56818182 1.39534884C1.48295455 1.39534884 1.39772727 1.46802326 1.37168561 1.55281008L1.36363636 1.60465116 1.36363636 1.77906977C1.36363636 1.86627907 1.29261364 1.95348837 1.20975379 1.98013566L1.15909091 1.98837209 0.375 1.98837209C0.289772727 1.98837209 0.204545455 1.91569767 0.178503788 1.83091085L0.170454545 1.77906977 0.170454545 0.418604651C0.170454545 0.331395349 0.241477273 0.244186047 0.324337121 0.21753876L0.375 0.209302326 1.73863636 0.209302326ZM29.625 0.209302326C29.7102273 0.209302326 29.7954545 0.281976744 29.8214962 0.366763566L29.8295455 0.418604651 29.8295455 1.77906977C29.8295455 1.86627907 29.7585227 1.95348837 29.6756629 1.98013566L29.625 1.98837209 28.8409091 1.98837209C28.7556818 1.98837209 28.6704545 1.91569767 28.6444129 1.83091085L28.6363636 1.77906977 28.6363636 1.60465116C28.6363636 1.51744186 28.5653409 1.43023256 28.4824811 1.40358527L28.4318182 1.39534884 28.2613636 1.39534884C28.1761364 1.39534884 28.0909091 1.32267442 28.0648674 1.2378876L28.0568182 1.18604651 28.0568182 0.418604651C28.0568182 0.331395349 28.1278409 0.244186047 28.2107008 0.21753876L28.2613636 0.209302326 29.625 0.209302326ZM20.5909091 0.209302326C20.6761364 0.209302326 20.7613636 0.281976744 20.7874053 0.366763566L20.7954545 0.418604651 20.7954545 1.18604651C20.7954545 1.27325581 20.7244318 1.36046512 20.641572 1.3871124L20.5909091 1.39534884 18.8181818 1.39534884C18.7329545 1.39534884 18.6477273 1.32267442 18.6216856 1.2378876L18.6136364 1.18604651 18.6136364 0.418604651C18.6136364 0.331395349 18.6846591 0.244186047 18.7675189 0.21753876L18.8181818 0.209302326 20.5909091 0.209302326ZM6.44318182 0.209302326C6.52840909 0.209302326 6.61363636 0.281976744 6.63967803 0.366763566L6.64772727 0.418604651 6.64772727 1.18604651C6.64772727 1.27325581 6.57670455 1.36046512 6.4938447 1.3871124L6.44318182 1.39534884 4.67045455 1.39534884C4.58522727 1.39534884 4.5 1.32267442 4.47395833 1.2378876L4.46590909 1.18604651 4.46590909 0.418604651C4.46590909 0.331395349 4.53693182 0.244186047 4.61979167 0.21753876L4.67045455 0.209302326 6.44318182 0.209302326ZM15.8863636 0.209302326C15.9715909 0.209302326 16.0568182 0.281976744 16.0828598 0.366763566L16.0909091 0.418604651 16.0909091 1.18604651C16.0909091 1.27325581 16.0198864 1.36046512 15.9370265 1.3871124L15.8863636 1.39534884 14.1136364 1.39534884C14.0284091 1.39534884 13.9431818 1.32267442 13.9171402 1.2378876L13.9090909 1.18604651 13.9090909 0.418604651C13.9090909 0.331395349 13.9801136 0.244186047 14.0629735 0.21753876L14.1136364 0.209302326 15.8863636 0.209302326ZM11.1818182 0.209302326C11.2670455 0.209302326 11.3522727 0.281976744 11.3783144 0.366763566L11.3863636 0.418604651 11.3863636 1.18604651C11.3863636 1.27325581 11.3153409 1.36046512 11.2324811 1.3871124L11.1818182 1.39534884 9.40909091 1.39534884C9.32386364 1.39534884 9.23863636 1.32267442 9.2125947 1.2378876L9.20454545 1.18604651 9.20454545 0.418604651C9.20454545 0.331395349 9.27556818 0.244186047 9.35842803 0.21753876L9.40909091 0.209302326 11.1818182 0.209302326ZM25.3295455 0.209302326C25.4147727 0.209302326 25.5 0.281976744 25.5260417 0.366763566L25.5340909 0.418604651 25.5340909 1.18604651C25.5340909 1.27325581 25.4630682 1.36046512 25.3802083 1.3871124L25.3295455 1.39534884 23.5568182 1.39534884C23.4715909 1.39534884 23.3863636 1.32267442 23.360322 1.2378876L23.3522727 1.18604651 23.3522727 0.418604651C23.3522727 0.331395349 23.4232955 0.244186047 23.5061553 0.21753876L23.5568182 0.209302326 25.3295455 0.209302326Z"/>
	</svg>
	