<?xml version="1.0"?>
	<svg xmlns="http://www.w3.org/2000/svg" 
		width="30" 
		height="30" 
		viewbox="0 0 30 30" 
		code="80632" 
		 transform=""
		><path d="M24.9715 10.4035L23.159 8.591 25.884 5.890999999999999C26.371499999999997 5.403499999999999 26.371499999999997 4.6034999999999995 25.883999999999997 4.116 25.3965 3.628499999999999 24.5965 3.628499999999999 24.108999999999998 4.116L21.409 6.841 19.5965 5.0285C19.209 4.641 18.534 4.916 18.534 5.4785L18.534 10.841000000000001C18.534 11.191 18.808999999999997 11.466000000000001 19.159 11.466000000000001L24.5215 11.466C25.084 11.466 25.358999999999998 10.791 24.9715 10.4035L24.9715 10.4035ZM5.028499999999998 19.5965L6.840999999999998 21.409 4.116 24.108999999999998C3.628499999999999 24.5965 3.628499999999999 25.3965 4.116 25.884 4.6034999999999995 26.3715 5.403499999999999 26.371499999999997 5.890999999999999 25.884L8.591 23.159 10.4035 24.9715C10.790999999999999 25.358999999999998 11.466 25.084 11.466 24.5215L11.465999999999998 19.159C11.465999999999998 18.808999999999997 11.190999999999999 18.534 10.840999999999998 18.534L5.478499999999999 18.534C4.915999999999999 18.534 4.640999999999998 19.209 5.028499999999998 19.5965Z"/>
	</svg>
	