<?xml version="1.0"?>
	<svg xmlns="http://www.w3.org/2000/svg" 
		width="30" 
		height="30" 
		viewbox="0 0 30 30" 
		code="80624" 
		 transform=""
		><path d="M9.6 3L24.1028824 3C25.1975446 3 26.0939209 3.84883476 26.1697974 4.92551749L26.175 5.07369183 26.175 26.427603C26.175 27.5218583 25.3268096 28.4188618 24.2509442 28.4947935L24.1028824 28.5 9.6 28.5 9.6 3 24.1028824 3 9.6 3ZM15.5141275 11.3589657L15.0375569 11.636658 15.0450768 11.6496079C14.8761451 11.7768 14.7212824 11.934208 14.5894193 12.1133694 14.4662543 12.2845386 14.3726432 12.4542882 14.3033033 12.6309403 13.7361111 14.0445397 14.0443963 15.5579654 15.3664099 17.8537925 17.1938902 21.0271149 19.2579503 21.3774437 19.3472833 21.3914832 19.542528 21.4195079 19.7359628 21.4227835 19.939422 21.4004367 20.1581272 21.375976 20.3713583 21.3203301 20.5655163 21.2374909L20.5717587 21.2469856 21.0518497 20.9757705C21.399939 20.7737722 21.5257822 20.3357218 21.3325924 19.9989579L20.3588162 18.3076933C20.1645641 17.9719218 19.7232615 17.8622954 19.3751167 18.0639064L18.5242779 18.5562972 18.1808769 18.2209691C17.8557109 17.8953113 17.4686 17.4655032 17.1117271 16.8452388 16.7536845 16.2235543 16.575807 15.6715655 16.4567252 15.2258427L16.3391215 14.7631125 16.3391215 14.7631125 17.1908364 14.2704243C17.5395087 14.0685289 17.66499 13.6305412 17.4715633 13.2941661L16.497827 11.6027526C16.3043005 11.2667499 15.8627998 11.1570703 15.5141275 11.3589657Z"/>
	</svg>
	