<?xml version="1.0"?>
	<svg xmlns="http://www.w3.org/2000/svg" 
		width="30" 
		height="30" 
		viewbox="0 0 30 30" 
		code="80630" 
		 transform=""
		><path d="M29.2727273 6.5150994L29.2727273 28.2320974C29.2727273 29.0320068 28.5851472 29.6798973 27.7362356 29.6798973L11.603072983 29.6798973 11.603072983 5.0672995344 27.7362356 5.0672995344C28.5851472 5.0672995344 29.2727273 5.715189975 29.2727273 6.5150994ZM26.967989799999998 26.7842975C26.967989799999998 26.3861526 26.6222791 26.0603976 26.1997439 26.0603976L14.67605634 26.0603976C14.25352113 26.0603976 13.9078105 26.3861526 13.9078105 26.7842975 13.9078105 27.1824425 14.25352113 27.5081975 14.67605634 27.5081975L26.1997439 27.5081975C26.6222791 27.5081975 26.967989799999998 27.1824425 26.967989799999998 26.7842975ZM26.967989799999998 23.1647979C26.967989799999998 22.7666529 26.6222791 22.4408979 26.1997439 22.4408979L14.67605634 22.4408979C14.25352113 22.4408979 13.9078105 22.7666529 13.9078105 23.1647979 13.9078105 23.5629428 14.25352113 23.8886978 14.67605634 23.8886978L26.1997439 23.8886978C26.6222791 23.8886978 26.967989799999998 23.5629428 26.967989799999998 23.1647979ZM26.967989799999998 19.545298199999998C26.967989799999998 19.147153199999998 26.6222791 18.8213983 26.1997439 18.8213983L14.67605634 18.8213983C14.25352113 18.8213983 13.9078105 19.147153199999998 13.9078105 19.545298199999998 13.9078105 19.9434432 14.25352113 20.2691981 14.67605634 20.2691981L26.1997439 20.2691981C26.6222791 20.2691981 26.967989799999998 19.9434432 26.967989799999998 19.545298199999998ZM26.967989799999998 7.962899269999999C26.967989799999998 7.564754300000001 26.6222791 7.23899933 26.1997439 7.23899933L14.67605634 7.23899933C14.25352113 7.23899933 13.9078105 7.564754300000001 13.9078105 7.962899269999999L13.9078105 15.9257985C13.9078105 16.3239435 14.25352113 16.6496985 14.67605634 16.6496985L26.1997439 16.6496985C26.6222791 16.6496985 26.967989799999998 16.3239435 26.967989799999998 15.9257985L26.967989799999998 7.962899269999999ZM15.444302180000001 15.2018986L25.4314981 15.2018986 25.4314981 8.6867992 15.444302180000001 8.6867992 15.444302180000001 15.2018986Z"/>
	</svg>
	