<?xml version="1.0"?>
	<svg xmlns="http://www.w3.org/2000/svg" 
		width="30" 
		height="30" 
		viewbox="0 0 30 30" 
		code="80631" 
		 transform=""
		><path d="M17.4916773-6.03961325e-14L10.45838668 3.70998716C10.45070423 3.71722616 10.44302177 3.72446516 10.43533931 3.72808466 10.41229193 3.74256266 10.38924456 3.75704065 10.36619718 3.77151865 10.34699104 3.78599665 10.33162612 3.80047465 10.31241997 3.81495265 10.29321383 3.83305015 10.27784891 3.84752815 10.26248399 3.86562564 10.24327785 3.88372314 10.22791293 3.90182064 10.21254802 3.91991814L10.21254802 3.91991814 10.17413572 3.97783013C10.16261204 3.99954713 10.15108835 4.01764463 10.13956466 4.03936163 10.12804097 4.06107863 10.12035851 4.08279562 10.11267606 4.10451262L10.11267606 4.10451262 10.08962868 4.17328312C10.08578745 4.19500011 10.08194622 4.21671711 10.07810499 4.23843411 10.07426376 4.26377061 10.07042254 4.28910711 10.07042254 4.3144436 10.07042254 4.3253021 10.06658131 4.3325411 10.06658131 4.3433996L10.06658131 4.3433996 10.06658131 24.6125977 3.53649168 24.6125977C2.687580026 24.6125977 2.0000000000001137 23.9647073 2.0000000000001137 23.1647979L2.0000000000001137 23.1647979 2.0000000000001137 1.44779987C2.0000000000001137 0.64789044 2.687580026-6.03961325e-14 3.53649168-6.03961325e-14L3.53649168-6.03961325e-14 17.4916773-6.03961325e-14ZM19.6696543 0.510349453L19.6696543 3.61949967 13.7772087 3.61949967 19.6696543 0.510349453Z"/>
	</svg>
	