<?xml version="1.0"?>
	<svg xmlns="http://www.w3.org/2000/svg" 
		width="30" 
		height="30" 
		viewbox="0 0 30 30" 
		code="80634" 
		 transform=""
		><path d="M30 12.0265487L30 21.6769912C30 24.5000001 28.5115045 26.0701918 25.7503452 26.1717345L25.460177 26.1769912 4.52654868 26.1769912C1.6778761 26.1769912 0.106828908 24.7133039 0.00525762044 21.9657891L0 21.6769912 0 12.0265487 30 12.0265487ZM9.14601771 14.880531L5.89380532 14.880531C5.16656133 14.880531 4.6682319 15.3269144 4.60075241 15.9858614L4.59292036 16.141593 4.59292036 18.6106196C4.59292036 19.300885 5.03930378 19.796573 5.73013527 19.8638638L5.89380532 19.8716814 9.14601771 19.8716814C9.87326171 19.8716814 10.3715911 19.425298 10.4390706 18.7663511L10.4469027 18.6106196 10.4469027 16.141593C10.4469027 15.3982301 9.92920356 14.880531 9.14601771 14.880531ZM4.52654868 3L25.460177 3C28.3088496 3 29.8923009 4.46368732 29.9946991 7.19921141L30 7.48672567 30 8.84070797 0 8.84070797 0 7.48672567C0 4.66371682 1.47609144 3.1059292 4.2364238 3.00521337L4.52654868 3 25.460177 3 4.52654868 3Z"/>
	</svg>
	