<?xml version="1.0"?>
	<svg xmlns="http://www.w3.org/2000/svg" 
		width="30" 
		height="30" 
		viewbox="0 0 30 30" 
		code="80639" 
		 transform=""
		><path d="M14.2417279 0C22.0588235 0 28.5248162 6.45220588 28.5248162 14.2693015 28.5248162 22.0726103 22.0726103 28.5248162 14.2555147 28.5248162 6.45220588 28.5248162 0 22.0726103 0 14.2693015 0 6.45220588 6.43841912 0 14.2417279 0ZM14.2417279 2.85386029C7.92738971 2.85386029 2.86764706 7.94117647 2.86764706 14.2693015 2.86764706 20.5836397 7.92738971 25.6709559 14.2555147 25.6709559 20.5836397 25.6709559 25.6847426 20.5836397 25.6710115 14.2693015 25.6571691 7.94117647 20.5698529 2.85386029 14.2417279 2.85386029ZM18.0193015 17.1369485C18.9154412 17.1369485 19.8391544 16.9577206 20.3768382 16.7509191 20.5560662 16.6957721 20.6663603 16.6681985 20.7904412 16.6681985 21.0248162 16.6681985 21.2454044 16.8612132 21.2454044 17.1507353 21.2454044 17.2334559 21.2316176 17.4264706 21.1488971 17.6194853 20.1424632 20.0735294 17.4126838 22.0036765 14.2417279 22.0036765 9.89889706 22.0036765 6.57628676 18.8740809 6.57628676 14.5036765 6.57628676 11.4016544 8.42371324 8.45128676 11.1810662 7.36213235 11.3740809 7.29319853 11.5533088 7.265625 11.6636029 7.265625 11.953125 7.265625 12.1185662 7.5 12.1185662 7.72058824 12.1185662 7.79296875 12.1108111 7.88861443 12.0720358 8.00752528L12.0220588 8.13419118C11.7738971 8.75459559 11.5533088 9.88511029 11.5533088 10.7536765 11.5533088 14.6829044 14.0762868 17.1369485 18.0193015 17.1369485Z"/>
	</svg>
	