<?xml version="1.0"?>
	<svg xmlns="http://www.w3.org/2000/svg" 
		width="30" 
		height="30" 
		viewbox="0 0 30 30" 
		code="80643" 
		 transform=""
		><path d="M0 27L0 21.00099127C0.00263100505 22.6332247 6.50139667 23.9566907 14.6004188 23.9989585L15 24C23.1517971 24 29.7829924 22.7023437 29.9947813 21.08004274L30 21 30 27C30 28.5791529 23.919509 29.8695226 16.1911078 29.9906998L15 30 14.2032604 29.9958494C6.4202712 29.9145588 0.21006369 28.6491535 0.00521871433 27.0800427L0 27 0 21.00099127 0 27ZM30 12.000000000000002L30 18C30 19.65944882 23.2854331 21 15 21L14.2032604 20.99584943C6.4202712 20.914558800000002 0.21006369 19.64915347 0.00521871433 18.08004274L0 18 0 12.000000000000002C0 13.65944882 6.71456693 15 15 15L15.7967396 14.99584943C23.5797288 14.9145588 29.7899363 13.64915347 29.9947813 12.0800427443L30 12.000000000000002Z"/>
	</svg>
	