<?xml version="1.0"?>
	<svg xmlns="http://www.w3.org/2000/svg" 
		width="30" 
		height="30" 
		viewbox="0 0 30 30" 
		code="80658" 
		 transform=""
		><path d="M14.3777599 29.7452446C6.4733356 29.7452446 0 23.271909 0 15.3674847 0 11.555706520000001 1.51133662 8.07829484 3.82515285 5.68423064 5.92497452 3.4239130429999998 9.32213825 6.0052224899999995 7.04844599 8.546407949999999 5.38998811 10.325237770000001 4.36013927 12.71930197 4.36013927 15.3674847 4.36013927 20.9045941 8.84065048 25.3851053 14.3777599 25.3851053 19.9148692 25.3851053 24.3953804 20.9045941 24.3953804 15.3674847 24.3953804 12.71930197 23.3655316 10.325237770000001 21.7070737 8.546407949999999 19.4333815 6.0052224899999995 22.8305452 3.4239130429999998 24.9303668 5.68423064 27.2441831 8.07829484 28.7555197 11.555706520000001 28.7555197 15.3674847 28.7555197 23.271909 22.2821841 29.7452446 14.3777599 29.7452446Z"/>
	</svg>
	