<?xml version="1.0"?>
	<svg xmlns="http://www.w3.org/2000/svg" 
		width="30" 
		height="30" 
		viewbox="0 0 30 30" 
		code="80660" 
		 transform=""
		><path d="M9.8 20.2C10.4066667 20.8066667 10.4471111 21.7762963 9.92133333 22.431358L9.8 22.5666667 6.16666667 26.1666667 8.58333333 28.5833333C9.06960784 29.0696078 8.77341407 29.8954441 8.11160526 29.9909187L7.98333333 30 0.833333333 30C0.409090909 30 0.0674931129 29.6969697 0.00889055848 29.2912597L0 29.1666667 0 22.0166667C0 21.3107843 0.797231834 20.9444637 1.32177217 21.334558L1.41666667 21.4166667 3.83333333 23.8333333 7.43333333 20.2C8.08333333 19.55 9.15 19.55 9.8 20.2ZM29.1666667 8.8817842e-16C29.5909091 8.8817842e-16 29.9325069 0.303030303 29.9911094 0.708740296L30 0.833333333 30 7.98333333C30 8.68921569 29.2027682 9.05553633 28.6782278 8.66544202L28.5833333 8.58333333 26.1666667 6.16666667 22.5666667 9.8C21.9166667 10.45 20.85 10.45 20.2 9.8 19.5933333 9.19333333 19.5528889 8.2237037 20.0786667 7.56864198L20.2 7.43333333 23.8333333 3.83333333 21.4166667 1.41666667C20.9303922 0.930392157 21.2265859 0.10455594 21.8883947 0.0090813488L22.0166667 8.8817842e-16 29.1666667 8.8817842e-16Z"/>
	</svg>
	