<?xml version="1.0"?>
	<svg xmlns="http://www.w3.org/2000/svg" 
		width="30" 
		height="30" 
		viewbox="0 0 30 30" 
		code="80661" 
		 transform=""
		><path d="M22.431358 20.0786667L22.5666667 20.2 26.1666667 23.8333333 28.5833333 21.4166667C29.0696078 20.9303922 29.8954441 21.2265859 29.9909187 21.8883947L30 22.0166667 30 29.1666667C30 29.5909091 29.6969697 29.9325069 29.2912597 29.9911094L29.1666667 30 22.0166667 30C21.3107843 30 20.9444637 29.2027682 21.334558 28.6782278L21.4166667 28.5833333 23.8333333 26.1666667 20.2 22.5666667C19.55 21.9166667 19.55 20.85 20.2 20.2 20.8066667 19.5933333 21.7762963 19.5528889 22.431358 20.0786667ZM7.98333333 0C8.68921569 0 9.05553633 0.797231834 8.66544202 1.32177217L8.58333333 1.41666667 6.16666667 3.83333333 9.8 7.43333333C10.45 8.08333333 10.45 9.15 9.8 9.8 9.19333333 10.4066667 8.2237037 10.4471111 7.56864198 9.92133333L7.43333333 9.8 3.83333333 6.16666667 1.41666667 8.58333333C0.930392157 9.06960784 0.10455594 8.77341407 0.0090813488 8.11160526L8.8817842e-16 7.98333333 8.8817842e-16 0.833333333C8.8817842e-16 0.409090909 0.303030303 0.0674931129 0.708740296 0.00889055848L0.833333333 0 7.98333333 0Z"/>
	</svg>
	