<?xml version="1.0"?>
	<svg xmlns="http://www.w3.org/2000/svg" 
		width="30" 
		height="30" 
		viewbox="0 0 30 30" 
		code="80666" 
		 transform=""
		><path d="M29.6354167 13.33333333C29.8784725 13.71527751 30 14.13194418 30 14.58333333 30 15.0347225 29.8784725 15.4513892 29.6354167 15.8333333 28.1423608 18.3680558 26.1111108 20.3819442 23.5416667 21.875 20.9375 23.4027775 18.0902775 24.1666667 15 24.1666667 11.9097225 24.1666667 9.0625 23.4027775 6.45833333 21.875 3.88888915 20.3819442 1.85763915 18.3680558 0.364583333 15.8333333 0.121527513 15.4513892 0 15.0347225 0 14.58333333 0 14.13194418 0.121527513 13.71527751 0.364583333 13.33333333 1.85763915 10.79861085 3.88888915 8.78472249 6.45833333 7.29166667 9.0625 5.763889154 11.9097225 4.9999999999996945 15 4.9999999999996945 18.0902775 4.9999999999996945 20.9375 5.763889154 23.5416667 7.29166667 26.1111108 8.78472249 28.1423608 10.79861085 29.6354167 13.33333333ZM15 21.6666667C16.2847225 21.6666667 17.4652775 21.3454858 18.5416667 20.703125 19.6180558 20.0607642 20.4774308 19.2013892 21.1197917 18.125 21.7621525 17.0486108 22.0833333 15.8680558 22.0833333 14.58333333 22.0833333 13.29861085 21.7621525 12.11805582 21.1197917 11.04166667 20.4774308 9.96527751 19.6180558 9.10590251 18.5416667 8.46354167 17.4652775 7.82118082 16.2847225 7.5 15 7.5 13.7152775 7.5 12.5347225 7.82118082 11.4583333 8.46354167 10.3819442 9.10590251 9.52256918 9.96527751 8.88020833 11.04166667 8.23784749 12.11805582 7.91666667 13.29861085 7.91666667 14.58333333 7.91666667 15.8680558 8.23784749 17.0486108 8.88020833 18.125 9.52256918 19.2013892 10.3819442 20.0607642 11.4583333 20.703125 12.5347225 21.3454858 13.7152775 21.6666667 15 21.6666667Z"/>
	</svg>
	