<?xml version="1.0"?>
	<svg xmlns="http://www.w3.org/2000/svg" 
		width="30" 
		height="30" 
		viewbox="0 0 30 30" 
		code="80667" 
		 transform=""
		><path d="M20.4166667 14.58333333C20.4166667 16.07638915 19.8871525 17.352430820000002 18.828125 18.411458330000002 17.76909749 19.4704858 16.493055820000002 20 15 20 13.50694418 20 12.23090251 19.4704858 11.171875 18.411458330000002 10.11284749 17.352430820000002 9.583333333 16.07638915 9.583333333 14.58333333 9.583333333 13.68055582 9.791666667 12.82986085 10.20833333 12.03125 10.20833333 12.65625 10.42534749 13.18576415 10.859375 13.61979167 11.29340251 14.05381918 11.82291667 14.27083333 12.44791667 14.27083333 13.07291667 14.27083333 13.60243082 14.05381918 14.03645833 13.61979167 14.47048585 13.18576415 14.6875 12.65625 14.6875 12.03125 14.6875 11.40625 14.47048585 10.87673585 14.03645833 10.44270833 13.60243082 10.00868082 13.07291667 9.791666667 12.44791667 9.791666667 13.24652751 9.375 14.09722249 9.166666667 15 9.166666667 16.493055820000002 9.166666667 17.76909749 9.69618082 18.828125 10.75520833 19.8871525 11.81423585 20.4166667 13.09027751 20.4166667 14.58333333Z"/>
	</svg>
	