<?xml version="1.0"?>
	<svg xmlns="http://www.w3.org/2000/svg" 
		width="30" 
		height="30" 
		viewbox="0 0 30 30" 
		code="80668" 
		 transform=""
		><path d="M8.59 13.23C7.75 13.09 7 13.780000000000001 7 14.629999999999999 7 15.34 7.53 15.91 8.23 16.03 11.15 16.54 13.45 18.85 13.969999999999999 21.77 14.09 22.47 14.66 23 15.37 23 16.22 23 16.91 22.25 16.78 21.41 16.1 17.21 12.79 13.9 8.59 13.23L8.59 13.23ZM8.56 7.52C7.73 7.43 7 8.1 7 8.93 7 9.66 7.55 10.26 8.27 10.33 14.280000000000001 10.93 19.060000000000002 15.71 19.66 21.72 19.73 22.45 20.33 23 21.060000000000002 23 21.9 23 22.560000000000002 22.27 22.48 21.439999999999998 21.75 14.1 15.91 8.25 8.56 7.52Z"/>
	</svg>
	