<?xml version="1.0"?>
	<svg xmlns="http://www.w3.org/2000/svg" 
		width="30" 
		height="30" 
		viewbox="0 0 30 30" 
		code="80672" 
		 transform=""
		><path d="M0.974025974 28.2727273C0.436086283 28.2727273 0 27.836641 0 27.2987013 0 26.7607616 0.436086283 26.3246753 0.974025974 26.3246753L3.896 26.324 3.896 2.948 0.974025974 2.94805195C0.436086283 2.94805195 0 2.51196567 0 1.974025974 0 1.436086283 0.436086283 1 0.974025974 1L8.76623377 1C9.30417346 1 9.74025974 1.436086283 9.74025974 1.974025974 9.74025974 2.51196567 9.30417346 2.94805195 8.76623377 2.94805195L5.844 2.948 5.844 26.324 8.76623377 26.3246753C9.30417346 26.3246753 9.74025974 26.7607616 9.74025974 27.2987013 9.74025974 27.836641 9.30417346 28.2727273 8.76623377 28.2727273L0.974025974 28.2727273Z"/>
	</svg>
	