<?xml version="1.0"?>
	<svg xmlns="http://www.w3.org/2000/svg" 
		width="30" 
		height="30" 
		viewbox="0 0 30 30" 
		code="80681" 
		 transform=""
		><path d="M20.9003906 22.4992855L22.433376 20.9663001C22.8796583 20.5200179 23.5831574 20.4881406 24.0661849 20.8706682L24.1735216 20.9663001 24.8364342 21.6292128C25.2827165 22.075495 25.3145938 22.7789941 24.9320661 23.2620216L24.8364342 23.3693583 23.3034488 24.9023437 24.8364342 26.4353292C25.2827165 26.8816114 25.3145938 27.5851105 24.9320661 28.068138L24.8364342 28.1754747 24.1735216 28.8383874C23.7272394 29.2846696 23.0237403 29.3165469 22.5407128 28.9340193L22.433376 28.8383874 20.9003906 27.305402 19.3674052 28.8383874C18.921123 29.2846696 18.2176239 29.3165469 17.7345964 28.9340193L17.6272596 28.8383874 16.964347 28.1754747C16.5180648 27.7291925 16.4861875 27.0256934 16.8687151 26.5426659L16.964347 26.4353292 18.4973324 24.9023437 16.964347 23.3693583C16.5180648 22.9230761 16.4861875 22.219577 16.8687151 21.7365495L16.964347 21.6292128 17.6272596 20.9663001C18.0735419 20.5200179 18.777041 20.4881406 19.2600685 20.8706682L19.3674052 20.9663001 20.9003906 22.4992855 22.433376 20.9663001 20.9003906 22.4992855Z"/>
	</svg>
	