<?xml version="1.0"?>
	<svg xmlns="http://www.w3.org/2000/svg" 
		width="30" 
		height="30" 
		viewbox="0 0 30 30" 
		code="80678" 
		 transform=""
		><path d="M19.7929688 0L3.99609375 0C3.4453125 0 3 0.4453125 3 0.99609375L3 29.0039062C3 29.5546875 3.4453125 30 3.99609375 30L11.00976562 30C11.56054688 30 12.00585938 29.5546875 12.00585938 29.0039062L12.00585938 27.7792969C12.00585938 27.2285156 11.56054688 26.7832031 11.00976562 26.7832031L7.39453125 26.7832031C6.84375 26.7832031 6.3984375 26.3378906 6.3984375 25.7871094L6.3984375 4.57617188C6.3984375 4.02539063 6.84375 3.58007813 7.39453125 3.58007813L15.8085937 3.58007813C16.359375 3.58007813 16.8046875 4.02539063 16.8046875 4.57617188L16.8046875 9.19921875 21.609375 9.19921875C22.1601562 9.19921875 22.6054687 9.64453125 22.6054687 10.1953125L22.6054687 15.0117188C22.6054687 15.5625 23.0507812 16.0078125 23.6015625 16.0078125L25.0136719 16.0078125C25.5644531 16.0078125 26.0097656 15.5625 26.0097656 15.0117188L26.0097656 6.2109375C26.0097656 5.94726562 25.9042969 5.6953125 25.7167969 5.5078125L20.4960938 0.29296875C20.3085938 0.10546875 20.0566406 0 19.7929688 0Z"/>
	</svg>
	