<?xml version="1.0"?>
	<svg xmlns="http://www.w3.org/2000/svg" 
		width="30" 
		height="30" 
		viewbox="0 0 30 30" 
		code="80695" 
		 transform=""
		><path d="M12.5 4.000000000000001C13.6045695 4.000000000000001 14.5 4.8954305 14.5 6L14.5 8.498999999999999 25 8.5C26.1045695 8.5 27 9.3954305 27 10.5L27 23.25C27 24.3545695 26.1045695 25.25 25 25.25L4 25.25C2.8954305 25.25 2.0000000000000013 24.3545695 2 23.25L2 10.5 2 6C1.9999999999999998 4.8954305 2.8954305 4.000000000000001 4 4.000000000000001L12.5 4.000000000000001ZM18.4666667 16.466666699999998L11.53333333 16.466666699999998C11.23878147 16.466666699999998 11 16.705448099999998 11 17 11 17.2650967 11.19341299 17.485019299999998 11.4468239 17.5263529L11.53333333 17.533333300000002 18.4666667 17.533333300000002C18.7612185 17.533333300000002 19 17.294551900000002 19 17 19 16.705448099999998 18.7612185 16.466666699999998 18.4666667 16.466666699999998Z"/>
	</svg>
	