<?xml version="1.0"?>
	<svg xmlns="http://www.w3.org/2000/svg" 
		width="30" 
		height="30" 
		viewbox="0 0 30 30" 
		code="80696" 
		 transform=""
		><path d="M27.8571429 6.42857143L24.045 6.42857143C25.0714286 5.28857143 25.7142857 3.79714286 25.7142857 2.14285714L25.7142857 0 19.2857143 0C16.9178571 0 15 1.91785714 15 4.28571429 15 1.91785714 13.0821429 0 10.7142857 0L4.28571429 0 4.28571429 2.14285714C4.28571429 3.79714286 4.92857143 5.28857143 5.955 6.42857143L2.14285714 6.42857143C0.96 6.42857143 0 7.38857143 0 8.57142857L0 12.8571429 30 12.8571429 30 8.57142857C30 7.38857143 29.04 6.42857143 27.8571429 6.42857143ZM12.8571429 6.42857143L10.7142857 6.42857143C8.35071429 6.42857143 6.42857143 4.50642857 6.42857143 2.14285714L10.7142857 2.14285714C11.895 2.14285714 12.8571429 3.105 12.8571429 4.28571429L12.8571429 6.42857143ZM19.2857143 6.42857143L17.1428571 6.42857143 17.1428571 4.28571429C17.1428571 3.105 18.105 2.14285714 19.2857143 2.14285714L23.5714286 2.14285714C23.5714286 4.50642857 21.6492857 6.42857143 19.2857143 6.42857143Z"/>
	</svg>
	