<?xml version="1.0"?>
	<svg xmlns="http://www.w3.org/2000/svg" 
		width="30" 
		height="30" 
		viewbox="0 0 30 30" 
		code="80700" 
		 transform=""
		><path d="M29.3338816 20.2625L29.3338816 22.4C29.3338816 25.0666667 27.9651705 26.5461892 25.3739693 26.6334085L25.1274671 26.6375 21.0444079 26.6375 21.0444079 20.2625 29.3338816 20.2625ZM8.28947368 20.2625L8.28947368 26.6375 4.20641447 26.6375C1.46792763 26.6375 0 25.1625 0 22.4L0 20.2625 8.28947368 20.2625ZM18.6143092 11.8375L18.6143092 17.8 10.7195724 17.8 10.7195724 11.8375 18.6143092 11.8375ZM25.1274671 3C27.7949312 3 29.2444745 4.38696051 29.3298761 6.97851796L29.3338816 7.225 29.3338816 9.375 21.0444079 9.375 21.0444079 3 25.1274671 3ZM8.28947368 3L8.28947368 9.375 0 9.375 0 7.225C0 4.55833333 1.38031028 3.09056474 3.96096678 3.0040578L4.20641447 3 8.28947368 3Z"/>
	</svg>
	