<?xml version="1.0"?>
	<svg xmlns="http://www.w3.org/2000/svg" 
		width="30" 
		height="30" 
		viewbox="0 0 30 30" 
		code="80702" 
		 transform=""
		><path d="M5.78506098 16.4836426C7.19988567 16.4836426 8.32388529 16.9025879 9.18850038 17.4746094 7.47336424 18.8592403 6.57157004 21.1751844 7.26841347 22.4427537L7.34922828 22.5744629 1.45412538 22.5744629C0.39300686 22.5744629 0 22.1152344 0 21.317627 0 19.1342773 2.27157965 16.4836426 5.78506098 16.4836426ZM23.9734184 16.4836426C27.4790396 16.4836426 29.7506193 19.1342773 29.7506193 21.317627 29.7506193 22.0709229 29.4000669 22.5223931 28.4672079 22.5702315L28.2964939 22.5744629 22.4092511 22.5744629C23.2502858 21.3417969 22.3385099 18.9086914 20.5621189 17.4746094 21.426734 16.9025879 22.5507336 16.4836426 23.9734184 16.4836426ZM5.78506098 9.09570312C7.27062691 9.09570312 8.55182927 10.4089355 8.55182927 12.1330566 8.55182927 13.8894043 7.28634718 15.2590332 5.78506098 15.2590332 4.29163491 15.2590332 3.02604587 13.8894043 3.02604587 12.1491699 3.01829268 10.4331055 4.29949505 9.09570312 5.78506098 9.09570312ZM23.9655583 9.09570312C25.4511242 9.09570312 26.7323266 10.4331055 26.7323266 12.1491699 26.7323266 13.8894043 25.4589844 15.2590332 23.9655583 15.2590332 22.4721322 15.2590332 21.2066502 13.8894043 21.2066502 12.1330566 21.2066502 10.4089355 22.4799924 9.09570312 23.9655583 9.09570312Z"/>
	</svg>
	