<?xml version="1.0"?>
	<svg xmlns="http://www.w3.org/2000/svg" 
		width="30" 
		height="30" 
		viewbox="0 0 30 30" 
		code="80709" 
		 transform=""
		><path d="M13.5 13.5L15 13.5C15.7792941 13.5 16.4204014 14.0939377 16.4931292 14.8553723L16.5 15 16.5 19.5C17.328 19.5 18 20.1705 18 21 18 21.7807059 17.4047336 22.4205675 16.6443932 22.4931439L16.5 22.5 15 22.5C14.2207059 22.5 13.5795986 21.9060623 13.5068708 21.1446277L13.5 21 13.5 16.5C12.672 16.5 12 15.8295 12 15 12 14.2192941 12.5952664 13.5794325 13.3556068 13.5068561L13.5 13.5 15 13.5 13.5 13.5ZM15 7.3509C15.9105 7.3509 16.65 8.0889 16.65 8.9994 16.65 9.9114 15.9105 10.6494 15 10.6494 14.0895 10.6494 13.35 9.9114 13.35 8.9994 13.35 8.0889 14.0895 7.3509 15 7.3509Z"/>
	</svg>
	