<?xml version="1.0"?>
	<svg xmlns="http://www.w3.org/2000/svg" 
		width="30" 
		height="30" 
		viewbox="0 0 30 30" 
		code="80718" 
		 transform=""
		><path d="M25.8596342 13.7801307L21.0032622 18.6592036C18.3227655 21.354824 13.9743409 21.354824 11.2938442 18.6592036 10.871404 18.2363147 10.5411765 17.7595133 10.2511278 17.2675626L12.5075214 14.999845C12.6148078 14.8911576 12.7472529 14.8288348 12.8737972 14.7555679 13.0296843 15.2913494 13.3020844 15.7984495 13.7211987 16.2196132 15.0597573 17.5657521 17.2382074 17.5640809 18.5759077 16.2196132L23.4306167 11.3405403C24.7700336 9.9944014 24.7700336 7.80588112 23.4306167 6.4606048 22.0928628 5.11532849 19.9153246 5.11532849 18.5759077 6.4606048L16.8492406 8.19760867C15.4486705 7.64921166 13.9390974 7.50181514 12.4697566 7.71827346L16.1484996 4.02106835C18.8306592 1.32631055 23.1774208 1.32631055 25.8595805 4.02106835 28.5401309 6.71593397 28.5401309 11.0853729 25.8596342 13.7801307Z"/>
	</svg>
	