<?xml version="1.0"?>
	<svg xmlns="http://www.w3.org/2000/svg" 
		width="30" 
		height="30" 
		viewbox="0 0 30 30" 
		code="80723" 
		 transform=""
		><path d="M5 18.75L7.5 18.75C8.14453125 18.75 8.67919922 19.2443848 8.74351501 19.8726654L8.75 20 8.75 22.5C8.75 23.1445313 8.25561523 23.6791992 7.62733459 23.743515L7.5 23.75 5 23.75C4.35546875 23.75 3.82080078 23.2556152 3.75648499 22.6273346L3.75 22.5 3.75 20C3.75 19.3554688 4.24438477 18.8208008 4.87266541 18.756485L5 18.75ZM5 12.5L7.5 12.5C8.14453125 12.5 8.67919922 12.9943848 8.74351501 13.6226654L8.75 13.75 8.75 16.25C8.75 16.8945312 8.25561523 17.4291992 7.62733459 17.493515L7.5 17.5 5 17.5C4.35546875 17.5 3.82080078 17.0056152 3.75648499 16.3773346L3.75 16.25 3.75 13.75C3.75 13.1054688 4.24438477 12.5708008 4.87266541 12.506485L5 12.5ZM5 6.25L7.5 6.25C8.14453125 6.25 8.67919922 6.74438477 8.74351501 7.37266541L8.75 7.5 8.75 10C8.75 10.6445313 8.25561523 11.1791992 7.62733459 11.243515L7.5 11.25 5 11.25C4.35546875 11.25 3.82080078 10.7556152 3.75648499 10.1273346L3.75 10 3.75 7.5C3.75 6.85546875 4.24438477 6.32080078 4.87266541 6.25648499L5 6.25 7.5 6.25 5 6.25Z"/>
	</svg>
	