<?xml version="1.0"?>
	<svg xmlns="http://www.w3.org/2000/svg" 
		width="30" 
		height="30" 
		viewbox="0 0 30 30" 
		code="80727" 
		 transform=""
		><path d="M15.28125 1.77635684e-15C19.0465376 1.77635684e-15 22.0994318 3.05289418 22.0994318 6.81818182 22.0994318 8.63370028 19.7556818 14.3155185 15.0681818 23.8636364L14.1885472 21.9170361C10.3715612 13.414352 8.46306818 8.38140062 8.46306818 6.81818182 8.46306818 3.05289418 11.5159624 1.77635684e-15 15.28125 1.77635684e-15ZM15.0681818 3.40909091C13.1855114 3.40909091 11.6590909 4.93551136 11.6590909 6.81818182 11.6590909 8.70085227 13.1855114 10.2272727 15.0681818 10.2272727 16.9508523 10.2272727 18.4772727 8.70085227 18.4772727 6.81818182 18.4772727 4.93551136 16.9508523 3.40909091 15.0681818 3.40909091Z"/>
	</svg>
	