<?xml version="1.0"?>
	<svg xmlns="http://www.w3.org/2000/svg" 
		width="30" 
		height="30" 
		viewbox="0 0 30 30" 
		code="80729" 
		 transform=""
		><path d="M10.7090909 12.7272727C10.7090961 12.9955418 10.4925063 13.2134852 10.2242424 13.2151515L8.08484848 13.2151515C7.81540047 13.2151515 7.5969697 12.9967207 7.5969697 12.7272727L7.5969697 8.00606061C7.54165532 5.21706934 8.99791552 2.61593426 11.4044554 1.20522605 13.8109953-0.205482168 16.792035-0.205482168 19.1985749 1.20522605 21.6051148 2.61593426 23.061375 5.21706934 23.0060606 8.00606061L23.0060606 12.7272727C23.0060658 12.9955418 22.789476 13.2134852 22.5212121 13.2151515L20.3818182 13.2151515C20.1123702 13.2151515 19.8939394 12.9967207 19.8939394 12.7272727L19.8939394 8.04242424C19.942896 6.3740874 19.0831426 4.81044924 17.648173 3.95803689 16.2132034 3.10562453 14.4288014 3.09855993 12.9871273 3.93958339 11.5454533 4.78060685 10.6733458 6.33738842 10.7090909 8.00606061L10.7090909 12.7272727Z"/>
	</svg>
	