<?xml version="1.0"?>
	<svg xmlns="http://www.w3.org/2000/svg" 
		width="30" 
		height="30" 
		viewbox="0 0 30 30" 
		code="80730" 
		 transform=""
		><path d="M14.6363636 3.33314096L14.6363636 0.729504601C14.6363636 0.0749591461 13.8509091-0.245040854 13.4 0.220413692L9.32727273 4.27859551C9.03636364 4.5695046 9.03636364 5.02041369 9.32727273 5.31132278L13.3854545 9.3695046C13.8509091 9.82041369 14.6363636 9.50041369 14.6363636 8.84586824L14.6363636 6.24223187C19.4509091 6.24223187 23.3636364 10.1549591 23.3636364 14.9695046 23.3636364 16.1185955 23.1454545 17.2385955 22.7236364 18.2422319 22.5054545 18.7658682 22.6654545 19.3622319 23.0581818 19.7549591 23.8 20.4967773 25.0509091 20.2349591 25.4436364 19.2604137 25.9818182 17.9367773 26.2727273 16.4822319 26.2727273 14.9695046 26.2727273 8.54041369 21.0654545 3.33314096 14.6363636 3.33314096Z"/>
	</svg>
	