<?xml version="1.0"?>
	<svg xmlns="http://www.w3.org/2000/svg" 
		width="30" 
		height="30" 
		viewbox="0 0 30 30" 
		code="80733" 
		 transform=""
		><path d="M16.5891883 15.2973459C16.9951247 15.0027713 17.526196 14.9617625 17.9560098 15.1984549L18.0705511 15.2699107 19.308919 16.1281548 16.5500087 18.8753208 17.7374287 20.058842 17.6815983 20.1847287 17.6815983 20.1847287 17.6316341 20.3135574 16.0836564 21.766576 17.0633861 25.4895489 17.6316341 25.7020709 17.6815983 25.8309116 17.6815983 25.8309116 17.7374286 25.9568102 16.8948754 27.1873325 2.28905695 27.1873325C0.95942805 27.24602 0.97317472 25.5340319 1.0109119 24.9133048L1.02325378 24.741931 1.02325378 19.1888296C1.02325378 18.8195812 1.18117473 18.4689106 1.45572417 18.2304062L1.56406651 18.1464077 5.70244395 15.2699107C6.14920647 14.9564019 6.74094312 14.9759917 7.18378288 15.2973459 8.5554045 16.2849212 10.1660984 16.8531453 11.8864856 16.8531453 13.6068967 16.8531453 15.2175667 16.2849212 16.5891883 15.2973459ZM11.8887579 6.38600284e-13C15.1541809 6.38600284e-13 17.8013407 2.01842022 17.8013407 6.17538286 17.8013407 10.3323455 15.1541809 13.7022235 11.8887579 13.7022235 8.62331106 13.7022235 5.9761512 10.3323455 5.9761512 6.17538286 5.9761512 2.01842026 8.6233111 6.38600284e-13 11.8887579 6.38600284e-13Z"/>
	</svg>
	