<?xml version="1.0"?>
	<svg xmlns="http://www.w3.org/2000/svg" 
		width="30" 
		height="30" 
		viewbox="0 0 30 30" 
		code="80737" 
		 transform=""
		><path d="M5.26086957 3.91304348L24.826087 3.91304348C26.5546344 3.91304348 27.9851565 5.26191999 28.0817579 6.94043199L28.0869565 7.12148749 28.0869565 11.034531C28.0869565 9.27303229 26.6163683 7.82608696 24.826087 7.82608696L5.26086957 7.82608696C3.47058824 7.82608696 2 9.27303229 2 11.034531L2 7.12148749C2 5.42073015 3.37091698 4.01320683 5.07685564 3.91815857L5.26086957 3.91304348ZM5.26086957 3.79696274e-13L24.826087 3.79696274e-13C26.5546344 3.79696274e-13 27.9851565 1.34887651 28.0817579 3.02738851L28.0869565 3.20844401 28.0869565 5.81713966C28.0869565 4.05564099 26.6163683 2.60869565 24.826087 2.60869565L5.26086957 2.60869565C3.47058824 2.60869565 2 4.05564099 2 5.81713966L2 3.20844401C2 1.50768667 3.37091698 0.100163357 5.07685564 0.00511508682L5.26086957 3.79696274e-13Z"/>
	</svg>
	