<?xml version="1.0"?>
	<svg xmlns="http://www.w3.org/2000/svg" 
		width="30" 
		height="30" 
		viewbox="0 0 30 30" 
		code="80736" 
		 transform=""
		><path d="M24.826087 9.13043478L5.26086957 9.13043478C3.47058824 9.13043478 2 10.601023 2 12.3913043L2 25.7544757C2 27.544757 3.47058824 29.0153453 5.26086957 29.0153453L24.826087 29.0153453C26.6163683 29.0153453 28.0869565 27.544757 28.0869565 25.7544757L28.0869565 12.3913043C28.0869565 10.601023 26.6163683 9.13043478 24.826087 9.13043478ZM24.826087 25.9143223C24.6662404 26.0741688 24.4424552 26.1700767 24.2506394 26.1700767 24.0588235 26.1700767 23.8670077 26.1061381 23.7071611 25.9462916L17.3452685 19.9680307 15.5549872 21.4705882C15.3951407 21.5984655 15.2352941 21.6624041 15.0434783 21.6624041 14.8516624 21.6624041 14.6598465 21.5984655 14.5319693 21.4705882L12.741688 19.9680307 6.3797954 25.9462916C6.21994885 26.1061381 6.02813299 26.1700767 5.83631714 26.1700767 5.61253197 26.1700767 5.42071611 26.0741688 5.26086957 25.9143223 4.97314578 25.5946292 4.97314578 25.0831202 5.29283887 24.7953964L11.5268542 18.9130435 5.32480818 13.6700767C4.97314578 13.3823529 4.94117647 12.870844 5.22890026 12.5511509 5.51662404 12.1994885 6.02813299 12.1675192 6.34782609 12.455243L15.0434783 19.8081841 23.7391304 12.455243C24.0907928 12.1675192 24.5703325 12.1994885 24.8580563 12.5511509 25.1457801 12.9028133 25.1138107 13.3823529 24.7621483 13.6700767L18.5601023 18.9130435 24.7941176 24.7634271C25.1138107 25.0831202 25.1138107 25.5946292 24.826087 25.9143223Z"/>
	</svg>
	