<?xml version="1.0"?>
	<svg xmlns="http://www.w3.org/2000/svg" 
		width="30" 
		height="30" 
		viewbox="0 0 30 30" 
		code="80742" 
		 transform=""
		><path d="M9.46666667 1.37026158C13.9954048 1.36759538 17.8358087 4.6979456 18.4740741 9.18148148 13.8800812 10.301201 10.649279 14.4196703 10.6555556 19.1481481 10.6555556 19.2592593 10.6555556 19.3703704 10.6555556 19.4814815 10.2589217 19.533557 9.85929702 19.5595388 9.45925926 19.5592593 8.9053411 19.5588943 8.35255062 19.5093167 7.80740741 19.4111111 5.1037037 21.9518519 1.72592593 20.1777778 1.72592593 20.1777778 2.74562787 19.6601396 3.58296092 18.8434814 4.12592593 17.837037 0.91333406 15.5319186-0.439472762 11.4136762 0.780404047 7.65253037 2.00028086 3.89138454 5.51268811 1.35110855 9.46666667 1.37026158ZM8.67777778 11.4037037L4.67407407 11.4037037C4.24392086 11.4057424 3.8962963 11.7550271 3.8962963 12.1851852L3.8962963 12.1851852C3.8962963 12.3914647 3.97824051 12.5892955 4.12410213 12.7351571 4.26996376 12.8810188 4.46779458 12.962963 4.67407407 12.962963L8.67777778 12.962963C8.88405727 12.962963 9.08188809 12.8810188 9.22774972 12.7351571 9.37361135 12.5892955 9.45555556 12.3914647 9.45555556 12.1851852L9.45555556 12.1851852C9.45555556 11.7550271 9.10793099 11.4057424 8.67777778 11.4037037ZM13.5592593 7.94813893L4.67037037 7.94813893C4.24081556 7.94813893 3.89259259 8.29637112 3.89259259 8.72592593L3.89259259 8.72592593C3.88859925 8.93540412 3.96928785 9.13763401 4.11638879 9.28682643 4.26348972 9.43601884 4.46456038 9.51955427 4.67407407 9.51852804L13.562963 9.51852804C13.7698858 9.51852804 13.96828 9.43606844 14.1142485 9.28940479 14.2602171 9.14274114 14.3417261 8.9439575 14.3408204 8.73703704L14.3408204 8.73703704C14.343727 8.52819539 14.2625926 8.32692851 14.1156025 8.17854508 13.9686123 8.03016165 13.7681198 7.94713221 13.5592593 7.94813893L13.5592593 7.94813893Z"/>
	</svg>
	