<?xml version="1.0"?>
	<svg xmlns="http://www.w3.org/2000/svg" 
		width="30" 
		height="30" 
		viewbox="0 0 30 30" 
		code="80744" 
		 transform=""
		><path d="M8.50198313 11.7267487L9.25308313 11.7267487C9.9948394 11.7062933 10.6438588 12.2148607 10.7905665 12.9315106 10.8414858 13.2410361 10.7850084 13.5568419 10.6328803 13.8288891L10.5488998 13.9610344C10.436065 14.1136073 10.3637921 14.2907166 10.3375407 14.4762607L10.3265665 14.6167487 10.3265665 14.9172249C10.3265665 15.4817826 10.7601273 15.9465733 11.3171048 16.0060363L11.4382331 16.012463 15.6432331 16.012463 15.6432331 20.1567487C15.6432331 20.1946368 15.6279564 20.230973 15.6007636 20.2577639 15.5826351 20.2756246 15.5602006 20.2882674 15.535864 20.2947115L15.4982331 20.2996058 15.1932498 20.2996058C15.1662321 20.2959917 15.1402594 20.2874553 15.1166135 20.2745507L15.0830498 20.2519868C14.956256 20.1645879 14.821276 20.0893252 14.6799498 20.0272249 14.2584473 19.8410835 13.7910586 19.7798624 13.3348331 19.8510344 12.1913665 20.059628 11.3531855 21.0153372 11.2960333 22.1455874L11.2932331 22.3081773 11.2932331 23.050082C11.2733365 24.2507441 12.1363674 25.2900383 13.3348331 25.5086535 13.8802842 25.593252 14.4364101 25.489036 14.9099915 25.2173794L15.0835331 25.1077011C15.1043866 25.0905326 15.128243 25.0774725 15.1538005 25.069086L15.1932498 25.060082 15.4982331 25.060082C15.5366895 25.060082 15.5735708 25.075133 15.6007636 25.1019239 15.6188921 25.1197845 15.6317246 25.1418875 15.6382654 25.1658644L15.6432331 25.2029392 15.6432331 28.8696058 5.0098998 28.8696058C3.73145851 28.8680971 2.68535721 27.8898737 2.5989952 26.6515853L2.59323313 26.4886535 2.59323313 16.012463 6.3148998 16.012463C6.60973213 16.012463 6.89248889 15.8970721 7.10096683 15.6916752 7.27966221 15.5156206 7.39123871 15.2858003 7.41947086 15.0408072L7.42656646 14.9172249 7.42656646 14.6167487C7.42373324 14.4283377 7.37368504 14.2442982 7.28183786 14.0806496L7.2051998 13.9619868C6.9901828 13.6638789 6.90237678 13.294594 6.96063313 12.9334154 7.09830638 12.2598868 7.67905115 11.7698836 8.36375641 11.7288834L8.50198313 11.7267487 9.25308313 11.7267487 8.50198313 11.7267487ZM16.6098998 16.012463L20.3330165 16.012463C20.3970815 16.012463 20.4514425 16.0533969 20.4706243 16.1101662L20.4780165 16.1553201 20.4780165 16.4557963C20.4743481 16.4824147 20.4656837 16.5080036 20.4525855 16.5313001L20.4296831 16.5643677C20.0723332 17.0647231 19.9264005 17.6823454 20.0227165 18.2867487 20.234439 19.4133168 21.2044838 20.2391108 22.3516878 20.2954185L22.5167165 20.2981773 23.2697498 20.2981773C24.4884218 20.3177799 25.5433055 19.4675031 25.7651998 18.2867487 25.8614906 17.6821958 25.7155655 17.064435 25.3582331 16.5638915 25.3408071 16.5433463 25.3275511 16.5198424 25.3190388 16.4946626L25.3098998 16.4557963 25.3098998 16.1553201C25.3098998 16.0922019 25.3514478 16.0386442 25.4090686 16.0197459L25.4548998 16.012463 29.6598998 16.012463 29.6598998 26.4886535C29.6583684 27.7482015 28.6654717 28.7788432 27.4086089 28.8639289L27.2432331 28.8696058 16.6098998 28.8696058 16.6098998 25.2029392C16.6098998 24.6383814 16.176339 24.1735907 15.6193615 24.1141278L15.4982331 24.1077011 15.1932498 24.1077011C15.0020127 24.1104924 14.8152126 24.159801 14.6491092 24.2502908L14.5286665 24.3257963C14.2251857 24.5372541 13.8498668 24.6235457 13.4827331 24.5662725 12.8002769 24.4306827 12.3037913 23.8595022 12.2620955 23.1860396L12.2598998 23.050082 12.2598998 22.3081773C12.2384198 21.5768504 12.7547798 20.9366159 13.4827331 20.7919868 13.7973179 20.7420732 14.1181616 20.7984063 14.3941585 20.9492308L14.5281831 21.032463C14.6831108 21.143128 14.8627251 21.2140008 15.0508311 21.2397706L15.1932498 21.2505582 15.4982331 21.2505582C16.0712592 21.2505582 16.5430218 20.8234047 16.6033767 20.2746584L16.6098998 20.1553201 16.6098998 16.012463 20.3330165 16.012463 16.6098998 16.012463Z"/>
	</svg>
	