<?xml version="1.0"?>
	<svg xmlns="http://www.w3.org/2000/svg" 
		width="30" 
		height="30" 
		viewbox="0 0 30 30" 
		code="80745" 
		 transform=""
		><path d="M6.768251675769183 14.744427807644877L6.7258061966225124 14.446875821120793C6.714592823048751 14.408446226924267 6.6927584522885555 14.373843633954328 6.6627408892142945 14.346931362918914 6.238213376522277 13.900795509849129 6.006036067156507 13.309724281402046 6.015128716146747 12.698256264539296 6.067559944453392 11.49681318646195 6.993782310320582 10.508735493439158 8.20523869673016 10.36188560847892L8.949029051047974 10.25889751536167C10.152632554155124 10.073157575178039 11.31652956492284 10.770467359881913 11.702893422689023 11.908782811422501 11.883650516601566 12.49409762971836 11.82638380720356 13.125719011112137 11.543192094821302 13.67020346516873 11.521742456408562 13.70451115796907 11.510474824716836 13.744052018145219 11.510665960761493 13.784345551041483L11.553111469616205 14.081897533390375C11.558463542876583 14.119416904700614 11.57872450721101 14.153304818311502 11.609437173881247 14.176106445116902 11.640149741524683 14.198908085839612 11.678798273374653 14.20875558499939 11.716880422638456 14.203482557453523L15.882393510240027 13.626709467903057 15.364437642348504 9.995726515706677C15.278991374834744 9.39672994426472 15.702589996351284 8.842903014940607 16.310571554193764 8.758719528304095L16.612586777435915 8.716901331330035C16.849943524375917 8.687679501990221 17.0906736329192 8.73125142525178 17.3019893860399 8.841682554769518 17.63209770531435 9.009861805227931 18.015956572573423 9.043890501271175 18.371234994934376 8.936470154092504 19.071673459441456 8.693434292658536 19.492568348320347 7.9886290496191785 19.36798965911089 7.267364686912989L19.263187700145714 6.532680090540335C19.181150925910217 5.805525221604736 18.579376065135534 5.242322787687094 17.838076767719002 5.198915523133316 17.466435053344306 5.1906414906536344 17.10643028680512 5.326863756096456 16.83595581906816 5.578108220357177 16.66437484119539 5.742516689028909 16.445374806868244 5.850609121034412 16.20898479978468 5.887563993636027L15.906969576542524 5.929382190610086C15.298988017308313 6.013565667343917 14.736853672760786 5.596227177738412 14.651407498706911 4.997230552768424L14.066184555729125 0.89469141562795 3.5363339728686958 2.352694418893149C2.2155134488813895 2.5371710913230325 1.2954431817104752 3.740101630825468 1.479520406009025 5.041841091652875L2.959395245833651 15.416077920842039 6.644842901263388 14.905776524095666C6.6829250307218295 14.90050349933326 6.717321318893443 14.880541997281114 6.740464957402949 14.8502832492868 6.763608586009775 14.820024502684218 6.773603764820293 14.781947075753115 6.768251675769183 14.744427807644877Z"/>
	</svg>
	