<?xml version="1.0"?>
	<svg xmlns="http://www.w3.org/2000/svg" 
		width="30" 
		height="30" 
		viewbox="0 0 30 30" 
		code="80747" 
		 transform=""
		><path d="M26.0126582 29.0506329L18.4556962 21.5316456 16.6329114 24.9493671C16.4810127 25.2151899 16.2151899 25.443038 15.9113924 25.4810127 15.4177215 25.556962 14.9620253 25.2531646 14.8481013 24.7974684L11.6202532 12.7594937C11.5443038 12.4177215 11.6202532 12.0759494 11.8860759 11.8481013 12.1139241 11.6202532 12.4936709 11.5063291 12.7974684 11.6202532L24.721519 15C25.0253165 15.0759494 25.2911392 15.3037975 25.4050633 15.6075949 25.5949367 16.0632911 25.3670886 16.556962 24.9493671 16.7848101L21.4556962 18.5696203 28.9746835 26.1265823C29.8101266 26.9620253 29.8101266 28.2911392 28.9746835 29.0886076L28.9746835 29.0886076C28.1772152 29.8860759 26.8101266 29.8860759 26.0126582 29.0506329Z"/>
	</svg>
	