<?xml version="1.0"?>
	<svg xmlns="http://www.w3.org/2000/svg" 
		width="30" 
		height="30" 
		viewbox="0 0 30 30" 
		code="80748" 
		 transform=""
		><path d="M10.5928291 25.4985265L11.8600196 24.231336C12.0695809 24.0217747 12.3909081 23.9984901 12.6253062 24.1614822L12.7087426 24.231336 14.9720039 26.4945972 17.2293713 24.231336C17.4389325 24.0217747 17.7602598 23.9984901 17.9946579 24.1614822L18.0780943 24.231336 19.3511788 25.4985265C19.56074 25.7080878 19.5840246 26.029415 19.4210325 26.2638131L19.3511788 26.3472495 16.0329077 29.6655206C15.7382122 29.9543222 15.3551081 30.1016699 14.9720039 30.1016699 14.6367878 30.1016699 14.3015717 29.9933694 14.0255825 29.7688713L13.9111002 29.6655206 10.5928291 26.3472495C10.3832678 26.1376883 10.3599833 25.8163611 10.5229753 25.5819629L10.5928291 25.4985265 11.8600196 24.231336 10.5928291 25.4985265ZM10.598723 3.75589391L13.9169941 0.43762279C14.4640226-0.109405697 15.3322231-0.143594978 15.9193981 0.335054948L16.0329077 0.43762279 19.3511788 3.76178782C19.56074 3.97134905 19.5840246 4.29267627 19.4210325 4.52707439L19.3511788 4.61051081 18.0839882 5.87770138C17.874427 6.08726261 17.5530998 6.11054719 17.3187016 5.94755512L17.2352652 5.87770138 14.9720039 3.61444008 12.7146365 5.87180747C12.5050753 6.0813687 12.1837481 6.10465328 11.94935 5.94166121L11.8659136 5.87180747 10.598723 4.6046169C10.3891618 4.39505566 10.3658772 4.07372844 10.5288692 3.83933033L10.598723 3.75589391 13.9169941 0.43762279 10.598723 3.75589391Z"/>
	</svg>
	