<?xml version="1.0"?>
	<svg xmlns="http://www.w3.org/2000/svg" 
		width="30" 
		height="30" 
		viewbox="0 0 30 30" 
		code="80749" 
		 transform=""
		><path d="M26.1046775 10.5229753L26.1881139 10.5928291 29.5063851 13.9111002C30.0534136 14.4636542 30.0876028 15.3270199 29.6089529 15.9184254L29.5063851 16.0329077 26.1881139 19.3511788C25.9785527 19.56074 25.6572255 19.5840246 25.4228274 19.4210325L25.339391 19.3511788 24.0722004 18.0839882C23.8626392 17.874427 23.8393546 17.5530998 24.0023466 17.3187016L24.0722004 17.2352652 26.3354617 14.9720039 24.0722004 12.7087426C23.8626392 12.4991814 23.8393546 12.1778542 24.0023466 11.9434561L24.0722004 11.8600196 25.339391 10.5928291C25.5489522 10.3832678 25.8702794 10.3599833 26.1046775 10.5229753ZM4.52707439 10.5288692L4.61051081 10.598723 5.87770138 11.8659136C6.08202358 12.0702358 6.10472604 12.3956378 5.94580878 12.6268666L5.87770138 12.7087426 3.61444008 14.9720039 5.87180747 17.2293713C6.0813687 17.4389325 6.10465328 17.7602598 5.94166121 17.9946579L5.87180747 18.0780943 4.6046169 19.3452849C4.39505566 19.5548461 4.07372844 19.5781307 3.83933033 19.4151386L3.75589391 19.3452849 0.43762279 16.0270138C-0.109405697 15.4799853-0.143594978 14.6117847 0.335054948 14.0246098L0.43762279 13.9111002 3.76178782 10.598723C3.9451539 10.4153569 4.21409081 10.3746089 4.43548837 10.4764789L4.52707439 10.5288692ZM14.9720039 11.9778978C16.6256031 11.9778978 17.96611 13.3184048 17.96611 14.9720039 17.96611 16.6256031 16.6256031 17.96611 14.9720039 17.96611 13.3184048 17.96611 11.9778978 16.6256031 11.9778978 14.9720039 11.9778978 13.3184048 13.3184048 11.9778978 14.9720039 11.9778978Z"/>
	</svg>
	