<?xml version="1.0"?>
	<svg xmlns="http://www.w3.org/2000/svg" 
		width="30" 
		height="30" 
		viewbox="0 0 30 30" 
		code="80751" 
		 transform=""
		><path d="M10.9349081 1.4516129C10.3978007 1.4516129 9.96527603 1.94746163 9.96527603 2.56326178L9.96527603 5.91779692 19.5489629 5.91779692C19.8651085 5.91779692 20.1566798 5.98905967 20.4194281 6.10878505L20.9568884 4.73024254 22.5300915 4.73024254 26.4416758 14.7730349 24.9982458 14.7730349 24.062894 12.1971437 21.7722606 12.1971437 21.7722606 18.9686522 25.5614163 23.3124082 25.5614163 17.8472094 28.062626 17.8472094C28.5997346 17.8472094 29.0322581 17.3513608 29.0322581 16.7355602L29.0322581 2.56326196C29.0322581 1.94746144 28.5997346 1.4516129 28.062626 1.4516129L10.9349081 1.4516129ZM21.7404294 6.069608L21.3964054 6.9829232C21.6355854 7.36880839 21.7722606 7.82208815 21.7722606 8.2831118L21.7722606 11.067131 23.6307216 11.067131 21.7404294 6.069608Z"/>
	</svg>
	