<?xml version="1.0"?>
	<svg xmlns="http://www.w3.org/2000/svg" 
		width="30" 
		height="30" 
		viewbox="0 0 30 30" 
		code="80761" 
		 transform=""
		><path d="M5.87740592 12.6780123L6.58492545 11.9704928C7.40849316 11.1469251 8.33392453 11.1280803 9.20599875 11.9139585L9.3363903 12.0378756 18.2309215 20.9436373C19.0865763 21.7992921 19.1476945 22.7466241 18.4239774 23.5625036L18.3095348 23.6838717 17.5907848 24.4026217C16.7886085 25.204798 15.843823 25.2226242 14.9795584 24.4463988L14.8505505 24.3240084 11.7172497 21.1907076C10.9648083 22.4822115 9.86422233 25.2561373 8.8310192 26.2893404 7.50582389 27.6145358 5.64156608 27.5696139 4.1591442 26.1096529 2.6879528 24.6609225 2.60933952 22.7854342 3.96822624 21.4377779 4.95122256 20.4653515 7.4761739 19.4332364 8.83719791 18.6878606L9.07808952 18.5515475 5.94478874 15.4182467C5.08913397 14.5518962 5.02801578 13.6244276 5.76143414 12.8007629L5.87740592 12.6780123 6.58492545 11.9704928 5.87740592 12.6780123Z"/>
	</svg>
	