<?xml version="1.0"?>
	<svg xmlns="http://www.w3.org/2000/svg" 
		width="30" 
		height="30" 
		viewbox="0 0 30 30" 
		code="80766" 
		 transform=""
		><path d="M24.0375 19.075L20.8625 18.7125C20.1 18.625 19.35 18.8875 18.8125 19.425L16.5125 21.725C12.975 19.925 10.075 17.0375 8.275 13.4875L10.5875 11.175C11.125 10.6375 11.3875 9.8875 11.3 9.125L10.9375 5.975C10.7875 4.7125 9.725 3.7625 8.45 3.7625L6.2875 3.7625C4.875 3.7625 3.7 4.9375 3.7875 6.35 4.45 17.025 12.9875 25.55 23.65 26.2125 25.0625 26.3 26.2376219 25.125 26.2376219 23.7125L26.2376219 21.55C26.25 20.2875 25.3 19.225 24.0375 19.075Z"/>
	</svg>
	