<?xml version="1.0"?>
	<svg xmlns="http://www.w3.org/2000/svg" 
		width="30" 
		height="30" 
		viewbox="0 0 30 30" 
		code="80769" 
		 transform=""
		><path d="M5.66597938 5.78419516L29.0474227 5.78419516C29.2708293 5.77984433 29.4860408 5.86868384 29.6410843 6.02960017 29.7702872 6.16369712 29.8479186 6.33768847 29.8626889 6.52105672L29.8639232 26.7814433C29.8647432 27.0072661 29.7754008 27.2240781 29.6157188 27.3837601 29.4826506 27.5168283 29.3099086 27.6010498 29.1253398 27.6249527L29.0134021 27.6319644 5.63195876 27.6319644C5.29130838 27.6315866 4.98863298 27.4265028 4.85846508 27.1194053L4.82164948 27.0134021 4.82164948 6.56701031C4.85005839 6.16119861 5.16295847 5.83959794 5.55673389 5.79077101L5.66597938 5.78419516 29.0474227 5.78419516 5.66597938 5.78419516ZM28.1752577 7.51340206L6.5257732 7.51340206 6.5257732 22.0309278 9.30927835 22.0309278 12.4484536 15.2206186C12.5234444 15.0604127 12.6791593 14.9532411 12.8555819 14.9404103 13.0026007 14.9297181 13.1448697 14.9859316 13.244564 15.0904234L13.2989691 15.1587629 15.5783505 18.4402062C15.655279 18.5573532 15.779344 18.635261 15.918278 18.6536668 16.0294252 18.6683914 16.1413004 18.6438705 16.2352511 18.5858189L16.3020619 18.5360825 17.7494845 17.2989691C17.9187643 17.1547712 18.1605227 17.1471032 18.3370085 17.2694979L18.4082474 17.3298969 21.0247423 19.943299C21.1206289 20.0439643 21.2554941 20.0980449 21.3943651 20.0915168 21.5054618 20.0862943 21.6103674 20.0426938 21.6919282 19.9695436L21.7484536 19.9092784 22.4103093 19.1237113C22.5144289 19.0153957 22.6599129 18.9567979 22.8100403 18.9627084 22.9301422 18.9674368 23.0440358 19.0130892 23.1335734 19.090638L23.1958763 19.1546392 25.4041237 22.0309278 28.1659794 22.0309278 28.1752577 7.51340206ZM22.0298969 11.5742268C22.8993184 11.5742268 23.6041237 12.2790322 23.6041237 13.1484536 23.6041237 14.0178751 22.8993184 14.7226804 22.0298969 14.7226804 21.1604755 14.7226804 20.4556701 14.0178751 20.4556701 13.1484536 20.4556701 12.2790322 21.1604755 11.5742268 22.0298969 11.5742268Z"/>
	</svg>
	