<?xml version="1.0"?>
	<svg xmlns="http://www.w3.org/2000/svg" 
		width="30" 
		height="30" 
		viewbox="0 0 30 30" 
		code="80768" 
		 transform=""
		><path d="M0.850515464 0.999988732L24.2628866 0.999988732C24.4887094 0.999174314 24.7055214 1.08851676 24.8652034 1.24819869 24.9982716 1.38126696 25.0824931 1.5540089 25.106396 1.73857772L25.1134077 1.85051546 25.1134077 5.02061856 23.3814433 5.02061856 23.3814433 2.69793814 1.69793814 2.69793814 1.69793814 17.2061856 4.05463918 17.2061856 4.05463918 22.8412484 0.850515464 22.8412484C0.624692626 22.8420628 0.407880619 22.7527203 0.248198692 22.5930384 0.115130419 22.4599701 0.0309090053 22.2872282 0.0070060863 22.1026594L-0.0000112679049 21.9907216-0.0000112679049 1.85051546C-0.00082568594 1.62469263 0.0885167648 1.40788062 0.248198692 1.24819869 0.381266965 1.11513042 0.554008904 1.03090901 0.738577722 1.00700609L0.850515464 0.999988732 24.2628866 0.999988732 0.850515464 0.999988732Z"/>
	</svg>
	