<?xml version="1.0"?>
	<svg xmlns="http://www.w3.org/2000/svg" 
		width="30" 
		height="30" 
		viewbox="0 0 30 30" 
		code="80779" 
		 transform=""
		><path d="M15.5 8C16.0522847 8 16.5 8.44771525 16.5 9L16.5 14.5 22 14.5C22.5522847 14.5 23 14.9477153 23 15.5 23 16.0522847 22.5522847 16.5 22 16.5L16.5 16.5 16.5 22C16.5 22.5522847 16.0522847 23 15.5 23 14.9477153 23 14.5 22.5522847 14.5 22L14.5 16.5 9 16.5C8.44771525 16.5 8 16.0522847 8 15.5 8 14.9477153 8.44771525 14.5 9 14.5L14.5 14.499 14.5 9C14.5 8.44771525 14.9477153 8 15.5 8Z"/>
	</svg>
	