<?xml version="1.0"?>
	<svg xmlns="http://www.w3.org/2000/svg" 
		width="30" 
		height="30" 
		viewbox="0 0 30 30" 
		code="80785" 
		 transform=""
		><path d="M12.88125 12.1875C15.31875 12.1875 17.653125 12.8625 19.678125 14.04375 19.048125 14.8225 18.2629583 15.2010833 17.1549361 15.2785889L16.9125 15.290625C15.046875 15.35625 13.584375 16.875 13.584375 18.75L13.584375 20.896875C13.584375 23.4 14.446875 25.753125 16.040625 27.571875 16.575 28.14375 17.015625 28.565625 17.475 28.95 17.9625 29.371875 18.440625 29.71875 18.890625 30L4.93125 30C2.23125 30 0.01875 27.84375-1.77635684e-15 25.190625L-1.77635684e-15 25.059375C-1.77635684e-15 17.9625 5.775 12.1875 12.88125 12.1875ZM13.1203125 0C16.21875 0 18.7453125 2.525625 18.7453125 5.625 18.7453125 8.7234375 16.21875 11.25 13.1203125 11.25 10.0209375 11.25 7.4953125 8.7234375 7.4953125 5.625 7.4953125 2.525625 10.0209375 0 13.1203125 0Z"/>
	</svg>
	