<?xml version="1.0"?>
	<svg xmlns="http://www.w3.org/2000/svg" 
		width="30" 
		height="30" 
		viewbox="0 0 30 30" 
		code="80784" 
		 transform=""
		><path d="M24.0375 14.8125C24.984375 16.021875 26.325 16.65 28.021875 16.696875 29.1375 16.734375 30 17.634375 30 18.75L30 20.896875C30 23.0625 29.26875 25.078125 27.9375 26.5875 27.525 27.0375 27.1125 27.45 26.64375 27.8625 25.375 28.895 24.2124167 29.4865 23.4075333 29.8046889L23.240625 29.86875C23.0625 29.953125 22.8 30 22.528125 30L22.3876465 29.9964844C22.244458 29.9891602 22.0435913 29.9671875 21.8422668 29.9031006L21.721875 29.859375C20.934375 29.578125 19.6875 28.9875 18.384375 27.88125 17.90625 27.478125 17.484375 27.05625 17.0625 26.60625 15.721875 25.078125 14.990625 23.0625 14.990625 20.896875L14.990625 18.75C14.990625 17.634375 15.853125 16.734375 16.959375 16.696875 18.646875 16.65 19.9125 16.040625 20.85 14.83125 21.6375 13.846875 23.278125 13.865625 24.0375 14.8125Z"/>
	</svg>
	