<?xml version="1.0"?>
	<svg xmlns="http://www.w3.org/2000/svg" 
		width="30" 
		height="30" 
		viewbox="0 0 30 30" 
		code="80790" 
		 transform=""
		><path d="M16.5 21L16.5 24 13.5 24 13.5 21 16.5 21ZM15.915 6.06C18.525 6.45 20.58 8.655 20.94 11.265 21.345 14.13 19.395 15.24 17.955 16.605 17.775 16.77 17.61 16.935 17.46 17.115L17.415 17.175 17.415 17.175C17.265 17.355 17.115 17.55 16.995 17.76L16.92 17.895 16.92 17.895C16.7014286 18.2807143 16.5489796 18.7215306 16.5098834 19.2363411L16.5 19.5 13.5 19.5C13.5 18.75 13.62 18.135 13.8 17.625L13.83 17.52 13.89 17.4C13.96 17.22 14.0433333 17.0466667 14.1311111 16.8844444L14.325 16.545 14.325 16.545C15.57 14.67 17.85 14.235 18 12.225 18.12 10.77 17.07 9.375 15.645 9.075 14.1 8.745 12.675 9.66 12.195 10.995 12.0025 11.5175 11.5705208 11.9265625 11.0261545 11.9911111L10.875 12 10.575 12C9.66 12 9 11.115 9.27 10.245 10.095 7.515 12.825 5.61 15.915 6.06Z"/>
	</svg>
	