<?xml version="1.0"?>
	<svg xmlns="http://www.w3.org/2000/svg" 
		width="30" 
		height="30" 
		viewbox="0 0 30 30" 
		code="80800" 
		 transform=""
		><path d="M1.0000000000007496 13.2601074C1.0000000000007496 14.2567871 1.8068359379999999 15.063623 2.8035156299999997 15.063623 3.80019531 15.063623 4.60703125 14.2567871 4.60703125 13.2601074L4.60703125 12.5244629C4.60703125 10.49550781 5.95966797 9.249658199999999 8.11914063 9.249658199999999L16.9587402 9.249658199999999 16.9587402 11.74135742C16.9587402 12.5719238 17.4808105 13.1058594 18.311377 13.1058594 18.6910645 13.1058594 19.023291 12.9634766 19.2724609 12.7499023L24.2795898 8.537744140000001C24.9321777 8.00380859 24.9203125 7.11391602 24.2795898 6.56811523L19.2724609 2.355957031C19.023291 2.142382812 18.6910645 1.9999999999999876 18.311377 1.9999999999999876 17.4808105 1.9999999999999876 16.9587402 2.533935547 16.9587402 3.37636719L16.9587402 5.713818359999999 8.32084961 5.713818359999999C3.78833008 5.713818359999999 1.0000000000007496 8.14619141 1.0000000000007496 12.0617187L1.0000000000007496 13.2601074Z"/>
	</svg>
	