<?xml version="1.0"?>
	<svg xmlns="http://www.w3.org/2000/svg" 
		width="30" 
		height="30" 
		viewbox="0 0 30 30" 
		code="80801" 
		 transform=""
		><path d="M12.983886720000001 18.38588867L12.983886720000001 20.87758789 21.8234863 20.87758789C23.982959 20.87758789 25.3355957 19.63173828 25.3355957 17.61464844L25.3355957 16.87900391C25.3355957 15.870458984 26.1424316 15.0636230469 27.1391113 15.0636230469 28.135791 15.0636230469 28.942627 15.870458984 28.942627 16.87900391L28.942627 18.06552734C28.942627 21.99291992 26.1542969 24.413427730000002 21.6217773 24.413427730000002L12.983886720000001 24.413427730000002 12.983886720000001 26.7508789C12.983886720000001 27.5933105 12.46181641 28.1272461 11.63125 28.1272461 11.2515625 28.1272461 10.91933594 27.9848633 10.67016602 27.7712891L5.663037109 23.547265619999997C5.0223144531 23.01333008 5.0223144531 22.1234375 5.663037109 21.58950195L10.67016602 17.36547852C10.91933594 17.151904299999998 11.2515625 17.02138672 11.63125 17.02138672 12.46181641 17.02138672 12.983886720000001 17.54345703 12.983886720000001 18.38588867Z"/>
	</svg>
	