<?xml version="1.0"?>
	<svg xmlns="http://www.w3.org/2000/svg" 
		width="30" 
		height="30" 
		viewbox="0 0 30 30" 
		code="80803" 
		 transform=""
		><path d="M7.41035156 8.121819766L7.51795281 8.125952077C8.16109694 8.176913265 8.75 8.694642857 8.75 9.45 8.75 9.75 8.64897959 10.04081633 8.46268222 10.27521866L8.3625 10.3875 3.75 15 8.3625 19.6125C8.6125 19.8625 8.75 20.2 8.75 20.55 8.75 21.305357100000002 8.16109694 21.823086699999998 7.51795281 21.870727000000002L7.41035156 21.8742746C7.13284268 21.8719991 6.85082689 21.7810087 6.60639128 21.583004600000002L6.4875 21.475 0.8875 15.875C0.4325 15.42 0.402166667 14.70366667 0.7965 14.21382222L0.8875 14.1125 6.4875 8.5125C6.7182398 8.281760204 6.99357429 8.1601351 7.27141639 8.129587361L7.41035156 8.121819766Z"/>
	</svg>
	