<?xml version="1.0"?>
	<svg xmlns="http://www.w3.org/2000/svg" 
		width="30" 
		height="30" 
		viewbox="0 0 30 30" 
		code="80807" 
		 transform=""
		><path d="M24.0613644 0.0426176481C24.6895455 0.0342908588 25.2161632 0.51534881 25.2645582 1.14171834 25.3539466 2.39917436 25.1776572 3.66136505 24.7471542 4.84620813 23.8041932 7.56181346 21.3120819 12.441943 19.8486553 15.215718 19.1928272 16.4579717 18.0700931 17.3835863 16.7339109 17.7932517L16.4809373 17.863969 13.0611728 18.7273294C12.8969573 18.7688379 12.7593616 18.8805709 12.6850316 19.0327704 12.6255676 19.1545301 12.6114236 19.2922984 12.6430793 19.4219103L12.675416 19.5172123 13.4744836 21.3541494C14.2954379 23.0629263 14.261529 25.0641791 13.3829487 26.7502824 12.5043685 28.4363858 10.8835551 29.610748 9.00766493 29.9203994 8.68162371 29.9724989 8.35201841 29.999113 8.02184202 30 4.88417055 29.9917809 2.27578618 27.5814733 2.02030382 24.4542095 1.77120852 21.4051274 3.83980379 18.6655277 6.81177139 18.0509181L7.04214224 18.0078624 9.9077641 17.5363819C10.7873274 17.3911508 11.5783585 16.923756 12.1294253 16.2297041L12.2621051 16.0515244 12.5223379 15.6780138C12.5918886 15.5780796 12.7067629 15.5194937 12.8284941 15.5218742 12.926552 15.5196139 13.0200852 15.5576011 13.0884337 15.6250926L13.1346503 15.6810754 13.3520211 15.9872316C13.661025 16.3249594 14.1715463 16.3835957 14.5490734 16.1247199 14.89514 15.8874171 15.0326035 15.4497282 14.8962204 15.0626656L14.8521864 14.9585468 14.2398741 14.0615092C14.0883369 13.8442226 14.0693948 13.5644311 14.1830476 13.3315183L14.2398741 13.2348875 23.0724799 0.547775347C23.2952927 0.222791651 23.6674594 0.032675517 24.0613644 0.0426176481ZM10.4833377 21.4919197C9.4895762 20.4979943 7.99492654 20.2005938 6.69638525 20.7384045 5.39784396 21.2762152 4.55115639 22.5433161 4.55115639 23.9488231 4.55115639 25.35433 5.39784396 26.621431 6.69638525 27.1592416 7.99492654 27.6970523 9.4895762 27.3996519 10.4833377 26.4057264 11.1394159 25.7564951 11.5085778 24.871829 11.5085778 23.9488231 11.5085778 23.0258172 11.1394159 22.1411511 10.4833377 21.4919197Z"/>
	</svg>
	