<?xml version="1.0"?>
	<svg xmlns="http://www.w3.org/2000/svg" 
		width="30" 
		height="30" 
		viewbox="0 0 30 30" 
		code="80806" 
		 transform=""
		><path d="M25.852378 19.6825367C28.2084375 22.0399974 28.2084375 25.8607104 25.852378 28.218171 24.1259762 29.9455995 21.5289013 30.4627918 19.272438899999997 29.5285274 17.0159765 28.594263 15.5446229 26.3925808 15.5446229 23.9503539 15.5446229 21.5081269 17.0159765 19.3064447 19.272438899999997 18.3721803 21.5289013 17.4379159 24.1259762 17.9551082 25.852378 19.6825367ZM20.252981 20.7506508C18.954439700000002 21.2884614 18.1077521 22.5555624 18.1077521 23.9610693 18.1077521 25.3665763 18.954439700000002 26.6336772 20.252981 27.1714879 21.4865952 27.682408 22.8971972 27.4395502 23.8871997 26.5618202L24.0399334 26.4179727 24.0399334 26.4057264C25.3919051 25.0515534 25.3919051 22.858339 24.0399334 21.504166 23.0461719 20.5102405 21.5515223 20.2128401 20.252981 20.7506508ZM6.5155536099999996 0.511036606L13.76839355 10.9203468C13.87532841 11.0773571 13.87532841 11.2838019 13.76839355 11.4408123L11.13238883 15.2187796C11.00109261 15.4051213 10.84209818 15.5703103 10.66090831 15.7086295 10.56292293 15.7876537 10.43631978 15.8220288 10.31182317 15.8034125 10.187326559999999 15.7847962 10.07631684 15.7148902 10.00573408 15.6106595 9.91694879 15.4728892 9.831225060000001 15.3320573 9.75468601 15.1851024L8.912485010000001 13.5628073C7.47347521 10.7649306 5.63568737 7.04613997 4.859248671 4.80028471 4.428745729 3.61544162 4.252456286 2.35325093 4.3418447239999995 1.09579491 4.384507432 0.593695925 4.737036173 0.172074576 5.22364436 0.0411701209 5.71025254-0.0897343338 6.22673625 0.0981104268 6.5155536099999996 0.511036606Z"/>
	</svg>
	