<?xml version="1.0"?>
	<svg xmlns="http://www.w3.org/2000/svg" 
		width="30" 
		height="30" 
		viewbox="0 0 30 30" 
		code="80808" 
		 transform=""
		><path d="M1.875-3.55271368e-15L28.125-3.55271368e-15C29.1120536-3.55271368e-15 29.9196854 0.761479592 29.9943645 1.7284783L30 1.875 30 21.5625C30 22.5494978 29.2393707 23.3571801 28.2716432 23.4318641L28.125 23.4375 1.875 23.4375C0.888002232 23.4375 0.0803199405 22.6768707 0.00563590764 21.7091432L0 21.5625 0 1.875C0 0.888839286 0.760682398 0.0803996599 1.72836441 0.00564160188L1.875-3.55271368e-15 28.125-3.55271368e-15 1.875-3.55271368e-15ZM26.25 1.875L3.75 1.875C2.76300223 1.875 1.95531994 2.63562925 1.88063591 3.60335682L1.875 3.75 1.875 16.875C1.875 17.8619978 2.63562925 18.6696801 3.60335682 18.7443641L3.75 18.75 26.25 18.75C27.2369978 18.75 28.0446801 17.9893707 28.1193641 17.0216432L28.125 16.875 28.125 3.75C28.125 2.76300223 27.3643707 1.95531994 26.3966432 1.88063591L26.25 1.875Z"/>
	</svg>
	