<?xml version="1.0"?>
	<svg xmlns="http://www.w3.org/2000/svg" 
		width="30" 
		height="30" 
		viewbox="0 0 30 30" 
		code="80813" 
		 transform=""
		><path d="M23.4285714 20.4285714C25.5821922 20.4560945 27.3808433 22.0776829 27.6306053 24.2169489 27.8803674 26.3562149 26.5036443 28.3485322 24.4142857 28.8714286 24.0929257 28.9580897 23.7614087 29.001331 23.4285714 29.0000583 23.3040637 28.9954236 23.1798449 28.9854045 23.0562681 28.9699998L22.8714286 28.9428571 22.6571429 28.9428571C21.9610388 28.8085128 21.3119323 28.4998725 20.7696572 28.0476728L20.3789148 27.6964647C19.8808672 27.2154245 19.5067379 26.6207558 19.2886791 25.9635637L19.2142857 25.7142857 19.1729911 25.6261161C19.1428571 25.5357143 19.1428571 25.4392857 19.1428571 25.3428571 19.1287432 25.1717191 19.1287432 24.9997095 19.1428571 24.8285714 19.1358725 24.7907963 19.1358725 24.7520608 19.1428571 24.7142857 19.1447527 24.0042879 19.3266076 23.3063584 19.6714286 22.6857143 20.4152598 21.301395 21.8570815 20.4352056 23.4285714 20.4285714ZM6.28571429 10.4285714C8.10242896 10.443516 9.71231822 11.6022983 10.3031846 13.3203066 10.8704164 14.9695946 10.3801776 16.7901816 9.0808922 17.9322637L8.67830688 18.2671958 8.67830688 18.2671958 8.55714286 18.3571429 8.34285714 18.4714286C8.20571429 18.54 8.07771429 18.6634286 7.94422857 18.7100571L7.84285714 18.7285714 7.71428571 18.7285714C7.25749876 18.90142 6.77406427 18.9932726 6.28571429 19 3.91877964 19 2 17.0812204 2 14.7142857 2 12.3473511 3.91877964 10.4285714 6.28571429 10.4285714ZM24.5181285 0.541461602C26.4349603 1.03104875 27.767584 2.76907895 27.7429232 4.7472932 27.7182624 6.72550745 26.3427265 8.42977726 24.4142857 8.87142857 24.0915808 8.95114333 23.7609268 8.99427211 23.4285714 9 23.303642 8.98912414 23.1792804 8.97277293 23.0558441 8.95100139L22.8714286 8.91428571 22.6571429 8.91428571C21.9626358 8.77534345 21.3147827 8.46674499 20.7705481 8.01775295L20.5714286 7.84285714 20.3802302 7.6702645C19.8853302 7.19577003 19.5114421 6.60935597 19.2900837 5.96045577L19.2142857 5.71428571 19.1729911 5.62008929C19.1428571 5.52767857 19.1428571 5.43928571 19.1428571 5.34285714 19.1287432 5.17171907 19.1287432 4.9997095 19.1428571 4.82857143 19.1358725 4.79079634 19.1358725 4.7520608 19.1428571 4.71428571 19.1447527 4.00428786 19.3266076 3.30635835 19.6714286 2.68571429 20.5984322 0.93797173 22.6012967 0.0518744535 24.5181285 0.541461602Z"/>
	</svg>
	