<?xml version="1.0"?>
	<svg xmlns="http://www.w3.org/2000/svg" 
		width="30" 
		height="30" 
		viewbox="0 0 30 30" 
		code="80815" 
		 transform=""
		><path d="M15.2727273 2.72727273L24.8183573 6.96818182 24.8183573 13.3772727C24.8482369 19.4642368 21.0157657 24.9008709 15.2727273 26.9181818 9.5296888 24.9008709 5.69721763 19.4642368 5.72709721 13.3772727L5.72709721 6.96818182 15.2727273 2.72727273M15.2727273-0.00000324892175C14.8924093-0.000587006227 14.5161727 0.0783762256 14.1681818 0.231818182L4.62272727 4.47272727C3.6355437 4.91000363 2.99926234 5.88848673 2.99999936 6.96818182L2.99999936 13.3772727C2.99999936 20.9454545 8.23636364 28.0227273 15.2727273 29.7409091 22.3090909 28.0227273 27.5454552 20.9454545 27.5454552 13.3772727L27.5454552 6.96818182C27.5461922 5.88848673 26.9099108 4.91000363 25.9227273 4.47272727L16.3772727 0.231818182C16.0292818 0.0783762256 15.6530452-0.000587006227 15.2727273-0.00000324892175Z"/>
	</svg>
	