<?xml version="1.0"?>
	<svg xmlns="http://www.w3.org/2000/svg" 
		width="30" 
		height="30" 
		viewbox="0 0 30 30" 
		code="80817" 
		 transform=""
		><path d="M13.751543 15.2435547C14.2644727 14.0280273 14.6992969 13.0744727 15.0561914 12.3830078 15.3238477 11.8700781 15.5749805 11.4378906 15.8091797 11.0865625 16.0431445 10.7352344 16.3277344 10.3922852 16.6621875 10.0577734 16.9970508 9.72314453 17.3816016 9.47195313 17.8167773 9.30484375 18.2514844 9.13755859 18.7365234 9.05388672 19.2721289 9.05388672L23.5543945 9.05388672 23.5543945 12.2658789C23.5543945 12.4108398 23.6073047 12.5364063 23.7131836 12.6422266 23.8190625 12.7482227 23.9445703 12.8011328 24.0893555 12.8011328 24.2457422 12.8011328 24.3740625 12.7510938 24.4739062 12.6506641L29.8273242 7.29759766C29.9279883 7.19710937 29.9780859 7.06902344 29.9780859 6.9128125 29.9780859 6.75660156 29.9279883 6.62845703 29.8273242 6.52761719L24.4907813 1.19101563C24.3572461 1.07957031 24.2228906 1.02408203 24.0892969 1.02408203 23.9329102 1.02408203 23.8049414 1.07417969 23.7043359 1.17466797 23.6044922 1.27503906 23.5543359 1.40318359 23.5543359 1.55933594L23.5543359 4.77109375 19.2720703 4.77109375C18.5135156 4.77109375 17.7998438 4.86332031 17.1305273 5.04730469 16.4612109 5.23128906 15.8672461 5.46537109 15.34875 5.74990234 14.8300781 6.03431641 14.3282813 6.41623047 13.8430664 6.89587891 13.3579102 7.37529297 12.9451758 7.83830078 12.6052148 8.284375 12.2651367 8.73033203 11.908125 9.28791016 11.5345898 9.95716797 11.1611133 10.6263086 10.8599414 11.2118945 10.6313086 11.7136914 10.4026172 12.2156055 10.1266406 12.8345898 9.80326172 13.5707031 9.29015625 14.7862891 8.85521484 15.7399609 8.49837891 16.4313672 8.23078125 16.9442969 7.97964844 17.3766016 7.745625 17.7278711 7.51148438 18.0791992 7.22689453 18.4220898 6.89238281 18.7566016 6.55775391 19.0914648 6.17296875 19.3424805 5.73802734 19.5097656 5.30320313 19.6769922 4.81792969 19.7607813 4.28267578 19.7607813L0.535488281 19.7607813C0.379277344 19.7607813 0.250957031 19.8105273 0.150703125 19.9111328 0.0505664062 20.0113867 0.000234375 20.1393555 0.000234375 20.2956836L0.000234375 23.5079687C0.000234375 23.6640039 0.0507421875 23.7923242 0.151113281 23.8929297 0.251542969 23.9932422 0.379921875 24.0433398 0.535898437 24.0433398L4.28320312 24.0433398C5.04175781 24.0433398 5.75537109 23.9511133 6.42462891 23.7670117 7.09376953 23.5829102 7.68779297 23.3487109 8.20623047 23.0644141 8.72496094 22.7798828 9.22675781 22.3978516 9.71191406 21.9182031 10.1969531 21.4389648 10.6098047 20.9757813 10.9498828 20.5298828 11.2898438 20.0836914 11.6467969 19.5262305 12.0204492 18.8571484 12.3939258 18.1877734 12.6952148 17.6023047 12.9237305 17.1005664 13.1521875 16.5986523 13.4281055 15.9798438 13.751543 15.2435547Z"/>
	</svg>
	