<?xml version="1.0"?>
	<svg xmlns="http://www.w3.org/2000/svg" 
		width="30" 
		height="30" 
		viewbox="0 0 30 30" 
		code="80816" 
		 transform=""
		><path d="M14.7047461 15.7121289L15.0435059 16.391582C15.1466455 16.5937451 15.24 16.7715039 15.3235547 16.9246094 15.4907812 17.2314648 15.7167773 17.5857227 16.0013086 17.987207 16.2856641 18.3888672 16.5701953 18.704043 16.8543164 18.9326172 17.1386133 19.1614258 17.4899414 19.3564844 17.9082422 19.5181445 18.2568262 19.6531055 18.6304346 19.7318734 19.0293726 19.7543804L19.2717773 19.7611328 23.5544531 19.7611328 23.5544531 16.5488477C23.5544531 16.3928711 23.6045508 16.2645508 23.7048047 16.1642969 23.805 16.0638672 23.9333789 16.0139453 24.0893555 16.0139453 24.1965117 16.0139453 24.303668 16.0493828 24.4108242 16.1206178L24.4911914 16.1807617 29.8272656 21.5169531C29.9279297 21.6171484 29.9780273 21.745293 29.9780273 21.9015039 29.9780273 22.0266133 29.9459648 22.1334977 29.8818098 22.222787L29.8276758 22.2864648 24.4742578 27.6394727C24.3744141 27.7397266 24.2460937 27.7898242 24.089707 27.7898242 23.9449219 27.7898242 23.8194141 27.7369141 23.7135352 27.6309766 23.628832 27.5462734 23.5780289 27.4490078 23.5610958 27.3392697L23.5547461 27.2546289 23.5547461 24.0425781 22.3787972 24.0488325 22.3787972 24.0488325 20.7771094 24.067832C20.4651562 24.0730469 20.0580469 24.067832 19.5563672 24.0510156L19.089796 24.0304232C18.8022786 24.0142253 18.5618359 23.9931055 18.3685547 23.967168L17.9884669 23.9112583C17.7823711 23.8784969 17.5522031 23.8386016 17.2979883 23.7919141 16.8743555 23.71375 16.5234375 23.610625 16.2438867 23.4823633L15.887737 23.3136611C15.6990141 23.221975 15.4942852 23.1192695 15.2733984 23.0054688 14.9054297 22.8162109 14.5764258 22.5928516 14.2864453 22.3365625 13.9965234 22.0799219 13.6897266 21.7815625 13.3664062 21.4414844 13.0429687 21.101582 12.7306641 20.7139844 12.429668 20.2791016 13.087793 19.2418164 13.8460547 17.7194922 14.7047461 15.7121289ZM0.535253906 4.77144531L4.2825 4.77144531C7.07068359 4.77144531 9.35695312 6.02628906 11.1413672 8.53556641 10.472168 9.56160156 9.70839844 11.0839258 8.84947266 13.1025391L8.61711155 12.633227C8.47089193 12.3420117 8.34205078 12.0941211 8.23060547 11.8895898 8.06332031 11.5830859 7.83744141 11.2288867 7.55308594 10.8272266 7.26867187 10.4258008 6.98431641 10.1108594 6.69990234 9.88210937 6.41554687 9.65335937 6.06427734 9.45830078 5.64597656 9.29646484 5.29739258 9.16160156 4.92374349 9.08293132 4.52489366 9.0604541L4.28255859 9.05371094 0.535253906 9.05371094C0.379277344 9.05371094 0.250957031 9.00367187 0.15046875 8.90318359 0.070171875 8.82293359 0.02205 8.72498359 0.006013125 8.60900359L-1.09245946e-13 8.51863281-1.09245946e-13 5.30664062C-1.09245946e-13 5.15042969 0.0503320312 5.02228516 0.15046875 4.92203125 0.230671875 4.84164062 0.3288375 4.7935 0.444875625 4.77745937L0.535253906 4.77144531 4.2825 4.77144531 0.535253906 4.77144531Z"/>
	</svg>
	