<?xml version="1.0"?>
	<svg xmlns="http://www.w3.org/2000/svg" 
		width="30" 
		height="30" 
		viewbox="0 0 30 30" 
		code="80821" 
		 transform=""
		><path d="M17.75 4C15.739625 4 13.8575 4.53325 12.225125 5.456875L12.481625 5.681875 14.051 7.0555C15.1805 6.5425 16.430375 6.25 17.75 6.25 22.712375 6.25 26.75 10.287625 26.75 15.25 26.75 20.212375 22.712375 24.25 17.75 24.25 16.430375 24.25 15.1805 23.9575 14.051 23.445625L12.481625 24.81925 12.225125 25.04425C13.8575 25.96675 15.739625 26.5 17.75 26.5 23.96225 26.5 29 21.463375 29 15.25 29 9.036625 23.96225 4 17.75 4Z"/>
	</svg>
	