<?xml version="1.0"?>
	<svg xmlns="http://www.w3.org/2000/svg" 
		width="30" 
		height="30" 
		viewbox="0 0 30 30" 
		code="80823" 
		 transform=""
		><path d="M11.8082711 18.3758795C13.4386299 20.0058409 13.7561962 22.4509817 12.7617647 24.3993042L16.2072988 27.8452358C17.1440993 28.7820363 15.7200194 30.2061162 14.7832189 29.2693157L11.5038208 25.9903151C9.46646847 27.7299739 6.40129847 27.6361746 4.47443848 25.7093146 2.44940721 23.6842834 2.44940721 20.4009108 4.47443848 18.3758795 6.49986721 16.3504508 9.7832398 16.3504508 11.8082711 18.3758795ZM10.6370316 19.6081283L10.5574814 19.6727739 7.17196297 22.7399312 5.78405144 21.2168851C5.11671144 20.4831565 4.01512603 21.4389833 4.56241594 22.189774L4.62745851 22.2693449 6.53921522 24.3679053C6.81865893 24.6750384 7.28445919 24.7053084 7.60077901 24.4562663L11.6039794 20.8293669C12.3115034 20.1895609 11.4531674 19.1425279 10.7181113 19.5560733L10.6370316 19.6081283 10.6370316 19.6081283ZM21.0534629 0.0190405529L26.3956504 5.0885742 22.9997982 5.0885742C21.9294529 5.0885742 21.0534629 4.21298167 21.0534629 3.14184148L21.0534629 0.0190405529Z"/>
	</svg>
	