<?xml version="1.0"?>
	<svg xmlns="http://www.w3.org/2000/svg" 
		width="30" 
		height="30" 
		viewbox="0 0 30 30" 
		code="80827" 
		 transform=""
		><path d="M15 16.875C17.5375 16.875 19.75 18.2625 20.9375 20.3125 21.1591667 20.6975 20.9017222 21.1805 20.4802185 21.2431889L20.3875 21.25 9.6125 21.25C9.1375 21.25 8.825 20.725 9.0625 20.3125 10.25 18.2625 12.4625 16.875 15 16.875ZM13.0875 10.3625C13.4197917 10.6947917 13.4474826 11.2266493 13.1705729 11.592202L13.0875 11.6875 12.425 12.35 13.0875 13.0125C13.45 13.375 13.45 13.975 13.0875 14.3375 12.7552083 14.6697917 12.2233507 14.6974826 11.857798 14.4205729L11.7625 14.3375 11.1 13.675 10.4375 14.3375C10.075 14.7 9.475 14.7 9.1125 14.3375 8.78020833 14.0052083 8.75251736 13.4733507 9.02942708 13.107798L9.1125 13.0125 9.775 12.35 9.1125 11.6875C8.75 11.325 8.75 10.725 9.1125 10.3625 9.44479167 10.0302083 9.97664931 10.0025174 10.342202 10.2794271L10.4375 10.3625 11.1 11.025 11.7625 10.3625C12.125 10 12.725 10 13.0875 10.3625ZM18.9 11.025L19.5625 10.3625C19.925 10 20.525 10 20.8875 10.3625 21.2197917 10.6947917 21.2474826 11.2266493 20.9705729 11.592202L20.8875 11.6875 20.225 12.35 20.8875 13.0125C21.25 13.375 21.25 13.975 20.8875 14.3375 20.5552083 14.6697917 20.0233507 14.6974826 19.657798 14.4205729L19.5625 14.3375 18.9 13.675 18.2375 14.3375C17.875 14.7 17.275 14.7 16.9125 14.3375 16.5802083 14.0052083 16.5525174 13.4733507 16.8294271 13.107798L16.9125 13.0125 17.575 12.35 16.9125 11.6875C16.55 11.325 16.55 10.725 16.9125 10.3625 17.2447917 10.0302083 17.7766493 10.0025174 18.142202 10.2794271L18.2375 10.3625 18.9 11.025 19.5625 10.3625 18.9 11.025Z"/>
	</svg>
	