<?xml version="1.0"?>
	<svg xmlns="http://www.w3.org/2000/svg" 
		width="30" 
		height="30" 
		viewbox="0 0 30 30" 
		code="80825" 
		 transform=""
		><path d="M20 19C20.5522847 19 21 19.4477153 21 20 21 20.5522847 20.5522847 21 20 21L10 21C9.44771525 21 9 20.5522847 9 20 9 19.4477153 9.44771525 19 10 19L20 19ZM19.375 10C20.4125 10 21.25 10.8375 21.25 11.875 21.25 12.9125 20.4125 13.75 19.375 13.75 18.3375 13.75 17.5 12.9125 17.5 11.875 17.5 10.8375 18.3375 10 19.375 10ZM10.625 10C11.6625 10 12.5 10.8375 12.5 11.875 12.5 12.9125 11.6625 13.75 10.625 13.75 9.5875 13.75 8.75 12.9125 8.75 11.875 8.75 10.8375 9.5875 10 10.625 10Z"/>
	</svg>
	