<?xml version="1.0"?>
	<svg xmlns="http://www.w3.org/2000/svg" 
		width="30" 
		height="30" 
		viewbox="0 0 30 30" 
		code="80848" 
		 transform=""
		><path d="M19.7560976 23.4146341L27.804878 23.4146341C28.9632025 23.4146341 29.9139933 24.3150629 29.9944811 25.4531514L30 25.6097561 30 27.804878C30 28.9632025 29.0995712 29.9139933 27.9614828 29.9944811L27.804878 30 19.7560976 30C18.5977731 30 17.6469823 29.0995712 17.5664945 27.9614828L17.5609756 27.804878 17.5609756 25.6097561C17.5609756 24.4514316 18.4614044 23.5006409 19.5994928 23.4201531L19.7560976 23.4146341 27.804878 23.4146341 19.7560976 23.4146341ZM4.75609756 19.7560976L4.75609756 21.9512195 3.29268293 21.9512195 3.29268293 19.7560976 4.75609756 19.7560976ZM26.7073171 19.7560976L26.7073171 21.9512195 25.2439024 21.9512195 25.2439024 19.7560976 26.7073171 19.7560976ZM2.19512195 11.7073171L10.2439024 11.7073171C11.4022269 11.7073171 12.3530177 12.6077459 12.4335055 13.7458343L12.4390244 13.902439 12.4390244 16.097561C12.4390244 17.2558855 11.5385956 18.2066762 10.4005072 18.287164L10.2439024 18.2926829 2.19512195 18.2926829C1.03679745 18.2926829 0.0860067315 17.3922541 0.00551892664 16.2541657L-1.98063788e-13 16.097561-1.98063788e-13 13.902439C-1.98063788e-13 12.7441145 0.900428789 11.7933238 2.03851722 11.712836L2.19512195 11.7073171ZM7.31707317 2.56097561L7.31707317 4.02439024 6.2195122 4.02439024C5.45853659 4.02439024 4.83367373 4.60448983 4.76279358 5.34681904L4.75609756 5.48780488 4.75609756 10.2439024 3.29268293 10.2439024 3.29268293 5.48780488C3.29268293 3.9320122 4.5139575 2.65517359 6.04784047 2.56595527L6.2195122 2.56097561 7.31707317 2.56097561ZM23.7804878 2.56097561C25.3362805 2.56097561 26.6131191 3.78225019 26.7023374 5.31613315L26.7073171 5.48780488 26.7073171 10.2439024 25.2439024 10.2439024 25.2439024 5.48780488C25.2439024 4.72682927 24.6638029 4.10196641 23.9214736 4.03108627L23.7804878 4.02439024 22.6829268 4.02439024 22.6829268 2.56097561 23.7804878 2.56097561ZM19.0243902-3.86357613e-14C20.1827147-3.86357613e-14 21.1335055 0.900428789 21.2139933 2.03851722L21.2195122 2.19512195 21.2195122 4.3902439C21.2195122 5.5485684 20.3190834 6.49935912 19.180995 6.57984693L19.0243902 6.58536585 10.9756098 6.58536585C9.81728526 6.58536585 8.86649454 5.68493706 8.78600673 4.54684863L8.7804878 4.3902439 8.7804878 2.19512195C8.7804878 1.03679745 9.68091659 0.0860067315 10.819005 0.00551892664L10.9756098-3.86357613e-14 19.0243902-3.86357613e-14Z"/>
	</svg>
	