<?xml version="1.0"?>
	<svg xmlns="http://www.w3.org/2000/svg" 
		width="30" 
		height="30" 
		viewbox="0 0 30 30" 
		code="80834" 
		 transform=""
		><path d="M28.2315789 14.8421053C28.2315789 7.51578947 22.2947368 1.57894737 14.9684211 1.57894737 7.64210526 1.57894737 1.70526316 7.51578947 1.70526316 14.8421053 1.70526316 22.1684211 7.64210526 28.1052632 14.9684211 28.1052632 22.2947368 28.1052632 28.2315789 22.1684211 28.2315789 14.8421053ZM21.4736842 12.4105263C22.2631579 12.1894737 23.1473684 12.0631579 24.0631579 12.0631579 25.0105263 12.0631579 25.9263158 12.1894737 26.7157895 12.4105263 26.8736842 13.2 26.9684211 13.9894737 26.9684211 14.8105263 26.9684211 15.6315789 26.8736842 16.4526316 26.7157895 17.2105263 25.9263158 17.4315789 25.0105263 17.5578947 24.0631579 17.5578947 23.1473684 17.5578947 22.2631579 17.4315789 21.4736842 17.2105263 21.7578947 16.4526316 21.9157895 15.6315789 21.9157895 14.7789474 21.9157895 13.9894737 21.7578947 13.1684211 21.4736842 12.4105263ZM14.9684211 20.5263158C11.8421053 20.5263158 9.28421053 17.9684211 9.28421053 14.8421053 9.28421053 11.7157895 11.8421053 9.15789474 14.9684211 9.15789474 18.0947368 9.15789474 20.6526316 11.7157895 20.6526316 14.8421053 20.6526316 17.9684211 18.0947368 20.5263158 14.9684211 20.5263158ZM2.96842105 14.8421053C2.96842105 14.0526316 3.06315789 13.2631579 3.18947368 12.5052632 4.04210526 12.2526316 5.02105263 12.0947368 6.06315789 12.0947368 6.91578947 12.0947368 7.73684211 12.1894737 8.46315789 12.3789474 8.17894737 13.1368421 8.02105263 13.9578947 8.02105263 14.8421053 8.02105263 15.7263158 8.17894737 16.5473684 8.49473684 17.3052632 7.76842105 17.4947368 6.94736842 17.5894737 6.09473684 17.5894737 5.05263158 17.5894737 4.07368421 17.4315789 3.22105263 17.1789474 3.06315789 16.4210526 2.96842105 15.6315789 2.96842105 14.8421053ZM17.4631579 3.09473684C17.7157895 3.91578947 17.8421053 4.86315789 17.8421053 5.84210526 17.8421053 6.75789474 17.7157895 7.61052632 17.5263158 8.36842105 16.7368421 8.05263158 15.8842105 7.89473684 14.9684211 7.89473684 14.1473684 7.89473684 13.3578947 8.05263158 12.6 8.30526316 12.4105263 7.54736842 12.3157895 6.72631579 12.3157895 5.84210526 12.3157895 4.83157895 12.4421053 3.88421053 12.6947368 3.06315789 13.4210526 2.93684211 14.1789474 2.84210526 14.9684211 2.84210526 15.8210526 2.84210526 16.6421053 2.93684211 17.4631579 3.09473684ZM12.6947368 26.6210526C12.4421053 25.8 12.3157895 24.8526316 12.3157895 23.8421053 12.3157895 22.9578947 12.4105263 22.1368421 12.6 21.3789474 13.3263158 21.6315789 14.1157895 21.7894737 14.9684211 21.7894737 15.8526316 21.7894737 16.7368421 21.6315789 17.5263158 21.3157895 17.7157895 22.0736842 17.8421053 22.9578947 17.8421053 23.8421053 17.8421053 24.8210526 17.7157895 25.7684211 17.4631579 26.5894737 16.6421053 26.7473684 15.8210526 26.8421053 14.9684211 26.8421053 14.1789474 26.8421053 13.4526316 26.7789474 12.6947368 26.6210526Z"/>
	</svg>
	