<?xml version="1.0"?>
	<svg xmlns="http://www.w3.org/2000/svg" 
		width="30" 
		height="30" 
		viewbox="0 0 30 30" 
		code="80838" 
		 transform=""
		><path d="M20.9784141 4L27.1124709 4C27.6232982 4.00055046 28.0655933 4.18743181 28.439356 4.56064404 28.7663983 4.88720474 28.9503596 5.26665696 28.9912399 5.69900069L29 5.88752912 29 12.0215859C29 12.5423216 28.8698161 13.1172776 28.6094483 13.746454 28.3862758 14.285748 28.1214482 14.7275768 27.8149652 15.0719404L27.6582525 15.2360001 17.1158326 25.7932824C16.7519782 26.1571368 16.3096832 26.339064 15.7889475 26.339064 15.3414919 26.339064 14.9431348 26.199776 14.5938762 25.9212L14.4472 25.7932824 7.20754328 18.5387632C6.88917067 18.2203906 6.71008608 17.8419619 6.67028951 17.4034771L6.66176167 17.2118782C6.66176167 16.7637001 6.80104968 16.3652527 7.07962571 16.0159828L7.20754328 15.8693049 17.7499631 5.34174752C18.1231754 4.96798482 18.6243697 4.65091956 19.253546 4.39055174 19.7928401 4.16737932 20.2922987 4.03985222 20.751922 4.00797044L20.9784141 4 27.1124709 4 20.9784141 4ZM24.2820029 6.83129368C23.7612672 6.83129368 23.3164951 7.01569795 22.9476866 7.3845065 22.578878 7.75331505 22.3944738 8.19808715 22.3944738 8.7188228 22.3944738 9.23955845 22.578878 9.68433055 22.9476866 10.0531391 23.3164951 10.4219476 23.7612672 10.6063519 24.2820029 10.6063519 24.8027385 10.6063519 25.2475106 10.4219476 25.6163192 10.0531391 25.9851277 9.68433055 26.169532 9.23955845 26.169532 8.7188228 26.169532 8.19808715 25.9851277 7.75331505 25.6163192 7.3845065 25.2475106 7.01569795 24.8027385 6.83129368 24.2820029 6.83129368Z"/>
	</svg>
	