<?xml version="1.0"?>
	<svg xmlns="http://www.w3.org/2000/svg" 
		width="30" 
		height="30" 
		viewbox="0 0 30 30" 
		code="80845" 
		 transform=""
		><path d="M27.3952211 17.0276805L23.8783104 17.0276805C23.4778078 17.020036 23.1505453 16.7197472 23.0987828 16.3331574L23.0916236 16.2257392 23.0916236 3.31203494C23.0885235 2.90927845 23.3830045 2.57294607 23.7704826 2.5132392L23.8783104 2.50397191 27.3952211 2.50397191C28.7784708 2.50397191 29.9098894 3.58218868 29.9948754 4.94402053L30 5.10875085 30 14.4229016C30 15.8061513 28.9217832 16.93757 27.5599514 17.0225559L27.3952211 17.0276805 23.8783104 17.0276805 27.3952211 17.0276805ZM26.5473671 6.96975317C26.8344588 6.96975317 27.1097476 6.8554898 27.3124647 6.65219834 27.5151819 6.44890688 27.6286586 6.17329603 27.6278539 5.88620543 27.6278539 5.44767662 27.3635153 5.0523867 26.9582486 4.88485636 26.5529819 4.71732603 26.0866932 4.81059142 25.7770455 5.1211164 25.4673977 5.43164138 25.3754517 5.89819199 25.5441278 6.30298315 25.7128039 6.70777432 26.10884 6.97098327 26.5473671 6.96975317Z"/>
	</svg>
	