<?xml version="1.0"?>
	<svg xmlns="http://www.w3.org/2000/svg" 
		width="30" 
		height="30" 
		viewbox="0 0 30 30" 
		code="80846" 
		 transform=""
		><path d="M18.756857 4.79680299L18.756857 10.1440989C18.7560436 10.410083 18.8611356 10.6654519 19.0489283 10.8538189 19.236721 11.0421859 19.4917679 11.1480572 19.7577532 11.148056L27.593516 11.148056C28.3055947 11.1478663 28.9811746 11.463132 29.4384294 12.0090021 29.8956842 12.5548722 30.0876313 13.2752589 29.9626098 13.9762766L28.2791452 23.3669484C27.8508688 25.7562618 25.7724568 27.4955781 23.3450634 27.4960281L13.2963098 27.4960281 13.2963098 27.4960281 9.58962679 27.4960281C9.37587381 27.4960281 9.17096365 27.4107045 9.02039326 27.2589847 8.86982287 27.1072649 8.78605374 26.9017118 8.78766205 26.6879651L8.78766205 13.8875121C8.78766205 13.6751044 8.87227145 13.4714408 9.02275326 13.3215333 9.17323507 13.1716259 9.37722067 13.0878177 9.58962679 13.0886316L10.6425574 13.0886316C11.3479983 13.0852501 11.9687436 12.6221742 12.1729798 11.9469365L14.9644703 2.71236767C15.0438355 2.4487405 15.2282881 2.22944563 15.474421 2.1060896 15.7205539 1.98273358 16.0066308 1.96621014 16.2653293 2.06040773L17.0427839 2.34506629C18.0756686 2.71799754 18.7637207 3.69865547 18.7629787 4.79680299L18.756857 4.79680299Z"/>
	</svg>
	