<?xml version="1.0"?>
	<svg xmlns="http://www.w3.org/2000/svg" 
		width="30" 
		height="30" 
		viewbox="0 0 30 30" 
		code="80847" 
		 transform=""
		><path d="M2.60477893 12.9723195L6.12168962 12.9723195C6.52219221 12.979964 6.84945474 13.2802528 6.90121723 13.6668426L6.90837637 13.7742608 6.90837637 26.6879651C6.9114765 27.0907215 6.61699553 27.4270539 6.22951745 27.4867608L6.12168962 27.4960281 2.60477893 27.4960281C1.22152924 27.4960281 0.0901105643 26.4178113 0.00512458596 25.0559795L-7.59392549e-14 24.8912492-7.59392549e-14 15.5770984C-7.59392549e-14 14.1938487 1.07821676 13.06243 2.44004861 12.9774441L2.60477893 12.9723195 6.12168962 12.9723195 2.60477893 12.9723195ZM3.45263294 23.0302468C3.16554119 23.0302468 2.89025245 23.1445102 2.68753526 23.3478017 2.48481807 23.5510931 2.37134144 23.826704 2.37214609 24.1137946 2.37214609 24.5523234 2.6364847 24.9476133 3.04175141 25.1151436 3.44701811 25.282674 3.91330676 25.1894086 4.22295454 24.8788836 4.53260233 24.5683586 4.62454829 24.101808 4.45587219 23.6970168 4.28719609 23.2922257 3.89116 23.0290167 3.45263294 23.0302468Z"/>
	</svg>
	