<?xml version="1.0"?>
	<svg xmlns="http://www.w3.org/2000/svg" 
		width="30" 
		height="30" 
		viewbox="0 0 30 30" 
		code="80844" 
		 transform=""
		><path d="M11.243143 25.203197L11.243143 19.8559011C11.2439564 19.589917 11.1388644 19.3345481 10.9510717 19.1461811 10.763279 18.9578141 10.5082321 18.8519428 10.2422468 18.851944L2.40648405 18.851944C1.69440535 18.8521337 1.01882541 18.536868 0.561570595 17.9909979 0.104315782 17.4451278-0.0876313142 16.7247411 0.0373901673 16.0237234L1.72085481 6.63305156C2.14913115 4.24373817 4.22754321 2.50442188 6.65493664 2.50397191L20.4103732 2.50397191C20.6241262 2.50397191 20.8290363 2.58929551 20.9796067 2.74101529 21.1301771 2.89273508 21.2139463 3.09828819 21.2123607 3.31203494L21.2123607 16.1124879C21.2123607 16.3248956 21.1277286 16.5285592 20.9772467 16.6784667 20.8267649 16.8283741 20.6227793 16.9121823 20.4103732 16.9113684L19.3574426 16.9113684C18.6520017 16.9147499 18.0312564 17.3778258 17.8270202 18.0530635L15.0355297 27.2876323C14.9561645 27.5512595 14.7717119 27.7705544 14.525579 27.8939104 14.2794461 28.0172664 13.9933692 28.0337899 13.7346707 27.9395923L12.9572161 27.6549337C11.9243314 27.2820025 11.2362793 26.3013445 11.2370213 25.203197L11.243143 25.203197Z"/>
	</svg>
	