<?xml version="1.0"?>
	<svg xmlns="http://www.w3.org/2000/svg" 
		width="30" 
		height="30" 
		viewbox="0 0 30 30" 
		code="81150" 
		 transform=""
		><path d="M14.9080395 0.580687029L14.9714526 0.710549212 26.3696468 28.4041454C26.5921363 28.9481436 26.3726571 29.5649689 25.8781956 29.8488044L25.748948 29.9125912 25.6130278 29.9593493C25.1108519 30.0976103 24.5762053 29.8747279 24.3175724 29.4193025L24.2541112 29.2894266 23.0248545 26.2985427C22.9205209 26.2973366 22.8170107 26.2824612 22.7168907 26.2544569L22.5695742 26.2026712 16.266472 23.5407081 10.9042823 22.5717943 17.9368447 13.9336728 17.1648917 12.0585696 8.122014 20.0918849 2.7441424 17.8190171C2.31395207 17.636962 2.02530763 17.2225015 2.00157836 16.7527798 1.98048568 16.3352493 2.17202591 15.9397203 2.50253885 15.6988365L2.63285167 15.6160131 15.540047 8.10948095 12.8589522 1.59430059C12.6373996 1.05134202 12.8556647 0.435964984 13.3483334 0.151400496L13.4771216 0.0873846537 13.6130093 0.0406347088C14.1150649-0.097596943 14.6495791 0.125305694 14.9080395 0.580687029ZM28.084933 2.92442035L28.0697349 3.06336725 25.1039023 21.1956522 20.7830774 10.5826167 23.3189847 7.43413229C23.5379248 7.16356112 23.2161693 6.81364953 22.9481744 6.96559758L22.8875544 7.0098358 20.2789059 9.3501121 18.9565217 6.10194355 26.2808041 1.79558978C27.067356 1.33202379 28.0362451 1.90256817 28.0850361 2.7829444L28.084933 2.92442035Z"/>
	</svg>
	