<?xml version="1.0"?>
	<svg xmlns="http://www.w3.org/2000/svg" 
		width="30" 
		height="30" 
		viewbox="0 0 30 30" 
		code="80855" 
		 transform=""
		><path d="M24.3389575 4.58863284L24.4491967 4.58372196C24.849591 4.58963331 25.2023248 4.85437572 25.3198434 5.23718106L25.3459212 5.34440394 28.7494987 24.0871506C28.8403675 24.593984 28.5350005 25.0782923 28.0556626 25.2229261L27.9420591 25.2501291 9.20346577 28.6096338C9.16469647 28.6165845 9.1260479 28.6211998 9.08766471 28.6235802L8.97345594 28.6241169C8.55867049 28.6022373 8.19349984 28.322084 8.07048339 27.9173395L8.04308194 27.803966 7.5 24.8127473 23.3389575 24.8127473C23.8517933 24.8127473 24.2744647 24.4267071 24.3322298 23.9293684L24.3389575 23.8127473 24.3389575 4.58863284 24.4491967 4.58372196 24.3389575 4.58863284Z"/>
	</svg>
	