<?xml version="1.0"?>
	<svg xmlns="http://www.w3.org/2000/svg" 
		width="30" 
		height="30" 
		viewbox="0 0 30 30" 
		code="80860" 
		 transform=""
		><path d="M26 7L1 7C0.44771525 7 0 7.44771525 0 8L0 26C0 26.5522847 0.44771525 27 1 27L26 27C26.5522847 27 27 26.5522847 27 26L27 8C27 7.44771525 26.5522847 7 26 7ZM8 10C9.65685425 10 11 11.34314575 11 13 11 14.65685425 9.65685425 16 8 16 6.34314575 16 5 14.65685425 5 13 5 11.34314575 6.34314575 10 8 10ZM13 23C13 23.5522847 12.5522847 24 12 24L4 24C3.44771525 24 3 23.5522847 3 23L3 21C3 18.790861 4.790861 17 7 17L9 17C11.209139 17 13 18.790861 13 21L13 23ZM21 19L15 19C14.4477153 19 14 18.5522847 14 18 14 17.4477153 14.4477153 17 15 17L21 17C21.5522847 17 22 17.4477153 22 18 22 18.5522847 21.5522847 19 21 19ZM23 16L15 16C14.4477153 16 14 15.55228475 14 15 14 14.44771525 14.4477153 14 15 14L23 14C23.5522847 14 24 14.44771525 24 15 24 15.55228475 23.5522847 16 23 16Z"/>
	</svg>
	