<?xml version="1.0"?>
	<svg xmlns="http://www.w3.org/2000/svg" 
		width="30" 
		height="30" 
		viewbox="0 0 30 30" 
		code="80864" 
		 transform=""
		><path d="M12.806640625 12.83203125C13.46609158 12.160590278 14.57849875 12.123288002 15.28827817 12.720124421L15.40917969 12.83203125 26.8095703 24.3212891C27.5078125 25.0322266 27.5205078 26.2001953 26.8095703 26.9238281 26.1501194 27.5952691 25.0377122 27.6325714 24.3279328 27.035735000000003L24.2070313 26.9238281 12.806640625 15.43457031C12.108398437 14.72363281 12.095703125 13.55566406 12.806640625 12.83203125ZM18.51953125 17.68164063L14.79980469 13.94921875C14.49511719 13.65722656 14.13964844 13.56835938 13.87304687 13.82226563 13.60538737 14.089925130000001 13.66842312 14.41092258 13.90569616 14.68747174L13.97460937 14.76171875 17.719726559999998 18.506835940000002 18.51953125 17.68164063 14.79980469 13.94921875 18.51953125 17.68164063Z"/>
	</svg>
	