<?xml version="1.0"?>
	<svg xmlns="http://www.w3.org/2000/svg" 
		width="32" 
		height="32" 
		viewbox="0 0 32 32" 
		code="82344" 
		 transform=""
		><path d="M8 16C8 11.5817 11.5817 8 16 8 20.4183 8 24 11.5817 24 16 24 20.4183 20.4183 24 16 24 11.5817 24 8 20.4183 8 16ZM23 16C23 12.134 19.866 9 16 9 12.134 9 9 12.134 9 16 9 19.866 12.134 23 16 23 19.866 23 23 19.866 23 16ZM18.1579 20.6261C18.2328 20.6261 18.3077 20.6074 18.3826 20.5699 18.6636 20.4388 18.776 20.1204 18.6449 19.8395 18.6449 19.8395 17.6147 17.4795 17.4274 16.6179 17.3556 16.3306 17.3182 15.5782 17.2987 15.1866L17.2963 15.1383C17.2963 15.0072 17.3712 14.8948 17.4836 14.8573L19.7874 14.1643C20.0683 14.0894 20.2369 13.771 20.162 13.4901 20.0871 13.2091 19.7686 13.0405 19.4877 13.1155 19.4877 13.1155 17.3525 13.8085 16.5846 13.8085 15.8354 13.8085 13.7189 13.1342 13.7189 13.1342 13.4379 13.0593 13.1195 13.1904 13.0259 13.4713 12.9322 13.771 13.1008 14.0894 13.4005 14.1643L15.7043 14.8573C15.8166 14.8948 15.9103 15.0072 15.8916 15.1383L15.8892 15.1866C15.8697 15.5782 15.8323 16.3306 15.7604 16.6179 15.5731 17.4795 14.543 19.8395 14.543 19.8395 14.4119 20.1204 14.543 20.4388 14.8052 20.5699 14.8801 20.6074 14.9551 20.6261 15.03 20.6261 15.236 20.6261 15.442 20.5138 15.517 20.3077L16.622 18.0601 17.6709 20.3265C17.7645 20.5138 17.9518 20.6261 18.1579 20.6261ZM16.6221 13.0977C17.2014 13.0977 17.671 12.6281 17.671 12.0489 17.671 11.4696 17.2014 11 16.6221 11 16.0428 11 15.5732 11.4696 15.5732 12.0489 15.5732 12.6281 16.0428 13.0977 16.6221 13.0977Z"/>
	</svg>
	