<?xml version="1.0"?>
	<svg xmlns="http://www.w3.org/2000/svg" 
		width="30" 
		height="30" 
		viewbox="0 0 30 30" 
		code="80871" 
		 transform=""
		><path d="M5.87316692 14.7544111L8.12306491 17.0042643C7.50626584 17.9108841 7.14517774 19.0047264 7.14517774 20.1815796 7.14517774 23.3042566 9.68570325 25.8447821 12.8083802 25.8447821 13.8870801 25.8447821 14.8961032 25.5412548 15.7550763 25.0157127L15.9855611 24.8669397 18.2354142 27.1167032C16.7394266 28.2890742 14.8563539 28.989915 12.8083802 28.989915 7.9435966 28.989915 4 25.0463632 4 20.1815796 4 18.2541593 4.620814 16.4725723 5.67122684 15.0223911L5.87316692 14.7544111ZM13.8803045 1.62633076L21.7800927 6.21716074 21.7800927 6.21716074C22.1872581 6.47157187 22.4522921 6.8697728 22.5483462 7.30741731 22.7152008 7.89286695 22.6160782 8.54223095 22.2357532 9.05937533L22.1250448 9.19698918 18.8201654 12.9609382 24.8254961 12.6266538C25.3216785 12.5994915 25.807238 12.787745 26.154745 13.144306 26.4634807 13.4611695 26.6369661 13.8830388 26.6432488 14.3213919L26.6377048 14.486374 25.911898 23.3918841C25.8385688 24.2922287 25.0848825 24.9743787 24.1971329 24.9743787L24.0553601 24.9686862 24.0553601 24.9686862C23.1571363 24.8953523 22.4761854 24.1455395 22.472736 23.260691L22.4785131 23.1120587 23.0439907 16.1758145 20.7194637 16.305306C21.2936816 17.4750773 21.616626 18.7905657 21.616626 20.1816244 21.616626 22.4053206 20.791246 24.4349293 19.4318088 25.9847806L19.2239243 26.2136244 16.9981855 23.9877512C17.9130077 22.9815363 18.4714482 21.645609 18.4714482 20.1816244 18.4714482 17.0589474 15.9309675 14.5184219 12.8083354 14.5184219 11.4358499 14.5184219 10.1758358 15.0092388 9.19459989 15.8244551L9.00211901 15.9917743 6.77624575 13.7659011C7.94140927 12.6698893 9.40440932 11.8873322 11.031321 11.5535029L11.3824049 11.4888856 15.6448223 6.63441113 13.230068 5.23214683 10.3090912 7.83770943C9.59928594 8.47109274 8.5105085 8.40874498 7.87725966 7.69893972 7.28130294 7.03080335 7.30131631 6.02708754 7.89753957 5.38344629L8.01607419 5.26715301 11.8689057 1.83036167C12.4247017 1.33462751 13.2362535 1.25219938 13.8803045 1.62633076ZM22.9646553-4.64517314e-13C24.5568764-4.64517314e-13 25.8474884 1.29088099 25.8474884 2.88310201 25.8474884 4.47541267 24.5568764 5.7661592 22.9646553 5.7661592 21.3722102 5.7661592 20.0815533 4.47541267 20.0815533 2.88310201 20.0815533 1.29088099 21.372255-4.64517314e-13 22.9646553-4.64517314e-13Z"/>
	</svg>
	