<?xml version="1.0"?>
	<svg xmlns="http://www.w3.org/2000/svg" 
		width="24" 
		height="24" 
		viewbox="0 0 24 24" 
		code="82349" 
		 transform=""
		><path d="M17.1436 6.8833C16.5146 6.26123 15.6465 6.14502 14.5049 6.14502H9.45996C8.35938 6.14502 7.48438 6.26807 6.8623 6.89014 6.24023 7.50537 6.12402 8.37354 6.12402 9.48096V14.4849C6.12402 15.6333 6.2334 16.4946 6.85547 17.1099 7.48438 17.7319 8.35254 17.855 9.49414 17.855H14.5049C15.6465 17.855 16.5215 17.7319 17.1436 17.1099 17.7656 16.4878 17.875 15.6333 17.875 14.4849V9.51514C17.875 8.3667 17.7656 7.50537 17.1436 6.8833ZM16.9863 9.3374V14.6558C16.9863 15.3872 16.877 16.064 16.4873 16.4604 16.0908 16.8569 15.4004 16.9595 14.6826 16.9595H9.31641C8.59863 16.9595 7.9082 16.8501 7.51172 16.4604 7.11523 16.064 7.01953 15.3872 7.01953 14.6558V9.37158C7.01953 8.61963 7.11523 7.9292 7.51172 7.53271 7.90137 7.13623 8.60547 7.03369 9.35059 7.03369H14.6826C15.4004 7.03369 16.0908 7.14307 16.4873 7.53955 16.8838 7.93604 16.9863 8.61279 16.9863 9.3374ZM9.4873 12.4478H11.5381V14.5054C11.5381 14.7788 11.7295 14.9702 11.9961 14.9702 12.2764 14.9702 12.4678 14.7788 12.4678 14.5054V12.4478H14.5254C14.7988 12.4478 14.9902 12.2563 14.9902 11.9897 14.9902 11.7163 14.7988 11.5181 14.5254 11.5181H12.4678V9.46729C12.4678 9.18701 12.2764 8.99561 11.9961 8.99561 11.7295 8.99561 11.5381 9.18701 11.5381 9.46729V11.5181H9.4873C9.20703 11.5181 9.01562 11.7163 9.01562 11.9897 9.01562 12.2563 9.20703 12.4478 9.4873 12.4478Z"/>
	</svg>
	