<?xml version="1.0"?>
	<svg xmlns="http://www.w3.org/2000/svg" 
		width="16" 
		height="16" 
		viewbox="0 0 16 16" 
		code="82347" 
		 transform=""
		><path d="M4.47682 8.46879H7.52904V11.5261C7.52904 11.7809 7.74306 12 8.00293 12 8.2628 12 8.47172 11.7809 8.47172 11.5261V8.46879H11.529C11.7838 8.46879 11.9978 8.25987 11.9978 8 11.9978 7.74013 11.7838 7.53121 11.529 7.53121H8.47172V4.47389C8.47172 4.21911 8.2628 4 8.00293 4 7.74306 4 7.52904 4.21911 7.52904 4.47389V7.53121H4.47682C4.22204 7.53121 4.00293 7.74013 4.00293 8 4.00293 8.25987 4.22204 8.46879 4.47682 8.46879Z"/>
	</svg>
	