<?xml version="1.0"?>
	<svg xmlns="http://www.w3.org/2000/svg" 
		width="24" 
		height="24" 
		viewbox="0 0 24 24" 
		code="82348" 
		 transform=""
		><path d="M17.2231 6.78382C16.5503 6.11098 15.6139 6 14.4624 6H9.5237C8.39306 6 7.44971 6.11098 6.78382 6.78382 6.11098 7.45665 6 8.38613 6 9.51676V14.4624C6 15.6069 6.11098 16.5434 6.77688 17.2092 7.44971 17.8821 8.39306 18 9.53757 18H14.4624C15.6139 18 16.5503 17.8821 17.2231 17.2092 17.896 16.5364 18 15.6069 18 14.4624V9.53064C18 8.38613 17.896 7.44971 17.2231 6.78382ZM8.84393 12.0069C8.84393 11.6462 9.09364 11.4035 9.4474 11.4035H11.4104V9.44046C11.4104 9.08671 11.6532 8.83699 12 8.83699 12.3538 8.83699 12.6035 9.08671 12.6035 9.44046V11.4035H14.5665C14.9202 11.4035 15.1699 11.6462 15.1699 12.0069 15.1699 12.3538 14.9133 12.5965 14.5665 12.5965H12.6035V14.5595C12.6035 14.9064 12.3538 15.1561 12 15.1561 11.6532 15.1561 11.4104 14.9064 11.4104 14.5595V12.5965H9.4474C9.09364 12.5965 8.84393 12.3538 8.84393 12.0069Z"/>
	</svg>
	