<?xml version="1.0"?>
	<svg xmlns="http://www.w3.org/2000/svg" 
		width="30" 
		height="30" 
		viewbox="0 0 30 30" 
		code="80872" 
		 transform=""
		><path d="M16.25 14C18.6931818 14 23.5240186 15.1938275 23.7423401 17.5814824L23.75 17.75 23.75 25.25C23.75 25.8945313 23.2556152 26.4291992 22.6273346 26.493515L22.5 26.5 10 26.5C9.35546875 26.5 8.82080078 26.0056152 8.75648499 25.3773346L8.75 25.25 8.75 17.75C8.75 15.25 13.75 14 16.25 14ZM24.525 14.2C26.9613636 14.6242424 29.8208678 15.753719 29.9919338 17.577032L30 17.75 30 24.625C30 24.9431818 29.7727273 25.1993802 29.4684448 25.2433321L29.375 25.25 26.1875 25.25C26.2125 25.1166667 26.2319444 24.9777778 26.2421296 24.837037L26.25 24.625 26.25 17.75C26.25 16.275 25.5625 15.1125 24.525 14.2ZM5 6.5C5.64453125 6.5 6.17919922 6.99438477 6.24351501 7.62266541L6.25 7.75 6.25 10.25 8.75 10.25C9.4375 10.25 10 10.8125 10 11.5 10 12.1445312 9.50561523 12.6791992 8.87733459 12.743515L8.75 12.75 6.25 12.75 6.25 15.25C6.25 15.9375 5.6875 16.5 5 16.5 4.35546875 16.5 3.82080078 16.0056152 3.75648499 15.3773346L3.75 15.25 3.75 12.75 1.25 12.75C0.5625 12.75 0 12.1875 0 11.5 0 10.8554688 0.494384766 10.3208008 1.12266541 10.256485L1.25 10.25 3.75 10.25 3.75 7.75C3.75 7.0625 4.3125 6.5 5 6.5ZM16.25 4C18.325 4 19.9875 5.675 19.9875 7.75 19.9875 9.825 18.325 11.5 16.25 11.5 14.175 11.5 12.5 9.825 12.5 7.75 12.5 5.675 14.175 4 16.25 4ZM22.5 4C24.575 4 26.2375 5.675 26.2375 7.75 26.2375 9.825 24.575 11.5 22.5 11.5 22.1 11.5 21.7125 11.4375 21.3625 11.325 22.0625 10.3 22.4875 9.0875 22.4875 7.75 22.4875 6.4125 22.075 5.1875 21.3625 4.175 21.7125 4.0625 22.1 4 22.5 4Z"/>
	</svg>
	