<?xml version="1.0"?>
	<svg xmlns="http://www.w3.org/2000/svg" 
		width="24" 
		height="24" 
		viewbox="0 0 24 24" 
		code="82351" 
		 transform=""
		><path d="M8.06934 17.8857H15.9375C17.2363 17.8857 17.8857 17.2363 17.8857 15.958V8.04883C17.8857 6.77051 17.2363 6.11426 15.9375 6.11426H8.06934C6.77051 6.11426 6.11426 6.76367 6.11426 8.04883V15.958C6.11426 17.2363 6.77051 17.8857 8.06934 17.8857ZM8.08301 16.9971C7.38574 16.9971 7.00977 16.6279 7.00977 15.9102V8.09668C7.00977 7.37891 7.38574 7.00977 8.08301 7.00977H15.917C16.6006 7.00977 16.9971 7.37891 16.9971 8.09668V15.9102C16.9971 16.6279 16.6006 16.9971 15.917 16.9971H8.08301ZM9.49121 12.4512H11.542V14.5088C11.542 14.7822 11.7334 14.9736 12 14.9736 12.2734 14.9736 12.4717 14.7822 12.4717 14.5088V12.4512H14.5225C14.8027 12.4512 14.9941 12.2598 14.9941 11.9932 14.9941 11.7197 14.8027 11.5215 14.5225 11.5215H12.4717V9.4707C12.4717 9.19043 12.2734 8.99902 12 8.99902 11.7334 8.99902 11.542 9.19043 11.542 9.4707V11.5215H9.49121C9.21094 11.5215 9.0127 11.7197 9.0127 11.9932 9.0127 12.2598 9.21094 12.4512 9.49121 12.4512Z"/>
	</svg>
	