<?xml version="1.0"?>
	<svg xmlns="http://www.w3.org/2000/svg" 
		width="25" 
		height="24" 
		viewbox="0 0 25 24" 
		code="82345" 
		 transform=""
		><path d="M12.0218 18C15.3036 18 18.0218 15.2817 18.0218 12 18.0218 8.71827 15.2974 6 12.0156 6 8.73389 6 6.01562 8.71827 6.01562 12 6.01562 15.2817 8.74008 18 12.0218 18ZM9.1921 12.0062C9.1921 11.6842 9.41501 11.4675 9.7308 11.4675H11.4831V9.71517C11.4831 9.39938 11.6998 9.17647 12.0094 9.17647 12.3252 9.17647 12.5481 9.39938 12.5481 9.71517V11.4675H14.3005C14.6162 11.4675 14.8392 11.6842 14.8392 12.0062 14.8392 12.3158 14.6101 12.5325 14.3005 12.5325H12.5481V14.2848C12.5481 14.5944 12.3252 14.8173 12.0094 14.8173 11.6998 14.8173 11.4831 14.5944 11.4831 14.2848V12.5325H9.7308C9.41501 12.5325 9.1921 12.3158 9.1921 12.0062Z"/>
	</svg>
	