<?xml version="1.0"?>
	<svg xmlns="http://www.w3.org/2000/svg" 
		width="24" 
		height="24" 
		viewbox="0 0 24 24" 
		code="82346" 
		 transform=""
		><path d="M12.0059 18C15.2972 18 18.0059 15.2928 18.0059 12.0032 18.0059 8.7136 15.2972 6 12.0059 6 8.7145 6 6.00586 8.7136 6.00586 12.0032 6.00586 15.2928 8.7145 18 12.0059 18ZM12.0059 17.3536C9.04108 17.3536 6.6526 14.96 6.6526 12.0032 6.6526 9.04 9.04108 6.6464 12.0059 6.6464 14.9706 6.6464 17.3655 9.04 17.3655 12.0032 17.3655 14.96 14.9706 17.3536 12.0059 17.3536ZM9.57256 12.3296H11.6793V14.4416C11.6793 14.6272 11.8202 14.768 11.9995 14.768 12.1852 14.768 12.326 14.6336 12.326 14.4416V12.3296H14.4392C14.6313 12.3296 14.7657 12.1888 14.7657 12.016 14.7657 11.824 14.6313 11.6832 14.4392 11.6832H12.326V9.5712C12.326 9.3792 12.1852 9.2448 11.9995 9.2448 11.8202 9.2448 11.6793 9.3856 11.6793 9.5712V11.6832H9.57256C9.37406 11.6832 9.23958 11.824 9.23958 12.016 9.23958 12.1888 9.38046 12.3296 9.57256 12.3296Z"/>
	</svg>
	