<?xml version="1.0"?>
	<svg xmlns="http://www.w3.org/2000/svg" 
		width="25" 
		height="24" 
		viewbox="0 0 25 24" 
		code="82350" 
		 transform=""
		><path d="M8.09507 18H15.9557C17.3264 18 18.0254 17.3078 18.0254 15.9509V8.04226C18.0254 6.69218 17.3264 6 15.9557 6H8.09507C6.72442 6 6.02539 6.68532 6.02539 8.04226V15.9509C6.02539 17.3078 6.72442 18 8.09507 18ZM8.9106 11.9966C8.9106 11.6402 9.15732 11.4003 9.50683 11.4003H11.4463V9.46088C11.4463 9.11136 11.6862 8.86465 12.0288 8.86465 12.3783 8.86465 12.625 9.11136 12.625 9.46088V11.4003H14.5645C14.914 11.4003 15.1607 11.6402 15.1607 11.9966 15.1607 12.3392 14.9072 12.5791 14.5645 12.5791H12.625V14.5186C12.625 14.8612 12.3783 15.1079 12.0288 15.1079 11.6862 15.1079 11.4463 14.8612 11.4463 14.5186V12.5791H9.50683C9.15732 12.5791 8.9106 12.3392 8.9106 11.9966Z"/>
	</svg>
	