<?xml version="1.0"?>
	<svg xmlns="http://www.w3.org/2000/svg" 
		width="32" 
		height="32" 
		viewbox="0 0 32 32" 
		code="82352" 
		 transform=""
		><path d="M22.8571 10H9.14286C8.51167 10 8 10.5089 8 11.1367V20.8633C8 21.4911 8.51167 22 9.14286 22H22.8571C23.4883 22 24 21.4911 24 20.8633V11.1367C24 10.5089 23.4883 10 22.8571 10ZM9.36842 11H22.6316C22.8351 11 23 11.1618 23 11.3614V20.6386C23 20.8382 22.8351 21 22.6316 21H9.36842C9.16495 21 9 20.8382 9 20.6386V11.3614C9 11.1618 9.16495 11 9.36842 11ZM18.393 17.4719C18.2672 17.6243 18.1414 17.6908 18 17.6908 17.9017 17.6908 17.7917 17.6556 17.6738 17.5931L14.1682 15.7246 11.7277 17.1357C11.6413 17.1865 11.5548 17.2061 11.4684 17.2061 11.2365 17.2061 11.0479 17.0341 11.0479 16.8191 11.0479 16.7292 11.0793 16.6315 11.1579 16.5299L13.7674 13.2504C13.8892 13.0979 14.015 13.0315 14.1565 13.0315 14.2547 13.0315 14.3608 13.0627 14.4787 13.1253L17.9921 14.9976 20.4287 13.5826C20.523 13.5318 20.6134 13.5083 20.6999 13.5083 20.9317 13.5083 21.1086 13.6842 21.1086 13.8992 21.1086 13.993 21.0771 14.0908 20.9985 14.1885L18.393 17.4719Z"/>
	</svg>
	