<?xml version="1.0"?>
	<svg xmlns="http://www.w3.org/2000/svg" 
		width="24" 
		height="24" 
		viewbox="0 0 24 24" 
		code="82353" 
		 transform=""
		><path d="M15.2093 5.58361C15.4343667 5.58361 15.6215074 5.74573543 15.6603156 5.95953757L15.6677 6.04192 15.6671125 7.43977125 15.6654 7.46238C16.712 7.67423 17.4999 8.59929 17.4999 9.70837 17.4999 10.8175 16.712 11.7425 15.6654 11.9544L15.6671125 11.97705 15.6671125 11.97705 15.6677 17.9581C15.6677 18.2112 15.4625 18.4164 15.2093 18.4164 14.9843222 18.4164 14.7971914 18.2542667 14.7583842 18.0404768L14.751 17.9581 14.751575 11.9772125 14.7532 11.9548C13.7056 11.7437 12.9168 10.8182 12.9168 9.70837 12.9168 8.59859 13.7056 7.67307 14.7532 7.46198 14.7518 7.44714 14.751 7.43209 14.751 7.41687L14.751 6.04192C14.751 5.7888 14.9562 5.58361 15.2093 5.58361ZM8.79179 5.5836C9.04491 5.5836 9.25011 5.78879 9.25011 6.04191L9.25011 12C9.25011 12.0153 9.24936 12.0305 9.24789 12.0454 10.2949 12.2569 11.0833 13.1822 11.0833 14.2916 11.0833 15.4009 10.2949 16.3262 9.24788 16.5377 9.24935 16.5527 9.25011 16.5678 9.25011 16.5832L9.25011 17.9581C9.25011 18.2112 9.04491 18.4164 8.79179 18.4164 8.53867 18.4164 8.33348 18.2112 8.33348 17.9581L8.33348 16.5832C8.33348 16.5678 8.33423 16.5527 8.3357 16.5378 7.28855 16.3263 6.5001 15.401 6.5001 14.2916 6.5001 13.1821 7.28854 12.2568 8.33569 12.0453L8.3340375 12.0228 8.33348 6.04191C8.33348 5.78879 8.53867 5.5836 8.79179 5.5836ZM8.79168 13C8.07836 13 7.5001 13.5782 7.5001 14.2916 7.5001 15.0049 8.07836 15.5831 8.79168 15.5831 9.505 15.5831 10.0833 15.0049 10.0833 14.2916 10.0833 13.5782 9.505 13 8.79168 13ZM15.2083 8.41679C14.495 8.41679 13.9168 8.99505 13.9168 9.70837 13.9168 10.4217 14.495 10.9999 15.2083 10.9999 15.9217 10.9999 16.4999 10.4217 16.4999 9.70837 16.4999 8.99505 15.9217 8.41679 15.2083 8.41679Z"/>
	</svg>
	