<?xml version="1.0"?>
	<svg xmlns="http://www.w3.org/2000/svg" 
		width="32" 
		height="32" 
		viewbox="0 0 32 32" 
		code="82358" 
		 transform=""
		><path d="M8 8V8.94118H8.94118V8H8ZM8.94118 17.4118H8V14.5882H8.94118V15.5294H9.88235V16.4706H8.94118V17.4118ZM24 21.1765H23.0588V19.2941H24V21.1765ZM8 21.1765H8.94118V19.2941H8V21.1765ZM16.4706 16.4706H15.5294V15.5294H16.4706V16.4706ZM8 10.8235H8.94118V12.7059H8V10.8235ZM19.2941 8V8.94118H21.1765V8H19.2941ZM10.8235 8.94118V8H12.7059V8.94118H10.8235ZM14.5882 8V8.94118H15.5294V9.88235H16.4706V8.94118H17.4118V8H14.5882ZM23.0588 17.4118V16.4706H22.1176V15.5294H23.0588V14.5882H24V17.4118H23.0588ZM23.0588 12.7059H24V10.8235H23.0588V12.7059ZM23.0588 8.94118V8H24V8.94118H23.0588ZM18.3529 15.5294V16.4706H20.2353V15.5294H18.3529ZM16.4706 20.2353H15.5294V18.3529H16.4706V20.2353ZM15.5294 13.6471H16.4706V11.7647H15.5294V13.6471ZM11.7647 16.4706V15.5294H13.6471V16.4706H11.7647ZM15.5294 22V23H8V24H24V23H16.4706V22H15.5294Z"/>
	</svg>
	