<?xml version="1.0"?>
	<svg xmlns="http://www.w3.org/2000/svg" 
		width="32" 
		height="32" 
		viewbox="0 0 32 32" 
		code="82359" 
		 transform=""
		><path d="M8 8H24V24H8V8ZM8.94118 8.94118V15.5294H9.88235V16.4706H8.94118V23.0588H15.5294V22.1176H16.4706V23.0588H23.0588V16.4706H22.1176V15.5294H23.0588V8.94118H16.4706V9.88235H15.5294V8.94118H8.94118ZM13.6471 15.5294H11.7647V16.4706H13.6471V15.5294ZM15.5294 15.5294H16.4706V16.4706H15.5294V15.5294ZM16.4706 18.3529H15.5294V20.2353H16.4706V18.3529ZM18.3529 15.5294H20.2353V16.4706H18.3529V15.5294ZM15.5294 11.7647V13.6471H16.4706V11.7647H15.5294Z"/>
	</svg>
	