<?xml version="1.0"?>
	<svg xmlns="http://www.w3.org/2000/svg" 
		width="32" 
		height="32" 
		viewbox="0 0 32 32" 
		code="82369" 
		 transform=""
		><path d="M10 22C10 22.2761 9.77614 22.5 9.5 22.5 9.22386 22.5 9 22.2761 9 22V10C9 9.72386 9.22386 9.5 9.5 9.5 9.77614 9.5 10 9.72386 10 10V22ZM22 13.5C22 14.0523 21.5523 14.5 21 14.5H13C12.4477 14.5 12 14.0523 12 13.5 12 12.9477 12.4477 12.5 13 12.5H21C21.5523 12.5 22 12.9477 22 13.5ZM17 19.5C17.5523 19.5 18 19.0523 18 18.5 18 17.9477 17.5523 17.5 17 17.5H13C12.4477 17.5 12 17.9477 12 18.5 12 19.0523 12.4477 19.5 13 19.5H17Z"/>
	</svg>
	