<?xml version="1.0"?>
	<svg xmlns="http://www.w3.org/2000/svg" 
		width="32" 
		height="32" 
		viewbox="0 0 32 32" 
		code="82367" 
		 transform=""
		><path d="M22 22C22 22.2761 22.2239 22.5 22.5 22.5 22.7761 22.5 23 22.2761 23 22V10C23 9.72386 22.7761 9.5 22.5 9.5 22.2239 9.5 22 9.72386 22 10V22ZM10 13.5C10 14.0523 10.4477 14.5 11 14.5H19C19.5523 14.5 20 14.0523 20 13.5 20 12.9477 19.5523 12.5 19 12.5H11C10.4477 12.5 10 12.9477 10 13.5ZM15 19.5C14.4477 19.5 14 19.0523 14 18.5 14 17.9477 14.4477 17.5 15 17.5H19C19.5523 17.5 20 17.9477 20 18.5 20 19.0523 19.5523 19.5 19 19.5H15Z"/>
	</svg>
	