<?xml version="1.0"?>
	<svg xmlns="http://www.w3.org/2000/svg" 
		width="32" 
		height="32" 
		viewbox="0 0 32 32" 
		code="82361" 
		 transform=""
		><path d="M9 15.5294V8H8V24H9V16.4706H10V15.5294H9ZM24 8H23.0588V8.94118H24V8ZM14.5882 9V8H17.4118V9H16.4706V10H15.5294V9H14.5882ZM11 24V23H13V24H11ZM11 8V9H13V8H11ZM15.5294 16.4706V15.5294H16.4706V16.4706H15.5294ZM21 8V9H19V8H21ZM24 19.2941H23.0588V21.1765H24V19.2941ZM23.0588 10.8235H24V12.7059H23.0588V10.8235ZM24 14.5882H23.0588V15.5294H22.1176V16.4706H23.0588V17.4118H24V14.5882ZM14.5882 23H15.5294V22H16.4706V23H17.4118V24H14.5882V23ZM19 23V24H21V23H19ZM23.0588 23.0588H24V24H23.0588V23.0588ZM16.4706 18.3529H15.5294V20.2353H16.4706V18.3529ZM10.9996 16.5294V15.5294H12.9996V16.5294H10.9996ZM18.9999 15.5294V16.5294H20.9999V15.5294H18.9999ZM15.5294 11.7647H16.4706V13.6471H15.5294V11.7647Z"/>
	</svg>
	