<?xml version="1.0"?>
	<svg xmlns="http://www.w3.org/2000/svg" 
		width="1024" 
		height="1024" 
		viewbox="0 0 1024 1024" 
		code="82355" 
		 transform=""
		><path d="M461.75 533.446h77.437c60.157 0 101.501-39.971 101.501-98.832s-40.906-98.614-101.283-98.614h-92.531c-9.187 0-14.874 5.93-14.874 15.594v181.923h29.75v-0.07zM461.75 506.653v-143.859h70.656c48.781 0 77.658 26.797 77.658 71.821s-29.094 72.038-77.658 72.038h-70.656zM446.874 688c9.19 0 14.877-5.93 14.877-15.594v-90.698h-29.75v90.698c0 9.664 5.686 15.594 14.874 15.594zM680 565.645c4.419 0 8-3.594 8-8.032 0-4.435-3.581-8.032-8-8.032h-336c-4.419 0-8 3.597-8 8.032 0 4.438 3.581 8.032 8 8.032h336z"/>
	</svg>
	