<?xml version="1.0"?>
	<svg xmlns="http://www.w3.org/2000/svg" 
		width="32" 
		height="32" 
		viewbox="0 0 32 32" 
		code="82360" 
		 transform=""
		><path d="M8 8V8.94118H8.94118V8H8ZM9 17.4118H8V14.5882H9V15.5294H10V16.4706H9V17.4118ZM24 21H23V19H24V21ZM8 20.9999H9V18.9999H8V20.9999ZM16.4706 16.4706H15.5294V15.5294H16.4706V16.4706ZM8 11H9V13H8V11ZM19.2941 8V8.94118H21.1765V8H19.2941ZM10.8235 8.94118V8H12.7059V8.94118H10.8235ZM14.5882 8V8.94118H15.5294V9.88235H16.4706V8.94118H17.4118V8H14.5882ZM23.0005 17.4118V16.4706H22.0005V15.5294H23.0005V14.5882H24V17.4118H23.0005ZM23 13H24V11H23V13ZM23.0588 8.94118V8H24V8.94118H23.0588ZM18.3529 15.5294V16.4706H20.2353V15.5294H18.3529ZM16.4706 20.9999H15.5294V18.9999H16.4706V20.9999ZM15.5294 13.0001H16.4706V11.0001H15.5294V13.0001ZM11.7647 16.4706V15.5294H13.6471V16.4706H11.7647ZM15.5294 22V23H8V24H24V23H16.4706V22H15.5294Z"/>
	</svg>
	