<?xml version="1.0"?>
	<svg xmlns="http://www.w3.org/2000/svg" 
		width="32" 
		height="32" 
		viewbox="0 0 32 32" 
		code="82354" 
		 transform=""
		><path d="M16.4706 9H24V8H8V9H15.5294V10H16.4706V9ZM8 11H9V13H8V11ZM23.0588 14.588H24V17.4116H23.0588V16.4704H22.1176V15.5292H23.0588V14.588ZM24 11.0001H23V13.0001H24V11.0001ZM15.5294 15.5292H16.4706V16.4704H15.5294V15.5292ZM24 24.0001V23.0001H23V24.0001H24ZM24 21.1763H23.0588V19.2939H24V21.1763ZM12.7059 23.9998V23.0586H10.8235V23.9998H12.7059ZM21.1765 23.0586V23.9998H19.2941V23.0586H21.1765ZM17.4118 23.9998V23.0586H16.4706V22.1174H15.5294V23.0586H14.5882V23.9998H17.4118ZM8.94118 14.588V15.5292H9.88235V16.4704H8.94118V17.4116H8V14.588H8.94118ZM9 19.0001H8V21.0001H9V19.0001ZM8.94118 23.0586V23.9998H8V23.0586H8.94118ZM13.6471 16.4704V15.5292H11.7647V16.4704H13.6471ZM15.5294 11.7645H16.4706V13.6468H15.5294V11.7645ZM16.4706 18.3527H15.5294V20.2351H16.4706V18.3527ZM20.2353 15.5292V16.4704H18.3529V15.5292H20.2353Z"/>
	</svg>
	