<?xml version="1.0"?>
	<svg xmlns="http://www.w3.org/2000/svg" 
		width="32" 
		height="32" 
		viewbox="0 0 32 32" 
		code="82365" 
		 transform=""
		><path d="M23 8H24V9H23V8ZM14.5882 9V8H17.4118V9H16.4706V10H15.5294V9H14.5882ZM11 24V23H13V24H11ZM11 8V9H13V8H11ZM21 9V8H19V9H21ZM14.5882 23H15.5294V21.9999H16.4706V23H17.4118V24H14.5882V23ZM19 23V24H21V23H19ZM23 23H24V24H23V23ZM11.7647 15.5294V16.4706H13.6471V15.5294H11.7647ZM18.3529 16.4706V15.5294H20.2353V16.4706H18.3529ZM9 9V8H8V9H9ZM9 23V24H8V23H9ZM24 10H23V15.5385H22V16.4615H23V22H24V10ZM8 10H9V15.5385H10V16.4615H9V22H8V10ZM15.5294 10.8235H16.4706L16.4706 21.1765H15.5294V10.8235Z"/>
	</svg>
	