<?xml version="1.0"?>
	<svg xmlns="http://www.w3.org/2000/svg" 
		width="32" 
		height="32" 
		viewbox="0 0 32 32" 
		code="82357" 
		 transform=""
		><path d="M8 8.94118V8H8.94118V8.94118H8ZM8 21.1765H8.94118V19.2941H8V21.1765ZM23.0588 21.1765H24V19.2941H23.0588V21.1765ZM8.94118 10.8235H8V12.7059H8.94118V10.8235ZM19.2941 8.94118V8H21.1765V8.94118H19.2941ZM10.8235 8V8.94118H12.7059V8H10.8235ZM14.5882 8.94118V8H17.4118V8.94118H16.4706V9.88235H15.5294V8.94118H14.5882ZM23.0588 12.7059H24V10.8235H23.0588V12.7059ZM23.0588 8.94118V8H24V8.94118H23.0588ZM15.5294 20.2353H16.4706V18.3529H15.5294V20.2353ZM16.4706 13.6471H15.5294V11.7647H16.4706V13.6471ZM8.94118 23.0588H8V24H8.94118V23.0588ZM19.2941 23.0588H21.1765V24H19.2941V23.0588ZM12.7059 23.0588H10.8235V24H12.7059V23.0588ZM14.5882 23.0588H15.5294V22.1176H16.4706V23.0588H17.4118V24H14.5882V23.0588ZM24 23.0588H23.0588V24H24V23.0588ZM8.94118 17.4118H8V14.5882H8.94118V15.5294H23.0588V14.5882H24V17.4118H23.0588V16.4706H8.94118V17.4118Z"/>
	</svg>
	