<?xml version="1.0"?>
	<svg xmlns="http://www.w3.org/2000/svg" 
		width="32" 
		height="32" 
		viewbox="0 0 32 32" 
		code="82362" 
		 transform=""
		><path d="M17.4118 23.0588V24H14.5882V23.0588H15.5294V8.94118H14.5882V8H17.4118V8.94118H16.4706V23.0588H17.4118ZM21.1765 8V8.94118H19.2941V8H21.1765ZM21.1765 24V23.0588H19.2941V24H21.1765ZM8.94118 24H8V23.0588H8.94118V24ZM10.8235 23.0588V24H12.7059V23.0588H10.8235ZM8.94118 12.7059H8V10.8235H8.94118V12.7059ZM8 21.1765H8.94118V19.2941H8V21.1765ZM8.94118 17.4118H8V14.5882H8.94118V15.5294H9.88235V16.4706H8.94118V17.4118ZM12.7059 8.94118V8H10.8235V8.94118H12.7059ZM8.94118 8.94118H8V8H8.94118V8.94118ZM20.2353 16.4706V15.5294H18.3529V16.4706H20.2353ZM13.6471 15.5294V16.4706H11.7647V15.5294H13.6471ZM23.0588 23.0588V24H24V23.0588H23.0588ZM23.0588 12.7059V10.8235H24V12.7059H23.0588ZM23.0588 19.2941V21.1765H24V19.2941H23.0588ZM23.0588 17.4118V16.4706H22.1176V15.5294H23.0588V14.5882H24V17.4118H23.0588ZM23.0588 8V8.94118H24V8H23.0588Z"/>
	</svg>
	