<?xml version="1.0"?>
	<svg xmlns="http://www.w3.org/2000/svg" 
		width="32" 
		height="32" 
		viewbox="0 0 32 32" 
		code="82366" 
		 transform=""
		><path d="M8 9V8H9V9H8ZM9 17.4118H8V14.5882H9V15.5294H10V16.4706H9V17.4118ZM24 21H23V19H24V21ZM8 20.9999H9V18.9999H8V20.9999ZM9 11H8V13H9V11ZM22.9997 17.4118V16.4706H21.9999V15.5294H22.9997V14.5882H24V17.4118H22.9997ZM23 13H24V11H23V13ZM23 9V8H24V9H23ZM15.5294 20.9999H16.4706V18.9999H15.5294V20.9999ZM16.4706 13.0001H15.5294V11.0001H16.4706V13.0001ZM9 23H8V24H9V23ZM23 23H24V24H23V23ZM10 8V9H15.5385V10H16.4615V9H22V8H10ZM10 24V23H15.5385V22H16.4615V23H22V24H10ZM10.823 16.4706V15.5294H21.176V16.4706H10.823Z"/>
	</svg>
	