<?xml version="1.0"?>
	<svg xmlns="http://www.w3.org/2000/svg" 
		width="32" 
		height="32" 
		viewbox="0 0 32 32" 
		code="82368" 
		 transform=""
		><path d="M9.5 10.5C9.5 10.2239 9.72386 10 10 10H22C22.2761 10 22.5 10.2239 22.5 10.5 22.5 10.7761 22.2761 11 22 11H10C9.72386 11 9.5 10.7761 9.5 10.5ZM12.5 16C12.5 15.4477 12.9477 15 13.5 15H18.5C19.0523 15 19.5 15.4477 19.5 16 19.5 16.5523 19.0523 17 18.5 17H13.5C12.9477 17 12.5 16.5523 12.5 16ZM10 21C9.72386 21 9.5 21.2239 9.5 21.5 9.5 21.7761 9.72386 22 10 22H22C22.2761 22 22.5 21.7761 22.5 21.5 22.5 21.2239 22.2761 21 22 21H10Z"/>
	</svg>
	