<?xml version="1.0"?>
	<svg xmlns="http://www.w3.org/2000/svg" 
		width="32" 
		height="32" 
		viewbox="0 0 32 32" 
		code="82363" 
		 transform=""
		><path d="M9 8V15.5294H10V16.4706H9V24H8V8H9ZM21.001 9V8H19.001V9H21.001ZM11.001 9V8H13.001V9H11.001ZM11.0007 24V23H13.0007V24H11.0007ZM19.0007 24V23H21.0007V24H19.0007ZM11.0006 15.5294V16.5294H13.0006V15.5294H11.0006ZM19.0009 16.5294V15.5294H21.0009V16.5294H19.0009ZM23 16.5V24H24V8H23V15.5294H22V16.5H23ZM14.5886 8V9H15.5298V23H14.5886V24H17.4121V23H16.4709V9H17.4121V8H14.5886Z"/>
	</svg>
	