<?xml version="1.0"?>
	<svg xmlns="http://www.w3.org/2000/svg" 
		width="30" 
		height="30" 
		viewbox="0 0 30 30" 
		code="80882" 
		 transform=""
		><path d="M9.52355084 13.7392717L17.7392717 5.52355084C18.4373395 4.82548305 19.5649874 4.82548305 20.2630552 5.52355084 20.9145851 6.17508077 20.9580205 7.20082277 20.3933612 7.90224764L20.2630552 8.04733437 13.3181757 14.9922139 20.2630552 21.9370934C20.961123 22.6351611 20.9432238 23.7807083 20.2630552 24.4787761 19.9838281 24.7580032 19.6358682 24.9255394 19.2741616 24.9813849L19.0924174 25 18.9099095 25C18.5451482 24.9813849 18.1849691 24.8510789 17.8843584 24.609082L17.7392717 24.4787761 9.52355084 16.2630552C8.87202091 15.6115253 8.82858558 14.5857833 9.39324485 13.8843584L9.52355084 13.7392717 17.7392717 5.52355084 9.52355084 13.7392717Z"/>
	</svg>
	