<?xml version="1.0"?>
	<svg xmlns="http://www.w3.org/2000/svg" 
		width="30" 
		height="30" 
		viewbox="0 0 30 30" 
		code="80877" 
		 transform=""
		><path d="M6.69399155 9L6.87647825 9C7.24119712 9.01861298 7.60133433 9.1489038 7.90191002 9.39087248L8.04697987 9.52116331 14.9910515 16.4652349 21.935123 9.52116331C22.6331096 8.82317673 23.7785235 8.84107383 24.4765101 9.52116331 25.1279642 10.1726174 25.1713945 11.1982401 24.6068009 11.8995834L24.4765101 12.0446532 16.261745 20.2594183C15.9825503 20.538613 15.6346309 20.7061298 15.2729664 20.7619687L15.0912434 20.7805817 14.9087566 20.7805817C14.5440378 20.7619687 14.1839006 20.6316779 13.8833249 20.3897092L13.738255 20.2594183 5.52348993 12.0446532C4.82550336 11.3466667 4.82550336 10.2191499 5.52348993 9.52116331 5.849217 9.19543624 6.2684862 9.02171514 6.69399155 9L6.87647825 9 6.69399155 9Z"/>
	</svg>
	