<?xml version="1.0"?>
	<svg xmlns="http://www.w3.org/2000/svg" 
		width="32" 
		height="32" 
		viewbox="0 0 32 32" 
		code="82373" 
		 transform=""
		><path d="M12.1 13.1226C12.3831 13.4042 12.8395 13.4042 13.1226 13.1226 13.4042 12.8395 13.4042 12.3831 13.1226 12.1L10.2338 9.21124C9.95075 8.92959 9.49433 8.92959 9.21124 9.21124 8.92959 9.49433 8.92959 9.95075 9.21124 10.2338L12.1 13.1226ZM18.9 13.1226C18.6169 13.4042 18.1605 13.4042 17.8774 13.1226 17.5958 12.8395 17.5958 12.3831 17.8774 12.1L20.7662 9.21124C21.0492 8.92959 21.5057 8.92959 21.7888 9.21124 22.0704 9.49433 22.0704 9.95075 21.7888 10.2338L18.9 13.1226ZM17.8774 17.8774C18.1605 17.5958 18.6169 17.5958 18.9 17.8774L21.7888 20.7662C22.0704 21.0492 22.0704 21.5057 21.7888 21.7888 21.5057 22.0704 21.0492 22.0704 20.7662 21.7888L17.8774 18.9C17.5958 18.6169 17.5958 18.1605 17.8774 17.8774ZM12.1 17.8774C12.3831 17.5958 12.8395 17.5958 13.1226 17.8774 13.4042 18.1605 13.4042 18.6169 13.1226 18.9L10.2338 21.7888C9.95075 22.0704 9.49433 22.0704 9.21124 21.7888 8.92959 21.5057 8.92959 21.0492 9.21124 20.7662L12.1 17.8774Z"/>
	</svg>
	