<?xml version="1.0"?>
	<svg xmlns="http://www.w3.org/2000/svg" 
		width="32" 
		height="32" 
		viewbox="0 0 32 32" 
		code="82381" 
		 transform=""
		><path d="M19 22C15.6993 22 13 19.3147 13 16 13 12.6853 15.6853 10 19 10 22.3147 10 25 12.6853 25 16 25 19.3147 22.3147 22 19 22ZM18.9996 11.2C16.3596 11.2 14.1996 13.345 14.1996 16 14.1996 18.655 16.3446 20.8 18.9996 20.8 21.6546 20.8 23.7996 18.655 23.7996 16 23.7996 13.345 21.6396 11.2 18.9996 11.2ZM7 14.5C7 14.7778 7.19157 15 7.43103 15H11.569C11.8084 15 12 14.7778 12 14.5 12 14.2222 11.8084 14 11.569 14H7.43103C7.19157 14 7 14.2222 7 14.5ZM8 16.5C8 16.7778 8.15584 17 8.35065 17H10.6494C10.8442 17 11 16.7778 11 16.5 11 16.2222 10.8442 16 10.6494 16H8.35065C8.15584 16 8 16.2222 8 16.5ZM10.3629 19C10.1613 19 10 18.7778 10 18.5 10 18.2222 10.1613 18 10.3629 18H11.6371C11.8387 18 12 18.2222 12 18.5 12 18.7778 11.8387 19 11.6371 19H10.3629Z"/>
	</svg>
	