<?xml version="1.0"?>
	<svg xmlns="http://www.w3.org/2000/svg" 
		width="32" 
		height="32" 
		viewbox="0 0 32 32" 
		code="82374" 
		 transform=""
		><path d="M12.0625 12.5C10.1048 12.5 8.5 14.058 8.5 16 8.5 17.942 10.1048 19.5 12.0625 19.5 13.4328 19.5 14.6038 18.6888 15.3719 17.8342 15.5565 17.6289 15.5396 17.3127 15.3342 17.1281 15.1289 16.9435 14.8127 16.9604 14.6281 17.1658 13.9587 17.9106 13.0366 18.5 12.0625 18.5 10.6377 18.5 9.5 17.3705 9.5 16 9.5 14.6295 10.6377 13.5 12.0625 13.5 13.0702 13.5 13.9297 14.1239 14.5748 14.8358 14.8907 15.1843 15.1376 15.5351 15.3055 15.7994 15.3892 15.9311 15.4525 16.04 15.4942 16.1147 15.515 16.1521 15.5304 16.1808 15.5402 16.1994L15.5508 16.2197 15.5528 16.2236C15.5529 16.2238 15.5533 16.2246 15.5534 16.2248L15.5543 16.2267 15.555 16.2281 15.5595 16.2369 15.5751 16.2668C15.5885 16.2921 15.6077 16.3279 15.6326 16.3726 15.6824 16.4619 15.7554 16.5873 15.8504 16.7369 16.0399 17.0351 16.3204 17.4343 16.6842 17.8358 17.3984 18.6239 18.5077 19.5 19.9375 19.5 21.8952 19.5 23.5 17.942 23.5 16 23.5 14.058 21.8952 12.5 19.9375 12.5 18.5672 12.5 17.3962 13.3112 16.6281 14.1658 16.4814 14.329 16.462 14.5621 16.5632 14.7436 16.5894 14.7905 16.6236 14.834 16.6658 14.8719 16.8711 15.0565 17.1873 15.0396 17.3719 14.8342 18.0413 14.0894 18.9634 13.5 19.9375 13.5 21.3623 13.5 22.5 14.6295 22.5 16 22.5 17.3705 21.3623 18.5 19.9375 18.5 18.9298 18.5 18.0703 17.8761 17.4252 17.1642 17.1093 16.8157 16.8624 16.4649 16.6945 16.2006 16.6108 16.0689 16.5475 15.96 16.5058 15.8853 16.485 15.8479 16.4696 15.8192 16.4598 15.8006L16.4492 15.7803 16.4472 15.7764C16.4472 15.7763 16.4473 15.7765 16.4472 15.7764L16.4464 15.7747M16.4454 15.7728L16.4405 15.7631 16.4249 15.7332C16.4115 15.7079 16.3923 15.6721 16.3674 15.6274 16.3176 15.5381 16.2446 15.4127 16.1496 15.2631 15.9601 14.9649 15.6796 14.5657 15.3158 14.1642 14.6016 13.3761 13.4923 12.5 12.0625 12.5"/>
	</svg>
	