<?xml version="1.0"?>
	<svg xmlns="http://www.w3.org/2000/svg" 
		width="32" 
		height="32" 
		viewbox="0 0 32 32" 
		code="82380" 
		 transform=""
		><path d="M10.5 9C9.67157 9 9 9.67157 9 10.5 9 10.5 9 10.5 9 10.5V21.5C9 22.3284 9.67157 23 10.5 23H21.5C22.3284 23 23 22.3284 23 21.5V10.5C23 9.67157 22.3284 9 21.5 9H10.5ZM14.9804 10H10.5C10.2239 10 10 10.2239 10 10.5 10 10.5 10 10.5 10 10.5V14.9804H14.4804C14.7565 14.9804 14.9804 14.7565 14.9804 14.4804V10ZM10 15.9804H14.4804C15.3088 15.9804 15.9804 15.3088 15.9804 14.4804V10H21.5C21.7761 10 22 10.2239 22 10.5V21.5C22 21.7761 21.7761 22 21.5 22H10.5C10.2239 22 10 21.7761 10 21.5V15.9804Z"/>
	</svg>
	