<?xml version="1.0"?>
	<svg xmlns="http://www.w3.org/2000/svg" 
		width="32" 
		height="32" 
		viewbox="0 0 32 32" 
		code="82379" 
		 transform=""
		><path d="M9.5 8C8.67157 8 8 8.67157 8 9.5V22.5C8 23.3284 8.67157 24 9.5 24H22.5C23.3284 24 24 23.3284 24 22.5V9.5C24 8.67157 23.3284 8 22.5 8H9.5ZM9 9.5C9 9.22386 9.22386 9 9.5 9H22.5C22.7761 9 23 9.22386 23 9.5V22.5C23 22.7761 22.7761 23 22.5 23H9.5C9.22386 23 9 22.7761 9 22.5V9.5ZM13.5 15.2048V16.7874C13.5 17.7124 13.5 18.1748 13.694 18.439 13.8631 18.6693 14.1227 18.8163 14.4072 18.8428 14.7335 18.8732 15.1301 18.6353 15.9232 18.1594L17.242 17.3681C17.9962 16.9156 18.3734 16.6893 18.5013 16.3967 18.6129 16.1413 18.6129 15.8509 18.5013 15.5955 18.3734 15.3029 17.9962 15.0767 17.242 14.6241L15.9232 13.8328C15.1301 13.3569 14.7335 13.119 14.4072 13.1494 14.1227 13.1759 13.8631 13.3229 13.694 13.5532 13.5 13.8174 13.5 14.2799 13.5 15.2048Z"/>
	</svg>
	