<?xml version="1.0"?>
	<svg xmlns="http://www.w3.org/2000/svg" 
		width="24" 
		height="24" 
		viewbox="0 0 24 24" 
		code="82376" 
		 transform=""
		><path d="M8.19898 11.3517C8.50525 9.62704 10.012 8.31738 11.8247 8.31738 13.6374 8.31738 15.1441 9.62704 15.4504 11.3517H13.0595C12.8261 10.9082 12.3608 10.6058 11.8248 10.6058 11.2889 10.6058 10.8235 10.9082 10.5902 11.3517H8.19898ZM7.15513 12.3517C7.335 14.7736 9.35692 16.6825 11.8247 16.6825 14.2925 16.6825 16.3144 14.7736 16.4943 12.3517H20.177L18.094 14.4348C17.8987 14.6301 17.8987 14.9466 18.094 15.1419 18.2893 15.3372 18.6058 15.3372 18.8011 15.1419L21.5895 12.3535C21.7847 12.1583 21.7847 11.8417 21.5895 11.6464L18.8011 8.85803C18.6058 8.66277 18.2893 8.66277 18.094 8.85803 17.8987 9.05329 17.8987 9.36987 18.094 9.56514L19.8806 11.3517H16.4628C16.1471 9.07241 14.1909 7.31738 11.8247 7.31738 9.45852 7.31738 7.50226 9.07241 7.18662 11.3517H4.11803L5.90464 9.56514C6.0999 9.36987 6.0999 9.05329 5.90464 8.85803 5.70937 8.66277 5.39279 8.66277 5.19753 8.85803L2.40914 11.6464C2.21388 11.8417 2.21388 12.1583 2.40914 12.3535L5.19753 15.1419C5.39279 15.3372 5.70937 15.3372 5.90463 15.1419 6.0999 14.9466 6.0999 14.6301 5.90463 14.4348L3.82158 12.3517H7.15513ZM8.1587 12.3517H10.4754C10.6313 12.9514 11.1764 13.3942 11.8248 13.3942 12.4733 13.3942 13.0184 12.9514 13.1743 12.3517H15.4907C15.3136 14.2206 13.7399 15.6825 11.8247 15.6825 9.90952 15.6825 8.3358 14.2206 8.1587 12.3517Z"/>
	</svg>
	