<?xml version="1.0"?>
	<svg xmlns="http://www.w3.org/2000/svg" 
		width="1024" 
		height="1024" 
		viewbox="0 0 1024 1024" 
		code="82378" 
		 transform=""
		><path d="M795.029 512.004c0-91.67-74.313-165.984-165.982-165.984-86.357 0-157.312 65.948-165.248 150.231h104.815c6.98-26.859 31.39-46.686 60.433-46.686 34.483 0 62.438 27.955 62.438 62.438s-27.955 62.438-62.438 62.438c-24.849 0-46.306-14.515-56.358-35.524h-107.456c12.86 78.869 81.306 139.072 163.814 139.072 91.669 0 165.982-74.317 165.982-165.986zM420.982 496.252c8.052-107.877 98.13-192.898 208.065-192.898 115.234 0 208.649 93.416 208.649 208.65s-93.414 208.653-208.649 208.653c-106.116 0-193.728-79.219-206.932-181.739h-157.451l82.881 82.88c8.331 8.329 8.331 21.837 0 30.17s-21.839 8.333-30.17 0l-124.878-124.877c-8.331-8.333-8.331-21.841 0-30.17l124.878-124.88c8.331-8.331 21.839-8.331 30.17 0s8.331 21.839 0 30.17l-94.039 94.04h167.474z"/>
	</svg>
	