<?xml version="1.0"?>
	<svg xmlns="http://www.w3.org/2000/svg" 
		width="1024" 
		height="1024" 
		viewbox="0 0 1024 1024" 
		code="82377" 
		 transform=""
		><path d="M228.916 512.004c0 91.669 74.314 165.986 165.984 165.986 86.358 0 157.309-65.95 165.245-150.229h-104.811c-6.98 26.854-31.392 46.682-60.434 46.682-34.484 0-62.439-27.955-62.439-62.438s27.955-62.438 62.439-62.438c24.848 0 46.307 14.515 56.359 35.529h107.452c-12.855-78.874-81.306-139.074-163.811-139.074-91.67 0-165.984 74.313-165.984 165.984zM602.965 527.761c-8.055 107.874-98.129 192.896-208.065 192.896-115.235 0-208.651-93.419-208.651-208.653s93.416-208.65 208.651-208.65c106.117 0 193.729 79.216 206.93 181.74h157.453l-82.884-82.883c-8.329-8.331-8.329-21.839 0-30.17 8.333-8.331 21.841-8.331 30.174 0l124.877 124.88c8.329 8.329 8.329 21.837 0 30.17l-124.877 124.877c-8.333 8.333-21.841 8.333-30.174 0-8.329-8.333-8.329-21.841 0-30.17l94.042-94.037h-167.475z"/>
	</svg>
	