<?xml version="1.0"?>
	<svg xmlns="http://www.w3.org/2000/svg" 
		width="32" 
		height="32" 
		viewbox="0 0 32 32" 
		code="82372" 
		 transform=""
		><path d="M10.5 9C9.67157 9 9 9.67157 9 10.5V21.5C9 22.3284 9.67157 23 10.5 23H21.5C22.3284 23 23 22.3284 23 21.5V10.5C23 9.67157 22.3284 9 21.5 9H10.5ZM10 10.5C10 10.2239 10.2239 10 10.5 10H21.5C21.7761 10 22 10.2239 22 10.5V21.5C22 21.7761 21.7761 22 21.5 22H10.5C10.2239 22 10 21.7761 10 21.5V10.5ZM17.5 16C17.5 16.8284 16.8284 17.5 16 17.5 15.1716 17.5 14.5 16.8284 14.5 16 14.5 15.1716 15.1716 14.5 16 14.5 16.8284 14.5 17.5 15.1716 17.5 16ZM18.5 16C18.5 17.3807 17.3807 18.5 16 18.5 14.6193 18.5 13.5 17.3807 13.5 16 13.5 14.6193 14.6193 13.5 16 13.5 17.3807 13.5 18.5 14.6193 18.5 16Z"/>
	</svg>
	