<?xml version="1.0"?>
	<svg xmlns="http://www.w3.org/2000/svg" 
		width="24" 
		height="24" 
		viewbox="0 0 24 24" 
		code="82375" 
		 transform=""
		><path d="M8.18021 11.9999C8.18021 9.86553 9.91048 8.13525 12.0449 8.13525 14.1793 8.13525 15.9096 9.86553 15.9096 11.9999 15.9096 14.1343 14.1793 15.8646 12.0449 15.8646 9.91048 15.8646 8.18021 14.1343 8.18021 11.9999ZM12.0449 7.13525C9.51366 7.13525 7.43396 9.06848 7.20176 11.539L4.39938 8.73659C4.20411 8.54133 3.88753 8.54133 3.69227 8.73659 3.49701 8.93185 3.49701 9.24844 3.69227 9.4437L5.6156 11.367H3C2.72386 11.367 2.5 11.5909 2.5 11.867 2.5 12.1432 2.72386 12.367 3 12.367H5.8814L3.69227 14.5562C3.49701 14.7514 3.49701 15.068 3.69227 15.2633 3.88753 15.4585 4.20411 15.4585 4.39938 15.2633L7.20176 12.4609C7.43396 14.9314 9.51366 16.8646 12.0449 16.8646 14.5766 16.8646 16.6565 14.9307 16.8881 12.4596L19.6918 15.2633C19.8871 15.4585 20.2037 15.4585 20.3989 15.2633 20.5942 15.068 20.5942 14.7514 20.3989 14.5562L18.2098 12.367H21.0003C21.2764 12.367 21.5003 12.1432 21.5003 11.867 21.5003 11.5909 21.2764 11.367 21.0003 11.367H18.4756L20.3989 9.4437C20.5942 9.24844 20.5942 8.93185 20.3989 8.73659 20.2037 8.54133 19.8871 8.54133 19.6918 8.73659L16.8881 11.5403C16.6565 9.06916 14.5766 7.13525 12.0449 7.13525ZM12.0449 13.4548C12.8484 13.4548 13.4998 12.8034 13.4998 11.9999 13.4998 11.1964 12.8484 10.545 12.0449 10.545 11.2414 10.545 10.59 11.1964 10.59 11.9999 10.59 12.8034 11.2414 13.4548 12.0449 13.4548Z"/>
	</svg>
	