<?xml version="1.0"?>
	<svg xmlns="http://www.w3.org/2000/svg" 
		width="32" 
		height="32" 
		viewbox="0 0 32 32" 
		code="82382" 
		 transform=""
		><path d="M16.75 8.75C16.75 9.16418 16.4142 9.5 16 9.5 15.5858 9.5 15.25 9.16418 15.25 8.75 15.25 8.33582 15.5858 8 16 8 16.4142 8 16.75 8.33582 16.75 8.75ZM11.5 16.0021C11.5 13.5387 13.5372 11.5 16 11.5 18.4628 11.5 20.5 13.5387 20.5 16.0021 20.5 18.4656 18.4628 20.5043 16 20.5043 13.5372 20.5043 11.5 18.4656 11.5 16.0021ZM16 12.5C14.09 12.5 12.5 14.0905 12.5 16.0021 12.5 17.9138 14.09 19.5043 16 19.5043 17.91 19.5043 19.5 17.9138 19.5 16.0021 19.5 14.0905 17.91 12.5 16 12.5ZM16 24C16.4142 24 16.75 23.6642 16.75 23.25 16.75 22.8358 16.4142 22.5 16 22.5 15.5858 22.5 15.25 22.8358 15.25 23.25 15.25 23.6642 15.5858 24 16 24ZM11.5 10.75C11.5 11.1642 11.1642 11.5 10.75 11.5 10.3358 11.5 10 11.1642 10 10.75 10 10.3358 10.3358 10 10.75 10 11.1642 10 11.5 10.3358 11.5 10.75ZM21.25 11.5C20.8358 11.5 20.5 11.1642 20.5 10.75 20.5 10.3358 20.8358 10 21.25 10 21.6642 10 22 10.3358 22 10.75 22 11.1642 21.6642 11.5 21.25 11.5ZM11.5 21.25C11.5 21.6642 11.1642 22 10.75 22 10.3358 22 10 21.6642 10 21.25 10 20.8358 10.3358 20.5 10.75 20.5 11.1642 20.5 11.5 20.8358 11.5 21.25ZM21.25 22C20.8358 22 20.5 21.6642 20.5 21.25 20.5 20.8358 20.8358 20.5 21.25 20.5 21.6642 20.5 22 20.8358 22 21.25 22 21.6642 21.6642 22 21.25 22ZM9.5 16C9.5 16.4142 9.16418 16.75 8.75 16.75 8.33582 16.75 8 16.4142 8 16 8 15.5858 8.33582 15.25 8.75 15.25 9.16418 15.25 9.5 15.5858 9.5 16ZM23.25 16.75C22.8358 16.75 22.5 16.4142 22.5 16 22.5 15.5858 22.8358 15.25 23.25 15.25 23.6642 15.25 24 15.5858 24 16 24 16.4142 23.6642 16.75 23.25 16.75Z"/>
	</svg>
	