<?xml version="1.0"?>
	<svg xmlns="http://www.w3.org/2000/svg" 
		width="30" 
		height="30" 
		viewbox="0 0 30 30" 
		code="80875" 
		 transform=""
		><path d="M27.2781967 13.0341618L27.2781967 28.2572184C27.2781967 28.7056734 27.1003841 29.1356963 26.7839961 29.4523849 26.5071566 29.7294875 26.1441345 29.8998865 25.7583488 29.9373698L25.5918033 29.94522 5.36836066 29.94522C4.4883266 29.94522 3.76614827 29.2669316 3.69256727 28.4028652L3.68639344 28.2572184 3.68639344 13.0341618 27.2781967 13.0341618ZM17.2793443 16.4190375L13.6852459 16.4190375C12.692763 16.4190375 11.8881967 17.2264876 11.8881967 18.2225278 11.8881967 19.1687659 12.6143178 19.9448015 13.5378599 20.0200395L13.6852459 20.026018 17.2793443 20.026018C18.2718271 20.026018 19.0763934 19.2185679 19.0763934 18.2225278 19.0763934 17.2762896 18.3502723 16.500254 17.4267302 16.4250161L17.2793443 16.4190375ZM27.2781967 1C28.1589086 1.00231987 28.8804805 1.68186682 28.9539957 2.54667257L28.9601639 2.69243786 28.9601639 9.45774722C28.9601639 10.3409355 28.2843032 11.0657023 27.4233233 11.139547L27.2781967 11.145743 3.68639344 11.1279746C3.2395416 11.1291548 2.81058867 10.951834 2.49420067 10.6351454 2.21736117 10.3580428 2.04661841 9.99416874 2.00825833 9.60710012L2 9.43997885 2 2.69243786C2 1.80692538 2.67763932 1.08025132 3.54088496 1.00621226L3.68639344 1 27.2781967 1Z"/>
	</svg>
	