<?xml version="1.0"?>
	<svg xmlns="http://www.w3.org/2000/svg" 
		width="24" 
		height="24" 
		viewbox="0 0 24 24" 
		code="82387" 
		 transform=""
		><path d="M11.9863 17.0581C11.8521 17.0581 11.7285 17.0044 11.6265 16.897L8.07617 13.3359C7.95801 13.2178 7.91504 13.105 7.91504 12.9761 7.91504 12.7129 8.1084 12.5088 8.37695 12.5088 8.50586 12.5088 8.62939 12.5518 8.71533 12.6377L9.93994 13.8408 11.5889 15.6455 11.5083 14.3511 11.5083 7.55664C11.5083 7.27734 11.707 7.08398 11.9863 7.08398 12.2656 7.08398 12.4644 7.27734 12.4644 7.55664V14.3511L12.3838 15.6509 14.0327 13.8408 15.2573 12.6377C15.3379 12.5518 15.4668 12.5088 15.5957 12.5088 15.8643 12.5088 16.0576 12.7129 16.0576 12.9761 16.0576 13.105 16.0093 13.2178 15.9072 13.3252L12.3462 16.897C12.2441 17.0044 12.1206 17.0581 11.9863 17.0581Z"/>
	</svg>
	