<?xml version="1.0"?>
	<svg xmlns="http://www.w3.org/2000/svg" 
		width="32" 
		height="32" 
		viewbox="0 0 32 32" 
		code="82386" 
		 transform=""
		><path d="M16.3536 21.8536C16.1583 22.0488 15.8417 22.0488 15.6464 21.8536L13.1464 19.3536C12.9512 19.1583 12.9512 18.8417 13.1464 18.6464 13.3417 18.4512 13.6583 18.4512 13.8536 18.6464L15.5 20.2929 15.5 11.7071 13.8536 13.3536C13.6583 13.5488 13.3417 13.5488 13.1464 13.3536 12.9512 13.1583 12.9512 12.8417 13.1464 12.6464L15.6464 10.1464C15.8417 9.95118 16.1583 9.95118 16.3536 10.1464L18.8536 12.6464C19.0488 12.8417 19.0488 13.1583 18.8536 13.3536 18.6583 13.5488 18.3417 13.5488 18.1464 13.3536L16.5 11.7071 16.5 20.2929 18.1464 18.6464C18.3417 18.4512 18.6583 18.4512 18.8536 18.6464 19.0488 18.8417 19.0488 19.1583 18.8536 19.3536L16.3536 21.8536Z"/>
	</svg>
	