<?xml version="1.0"?>
	<svg xmlns="http://www.w3.org/2000/svg" 
		width="24" 
		height="24" 
		viewbox="0 0 24 24" 
		code="82389" 
		 transform=""
		><path d="M16.9741 12.0713C16.9741 11.937 16.9204 11.8135 16.813 11.7114L13.252 8.16113C13.1338 8.04297 13.021 8 12.8921 8 12.6289 8 12.4248 8.19336 12.4248 8.46191 12.4248 8.59082 12.4678 8.71436 12.5537 8.80029L13.7568 10.0249 15.5615 11.6738 14.2671 11.5933H7.47266C7.19336 11.5933 7 11.792 7 12.0713 7 12.3506 7.19336 12.5493 7.47266 12.5493H14.2671L15.5669 12.4688 13.7568 14.1177 12.5537 15.3423C12.4678 15.4229 12.4248 15.5518 12.4248 15.6807 12.4248 15.9492 12.6289 16.1426 12.8921 16.1426 13.021 16.1426 13.1338 16.0942 13.2412 15.9922L16.813 12.4312C16.9204 12.3291 16.9741 12.2056 16.9741 12.0713Z"/>
	</svg>
	