<?xml version="1.0"?>
	<svg xmlns="http://www.w3.org/2000/svg" 
		width="30" 
		height="30" 
		viewbox="0 0 30 30" 
		code="80881" 
		 transform=""
		><path d="M14.6076642 3L14.7647087 3C15.1308904 3.01868763 15.4917054 3.16818867 15.7720199 3.44850313 16.3326488 4.00913204 16.3700241 4.90517996 15.8841457 5.5105314L15.7720199 5.63557196 8.25589604 13.1516958 25.4598107 13.1516958C26.3069148 13.1516958 27 13.844781 27 14.6918851 27 15.4860452 26.3908431 16.1448372 25.6167062 16.224084L25.4598107 16.2320744 8.25589604 16.2320744 15.7720199 23.7481983C16.3726937 24.3488721 16.3726937 25.3191914 15.7720199 25.9198652 15.5317504 26.1601348 15.2323376 26.3042965 14.9210961 26.3523504L14.7647087 26.3683684 14.6076642 26.3683684C14.2937941 26.3523504 13.9838669 26.2402246 13.7251973 26.031991L13.600353 25.9198652 3.45050537 15.7700176C2.88987646 15.2093887 2.8525012 14.3267576 3.33837959 13.723195L3.45050537 13.5983507 13.600353 3.44850313C13.8806674 3.16818867 14.2414824 3.01868763 14.6076642 3L14.7647087 3 14.6076642 3Z"/>
	</svg>
	