<?xml version="1.0"?>
	<svg xmlns="http://www.w3.org/2000/svg" 
		width="24" 
		height="24" 
		viewbox="0 0 24 24" 
		code="82388" 
		 transform=""
		><path d="M7 12.0713C7 11.937 7.05371 11.8135 7.16113 11.7114L10.7222 8.16113C10.8403 8.04297 10.9531 8 11.082 8 11.3452 8 11.5493 8.19336 11.5493 8.46191 11.5493 8.59082 11.5063 8.71436 11.4204 8.80029L10.2173 10.0249 8.4126 11.6738 9.70703 11.5933H16.5015C16.7808 11.5933 16.9741 11.792 16.9741 12.0713 16.9741 12.3506 16.7808 12.5493 16.5015 12.5493H9.70703L8.40723 12.4688 10.2173 14.1177 11.4204 15.3423C11.5063 15.4229 11.5493 15.5518 11.5493 15.6807 11.5493 15.9492 11.3452 16.1426 11.082 16.1426 10.9531 16.1426 10.8403 16.0942 10.7329 15.9922L7.16113 12.4312C7.05371 12.3291 7 12.2056 7 12.0713Z"/>
	</svg>
	