<?xml version="1.0"?>
	<svg xmlns="http://www.w3.org/2000/svg" 
		width="32" 
		height="32" 
		viewbox="0 0 32 32" 
		code="82383" 
		 transform=""
		><path d="M24 21.5436C24 23.1725 23.1725 24 21.5174 24H11.4913C9.83624 24 9 23.1725 9 21.5436V11.4652C9 9.82753 9.83624 9 11.4913 9H21.5174C23.1725 9 24 9.83624 24 11.4652V21.5436ZM12.5019 15.3241L16.0036 19.0088C16.474 19.5053 17.0141 19.5053 17.4758 19.0088L20.9862 15.3241C21.2127 15.0802 21.2127 14.7405 21.0036 14.5227 20.7771 14.2962 20.4113 14.2788 20.2022 14.5227L16.744 18.1377 13.2859 14.5227C13.0681 14.2788 12.7109 14.2962 12.4845 14.5227 12.2667 14.7405 12.2754 15.0802 12.5019 15.3241Z"/>
	</svg>
	