<?xml version="1.0"?>
	<svg xmlns="http://www.w3.org/2000/svg" 
		width="24" 
		height="24" 
		viewbox="0 0 24 24" 
		code="82390" 
		 transform=""
		><path d="M11.9863 7.08398C11.8521 7.08398 11.7285 7.1377 11.6265 7.24512L8.07617 10.8062C7.95801 10.9243 7.91504 11.0371 7.91504 11.166 7.91504 11.4292 8.1084 11.6333 8.37695 11.6333 8.50586 11.6333 8.62939 11.5903 8.71533 11.5044L9.93994 10.3013 11.5889 8.49658 11.5083 9.79102 11.5083 16.5854C11.5083 16.8647 11.707 17.0581 11.9863 17.0581 12.2656 17.0581 12.4644 16.8647 12.4644 16.5854V9.79102L12.3838 8.49121 14.0327 10.3013 15.2573 11.5044C15.3379 11.5903 15.4668 11.6333 15.5957 11.6333 15.8643 11.6333 16.0576 11.4292 16.0576 11.166 16.0576 11.0371 16.0093 10.9243 15.9072 10.8169L12.3462 7.24512C12.2441 7.1377 12.1206 7.08398 11.9863 7.08398Z"/>
	</svg>
	