<?xml version="1.0"?>
	<svg xmlns="http://www.w3.org/2000/svg" 
		width="24" 
		height="24" 
		viewbox="0 0 24 24" 
		code="82385" 
		 transform=""
		><path d="M14.1465 8.64645C14.3418 8.45118 14.6584 8.45118 14.8536 8.64645L18.2072 12 14.8536 15.3536C14.6584 15.5488 14.3418 15.5488 14.1465 15.3536 13.9513 15.1583 13.9513 14.8417 14.1465 14.6464L16.2929 12.5 7.70716 12.5002 9.85363 14.6467C10.0489 14.842 10.0489 15.1585 9.85363 15.3538 9.65837 15.5491 9.34178 15.5491 9.14652 15.3538L5.79297 12.0002 9.14652 8.64669C9.34178 8.45143 9.65837 8.45143 9.85363 8.64669 10.0489 8.84195 10.0489 9.15854 9.85363 9.3538L7.70721 11.5002 16.293 11.5 14.1465 9.35355C13.9513 9.15829 13.9513 8.84171 14.1465 8.64645Z"/>
	</svg>
	