<?xml version="1.0"?>
	<svg xmlns="http://www.w3.org/2000/svg" 
		width="30" 
		height="30" 
		viewbox="0 0 30 30" 
		code="80887" 
		 transform=""
		><path d="M3.45050537 13.600353L13.600353 3.45050537C14.1609819 2.88987646 15.043613 2.8525012 15.6471756 3.33837959L15.7720199 3.45050537 25.9218675 13.600353C26.5225413 14.2010268 26.5225413 15.1713461 25.9218675 15.7720199 25.6815979 16.0122894 25.3797208 16.1564511 25.0655222 16.2045051L24.9076243 16.220523 24.7490418 16.220523C24.4321051 16.2045051 24.1192755 16.0923793 23.8598392 15.8841457L23.7347987 15.7720199 16.2186748 8.25589604 16.2186748 25.4598107C16.2186748 26.3069148 15.5255896 27 14.6784855 27 13.8843254 27 13.2255335 26.3908431 13.1462866 25.6167062L13.1382962 25.4598107 13.1382962 8.25589604 5.62217231 15.7720199C5.38190278 16.0122894 5.08248997 16.1564511 4.77124852 16.2045051L4.61486112 16.220523 4.45781657 16.220523C4.09163485 16.2018354 3.73081983 16.0523343 3.45050537 15.7720199 2.88987646 15.211391 2.8525012 14.3287598 3.33837959 13.7251973L3.45050537 13.600353 13.600353 3.45050537 3.45050537 13.600353Z"/>
	</svg>
	