<?xml version="1.0"?>
	<svg xmlns="http://www.w3.org/2000/svg" 
		width="30" 
		height="30" 
		viewbox="0 0 30 30" 
		code="80890" 
		 transform=""
		><path d="M5.53381643 2L23.6835752 2C23.9478084 2 24.1688131 2.19458136 24.2103717 2.44752659L24.2173916 2.53381643 24.2173916 20.1497587 17.2777454 20.1497587C17.0121926 20.1497587 16.7922435 20.3433636 16.7509092 20.5969924L16.743929 20.6835752 16.743929 27.6231888 5.53381643 27.6231888C5.26955385 27.6231888 5.04857261 27.4286074 5.00701898 27.1756622L5 27.0893723 5 2.53381643C5 2.26958316 5.19455499 2.04857847 5.44751868 2.00701986L5.53381643 2 23.6835752 2 5.53381643 2ZM23.9077689 21.2173916L17.8115618 27.3135987 17.8115618 21.2173916 23.9077689 21.2173916ZM21.5482769 15.8792273L7.6690496 15.8792273C7.3739909 15.8792273 7.13523317 16.1182456 7.13523317 16.4130437 7.13523317 16.6783619 7.32862693 16.8984986 7.58240348 16.9398728L7.6690496 16.9468601 21.5482769 16.9468601C21.8433355 16.9468601 22.0820933 16.7078417 22.0820933 16.4130437 22.0820933 16.1477255 21.8886995 15.9275887 21.634923 15.8862146L21.5482769 15.8792273ZM21.5482769 11.6086958L7.6690496 11.6086958C7.3739909 11.6086958 7.13523317 11.8477142 7.13523317 12.1425122 7.13523317 12.4078305 7.32862693 12.6279672 7.58240348 12.6693413L7.6690496 12.6763287 21.5482769 12.6763287C21.8433355 12.6763287 22.0820933 12.4373103 22.0820933 12.1425122 22.0820933 11.877194 21.8886995 11.6570573 21.634923 11.6156831L21.5482769 11.6086958ZM21.5482769 7.33816433L7.6690496 7.33816433C7.3739909 7.33816433 7.13523317 7.57718272 7.13523317 7.87198076 7.13523317 8.137299 7.32862693 8.35743572 7.58240348 8.39880988L7.6690496 8.4057972 21.5482769 8.4057972C21.8433355 8.4057972 22.0820933 8.16677881 22.0820933 7.87198076 22.0820933 7.60666252 21.8886995 7.3865258 21.634923 7.34515164L21.5482769 7.33816433Z"/>
	</svg>
	