<?xml version="1.0"?>
	<svg xmlns="http://www.w3.org/2000/svg" 
		width="30" 
		height="30" 
		viewbox="0 0 30 30" 
		code="80891" 
		 transform=""
		><path d="M5.85483871 6C6.38930778 6 6.82258065 6.43327282 6.82258065 6.96774194L6.82258065 19.9984605 9.97503668 16.8460044C10.3718597 16.4491814 11.015237 16.4491814 11.4120601 16.8460044 11.8088832 17.2428275 11.8088832 17.8862048 11.4120601 18.2830278L6.57335042 23.1217375C6.17652736 23.5185606 5.53315007 23.5185606 5.136327 23.1217375L0.297617306 18.2830278C-0.0992057685 17.8862048-0.0992057685 17.2428275 0.297617306 16.8460044 0.69444038 16.4491814 1.33781769 16.4491814 1.73464076 16.8460044L4.88709678 19.9984605 4.88709678 6.96774194C4.88709678 6.43327282 5.32036965 6 5.85483871 6ZM28.7903226 20.516129C29.458409 20.516129 30 21.0577201 30 21.7258065 30 22.3938928 29.458409 22.9354839 28.7903226 22.9354839L17.6612903 22.9354839C16.9932039 22.9354839 16.4516129 22.3938928 16.4516129 21.7258065 16.4516129 21.0577201 16.9932039 20.516129 17.6612903 20.516129L28.7903226 20.516129ZM26.8548387 15.6774194C27.5229251 15.6774194 28.0645161 16.2190104 28.0645161 16.8870968 28.0645161 17.5551832 27.5229251 18.0967742 26.8548387 18.0967742L17.6612903 18.0967742C16.9932039 18.0967742 16.4516129 17.5551832 16.4516129 16.8870968 16.4516129 16.2190104 16.9932039 15.6774194 17.6612903 15.6774194L26.8548387 15.6774194ZM24.9193548 10.8387097C25.5874412 10.8387097 26.1290323 11.3803007 26.1290323 12.0483871 26.1290323 12.7164735 25.5874412 13.2580645 24.9193548 13.2580645L17.6612903 13.2580645C16.9932039 13.2580645 16.4516129 12.7164735 16.4516129 12.0483871 16.4516129 11.3803007 16.9932039 10.8387097 17.6612903 10.8387097L24.9193548 10.8387097ZM22.983871 6C23.6519574 6 24.1935484 6.54159103 24.1935484 7.20967742 24.1935484 7.87776381 23.6519574 8.41935484 22.983871 8.41935484L17.6612903 8.41935484C16.9932039 8.41935484 16.4516129 7.87776381 16.4516129 7.20967742 16.4516129 6.54159103 16.9932039 6 17.6612903 6L22.983871 6Z"/>
	</svg>
	