<?xml version="1.0"?>
	<svg xmlns="http://www.w3.org/2000/svg" 
		width="32" 
		height="32" 
		viewbox="0 0 32 32" 
		code="82391" 
		 transform=""
		><path d="M16 18.832C17.4971 18.832 18.4927 17.7317 18.4927 16.1983V11.6337C18.4927 10.1003 17.4971 9 16 9 14.5102 9 13.5073 10.1003 13.5073 11.6337V16.1983C13.5073 17.7317 14.5102 18.832 16 18.832ZM15.9999 18.0228C14.997 18.0228 14.3574 17.2775 14.3574 16.1984V11.6338C14.3574 10.5619 14.997 9.8094 15.9999 9.8094 17.0028 9.8094 17.6423 10.5619 17.6423 11.6338V16.1984C17.6423 17.2775 17.0028 18.0228 15.9999 18.0228ZM19.6701 23.5811C19.6701 23.8154 19.4811 24 19.2485 24H12.7515C12.5189 24 12.3299 23.8154 12.3299 23.5811 12.3299 23.354 12.5189 23.1694 12.7515 23.1694H15.5785V21.2314C12.8314 21.0539 11 19.1585 11 16.4751V15.0908C11 14.8566 11.189 14.672 11.4215 14.672 11.6613 14.672 11.8503 14.8566 11.8503 15.0908V16.4467C11.8503 18.8319 13.4782 20.4647 16 20.4647 18.5218 20.4647 20.1497 18.8319 20.1497 16.4467V15.0908C20.1497 14.8566 20.3387 14.672 20.5785 14.672 20.811 14.672 21 14.8566 21 15.0908V16.4751C21 19.1585 19.1686 21.0539 16.4288 21.2314V23.1694H19.2485C19.4811 23.1694 19.6701 23.354 19.6701 23.5811Z"/>
	</svg>
	