<?xml version="1.0"?>
	<svg xmlns="http://www.w3.org/2000/svg" 
		width="32" 
		height="32" 
		viewbox="0 0 32 32" 
		code="82392" 
		 transform=""
		><path d="M17.9472 8C18.869365 8 19.6266433 8.71117902 19.7000657 9.61457656L19.7059 9.75874 19.7059 12.2941 22.2413 12.2941C23.163465 12.2941 23.9207433 13.00527 23.9941657 13.9086409L24 14.0528 24 22.2413C24 23.163465 23.28883 23.9207433 22.3854591 23.9941657L22.2413 24 14.0528 24C13.130635 24 12.3733568 23.28883 12.2999343 22.3854591L12.2941 22.2413 12.2941 19.7059 9.75874 19.7059C8.8365465 19.7059 8.0792578 18.99473 8.00583441 18.0913591L8 17.9472 8 9.75874C8 8.8365465 8.71117902 8.0792578 9.61457656 8.00583441L9.75874 8 17.9472 8ZM23.2122 19.8888L19.8888 23.2122 22.2414 23.2122 22.3568407 23.2058399C22.8478153 23.1511878 23.2122 22.7504429 23.2122 22.2414L23.2122 22.2414 23.2122 19.8888ZM23.2122 16.7482L16.7482 23.2007 18.781 23.2007 23.2122 18.7696 23.2122 16.7482ZM23.1437 13.6873L19.7062 17.1249 19.7062 17.9357C19.7062 18.9065 18.9182 19.6945 17.9474 19.6945L17.9474 19.6945 17.1366 19.6945 13.6991 23.132C13.8018 23.1777 13.9275 23.2005 14.0531 23.2005L14.0531 23.2005 15.6519 23.2005 23.2123 15.6402 23.2123 14.0414C23.2123 13.9158 23.1894 13.8015 23.1437 13.6873L23.1437 13.6873ZM16.029 19.7059L13.9962 19.7059 13.0712 20.631 13.0712 22.2413C13.0712 22.3669 13.094 22.4811 13.1397 22.5953L13.1397 22.5953 16.029 19.7059ZM17.8609 9L9.93931 9C9.44687929 9 9.04970077 9.35247709 9.00432063 9.82744285L9.00021 9.93912 9.00021 17.8609C9.00021 18.3533214 9.35268709 18.7409801 9.82763683 18.7938476L9.93931 18.8 17.8609 18.8C18.3533214 18.8 18.7409801 18.4475143 18.7938476 17.9725713L18.8 17.8609 18.8 9.93912C18.8 9.40879 18.3912 9 17.8609 9ZM22.2301 13.0706L20.6198 13.0706 19.6948 13.9957 19.6948 16.0285 22.5841 13.1391 22.4745889 13.1010296C22.3976111 13.0807333 22.3138333 13.0706 22.2301 13.0706L22.2301 13.0706Z"/>
	</svg>
	