<?xml version="1.0"?>
	<svg xmlns="http://www.w3.org/2000/svg" 
		width="32" 
		height="32" 
		viewbox="0 0 32 32" 
		code="82393" 
		 transform=""
		><path d="M21.1514 17.5957C21.1514 15.5439 19.7603 14.126 17.311 14.126H13.7017L12.4448 14.1851 13.46 13.3149 15.0122 11.8003C15.0928 11.7144 15.1411 11.6123 15.1411 11.4727 15.1411 11.1934 14.9531 11 14.6631 11 14.5503 11 14.4106 11.0591 14.3193 11.1504L11.1611 14.2495C11.0537 14.3516 11 14.4751 11 14.6094 11 14.7383 11.0537 14.8618 11.1611 14.9639L14.3193 18.063C14.4106 18.1597 14.5503 18.2134 14.6631 18.2134 14.9531 18.2134 15.1411 18.02 15.1411 17.7407 15.1411 17.6011 15.0928 17.499 15.0122 17.4131L13.46 15.9038 12.4448 15.0337 13.7017 15.0874H17.3916C19.2231 15.0874 20.1899 16.0972 20.1899 17.542 20.1899 18.9922 19.2231 20.0664 17.3916 20.0664H16.1562C15.8608 20.0664 15.6675 20.2812 15.6675 20.5444 15.6675 20.8076 15.8608 21.0225 16.1562 21.0225H17.397C19.7979 21.0225 21.1514 19.6528 21.1514 17.5957Z"/>
	</svg>
	