<?xml version="1.0"?>
	<svg xmlns="http://www.w3.org/2000/svg" 
		width="32" 
		height="32" 
		viewbox="0 0 32 32" 
		code="82394" 
		 transform=""
		><path d="M22.5 20.5C22.7761 20.5 23 20.7239 23 21 23 21.2761 22.7761 21.5 22.5 21.5L9.5 21.5C9.22386 21.5 9 21.2761 9 21 9 20.7239 9.22386 20.5 9.5 20.5L22.5 20.5ZM13.2294 10.5C13.5618444 10.5 13.862921 10.6840988 14.0167449 10.9713877L14.0673 11.0838 16.5596 17.8349C16.6787 18.1575 16.44 18.5 16.0962 18.5 15.9162 18.5 15.753098 18.4025061 15.66653 18.2498997L15.6299 18.1692 15.0457 16.5 11.5551 16.5 10.9723 18.1652C10.9022 18.3657 10.7129 18.5 10.5004 18.5 10.1847 18.5 9.95563264 18.2142215 10.0073021 17.916182L10.0285 17.8348 12.3863 11.0981C12.5117 10.7399 12.8498 10.5 13.2294 10.5ZM20 12.5C20.2761 12.5 20.5 12.7239 20.5 13L20.5 13 20.5 16.7931 21.1464 16.1467C21.3417 15.9514 21.6583 15.9514 21.8536 16.1467 22.0488 16.342 22.0488 16.6585 21.8536 16.8538L21.8536 16.8538 20.3536 18.3538C20.2598 18.4476 20.1326 18.5002 20 18.5002 19.8674 18.5002 19.7402 18.4476 19.6464 18.3538L19.6464 18.3538 18.1464 16.8538C17.9512 16.6585 17.9512 16.342 18.1464 16.1467 18.3417 15.9514 18.6583 15.9514 18.8536 16.1467L18.8536 16.1467 19.5 16.7931 19.5 13C19.5 12.7239 19.7239 12.5 20 12.5ZM13.3004 11.5135L11.9051 15.5 14.6957 15.5 13.3004 11.5135Z"/>
	</svg>
	