<?xml version="1.0"?>
	<svg xmlns="http://www.w3.org/2000/svg" 
		width="30" 
		height="30" 
		viewbox="0 0 30 30" 
		code="80896" 
		 transform=""
		><path d="M27.5 11.25L21.5125 11.25 16.025 3.0375C15.525 2.3 14.4375 2.3 13.95 3.0375L8.4625 11.25 2.5 11.25C1.8125 11.25 1.25 11.8125 1.25 12.5 1.25 12.6125 1.2625 12.725 1.3 12.8375L4.475 24.425C4.7625 25.475 5.725 26.25 6.875 26.25L23.125 26.25C24.275 26.25 25.2375 25.475 25.5375 24.425L28.7125 12.8375 28.75 12.5C28.75 11.8125 28.1875 11.25 27.5 11.25ZM14.9875 5.9875L18.5 11.25 11.475 11.25 14.9875 5.9875ZM15 21.25C13.625 21.25 12.5 20.125 12.5 18.75 12.5 17.375 13.625 16.25 15 16.25 16.375 16.25 17.5 17.375 17.5 18.75 17.5 20.125 16.375 21.25 15 21.25Z"/>
	</svg>
	