<?xml version="1.0"?>
	<svg xmlns="http://www.w3.org/2000/svg" 
		width="24" 
		height="25" 
		viewbox="0 0 24 25" 
		code="82344" 
		 transform=""
		><path d="M7.66965 15.0011L6.80371 15.5013C7.04601 15.9208 7.33712 16.3075 7.66965 16.6541V15.0011ZM8.16965 17.1192C8.42873 17.334 8.70637 17.5274 9.00005 17.6969 9.21696 17.8221 9.44079 17.9331 9.67015 18.0297V13.8456L8.16965 14.7123V17.1192ZM10.1701 13.5568V18.2147C10.655 18.3698 11.1588 18.4631 11.6696 18.4912V12.6906L10.1701 13.5568ZM12.1696 12.5986V18.4978C12.6795 18.4833 13.1836 18.404 13.6701 18.2629V13.4649L12.1696 12.5986ZM14.1701 13.7536V18.0937C14.4554 17.983 14.7327 17.8503 14.9995 17.6962 15.2335 17.5611 15.4573 17.4108 15.6696 17.2466V14.6194L14.1701 13.7536ZM16.1696 14.908V16.8139C16.5693 16.4275 16.9151 15.9858 17.1954 15.5002L16.1696 14.908ZM13.6704 6.73718C13.1839 6.59616 12.6797 6.51686 12.1699 6.50244V12.5979L13.6704 13.4638V6.73718ZM14.1704 13.7524V6.90625C14.4557 7.01693 14.7331 7.14965 15 7.30373 15.2339 7.43876 15.4576 7.58897 15.6699 7.75307V14.6177L14.1704 13.7524ZM16.1699 14.9062L17.1971 15.499C17.7234 14.5868 18.0004 13.5522 18.0003 12.4991 18.0001 11.446 17.7228 10.4115 17.1961 9.4995 16.9157 9.01385 16.5698 8.57207 16.1699 8.18564V14.9062ZM7.66965 8.3471C7.337 8.69394 7.04583 9.08096 6.80353 9.50072 6.27707 10.4128 5.99994 11.4474 6 12.5005 6.00006 13.5536 6.27729 14.5882 6.80385 15.5002L7.66965 15.0003V8.3471ZM8.16965 14.7116L9.67015 13.8453V6.971C9.44048 7.06778 9.21636 7.17907 8.99918 7.3045 8.70582 7.47393 8.42846 7.66725 8.16965 7.88191V14.7116ZM10.1701 6.78602V13.5566L11.6696 12.6909V6.50928C11.1588 6.53744 10.655 6.63077 10.1701 6.78602Z"/>
	</svg>
	