<?xml version="1.0"?>
	<svg xmlns="http://www.w3.org/2000/svg" 
		width="32" 
		height="32" 
		viewbox="0 0 32 32" 
		code="82399" 
		 transform=""
		><path d="M19.3243 24.0692C20.2688 24.0692 20.9425 23.4249 20.9864 22.4876L21.5282 11.5556H22.5826C22.8169 11.5556 23 11.3653 23 11.1309 23 10.8966 22.8169 10.7063 22.5826 10.7063H19.1192V9.55668C19.1192 8.59015 18.4383 7.93115 17.3839 7.93115H14.6088C13.5544 7.93115 12.8808 8.59015 12.8808 9.55668V10.7063H9.42469C9.1977 10.7063 9 10.904 9 11.1309 9 11.3653 9.1977 11.5556 9.42469 11.5556H10.4791L11.0209 22.4876C11.0722 23.4249 11.7312 24.0692 12.6831 24.0692H19.3243ZM18.2257 10.7062H13.7812V9.60059C13.7812 9.12465 14.1326 8.77319 14.6671 8.77319H17.3324C17.8596 8.77319 18.2257 9.12465 18.2257 9.60059V10.7062ZM12.7564 23.2198H19.2512C19.7198 23.2198 20.0859 22.8611 20.1079 22.3924L20.6278 11.5556H11.3652L11.907 22.3924C11.929 22.8611 12.2951 23.2198 12.7564 23.2198ZM17.5094 21.7847C17.7071 21.7847 17.8535 21.631 17.8608 21.4186L18.0951 13.4155C18.1025 13.2031 17.956 13.0347 17.751 13.0347 17.5679 13.0347 17.4142 13.2031 17.4142 13.4082L17.1725 21.404C17.1725 21.6163 17.3117 21.7847 17.5094 21.7847ZM14.8074 21.404C14.8147 21.6163 14.6683 21.7847 14.4706 21.7847 14.2729 21.7847 14.1337 21.631 14.1264 21.4186L13.8848 13.4155C13.8775 13.1958 14.0239 13.0347 14.2216 13.0347 14.4047 13.0347 14.5657 13.2031 14.5657 13.4082L14.8074 21.404Z"/>
	</svg>
	