<?xml version="1.0"?>
	<svg xmlns="http://www.w3.org/2000/svg" 
		width="24" 
		height="24" 
		viewbox="0 0 24 24" 
		code="82400" 
		 transform=""
		><path d="M13.333 4.833355C13.8192 4.833355 14.2856 5.026505 14.6294 5.370325 14.9732 5.714145 15.1663 6.180445 15.1663 6.666645L15.1663 7.500045 18 7.500345C18.2761 7.500345 18.5 7.724245 18.5 8.000345 18.5 8.276445 18.2761 8.500345 18 8.500345L17.1663 8.500345 17.1663 17.333345C17.1663 17.819545 16.9732 18.285945 16.6294 18.629745 16.2856 18.973545 15.8192 19.166645 15.333 19.166645L8.6663 19.166645C8.1801 19.166645 7.7138 18.973545 7.37 18.629745 7.0262 18.285945 6.833 17.819545 6.833 17.333345L6.833 8.500345 6 8.500345C5.72386 8.500345 5.5 8.276445 5.5 8.000345 5.5 7.724245 5.72386 7.500345 6 7.500345L8.833 7.500045 8.833 6.666645C8.833 6.180445 9.0262 5.714145 9.37 5.370325 9.7138 5.026505 10.1801 4.833355 10.6663 4.833355L13.333 4.833355ZM16.1663 8.500345L7.833 8.500345 7.833 17.333345 7.84022731 17.4428788C7.86416944 17.6234644 7.94685 17.792395 8.0771 17.922645 8.2334 18.078845 8.4453 18.166645 8.6663 18.166645L8.6663 18.166645 15.333 18.166645 15.4425338 18.1594181C15.6231194 18.1354783 15.79205 18.0528117 15.9223 17.922645 16.0785 17.766345 16.1663 17.554345 16.1663 17.333345L16.1663 17.333345 16.1663 8.500345ZM13.333 5.833355L10.6663 5.833355C10.4453 5.833355 10.2334 5.921155 10.0771 6.077445 9.9208 6.233745 9.833 6.445645 9.833 6.666645L9.833 6.666645 9.833 7.500045 14.1663 7.500045 14.1663 6.666645C14.1663 6.445645 14.0785 6.233745 13.9223 6.077445 13.766 5.921155 13.554 5.833355 13.333 5.833355L13.333 5.833355Z"/>
	</svg>
	