<?xml version="1.0"?>
	<svg xmlns="http://www.w3.org/2000/svg" 
		width="32" 
		height="32" 
		viewbox="0 0 32 32" 
		code="82402" 
		 transform=""
		><path d="M16 9.5L16.315 9.11172C16.1314 8.96276 15.8686 8.96276 15.685 9.11172L16 9.5ZM15.4758 10.6157C15.6828 10.4288 15.8614 10.2726 16 10.1535 16.1386 10.2726 16.3172 10.4288 16.5242 10.6157 17.0322 11.0747 17.7079 11.7163 18.382 12.4494 19.0578 13.1843 19.7216 14 20.2137 14.807 20.7125 15.6248 21 16.3777 21 17 21 17 21 17 21 17L11 17C11 17 11 17 11 17 11 16.3777 11.2875 15.6248 11.7863 14.807 12.2784 14 12.9422 13.1843 13.618 12.4494 14.2921 11.7163 14.9678 11.0747 15.4758 10.6157ZM16 9.5C15.685 9.11172 15.6851 9.11164 15.685 9.11172L15.6835 9.11295 15.68 9.1158 15.6671 9.12631 15.619 9.16607C15.5772 9.20073 15.5165 9.25147 15.4397 9.31686 15.286 9.4476 15.0674 9.63706 14.8054 9.8737 14.2822 10.3464 13.5829 11.0102 12.882 11.7725 12.1828 12.5328 11.4716 13.4023 10.9325 14.2863 10.4 15.1596 10 16.1035 10 17 10 20.3137 12.6863 23 16 23 19.3137 23 22 20.3137 22 17 22 16.1035 21.6 15.1596 21.0675 14.2863 20.5284 13.4023 19.8172 12.5328 19.118 11.7725 18.4171 11.0102 17.7178 10.3464 17.1946 9.8737 16.9326 9.63706 16.714 9.4476 16.5603 9.31686 16.4835 9.25147 16.4228 9.20073 16.381 9.16607L16.3329 9.12631 16.32 9.1158 16.3165 9.11295 16.315 9.11172C16.3149 9.11164 16.315 9.11172 16 9.5Z"/>
	</svg>
	