<?xml version="1.0"?>
	<svg xmlns="http://www.w3.org/2000/svg" 
		width="30" 
		height="30" 
		viewbox="0 0 30 30" 
		code="80900" 
		 transform=""
		><path d="M7.85314685 5.91608392C10.08301111 5.91608392 12.33022 6.48845549 14.3335842 7.64952296L14.7062937 7.87412587 14.7062937 25.2027972C16.820979 24.1062937 19.1706294 23.5384615 21.5594406 23.5384615 23.0573427 23.5384615 24.5552448 23.7605035 25.9817762 24.2045874L26.4545455 24.3608392 26.4545455 6.89314685C26.9918322 7.11244755 27.5216 7.35681119 28.0328213 7.64729063L28.4125874 7.87412587 28.4125874 25.8293706C28.4125874 26.3776224 27.9622378 26.8083916 27.4531469 26.8083916 27.3160839 26.8083916 27.179021 26.7692308 27.041958 26.7104895 25.2993007 25.9076923 23.4391608 25.4965035 21.5594406 25.4965035 19.1902098 25.4965035 16.8013986 26.1426573 14.7062937 27.4545455 12.6111888 26.1426573 10.22237762 25.4965035 7.85314685 25.4965035 5.97342657 25.4965035 4.113286710000001 25.9076923 2.37062937 26.7104895 2.2335664299999998 26.7692308 2.0965035 26.8083916 1.959440559 26.8083916 1.486713287 26.8083916 1.0646353646 26.436963 1.00675039246 25.9449408L1.0000000000000533 25.8293706 1.0000000000000533 7.87412587C3.0951049 6.56223776 5.48391608 5.91608392 7.85314685 5.91608392ZM24.4965035 1.9999999999999112L24.4965035 15.7062937 16.664335700000002 21.5804196 16.664335700000002 7.87412587 24.4965035 1.9999999999999112Z"/>
	</svg>
	