<?xml version="1.0"?>
	<svg xmlns="http://www.w3.org/2000/svg" 
		width="32" 
		height="32" 
		viewbox="0 0 32 32" 
		code="82404" 
		 transform=""
		><path d="M12 8H14.9959C14.9839 7.80389 14.957 7.66476 14.8965 7.54601 14.8006 7.35785 14.6476 7.20487 14.4595 7.10899 14.2456 7 13.9655 7 13.4055 7H12C9.23858 7 7 9.23858 7 12V13.4055C7 13.9655 7 14.2456 7.10899 14.4595 7.20487 14.6476 7.35785 14.8006 7.54601 14.8965 7.66476 14.957 7.80389 14.9839 8 14.9959V12C8 9.79086 9.79086 8 12 8ZM20.9961 8H18.0002C18.0122 7.80389 18.0391 7.66476 18.0996 7.54601 18.1955 7.35785 18.3485 7.20487 18.5366 7.10899 18.7505 7 19.0306 7 19.5906 7H20.9961C23.7575 7 25.9961 9.23858 25.9961 12V13.4055C25.9961 13.9655 25.9961 14.2456 25.8871 14.4595 25.7912 14.6476 25.6382 14.8006 25.4501 14.8965 25.3313 14.957 25.1922 14.9839 24.9961 14.9959V12C24.9961 9.79086 23.2052 8 20.9961 8ZM14.9959 24.9958H12C9.79086 24.9958 8 23.205 8 20.9958V18C7.80389 18.0119 7.66476 18.0388 7.54601 18.0994 7.35785 18.1952 7.20487 18.3482 7.10899 18.5364 7 18.7503 7 19.0303 7 19.5904V20.9958C7 23.7573 9.23858 25.9958 12 25.9958H13.4055C13.9655 25.9958 14.2456 25.9958 14.4595 25.8869 14.6476 25.791 14.8006 25.638 14.8965 25.4498 14.957 25.3311 14.9839 25.192 14.9959 24.9958ZM20.9961 24.9958H18.0002C18.0122 25.192 18.0391 25.3311 18.0996 25.4498 18.1955 25.638 18.3485 25.791 18.5366 25.8869 18.7505 25.9958 19.0306 25.9958 19.5906 25.9958H20.9961C23.7575 25.9958 25.9961 23.7573 25.9961 20.9958V19.5904C25.9961 19.0303 25.9961 18.7503 25.8871 18.5364 25.7912 18.3482 25.6382 18.1952 25.4501 18.0994 25.3313 18.0388 25.1922 18.0119 24.9961 18V20.9958C24.9961 23.205 23.2052 24.9958 20.9961 24.9958Z"/>
	</svg>
	