<?xml version="1.0"?>
	<svg xmlns="http://www.w3.org/2000/svg" 
		width="32" 
		height="32" 
		viewbox="0 0 32 32" 
		code="82407" 
		 transform=""
		><path d="M8 9C8 8.44772 8.44772 8 9 8H23C23.5523 8 24 8.44772 24 9H10C9.44772 9 9 9.44772 9 10V24C8.44772 24 8 23.5523 8 23V9ZM23.25 24C23.6642 24 24 23.6642 24 23.25 24 22.8358 23.6642 22.5 23.25 22.5 22.8358 22.5 22.5 22.8358 22.5 23.25 22.5 23.6642 22.8358 24 23.25 24ZM20 23.25C20 23.6642 19.6642 24 19.25 24 18.8358 24 18.5 23.6642 18.5 23.25 18.5 22.8358 18.8358 22.5 19.25 22.5 19.6642 22.5 20 22.8358 20 23.25ZM15.25 24C15.6642 24 16 23.6642 16 23.25 16 22.8358 15.6642 22.5 15.25 22.5 14.8358 22.5 14.5 22.8358 14.5 23.25 14.5 23.6642 14.8358 24 15.25 24ZM12 23.25C12 23.6642 11.6642 24 11.25 24 10.8358 24 10.5 23.6642 10.5 23.25 10.5 22.8358 10.8358 22.5 11.25 22.5 11.6642 22.5 12 22.8358 12 23.25ZM23.25 20C23.6642 20 24 19.6642 24 19.25 24 18.8358 23.6642 18.5 23.25 18.5 22.8358 18.5 22.5 18.8358 22.5 19.25 22.5 19.6642 22.8358 20 23.25 20ZM24 15.25C24 15.6642 23.6642 16 23.25 16 22.8358 16 22.5 15.6642 22.5 15.25 22.5 14.8358 22.8358 14.5 23.25 14.5 23.6642 14.5 24 14.8358 24 15.25ZM23.25 12C23.6642 12 24 11.6642 24 11.25 24 10.8358 23.6642 10.5 23.25 10.5 22.8358 10.5 22.5 10.8358 22.5 11.25 22.5 11.6642 22.8358 12 23.25 12Z"/>
	</svg>
	