<?xml version="1.0"?>
	<svg xmlns="http://www.w3.org/2000/svg" 
		width="32" 
		height="32" 
		viewbox="0 0 32 32" 
		code="82405" 
		 transform=""
		><path d="M10 8.5C10 8.22386 10.2239 8 10.5 8H21.5C21.7761 8 22 8.22386 22 8.5 22 8.77614 21.7761 9 21.5 9H10.5C10.2239 9 10 8.77614 10 8.5ZM10 23.5C10 23.2239 10.2239 23 10.5 23H21.5C21.7761 23 22 23.2239 22 23.5 22 23.7761 21.7761 24 21.5 24H10.5C10.2239 24 10 23.7761 10 23.5ZM9 9.5C9 9.22386 8.77614 9 8.5 9 8.22386 9 8 9.22386 8 9.5V22.5C8 22.7761 8.22386 23 8.5 23 8.77614 23 9 22.7761 9 22.5L9 9.5ZM23.5 9C23.7761 9 24 9.22386 24 9.5L24 22.5C24 22.7761 23.7761 23 23.5 23 23.2239 23 23 22.7761 23 22.5L23 9.5C23 9.22386 23.2239 9 23.5 9ZM16 18C17.1046 18 18 17.1046 18 16 18 14.8954 17.1046 14 16 14 14.8954 14 14 14.8954 14 16 14 17.1046 14.8954 18 16 18Z"/>
	</svg>
	