<?xml version="1.0"?>
	<svg xmlns="http://www.w3.org/2000/svg" 
		width="32" 
		height="32" 
		viewbox="0 0 32 32" 
		code="82408" 
		 transform=""
		><path d="M12.2682 13.627L12.7674 12.9759C14.0804 13.8169 15.5291 15.705 15.5291 17.0072V20.1216C15.5291 20.4959 15.6973 20.6967 16.0011 20.6967 16.305 20.6967 16.4732 20.4959 16.4732 20.1216V17.0072C16.4732 15.7213 17.8893 13.8549 19.2077 12.9922L19.6689 13.6215C19.8968 13.9362 20.1735 13.8657 20.2875 13.513L20.9711 11.5164C21.0688 11.2234 20.9114 11.0172 20.613 11.0226L18.497 11.0552C18.1334 11.0606 17.9815 11.2993 18.204 11.6086L18.6435 12.2109C17.3684 13.1061 16.1693 14.7013 16.0066 15.5206H15.9903C15.8275 14.6958 14.6338 13.1061 13.3588 12.2109L13.7874 11.6574C14.0207 11.3536 13.8742 11.1094 13.5107 11.0932L11.4001 11.0009C11.0963 10.9846 10.9335 11.1854 11.0257 11.4838L11.6497 13.4968C11.7582 13.8549 12.0295 13.9362 12.2682 13.627Z"/>
	</svg>
	