<?xml version="1.0"?>
	<svg xmlns="http://www.w3.org/2000/svg" 
		width="32" 
		height="32" 
		viewbox="0 0 32 32" 
		code="82409" 
		 transform=""
		><path d="M9.5 20C9.22386 20 9 20.2239 9 20.5 9 20.7761 9.22386 21 9.5 21L22.5 21C22.7761 21 23 20.7761 23 20.5 23 20.2239 22.7761 20 22.5 20H9.5ZM14.546 18.891C14.7599 19 15.0399 19 15.6 19H16.4C16.9601 19 17.2401 19 17.454 18.891 17.6422 18.7951 17.7951 18.6422 17.891 18.454 18 18.2401 18 17.9601 18 17.4V11.6C18 11.0399 18 10.7599 17.891 10.546 17.7951 10.3578 17.6422 10.2049 17.454 10.109 17.2401 10 16.9601 10 16.4 10L15.6 10C15.0399 10 14.7599 10 14.546 10.109 14.3578 10.2049 14.2049 10.3578 14.109 10.546 14 10.7599 14 11.0399 14 11.6L14 17.4C14 17.9601 14 18.2401 14.109 18.454 14.2049 18.6422 14.3578 18.7951 14.546 18.891Z"/>
	</svg>
	