<?xml version="1.0"?>
	<svg xmlns="http://www.w3.org/2000/svg" 
		width="30" 
		height="30" 
		viewbox="0 0 30 30" 
		code="80904" 
		 transform=""
		><path d="M3.7625 18.75L12.5 18.75C12.5 19.3945312 12.9943848 19.9291992 13.6226654 19.993515L13.75 20 16.25 20C16.8945312 20 17.4291992 19.5056152 17.493515000000002 18.877334599999998L17.5 18.75 26.25 18.75 26.25 23.75C26.25 25.07 25.2132 26.1596 23.913744 26.244656L23.75 26.25 6.2625 26.25C4.9425 26.25 3.8529 25.2132 3.767844 23.913744L3.7625 23.75 3.7625 18.75 12.5 18.75 3.7625 18.75ZM15 3.75C17.6898026 3.75 19.8818733 5.87128636 19.9953827 8.53302982L20 8.75 25 8.75C26.32 8.75 27.4096 9.7868 27.494656 11.086255999999999L27.5 11.25 27.5 15C27.5 16.32 26.4632 17.409599999999998 25.163744 17.494656L25 17.5 17.5 17.5 17.5 16.25C17.5 15.6054687 17.0056152 15.0708008 16.377334599999998 15.006485L16.25 15 13.75 15C13.1054688 15 12.5708008 15.4943848 12.506485 16.122665400000002L12.5 16.25 12.5 17.5 5 17.5C3.668 17.5 2.58944 16.474719999999998 2.5052864 15.1651264L2.5 15 2.5 11.25C2.5 9.93 3.5368 8.840399999999999 4.8362560000000006 8.755344000000001L5 8.75 10 8.75C10 5.9875 12.2375 3.75 15 3.75ZM15 6.25C13.68 6.25 12.5904 7.2867999999999995 12.505344 8.586255999999999L12.5 8.75 17.5 8.75C17.5 7.375 16.375 6.25 15 6.25Z"/>
	</svg>
	