<?xml version="1.0"?>
	<svg xmlns="http://www.w3.org/2000/svg" 
		width="30" 
		height="30" 
		viewbox="0 0 30 30" 
		code="80909" 
		 transform=""
		><path d="M21.4509804 9.36764706L24.7107843 6.10784314C25.2902152 5.5679238 26.1931563 5.58385515 26.75318 6.14387883 27.2782022 6.66890103 27.3250182 7.4953155 26.8839396 8.07400278L26.7892157 8.18627451 23.5294118 11.44607843 23.5294118 15.2352941 27.9411765 15.2352941C28.7533599 15.2352941 29.4117647 15.8936989 29.4117647 16.7058824 29.4117647 17.470290300000002 28.8285411 18.0984791 28.0828039 18.1697386L27.9411765 18.1764706 23.5294118 18.1764706C23.5258952 19.2868524 23.3113007 20.3864415 22.8970588 21.4166667L22.9979345 21.478641 22.9979345 21.478641 23.0931373 21.5490196 27.254902 25.7107843C27.7948213 26.2902152 27.77889 27.1931563 27.2188663 27.75318 26.6938441 28.2782022 25.8674296 28.3250182 25.2887423 27.8839396L25.1764706 27.7892157 21.3529412 23.9656863C20.0893377 25.418035 18.3876396 26.4148936 16.5096561 26.8092424L16.1764706 26.872549 16.1764706 12.2941176 13.2352941 12.2941176 13.2352941 26.872549C11.3351832 26.5493709 9.59635761 25.6135748 8.28150063 24.2127803L8.05392157 23.9607843 4.23039216 27.7843137C3.65096127 28.3242331 2.74802015 28.3083017 2.18799647 27.748278 1.66297427 27.2232558 1.61615823 26.3968414 2.05723691 25.8181541L2.15196078 25.7058824 6.31372549 21.5441176C6.37518295 21.4944782 6.44078258 21.4501984 6.50980392 21.4117647 6.14307996 20.4957176 5.93409278 19.5251324 5.8908037 18.5411217L5.88235294 18.1715686 1.47058824 18.1715686C0.65840478 18.1715686 3.39284156e-13 17.5131638 3.39284156e-13 16.7009804 3.39284156e-13 15.9365724 0.583223611 15.3083836 1.32896077 15.2371241L1.47058824 15.2303922 5.88235294 15.2303922 5.88235294 11.44117647 2.64215686 8.18627451C2.10223753 7.60684362 2.11816887 6.70390251 2.67819255 6.14387883 3.20321475 5.61885663 4.02962923 5.5720405799999995 4.60831651 6.01311927L4.72058824 6.10784314 7.98039216 9.36764706 21.4509804 9.36764706 24.7107843 6.10784314 21.4509804 9.36764706ZM14.7058824 1.9999999999997478C17.8807813 1.9999999999997478 20.4682076 4.5152695000000005 20.584178 7.66182523L20.5882353 7.88235294 8.82352941 7.88235294C8.82352941 4.70745398 11.3387989 2.120027684 14.4853546 2.00405732554L14.7058824 1.9999999999997478Z"/>
	</svg>
	