<?xml version="1.0"?>
	<svg xmlns="http://www.w3.org/2000/svg" 
		width="32" 
		height="32" 
		viewbox="0 0 32 32" 
		code="82413" 
		 transform=""
		><path d="M8.8554 17.4836C8.8554 17.6039 8.95204 17.7014 9.07125 17.7014H17.6412L17.7771 18.5642H9.07125C8.78713 18.5642 8.51466 18.4504 8.31376 18.2477 8.11286 18.0451 8 17.7702 8 17.4836V11.0806C8 10.4838 8.47961 10 9.07125 10H20.5592C21.1508 10 21.6304 10.4838 21.6304 11.0806V15.3708L20.775 14.774V11.0806C20.7755 11.0228 20.7524 10.9674 20.7111 10.9274 20.67 10.8878 20.6159 10.8649 20.5592 10.8629H9.07125C9.01314 10.8576 8.95624 10.8818 8.91935 10.9274 8.87802 10.9674 8.85488 11.0228 8.8554 11.0806V17.4836ZM23.6362 17.5482L18.9995 14.3225C18.868 14.2299 18.7121 14.1793 18.5518 14.1773 18.3453 14.1763 18.1491 14.2679 18.0162 14.4273 17.8744 14.6002 17.8158 14.8276 17.8563 15.0483L18.7357 20.6932C18.799 21.0876 19.1391 21.3758 19.5351 21.3706 19.6883 21.3702 19.8381 21.3254 19.9668 21.2416L20.9261 20.6368 21.5257 21.5964C21.6819 21.8496 21.9576 22.0025 22.2532 21.9996 22.4145 22.004 22.5734 21.959 22.7089 21.8706L23.0206 21.6771C23.2114 21.5521 23.3485 21.3592 23.4044 21.1368 23.453 20.9126 23.4128 20.6782 23.2925 20.4836L22.6929 19.5159 23.6522 18.911C23.8698 18.7607 23.9999 18.5118 23.9999 18.2457 23.9999 17.9797 23.8698 17.7308 23.6522 17.5804L23.6362 17.5482ZM23.2687 18.3547L21.9497 19.1611C21.8993 19.1896 21.8629 19.2379 21.8493 19.2945 21.8356 19.3511 21.8459 19.4109 21.8777 19.4595L22.6772 20.7901C22.7401 20.8905 22.7116 21.0233 22.6132 21.0885L22.3014 21.2901C22.2618 21.2974 22.2211 21.2974 22.1815 21.2901 22.1087 21.2886 22.042 21.2489 22.0056 21.1853L21.2062 19.8547C21.1652 19.792 21.0967 19.7529 21.0223 19.7498 20.9854 19.7418 20.9473 19.7418 20.9104 19.7498L19.5833 20.6611C19.5546 20.6694 19.5241 20.6694 19.4954 20.6611 19.4279 20.6568 19.3753 20.6003 19.3755 20.5321L18.4961 14.8871C18.4961 14.8145 18.4961 14.7661 18.5521 14.7661 18.5811 14.7607 18.6109 14.7607 18.64 14.7661L23.2687 17.9918C23.313 18.0156 23.3407 18.0622 23.3407 18.1128 23.3407 18.1634 23.313 18.2099 23.2687 18.2338V18.3547Z"/>
	</svg>
	