<?xml version="1.0"?>
	<svg xmlns="http://www.w3.org/2000/svg" 
		width="1024" 
		height="1024" 
		viewbox="0 0 1024 1024" 
		code="82411" 
		 transform=""
		><path d="M768 405.226v142.24l-22.245-23.07-0.29 0.054c0 0-77.605-64.797-88.475-75.662-10.87-10.864-31.339-7.83-32.211 14.746-0.915 0.814-0.702 135.41-0.654 166.349 0.005 2.485 0.006 4.302 0.008 5.326h0.018v22.526h-315.229c-34.982 0-52.922-17.986-52.922-53.045v-199.464c0-35.242 17.939-53.226 52.922-53.226h406.157c35.162 0 52.922 18.166 52.922 53.226zM653.006 617.042c-3.947 3.997-10.944 1.818-10.763-4.178v-145.51c0-5.813 6.458-8.355 10.405-4.178l98.13 105.181c3.947 4.542 1.077 10.355-4.664 10.536l-40.723 0.363 33.368 78.296c1.256 3.088 0.179 6.539-2.691 7.811l-15.429 6.178c-3.05 1.27-6.278-0.182-7.534-3.27l-31.933-79.931-28.165 28.702z"/>
	</svg>
	