<?xml version="1.0"?>
	<svg xmlns="http://www.w3.org/2000/svg" 
		width="64" 
		height="64" 
		viewbox="0 0 64 64" 
		code="82410" 
		 transform=""
		><path d="M48 34.2166V25.3266C48 23.1354 46.89 22 44.6924 22H19.3076C17.1212 22 16 23.124 16 25.3266V37.7931C16 39.9843 17.1212 41.1084 19.3076 41.1084H39.4338V39.7005H19.3301C18.0743 39.7005 17.3903 39.0306 17.3903 37.7136V25.3948C17.3903 24.0891 18.0743 23.4079 19.3301 23.4079H44.6699C45.9033 23.4079 46.6097 24.0891 46.6097 25.3948V32.7747L48 34.2166ZM40.1402 38.304C40.1289 38.6787 40.5662 38.8149 40.8129 38.5651L42.5732 36.7712 44.569 41.7669C44.6475 41.9599 44.8493 42.0507 45.0399 41.9713L46.0042 41.5852C46.1836 41.5057 46.2509 41.29 46.1724 41.097L44.0869 36.2035 46.6321 36.1808C46.9909 36.1695 47.1703 35.8062 46.9236 35.5223L40.7905 28.9485C40.5438 28.6874 40.1402 28.8463 40.1402 29.2096V38.304Z"/>
	</svg>
	