<?xml version="1.0"?>
	<svg xmlns="http://www.w3.org/2000/svg" 
		width="24" 
		height="24" 
		viewbox="0 0 24 24" 
		code="82412" 
		 transform=""
		><path d="M19 12.963V9.35145C19 8.46125 18.5491 8 17.6563 8H7.34373C6.4555 8 6 8.45663 6 9.35145V14.4159C6 15.3061 6.4555 15.7628 7.34373 15.7628H15.52V15.1908H7.35284C6.84268 15.1908 6.56482 14.9187 6.56482 14.3836V9.37913C6.56482 8.84869 6.84268 8.57195 7.35284 8.57195H17.6472C18.1482 8.57195 18.4352 8.84869 18.4352 9.37913V12.3772L19 12.963ZM15.8069 14.6235C15.8024 14.7757 15.98 14.8311 16.0802 14.7296L16.7954 14.0008 17.6062 16.0303C17.6381 16.1087 17.72 16.1456 17.7975 16.1133L18.1892 15.9565C18.2621 15.9242 18.2894 15.8366 18.2575 15.7582L17.4103 13.7702 18.4443 13.761C18.59 13.7564 18.6629 13.6088 18.5627 13.4934L16.0711 10.8228C15.9709 10.7167 15.8069 10.7813 15.8069 10.9289V14.6235Z"/>
	</svg>
	