<?xml version="1.0"?>
	<svg xmlns="http://www.w3.org/2000/svg" 
		width="30" 
		height="30" 
		viewbox="0 0 30 30" 
		code="80910" 
		 transform=""
		><path d="M8.5 2C9.35132895 2 10.0480623 2.65338504 10.1190444 3.48485435L10.125 3.625 10.125 5.25 19.875 5.25 19.875 3.625C19.875 2.77521053 20.5269266 2.07709972 21.3596241 2.00596836L21.5 2 21.6403759 2.00596836C22.4240912 2.07291553 23.0476772 2.69524932 23.1183285 3.47670841L23.125 3.625 23.125 5.25 26.375 5.25C27.2263289 5.25 27.9230623 5.90338504 27.9940444 6.73485435L28 6.875 28 26.375C28 27.2247895 27.3480734 27.9229003 26.5153759 27.9940316L26.375 28 3.625 28C2.77367105 28 2.07693767 27.346615 2.00595557 26.5151456L2 26.375 2 6.875C2 6.02521053 2.65192659 5.32709972 3.48462407 5.25596836L3.625 5.25 6.875 5.25 6.875 3.625C6.875 2.728 7.601375 2 8.5 2ZM16.625 21.5L13.375 21.5 13.375 24.75 16.625 24.75 16.625 21.5ZM10.125 21.5L6.875 21.5 6.875 24.75 10.125 24.75 10.125 21.5ZM23.125 15L19.875 15 19.875 18.25 23.125 18.25 23.125 15ZM16.625 15L13.375 15 13.375 18.25 16.625 18.25 16.625 15ZM10.125 15L6.875 15 6.875 18.25 10.125 18.25 10.125 15ZM24.75 8.5L5.25 8.5 5.25 11.75 24.75 11.75 24.75 8.5Z"/>
	</svg>
	