<?xml version="1.0"?>
	<svg xmlns="http://www.w3.org/2000/svg" 
		width="32" 
		height="32" 
		viewbox="0 0 32 32" 
		code="82414" 
		 transform=""
		><path d="M22.1065 22C23.3582 22 24 21.3597 24 20.1302V13.4066C24 12.1708 23.3582 11.5304 22.1065 11.5304H20.4763C19.9628 11.5304 19.8151 11.46 19.5071 11.1142L18.9743 10.5187C18.6406 10.1601 18.3453 10 17.7035 10H15.2003C14.5584 10 14.2632 10.1601 13.9294 10.5187L13.3967 11.1142C13.095 11.4536 12.9409 11.5304 12.4275 11.5304H10.8935C9.64185 11.5304 9 12.1708 9 13.4066V20.1302C9 21.3597 9.64185 22 10.8935 22H22.1065ZM21.9172 21H11.0766C10.3921 21 10 20.6371 10 19.9237V13.5461C10 12.8389 10.3921 12.4699 11.0766 12.4699H12.7133C13.2796 12.4699 13.5596 12.3899 13.8832 12.0332L14.3935 11.4674C14.7482 11.08 14.9287 11 15.4452 11H17.4615C17.978 11 18.1584 11.08 18.5132 11.4674L19.0235 12.0332C19.3408 12.3899 19.6271 12.4699 20.1934 12.4699H21.9172C22.6079 12.4699 23 12.8389 23 13.5461V19.9237C23 20.6371 22.6079 21 21.9172 21ZM20.0275 16.5379C20.0275 18.4973 18.455 20.0598 16.4974 20.0598 14.5462 20.0598 12.9736 18.4973 12.9736 16.5379 12.9736 14.572 14.5462 13.0096 16.4974 13.0096 18.4614 13.0096 20.0275 14.572 20.0275 16.5379ZM21.112 14.9183C21.51 14.9183 21.8373 14.5982 21.8373 14.1947 21.8373 13.7913 21.51 13.4712 21.112 13.4712 20.7141 13.4712 20.3867 13.7913 20.3867 14.1947 20.3867 14.5982 20.7141 14.9183 21.112 14.9183ZM14 16.5029C14 17.8876 15.1208 19 16.4971 19 17.8792 19 19 17.8876 19 16.5029 19 15.1124 17.8792 14 16.4971 14 15.115 14 14 15.1124 14 16.5029Z"/>
	</svg>
	