<?xml version="1.0"?>
	<svg xmlns="http://www.w3.org/2000/svg" 
		width="30" 
		height="30" 
		viewbox="0 0 30 30" 
		code="80913" 
		 transform=""
		><path d="M15 0C23.2842712 0 30 6.71572875 30 15 30 23.1794071 23.4532136 29.8297302 15.3138282 29.9967822L15 30C6.71572875 30 0 23.2842712 0 15 0 6.71572875 6.71572875 0 15 0ZM9.53793993 7.5015915L9.3796777 7.5015915C8.90507439 7.52068947 8.43586155 7.71166917 8.0730238 8.07453061 7.34920426 8.79839742 7.3111085 9.94955079 7.95873651 10.720061L8.0730238 10.8448163 12.228181 15.0002449 8.0730238 19.1556735C7.30899207 19.9217143 7.30899207 21.1599184 8.0730238 21.9259592 8.45699873 22.308 8.95655794 22.5 9.45807621 22.5 9.90387022 22.5 10.3496642 22.3482963 10.7115279 22.0462649L10.8431286 21.9259592 15.0002449 17.7705306 19.1554021 21.9259592C19.537418 22.308 20.0389362 22.5 20.5404545 22.5 21.0419728 22.5 21.543491 22.308 21.9255069 21.9259592 22.6511824 21.2002363 22.6893758 20.0507436 22.0400872 19.2804134L21.9255069 19.1556735 17.7703497 15.0002449 21.9255069 10.8448163C22.6914977 10.0787755 22.6914977 8.83861224 21.9255069 8.07453061 21.5626692 7.71166917 21.0938959 7.52068947 20.6195471 7.5015915L20.4613619 7.5015915C20.0397185 7.51856747 19.6224805 7.67135124 19.2801339 7.95994279L19.1554021 8.07453061 15.0002449 12.2299592 10.8431286 8.07453061C10.5264576 7.75702685 10.1280065 7.57112005 9.71542734 7.51681019L9.53793993 7.5015915Z"/>
	</svg>
	