<?xml version="1.0"?>
	<svg xmlns="http://www.w3.org/2000/svg" 
		width="30" 
		height="30" 
		viewbox="0 0 30 30" 
		code="80915" 
		 transform=""
		><path d="M21.63 15.78C24.8608658 15.78 27.48 18.3991342 27.48 21.63 27.48 24.8608658 24.8608658 27.48 21.63 27.48 18.3991342 27.48 15.78 24.8608658 15.78 21.63 15.78 18.3991342 18.3991342 15.78 21.63 15.78ZM4.08 16.43L11.88 16.43C12.5503125 16.43 13.1063672 16.9441602 13.1732556 17.597572L13.18 17.73 13.18 25.53C13.18 26.2003125 12.6658398 26.7563672 12.012428 26.8232556L11.88 26.83 4.08 26.83C3.4096875 26.83 2.853632812 26.3158398 2.786744385 25.662428L2.7800000000000002 25.53 2.7800000000000002 17.73C2.7800000000000002 17.059687500000003 3.2941601599999997 16.5036328 3.94757202 16.436744400000002L4.08 16.43ZM15.5039547 3.1814400000000003L15.585 3.3 20.408 11.204C20.9187917 12.02625 20.3669913 13.0872847 19.4276633 13.1742768L19.303 13.18 9.644 13.18C8.67225 13.18 8.058677079999999 12.1532257 8.478345560000001 11.31250448L8.539 11.204 13.375 3.3C13.8313 2.5512 14.84569 2.47632 15.413608 3.07536L15.5039547 3.1814400000000003 15.5039547 3.1814400000000003Z"/>
	</svg>
	