<?xml version="1.0"?>
	<svg xmlns="http://www.w3.org/2000/svg" 
		width="64" 
		height="64" 
		viewbox="0 0 64 64" 
		code="82421" 
		 transform=""
		><path d="M43.3471 18C45.7741 18 47 19.5461 47 22.5301L47 41.4854C47 44.4539 45.7741 46 43.3471 46L21.6529 46C19.2383 46 18 44.4694 18 41.4854L18 22.5301C18 19.5306 19.2383 18 21.6529 18L43.3471 18ZM39.8809 24C39.6025 24 39.4448 24.1021 39.2871 24.3525L39.2871 24.3525 30.6499 37.9531 26.2803 32.4795C26.104 32.2476 25.9277 32.1455 25.668 32.1455 25.2783 32.1455 25 32.4146 25 32.8042 25 32.9619 25.0649 33.1382 25.2041 33.3145L25.2041 33.3145 29.9727 39.1777C30.1768 39.4468 30.3901 39.5674 30.687 39.5674 30.9839 39.5674 31.2065 39.4375 31.3643 39.1963L31.3643 39.1963 40.3447 25.1597C40.4746 24.9556 40.521 24.7979 40.521 24.6494 40.521 24.2598 40.2612 24 39.8809 24Z"/>
	</svg>
	