<?xml version="1.0"?>
	<svg xmlns="http://www.w3.org/2000/svg" 
		width="16" 
		height="16" 
		viewbox="0 0 16 16" 
		code="82418" 
		 transform=""
		><path d="M8 12C10.1882 12 12 10.1843 12 8 12 5.81176 10.1843 4 7.99608 4 5.81176 4 4 5.81176 4 8 4 10.1843 5.81569 12 8 12ZM7.55686 9.91765C7.42353 9.91765 7.31373 9.86275 7.21176 9.72549L6.22745 8.51765C6.16863 8.43922 6.13333 8.35294 6.13333 8.26275 6.13333 8.08627 6.27059 7.94118 6.44706 7.94118 6.56078 7.94118 6.64706 7.97647 6.7451 8.10588L7.54118 9.13333 9.21569 6.44314C9.2902 6.32549 9.39216 6.26275 9.49412 6.26275 9.66667 6.26275 9.82745 6.38039 9.82745 6.56471 9.82745 6.65098 9.77647 6.74118 9.72941 6.82353L7.88627 9.72549C7.80392 9.8549 7.6902 9.91765 7.55686 9.91765Z"/>
	</svg>
	