<?xml version="1.0"?>
	<svg xmlns="http://www.w3.org/2000/svg" 
		width="24" 
		height="24" 
		viewbox="0 0 24 24" 
		code="82419" 
		 transform=""
		><path d="M12 18C15.2841 18 18 15.2841 18 12 18 8.71585 15.2841 6 11.994 6 8.70987 6 6 8.71585 6 12 6 15.2841 8.71585 18 12 18ZM11.9984 17.2252C9.10399 17.2252 6.77767 14.8929 6.77767 11.9984 6.77767 9.10399 9.10398 6.77767 11.9924 6.77767 14.8869 6.77767 17.2192 9.10399 17.2252 11.9984 17.2252 14.8929 14.8929 17.2252 11.9984 17.2252ZM11.6052 14.7697C11.5095 14.9133 11.3838 14.985 11.2283 14.985 11.0788 14.985 10.9591 14.9252 10.8335 14.7697L9.04487 12.6162C8.97308 12.5264 8.93121 12.4247 8.93121 12.317 8.93121 12.1017 9.0987 11.9402 9.30209 11.9402 9.4337 11.9402 9.54138 11.994 9.64307 12.1256L11.2104 14.0578 14.1057 9.48754C14.1894 9.34397 14.3091 9.27218 14.4347 9.27218 14.6261 9.27218 14.8175 9.40977 14.8175 9.62512 14.8175 9.72682 14.7697 9.82851 14.7099 9.91825L11.6052 14.7697Z"/>
	</svg>
	