<?xml version="1.0"?>
	<svg xmlns="http://www.w3.org/2000/svg" 
		width="30" 
		height="30" 
		viewbox="0 0 30 30" 
		code="80917" 
		 transform=""
		><path d="M25.34375 2.84375L5.65625 2.84375C4.109375 2.84375 2.84375 4.109375 2.84375 5.65625L2.84375 25.34375C2.84375 26.890625 4.109375 28.15625 5.65625 28.15625L25.34375 28.15625C26.890625 28.15625 28.15625 26.890625 28.15625 25.34375L28.15625 5.65625C28.15625 4.109375 26.890625 2.84375 25.34375 2.84375ZM13.6859375 21.5328125C13.1375 22.08125 12.2515625 22.08125 11.703125 21.5328125L6.6546875 16.484375C6.10625 15.9359375 6.10625 15.05 6.6546875 14.5015625 7.203125 13.953125 8.0890625 13.953125 8.6375 14.5015625L12.6875 18.5515625 22.3625 8.8765625C22.9109375 8.328125 23.796875 8.328125 24.3453125 8.8765625 24.89375 9.425 24.89375 10.3109375 24.3453125 10.859375L13.6859375 21.5328125Z"/>
	</svg>
	