<?xml version="1.0"?>
	<svg xmlns="http://www.w3.org/2000/svg" 
		width="64" 
		height="64" 
		viewbox="0 0 64 64" 
		code="82422" 
		 transform=""
		><path d="M42.4693 46H21.5307C18.8664 46 17.5 44.688 17.5 42.1303V21.8829C17.5 19.312 18.8664 18 21.5307 18H42.4693C45.1473 18 46.5 19.3252 46.5 21.8829V42.1303C46.5 44.6748 45.1473 46 42.4693 46ZM19.1943 42.0375C19.1943 43.5748 20.0278 44.3567 21.5581 44.3567H42.4419C43.9449 44.3567 44.8057 43.5748 44.8057 42.0375V21.9625C44.8057 20.4384 43.9449 19.6433 42.4419 19.6433H21.5581C20.0278 19.6433 19.1943 20.4384 19.1943 21.9625V42.0375ZM30.6035 39.4126C30.4458 39.6538 30.2231 39.7837 29.9263 39.7837 29.6294 39.7837 29.416 39.6631 29.2119 39.394L24.4434 33.5308C24.3042 33.3545 24.2393 33.1782 24.2393 33.0205 24.2393 32.6309 24.5176 32.3618 24.9072 32.3618 25.167 32.3618 25.3433 32.4639 25.5195 32.6958L29.8892 38.1694 38.5264 24.5688C38.6841 24.3184 38.8418 24.2163 39.1201 24.2163 39.5005 24.2163 39.7603 24.4761 39.7603 24.8657 39.7603 25.0142 39.7139 25.1719 39.584 25.376L30.6035 39.4126Z"/>
	</svg>
	