<?xml version="1.0"?>
	<svg xmlns="http://www.w3.org/2000/svg" 
		width="9" 
		height="9" 
		viewbox="0 0 9 9" 
		code="82425" 
		 transform=""
		><path d="M4.50151 3C4.58308 3 4.65861 3.03834 4.71601 3.10224L6.91541 5.48243C6.96979 5.53994 7 5.61342 7 5.69649 7 5.86901 6.87613 6 6.71299 6 6.63746 6 6.56193 5.96805 6.50755 5.91054L4.50151 3.73802 2.49245 5.91054C2.43807 5.96805 2.36858 6 2.28701 6 2.12689 6 2 5.86901 2 5.69649 2 5.61342 2.03021 5.53994 2.08459 5.48243L4.28399 3.10224C4.34743 3.03514 4.41692 3 4.50151 3Z"/>
	</svg>
	