<?xml version="1.0"?>
	<svg xmlns="http://www.w3.org/2000/svg" 
		width="8" 
		height="9" 
		viewbox="0 0 8 9" 
		code="82423" 
		 transform=""
		><path d="M4.00151 7C4.08308 7 4.15861 6.96166 4.21601 6.89776L6.41541 4.51757C6.46979 4.46006 6.5 4.38658 6.5 4.30351 6.5 4.13099 6.37613 4 6.21299 4 6.13746 4 6.06193 4.03195 6.00755 4.08946L4.00151 6.26198 1.99245 4.08946C1.93807 4.03195 1.86858 4 1.78701 4 1.62689 4 1.5 4.13099 1.5 4.30351 1.5 4.38658 1.53021 4.46006 1.58459 4.51757L3.78399 6.89776C3.84743 6.96486 3.91692 7 4.00151 7Z"/>
	</svg>
	