<?xml version="1.0"?>
	<svg xmlns="http://www.w3.org/2000/svg" 
		width="16" 
		height="17" 
		viewbox="0 0 16 17" 
		code="82424" 
		 transform=""
		><path d="M10.748 8.5C10.748 8.3418 10.6895 8.20703 10.5723 8.08398L6.20117 3.8125C6.0957 3.70703 5.96094 3.6543 5.80859 3.6543 5.49219 3.6543 5.25195 3.89453 5.25195 4.21094 5.25195 4.35742 5.31641 4.50391 5.41602 4.60352L9.40039 8.5 5.41602 12.3906C5.31641 12.4961 5.25195 12.6309 5.25195 12.7891 5.25195 13.1055 5.49219 13.3457 5.80859 13.3457 5.96094 13.3457 6.0957 13.2871 6.20117 13.1875L10.5723 8.91016C10.6895 8.79297 10.748 8.6582 10.748 8.5Z"/>
	</svg>
	