<?xml version="1.0"?>
	<svg xmlns="http://www.w3.org/2000/svg" 
		width="32" 
		height="32" 
		viewbox="0 0 32 32" 
		code="82426" 
		 transform=""
		><path d="M10 16C10 12.6863 12.6863 10 16 10 19.3137 10 22 12.6863 22 16 22 19.3137 19.3137 22 16 22 12.6863 22 10 19.3137 10 16ZM16 9C12.134 9 9 12.134 9 16 9 19.866 12.134 23 16 23 19.866 23 23 19.866 23 16 23 12.134 19.866 9 16 9ZM16.0006 12.6462C16.1409 12.6462 16.2748 12.7052 16.3695 12.8087L18.6563 15.3087C18.8427 15.5125 18.8286 15.8288 18.6248 16.0151 18.4211 16.2015 18.1048 16.1874 17.9184 15.9837L16.5005 14.4335V18.8538C16.5005 19.1299 16.2766 19.3538 16.0005 19.3538 15.7243 19.3538 15.5005 19.1299 15.5005 18.8538V14.4338L14.0828 15.9837C13.8964 16.1874 13.5802 16.2015 13.3764 16.0151 13.1726 15.8288 13.1586 15.5125 13.3449 15.3087L15.6317 12.8087C15.7264 12.7052 15.8603 12.6462 16.0006 12.6462Z"/>
	</svg>
	