<?xml version="1.0"?>
	<svg xmlns="http://www.w3.org/2000/svg" 
		width="32" 
		height="32" 
		viewbox="0 0 32 32" 
		code="82427" 
		 transform=""
		><path d="M10.5 8C10.7761 8 11 8.22386 11 8.5L11 23.5C11 23.7761 10.7761 24 10.5 24 10.2239 24 10 23.7761 10 23.5V8.5C10 8.22386 10.2239 8 10.5 8ZM20.5 8C20.7761 8 21 8.22386 21 8.5V15.9803C21 15.98 21 15.9805 21 15.9803 21 15.9805 21 15.9814 21 15.9817L21 23.5C21 23.7761 20.7761 24 20.5 24 20.2239 24 20 23.7761 20 23.5V16.481L12.5 16.481C12.2239 16.481 12 16.2571 12 15.981 12 15.7048 12.2239 15.481 12.5 15.481L20 15.481V8.5C20 8.22386 20.2239 8 20.5 8Z"/>
	</svg>
	