<?xml version="1.0"?>
	<svg xmlns="http://www.w3.org/2000/svg" 
		width="30" 
		height="30" 
		viewbox="0 0 30 30" 
		code="80930" 
		 transform=""
		><path d="M15.5 2C8.044175 2 2 8.0442155 2 15.5 2 22.9557395 8.044175 29 15.5 29 22.955825 29 29 22.9557395 29 15.5 29 8.0442155 22.955825 2 15.5 2ZM15.5 7.3999955C15.99707 7.3999955 16.4 7.8029255 16.4 8.2999955L16.4 15.1343795 20.590625 19.3250045C20.942075 19.6764995 20.942075 20.2391345 20.590625 20.5906295 20.23913 20.9421245 19.6764946 20.9421245 19.325 20.5906295L14.99375 16.2452945C14.7800445 16.0404995 14.63645 15.8482595 14.6 15.5000045L14.6 8.2999955C14.6 7.8029255 15.0029296 7.3999955 15.5 7.3999955Z"/>
	</svg>
	