<?xml version="1.0"?>
	<svg xmlns="http://www.w3.org/2000/svg" 
		width="16" 
		height="16" 
		viewbox="0 0 16 16" 
		code="82428" 
		 transform=""
		><path d="M8 12C10.1882 12 12 10.1843 12 8 12 5.81176 10.1843 4 7.99608 4 5.81176 4 4 5.81176 4 8 4 10.1843 5.81569 12 8 12ZM6.61569 9.7098C6.43922 9.7098 6.29412 9.56078 6.29412 9.38039 6.29412 9.29412 6.32941 9.21569 6.38824 9.15294L7.53725 8.00392 6.38824 6.8549C6.32941 6.79216 6.29412 6.71373 6.29412 6.62745 6.29412 6.44706 6.43922 6.30588 6.61569 6.30588 6.7098 6.30588 6.78431 6.33726 6.84314 6.4L7.99608 7.54902 9.16078 6.39608C9.22745 6.32941 9.29804 6.29804 9.38431 6.29804 9.56078 6.29804 9.70588 6.44314 9.70588 6.61961 9.70588 6.7098 9.67843 6.78039 9.61176 6.85098L8.45882 8.00392 9.60784 9.14902C9.67059 9.21569 9.70196 9.2902 9.70196 9.38039 9.70196 9.56078 9.55686 9.7098 9.37647 9.7098 9.28627 9.7098 9.20784 9.67059 9.1451 9.61176L7.99608 8.46275 6.8549 9.61176C6.79216 9.67451 6.7098 9.7098 6.61569 9.7098Z"/>
	</svg>
	