<?xml version="1.0"?>
	<svg xmlns="http://www.w3.org/2000/svg" 
		width="24" 
		height="24" 
		viewbox="0 0 24 24" 
		code="82429" 
		 transform=""
		><path d="M15.8558 7.14645C16.0511 7.34171 16.0511 7.65829 15.8558 7.85355L12.2082 11.5012 15.8558 15.1487C16.0511 15.344 16.0511 15.6606 15.8558 15.8558 15.6606 16.0511 15.344 16.0511 15.1487 15.8558L11.5011 12.2083 7.85355 15.8558C7.65829 16.0511 7.34171 16.0511 7.14645 15.8558 6.95118 15.6606 6.95118 15.344 7.14645 15.1487L10.794 11.5012 7.14645 7.85362C6.95119 7.65835 6.95118 7.34177 7.14645 7.14651 7.34171 6.95125 7.65829 6.95125 7.85355 7.14651L11.5011 10.7941 15.1487 7.14645C15.344 6.95118 15.6606 6.95118 15.8558 7.14645Z"/>
	</svg>
	