<?xml version="1.0"?>
	<svg xmlns="http://www.w3.org/2000/svg" 
		width="40" 
		height="40" 
		viewbox="0 0 40 40" 
		code="82430" 
		 transform=""
		><path d="M15.7589 19.884C15.9102 19.7328 16.1552 19.7328 16.3063 19.884 16.4576 20.0352 16.4576 20.2803 16.3063 20.4312L14.8057 21.9317 16.3063 23.4322C16.4576 23.5834 16.4576 23.8285 16.3063 23.9797 16.1552 24.1309 15.9102 24.1309 15.7589 23.9797L13.9846 22.2056C13.8336 22.0544 13.8336 21.8093 13.9846 21.6581L15.7589 19.884ZM24.1237 19.884C23.9724 19.7328 23.7273 19.7328 23.576 19.884 23.425 20.0352 23.425 20.2803 23.576 20.4315L25.0768 21.932 23.576 23.4325C23.425 23.5837 23.425 23.8288 23.576 23.98 23.7273 24.1312 23.9724 24.1312 24.1237 23.98L25.8977 22.2058C26.049 22.0547 26.049 21.8096 25.8977 21.6584L24.1237 19.884ZM20.6294 18.8037C20.7 18.6021 20.9211 18.4957 21.1229 18.5667 21.3247 18.6376 21.4305 18.8584 21.3602 19.0603L19.2536 25.0603C19.1828 25.2619 18.9617 25.3683 18.7602 25.2973 18.5583 25.2264 18.4521 25.0056 18.5232 24.8037L20.6294 18.8037ZM11.6216 10H28.3784C30.3786 10.0003 31.9997 11.6213 32 13.6216V25.7331C31.9997 27.7331 30.3786 29.3541 28.3784 29.3544H11.6216C9.62135 29.3544 8.00026 27.7333 8 25.7331V13.6216C8.00026 11.6213 9.62135 10.0003 11.6216 10ZM28.3784 28.5803C29.1659 28.58 29.8753 28.2624 30.3917 27.7464 30.9078 27.2301 31.2255 26.5208 31.2258 25.7333V15.4195H8.77448V25.7331C8.77448 26.5205 9.09219 27.2299 9.60833 27.7464 10.1247 28.2621 10.8341 28.58 11.6216 28.5803H28.3784ZM8.77448 14.6451H31.2255V13.6216C31.2255 12.8341 30.9078 12.1248 30.3917 11.6083 29.8753 11.0923 29.1659 10.7744 28.3784 10.7741H11.6216C10.8341 10.7744 10.1247 11.0923 9.60833 11.6083 9.09245 12.1248 8.77474 12.8341 8.77448 13.6216V14.6451Z"/>
	</svg>
	