<?xml version="1.0"?>
	<svg xmlns="http://www.w3.org/2000/svg" 
		width="30" 
		height="30" 
		viewbox="0 0 30 30" 
		code="80931" 
		 transform=""
		><path d="M0.835714355 10.3346939C0.352056838 10.2486124-0.000179788378 9.82799285-7.28306304e-14 9.33673469L-7.28306304e-14 8.22244898C-0.000179788378 7.73119082 0.352056838 7.31057126 0.835714355 7.2244898L2.15204089 6.99489796C2.30740709 6.42161748 2.53689434 5.8710539 2.83469395 5.35714286L2.06326537 4.26122449C1.78098756 3.85842637 1.8287511 3.31108201 2.17653068 2.96326531L2.9663266 2.17346939C3.31313159 1.82616155 3.85938913 1.77838016 4.26122456 2.06020408L5.35714293 2.83469388C5.87114802 2.53783121 6.42172222 2.30936864 6.99489803 2.15510204L7.22448986 0.83877551C7.30925416 0.353901106 7.73022129-1.13686838e-13 8.22244905-1.13686838e-13L9.33979599-1.13686838e-13C9.82989855 0.00130154459 10.2488164 0.353192517 10.3346939 0.835714286L10.5642858 2.15204082C11.1386679 2.3070232 11.6902925 2.53652372 12.2051021 2.83469388L13.2979593 2.06632653C13.6997947 1.7845026 14.2460522 1.832284 14.5928572 2.17959184L15.3857144 2.96632653C15.7334939 3.31414323 15.7812575 3.86148759 15.4989797 4.26428571L14.7306123 5.35714286C14.9544462 5.75416085 15.1380128 6.1725695 15.2785715 6.60612245 14.9521867 7.01039976 14.7331718 7.49054783 14.6418368 8.00204082L14.5346939 8.61428571 14.2071429 8.74897959 13.7020409 8.39693878C13.1813226 8.030889 12.5599736 7.83518009 11.9234695 7.83673469 11.822449 7.83673469 11.7275511 7.85510204 11.617347 7.86428571 11.1893738 6.5061264 9.8664001 5.63526561 8.44969399 5.77914616 7.03298788 5.9230267 5.91211017 7.04208481 5.7659281 8.45855528 5.61974603 9.87502576 6.48845624 11.1994126 7.84591844 11.6295918 7.77367396 12.3643162 7.96698013 13.1006172 8.3908164 13.705102L8.74591844 14.2102041C8.70000007 14.3173469 8.6540817 14.427551 8.61122456 14.5377551L7.99897966 14.644898C7.48748667 14.736233 7.00733861 14.9552479 6.60306129 15.2816327 6.16953017 15.1410166 5.75112713 14.9574525 5.3540817 14.7336735L4.25816333 15.5020408C3.85622948 15.7813322 3.31190035 15.7323168 2.9663266 15.3857143L2.17653068 14.5959184C1.8287511 14.2481017 1.78098756 13.7007573 2.06326537 13.2979592L2.83469395 12.205102C2.53779985 11.6911125 2.30933553 11.140534 2.15510211 10.5673469L0.835714355 10.3346939ZM19.1204082 7.25510204C19.7391388 7.26015822 20.2665129 7.70521052 20.3755103 8.31428571L20.6816327 9.98265306C21.3997566 10.1819111 22.0891339 10.4730958 22.7326531 10.8489796L24.1346939 9.8755102C24.6458305 9.51738441 25.3403371 9.57805692 25.7816327 10.0193878L26.7826531 11.0204082C27.223984 11.4617037 27.2846565 12.1562104 26.9265307 12.6673469L25.9530613 14.0571429C26.3303474 14.7104129 26.6205642 15.4102265 26.8163266 16.1387755L28.4846939 16.444898C29.0916223 16.5519395 29.53723 17.0745975 29.5469388 17.6908163L29.5469388 19.0989796C29.5460377 19.7221471 29.0983772 20.2549534 28.4846939 20.3632653L26.8163266 20.6693878C26.6190949 21.3916107 26.3289136 22.0851646 25.9530613 22.7326531L26.9265307 24.122449C27.2987253 24.6384497 27.2375544 25.3490737 26.7826531 25.7938776L25.7938776 26.7826531C25.352582 27.2239839 24.6580754 27.2846564 24.1469388 26.9265306L22.7326531 25.9530612C22.0793055 26.3301901 21.379513 26.6203981 20.6510205 26.8163265L20.344898 28.4846939C20.2365861 29.0983771 19.7037799 29.5460376 19.0806123 29.5469388L17.6908164 29.5469388C17.0676488 29.5460376 16.5348426 29.0983771 16.4265307 28.4846939L16.1204082 26.8163265C15.3929154 26.6203129 14.6941459 26.3301023 14.0418368 25.9530612L12.6642858 26.9265306C12.1531492 27.2846564 11.4586426 27.2239839 11.017347 26.7826531L10.0163266 25.7938776C9.56921701 25.3500155 9.50959883 24.6475578 9.87551027 24.1346939L10.8489797 22.7326531C10.4720014 22.0803129 10.1817943 21.3815519 9.98571435 20.6540816L8.31734701 20.3479592C7.70366375 20.2396473 7.2560033 19.706841 7.25510211 19.0836735L7.25510211 17.6908163C7.25573853 17.0686165 7.70181922 16.536156 8.31428578 16.4265306L9.98265313 16.1204082C10.1785152 15.391893 10.4687267 14.6920922 10.8459184 14.0387755L9.87551027 12.6642857C9.51738448 12.1531491 9.57805699 11.4586425 10.0193878 11.0173469L11.0204082 10.0163265C11.4620302 9.57763441 12.1544875 9.51831778 12.6642858 9.8755102L14.0540817 10.8489796C14.7063753 10.471907 15.405149 10.1816947 16.1326531 9.98571429L16.4387756 8.31734694C16.5470875 7.70366368 17.0798937 7.25600323 17.7030613 7.25510204L19.1204082 7.25510204ZM18.4010205 14.577551C16.2893766 14.577551 14.5775511 16.2893766 14.5775511 18.4010204 14.5775511 20.5126642 16.2893766 22.2244898 18.4010205 22.2244898 20.5126643 22.2244898 22.2244899 20.5126642 22.2244899 18.4010204 22.2244899 16.2893766 20.5126643 14.577551 18.4010205 14.577551Z"/>
	</svg>
	