<?xml version="1.0"?>
	<svg xmlns="http://www.w3.org/2000/svg" 
		width="32" 
		height="32" 
		viewbox="0 0 32 32" 
		code="82431" 
		 transform=""
		><path d="M18.8486 22.8537C18.939 23.1005 19.1529 23.2404 19.3751 23.2404 19.7288 23.2404 20.0003 22.9771 20.0003 22.6234 20.0003 22.4661 19.9321 22.2803 19.8759 22.1276 19.8646 22.0967 19.8537 22.067 19.844 22.0393L17.4829 16.1161 19.844 10.2011C19.8529 10.1757 19.8628 10.1484 19.8731 10.1199 19.9297 9.96416 20.0003 9.77 20.0003 9.617 20.0003 9.26325 19.7288 9 19.3751 9 19.1529 9 18.939 9.13985 18.8486 9.38665L16.5204 15.2276C16.4052 15.4991 16.2736 15.8528 16.2736 16.1161 16.2736 16.3876 16.4052 16.7331 16.5204 17.0128L18.8486 22.8537ZM13.575 22.8537C13.6654 23.1005 13.8793 23.2404 14.1015 23.2404 14.4552 23.2404 14.7267 22.9771 14.7267 22.6234 14.7267 22.4661 14.6585 22.2803 14.6023 22.1276 14.591 22.0967 14.5801 22.067 14.5704 22.0393L12.2093 16.1161 14.5704 10.2011C14.5793 10.1757 14.5892 10.1484 14.5995 10.12 14.6561 9.96416 14.7267 9.77 14.7267 9.617 14.7267 9.26325 14.4552 9 14.1015 9 13.8793 9 13.6654 9.13985 13.575 9.38665L11.2468 15.2276C11.1316 15.4991 11 15.8528 11 16.1161 11 16.3876 11.1316 16.7331 11.2468 17.0128L13.575 22.8537Z"/>
	</svg>
	