<?xml version="1.0"?>
	<svg xmlns="http://www.w3.org/2000/svg" 
		width="64" 
		height="64" 
		viewbox="0 0 64 64" 
		code="82433" 
		 transform=""
		><path d="M34.51 22.2854L34.51 42.7146C34.51 44.2304 35.53 45 37.718 45H44.792C46.98 45 48 44.2304 48 42.7146L48 22.2854C48 20.7696 46.98 20 44.792 20L37.718 20C35.53 20 34.51 20.7696 34.51 22.2854ZM36.4348 22.3904C36.4348 21.7024 36.9119 21.3643 37.899 21.3643L44.6111 21.3643C45.6146 21.3643 46.0588 21.7024 46.0588 22.3904V42.6096C46.0588 43.2976 45.6146 43.6357 44.6111 43.6357H37.899C36.9119 43.6357 36.4348 43.2976 36.4348 42.6096L36.4348 22.3904ZM16 22.2854L16 42.7146C16 44.2304 17.02 45 19.208 45H26.282C28.4535 45 29.4735 44.2304 29.4735 42.7146L29.4735 22.2854C29.4735 20.7696 28.4535 20 26.282 20L19.208 20C17.02 20 16 20.7696 16 22.2854ZM17.9248 22.3904C17.9248 21.7024 18.3854 21.3643 19.3889 21.3643L26.0846 21.3643C27.1046 21.3643 27.5487 21.7024 27.5487 22.3904L27.5487 42.6096C27.5487 43.2976 27.1045 43.6357 26.0846 43.6357H19.3889C18.3854 43.6357 17.9248 43.2976 17.9248 42.6096L17.9248 22.3904Z"/>
	</svg>
	