<?xml version="1.0"?>
	<svg xmlns="http://www.w3.org/2000/svg" 
		width="64" 
		height="64" 
		viewbox="0 0 64 64" 
		code="82432" 
		 transform=""
		><path d="M16 42.7146V22.2854C16 20.7696 17.1116 20 19.4961 20H26.123C28.4896 20 29.6012 20.7696 29.6012 22.2854L29.6012 42.7146C29.6012 44.2304 28.4896 45 26.123 45H19.4961C17.1116 45 16 44.2304 16 42.7146ZM34.3988 42.7146L34.3988 22.2854C34.3988 20.7696 35.5104 20 37.8949 20H44.5219C46.8884 20 48 20.7696 48 22.2854V42.7146C48 44.2304 46.8884 45 44.5219 45H37.8949C35.5104 45 34.3988 44.2304 34.3988 42.7146Z"/>
	</svg>
	