<?xml version="1.0"?>
	<svg xmlns="http://www.w3.org/2000/svg" 
		width="32" 
		height="32" 
		viewbox="0 0 32 32" 
		code="82434" 
		 transform=""
		><path d="M11 21V11H14V21H11ZM10 10.5C10 10.2239 10.2239 10 10.5 10H14.5C14.7761 10 15 10.2239 15 10.5V21.5C15 21.7761 14.7761 22 14.5 22H10.5C10.2239 22 10 21.7761 10 21.5V10.5ZM18 21V11H21V21H18ZM17 10.5C17 10.2239 17.2239 10 17.5 10H21.5C21.7761 10 22 10.2239 22 10.5V21.5C22 21.7761 21.7761 22 21.5 22H17.5C17.2239 22 17 21.7761 17 21.5V10.5Z"/>
	</svg>
	