<?xml version="1.0"?>
	<svg xmlns="http://www.w3.org/2000/svg" 
		width="32" 
		height="32" 
		viewbox="0 0 32 32" 
		code="82436" 
		 transform=""
		><path d="M24 20.0652C24 21.3374 23.3237 22 21.9846 22H10.0154C8.68318 22 8 21.344 8 20.0652V11.9415C8 10.656 8.68318 10 10.0154 10H21.9846C23.3237 10 24 10.6626 24 11.9415V20.0652ZM9 14H23V12.1824C23 11.4054 22.5788 11 21.8434 11H10.1566C9.40783 11 9 11.4054 9 12.1824V14ZM21.8287 21H14V15H23V19.9573C23 20.6485 22.5735 21 21.8287 21ZM10.0701 21H13V15H9V19.9573C9 20.6485 9.37732 21 10.0701 21Z"/>
	</svg>
	