<?xml version="1.0"?>
	<svg xmlns="http://www.w3.org/2000/svg" 
		width="32" 
		height="32" 
		viewbox="0 0 32 32" 
		code="82345" 
		 transform=""
		><path d="M14 11.5C14 12.8807 12.8807 14 11.5 14 10.1193 14 9 12.8807 9 11.5 9 10.1193 10.1193 9 11.5 9 12.8807 9 14 10.1193 14 11.5ZM15 11.5C15 13.433 13.433 15 11.5 15 9.567 15 8 13.433 8 11.5 8 9.567 9.567 8 11.5 8 13.433 8 15 9.567 15 11.5ZM14 20.5C14 21.8807 12.8807 23 11.5 23 10.1193 23 9 21.8807 9 20.5 9 19.1193 10.1193 18 11.5 18 12.8807 18 14 19.1193 14 20.5ZM15 20.5C15 22.433 13.433 24 11.5 24 9.567 24 8 22.433 8 20.5 8 18.567 9.567 17 11.5 17 13.433 17 15 18.567 15 20.5ZM20.5 14C21.8807 14 23 12.8807 23 11.5 23 10.1193 21.8807 9 20.5 9 19.1193 9 18 10.1193 18 11.5 18 12.8807 19.1193 14 20.5 14ZM20.5 15C22.433 15 24 13.433 24 11.5 24 9.567 22.433 8 20.5 8 18.567 8 17 9.567 17 11.5 17 13.433 18.567 15 20.5 15ZM23 20.5C23 21.8807 21.8807 23 20.5 23 19.1193 23 18 21.8807 18 20.5 18 19.1193 19.1193 18 20.5 18 21.8807 18 23 19.1193 23 20.5ZM24 20.5C24 22.433 22.433 24 20.5 24 18.567 24 17 22.433 17 20.5 17 18.567 18.567 17 20.5 17 22.433 17 24 18.567 24 20.5Z"/>
	</svg>
	