<?xml version="1.0"?>
	<svg xmlns="http://www.w3.org/2000/svg" 
		width="32" 
		height="32" 
		viewbox="0 0 32 32" 
		code="82440" 
		 transform=""
		><path d="M24.8396 10C25.4835 10 26 10.5404 26 11.2141 26 11.8803 25.4835 12.4281 24.8396 12.4281 24.3584 12.4281 23.941 12.1098 23.7641 11.6656H21.6768V19.335C21.6768 20.5861 21.0824 21.2227 19.8937 21.2227H8.24299C8.07318 21.6743 7.65571 22 7.16041 22 6.5236 22 6 21.4522 6 20.7859 6 20.1123 6.5236 19.5719 7.16041 19.5719 7.64156 19.5719 8.05195 19.8754 8.22884 20.3048H10.3232V12.5836C10.3232 11.3695 10.9105 10.7477 12.0639 10.7477H23.7712C23.941 10.3109 24.3584 10 24.8396 10ZM20.8493 19.3418V11.6651H12.0855C11.477 11.6651 11.1515 11.9908 11.1515 12.6349V20.3042H19.9224C20.5239 20.3042 20.8493 19.9785 20.8493 19.3418Z"/>
	</svg>
	