<?xml version="1.0"?>
	<svg xmlns="http://www.w3.org/2000/svg" 
		width="64" 
		height="64" 
		viewbox="0 0 64 64" 
		code="82438" 
		 transform=""
		><path d="M18 44.9486C18 45.598 18.402 46 19.0514 46H44.9486C45.5826 46 46 45.598 46 44.9486V19.0514C46 18.4174 45.5826 18 44.9486 18H19.0514C18.402 18 18 18.4174 18 19.0514V44.9486ZM19.9172 43.6963V20.3192C19.9172 20.0409 20.0254 19.9172 20.3037 19.9172H43.6808C43.9591 19.9172 44.0828 20.0409 44.0828 20.3192V43.6963C44.0828 43.9746 43.9591 44.0828 43.6808 44.0828H20.3037C20.0254 44.0828 19.9172 43.9746 19.9172 43.6963ZM23.7515 24.7101C24.2927 24.7101 24.7256 24.2772 24.7256 23.7515 24.7256 23.2258 24.2927 22.7929 23.7515 22.7929 23.2258 22.7929 22.7929 23.2258 22.7929 23.7515 22.7929 24.2772 23.2258 24.7101 23.7515 24.7101ZM27.8796 24.7101C28.4053 24.7101 28.8382 24.2772 28.8382 23.7515 28.8382 23.2258 28.4053 22.7929 27.8796 22.7929 27.3385 22.7929 26.921 23.2258 26.921 23.7515 26.921 24.2772 27.3385 24.7101 27.8796 24.7101ZM31.9923 24.7101C32.5334 24.7101 32.9663 24.2772 32.9663 23.7515 32.9663 23.2258 32.5334 22.7929 31.9923 22.7929 31.4666 22.7929 31.0337 23.2258 31.0337 23.7515 31.0337 24.2772 31.4666 24.7101 31.9923 24.7101ZM36.1204 24.7101C36.6461 24.7101 37.079 24.2772 37.079 23.7515 37.079 23.2258 36.6461 22.7929 36.1204 22.7929 35.5792 22.7929 35.1618 23.2258 35.1618 23.7515 35.1618 24.2772 35.5792 24.7101 36.1204 24.7101ZM40.2485 24.7101C40.7742 24.7101 41.2071 24.2772 41.2071 23.7515 41.2071 23.2258 40.7742 22.7929 40.2485 22.7929 39.7228 22.7929 39.2899 23.2258 39.2899 23.7515 39.2899 24.2772 39.7228 24.7101 40.2485 24.7101ZM40.2485 28.8382C40.7742 28.8382 41.2071 28.4053 41.2071 27.8796 41.2071 27.3385 40.7742 26.9056 40.2485 26.9056 39.7228 26.9056 39.2899 27.3385 39.2899 27.8796 39.2899 28.4053 39.7228 28.8382 40.2485 28.8382ZM23.7515 28.8382C24.2927 28.8382 24.7256 28.4053 24.7256 27.8796 24.7256 27.3385 24.2927 26.9056 23.7515 26.9056 23.2258 26.9056 22.7929 27.3385 22.7929 27.8796 22.7929 28.4053 23.2258 28.8382 23.7515 28.8382ZM40.2485 32.9509C40.7742 32.9509 41.2071 32.5179 41.2071 31.9923 41.2071 31.4666 40.7742 31.0337 40.2485 31.0337 39.7228 31.0337 39.2899 31.4666 39.2899 31.9923 39.2899 32.5179 39.7228 32.9509 40.2485 32.9509ZM23.7515 32.9509C24.2927 32.9509 24.7256 32.5179 24.7256 31.9923 24.7256 31.4666 24.2927 31.0337 23.7515 31.0337 23.2258 31.0337 22.7929 31.4666 22.7929 31.9923 22.7929 32.5179 23.2258 32.9509 23.7515 32.9509ZM40.2485 37.079C40.7742 37.079 41.2071 36.6461 41.2071 36.1204 41.2071 35.5792 40.7742 35.1463 40.2485 35.1463 39.7228 35.1463 39.2899 35.5792 39.2899 36.1204 39.2899 36.6461 39.7228 37.079 40.2485 37.079ZM23.7515 37.079C24.2927 37.079 24.7256 36.6461 24.7256 36.1204 24.7256 35.5792 24.2927 35.1463 23.7515 35.1463 23.2258 35.1463 22.7929 35.5792 22.7929 36.1204 22.7929 36.6461 23.2258 37.079 23.7515 37.079ZM40.2485 41.1916C40.7742 41.1916 41.2071 40.7587 41.2071 40.233 41.2071 39.7073 40.7742 39.2744 40.2485 39.2744 39.7228 39.2744 39.2899 39.7073 39.2899 40.233 39.2899 40.7587 39.7228 41.1916 40.2485 41.1916ZM36.1204 41.1916C36.6461 41.1916 37.079 40.7587 37.079 40.233 37.079 39.7073 36.6461 39.2744 36.1204 39.2744 35.5792 39.2744 35.1618 39.7073 35.1618 40.233 35.1618 40.7587 35.5792 41.1916 36.1204 41.1916ZM31.9923 41.1916C32.5334 41.1916 32.9663 40.7587 32.9663 40.233 32.9663 39.7073 32.5334 39.2744 31.9923 39.2744 31.4666 39.2744 31.0337 39.7073 31.0337 40.233 31.0337 40.7587 31.4666 41.1916 31.9923 41.1916ZM27.8796 41.1916C28.4053 41.1916 28.8382 40.7587 28.8382 40.233 28.8382 39.7073 28.4053 39.2744 27.8796 39.2744 27.3385 39.2744 26.921 39.7073 26.921 40.233 26.921 40.7587 27.3385 41.1916 27.8796 41.1916ZM23.7515 41.1916C24.2927 41.1916 24.7256 40.7587 24.7256 40.233 24.7256 39.7073 24.2927 39.2744 23.7515 39.2744 23.2258 39.2744 22.7929 39.7073 22.7929 40.233 22.7929 40.7587 23.2258 41.1916 23.7515 41.1916Z"/>
	</svg>
	