<?xml version="1.0"?>
	<svg xmlns="http://www.w3.org/2000/svg" 
		width="1024" 
		height="1024" 
		viewbox="0 0 1024 1024" 
		code="82437" 
		 transform=""
		><path d="M304.822 736h414.355c10.144 0 16.822-6.432 16.822-16.822v-414.355c0-10.144-6.678-16.822-16.822-16.822h-414.355c-10.39 0-16.822 6.678-16.822 16.822v414.355c0 10.39 6.432 16.822 16.822 16.822zM395.61 380.147c0 8.411-6.926 15.338-15.584 15.338-8.411 0-15.338-6.926-15.338-15.338 0-8.41 6.926-15.336 15.338-15.336 8.658 0 15.584 6.926 15.584 15.336zM461.411 380.147c0 8.411-6.926 15.338-15.336 15.338-8.659 0-15.338-6.926-15.338-15.338 0-8.41 6.678-15.336 15.338-15.336 8.41 0 15.336 6.926 15.336 15.336zM527.462 380.147c0 8.411-6.928 15.338-15.586 15.338-8.411 0-15.338-6.926-15.338-15.338 0-8.41 6.926-15.336 15.338-15.336 8.658 0 15.586 6.926 15.586 15.336zM593.264 380.147c0 8.411-6.926 15.338-15.338 15.338-8.658 0-15.338-6.926-15.338-15.338 0-8.41 6.68-15.336 15.338-15.336 8.411 0 15.338 6.926 15.338 15.336zM659.314 380.147c0 8.411-6.926 15.338-15.338 15.338s-15.338-6.926-15.338-15.338c0-8.41 6.926-15.336 15.338-15.336s15.338 6.926 15.338 15.336zM659.314 446.198c0 8.41-6.926 15.336-15.338 15.336s-15.338-6.926-15.338-15.336c0-8.659 6.926-15.586 15.338-15.586s15.338 6.926 15.338 15.586zM395.61 446.198c0 8.41-6.926 15.336-15.584 15.336-8.411 0-15.338-6.926-15.338-15.336 0-8.659 6.926-15.586 15.338-15.586 8.658 0 15.584 6.926 15.584 15.586zM659.314 512c0 8.411-6.926 15.338-15.338 15.338s-15.338-6.926-15.338-15.338c0-8.411 6.926-15.338 15.338-15.338s15.338 6.926 15.338 15.338zM395.61 512c0 8.411-6.926 15.338-15.584 15.338-8.411 0-15.338-6.926-15.338-15.338s6.926-15.338 15.338-15.338c8.658 0 15.584 6.926 15.584 15.338zM659.314 578.05c0 8.411-6.926 15.338-15.338 15.338s-15.338-6.926-15.338-15.338c0-8.658 6.926-15.584 15.338-15.584s15.338 6.926 15.338 15.584zM395.61 578.05c0 8.411-6.926 15.338-15.584 15.338-8.411 0-15.338-6.926-15.338-15.338 0-8.658 6.926-15.584 15.338-15.584 8.658 0 15.584 6.926 15.584 15.584zM659.314 643.851c0 8.411-6.926 15.338-15.338 15.338s-15.338-6.926-15.338-15.338c0-8.41 6.926-15.336 15.338-15.336s15.338 6.926 15.338 15.336zM593.264 643.851c0 8.411-6.926 15.338-15.338 15.338-8.658 0-15.338-6.926-15.338-15.338 0-8.41 6.68-15.336 15.338-15.336 8.411 0 15.338 6.926 15.338 15.336zM527.462 643.851c0 8.411-6.928 15.338-15.586 15.338-8.411 0-15.338-6.926-15.338-15.338 0-8.41 6.926-15.336 15.338-15.336 8.658 0 15.586 6.926 15.586 15.336zM461.411 643.851c0 8.411-6.926 15.338-15.336 15.338-8.659 0-15.338-6.926-15.338-15.338 0-8.41 6.678-15.336 15.338-15.336 8.41 0 15.336 6.926 15.336 15.336zM395.61 643.851c0 8.411-6.926 15.338-15.584 15.338-8.411 0-15.338-6.926-15.338-15.338 0-8.41 6.926-15.336 15.338-15.336 8.658 0 15.584 6.926 15.584 15.336z"/>
	</svg>
	