<?xml version="1.0"?>
	<svg xmlns="http://www.w3.org/2000/svg" 
		width="30" 
		height="30" 
		viewbox="0 0 30 30" 
		code="80939" 
		 transform=""
		><path d="M29.2727273 6.5150994L29.2727273 28.2320974C29.2727273 29.0320068 28.5851472 29.6798973 27.7362356 29.6798973L11.60307298 29.6798973 11.60307298 5.06729953 27.7362356 5.06729953C28.5851472 5.06729953 29.2727273 5.71518997 29.2727273 6.5150994ZM26.9679898 26.7842975C26.9679898 26.3861526 26.6222791 26.0603976 26.1997439 26.0603976L14.6760563 26.0603976C14.2535211 26.0603976 13.9078105 26.3861526 13.9078105 26.7842975 13.9078105 27.1824425 14.2535211 27.5081975 14.6760563 27.5081975L26.1997439 27.5081975C26.6222791 27.5081975 26.9679898 27.1824425 26.9679898 26.7842975ZM26.9679898 23.1647979C26.9679898 22.7666529 26.6222791 22.4408979 26.1997439 22.4408979L14.6760563 22.4408979C14.2535211 22.4408979 13.9078105 22.7666529 13.9078105 23.1647979 13.9078105 23.5629428 14.2535211 23.8886978 14.6760563 23.8886978L26.1997439 23.8886978C26.6222791 23.8886978 26.9679898 23.5629428 26.9679898 23.1647979ZM26.9679898 19.5452982C26.9679898 19.1471532 26.6222791 18.8213983 26.1997439 18.8213983L14.6760563 18.8213983C14.2535211 18.8213983 13.9078105 19.1471532 13.9078105 19.5452982 13.9078105 19.9434432 14.2535211 20.2691981 14.6760563 20.2691981L26.1997439 20.2691981C26.6222791 20.2691981 26.9679898 19.9434432 26.9679898 19.5452982ZM26.9679898 7.96289927C26.9679898 7.5647543 26.6222791 7.23899933 26.1997439 7.23899933L14.6760563 7.23899933C14.2535211 7.23899933 13.9078105 7.5647543 13.9078105 7.96289927L13.9078105 15.9257985C13.9078105 16.3239435 14.2535211 16.6496985 14.6760563 16.6496985L26.1997439 16.6496985C26.6222791 16.6496985 26.9679898 16.3239435 26.9679898 15.9257985L26.9679898 7.96289927ZM15.4443022 15.2018986L25.4314981 15.2018986 25.4314981 8.6867992 15.4443022 8.6867992 15.4443022 15.2018986ZM17.4916773-6.03961325e-14L10.45838668 3.70998716C10.45070423 3.71722616 10.44302177 3.72446516 10.43533931 3.72808466 10.41229193 3.74256266 10.38924456 3.75704065 10.36619718 3.77151865 10.34699104 3.78599665 10.33162612 3.80047465 10.31241997 3.81495265 10.29321383 3.83305015 10.27784891 3.84752815 10.26248399 3.86562564 10.24327785 3.88372314 10.22791293 3.90182064 10.21254802 3.91991814L10.21254802 3.91991814 10.17413572 3.97783013C10.16261204 3.99954713 10.15108835 4.01764463 10.13956466 4.03936163 10.12804097 4.06107863 10.12035851 4.08279562 10.11267606 4.10451262L10.11267606 4.10451262 10.08962868 4.17328312C10.08578745 4.19500011 10.08194622 4.21671711 10.07810499 4.23843411 10.07426376 4.26377061 10.07042254 4.28910711 10.07042254 4.3144436 10.07042254 4.3253021 10.06658131 4.3325411 10.06658131 4.3433996L10.06658131 4.3433996 10.06658131 24.6125977 3.53649168 24.6125977C2.687580026 24.6125977 2.0000000000001137 23.9647073 2.0000000000001137 23.1647979L2.0000000000001137 23.1647979 2.0000000000001137 1.44779987C2.0000000000001137 0.64789044 2.687580026-6.03961325e-14 3.53649168-6.03961325e-14L3.53649168-6.03961325e-14 17.4916773-6.03961325e-14ZM19.6696543 0.510349453L19.6696543 3.61949967 13.7772087 3.61949967 19.6696543 0.510349453Z"/>
	</svg>
	