<?xml version="1.0"?>
	<svg xmlns="http://www.w3.org/2000/svg" 
		width="24" 
		height="24" 
		viewbox="0 0 24 24" 
		code="82439" 
		 transform=""
		><path d="M6 17.5494C6 17.8277 6.17228 18 6.45058 18H17.5494C17.8211 18 18 17.8277 18 17.5494V6.45058C18 6.17891 17.8211 6 17.5494 6H6.45058C6.17228 6 6 6.17891 6 6.45058V17.5494ZM6.82165 17.0127V6.99393C6.82165 6.87465 6.86803 6.82165 6.9873 6.82165H17.0061C17.1253 6.82165 17.1784 6.87465 17.1784 6.99393V17.0127C17.1784 17.132 17.1253 17.1784 17.0061 17.1784H6.9873C6.86803 17.1784 6.82165 17.132 6.82165 17.0127ZM8.46494 8.87576C8.69685 8.87576 8.88239 8.69023 8.88239 8.46494 8.88239 8.23965 8.69685 8.05411 8.46494 8.05411 8.23965 8.05411 8.05411 8.23965 8.05411 8.46494 8.05411 8.69023 8.23965 8.87576 8.46494 8.87576ZM10.2341 8.87576C10.4594 8.87576 10.6449 8.69023 10.6449 8.46494 10.6449 8.23965 10.4594 8.05411 10.2341 8.05411 10.0022 8.05411 9.8233 8.23965 9.8233 8.46494 9.8233 8.69023 10.0022 8.87576 10.2341 8.87576ZM11.9967 8.87576C12.2286 8.87576 12.4141 8.69023 12.4141 8.46494 12.4141 8.23965 12.2286 8.05411 11.9967 8.05411 11.7714 8.05411 11.5859 8.23965 11.5859 8.46494 11.5859 8.69023 11.7714 8.87576 11.9967 8.87576ZM13.7659 8.87576C13.9912 8.87576 14.1767 8.69023 14.1767 8.46494 14.1767 8.23965 13.9912 8.05411 13.7659 8.05411 13.534 8.05411 13.3551 8.23965 13.3551 8.46494 13.3551 8.69023 13.534 8.87576 13.7659 8.87576ZM15.5351 8.87576C15.7604 8.87576 15.9459 8.69023 15.9459 8.46494 15.9459 8.23965 15.7604 8.05411 15.5351 8.05411 15.3098 8.05411 15.1242 8.23965 15.1242 8.46494 15.1242 8.69023 15.3098 8.87576 15.5351 8.87576ZM15.5351 10.6449C15.7604 10.6449 15.9459 10.4594 15.9459 10.2341 15.9459 10.0022 15.7604 9.81668 15.5351 9.81668 15.3098 9.81668 15.1242 10.0022 15.1242 10.2341 15.1242 10.4594 15.3098 10.6449 15.5351 10.6449ZM8.46494 10.6449C8.69685 10.6449 8.88239 10.4594 8.88239 10.2341 8.88239 10.0022 8.69685 9.81668 8.46494 9.81668 8.23965 9.81668 8.05411 10.0022 8.05411 10.2341 8.05411 10.4594 8.23965 10.6449 8.46494 10.6449ZM15.5351 12.4075C15.7604 12.4075 15.9459 12.222 15.9459 11.9967 15.9459 11.7714 15.7604 11.5859 15.5351 11.5859 15.3098 11.5859 15.1242 11.7714 15.1242 11.9967 15.1242 12.222 15.3098 12.4075 15.5351 12.4075ZM8.46494 12.4075C8.69685 12.4075 8.88239 12.222 8.88239 11.9967 8.88239 11.7714 8.69685 11.5859 8.46494 11.5859 8.23965 11.5859 8.05411 11.7714 8.05411 11.9967 8.05411 12.222 8.23965 12.4075 8.46494 12.4075ZM15.5351 14.1767C15.7604 14.1767 15.9459 13.9912 15.9459 13.7659 15.9459 13.534 15.7604 13.3484 15.5351 13.3484 15.3098 13.3484 15.1242 13.534 15.1242 13.7659 15.1242 13.9912 15.3098 14.1767 15.5351 14.1767ZM8.46494 14.1767C8.69685 14.1767 8.88239 13.9912 8.88239 13.7659 8.88239 13.534 8.69685 13.3484 8.46494 13.3484 8.23965 13.3484 8.05411 13.534 8.05411 13.7659 8.05411 13.9912 8.23965 14.1767 8.46494 14.1767ZM15.5351 15.9393C15.7604 15.9393 15.9459 15.7537 15.9459 15.5284 15.9459 15.3031 15.7604 15.1176 15.5351 15.1176 15.3098 15.1176 15.1242 15.3031 15.1242 15.5284 15.1242 15.7537 15.3098 15.9393 15.5351 15.9393ZM13.7659 15.9393C13.9912 15.9393 14.1767 15.7537 14.1767 15.5284 14.1767 15.3031 13.9912 15.1176 13.7659 15.1176 13.534 15.1176 13.3551 15.3031 13.3551 15.5284 13.3551 15.7537 13.534 15.9393 13.7659 15.9393ZM11.9967 15.9393C12.2286 15.9393 12.4141 15.7537 12.4141 15.5284 12.4141 15.3031 12.2286 15.1176 11.9967 15.1176 11.7714 15.1176 11.5859 15.3031 11.5859 15.5284 11.5859 15.7537 11.7714 15.9393 11.9967 15.9393ZM10.2341 15.9393C10.4594 15.9393 10.6449 15.7537 10.6449 15.5284 10.6449 15.3031 10.4594 15.1176 10.2341 15.1176 10.0022 15.1176 9.8233 15.3031 9.8233 15.5284 9.8233 15.7537 10.0022 15.9393 10.2341 15.9393ZM8.46494 15.9393C8.69685 15.9393 8.88239 15.7537 8.88239 15.5284 8.88239 15.3031 8.69685 15.1176 8.46494 15.1176 8.23965 15.1176 8.05411 15.3031 8.05411 15.5284 8.05411 15.7537 8.23965 15.9393 8.46494 15.9393Z"/>
	</svg>
	