<?xml version="1.0"?>
	<svg xmlns="http://www.w3.org/2000/svg" 
		width="30" 
		height="30" 
		viewbox="0 0 30 30" 
		code="80941" 
		 transform=""
		><path d="M5.445 11.555L2.91 14.09C2.403 14.597 2.403 15.416 2.91 15.923L5.445 18.458C6.082 19.095 7.109 19.095 7.746 18.458 8.370000000000001 17.820999999999998 8.370000000000001 16.807000000000002 7.746 16.17L6.602 15 7.746 13.843C8.370000000000001 13.206 8.370000000000001 12.192 7.746 11.555 7.122 10.918 6.082 10.918 5.445 11.555ZM22.254 11.555C21.63 12.192 21.63 13.206 22.254 13.843L23.398 15 22.254 16.157C21.63 16.794 21.63 17.808 22.254 18.445 22.891 19.082 23.918 19.082 24.555 18.445L27.09 15.91C27.597 15.403 27.597 14.584 27.09 14.077L24.555 11.542C23.918 10.918 22.878 10.918 22.254 11.555L22.254 11.555ZM15 23.398L13.843 22.254C13.206 21.63 12.192 21.63 11.555 22.254 10.918 22.891 10.918 23.918 11.555 24.555L14.09 27.09C14.597 27.597 15.416 27.597 15.923 27.09L18.458 24.555C19.095 23.918 19.095 22.891 18.458 22.254 17.820999999999998 21.63 16.807000000000002 21.63 16.17 22.254L15 23.398 15 23.398ZM11.555 7.746C12.192 8.370000000000001 13.206 8.370000000000001 13.843 7.746L15 6.602 16.157 7.746C16.794 8.370000000000001 17.808 8.370000000000001 18.445 7.746 19.082 7.109 19.082 6.082 18.445 5.445L15.91 2.91C15.403 2.403 14.584 2.403 14.077 2.91L11.555 5.445C10.918 6.082 10.918 7.122 11.555 7.746ZM11.1 15C11.1 12.845303867403315 12.845303867403315 11.1 15 11.1 17.154696132596683 11.1 18.9 12.845303867403315 18.9 15 18.9 17.154696132596683 17.154696132596683 18.9 15 18.9 12.845303867403315 18.9 11.1 17.154696132596683 11.1 15Z"/>
	</svg>
	