<?xml version="1.0"?>
	<svg xmlns="http://www.w3.org/2000/svg" 
		width="16" 
		height="16" 
		viewbox="0 0 16 16" 
		code="82443" 
		 transform=""
		><path d="M4 11.752C4 12.5827 4.40293 13 5.21271 13H8.88998C9.69976 13 10.1027 12.5787 10.1027 11.752V11.0167H10.7873C11.5932 11.0167 12 10.5954 12 9.76868V6.54134C12 6.05246 11.9022 5.74245 11.6088 5.43641L9.63325 3.39746C9.3555 3.10731 9.0269 3 8.60831 3H7.11002C6.30416 3 5.89731 3.4213 5.89731 4.24801V4.98331H5.21271C4.40685 4.98331 4 5.40064 4 6.23132V11.752ZM9.73105 7.59062L7.57555 5.36089C7.27824 5.05087 7.03178 4.98331 6.59364 4.98331H6.52714V4.25994C6.52714 3.86645 6.73447 3.6399 7.14132 3.6399H8.87042V5.67886C8.87042 6.1399 9.08949 6.35851 9.53936 6.35851H11.3702V9.75676C11.3702 10.1542 11.1589 10.3768 10.7521 10.3768H10.1027V8.64785C10.1027 8.13911 10.044 7.91653 9.73105 7.59062ZM9.43765 5.58347V3.9539L11.2059 5.78219H9.62934C9.49242 5.78219 9.43765 5.72258 9.43765 5.58347ZM4.62983 11.7401V6.23927C4.62983 5.84976 4.83716 5.62321 5.24401 5.62321H6.52714V7.92846C6.52714 8.42925 6.77751 8.67965 7.26259 8.67965H9.47286V11.7401C9.47286 12.1375 9.26161 12.3601 8.85868 12.3601H5.2401C4.83716 12.3601 4.62983 12.1375 4.62983 11.7401ZM7.33692 8.07949C7.18044 8.07949 7.11785 8.0159 7.11785 7.85692V5.77027L9.35159 8.07949H7.33692Z"/>
	</svg>
	