<?xml version="1.0"?>
	<svg xmlns="http://www.w3.org/2000/svg" 
		width="32" 
		height="32" 
		viewbox="0 0 32 32" 
		code="82444" 
		 transform=""
		><path d="M9 9.5C9 9.22386 9.22386 9 9.5 9H14C14.2761 9 14.5 9.22386 14.5 9.5 14.5 9.77614 14.2761 10 14 10H10L10 14C10 14.2761 9.77614 14.5 9.5 14.5 9.22386 14.5 9 14.2761 9 14V9.5ZM9 22.5C9 22.7761 9.22386 23 9.5 23H14C14.2761 23 14.5 22.7761 14.5 22.5 14.5 22.2239 14.2761 22 14 22H10L10 18C10 17.7239 9.77614 17.5 9.5 17.5 9.22386 17.5 9 17.7239 9 18V22.5ZM22.5 9C22.7761 9 23 9.22386 23 9.5V14C23 14.2761 22.7761 14.5 22.5 14.5 22.2239 14.5 22 14.2761 22 14L22 10H18C17.7239 10 17.5 9.77614 17.5 9.5 17.5 9.22386 17.7239 9 18 9H22.5ZM23 22.5C23 22.7761 22.7761 23 22.5 23H18C17.7239 23 17.5 22.7761 17.5 22.5 17.5 22.2239 17.7239 22 18 22H22L22 18C22 17.7239 22.2239 17.5 22.5 17.5 22.7761 17.5 23 17.7239 23 18V22.5Z"/>
	</svg>
	