<?xml version="1.0"?>
	<svg xmlns="http://www.w3.org/2000/svg" 
		width="32" 
		height="32" 
		viewbox="0 0 32 32" 
		code="82445" 
		 transform=""
		><path d="M20.1243 22.9789C20.1243 23.2651 19.9261 23.4779 19.6399 23.4779 19.3537 23.4779 19.1629 23.2651 19.1629 22.9789V20.1022H13.7838C12.4775 20.1022 11.8757 19.5078 11.8757 18.2162V12.793H8.96967C8.68346 12.793 8.5 12.6316 8.5 12.3454 8.5 12.0738 8.68346 11.8977 8.96967 11.8977H11.8757V9.02099C11.8757 8.72745 12.0665 8.52197 12.3601 8.52197 12.6463 8.52197 12.8297 8.72745 12.8297 9.02099V11.8977H18.2162C19.5225 11.8977 20.1243 12.4848 20.1243 13.7837V19.1996H23.0303C23.3165 19.1996 23.5 19.3684 23.5 19.6546 23.5 19.9261 23.3165 20.1022 23.0303 20.1022H20.1243V22.9789ZM13.8645 19.1996H19.1629V13.8351C19.1629 13.1453 18.862 12.793 18.1355 12.793H12.8297V18.1648C12.8297 18.8547 13.138 19.1996 13.8645 19.1996Z"/>
	</svg>
	