<?xml version="1.0"?>
	<svg xmlns="http://www.w3.org/2000/svg" 
		width="30" 
		height="30" 
		viewbox="0 0 30 30" 
		code="80943" 
		 transform=""
		><path d="M1.08112981 8.42397837L13.8861178 15.5769231 13.8861178 29.6529447C13.7542819 29.6326623 13.6300518 29.589562 13.5077233 29.5293485L3.01472356 23.7169471C1.72134981 22.9926578 1.05891752 22.2188829 1.00375965 20.4962753L1 20.2554087 1 9.22175481C1 8.91075721 1.02704327 8.66736779 1.08112981 8.42397837ZM28.7869591 8.42397837C28.8410457 8.66736779 28.8545673 8.91075721 28.8545673 9.22175481L28.8545673 20.2554087C28.8545673 22.1484375 28.1920072 22.9597356 26.8398437 23.7169471L16.46875 29.4636418C16.3064904 29.5582933 16.1442308 29.6259014 15.9819712 29.6529447L15.9819712 15.5769231 28.7869591 8.42397837ZM14.9408053 6.75015599e-14C15.7220553 6.75015599e-14 16.5033053 0.192307692 17.2750586 0.567426401L17.5640024 0.716646635 27.1587916 6.04435847C27.3646678 6.16337703 27.545015 6.28503653 27.7031342 6.41924051L27.8539663 6.55799279 14.9272837 13.6974159 2.0141226 6.55799279C2.19801683 6.37409856 2.41652644 6.21616587 2.66965144 6.06342548L2.86598558 5.94951923 12.3040865 0.716646635C13.1559495 0.243389423 14.0483774 6.75015599e-14 14.9408053 6.75015599e-14Z"/>
	</svg>
	