<?xml version="1.0"?>
	<svg xmlns="http://www.w3.org/2000/svg" 
		width="1024" 
		height="1024" 
		viewbox="0 0 1024 1024" 
		code="82481" 
		 transform=""
		><path d="M586.666 586.666c0 82.477-66.858 149.334-149.331 149.334-82.477 0-149.334-66.858-149.334-149.334 0-82.474 66.858-149.331 149.334-149.331 82.474 0 149.331 66.858 149.331 149.331zM736 586.666c0 82.477-66.858 149.334-149.334 149.334-82.474 0-149.331-66.858-149.331-149.334 0-82.474 66.858-149.331 149.331-149.331 82.477 0 149.334 66.858 149.334 149.331zM646.4 437.334c0 82.474-66.858 149.331-149.334 149.331-82.474 0-149.331-66.858-149.331-149.331 0-82.477 66.858-149.334 149.331-149.334 82.477 0 149.334 66.858 149.334 149.334z"/>
	</svg>
	