<?xml version="1.0"?>
	<svg xmlns="http://www.w3.org/2000/svg" 
		width="30" 
		height="30" 
		viewbox="0 0 30 30" 
		code="80946" 
		 transform=""
		><path d="M29 20.6L29 26.2C29 27.7488189 22.7330709 29 15 29L14.2563764 28.9961261C6.99225312 28.9202549 1.196059444 27.7392099 1.00487080004 26.2747066L1 26.2 1 20.6C1 22.1488189 7.26692913 23.4 15 23.4L15.7436236 23.3961261C23.0077469 23.3202549 28.8039406 22.1392099 28.9951292 20.6747066L29 20.6ZM29 12.2L29 17.8C29 19.3488189 22.7330709 20.6 15 20.6L14.2563764 20.5961261C6.99225312 20.5202549 1.196059444 19.3392099 1.00487080004 17.8747066L1 17.8 1 12.2C1 13.7488189 7.26692913 15 15 15L15.7436236 14.9961261C23.1308676 14.9189689 29 13.698857 29 12.2ZM15 0.9999999999999147L15.7436236 1.00387386456C23.0077469 1.0797451246 28.8039406 2.26079009 28.9951292 3.72529344L29 3.8 29 9.4C29 10.92383795 22.9335996 12.1595619 15.3730165 12.1990275L15 12.2C7.39165608 12.2 1.202540415 10.98885409 1.00487080004 9.47470656L1 9.4 1 3.8C1 2.2511811 7.26692913 0.9999999999999147 15 0.9999999999999147Z"/>
	</svg>
	