<?xml version="1.0"?>
	<svg xmlns="http://www.w3.org/2000/svg" 
		width="1024" 
		height="1024" 
		viewbox="0 0 1024 1024" 
		code="82482" 
		 transform=""
		><path d="M658.566 334.813l141.434 251.805h-159.405c-7.613 66.912-63.066 117.382-128.97 117.382-65.907 0-121.357-50.47-128.973-117.382h-126.653v-266.618h260.842v119.088c25.12 0.87 49.424 9.322 69.846 24.291l71.878-128.566zM568.157 556.998h182.01l-91.005-163.229-49.27 88.874-41.734 74.355zM286.406 349.626l1.159 207.37h97.091v-5.926l1.741-9.181c1.085-4.72 2.438-9.37 4.058-13.923 0.304-0.938 0.752-1.91 1.203-2.893 0.838-1.818 1.693-3.674 1.693-5.405 1.971-4.624 4.294-9.082 6.957-13.328 1.082-2.368 2.342-4.646 3.766-6.816 3.539-5.645 7.514-10.995 11.885-15.997l1.738-2.074c5.008-5.667 10.541-10.826 16.522-15.405l5.795-3.85c4.131-3.107 8.49-5.882 13.043-8.294l7.824-3.555c4.323-2.083 8.774-3.866 13.331-5.334l8.694-2.368 6.378-1.779v-91.242h-202.877zM416.067 579.542c1.958 52.995 46.266 94.358 98.966 92.39 46.829-0.845 86.17-35.648 92.966-82.246h-88.605l52.89-90.474c-16.912-12.896-37.667-19.658-58.89-19.19h-5.45c-52.701 1.968-93.837 46.525-91.878 99.52z"/>
	</svg>
	