<?xml version="1.0"?>
	<svg xmlns="http://www.w3.org/2000/svg" 
		width="30" 
		height="30" 
		viewbox="0 0 30 30" 
		code="80947" 
		 transform=""
		><path d="M28.7903226 9.482999999999997C29.458409 9.482999999999997 30 8.941408999999997 30 8.273322599999997 30 7.605236199999997 29.458409 7.063645199999996 28.7903226 7.063645199999996L17.6612903 7.063645199999996C16.9932039 7.063645199999996 16.4516129 7.605236199999997 16.4516129 8.273322599999997 16.4516129 8.941408999999997 16.9932039 9.482999999999997 17.6612903 9.482999999999997L28.7903226 9.482999999999997ZM26.8548387 14.321709699999998C27.5229251 14.321709699999998 28.0645161 13.780118699999997 28.0645161 13.112032299999997 28.0645161 12.443945899999997 27.5229251 11.902354899999997 26.8548387 11.902354899999997L17.6612903 11.902354899999997C16.9932039 11.902354899999997 16.4516129 12.443945899999997 16.4516129 13.112032299999997 16.4516129 13.780118699999997 16.9932039 14.321709699999998 17.6612903 14.321709699999998L26.8548387 14.321709699999998ZM24.9193548 19.160419379999997C25.5874412 19.160419379999997 26.1290323 18.618828349999998 26.1290323 17.950741959999995 26.1290323 17.282655569999996 25.5874412 16.741064539999996 24.9193548 16.741064539999996L17.6612903 16.741064539999996C16.9932039 16.741064539999996 16.4516129 17.282655569999996 16.4516129 17.950741959999995 16.4516129 18.618828349999998 16.9932039 19.160419379999997 17.6612903 19.160419379999997L24.9193548 19.160419379999997ZM22.983871 23.999129055999997C23.6519574 23.999129055999997 24.1935484 23.45753803 24.1935484 22.789451639999996 24.1935484 22.121365249999997 23.6519574 21.579774219999997 22.983871 21.579774219999997L17.6612903 21.579774219999997C16.9932039 21.579774219999997 16.4516129 22.121365249999997 16.4516129 22.789451639999996 16.4516129 23.45753803 16.9932039 23.999129055999997 17.6612903 23.999129055999997L22.983871 23.999129055999997ZM6.82258065 10.0015395L9.97503668 13.1539956C10.3718597 13.5508186 11.015237 13.5508186 11.4120601 13.1539956 11.8088832 12.7571725 11.8088832 12.1137952 11.4120601 11.7169722L6.57335042 6.878262500000002C6.17652736 6.481439399999999 5.53315007 6.481439399999999 5.136327 6.878262500000002L0.297617306 11.7169722C-0.0992057685 12.1137952-0.0992057685 12.7571725 0.297617306 13.1539956 0.69444038 13.5508186 1.33781769 13.5508186 1.73464076 13.1539956L4.88709678 10.0015395 4.88709678 23.032258065C4.88709678 23.566727177 5.32036965 23.999999999999982 5.85483871 23.999999999999982 6.38930778 23.999999999999982 6.82258065 23.566727177 6.82258065 23.032258065L6.82258065 10.0015395Z"/>
	</svg>
	