<?xml version="1.0"?>
	<svg xmlns="http://www.w3.org/2000/svg" 
		width="1024" 
		height="1024" 
		viewbox="0 0 1024 1024" 
		code="82484" 
		 transform=""
		><path d="M277.084 669.563h469.821c37.115 0 56.033-18.199 56.033-56.033v-275.858c0-37.834-18.918-56.033-56.033-56.033h-469.821c-37.356 0-56.034 18.199-56.034 56.033v275.858c0 37.834 18.678 56.033 56.034 56.033zM394.898 742.359h234.191c8.143 0 14.848-6.467 14.848-14.607 0-8.381-6.705-15.086-14.848-15.086h-234.191c-8.381 0-15.086 6.705-15.086 15.086 0 8.141 6.705 14.607 15.086 14.607z"/>
	</svg>
	