<?xml version="1.0"?>
	<svg xmlns="http://www.w3.org/2000/svg" 
		width="40" 
		height="40" 
		viewbox="0 0 40 40" 
		code="82483" 
		 transform=""
		><path d="M10.8236 26.1548H29.176C30.6258 26.1548 31.3648 25.4439 31.3648 23.966V13.1903C31.3648 11.7124 30.6258 11.0015 29.176 11.0015H10.8236C9.36437 11.0015 8.63477 11.7124 8.63477 13.1903V23.966C8.63477 25.4439 9.36437 26.1548 10.8236 26.1548ZM10.8516 24.9949C10.1314 24.9949 9.79465 24.6769 9.79465 23.9379V13.209C9.79465 12.4794 10.1314 12.1613 10.8516 12.1613H29.1479C29.8681 12.1613 30.2049 12.4794 30.2049 13.209V23.9379C30.2049 24.6769 29.8681 24.9949 29.1479 24.9949H10.8516ZM15.4257 28.9984H24.5738C24.8919 28.9984 25.1538 28.7458 25.1538 28.4278 25.1538 28.1004 24.8919 27.8385 24.5738 27.8385H15.4257C15.0983 27.8385 14.8364 28.1004 14.8364 28.4278 14.8364 28.7458 15.0983 28.9984 15.4257 28.9984Z"/>
	</svg>
	