<?xml version="1.0"?>
	<svg xmlns="http://www.w3.org/2000/svg" 
		width="32" 
		height="32" 
		viewbox="0 0 32 32" 
		code="82485" 
		 transform=""
		><path d="M22.513 20C23.5065 20 24 19.521 24 18.5178V11.4822C24 10.4725 23.5065 10 22.513 10H9.48701C8.5 10 8 10.4725 8 11.4822V18.5178C8 19.521 8.5 20 9.48701 20H22.513ZM22.3518 19H9.64185C9.197 19 9 18.8193 9 18.3707V11.6293C9 11.1869 9.197 11 9.64185 11H22.3518C22.7966 11 23 11.1869 23 11.6293V18.3707C23 18.8193 22.7966 19 22.3518 19ZM20.4219 21.4758C20.4219 21.7663 20.1881 22 19.8959 22H12.0842C11.792 22 11.5518 21.7663 11.5518 21.4758 11.5518 21.1853 11.792 20.9516 12.0842 20.9516H19.8959C20.1881 20.9516 20.4219 21.1853 20.4219 21.4758Z"/>
	</svg>
	