<?xml version="1.0"?>
	<svg xmlns="http://www.w3.org/2000/svg" 
		width="32" 
		height="32" 
		viewbox="0 0 32 32" 
		code="82486" 
		 transform=""
		><path d="M17.5 10.5C17.5 11.3284 16.8284 12 16 12 15.1716 12 14.5 11.3284 14.5 10.5 14.5 9.67157 15.1716 9 16 9 16.8284 9 17.5 9.67157 17.5 10.5ZM9.5 14C9.22388 14 9 14.2239 9 14.5 9 14.7761 9.22388 15 9.5 15H22.5C22.7761 15 23 14.7761 23 14.5 23 14.2239 22.7761 14 22.5 14H9.5ZM9.5 22C9.22388 22 9 22.2239 9 22.5 9 22.7761 9.22388 23 9.5 23H22.5C22.7761 23 23 22.7761 23 22.5 23 22.2239 22.7761 22 22.5 22H9.5ZM16 20C16.8284 20 17.5 19.3284 17.5 18.5 17.5 17.6716 16.8284 17 16 17 15.1716 17 14.5 17.6716 14.5 18.5 14.5 19.3284 15.1716 20 16 20Z"/>
	</svg>
	