<?xml version="1.0"?>
	<svg xmlns="http://www.w3.org/2000/svg" 
		width="32" 
		height="32" 
		viewbox="0 0 32 32" 
		code="82489" 
		 transform=""
		><path d="M9.42325 9.3335H22.5772C22.87 9.33349 23.1227 9.33348 23.3308 9.35048 23.5504 9.36842 23.7689 9.40804 23.9791 9.51515 24.2927 9.67494 24.5477 9.92991 24.7075 10.2435 24.8146 10.4537 24.8542 10.6722 24.8721 10.8918 24.8891 11.0999 24.8891 11.3525 24.8891 11.6454V20.3549C24.8891 20.6478 24.8891 20.9004 24.8721 21.1085 24.8542 21.3281 24.8146 21.5466 24.7075 21.7568 24.5477 22.0704 24.2927 22.3254 23.9791 22.4852 23.7689 22.5923 23.5504 22.6319 23.3308 22.6498 23.1227 22.6668 22.8701 22.6668 22.5772 22.6668H9.42324C9.13038 22.6668 8.87774 22.6668 8.66965 22.6498 8.45001 22.6319 8.23156 22.5923 8.02134 22.4852 7.70774 22.3254 7.45277 22.0704 7.29298 21.7568 7.18588 21.5466 7.14626 21.3281 7.12831 21.1085 7.11131 20.9004 7.11132 20.6478 7.11133 20.3549V11.6454C7.11132 11.3526 7.11131 11.0999 7.12831 10.8918 7.14626 10.6722 7.18588 10.4537 7.29298 10.2435 7.45277 9.92991 7.70774 9.67494 8.02134 9.51515 8.23156 9.40804 8.45001 9.36842 8.66965 9.35048 8.87774 9.33348 9.13039 9.33349 9.42325 9.3335ZM8.76013 10.4579C8.6092 10.4702 8.55325 10.4912 8.52578 10.5052 8.42124 10.5584 8.33625 10.6434 8.28299 10.7479 8.269 10.7754 8.24806 10.8314 8.23573 10.9823 8.22287 11.1397 8.22244 11.3465 8.22244 11.6668V20.3335C8.22244 20.6538 8.22287 20.8606 8.23573 21.018 8.24806 21.169 8.269 21.2249 8.28299 21.2524 8.33625 21.3569 8.42124 21.4419 8.52578 21.4952 8.55325 21.5092 8.6092 21.5301 8.76013 21.5424 8.91754 21.5553 9.12435 21.5557 9.44466 21.5557H22.5558C22.8761 21.5557 23.0829 21.5553 23.2403 21.5424 23.3912 21.5301 23.4472 21.5092 23.4747 21.4952 23.5792 21.4419 23.6642 21.3569 23.7174 21.2524 23.7314 21.2249 23.7524 21.169 23.7647 21.018 23.7776 20.8606 23.778 20.6538 23.778 20.3335V11.6668C23.778 11.3465 23.7776 11.1397 23.7647 10.9823 23.7524 10.8314 23.7314 10.7754 23.7174 10.7479 23.6642 10.6434 23.5792 10.5584 23.4747 10.5052 23.4472 10.4912 23.3912 10.4702 23.2403 10.4579 23.0829 10.445 22.8761 10.4446 22.5558 10.4446H9.44466C9.12435 10.4446 8.91754 10.445 8.76013 10.4579ZM9.88911 12.6668C9.88911 12.36 10.1378 12.1113 10.4447 12.1113H12.1113C12.4182 12.1113 12.6669 12.36 12.6669 12.6668V14.8891C12.6669 15.1959 12.4182 15.4446 12.1113 15.4446H10.4447C10.1378 15.4446 9.88911 15.1959 9.88911 14.8891V12.6668ZM10.4447 16.5557C10.1378 16.5557 9.88911 16.8044 9.88911 17.1113V19.3335C9.88911 19.6403 10.1378 19.8891 10.4447 19.8891H12.1113C12.4182 19.8891 12.6669 19.6403 12.6669 19.3335V17.1113C12.6669 16.8044 12.4182 16.5557 12.1113 16.5557H10.4447ZM14.6113 12.6668C14.6113 12.36 14.8601 12.1113 15.1669 12.1113H16.8336C17.1404 12.1113 17.3891 12.36 17.3891 12.6668V14.8891C17.3891 15.1959 17.1404 15.4446 16.8336 15.4446H15.1669C14.8601 15.4446 14.6113 15.1959 14.6113 14.8891V12.6668ZM15.1669 16.5557C14.8601 16.5557 14.6113 16.8044 14.6113 17.1113V19.3335C14.6113 19.6403 14.8601 19.8891 15.1669 19.8891H16.8336C17.1404 19.8891 17.3891 19.6403 17.3891 19.3335V17.1113C17.3891 16.8044 17.1404 16.5557 16.8336 16.5557H15.1669ZM19.3336 12.6668C19.3336 12.36 19.5823 12.1113 19.8891 12.1113H21.5558C21.8626 12.1113 22.1113 12.36 22.1113 12.6668V14.8891C22.1113 15.1959 21.8626 15.4446 21.5558 15.4446H19.8891C19.5823 15.4446 19.3336 15.1959 19.3336 14.8891V12.6668ZM19.8891 16.5557C19.5823 16.5557 19.3336 16.8044 19.3336 17.1113V19.3335C19.3336 19.6403 19.5823 19.8891 19.8891 19.8891H21.5558C21.8626 19.8891 22.1113 19.6403 22.1113 19.3335V17.1113C22.1113 16.8044 21.8626 16.5557 21.5558 16.5557H19.8891Z"/>
	</svg>
	