<?xml version="1.0"?>
	<svg xmlns="http://www.w3.org/2000/svg" 
		width="32" 
		height="32" 
		viewbox="0 0 32 32" 
		code="82490" 
		 transform=""
		><path d="M6.66699 22.4167V9.58333C6.66699 9.26117 6.92816 9 7.25033 9 7.57249 9 7.83366 9.26117 7.83366 9.58333L7.83366 22.4167C7.83366 22.7388 7.57249 23 7.25032 23 6.92816 23 6.66699 22.7388 6.66699 22.4167ZM24.167 22.4167L24.167 9.58333C24.167 9.26117 24.4282 9 24.7503 9 25.0725 9 25.3337 9.26117 25.3337 9.58333L25.3337 22.4167C25.3337 22.7388 25.0725 23 24.7503 23 24.4282 23 24.167 22.7388 24.167 22.4167ZM12.9958 21.4261C12.7222 21.4261 12.5003 21.2042 12.5003 20.9306V10.5737H16.003C18.3133 10.5737 19.5003 12.0256 19.5003 13.9227 19.5003 15.8197 18.3133 17.2769 16.0189 17.2769H13.4912V20.9306C13.4912 21.2042 13.2694 21.4261 12.9958 21.4261ZM13.4912 11.4639V16.3867H15.9924C17.6934 16.3867 18.5253 15.3428 18.5253 13.9227 18.5253 12.4972 17.6934 11.4639 15.9765 11.4639H13.4912Z"/>
	</svg>
	