<?xml version="1.0"?>
	<svg xmlns="http://www.w3.org/2000/svg" 
		width="32" 
		height="32" 
		viewbox="0 0 32 32" 
		code="82491" 
		 transform=""
		><path d="M24.485 8.39026C24.7268 8.14851 24.7268 7.75656 24.485 7.51481 24.2433 7.27306 23.8513 7.27306 23.6096 7.51481L21.436 9.68843 11.1435 9.68843C10.8172 9.68842 10.5356 9.68841 10.3038 9.70736 10.059 9.72735 9.81562 9.7715 9.58139 9.89085 9.23195 10.0689 8.94785 10.353 8.7698 10.7024 8.65045 10.9367 8.6063 11.1801 8.58631 11.4248 8.56736 11.6567 8.56737 11.9382 8.56738 12.2645V19.981C8.56737 20.3073 8.56736 20.5888 8.58631 20.8207 8.6063 21.0654 8.65045 21.3088 8.7698 21.5431 8.85881 21.7178 8.97434 21.8762 9.11128 22.0131L7.51432 23.6101C7.27257 23.8518 7.27257 24.2438 7.51432 24.4855 7.75607 24.7273 8.14802 24.7273 8.38977 24.4855L10.3347 22.5406C10.5606 22.5571 10.8315 22.5571 11.1435 22.5571H21.4445C21.7708 22.5571 22.0523 22.5571 22.2842 22.5382 22.529 22.5182 22.7724 22.474 23.0066 22.3547 23.356 22.1766 23.6401 21.8925 23.8182 21.5431 23.9375 21.3088 23.9817 21.0654 24.0017 20.8207 24.0206 20.5888 24.0206 20.3073 24.0206 19.981V12.2645C24.0206 11.9382 24.0206 11.6567 24.0017 11.4248 23.9817 11.1801 23.9375 10.9367 23.8182 10.7024 23.6401 10.353 23.356 10.0689 23.0066 9.89085 23.0017 9.88834 22.9968 9.88587 22.9919 9.88344L24.485 8.39026ZM20.1979 10.9265H11.1674C10.8104 10.9265 10.58 10.927 10.4046 10.9413 10.2364 10.9551 10.1741 10.9784 10.1435 10.994 10.027 11.0533 9.93228 11.148 9.87294 11.2645 9.85734 11.2951 9.83402 11.3575 9.82028 11.5256 9.80595 11.701 9.80546 11.9315 9.80546 12.2884V19.9571C9.80546 20.314 9.80595 20.5445 9.82028 20.7199 9.83402 20.888 9.85734 20.9504 9.87294 20.981 9.9026 21.0392 9.9411 21.092 9.98673 21.1376L20.1979 10.9265ZM11.5563 21.319L21.9453 10.93C22.0362 10.9322 22.1141 10.9357 22.1834 10.9413 22.3516 10.9551 22.4139 10.9784 22.4445 10.994 22.561 11.0533 22.6557 11.148 22.7151 11.2645 22.7307 11.2951 22.754 11.3575 22.7677 11.5256 22.782 11.701 22.7825 11.9315 22.7825 12.2884V19.9571C22.7825 20.314 22.782 20.5445 22.7677 20.7199 22.754 20.888 22.7307 20.9504 22.7151 20.981 22.6557 21.0975 22.561 21.1922 22.4445 21.2515 22.4139 21.2671 22.3516 21.2905 22.1834 21.3042 22.008 21.3185 21.7776 21.319 21.4206 21.319H11.5563Z"/>
	</svg>
	