<?xml version="1.0"?>
	<svg xmlns="http://www.w3.org/2000/svg" 
		width="32" 
		height="32" 
		viewbox="0 0 32 32" 
		code="82487" 
		 transform=""
		><path d="M11.5206 12.2629C11.2193 12.2628 10.9595 12.2628 10.7454 12.2803 10.5195 12.2988 10.2948 12.3395 10.0786 12.4497 9.75603 12.6141 9.49378 12.8763 9.32942 13.1989 9.21926 13.4151 9.1785 13.6398 9.16005 13.8657 9.14256 14.0797 9.14257 14.3396 9.14258 14.6408L9.14258 17.3135C9.14257 17.6147 9.14256 17.8745 9.16005 18.0886 9.1785 18.3145 9.21926 18.5392 9.32942 18.7554 9.49378 19.078 9.75603 19.3402 10.0786 19.5046 10.2948 19.6148 10.5195 19.6555 10.7454 19.674 10.9595 19.6914 11.2193 19.6914 11.5205 19.6914H20.4789C20.7801 19.6914 21.04 19.6914 21.254 19.674 21.4799 19.6555 21.7046 19.6148 21.9208 19.5046 22.2434 19.3402 22.5057 19.078 22.67 18.7554 22.7802 18.5392 22.8209 18.3145 22.8394 18.0886 22.8569 17.8745 22.8569 17.6147 22.8569 17.3135V14.6408C22.8569 14.3396 22.8569 14.0797 22.8394 13.8657 22.8209 13.6398 22.7802 13.4151 22.67 13.1989 22.5057 12.8763 22.2434 12.6141 21.9208 12.4497 21.7046 12.3395 21.4799 12.2988 21.254 12.2803 21.04 12.2628 20.7802 12.2628 20.479 12.2629L11.5206 12.2629ZM10.5974 13.468C10.6257 13.4536 10.6832 13.4321 10.8385 13.4194 11.0004 13.4062 11.2131 13.4057 11.5426 13.4057L20.4569 13.4057C20.7863 13.4057 20.9991 13.4062 21.161 13.4194 21.3162 13.4321 21.3737 13.4536 21.402 13.468 21.5095 13.5228 21.5969 13.6102 21.6517 13.7177 21.6661 13.746 21.6877 13.8035 21.7003 13.9588 21.7136 14.1207 21.714 14.3334 21.714 14.6629V17.2914C21.714 17.6209 21.7136 17.8336 21.7003 17.9955 21.6877 18.1508 21.6661 18.2083 21.6517 18.2366 21.5969 18.3441 21.5095 18.4315 21.402 18.4863 21.3737 18.5007 21.3162 18.5222 21.161 18.5349 20.9991 18.5481 20.7863 18.5486 20.4569 18.5486H11.5426C11.2131 18.5486 11.0004 18.5481 10.8385 18.5349 10.6832 18.5222 10.6257 18.5007 10.5974 18.4863 10.4899 18.4315 10.4025 18.3441 10.3477 18.2366 10.3333 18.2083 10.3118 18.1508 10.2991 17.9955 10.2859 17.8336 10.2854 17.6209 10.2854 17.2914V14.6629C10.2854 14.3334 10.2859 14.1207 10.2991 13.9588 10.3118 13.8035 10.3333 13.746 10.3477 13.7177 10.4025 13.6102 10.4899 13.5228 10.5974 13.468ZM22.2854 24H9.71401C9.39842 24 9.14258 23.7442 9.14258 23.4286 9.14258 23.113 9.39842 22.8571 9.71401 22.8571H22.2854C22.601 22.8571 22.8569 23.113 22.8569 23.4286 22.8569 23.7442 22.601 24 22.2854 24ZM22.2854 9.14286L9.71401 9.14286C9.39842 9.14286 9.14258 8.88702 9.14258 8.57143 9.14258 8.25584 9.39842 8 9.71401 8L22.2854 8C22.601 8 22.8569 8.25584 22.8569 8.57143 22.8569 8.88702 22.601 9.14286 22.2854 9.14286Z"/>
	</svg>
	