<?xml version="1.0"?>
	<svg xmlns="http://www.w3.org/2000/svg" 
		width="32" 
		height="32" 
		viewbox="0 0 32 32" 
		code="82488" 
		 transform=""
		><path d="M9.42325 9.3335C9.13039 9.33349 8.87774 9.33348 8.66965 9.35048 8.45001 9.36842 8.23156 9.40804 8.02134 9.51515 7.70774 9.67494 7.45277 9.92991 7.29298 10.2435 7.18588 10.4537 7.14626 10.6722 7.12831 10.8918 7.11131 11.0999 7.11132 11.3526 7.11133 11.6454V20.3549C7.11132 20.6478 7.11131 20.9004 7.12831 21.1085 7.14626 21.3281 7.18588 21.5466 7.29298 21.7568 7.45277 22.0704 7.70774 22.3254 8.02134 22.4852 8.23156 22.5923 8.45001 22.6319 8.66965 22.6498 8.87774 22.6668 9.13038 22.6668 9.42324 22.6668H22.5772C22.8701 22.6668 23.1227 22.6668 23.3308 22.6498 23.5504 22.6319 23.7689 22.5923 23.9791 22.4852 24.2927 22.3254 24.5477 22.0704 24.7075 21.7568 24.8146 21.5466 24.8542 21.3281 24.8721 21.1085 24.8891 20.9004 24.8891 20.6478 24.8891 20.3549V11.6454C24.8891 11.3525 24.8891 11.0999 24.8721 10.8918 24.8542 10.6722 24.8146 10.4537 24.7075 10.2435 24.5477 9.92991 24.2927 9.67494 23.9791 9.51515 23.7689 9.40804 23.5504 9.36842 23.3308 9.35048 23.1227 9.33348 22.87 9.33349 22.5772 9.3335H9.42325ZM8.52578 10.5052C8.55325 10.4912 8.6092 10.4702 8.76013 10.4579 8.91754 10.445 9.12435 10.4446 9.44466 10.4446H22.5558C22.8761 10.4446 23.0829 10.445 23.2403 10.4579 23.3912 10.4702 23.4472 10.4912 23.4747 10.5052 23.5792 10.5584 23.6642 10.6434 23.7174 10.7479 23.7314 10.7754 23.7524 10.8314 23.7647 10.9823 23.7776 11.1397 23.778 11.3465 23.778 11.6668V20.3335C23.778 20.6538 23.7776 20.8606 23.7647 21.018 23.7524 21.169 23.7314 21.2249 23.7174 21.2524 23.6642 21.3569 23.5792 21.4419 23.4747 21.4952 23.4472 21.5092 23.3912 21.5301 23.2403 21.5424 23.0829 21.5553 22.8761 21.5557 22.5558 21.5557H9.44466C9.12435 21.5557 8.91754 21.5553 8.76013 21.5424 8.6092 21.5301 8.55325 21.5092 8.52578 21.4952 8.42124 21.4419 8.33625 21.3569 8.28299 21.2524 8.269 21.2249 8.24806 21.169 8.23573 21.018 8.22287 20.8606 8.22244 20.6538 8.22244 20.3335V11.6668C8.22244 11.3465 8.22287 11.1397 8.23573 10.9823 8.24806 10.8314 8.269 10.7754 8.28299 10.7479 8.33625 10.6434 8.42124 10.5584 8.52578 10.5052ZM10.4447 11.5951C10.1378 11.5951 9.88911 11.8438 9.88911 12.1506V19.9284C9.88911 20.2352 10.1378 20.4839 10.4447 20.4839H12.1113C12.4182 20.4839 12.6669 20.2352 12.6669 19.9284V12.1506C12.6669 11.8438 12.4182 11.5951 12.1113 11.5951H10.4447ZM14.6113 12.1506C14.6113 11.8438 14.8601 11.5951 15.1669 11.5951H16.8336C17.1404 11.5951 17.3891 11.8438 17.3891 12.1506V19.9284C17.3891 20.2352 17.1404 20.4839 16.8336 20.4839H15.1669C14.8601 20.4839 14.6113 20.2352 14.6113 19.9284V12.1506ZM19.8891 11.5951C19.5823 11.5951 19.3336 11.8438 19.3336 12.1506V19.9284C19.3336 20.2352 19.5823 20.4839 19.8891 20.4839H21.5558C21.8626 20.4839 22.1113 20.2352 22.1113 19.9284V12.1506C22.1113 11.8438 21.8626 11.5951 21.5558 11.5951H19.8891Z"/>
	</svg>
	