<?xml version="1.0"?>
	<svg xmlns="http://www.w3.org/2000/svg" 
		width="32" 
		height="32" 
		viewbox="0 0 32 32" 
		code="82495" 
		 transform=""
		><path d="M23.4286 10.2859C23.7442 10.2859 24 10.0301 24 9.7145 24 9.39891 23.7442 9.14307 23.4286 9.14307L8.57143 9.14307C8.25584 9.14307 8 9.3989 8 9.7145 8 10.0301 8.25584 10.2859 8.57143 10.2859L23.4286 10.2859ZM12.6088 12.7588C12.5714 12.8322 12.5714 12.9282 12.5714 13.1202V14.3088C12.5714 14.5008 12.5714 14.5968 12.6088 14.6702 12.6417 14.7347 12.6941 14.7871 12.7586 14.82 12.832 14.8574 12.928 14.8574 13.12 14.8574H14.3086C14.5006 14.8574 14.5966 14.8574 14.6699 14.82 14.7345 14.7871 14.7869 14.7347 14.8198 14.6702 14.8571 14.5968 14.8571 14.5008 14.8571 14.3088V13.1202C14.8571 12.9282 14.8571 12.8322 14.8198 12.7588 14.7869 12.6943 14.7345 12.6419 14.6699 12.609 14.5966 12.5716 14.5006 12.5716 14.3086 12.5716H13.12C12.928 12.5716 12.832 12.5716 12.7586 12.609 12.6941 12.6419 12.6417 12.6943 12.6088 12.7588ZM17.1802 12.7588C17.1429 12.8322 17.1429 12.9282 17.1429 13.1202V14.3088C17.1429 14.5008 17.1429 14.5968 17.1802 14.6702 17.2131 14.7347 17.2655 14.7871 17.3301 14.82 17.4034 14.8574 17.4994 14.8574 17.6914 14.8574H18.88C19.072 14.8574 19.168 14.8574 19.2414 14.82 19.3059 14.7871 19.3583 14.7347 19.3912 14.6702 19.4286 14.5968 19.4286 14.5008 19.4286 14.3088V13.1202C19.4286 12.9282 19.4286 12.8322 19.3912 12.7588 19.3583 12.6943 19.3059 12.6419 19.2414 12.609 19.168 12.5716 19.072 12.5716 18.88 12.5716H17.6914C17.4994 12.5716 17.4034 12.5716 17.3301 12.609 17.2655 12.6419 17.2131 12.6943 17.1802 12.7588ZM12.5714 17.6916C12.5714 17.4996 12.5714 17.4036 12.6088 17.3303 12.6417 17.2658 12.6941 17.2133 12.7586 17.1804 12.832 17.1431 12.928 17.1431 13.12 17.1431H14.3086C14.5006 17.1431 14.5966 17.1431 14.6699 17.1804 14.7345 17.2133 14.7869 17.2658 14.8198 17.3303 14.8571 17.4036 14.8571 17.4996 14.8571 17.6916V18.8802C14.8571 19.0722 14.8571 19.1682 14.8198 19.2416 14.7869 19.3061 14.7345 19.3585 14.6699 19.3914 14.5966 19.4288 14.5006 19.4288 14.3086 19.4288H13.12C12.928 19.4288 12.832 19.4288 12.7586 19.3914 12.6941 19.3585 12.6417 19.3061 12.6088 19.2416 12.5714 19.1682 12.5714 19.0722 12.5714 18.8802V17.6916ZM17.1802 17.3303C17.1429 17.4036 17.1429 17.4996 17.1429 17.6916V18.8802C17.1429 19.0722 17.1429 19.1682 17.1802 19.2416 17.2131 19.3061 17.2655 19.3585 17.3301 19.3914 17.4034 19.4288 17.4994 19.4288 17.6914 19.4288H18.88C19.072 19.4288 19.168 19.4288 19.2414 19.3914 19.3059 19.3585 19.3583 19.3061 19.3912 19.2416 19.4286 19.1682 19.4286 19.0722 19.4286 18.8802V17.6916C19.4286 17.4996 19.4286 17.4036 19.3912 17.3303 19.3583 17.2658 19.3059 17.2133 19.2414 17.1804 19.168 17.1431 19.072 17.1431 18.88 17.1431H17.6914C17.4994 17.1431 17.4034 17.1431 17.3301 17.1804 17.2655 17.2133 17.2131 17.2658 17.1802 17.3303ZM24 22.2859C24 22.6015 23.7442 22.8574 23.4286 22.8574L8.57143 22.8574C8.25584 22.8574 8 22.6015 8 22.2859 8 21.9703 8.25584 21.7145 8.57143 21.7145L23.4286 21.7145C23.7442 21.7145 24 21.9703 24 22.2859Z"/>
	</svg>
	