<?xml version="1.0"?>
	<svg xmlns="http://www.w3.org/2000/svg" 
		width="32" 
		height="32" 
		viewbox="0 0 32 32" 
		code="82497" 
		 transform=""
		><path d="M22.5 13C22.7761 13 23 12.7761 23 12.5 23 12.2239 22.7761 12 22.5 12H9.5C9.22386 12 9 12.2239 9 12.5 9 12.7761 9.22386 13 9.5 13L22.5 13ZM13 14.48C13 14.312 13 14.228 13.0327 14.1638 13.0615 14.1074 13.1074 14.0615 13.1638 14.0327 13.228 14 13.312 14 13.48 14H14.52C14.688 14 14.772 14 14.8362 14.0327 14.8926 14.0615 14.9385 14.1074 14.9673 14.1638 15 14.228 15 14.312 15 14.48V15.52C15 15.688 15 15.772 14.9673 15.8362 14.9385 15.8926 14.8926 15.9385 14.8362 15.9673 14.772 16 14.688 16 14.52 16H13.48C13.312 16 13.228 16 13.1638 15.9673 13.1074 15.9385 13.0615 15.8926 13.0327 15.8362 13 15.772 13 15.688 13 15.52V14.48ZM17 14.48C17 14.312 17 14.228 17.0327 14.1638 17.0615 14.1074 17.1074 14.0615 17.1638 14.0327 17.228 14 17.312 14 17.48 14H18.52C18.688 14 18.772 14 18.8362 14.0327 18.8926 14.0615 18.9385 14.1074 18.9673 14.1638 19 14.228 19 14.312 19 14.48V15.52C19 15.688 19 15.772 18.9673 15.8362 18.9385 15.8926 18.8926 15.9385 18.8362 15.9673 18.772 16 18.688 16 18.52 16H17.48C17.312 16 17.228 16 17.1638 15.9673 17.1074 15.9385 17.0615 15.8926 17.0327 15.8362 17 15.772 17 15.688 17 15.52V14.48ZM13.0327 18.1638C13 18.228 13 18.312 13 18.48V19.52C13 19.688 13 19.772 13.0327 19.8362 13.0615 19.8926 13.1074 19.9385 13.1638 19.9673 13.228 20 13.312 20 13.48 20H14.52C14.688 20 14.772 20 14.8362 19.9673 14.8926 19.9385 14.9385 19.8926 14.9673 19.8362 15 19.772 15 19.688 15 19.52V18.48C15 18.312 15 18.228 14.9673 18.1638 14.9385 18.1074 14.8926 18.0615 14.8362 18.0327 14.772 18 14.688 18 14.52 18H13.48C13.312 18 13.228 18 13.1638 18.0327 13.1074 18.0615 13.0615 18.1074 13.0327 18.1638ZM17 18.48C17 18.312 17 18.228 17.0327 18.1638 17.0615 18.1074 17.1074 18.0615 17.1638 18.0327 17.228 18 17.312 18 17.48 18H18.52C18.688 18 18.772 18 18.8362 18.0327 18.8926 18.0615 18.9385 18.1074 18.9673 18.1638 19 18.228 19 18.312 19 18.48V19.52C19 19.688 19 19.772 18.9673 19.8362 18.9385 19.8926 18.8926 19.9385 18.8362 19.9673 18.772 20 18.688 20 18.52 20H17.48C17.312 20 17.228 20 17.1638 19.9673 17.1074 19.9385 17.0615 19.8926 17.0327 19.8362 17 19.772 17 19.688 17 19.52V18.48Z"/>
	</svg>
	