<?xml version="1.0"?>
	<svg xmlns="http://www.w3.org/2000/svg" 
		width="32" 
		height="32" 
		viewbox="0 0 32 32" 
		code="82499" 
		 transform=""
		><path d="M22 11.5C22 11.7761 21.7761 12 21.5 12L10.5 12C10.2239 12 10 11.7761 10 11.5 10 11.2239 10.2239 11 10.5 11L21.5 11C21.7761 11 22 11.2239 22 11.5ZM19 16.0518C19 16.8802 18.3284 17.5518 17.5 17.5518L13.5 17.5518C12.6716 17.5518 12 16.8802 12 16.0518 12 15.2233 12.6716 14.5518 13.5 14.5518L17.5 14.5518C18.3284 14.5518 19 15.2233 19 16.0518ZM21.5 21C21.7761 21 22 20.7761 22 20.5 22 20.2239 21.7761 20 21.5 20L10.5 20C10.2239 20 10 20.2239 10 20.5 10 20.7761 10.2239 21 10.5 21L21.5 21Z"/>
	</svg>
	