<?xml version="1.0"?>
	<svg xmlns="http://www.w3.org/2000/svg" 
		width="32" 
		height="32" 
		viewbox="0 0 32 32" 
		code="82496" 
		 transform=""
		><path d="M22.5 9C22.7761 9 23 8.77614 23 8.5 23 8.22386 22.7761 8 22.5 8H9.5C9.22386 8 9 8.22386 9 8.5 9 8.77614 9.22386 9 9.5 9L22.5 9ZM13.0327 11.1638C13 11.228 13 11.312 13 11.48V12.52C13 12.688 13 12.772 13.0327 12.8362 13.0615 12.8926 13.1074 12.9385 13.1638 12.9673 13.228 13 13.312 13 13.48 13H14.52C14.688 13 14.772 13 14.8362 12.9673 14.8926 12.9385 14.9385 12.8926 14.9673 12.8362 15 12.772 15 12.688 15 12.52V11.48C15 11.312 15 11.228 14.9673 11.1638 14.9385 11.1074 14.8926 11.0615 14.8362 11.0327 14.772 11 14.688 11 14.52 11H13.48C13.312 11 13.228 11 13.1638 11.0327 13.1074 11.0615 13.0615 11.1074 13.0327 11.1638ZM17.0327 11.1638C17 11.228 17 11.312 17 11.48V12.52C17 12.688 17 12.772 17.0327 12.8362 17.0615 12.8926 17.1074 12.9385 17.1638 12.9673 17.228 13 17.312 13 17.48 13H18.52C18.688 13 18.772 13 18.8362 12.9673 18.8926 12.9385 18.9385 12.8926 18.9673 12.8362 19 12.772 19 12.688 19 12.52V11.48C19 11.312 19 11.228 18.9673 11.1638 18.9385 11.1074 18.8926 11.0615 18.8362 11.0327 18.772 11 18.688 11 18.52 11H17.48C17.312 11 17.228 11 17.1638 11.0327 17.1074 11.0615 17.0615 11.1074 17.0327 11.1638ZM13 19.48C13 19.312 13 19.228 13.0327 19.1638 13.0615 19.1074 13.1074 19.0615 13.1638 19.0327 13.228 19 13.312 19 13.48 19H14.52C14.688 19 14.772 19 14.8362 19.0327 14.8926 19.0615 14.9385 19.1074 14.9673 19.1638 15 19.228 15 19.312 15 19.48V20.52C15 20.688 15 20.772 14.9673 20.8362 14.9385 20.8926 14.8926 20.9385 14.8362 20.9673 14.772 21 14.688 21 14.52 21H13.48C13.312 21 13.228 21 13.1638 20.9673 13.1074 20.9385 13.0615 20.8926 13.0327 20.8362 13 20.772 13 20.688 13 20.52V19.48ZM17.0327 19.1638C17 19.228 17 19.312 17 19.48V20.52C17 20.688 17 20.772 17.0327 20.8362 17.0615 20.8926 17.1074 20.9385 17.1638 20.9673 17.228 21 17.312 21 17.48 21H18.52C18.688 21 18.772 21 18.8362 20.9673 18.8926 20.9385 18.9385 20.8926 18.9673 20.8362 19 20.772 19 20.688 19 20.52V19.48C19 19.312 19 19.228 18.9673 19.1638 18.9385 19.1074 18.8926 19.0615 18.8362 19.0327 18.772 19 18.688 19 18.52 19H17.48C17.312 19 17.228 19 17.1638 19.0327 17.1074 19.0615 17.0615 19.1074 17.0327 19.1638ZM23 23.5C23 23.7761 22.7761 24 22.5 24L9.5 24C9.22386 24 9 23.7761 9 23.5 9 23.2239 9.22386 23 9.5 23L22.5 23C22.7761 23 23 23.2239 23 23.5Z"/>
	</svg>
	