<?xml version="1.0"?>
	<svg xmlns="http://www.w3.org/2000/svg" 
		width="32" 
		height="32" 
		viewbox="0 0 32 32" 
		code="82494" 
		 transform=""
		><path d="M11.5 10C11.7761 10 12 10.2239 12 10.5L12 21.5C12 21.7761 11.7761 22 11.5 22 11.2239 22 11 21.7761 11 21.5V10.5C11 10.2239 11.2239 10 11.5 10ZM16.0518 13C16.8802 13 17.5518 13.6716 17.5518 14.5L17.5518 18.5C17.5518 19.3284 16.8802 20 16.0518 20 15.2233 20 14.5518 19.3284 14.5518 18.5L14.5518 14.5C14.5518 13.6716 15.2233 13 16.0518 13ZM21 10.5C21 10.2239 20.7761 10 20.5 10 20.2239 10 20 10.2239 20 10.5L20 21.5C20 21.7761 20.2239 22 20.5 22 20.7761 22 21 21.7761 21 21.5L21 10.5Z"/>
	</svg>
	