<?xml version="1.0"?>
	<svg xmlns="http://www.w3.org/2000/svg" 
		width="32" 
		height="32" 
		viewbox="0 0 32 32" 
		code="82498" 
		 transform=""
		><path d="M22.5 9C22.7761 9 23 8.77614 23 8.5 23 8.22386 22.7761 8 22.5 8H9.5C9.22386 8 9 8.22386 9 8.5 9 8.77614 9.22386 9 9.5 9L22.5 9ZM13.0327 10.1638C13 10.228 13 10.312 13 10.48V13.52C13 13.688 13 13.772 13.0327 13.8362 13.0615 13.8926 13.1074 13.9385 13.1638 13.9673 13.228 14 13.312 14 13.48 14H14.52C14.688 14 14.772 14 14.8362 13.9673 14.8926 13.9385 14.9385 13.8926 14.9673 13.8362 15 13.772 15 13.688 15 13.52V10.48C15 10.312 15 10.228 14.9673 10.1638 14.9385 10.1074 14.8926 10.0615 14.8362 10.0327 14.772 10 14.688 10 14.52 10H13.48C13.312 10 13.228 10 13.1638 10.0327 13.1074 10.0615 13.0615 10.1074 13.0327 10.1638ZM17.0327 10.1638C17 10.228 17 10.312 17 10.48V13.52C17 13.688 17 13.772 17.0327 13.8362 17.0615 13.8926 17.1074 13.9385 17.1638 13.9673 17.228 14 17.312 14 17.48 14H18.52C18.688 14 18.772 14 18.8362 13.9673 18.8926 13.9385 18.9385 13.8926 18.9673 13.8362 19 13.772 19 13.688 19 13.52V10.48C19 10.312 19 10.228 18.9673 10.1638 18.9385 10.1074 18.8926 10.0615 18.8362 10.0327 18.772 10 18.688 10 18.52 10H17.48C17.312 10 17.228 10 17.1638 10.0327 17.1074 10.0615 17.0615 10.1074 17.0327 10.1638ZM13 17.48C13 17.312 13 17.228 13.0327 17.1638 13.0615 17.1074 13.1074 17.0615 13.1638 17.0327 13.228 17 13.312 17 13.48 17H14.52C14.688 17 14.772 17 14.8362 17.0327 14.8926 17.0615 14.9385 17.1074 14.9673 17.1638 15 17.228 15 17.312 15 17.48V20.52C15 20.688 15 20.772 14.9673 20.8362 14.9385 20.8926 14.8926 20.9385 14.8362 20.9673 14.772 21 14.688 21 14.52 21H13.48C13.312 21 13.228 21 13.1638 20.9673 13.1074 20.9385 13.0615 20.8926 13.0327 20.8362 13 20.772 13 20.688 13 20.52V17.48ZM17.0327 17.1638C17 17.228 17 17.312 17 17.48V20.52C17 20.688 17 20.772 17.0327 20.8362 17.0615 20.8926 17.1074 20.9385 17.1638 20.9673 17.228 21 17.312 21 17.48 21H18.52C18.688 21 18.772 21 18.8362 20.9673 18.8926 20.9385 18.9385 20.8926 18.9673 20.8362 19 20.772 19 20.688 19 20.52V17.48C19 17.312 19 17.228 18.9673 17.1638 18.9385 17.1074 18.8926 17.0615 18.8362 17.0327 18.772 17 18.688 17 18.52 17H17.48C17.312 17 17.228 17 17.1638 17.0327 17.1074 17.0615 17.0615 17.1074 17.0327 17.1638ZM23 22.5C23 22.7761 22.7761 23 22.5 23L9.5 23C9.22386 23 9 22.7761 9 22.5 9 22.2239 9.22386 22 9.5 22L22.5 22C22.7761 22 23 22.2239 23 22.5Z"/>
	</svg>
	