<?xml version="1.0"?>
	<svg xmlns="http://www.w3.org/2000/svg" 
		width="32" 
		height="32" 
		viewbox="0 0 32 32" 
		code="82492" 
		 transform=""
		><path d="M13 12.48C13 12.312 13 12.228 13.0327 12.1638 13.0615 12.1074 13.1074 12.0615 13.1638 12.0327 13.228 12 13.312 12 13.48 12H14.52C14.688 12 14.772 12 14.8362 12.0327 14.8926 12.0615 14.9385 12.1074 14.9673 12.1638 15 12.228 15 12.312 15 12.48V13.52C15 13.688 15 13.772 14.9673 13.8362 14.9385 13.8926 14.8926 13.9385 14.8362 13.9673 14.772 14 14.688 14 14.52 14H13.48C13.312 14 13.228 14 13.1638 13.9673 13.1074 13.9385 13.0615 13.8926 13.0327 13.8362 13 13.772 13 13.688 13 13.52V12.48ZM17 12.48C17 12.312 17 12.228 17.0327 12.1638 17.0615 12.1074 17.1074 12.0615 17.1638 12.0327 17.228 12 17.312 12 17.48 12H18.52C18.688 12 18.772 12 18.8362 12.0327 18.8926 12.0615 18.9385 12.1074 18.9673 12.1638 19 12.228 19 12.312 19 12.48V13.52C19 13.688 19 13.772 18.9673 13.8362 18.9385 13.8926 18.8926 13.9385 18.8362 13.9673 18.772 14 18.688 14 18.52 14H17.48C17.312 14 17.228 14 17.1638 13.9673 17.1074 13.9385 17.0615 13.8926 17.0327 13.8362 17 13.772 17 13.688 17 13.52V12.48ZM13.0327 18.1638C13 18.228 13 18.312 13 18.48V19.52C13 19.688 13 19.772 13.0327 19.8362 13.0615 19.8926 13.1074 19.9385 13.1638 19.9673 13.228 20 13.312 20 13.48 20H14.52C14.688 20 14.772 20 14.8362 19.9673 14.8926 19.9385 14.9385 19.8926 14.9673 19.8362 15 19.772 15 19.688 15 19.52V18.48C15 18.312 15 18.228 14.9673 18.1638 14.9385 18.1074 14.8926 18.0615 14.8362 18.0327 14.772 18 14.688 18 14.52 18H13.48C13.312 18 13.228 18 13.1638 18.0327 13.1074 18.0615 13.0615 18.1074 13.0327 18.1638ZM17 18.48C17 18.312 17 18.228 17.0327 18.1638 17.0615 18.1074 17.1074 18.0615 17.1638 18.0327 17.228 18 17.312 18 17.48 18H18.52C18.688 18 18.772 18 18.8362 18.0327 18.8926 18.0615 18.9385 18.1074 18.9673 18.1638 19 18.228 19 18.312 19 18.48V19.52C19 19.688 19 19.772 18.9673 19.8362 18.9385 19.8926 18.8926 19.9385 18.8362 19.9673 18.772 20 18.688 20 18.52 20H17.48C17.312 20 17.228 20 17.1638 19.9673 17.1074 19.9385 17.0615 19.8926 17.0327 19.8362 17 19.772 17 19.688 17 19.52V18.48ZM22.5 17C22.7761 17 23 16.7761 23 16.5 23 16.2239 22.7761 16 22.5 16L9.5 16C9.22386 16 9 16.2239 9 16.5 9 16.7761 9.22386 17 9.5 17L22.5 17Z"/>
	</svg>
	