<?xml version="1.0"?>
	<svg xmlns="http://www.w3.org/2000/svg" 
		width="32" 
		height="32" 
		viewbox="0 0 32 32" 
		code="82493" 
		 transform=""
		><path d="M9.5 19C9.22386 19 9 19.2239 9 19.5 9 19.7761 9.22386 20 9.5 20L22.5 20C22.7761 20 23 19.7761 23 19.5 23 19.2239 22.7761 19 22.5 19H9.5ZM19 17.52C19 17.688 19 17.772 18.9673 17.8362 18.9385 17.8926 18.8926 17.9385 18.8362 17.9673 18.772 18 18.688 18 18.52 18H17.48C17.312 18 17.228 18 17.1638 17.9673 17.1074 17.9385 17.0615 17.8926 17.0327 17.8362 17 17.772 17 17.688 17 17.52V16.48C17 16.312 17 16.228 17.0327 16.1638 17.0615 16.1074 17.1074 16.0615 17.1638 16.0327 17.228 16 17.312 16 17.48 16H18.52C18.688 16 18.772 16 18.8362 16.0327 18.8926 16.0615 18.9385 16.1074 18.9673 16.1638 19 16.228 19 16.312 19 16.48V17.52ZM15 17.52C15 17.688 15 17.772 14.9673 17.8362 14.9385 17.8926 14.8926 17.9385 14.8362 17.9673 14.772 18 14.688 18 14.52 18H13.48C13.312 18 13.228 18 13.1638 17.9673 13.1074 17.9385 13.0615 17.8926 13.0327 17.8362 13 17.772 13 17.688 13 17.52L13 16.48C13 16.312 13 16.228 13.0327 16.1638 13.0615 16.1074 13.1074 16.0615 13.1638 16.0327 13.228 16 13.312 16 13.48 16H14.52C14.688 16 14.772 16 14.8362 16.0327 14.8926 16.0615 14.9385 16.1074 14.9673 16.1638 15 16.228 15 16.312 15 16.48L15 17.52ZM18.9673 13.8362C19 13.772 19 13.688 19 13.52V12.48C19 12.312 19 12.228 18.9673 12.1638 18.9385 12.1074 18.8926 12.0615 18.8362 12.0327 18.772 12 18.688 12 18.52 12L17.48 12C17.312 12 17.228 12 17.1638 12.0327 17.1074 12.0615 17.0615 12.1074 17.0327 12.1638 17 12.228 17 12.312 17 12.48V13.52C17 13.688 17 13.772 17.0327 13.8362 17.0615 13.8926 17.1074 13.9385 17.1638 13.9673 17.228 14 17.312 14 17.48 14H18.52C18.688 14 18.772 14 18.8362 13.9673 18.8926 13.9385 18.9385 13.8926 18.9673 13.8362ZM15 13.52C15 13.688 15 13.772 14.9673 13.8362 14.9385 13.8926 14.8926 13.9385 14.8362 13.9673 14.772 14 14.688 14 14.52 14H13.48C13.312 14 13.228 14 13.1638 13.9673 13.1074 13.9385 13.0615 13.8926 13.0327 13.8362 13 13.772 13 13.688 13 13.52V12.48C13 12.312 13 12.228 13.0327 12.1638 13.0615 12.1074 13.1074 12.0615 13.1638 12.0327 13.228 12 13.312 12 13.48 12L14.52 12C14.688 12 14.772 12 14.8362 12.0327 14.8926 12.0615 14.9385 12.1074 14.9673 12.1638 15 12.228 15 12.312 15 12.48V13.52Z"/>
	</svg>
	