<?xml version="1.0"?>
	<svg xmlns="http://www.w3.org/2000/svg" 
		width="64" 
		height="64" 
		viewbox="0 0 64 64" 
		code="82500" 
		 transform=""
		><path d="M21.825 18.9H18.9V21.825C18.9 22.3497 18.4747 22.775 17.95 22.775 17.4253 22.775 17 22.3497 17 21.825V18.45C17 18.2551 17.039 18.067 17.1104 17.8947 17.186 17.7124 17.3119 17.5661 17.4652 17.4652 17.5661 17.3118 17.7124 17.186 17.8947 17.1104 18.067 17.039 18.2551 17 18.45 17H21.825C22.3497 17 22.775 17.4253 22.775 17.95 22.775 18.4747 22.3497 18.9 21.825 18.9ZM28.575 17C28.0503 17 27.625 17.4253 27.625 17.95 27.625 18.4747 28.0503 18.9 28.575 18.9H35.325C35.8497 18.9 36.275 18.4747 36.275 17.95 36.275 17.4253 35.8497 17 35.325 17H28.575ZM42.075 17C41.5503 17 41.125 17.4253 41.125 17.95 41.125 18.4747 41.5503 18.9 42.075 18.9H45V21.825C45 22.3497 45.4253 22.775 45.95 22.775 46.4747 22.775 46.9 22.3497 46.9 21.825V18.45C46.9 18.2551 46.861 18.067 46.7896 17.8947 46.714 17.7124 46.5882 17.5661 46.4348 17.4652 46.3339 17.3119 46.1876 17.186 46.0053 17.1104 45.833 17.039 45.6449 17 45.45 17H42.075ZM17.95 27.625C17.4253 27.625 17 28.0503 17 28.575V35.325C17 35.8497 17.4253 36.275 17.95 36.275 18.4747 36.275 18.9 35.8497 18.9 35.325V28.575C18.9 28.0503 18.4747 27.625 17.95 27.625ZM46.9 28.575C46.9 28.0503 46.4747 27.625 45.95 27.625 45.4253 27.625 45 28.0503 45 28.575V35.325C45 35.8497 45.4253 36.275 45.95 36.275 46.4747 36.275 46.9 35.8497 46.9 35.325V28.575ZM18.9 42.075C18.9 41.5503 18.4747 41.125 17.95 41.125 17.4253 41.125 17 41.5503 17 42.075V45.45C17 45.6449 17.039 45.833 17.1104 46.0053 17.186 46.1876 17.3119 46.3339 17.4652 46.4348 17.5661 46.5882 17.7124 46.714 17.8947 46.7896 18.067 46.861 18.2551 46.9 18.45 46.9H21.825C22.3497 46.9 22.775 46.4747 22.775 45.95 22.775 45.4253 22.3497 45 21.825 45H18.9V42.075ZM46.9 42.075C46.9 41.5503 46.4747 41.125 45.95 41.125 45.4253 41.125 45 41.5503 45 42.075V45H42.075C41.5503 45 41.125 45.4253 41.125 45.95 41.125 46.4747 41.5503 46.9 42.075 46.9H45.45C45.6449 46.9 45.833 46.861 46.0053 46.7896 46.1876 46.714 46.3339 46.5882 46.4348 46.4348 46.5882 46.3339 46.714 46.1876 46.7896 46.0053 46.861 45.833 46.9 45.6449 46.9 45.45V42.075ZM27.625 45.95C27.625 46.4747 28.0503 46.9 28.575 46.9H35.325C35.8497 46.9 36.275 46.4747 36.275 45.95 36.275 45.4253 35.8497 45 35.325 45H28.575C28.0503 45 27.625 45.4253 27.625 45.95ZM23.3401 41.363C22.9058 41.363 22.637 41.0942 22.637 40.6599V23.3401C22.637 22.9162 22.9058 22.637 23.3401 22.637H40.6599C41.0838 22.637 41.363 22.9162 41.363 23.3401V40.6599C41.363 41.0942 41.0838 41.363 40.6599 41.363H23.3401Z"/>
	</svg>
	