<?xml version="1.0"?>
	<svg xmlns="http://www.w3.org/2000/svg" 
		width="64" 
		height="64" 
		viewbox="0 0 64 64" 
		code="82501" 
		 transform=""
		><path d="M18.9498 18.95H21.8748C22.3995 18.95 22.8248 18.5247 22.8248 18 22.8248 17.4754 22.3995 17.05 21.8748 17.05H18.4998C18.3049 17.05 18.1168 17.089 17.9445 17.1604 17.7622 17.2361 17.6159 17.3619 17.515 17.5153 17.3617 17.6161 17.2358 17.7624 17.1602 17.9448 17.0888 18.117 17.0498 18.3052 17.0498 18.5V21.875C17.0498 22.3997 17.4751 22.825 17.9998 22.825 18.5245 22.825 18.9498 22.3997 18.9498 21.875V18.95ZM27.6748 18C27.6748 17.4754 28.1001 17.05 28.6248 17.05H35.3748C35.8995 17.05 36.3248 17.4754 36.3248 18 36.3248 18.5247 35.8995 18.95 35.3748 18.95H28.6248C28.1001 18.95 27.6748 18.5247 27.6748 18ZM41.1748 18C41.1748 17.4754 41.6001 17.05 42.1248 17.05H45.4998C45.6947 17.05 45.8828 17.089 46.0551 17.1604 46.2374 17.2361 46.3837 17.3619 46.4846 17.5153 46.638 17.6161 46.7638 17.7624 46.8394 17.9448 46.9108 18.117 46.9498 18.3052 46.9498 18.5V21.875C46.9498 22.3997 46.5245 22.825 45.9998 22.825 45.4751 22.825 45.0498 22.3997 45.0498 21.875V18.95H42.1248C41.6001 18.95 41.1748 18.5247 41.1748 18ZM17.0498 28.625C17.0498 28.1004 17.4751 27.675 17.9998 27.675 18.5245 27.675 18.9498 28.1004 18.9498 28.625V35.375C18.9498 35.8997 18.5245 36.3251 17.9998 36.3251 17.4751 36.3251 17.0498 35.8997 17.0498 35.375V28.625ZM45.9998 27.675C46.5245 27.675 46.9498 28.1004 46.9498 28.625V35.375C46.9498 35.8997 46.5245 36.3251 45.9998 36.3251 45.4751 36.3251 45.0498 35.8997 45.0498 35.375V28.625C45.0498 28.1004 45.4751 27.675 45.9998 27.675ZM17.9998 41.175C18.5245 41.175 18.9498 41.6004 18.9498 42.125V45.05H21.8748C22.3995 45.05 22.8248 45.4754 22.8248 46 22.8248 46.5247 22.3995 46.9501 21.8748 46.9501H18.4998C18.3049 46.9501 18.1168 46.9111 17.9445 46.8396 17.7622 46.764 17.6159 46.6382 17.515 46.4848 17.3617 46.384 17.2358 46.2377 17.1602 46.0553 17.0888 45.8831 17.0498 45.6949 17.0498 45.5V42.125C17.0498 41.6004 17.4751 41.175 17.9998 41.175ZM45.9998 41.1751C46.5245 41.1751 46.9498 41.6004 46.9498 42.125V45.5C46.9498 45.6949 46.9108 45.8831 46.8394 46.0553 46.7638 46.2377 46.638 46.384 46.4846 46.4848 46.3837 46.6382 46.2374 46.764 46.0551 46.8396 45.8828 46.9111 45.6947 46.9501 45.4998 46.9501H42.1248C41.6001 46.9501 41.1748 46.5247 41.1748 46 41.1748 45.4754 41.6001 45.05 42.1248 45.05H45.0498V42.125C45.0498 41.6004 45.4751 41.1751 45.9998 41.1751ZM28.6248 46.9501C28.1001 46.9501 27.6748 46.5247 27.6748 46 27.6748 45.4754 28.1001 45.05 28.6248 45.05H35.3748C35.8995 45.05 36.3248 45.4754 36.3248 46 36.3248 46.5247 35.8995 46.9501 35.3748 46.9501H28.6248Z"/>
	</svg>
	