<?xml version="1.0"?>
	<svg xmlns="http://www.w3.org/2000/svg" 
		width="24" 
		height="24" 
		viewbox="0 0 24 24" 
		code="82502" 
		 transform=""
		><path d="M6.76254 6.76254H7.83226C8.04283 6.76254 8.21353 6.59184 8.21353 6.38127 8.21353 6.1707 8.04283 6 7.83226 6H6.58194C6.50994 6 6.44016 6.01325 6.37549 6.03779 6.29562 6.0681 6.23186 6.12235 6.18926 6.18926 6.12235 6.23186 6.0681 6.29562 6.03779 6.37549 6.01325 6.44016 6 6.50994 6 6.58194V7.83226C6 8.04283 6.1707 8.21353 6.38127 8.21353 6.59184 8.21353 6.76254 8.04283 6.76254 7.83226V6.76254ZM10.3684 6.38127C10.3684 6.1707 10.5391 6 10.7497 6H13.2503C13.4609 6 13.6316 6.1707 13.6316 6.38127 13.6316 6.59184 13.4609 6.76254 13.2503 6.76254H10.7497C10.5391 6.76254 10.3684 6.59184 10.3684 6.38127ZM15.7865 6.38127C15.7865 6.1707 15.9572 6 16.1677 6H17.4181C17.4901 6 17.5598 6.01325 17.6245 6.03779 17.7044 6.0681 17.7681 6.12235 17.8107 6.18926 17.8777 6.23186 17.9319 6.29562 17.9622 6.37549 17.9867 6.44016 18 6.50994 18 6.58194V7.83226C18 8.04283 17.8293 8.21353 17.6187 8.21353 17.4082 8.21353 17.2375 8.04283 17.2375 7.83226V6.76254H16.1677C15.9572 6.76254 15.7865 6.59184 15.7865 6.38127ZM17.6187 10.3684C17.8293 10.3684 18 10.5391 18 10.7497V13.2503C18 13.4609 17.8293 13.6316 17.6187 13.6316 17.4082 13.6316 17.2375 13.4609 17.2375 13.2503V10.7497C17.2375 10.5391 17.4082 10.3684 17.6187 10.3684ZM6.38127 10.3684C6.59184 10.3684 6.76254 10.5391 6.76254 10.7497V13.2503C6.76254 13.4609 6.59184 13.6316 6.38127 13.6316 6.1707 13.6316 6 13.4609 6 13.2503V10.7497C6 10.5391 6.1707 10.3684 6.38127 10.3684ZM17.6187 15.7865C17.8293 15.7865 18 15.9572 18 16.1677V17.4181C18 17.4901 17.9867 17.5598 17.9622 17.6245 17.9319 17.7044 17.8777 17.7681 17.8107 17.8107 17.7681 17.8777 17.7044 17.9319 17.6245 17.9622 17.5598 17.9867 17.4901 18 17.4181 18H16.1677C15.9572 18 15.7865 17.8293 15.7865 17.6187 15.7865 17.4082 15.9572 17.2375 16.1677 17.2375H17.2375V16.1677C17.2375 15.9572 17.4082 15.7865 17.6187 15.7865ZM6.38127 15.7865C6.59184 15.7865 6.76254 15.9572 6.76254 16.1677V17.2375H7.83226C8.04283 17.2375 8.21353 17.4082 8.21353 17.6187 8.21353 17.8293 8.04283 18 7.83226 18H6.58194C6.50994 18 6.44016 17.9867 6.37549 17.9622 6.29562 17.9319 6.23186 17.8777 6.18926 17.8107 6.12234 17.7681 6.0681 17.7044 6.03779 17.6245 6.01325 17.5598 6 17.4901 6 17.4181V16.1677C6 15.9572 6.1707 15.7865 6.38127 15.7865ZM10.3684 17.6187C10.3684 17.4082 10.5391 17.2375 10.7497 17.2375H13.2503C13.4609 17.2375 13.6316 17.4082 13.6316 17.6187 13.6316 17.8293 13.4609 18 13.2503 18H10.7497C10.5391 18 10.3684 17.8293 10.3684 17.6187Z"/>
	</svg>
	