<?xml version="1.0"?>
	<svg xmlns="http://www.w3.org/2000/svg" 
		width="32" 
		height="32" 
		viewbox="0 0 32 32" 
		code="82503" 
		 transform=""
		><path d="M9.5 9C9.77614 9 10 9.22386 10 9.5L10 22.5C10 22.7761 9.77614 23 9.5 23 9.22386 23 9 22.7761 9 22.5V9.5C9 9.22386 9.22386 9 9.5 9ZM22.5 9C22.7761 9 23 9.22386 23 9.5L23 22.5C23 22.7761 22.7761 23 22.5 23 22.2239 23 22 22.7761 22 22.5L22 9.5C22 9.22386 22.2239 9 22.5 9ZM12.4638 19.531C12.2686 19.3357 12.2686 19.0191 12.4638 18.8239L15.2883 15.9994 12.465 13.1761C12.2698 12.9809 12.2698 12.6643 12.465 12.469 12.6603 12.2738 12.9769 12.2738 13.1721 12.469L15.9954 15.2923 18.8278 12.4599C19.0231 12.2647 19.3396 12.2647 19.5349 12.4599 19.7302 12.6552 19.7302 12.9718 19.5349 13.167L16.7025 15.9994 19.5361 18.833C19.7314 19.0283 19.7314 19.3448 19.5361 19.5401 19.3408 19.7354 19.0243 19.7354 18.829 19.5401L15.9954 16.7065 13.1709 19.531C12.9757 19.7263 12.6591 19.7263 12.4638 19.531Z"/>
	</svg>
	