<?xml version="1.0"?>
	<svg xmlns="http://www.w3.org/2000/svg" 
		width="32" 
		height="32" 
		viewbox="0 0 32 32" 
		code="82504" 
		 transform=""
		><path d="M16.0037 19.1237C16.1519 19.1237 16.2853 19.0792 16.4335 18.931L18.9384 16.5076C19.0495 16.3965 19.1088 16.2779 19.1088 16.1223 19.1088 15.8184 18.8791 15.6035 18.5678 15.6035 18.427 15.6035 18.2714 15.6628 18.1676 15.7814L17.0486 16.9745 16.5447 17.5007 16.5891 16.3891V8.57805C16.5891 8.26679 16.3223 8 16.0037 8 15.685 8 15.4108 8.26679 15.4108 8.57805V16.3891L15.4627 17.5007 14.9587 16.9745 13.8323 15.7814C13.7285 15.6628 13.5729 15.6035 13.4247 15.6035 13.1209 15.6035 12.8911 15.8184 12.8911 16.1223 12.8911 16.2779 12.9578 16.3965 13.069 16.5076L15.5738 18.931C15.7221 19.0792 15.8555 19.1237 16.0037 19.1237ZM11.7499 24H20.2501C21.799 24 22.5771 23.2293 22.5771 21.7026V14.3066C22.5771 12.78 21.799 12.0093 20.2501 12.0093H18.1825V13.2024H20.2279C20.9615 13.2024 21.3839 13.6026 21.3839 14.3733V21.6359C21.3839 22.4067 20.9615 22.8069 20.2279 22.8069H11.7647C11.0236 22.8069 10.616 22.4067 10.616 21.6359V14.3733C10.616 13.6026 11.0236 13.2024 11.7647 13.2024H13.8175V12.0093H11.7499C10.201 12.0093 9.42285 12.78 9.42285 14.3066V21.7026C9.42285 23.2293 10.201 24 11.7499 24Z"/>
	</svg>
	