<?xml version="1.0"?>
	<svg xmlns="http://www.w3.org/2000/svg" 
		width="30" 
		height="30" 
		viewbox="0 0 30 30" 
		code="80949" 
		 transform=""
		><path d="M10.98409894 12.13693L7.22094806 12.13693 15.1990799 19.5682403 23.1769118 12.1372322 19.4137609 12.1372322 19.4137609 1.999999999999961 19.7094529 2.093898783C25.1035094 3.87618104 29 8.98810139 29 15.0184708 29 22.5301849 22.9557971 28.6197183 15.5 28.6197183 8.044202949999999 28.6197183 2 22.5301849 2 15.0184708 2 9.212293240000001 5.61205994 4.258395370000001 10.69483817 2.307033822L10.98409894 2.199800534 10.98409894 12.13693ZM22.7774365 21.584507L7.46200007 21.584507C7.00110203 21.584507 6.62132717 21.984137 6.56942513 22.4991025L6.56338028 22.6407047C6.56338028 23.1717319 6.91023386 23.6092924 7.35719136 23.6690917L7.46200007 23.6760563 22.7774365 23.6760563C23.2383346 23.6760563 23.6181095 23.2764263 23.6700115 22.7614609L23.6760563 22.6198587C23.6760563 22.0888315 23.3292028 21.651271 22.8822453 21.5914717L22.7774365 21.584507Z"/>
	</svg>
	