<?xml version="1.0"?>
	<svg xmlns="http://www.w3.org/2000/svg" 
		width="64" 
		height="64" 
		viewbox="0 0 64 64" 
		code="82505" 
		 transform=""
		><path d="M42.2006 40.022275C42.6039 40.022275 42.9309 40.349275 42.9309 40.752575L42.9309 43.110775 45.2897 43.110775C45.682 43.110775 46 43.428775 46 43.820975 46 44.213275 45.682 44.531275 45.2897 44.531275L42.9309 44.531275 42.9309 46.889575C42.9309 47.292875 42.6039 47.619875 42.2006 47.619875 41.7972 47.619875 41.4702 47.292875 41.4702 46.889575L41.4702 44.531275 39.1127 44.531275C38.7204 44.531275 38.4024 44.213275 38.4024 43.820975 38.4024 43.428775 38.7204 43.110775 39.1127 43.110775L41.4702 43.110775 41.4702 40.752575C41.4702 40.349275 41.7972 40.022275 42.2006 40.022275ZM30.4474 16.139575L33.0025 18.596075 39.1535 18.596075C41.1789 18.596075 42.202 19.988975 42.202 22.677175L42.202 38.779575C41.2099 38.779575 40.4047 39.583775 40.4047 40.575775L40.4047 42.045975 38.9352 42.045975C37.9549 42.045975 37.1602 42.840675 37.1602 43.821075L21.0485 43.821075C19.0334 43.821075 18 42.442175 18 39.753875L18 22.677175C18 19.975075 19.0334 18.596075 21.0485 18.596075L27.1992 18.596075 29.7543 16.139575C29.9479 15.953475 30.2538 15.953475 30.4474 16.139575ZM30.0958 37.379475L22.1357 37.379475 22.0359385 37.3868518C21.74608 37.430563 21.5452 37.663555 21.5452 37.952275 21.5452 38.240905 21.755638 38.473888 22.0388059 38.5175983L22.1357 38.524975 30.0958 38.524975 30.1926698 38.5175983C30.475781 38.473888 30.6863 38.240905 30.6863 37.952275 30.6863 37.631475 30.4383 37.379475 30.0958 37.379475ZM36.1307 32.815275L22.1357 32.815275C21.7932 32.815275 21.5452 33.067275 21.5452 33.376575 21.5452 33.675555 21.74608 33.900258 22.0359385 33.9422088L22.1357 33.949275 36.1307 33.949275C36.4614 33.949275 36.7213 33.708775 36.7213 33.376575 36.7213 33.067275 36.4614 32.815275 36.1307 32.815275ZM30.0958 28.354175L22.1357 28.354175 22.0388059 28.3615517C21.755638 28.405262 21.5452 28.638245 21.5452 28.926875 21.5452 29.215505 21.755638 29.448488 22.0388059 29.4921983L22.1357 29.499575 30.0958 29.499575 30.1926698 29.4921983C30.475781 29.448488 30.6863 29.215505 30.6863 28.926875 30.6863 28.606175 30.4264 28.354175 30.0958 28.354175ZM36.1307 23.892975L22.1357 23.892975 22.0388059 23.9003518C21.755638 23.944063 21.5452 24.177055 21.5452 24.465775 21.5452 24.754405 21.74608 24.978073 22.0359385 25.0199203L22.1357 25.026975 36.1307 25.026975 36.2275969 25.0199203C36.510781 24.978073 36.7213 24.754405 36.7213 24.465775 36.7213 24.144975 36.4614 23.892975 36.1307 23.892975Z"/>
	</svg>
	