<?xml version="1.0"?>
	<svg xmlns="http://www.w3.org/2000/svg" 
		width="64" 
		height="64" 
		viewbox="0 0 64 64" 
		code="82506" 
		 transform=""
		><path d="M29.5742 16.7074L27.2637 18.9611H21.511C19.1321 18.9611 17.9121 20.1326 17.9121 22.428V41.3989C17.9121 43.6826 19.1321 44.854 21.511 44.854H37.2237C37.0127 44.5553 36.8887 44.1907 36.8887 43.7971 36.8887 43.6561 36.9046 43.5187 36.9348 43.3868H21.5354C20.169 43.3868 19.4249 42.6887 19.4249 41.3161V22.499C19.4249 21.1383 20.169 20.4284 21.5354 20.4284H27.7719L30.153 17.81C30.2684 17.6767 30.5569 17.6767 30.6723 17.81L32.9003 20.4284H39.2888C40.6308 20.4284 41.3994 21.1383 41.3994 22.499V38.7246C41.6144 38.6374 41.8494 38.5895 42.0957 38.5895 42.3886 38.5895 42.6657 38.6574 42.9121 38.7783V22.428C42.9121 20.1444 41.7044 18.9611 39.3132 18.9611H33.5607L31.25 16.7074C30.7839 16.2528 30.0403 16.2528 29.5742 16.7074ZM22.8171 25.4981H37.2736C37.6152 25.4981 37.8836 25.2496 37.8836 24.9183 37.8836 24.587 37.6152 24.3267 37.2736 24.3267H22.8171C22.4755 24.3267 22.2071 24.587 22.2071 24.9183 22.2071 25.2496 22.4633 25.4981 22.8171 25.4981ZM22.8171 30.1182H31.0396C31.3812 30.1182 31.6496 29.8578 31.6496 29.5265 31.6496 29.1952 31.3812 28.9349 31.0396 28.9349H22.8171C22.4755 28.9349 22.2071 29.1952 22.2071 29.5265 22.2071 29.8578 22.4755 30.1182 22.8171 30.1182ZM22.8171 34.7146H37.2736C37.6152 34.7146 37.8836 34.4661 37.8836 34.1229 37.8836 33.8035 37.6152 33.5432 37.2736 33.5432H22.8171C22.4633 33.5432 22.2071 33.8035 22.2071 34.1229 22.2071 34.4661 22.4633 34.7146 22.8171 34.7146ZM22.8171 39.4411H31.0396C31.3812 39.4411 31.6496 39.1808 31.6496 38.8495 31.6496 38.5182 31.3934 38.2579 31.0396 38.2579H22.8171C22.4633 38.2579 22.2071 38.5182 22.2071 38.8495 22.2071 39.1808 22.4755 39.4411 22.8171 39.4411ZM42.1626 40.2252C42.5792 40.2252 42.917 40.563 42.917 40.9796V43.4155H45.3537C45.7589 43.4155 46.0873 43.744 46.0873 44.1492 46.0873 44.5544 45.7589 44.8829 45.3537 44.8829H42.917V47.3189C42.917 47.7356 42.5792 48.0733 42.1626 48.0733 41.746 48.0733 41.4082 47.7356 41.4082 47.3189V44.8829H38.9729C38.5677 44.8829 38.2393 44.5544 38.2393 44.1492 38.2393 43.744 38.5677 43.4155 38.9729 43.4155H41.4082V40.9796C41.4082 40.563 41.746 40.2252 42.1626 40.2252Z"/>
	</svg>
	