<?xml version="1.0"?>
	<svg xmlns="http://www.w3.org/2000/svg" 
		width="32" 
		height="32" 
		viewbox="0 0 32 32" 
		code="82508" 
		 transform=""
		><path d="M21.8057 24C23.2562 24 24 23.2486 24 21.7837V13.6698C24 12.2049 23.2562 11.4459 21.8057 11.4459H20.3849V10.2163C20.3849 8.75901 19.6411 8 18.1906 8H10.1943C8.7364 8 8 8.75142 8 10.2163V18.2846C8 19.7571 8.7364 20.5009 10.1943 20.5009H11.6151V21.7837C11.6151 23.2486 12.3515 24 13.8094 24H21.8057ZM11.6824 19.5H10.2819C9.45201 19.5 9 19.0572 9 18.1866V10.3134C9 9.44282 9.45201 9 10.2819 9H18.2181C19.0332 9 19.5 9.44282 19.5 10.3134V11.4768H13.8684C12.416 11.4768 11.6824 12.2198 11.6824 13.6758V19.5ZM18.2507 20.4248C18.2507 20.6904 18.0573 20.8878 17.8192 20.8878 17.5738 20.8878 17.3804 20.6904 17.3804 20.4248V18.1781H15.1935C14.948 18.1781 14.7323 17.958 14.7323 17.7151 14.7323 17.4798 14.948 17.2597 15.1935 17.2597H17.3804V15.013C17.3804 14.7473 17.5738 14.55 17.8192 14.55 18.0573 14.55 18.2507 14.7473 18.2507 15.013V17.2597H20.3929C20.6681 17.2597 20.8838 17.4646 20.8838 17.7151 20.8838 17.9656 20.6681 18.1781 20.3929 18.1781H18.2507V20.4248Z"/>
	</svg>
	