<?xml version="1.0"?>
	<svg xmlns="http://www.w3.org/2000/svg" 
		width="32" 
		height="32" 
		viewbox="0 0 32 32" 
		code="82507" 
		 transform=""
		><path d="M24 21.7837C24 23.2486 23.2562 24 21.8057 24H13.8094C12.3515 24 11.6151 23.2486 11.6151 21.7837V20.5009H10.1943C8.7364 20.5009 8 19.7571 8 18.2846V10.2163C8 8.75142 8.7364 8 10.1943 8H18.1906C19.6411 8 20.3849 8.75901 20.3849 10.2163V11.4459H21.8057C23.2562 11.4459 24 12.2049 24 13.6698V21.7837ZM10.2819 19.5H11.6824V13.6758C11.6824 12.2198 12.416 11.4768 13.8684 11.4768H19.5V10.3134C19.5 9.44282 19.0332 9 18.2181 9H10.2819C9.45201 9 9 9.44282 9 10.3134V18.1866C9 19.0572 9.45201 19.5 10.2819 19.5ZM21.7909 23.0592H13.8243C12.9838 23.0592 12.5375 22.6038 12.5375 21.731V13.7158C12.5375 12.8429 12.9838 12.3875 13.8243 12.3875H21.7909C22.6091 12.3875 23.0777 12.8429 23.0777 13.7158V21.7385C23.0777 22.6114 22.6091 23.0592 21.7909 23.0592ZM18.2507 20.4248C18.2507 20.6904 18.0573 20.8878 17.8192 20.8878 17.5738 20.8878 17.3804 20.6904 17.3804 20.4248V18.1781H15.1935C14.948 18.1781 14.7323 17.958 14.7323 17.7151 14.7323 17.4798 14.948 17.2597 15.1935 17.2597H17.3804V15.013C17.3804 14.7473 17.5738 14.55 17.8192 14.55 18.0573 14.55 18.2507 14.7473 18.2507 15.013V17.2597H20.3929C20.6681 17.2597 20.8838 17.4646 20.8838 17.7151 20.8838 17.9656 20.6681 18.1781 20.3929 18.1781H18.2507V20.4248Z"/>
	</svg>
	