<?xml version="1.0"?>
	<svg xmlns="http://www.w3.org/2000/svg" 
		width="32" 
		height="32" 
		viewbox="0 0 32 32" 
		code="82509" 
		 transform=""
		><path d="M14.5019 18.797C13.5581 19.56 12.0407 20 9.49362 20 9.22114 20 9 19.776 9 19.5 9 19.224 9.22114 19 9.49362 19 11.9647 19 13.2057 18.566 13.8868 18.015 14.5592 17.472 14.7744 16.753 15.0251 15.863L15.037 15.821C15.2769 14.97 15.5622 13.959 16.4981 13.203 17.4419 12.441 18.9583 12 21.5064 12 21.7789 12 22 12.224 22 12.5 22 12.776 21.7789 13 21.5064 13 19.0353 13 17.7944 13.434 17.1132 13.985 16.4408 14.528 16.2256 15.247 15.9749 16.137L15.963 16.179C15.7231 17.03 15.4378 18.041 14.5019 18.797Z"/>
	</svg>
	