<?xml version="1.0"?>
	<svg xmlns="http://www.w3.org/2000/svg" 
		width="32" 
		height="32" 
		viewbox="0 0 32 32" 
		code="82512" 
		 transform=""
		><path d="M14.6625 21.7102L18.0726 10.4941C18.1343 10.2791 18.0333 10.0747 17.8202 10.0156 17.6127 9.95645 17.3995 10.0694 17.3378 10.2898L13.9278 21.5059C13.8661 21.7209 13.9671 21.9199 14.1802 21.9844 14.3877 22.0436 14.6008 21.9306 14.6625 21.7102ZM19.5411 20.0381L23.8541 16.2958C24.0504 16.1292 24.0448 15.8657 23.8541 15.6936L19.5411 11.9567C19.3616 11.8008 19.1204 11.8062 18.9746 11.9621 18.8288 12.1234 18.8512 12.3492 19.0195 12.4944L23.0521 15.9947 19.0195 19.4951C18.8512 19.6456 18.8288 19.8714 18.9746 20.0274 19.1204 20.1887 19.3616 20.1887 19.5411 20.0381ZM12.9798 19.5C13.148 19.6506 13.1705 19.8764 13.0246 20.0377 12.8788 20.1936 12.6376 20.199 12.4638 20.0431L8.14513 16.3062C7.95444 16.1341 7.94883 15.8707 8.14513 15.6986L12.4638 11.9617C12.6376 11.8112 12.8788 11.8112 13.0246 11.9671 13.1705 12.1284 13.148 12.3542 12.9798 12.5048L8.94716 16.0051 12.9798 19.5Z"/>
	</svg>
	