<?xml version="1.0"?>
	<svg xmlns="http://www.w3.org/2000/svg" 
		width="32" 
		height="32" 
		viewbox="0 0 32 32" 
		code="82513" 
		 transform=""
		><path d="M19.4035 23.4737C19.4035 23.8048 19.2109 24 18.9178 24 18.6081 24 18.4239 23.8048 18.4239 23.4737V19.4504H13.5008V23.4737C13.5008 23.8048 13.3082 24 13.0152 24 12.7054 24 12.5128 23.8048 12.5128 23.4737V19.4504H8.5191C8.19257 19.4504 8 19.2637 8 18.9496 8 18.644 8.19257 18.4573 8.5191 18.4573H12.5128V13.5682H8.5191C8.19257 13.5682 8 13.3729 8 13.0674 8 12.7618 8.19257 12.5751 8.5191 12.5751H12.5128V8.52626C12.5128 8.19523 12.7054 8 13.0152 8 13.3082 8 13.5008 8.19523 13.5008 8.52626V12.5751H18.4239V8.52626C18.4239 8.19523 18.6081 8 18.9178 8 19.2109 8 19.4035 8.19523 19.4035 8.52626V12.5751H23.4809C23.8074 12.5751 24 12.7618 24 13.0674 24 13.3729 23.8074 13.5682 23.4809 13.5682H19.4035V18.4573H23.4809C23.8074 18.4573 24 18.644 24 18.9496 24 19.2637 23.8074 19.4504 23.4809 19.4504H19.4035V23.4737ZM13.501 18.4574H18.4241V13.5682H13.501V18.4574Z"/>
	</svg>
	