<?xml version="1.0"?>
	<svg xmlns="http://www.w3.org/2000/svg" 
		width="32" 
		height="32" 
		viewbox="0 0 32 32" 
		code="82514" 
		 transform=""
		><path d="M12.1489 10.3799C12.1333 10.4515 12.0941 10.4992 12.0158 10.4992 11.9453 10.4992 11.9061 10.4515 11.8905 10.3799L11.8754 10.3115C11.6318 9.20003 11.6157 9.12649 10.4178 8.88482 10.3395 8.86891 10.2925 8.82119 10.2925 8.74962 10.2925 8.67804 10.3395 8.63033 10.4178 8.61442 11.6156 8.37277 11.6318 8.29922 11.8754 7.19553L11.8905 7.12724C11.9061 7.04772 11.9453 7 12.0158 7 12.0941 7 12.1333 7.04772 12.1489 7.12724L12.1586 7.17239C12.3998 8.2982 12.4154 8.3711 13.6137 8.61442 13.6921 8.63033 13.7391 8.67804 13.7391 8.74962 13.7391 8.82915 13.6921 8.86891 13.6137 8.88482 12.4153 9.12816 12.3998 9.20105 12.1586 10.3348L12.1489 10.3799ZM18.1961 12.9489C18.1805 13.0364 18.1256 13.0921 18.0395 13.0921 17.9533 13.0921 17.8985 13.0364 17.8828 12.9489L17.8799 12.9335C17.6242 11.5723 17.6033 11.4608 16.1674 11.2073 16.0812 11.1914 16.0186 11.1357 16.0186 11.0403 16.0186 10.9528 16.0812 10.8971 16.1674 10.8812 17.6031 10.6198 17.6242 10.5083 17.8798 9.15527L17.8828 9.13954C17.8985 9.05206 17.9533 8.98844 18.0395 8.98844 18.1256 8.98844 18.1805 9.05206 18.1961 9.13954L18.1996 9.15723C18.4626 10.5084 18.4843 10.6199 19.9116 10.8812 20.0056 10.8971 20.0604 10.9528 20.0604 11.0403 20.0604 11.1357 20.0056 11.1914 19.9116 11.2073 18.4842 11.4607 18.4626 11.5722 18.1995 12.9315L18.1961 12.9489ZM8.02093 15.2233C8.10709 15.2233 8.16192 15.1597 8.17759 15.0722L8.18103 15.0545C8.44407 13.7033 8.46578 13.5918 9.89303 13.3305 9.98702 13.3146 10.0419 13.259 10.0419 13.1715 10.0419 13.076 9.98702 13.0204 9.89303 13.0124 8.46565 12.7511 8.44407 12.6396 8.18096 11.2802L8.17759 11.2628C8.16192 11.1833 8.10709 11.1197 8.02093 11.1197 7.93476 11.1197 7.87993 11.1833 7.86427 11.2628L7.86136 11.2783C7.60564 12.6395 7.58469 12.751 6.14883 13.0124 6.06266 13.0204 6 13.076 6 13.1715 6 13.259 6.06266 13.3146 6.14883 13.3305 7.58457 13.592 7.60563 13.7035 7.8613 15.0565L7.86427 15.0722C7.87993 15.1597 7.93476 15.2233 8.02093 15.2233ZM21.7913 20.7343C22.0733 21.0285 22.0655 21.4739 21.7913 21.7761 21.525 22.0704 21.0472 22.0783 20.7652 21.7761L13.6998 14.5788C13.4256 14.2925 13.4256 13.8392 13.6998 13.537 13.9661 13.2507 14.4439 13.2427 14.7259 13.537L21.7913 20.7343ZM11.5376 21.7206C11.6551 21.7206 11.7412 21.6331 11.7569 21.5059 12.0154 19.5018 12.0859 19.47 14.099 19.12 14.2321 19.1041 14.3183 19.0326 14.3183 18.9053 14.3183 18.7781 14.2321 18.7065 14.1225 18.6826L14.0055 18.6597C12.0906 18.2852 12.0103 18.2695 11.7569 16.2968 11.7412 16.1696 11.6551 16.0821 11.5376 16.0821 11.4201 16.0821 11.3339 16.1696 11.3182 16.2888 11.0441 18.3248 10.9971 18.3645 8.95266 18.6826 8.843 18.6985 8.75684 18.7781 8.75684 18.9053 8.75684 19.0246 8.843 19.1041 8.95266 19.12L9.02971 19.1353C10.9983 19.5256 11.0476 19.5353 11.3182 21.5218 11.3339 21.6331 11.4201 21.7206 11.5376 21.7206ZM16.3867 16.6149L21.0004 21.307C21.1335 21.4422 21.2589 21.4661 21.3764 21.3627 21.4939 21.2355 21.4625 21.1003 21.3372 20.973L16.7235 16.2809 16.3867 16.6149Z"/>
	</svg>
	