<?xml version="1.0"?>
	<svg xmlns="http://www.w3.org/2000/svg" 
		width="32" 
		height="32" 
		viewbox="0 0 32 32" 
		code="82515" 
		 transform=""
		><path d="M19.9273 9.38032L17.3411 13.5595C17.0101 14.0944 17.3947 14.7851 18.0236 14.7851H23.1959C23.8248 14.7851 24.2094 14.0944 23.8784 13.5595L21.2922 9.38032C20.9784 8.87323 20.2411 8.87323 19.9273 9.38032ZM20.4039 10.0907C20.482 9.96441 20.6658 9.96441 20.744 10.0907L22.9588 13.6696C23.0412 13.8028 22.9454 13.9748 22.7887 13.9748H18.3591C18.2024 13.9748 18.1066 13.8028 18.1891 13.6696L20.4039 10.0907ZM12.9806 18H9.0019C8.55859 18 8.19922 18.3595 8.19922 18.803V22.7832C8.19922 23.2266 8.55859 23.5861 9.0019 23.5861H12.9806C13.4239 23.5861 13.7833 23.2266 13.7833 22.7832V18.803C13.7833 18.3595 13.4239 18 12.9806 18ZM12.7735 18.8102C12.884 18.8102 12.9735 18.8997 12.9735 19.0102V22.5763C12.9735 22.6868 12.884 22.7763 12.7735 22.7763H9.20886C9.0984 22.7763 9.00886 22.6868 9.00886 22.5763V19.0102C9.00886 18.8997 9.0984 18.8102 9.20886 18.8102H12.7735ZM8 11.9921C8 10.3396 9.3391 9 10.991 9 12.6428 9 13.9819 10.3396 13.9819 11.9921 13.9819 13.6445 12.6428 14.9841 10.991 14.9841 9.3391 14.9841 8 13.6445 8 11.9921ZM13.1723 11.9918C13.1723 10.7866 12.1957 9.80961 10.991 9.80961 9.78624 9.80961 8.80961 10.7866 8.80961 11.9918 8.80961 13.1969 9.78624 14.1739 10.991 14.1739 12.1957 14.1739 13.1723 13.1969 13.1723 11.9918ZM18.789 18.1354L18.725 18.0819 18.6545 18.0418C18.484 17.9638 18.2758 17.995 18.1354 18.1354 17.9549 18.316 17.9549 18.6087 18.1354 18.7893L20.0963 20.7511 18.1354 22.7127 18.0819 22.7767C17.9571 22.9569 17.9749 23.2061 18.1354 23.3666 18.3159 23.5471 18.6085 23.5471 18.789 23.3666L20.7498 21.4049 22.711 23.3666 22.775 23.4201C22.9551 23.5449 23.2042 23.5271 23.3646 23.3666 23.5451 23.186 23.5451 22.8932 23.3646 22.7127L21.4034 20.7511 23.3646 18.7893 23.4181 18.7253C23.5429 18.5451 23.5251 18.2959 23.3646 18.1354 23.1841 17.9548 22.8915 17.9548 22.711 18.1354L20.7498 20.0973 18.789 18.1354Z"/>
	</svg>
	