<?xml version="1.0"?>
	<svg xmlns="http://www.w3.org/2000/svg" 
		width="16" 
		height="16" 
		viewbox="0 0 16 16" 
		code="82516" 
		 transform=""
		><path d="M8 12C10.1882 12 12 10.1843 12 8 12 5.81176 10.1843 4 7.99608 4 5.81176 4 4 5.81176 4 8 4 10.1843 5.81569 12 8 12ZM6.1098 8.58824C5.78431 8.58824 5.51765 8.32549 5.51765 7.99608 5.51765 7.67059 5.78431 7.40784 6.1098 7.40784 6.43137 7.40784 6.69804 7.67059 6.69804 7.99608 6.69804 8.32549 6.43529 8.58824 6.1098 8.58824ZM7.99608 8.58824C7.67059 8.58824 7.40392 8.32549 7.40392 7.99608 7.40392 7.67059 7.67059 7.40784 7.99608 7.40784 8.32157 7.40784 8.58824 7.67059 8.58824 7.99608 8.58824 8.32549 8.32157 8.58824 7.99608 8.58824ZM9.88627 8.58824C9.55686 8.58824 9.29412 8.32549 9.29412 7.99608 9.29412 7.67059 9.55686 7.40784 9.88627 7.40784 10.2078 7.40784 10.4745 7.67059 10.4745 7.99608 10.4745 8.32549 10.2078 8.58824 9.88627 8.58824Z"/>
	</svg>
	