<?xml version="1.0"?>
	<svg xmlns="http://www.w3.org/2000/svg" 
		width="30" 
		height="30" 
		viewbox="0 0 30 30" 
		code="81124" 
		 transform=""
		><path d="M14.75 22.5C16.8125 22.5 18.5 24.1875 18.5 26.25 18.5 28.3125 16.8125 30 14.75 30 12.6875 30 11 28.3125 11 26.25 11 24.1875 12.6875 22.5 14.75 22.5ZM14.75 11.25C16.8125 11.25 18.5 12.9375 18.5 15 18.5 17.0625 16.8125 18.75 14.75 18.75 12.6875 18.75 11 17.0625 11 15 11 12.9375 12.6875 11.25 14.75 11.25ZM14.75 0C16.8125 0 18.5 1.6875 18.5 3.75 18.5 5.8125 16.8125 7.5 14.75 7.5 12.6875 7.5 11 5.8125 11 3.75 11 1.6875 12.6875 0 14.75 0Z"/>
	</svg>
	