<?xml version="1.0"?>
	<svg xmlns="http://www.w3.org/2000/svg" 
		width="16" 
		height="16" 
		viewbox="0 0 16 16" 
		code="82517" 
		 transform=""
		><path d="M6.4 7.9998C6.4 8.3864 6.0866 8.6998 5.7 8.6998 5.3134 8.6998 5 8.3864 5 7.9998 5 7.61321 5.3134 7.2998 5.7 7.2998 6.0866 7.2998 6.4 7.61321 6.4 7.9998ZM9.20034 7.9998C9.20034 8.3864 8.88694 8.6998 8.50034 8.6998 8.11374 8.6998 7.80034 8.3864 7.80034 7.9998 7.80034 7.61321 8.11374 7.2998 8.50034 7.2998 8.88694 7.2998 9.20034 7.61321 9.20034 7.9998ZM11.2997 8.6998C11.6863 8.6998 11.9997 8.3864 11.9997 7.9998 11.9997 7.61321 11.6863 7.2998 11.2997 7.2998 10.9131 7.2998 10.5997 7.61321 10.5997 7.9998 10.5997 8.3864 10.9131 8.6998 11.2997 8.6998Z"/>
	</svg>
	