<?xml version="1.0"?>
	<svg xmlns="http://www.w3.org/2000/svg" 
		width="30" 
		height="30" 
		viewbox="0 0 30 30" 
		code="80955" 
		 transform=""
		><path d="M16.286755 3.31622542L16.4138857 3.4330923 26.5669325 13.5867197C27.3132635 14.3330934 27.3463276 15.5024359 26.6837927 16.2873671L26.5669325 16.4144912 16.4138857 26.5669572C15.6758795 27.3049213 14.4990904 27.3454316 13.7133142 26.6837416L13.5861143 26.5669572 3.43306753 16.4144912C2.69506128 15.6765271 2.65454866 14.4997404 3.31627651 13.7139263L3.43306753 13.5867197 13.5861143 3.4330923C14.3324453 2.68671858 15.5017859 2.65365255 16.286755 3.31622542ZM15 19.3267348L14.8611598 19.3333415C14.1300606 19.4032736 13.5576869 20.0197357 13.5576869 20.7690727L13.5576869 20.7690727 13.5642934 20.9079153C13.6342243 21.639027 14.2506759 22.2114106 15 22.2114106L15 22.2114106 15.1388402 22.2048039C15.8699394 22.1348718 16.4423131 21.5184096 16.4423131 20.7690727L16.4423131 20.7690727 16.4357066 20.6302301C16.3657757 19.8991184 15.7493241 19.3267348 15 19.3267348L15 19.3267348ZM15 7.78803179L14.8611598 7.79463842C14.1757543 7.86019977 13.6298536 8.40610983 13.5642934 9.09152711L13.5576869 9.23036967 13.5576869 16.4420591C13.5576869 17.191396 14.1300606 17.8078582 14.8611598 17.8777903L15 17.8843969 15.1388402 17.8777903C15.8242457 17.812229 16.3701464 17.2663189 16.4357066 16.5809016L16.4423131 16.4420591 16.4423131 9.23036967C16.4423131 8.43419916 15.7961568 7.78803179 15 7.78803179Z"/>
	</svg>
	