<?xml version="1.0"?>
	<svg xmlns="http://www.w3.org/2000/svg" 
		width="24" 
		height="24" 
		viewbox="0 0 24 24" 
		code="82518" 
		 transform=""
		><path d="M10.5302 10.5297C10.7254 10.3344 10.7254 10.0178 10.5302 9.82256L8.10066 7.39307H9.44704C9.72318 7.39307 9.94704 7.16921 9.94704 6.89307 9.94704 6.61692 9.72318 6.39307 9.44704 6.39307H6.89355C6.61741 6.39307 6.39355 6.61692 6.39355 6.89307V9.44655C6.39355 9.72269 6.61741 9.94655 6.89355 9.94655 7.1697 9.94655 7.39355 9.72269 7.39355 9.44655V8.10017L9.82305 10.5297C10.0183 10.7249 10.3349 10.7249 10.5302 10.5297ZM13.4713 9.82256C13.276 10.0178 13.276 10.3344 13.4713 10.5297 13.6665 10.7249 13.9831 10.7249 14.1784 10.5297L16.6079 8.10017V9.44655C16.6079 9.72269 16.8317 9.94655 17.1079 9.94655 17.384 9.94655 17.6079 9.72269 17.6079 9.44655V6.89307C17.6079 6.61692 17.384 6.39307 17.1079 6.39307H14.5544C14.2782 6.39307 14.0544 6.61692 14.0544 6.89307 14.0544 7.16921 14.2782 7.39307 14.5544 7.39307H15.9007L13.4713 9.82256ZM13.4697 14.1775C13.2745 13.9822 13.2745 13.6656 13.4697 13.4704 13.665 13.2751 13.9816 13.2751 14.1768 13.4704L16.6063 15.8999V14.5535C16.6063 14.2774 16.8302 14.0535 17.1063 14.0535 17.3825 14.0535 17.6063 14.2774 17.6063 14.5535V17.107C17.6063 17.3831 17.3825 17.607 17.1063 17.607H14.5528C14.2767 17.607 14.0528 17.3831 14.0528 17.107 14.0528 16.8308 14.2767 16.607 14.5528 16.607H15.8992L13.4697 14.1775ZM10.5302 14.1775C10.7254 13.9822 10.7254 13.6656 10.5302 13.4704 10.3349 13.2751 10.0183 13.2751 9.82305 13.4704L7.39355 15.8999V14.5535C7.39355 14.2774 7.1697 14.0535 6.89355 14.0535 6.61741 14.0535 6.39355 14.2774 6.39355 14.5535V17.107C6.39355 17.3831 6.61741 17.607 6.89355 17.607H9.44704C9.72318 17.607 9.94704 17.3831 9.94704 17.107 9.94704 16.8308 9.72318 16.607 9.44704 16.607H8.10066L10.5302 14.1775Z"/>
	</svg>
	