<?xml version="1.0"?>
	<svg xmlns="http://www.w3.org/2000/svg" 
		width="32" 
		height="32" 
		viewbox="0 0 32 32" 
		code="82519" 
		 transform=""
		><path d="M15.3816 17.2186C15.3816 16.8546 15.1189 16.6176 14.7545 16.6176 14.6019 16.6176 14.4578 16.6768 14.3477 16.7869L11.6018 19.5552 9.04241 22.1881 9.17801 19.3266V17.9213C9.17801 17.5742 8.93223 17.3202 8.59324 17.3202 8.24577 17.3202 8 17.5827 8 17.9213V22.9585C8 23.6104 8.38984 23.9998 9.03393 23.9998H14.0849C14.4324 23.9998 14.6951 23.7543 14.6951 23.4072 14.6951 23.0601 14.4239 22.8231 14.0849 22.8231H12.6781L9.80514 22.967 12.4408 20.4187 15.2121 17.6589C15.3223 17.5403 15.3816 17.388 15.3816 17.2186ZM24.0003 9.04033C24.0003 8.38846 23.619 7.99902 22.9664 7.99902H17.9154C17.5679 7.99902 17.3052 8.24453 17.3052 8.59164 17.3137 8.93874 17.5764 9.17578 17.9154 9.17578H19.3222L22.1952 9.03186 19.5595 11.5801 16.7967 14.34C16.6781 14.4585 16.6187 14.6109 16.6187 14.7717 16.6187 15.1358 16.8815 15.3728 17.2459 15.3728 17.3984 15.3728 17.5425 15.322 17.6527 15.2035L20.3985 12.4436 22.9664 9.81072 22.8223 12.6637V14.0775C22.8223 14.4246 23.0681 14.6786 23.4156 14.6786 23.763 14.6786 24.0003 14.4162 24.0003 14.0775V9.04033Z"/>
	</svg>
	