<?xml version="1.0"?>
	<svg xmlns="http://www.w3.org/2000/svg" 
		width="32" 
		height="32" 
		viewbox="0 0 32 32" 
		code="82520" 
		 transform=""
		><path d="M23 15.9963C23 19.8318 19.8375 23 16 23 12.1698 23 9 19.8318 9 15.9963 9 12.1682 12.1625 9 16 9 19.8302 9 23 12.1682 23 15.9963ZM10.0126 15.9963C10.0126 19.3185 12.6835 21.988 16.0001 21.988 19.324 21.988 22.0021 19.3185 21.9948 15.9963 21.9875 12.6815 19.3166 10.012 16.0001 10.012 12.6762 10.012 10.0126 12.6815 10.0126 15.9963ZM16 17.1404C16.3008 17.1404 16.5649 16.9277 16.5649 16.6124V15.2483H17.9738C18.2526 15.2483 18.4874 15.0063 18.4874 14.7423 18.4874 14.4783 18.2526 14.2289 17.9738 14.2289H16.5649V12.8722C16.5649 12.5568 16.3008 12.3442 16 12.3442 15.7065 12.3442 15.4423 12.5568 15.4423 12.8722V14.2289H14.0408C13.7547 14.2289 13.5272 14.4783 13.5272 14.7423 13.5272 15.0063 13.7547 15.2483 14.0408 15.2483H15.4423V16.6124C15.4423 16.9277 15.7065 17.1404 16 17.1404ZM18.4874 18.8125C18.4874 19.0765 18.2526 19.3258 17.9738 19.3258H14.0408C13.7547 19.3258 13.5272 19.0765 13.5272 18.8125 13.5272 18.5411 13.7547 18.2991 14.0408 18.2991H17.9738C18.2526 18.2991 18.4874 18.5411 18.4874 18.8125Z"/>
	</svg>
	