<?xml version="1.0"?>
	<svg xmlns="http://www.w3.org/2000/svg" 
		width="32" 
		height="32" 
		viewbox="0 0 32 32" 
		code="82521" 
		 transform=""
		><path d="M10.2727 9C9.93518 9 9.61146 9.13409 9.37277 9.37278 9.13409 9.61146 9 9.93518 9 10.2727V21.7273C9 22.0648 9.13409 22.3885 9.37277 22.6272 9.61146 22.8659 9.93518 23 10.2727 23H21.7273C22.0648 23 22.3885 22.8659 22.6272 22.6272 22.8659 22.3885 23 22.0648 23 21.7273V17.2727C23 17.104 22.933 16.9421 22.8136 16.8228 22.6943 16.7034 22.5324 16.6364 22.3636 16.6364 22.1949 16.6364 22.033 16.7034 21.9137 16.8228 21.7943 16.9421 21.7273 17.104 21.7273 17.2727V21.7273H10.2727V10.2727H14.7273C14.896 10.2727 15.0579 10.2057 15.1772 10.0863 15.2966 9.967 15.3636 9.80514 15.3636 9.63637 15.3636 9.46759 15.2966 9.30573 15.1772 9.18639 15.0579 9.06705 14.896 9 14.7273 9H10.2727ZM22.8142 9.18582C22.9325 9.30446 22.9993 9.46498 23 9.63255V13.4545C23 13.6233 22.933 13.7852 22.8136 13.9045 22.6943 14.0239 22.5324 14.0909 22.3636 14.0909 22.1949 14.0909 22.033 14.0239 21.9137 13.9045 21.7943 13.7852 21.7273 13.6233 21.7273 13.4545V11.1725L15.1778 17.7233C15.1187 17.7824 15.0484 17.8294 14.9711 17.8614 14.8938 17.8934 14.8109 17.9099 14.7273 17.9099 14.6436 17.9099 14.5607 17.8934 14.4834 17.8614 14.4061 17.8294 14.3359 17.7824 14.2767 17.7233 14.2176 17.6641 14.1706 17.5939 14.1386 17.5166 14.1066 17.4393 14.0901 17.3564 14.0901 17.2727 14.0901 17.1891 14.1066 17.1062 14.1386 17.0289 14.1706 16.9516 14.2176 16.8814 14.2767 16.8222L20.8275 10.2727H18.5455C18.3767 10.2727 18.2148 10.2057 18.0955 10.0863 17.9761 9.967 17.9091 9.80514 17.9091 9.63637 17.9091 9.46759 17.9761 9.30573 18.0955 9.18639 18.2148 9.06705 18.3767 9 18.5455 9H22.3636C22.4473 8.99978 22.5301 9.01609 22.6074 9.04797 22.6848 9.07986 22.755 9.12671 22.8142 9.18582Z"/>
	</svg>
	