<?xml version="1.0"?>
	<svg xmlns="http://www.w3.org/2000/svg" 
		width="40" 
		height="40" 
		viewbox="0 0 40 40" 
		code="82522" 
		 transform=""
		><path d="M13.6784 27.7558C13.2831 27.8665 12.8675 27.9828 12.1074 28.5369L11.4043 27.7986C11.948 27.0332 12.0933 26.624 12.2245 26.2543 12.4264 25.6857 12.5951 25.2104 14.1289 23.6765L20.4043 17.4011 20.0264 17.032C19.6045 16.6013 19.5078 16.1707 20.0088 15.7048L20.2373 15.4939C20.6592 15.1072 21.1426 15.0808 21.5557 15.5027L21.8105 15.7488C22.3802 15.1119 22.7026 14.4292 22.9997 13.8001 23.2849 13.1963 23.5468 12.6418 23.9814 12.2244 25.2295 11.0291 26.9346 11.3982 27.7959 12.2595 28.6484 13.1209 29.0439 14.8435 27.8223 16.074 27.4042 16.5005 26.8579 16.7594 26.2625 17.0415 25.6312 17.3406 24.9447 17.6659 24.2979 18.2449L24.5527 18.4998C24.9746 18.9128 24.9482 19.3962 24.5615 19.8093L24.3418 20.0466C23.8848 20.5476 23.4453 20.4509 23.0234 20.0203L22.6455 19.6423 16.335 25.9177C14.8004 27.4418 14.2614 27.5927 13.6784 27.7558ZM17.8291 21.2595C17.4688 21.6287 17.3896 21.9714 17.7324 22.3494 18.0576 22.7009 18.4707 22.5867 18.7959 22.2703L22.0303 19.0359 21.0371 18.0339 17.8291 21.2595Z"/>
	</svg>
	