<?xml version="1.0"?>
	<svg xmlns="http://www.w3.org/2000/svg" 
		width="64" 
		height="64" 
		viewbox="0 0 64 64" 
		code="82524" 
		 transform=""
		><path d="M19.0514 46C18.402 46 18 45.598 18 44.9486V19.0514C18 18.4174 18.402 18 19.0514 18H44.9486C45.5826 18 46 18.4174 46 19.0514V44.9486C46 45.598 45.5826 46 44.9486 46H19.0514ZM19.9172 20.3192V43.6963C19.9172 43.9746 20.0254 44.0828 20.3037 44.0828H43.6808C43.9591 44.0828 44.0828 43.9746 44.0828 43.6963V20.3192C44.0828 20.0409 43.9591 19.9172 43.6808 19.9172H20.3037C20.0254 19.9172 19.9172 20.0409 19.9172 20.3192ZM32.4652 23.2602C33.5922 22.8892 34.8896 22.9813 35.8087 23.1303 36.2176 23.1966 36.4953 23.5818 36.429 23.9907 36.3627 24.3996 35.9775 24.6773 35.5686 24.611 34.7226 24.4738 33.7147 24.4281 32.9343 24.685 32.5573 24.8091 32.2637 24.9939 32.056 25.2461 31.8549 25.4903 31.6925 25.848 31.6545 26.3966V28.8708H34.9346C35.3488 28.8708 35.6846 29.2066 35.6846 29.6208 35.6846 30.035 35.3488 30.3708 34.9346 30.3708L31.6545 30.3716V40.1658C31.6545 40.58 31.3188 40.9158 30.9045 40.9158 30.4903 40.9158 30.1545 40.58 30.1545 40.1658V30.3708H27.75C27.3358 30.3708 27 30.035 27 29.6208 27 29.2066 27.3358 28.8708 27.75 28.8708H30.1545V26.372C30.1545 26.3564 30.155 26.3408 30.156 26.3252 30.2077 25.4978 30.4645 24.8191 30.8981 24.2925 31.3279 23.7707 31.8885 23.45 32.4652 23.2602Z"/>
	</svg>
	