<?xml version="1.0"?>
	<svg xmlns="http://www.w3.org/2000/svg" 
		width="64" 
		height="64" 
		viewbox="0 0 64 64" 
		code="82523" 
		 transform=""
		><path d="M19.0514 46C18.402 46 18 45.598 18 44.9486V19.0514C18 18.4174 18.402 18 19.0514 18H44.9486C45.5826 18 46 18.4174 46 19.0514V44.9486C46 45.598 45.5826 46 44.9486 46H19.0514ZM35.8087 23.1303C34.8896 22.9813 33.5922 22.8892 32.4652 23.2602 31.8885 23.45 31.3279 23.7707 30.8981 24.2925 30.4645 24.8191 30.2077 25.4978 30.156 26.3252 30.155 26.3408 30.1545 26.3564 30.1545 26.372V28.8708H27.75C27.3358 28.8708 27 29.2066 27 29.6208 27 30.035 27.3358 30.3708 27.75 30.3708H30.1545V40.1658C30.1545 40.58 30.4903 40.9158 30.9045 40.9158 31.3188 40.9158 31.6545 40.58 31.6545 40.1658V30.3716L34.9346 30.3708C35.3488 30.3708 35.6846 30.035 35.6846 29.6208 35.6846 29.2066 35.3488 28.8708 34.9346 28.8708H31.6545V26.3966C31.6925 25.848 31.8549 25.4903 32.056 25.2461 32.2637 24.9939 32.5573 24.8091 32.9343 24.685 33.7147 24.4281 34.7226 24.4738 35.5686 24.611 35.9775 24.6773 36.3627 24.3996 36.429 23.9907 36.4953 23.5818 36.2176 23.1966 35.8087 23.1303Z"/>
	</svg>
	