<?xml version="1.0"?>
	<svg xmlns="http://www.w3.org/2000/svg" 
		width="24" 
		height="24" 
		viewbox="0 0 24 24" 
		code="82525" 
		 transform=""
		><path d="M6.45058 18C6.17228 18 6 17.8277 6 17.5494V6.45058C6 6.17891 6.17228 6 6.45058 6H17.5494C17.8211 6 18 6.17891 18 6.45058V17.5494C18 17.8277 17.8211 18 17.5494 18H6.45058ZM6.82165 6.99393V17.0127C6.82165 17.132 6.86803 17.1784 6.9873 17.1784H17.0061C17.1253 17.1784 17.1784 17.132 17.1784 17.0127V6.99393C17.1784 6.87465 17.1253 6.82165 17.0061 6.82165H6.9873C6.86803 6.82165 6.82165 6.87465 6.82165 6.99393ZM12.1994 8.25437C12.6824 8.09537 13.2384 8.13485 13.6323 8.19872 13.8075 8.22713 13.9266 8.39221 13.8981 8.56745 13.8697 8.74268 13.7046 8.8617 13.5294 8.83329 13.1668 8.7745 12.7349 8.75488 12.4004 8.86499 12.2388 8.91818 12.113 8.99738 12.024 9.10547 11.9378 9.21013 11.8682 9.36344 11.8519 9.59855V10.6589H13.2577C13.4352 10.6589 13.5791 10.8028 13.5791 10.9803 13.5791 11.1579 13.4352 11.3018 13.2577 11.3018L11.8519 11.3021V15.4996C11.8519 15.6771 11.708 15.821 11.5305 15.821 11.353 15.821 11.2091 15.6771 11.2091 15.4996V11.3018H10.1786C10.0011 11.3018 9.85714 11.1579 9.85714 10.9803 9.85714 10.8028 10.0011 10.6589 10.1786 10.6589H11.2091V9.588C11.2091 9.58131 11.2093 9.57463 11.2097 9.56795 11.2319 9.21333 11.3419 8.92248 11.5278 8.6968 11.712 8.47314 11.9522 8.33573 12.1994 8.25437Z"/>
	</svg>
	