<?xml version="1.0"?>
	<svg xmlns="http://www.w3.org/2000/svg" 
		width="30" 
		height="30" 
		viewbox="0 0 30 30" 
		code="80961" 
		 transform=""
		><path d="M4.22298268 21.5569286C6.55527161 21.5569286 8.44596536 23.4476224 8.44596536 25.7799113 8.44596536 28.1122003 6.55527161 30.002894 4.22298268 30.002894 1.89069375 30.002894 0 28.1122003 0 25.7799113 0 23.4476224 1.89069375 21.5569286 4.22298268 21.5569286ZM0 13.7889651C0 12.1423893 1.45286101 10.8057571 3.08006535 11.0769579 11.216087 12.374847 17.628047 18.786807 18.9453076 26.9228287 19.1971369 28.550033 17.8605047 30.002894 16.2139289 30.002894 14.9302455 30.002894 13.882808 29.1085343 13.5598582 27.8868052L13.5019217 27.6202019C12.5251295 22.135138 8.30602465 17.7612036 2.89354565 16.6003271L2.38269206 16.5009723C1.02668845 16.2685146 0 15.1643402 0 13.7889651ZM2.75598168 0.000108092435L3.02195091 0.0158426835C17.2599888 1.42996074 28.5729333 12.7622766 29.9870513 26.9809431 30.1420232 28.5887759 28.8635055 30.002894 27.2363011 30.002894 25.8221831 30.002894 24.6598943 28.9374626 24.5242939 27.5233445 23.3620051 15.8810849 14.1024376 6.62151742 2.46017798 5.45922861 1.06543141 5.32362825 0 4.16133944 0 2.74722139 0 1.22871258 1.26135839-0.0133341138 2.75598168 0.000108092435Z"/>
	</svg>
	