<?xml version="1.0"?>
	<svg xmlns="http://www.w3.org/2000/svg" 
		width="32" 
		height="32" 
		viewbox="0 0 32 32" 
		code="82526" 
		 transform=""
		><path d="M23.5874 21H8.42947C8.19228 21 8 20.81 8 20.5757V11.4243C8 11.19 8.19228 11 8.42947 11H23.5874C23.818 11.0089 24.0002 11.1963 24 11.4243V20.5757C24.0002 20.8037 23.818 20.9911 23.5874 21ZM9 20H23V12H9V20ZM11.9246 18.4958H13.1878C13.4184 18.5003 13.6044 18.6839 13.6088 18.9118 13.6088 19.1416 13.4203 19.3278 13.1878 19.3278H9.96252C9.85161 19.3278 9.74536 19.2837 9.66773 19.2055 9.5901 19.1272 9.54763 19.0214 9.54989 18.9118 9.54984 18.6853 9.73328 18.5004 9.96252 18.4958H11.0994V13.5541H9.96252C9.73328 13.5496 9.54984 13.3646 9.54989 13.1381 9.54763 13.0286 9.5901 12.9227 9.66773 12.8445 9.74536 12.7662 9.85161 12.7221 9.96252 12.7221H13.1878C13.4203 12.7221 13.6088 12.9084 13.6088 13.1381 13.6044 13.366 13.4184 13.5497 13.1878 13.5541H11.9246V18.4958Z"/>
	</svg>
	