<?xml version="1.0"?>
	<svg xmlns="http://www.w3.org/2000/svg" 
		width="30" 
		height="30" 
		viewbox="0 0 30 30" 
		code="80963" 
		 transform=""
		><path d="M8.76623377 1.0000000000001048C9.30417346 1.0000000000001048 9.74025974 1.436086283 9.74025974 1.974025974 9.74025974 2.51196567 9.30417346 2.94805195 8.76623377 2.94805195L5.844 2.948 5.844 26.324 8.76623377 26.3246753C9.30417346 26.3246753 9.74025974 26.7607616 9.74025974 27.2987013 9.74025974 27.836641 9.30417346 28.2727273 8.76623377 28.2727273L0.974025974 28.2727273C0.436086283 28.2727273-1.15463195e-14 27.836641-1.15463195e-14 27.2987013-1.15463195e-14 26.7607616 0.436086283 26.3246753 0.974025974 26.3246753L3.896 26.324 3.896 2.948 0.974025974 2.94805195C0.436086283 2.94805195-1.15463195e-14 2.51196567-1.15463195e-14 1.974025974-1.15463195e-14 1.436086283 0.436086283 1.0000000000001048 0.974025974 1.0000000000001048L8.76623377 1.0000000000001048ZM27.2207792 6.84415584C28.3253487 6.84415584 29.2207792 7.73958634 29.2207792 8.844155839999999L29.2207792 20.4285714C29.2207792 21.4829332 28.4049014 22.3467366 27.3700416 22.4230857L27.2207792 22.4285714 9.79220779 22.4285714C8.68763829 22.4285714 7.79220779 21.5331409 7.79220779 20.4285714L7.79220779 8.844155839999999C7.79220779 7.73958634 8.68763829 6.84415584 9.79220779 6.84415584L27.2207792 6.84415584Z"/>
	</svg>
	