<?xml version="1.0"?>
	<svg xmlns="http://www.w3.org/2000/svg" 
		width="30" 
		height="30" 
		viewbox="0 0 30 30" 
		code="80968" 
		 transform=""
		><path d="M17.7125 6.25C18.375 6.25 19.0125 6.5125 19.4875 6.9875L25.525 13.025C25.9875 13.4875 26.25 14.125 26.25 14.7875L26.25 26.25C26.25 27.625 25.125 28.75 23.75 28.75L9.9875 28.75C8.6125 28.75 7.5 27.625 7.5 26.25L7.5125 8.75C7.5125 7.375 8.625 6.25 10 6.25L17.7125 6.25ZM5 1.25L18.75 1.25C19.4375 1.25 20 1.8125 20 2.5 20 3.14453125 19.5056152 3.67919922 18.8773346 3.74351501L18.75 3.75 6.25 3.75C5.60546875 3.75 5.07080078 4.24438477 5.00648499 4.87266541L5 5 5 20C5 20.6875 4.4375 21.25 3.75 21.25 3.10546875 21.25 2.57080078 20.7556152 2.50648499 20.1273346L2.5 20 2.5 3.75C2.5 2.43 3.5368 1.3404 4.836256 1.255344L5 1.25 18.75 1.25 5 1.25ZM17.5 8.125L17.5 13.75C17.5 14.4375 18.0625 15 18.75 15L24.375 15 17.5 8.125Z"/>
	</svg>
	