<?xml version="1.0"?>
	<svg xmlns="http://www.w3.org/2000/svg" 
		width="1024" 
		height="1024" 
		viewbox="0 0 1024 1024" 
		code="82528" 
		 transform=""
		><path d="M322.64 341.427l155.197 183.414c2.445 2.89 3.786 6.55 3.786 10.336v159.53l60.707-30.355v-129.174c0-3.786 1.344-7.446 3.786-10.336l155.2-183.414c-6.95-2.122-15.808-4.528-26.707-6.95-33.533-7.453-86.445-15.07-162.63-15.07-76.189 0-129.098 7.618-162.634 15.07-10.899 2.422-19.757 4.829-26.704 6.95zM728.298 334.31l7.155-14.312c4.39 2.197 7.53 6.286 8.518 11.093 0.986 4.81-0.291 9.805-3.459 13.552l-166.182 196.397v133.2c0 6.061-3.424 11.6-8.845 14.31l-92.707 46.355c-4.96 2.48-10.851 2.214-15.568-0.701s-7.587-8.064-7.587-13.61v-179.555l-166.18-196.397c-3.171-3.747-4.446-8.742-3.459-13.552 0.987-4.806 4.127-8.896 8.518-11.093l7.155 14.312c-7.155-14.312-7.163-14.307-7.155-14.312l0.067-0.034 0.09-0.044 0.249-0.121 0.776-0.365c0.642-0.296 1.533-0.695 2.682-1.183 2.298-0.975 5.624-2.301 10.037-3.859 8.829-3.116 22.004-7.155 40.001-11.154 35.997-7.999 91.245-15.832 169.574-15.832 78.326 0 133.574 7.833 169.571 15.832 17.997 3.999 31.171 8.038 40 11.154 4.416 1.558 7.741 2.884 10.038 3.859 1.149 0.487 2.042 0.887 2.682 1.183l0.778 0.365 0.25 0.121 0.09 0.044 0.035 0.018 0.032 0.015c0.006 0.005 0 0-7.155 14.312z"/>
	</svg>
	