<?xml version="1.0"?>
	<svg xmlns="http://www.w3.org/2000/svg" 
		width="24" 
		height="24" 
		viewbox="0 0 24 24" 
		code="82529" 
		 transform=""
		><path d="M15.6468 8.31295C15.842 8.11769 16.1586 8.11769 16.3539 8.31295 16.5491 8.50821 16.5491 8.8248 16.3539 9.02006L13.3741 11.9998 16.3539 14.9796C16.5491 15.1749 16.5491 15.4915 16.3539 15.6867 16.1586 15.882 15.842 15.882 15.6468 15.6867L12.3134 12.3534C12.1182 12.1581 12.1182 11.8415 12.3134 11.6463L15.6468 8.31295ZM10.9798 8.31295C11.175 8.11769 11.4916 8.11769 11.6869 8.31295 11.8821 8.50821 11.8821 8.8248 11.6869 9.02006L8.70711 11.9998 11.6869 14.9796C11.8821 15.1749 11.8821 15.4915 11.6869 15.6867 11.4916 15.882 11.175 15.882 10.9798 15.6867L7.64645 12.3534C7.45118 12.1581 7.45118 11.8415 7.64645 11.6463L10.9798 8.31295Z"/>
	</svg>
	