<?xml version="1.0"?>
	<svg xmlns="http://www.w3.org/2000/svg" 
		width="24" 
		height="24" 
		viewbox="0 0 24 24" 
		code="82531" 
		 transform=""
		><path d="M6.375 9C6.58211 9 6.75 9.16789 6.75 9.375V10.4243C6.75 10.8443 6.75 11.0544 6.83174 11.2148 6.90364 11.3559 7.01836 11.4706 7.15947 11.5425 7.3199 11.6243 7.5299 11.6243 7.94991 11.6243L16.0499 11.6249C16.47 11.6249 16.68 11.625 16.8405 11.5432 16.9816 11.4713 17.0963 11.3566 17.1682 11.2155 17.25 11.055 17.25 10.845 17.25 10.4249V9.375C17.25 9.16789 17.4179 9 17.625 9 17.8321 9 18 9.16789 18 9.375V14.6249C18 14.8321 17.8321 15 17.6249 15 17.4179 15 17.25 14.8321 17.2499 14.6251L17.2496 13.5746C17.2495 13.1547 17.2494 12.9447 17.1677 12.7843 17.0957 12.6433 16.981 12.5286 16.8399 12.4567 16.6795 12.375 16.4696 12.3749 16.0497 12.3749L7.94968 12.3743C7.5295 12.3743 7.31942 12.3743 7.15895 12.4561 7.0178 12.528 6.90305 12.6428 6.83115 12.7839 6.74941 12.9444 6.74947 13.1545 6.74959 13.5747L6.74989 14.6249C6.74995 14.8321 6.58207 15 6.37495 15 6.16787 15 6 14.8321 6 14.6251V9.375C6 9.16789 6.16789 9 6.375 9Z"/>
	</svg>
	