<?xml version="1.0"?>
	<svg xmlns="http://www.w3.org/2000/svg" 
		width="32" 
		height="32" 
		viewbox="0 0 32 32" 
		code="82530" 
		 transform=""
		><path d="M20 8.5C20 8.77614 19.7761 9 19.5 9L18.1009 9C17.5409 9 17.2609 9 17.047 9.10898 16.8588 9.20485 16.7058 9.35782 16.6099 9.54597 16.5009 9.75986 16.5009 10.0399 16.5009 10.5999L16.5001 21.3999C16.5001 21.96 16.5001 22.24 16.609 22.4539 16.7049 22.6421 16.8579 22.7951 17.0461 22.891 17.26 23 17.54 23 18.1001 23H19.5C19.7761 23 20 23.2239 20 23.5 20 23.7761 19.7761 24 19.5 24H12.5001C12.2239 24 12 23.7761 12 23.4999 12 23.2238 12.2238 22.9999 12.4999 22.9999L13.9006 22.9995C14.4604 22.9993 14.7404 22.9992 14.9542 22.8902 15.1423 22.7943 15.2952 22.6414 15.3911 22.4532 15.5001 22.2394 15.5001 21.9594 15.5001 21.3996L15.5009 10.5996C15.5009 10.0393 15.5009 9.75922 15.3919 9.54526 15.296 9.35706 15.143 9.20406 14.9548 9.1082 14.7408 8.99922 14.4607 8.9993 13.9004 8.99946L12.5001 8.99986C12.2239 8.99994 12 8.77609 12 8.49993 12 8.22383 12.2238 8 12.4999 8L19.5 8C19.7761 8 20 8.22386 20 8.5Z"/>
	</svg>
	