<?xml version="1.0"?>
	<svg xmlns="http://www.w3.org/2000/svg" 
		width="30" 
		height="30" 
		viewbox="0 0 30 30" 
		code="80971" 
		 transform=""
		><path d="M3.64705882 1L15.3411765 1C16.1058824 1 16.7285714 1.42605042 16.9454982 2.14627851L17.4823529 4.29411765 17.4823529 17.4705882 5.29411765 17.4705882 5.29411765 27.3529412C5.29411765 28.1764706 4.47058824 29 3.64705882 29 2.875 29 2.10294118 28.2761949 2.00944968 27.5071519L2 27.3529412 2 2.64705882C2 1.875 2.72380515 1.10294118 3.49284812 1.00944968L3.64705882 1 15.3411765 1 3.64705882 1ZM19.1294118 5.94117647L26.7058824 5.94117647C27.4779412 5.94117647 28.25 6.66498162 28.3434915 7.43402459L28.3529412 7.58823529 28.3529412 20.7647059C28.3529412 21.5367647 27.629136 22.3088235 26.8600931 22.402315L26.7058824 22.4117647 18.1411765 22.4117647C17.3764706 22.4117647 16.7537815 21.9857143 16.5368547 21.2654862L16.4941176 21.0941176 16.1647059 19.1176471 19.1294118 19.1176471 19.1294118 5.94117647 26.7058824 5.94117647 19.1294118 5.94117647Z"/>
	</svg>
	