<?xml version="1.0"?>
	<svg xmlns="http://www.w3.org/2000/svg" 
		width="25" 
		height="25" 
		viewbox="0 0 25 25" 
		code="82534" 
		 transform=""
		><path d="M18.6341 8.74071L17.1771 9.82753C16.8964 10.0425 16.556 9.91113 16.556 9.56478V8.74668H9.44396V9.56478C9.44396 9.91113 9.10358 10.0425 8.81695 9.82753L7.3599 8.74071C7.16881 8.5974 7.16881 8.32271 7.3599 8.17939L8.81695 7.0866C9.10358 6.87163 9.44396 7.003 9.44396 7.35532V8.16745H16.556V7.35532C16.556 6.99106 16.9084 6.88357 17.1771 7.0866L18.6341 8.17939C18.8312 8.32271 18.8312 8.59142 18.6341 8.74071ZM12.6925 18.0924C12.6925 18.7374 12.4118 19.018 11.7669 19.018H7.25838C6.73886 19.018 6.5 18.7015 6.5 18.3373 6.5 18.1641 6.54777 17.979 6.65526 17.8177L11.3966 10.9684C11.5579 10.7355 11.7848 10.628 12.0237 10.628 12.376 10.628 12.6925 10.8669 12.6925 11.2968V18.0924ZM18.7416 19.018C19.2611 19.018 19.5 18.7015 19.5 18.3373 19.5 18.1641 19.4522 17.979 19.3447 17.8177L14.6034 10.9684C14.4362 10.7355 14.2152 10.628 13.9763 10.628 13.624 10.628 13.3075 10.8669 13.3075 11.2968V18.0924C13.3075 18.7374 13.5882 19.018 14.2271 19.018H18.7416ZM7.53904 18.2298H11.6654C11.8624 18.2298 11.8983 18.194 11.8983 17.9969V11.7149C11.8983 11.679 11.8863 11.6551 11.8624 11.6551 11.8445 11.6551 11.8266 11.6611 11.8027 11.6969L7.4853 18.0924C7.46739 18.1223 7.46141 18.1462 7.46141 18.1641 7.46141 18.2059 7.49724 18.2298 7.53904 18.2298Z"/>
	</svg>
	