<?xml version="1.0"?>
	<svg xmlns="http://www.w3.org/2000/svg" 
		width="25" 
		height="25" 
		viewbox="0 0 25 25" 
		code="82535" 
		 transform=""
		><path d="M16.8942 18.065L15.9016 16.7342C15.7052 16.4778 15.8252 16.167 16.1415 16.167H16.8887V9.67125H16.1415C15.8252 9.67125 15.7052 9.36037 15.9016 9.09858L16.8942 7.7678C17.0251 7.59327 17.276 7.59327 17.4069 7.7678L18.405 9.09858C18.6013 9.36037 18.4813 9.67125 18.1595 9.67125H17.4178V16.167H18.1595C18.4922 16.167 18.5904 16.4888 18.405 16.7342L17.4069 18.065C17.276 18.2449 17.0305 18.2449 16.8942 18.065ZM8.35318 12.6382C7.76415 12.6382 7.50781 12.3819 7.50781 11.7929V7.67508C7.50781 7.20058 7.79687 6.98242 8.12957 6.98242 8.28773 6.98242 8.45681 7.02605 8.60407 7.12423L14.8598 11.4547C15.0725 11.602 15.1707 11.8092 15.1707 12.0274 15.1707 12.3492 14.9525 12.6382 14.5598 12.6382H8.35318ZM7.50781 18.1631C7.50781 18.6376 7.79687 18.8558 8.12957 18.8558 8.28773 18.8558 8.45681 18.8122 8.60407 18.714L14.8598 14.3835C15.0725 14.2308 15.1707 14.029 15.1707 13.8108 15.1707 13.4891 14.9525 13.2 14.5598 13.2H8.35318C7.76415 13.2 7.50781 13.4563 7.50781 14.0399V18.1631ZM8.22774 7.93142V11.7001C8.22774 11.8801 8.26046 11.9128 8.44045 11.9128H14.1781C14.2108 11.9128 14.2326 11.9019 14.2326 11.8801 14.2326 11.8638 14.2271 11.8474 14.1944 11.8256L8.35318 7.88233C8.32591 7.86597 8.3041 7.86052 8.28773 7.86052 8.24956 7.86052 8.22774 7.89324 8.22774 7.93142Z"/>
	</svg>
	