<?xml version="1.0"?>
	<svg xmlns="http://www.w3.org/2000/svg" 
		width="24" 
		height="24" 
		viewbox="0 0 24 24" 
		code="82536" 
		 transform=""
		><path d="M8.129 9C8.75254 9 9.25801 9.50547 9.25801 10.129 9.25801 10.7525 8.75254 11.258 8.129 11.258 7.50547 11.258 7 10.7525 7 10.129 7 9.50547 7.50547 9 8.129 9ZM13.129 10.129C13.129 9.50547 12.6235 9 12 9 11.3765 9 10.871 9.50547 10.871 10.129 10.871 10.7525 11.3765 11.258 12 11.258 12.6235 11.258 13.129 10.7525 13.129 10.129ZM13.129 13.8708C13.129 13.2472 12.6235 12.7418 12 12.7418 11.3765 12.7418 10.871 13.2472 10.871 13.8708 10.871 14.4943 11.3765 14.9998 12 14.9998 12.6235 14.9998 13.129 14.4943 13.129 13.8708ZM15.871 9C16.4945 9 17 9.50547 17 10.129 17 10.7525 16.4945 11.258 15.871 11.258 15.2475 11.258 14.742 10.7525 14.742 10.129 14.742 9.50547 15.2475 9 15.871 9ZM17 13.8708C17 13.2472 16.4945 12.7418 15.871 12.7418 15.2475 12.7418 14.742 13.2472 14.742 13.8708 14.742 14.4943 15.2475 14.9998 15.871 14.9998 16.4945 14.9998 17 14.4943 17 13.8708ZM9.25801 13.8708C9.25801 13.2472 8.75254 12.7418 8.129 12.7418 7.50547 12.7418 7 13.2472 7 13.8708 7 14.4943 7.50547 14.9998 8.129 14.9998 8.75254 14.9998 9.25801 14.4943 9.25801 13.8708Z"/>
	</svg>
	