<?xml version="1.0"?>
	<svg xmlns="http://www.w3.org/2000/svg" 
		width="30" 
		height="30" 
		viewbox="0 0 30 30" 
		code="80974" 
		 transform=""
		><path d="M12.5 3.9999999999999956C13.6045695 3.9999999999999956 14.5 4.8954305 14.5 6L14.5 6.5 22.25 6.5C23.3542348 6.5 24.2494573 7.3948879000000005 24.2499998 8.4989959L25 8.5C26.1045695 8.5 27 9.3954305 27 10.5L27 23.25C27 24.3545695 26.1045695 25.25 25 25.25L4 25.25C2.8954305 25.25 2 24.3545695 2 23.25L2 6C2 4.8954305 2.8954305 3.9999999999999956 4 3.9999999999999956L12.5 3.9999999999999956ZM15 13C14.7705596 13 14.5749584 13.1448828 14.4996935 13.34815128L14.5 13.5 14.469 13.5 14.4666667 13.53333333 14.466 16.466 11.53333333 16.466666699999998C11.23878147 16.466666699999998 11 16.705448099999998 11 17 11 17.2650967 11.19341299 17.485019299999998 11.4468239 17.5263529L11.53333333 17.533333300000002 14.466 17.533 14.4666667 20.4666667C14.4666667 20.7612185 14.7054481 21 15 21 15.2650967 21 15.4850193 20.806587 15.5263529 20.5531761L15.5333333 20.4666667 15.533 17.533 18.4666667 17.533333300000002C18.7612185 17.533333300000002 19 17.294551900000002 19 17 19 16.7349033 18.806587 16.514980700000002 18.5531761 16.4736471L18.4666667 16.466666699999998 15.533 16.466 15.5333333 13.53333333C15.5333333 13.23878147 15.2945519 13 15 13Z"/>
	</svg>
	