<?xml version="1.0"?>
	<svg xmlns="http://www.w3.org/2000/svg" 
		width="1024" 
		height="1024" 
		viewbox="0 0 1024 1024" 
		code="82537" 
		 transform=""
		><path d="M272 256.094h298.848c8.835 0 16 7.164 16 16v79.906h133.152c26.509 0 48 21.491 48 48v288c0 26.509-21.491 48-48 48h-416c-26.51 0-48-21.491-48-48v-415.906c0-8.836 7.164-16 16-16zM554.848 352v-63.906h-266.848v66.639c5.004-1.77 10.39-2.733 16-2.733h250.848zM288 400v288c0 8.835 7.164 16 16 16h416c8.835 0 16-7.165 16-16v-288c0-8.835-7.165-16-16-16h-416c-8.836 0-16 7.165-16 16z"/>
	</svg>
	