<?xml version="1.0"?>
	<svg xmlns="http://www.w3.org/2000/svg" 
		width="30" 
		height="30" 
		viewbox="0 0 30 30" 
		code="80972" 
		 transform=""
		><path d="M1.64951108 4.999999999999774L11.5209414 4.999999999999774C12.4675863 5.00179239546 13.3561112 5.456862763 13.9107699 6.22399604 13.975984 6.3119429700000005 14.0359492 6.40360538 14.0903702 6.49850144L14.1678066 6.64321053 15.1194541 8.54344556C15.5906142 9.48158612 16.5206198 10.095331510000001 17.558332 10.167310050000001L17.7540794 10.17440413 28.3996795 10.17440413C28.5692958 10.17497468 28.7377121 10.20287186 28.898453 10.25702304 29.5570065 10.470028710000001 29.9967303 11.08127631 29.9999818 11.76247836L29.9939186 11.90940133 29.0239113 24.0727415C28.9636804 24.8534299 28.3469972 25.4664187 27.5810559 25.5351132L27.4357922 25.5415231 3.06627246 25.5415231C2.26092065 25.5415231 1.58206863 24.9605419 1.44532012 24.1812998L1.42613401 24.032962 0.00631267135 6.78702864C-0.0341184917 6.32689286 0.120984633 5.870988471 0.433634614 5.53097434 0.711545707 5.228739556 1.09112296 5.0428845557 1.49645329 5.00655137635L1.64951108 4.999999999999774 11.5209414 4.999999999999774 1.64951108 4.999999999999774ZM27.3072739 6.22399604C28.179298 6.22399604 28.8862132 6.9309112200000005 28.8862132 7.802935290000001L28.8862132 8.35372805C28.8862132 8.44840064 28.8483999 8.53915176 28.7811696 8.60580746 28.7139393 8.67246316 28.6228669 8.70949953 28.5281979 8.70870938L17.7540794 8.67502383 17.7540794 8.67502383C17.2054992 8.67192597 16.7051898 8.36085887 16.4597165 7.870254409999999L15.8936239 6.7380692799999995C15.8392607 6.62981572 15.8438577 6.50131269 15.9058174 6.39722045 15.967777 6.29312821 16.0785432 6.22782107 16.1996199 6.22399604L27.3072739 6.22399604Z"/>
	</svg>
	