<?xml version="1.0"?>
	<svg xmlns="http://www.w3.org/2000/svg" 
		width="32" 
		height="32" 
		viewbox="0 0 32 32" 
		code="82543" 
		 transform=""
		><path d="M17 19.2932H12V18.7347L12.0202 18.6658C12.57 16.7906 13.6902 15.9764 14.5874 15.3496L14.6268 15.3222C15.0633 15.0174 15.3931 14.787 15.6311 14.5045 15.8531 14.241 15.9974 13.9258 15.9975 13.4335 15.997 12.6552 15.3418 11.998 14.5 11.998 13.6579 11.998 13.0025 12.6554 13.0025 13.4331H12.0025C12.0025 12.0734 13.1358 10.998 14.5 10.998 15.8646 10.998 16.9966 12.0737 16.9975 13.4328 16.9975 14.1652 16.7672 14.7081 16.3959 15.1488 16.0702 15.5354 15.6385 15.8361 15.2418 16.1125L15.1601 16.1695C14.4378 16.674 13.6961 17.2164 13.2128 18.3064H16.9995L17 18.8064 17 19.2932ZM8 14.1245L10.1374 12.7359H10.8194V19.1464H9.84967V14.1153L8 15.3169V14.1245ZM22.3936 13.6943H19.25V12.7559H23.9484V13.4148L22.0776 15.6023C23.1862 15.9891 24.0007 17.0305 24.0007 18.2473 24.0007 19.6774 22.8808 20.8251 21.4932 20.998H20.7678C19.4422 20.8315 18.4088 19.7617 18.3096 18.44V18.2311H19.3018C19.3018 19.2053 20.1046 20.0206 21.1296 20.0206 22.1714 20.0206 23.0007 19.2052 23.0007 18.2473 23.0007 17.2804 22.162 16.4416 21.1296 16.4416H20.0441L22.3936 13.6943Z"/>
	</svg>
	