<?xml version="1.0"?>
	<svg xmlns="http://www.w3.org/2000/svg" 
		width="32" 
		height="32" 
		viewbox="0 0 32 32" 
		code="82542" 
		 transform=""
		><path d="M10.0807 10C9.81715 9.99999 9.58977 9.99998 9.40249 10.0153 9.20481 10.0314 9.0082 10.0671 8.81901 10.1635 8.53677 10.3073 8.3073 10.5368 8.16349 10.819 8.06709 11.0082 8.03144 11.2048 8.01529 11.4025 7.99998 11.5898 7.99999 11.8172 8 12.0807V19.9193C7.99999 20.1828 7.99998 20.4102 8.01529 20.5975 8.03144 20.7952 8.06709 20.9918 8.16349 21.181 8.3073 21.4632 8.53677 21.6927 8.81901 21.8365 9.0082 21.9329 9.20481 21.9686 9.40249 21.9847 9.58977 22 9.81715 22 10.0807 22H12.9212C13.1847 22 13.4121 22 13.5994 21.9847 13.7971 21.9686 13.9937 21.9329 14.1829 21.8365 14.4651 21.6927 14.6946 21.4632 14.8384 21.181 14.9348 20.9918 14.9704 20.7952 14.9866 20.5975 15.0019 20.4102 15.0019 20.1828 15.0019 19.9193V12.0807C15.0019 11.8172 15.0019 11.5898 14.9866 11.4025 14.9704 11.2048 14.9348 11.0082 14.8384 10.819 14.6946 10.5368 14.4651 10.3073 14.1829 10.1635 13.9937 10.0671 13.7971 10.0314 13.5994 10.0153 13.4121 9.99998 13.1847 9.99999 12.9211 10H10.0807ZM9.27301 11.0545C9.29773 11.0419 9.34809 11.0231 9.48392 11.012 9.62559 11.0004 9.81172 11 10.1 11H12.9019C13.1902 11 13.3763 11.0004 13.518 11.012 13.6538 11.0231 13.7041 11.0419 13.7289 11.0545 13.823 11.1024 13.8994 11.1789 13.9474 11.273 13.96 11.2977 13.9788 11.3481 13.9899 11.4839 14.0015 11.6256 14.0019 11.8117 14.0019 12.1V19.9C14.0019 20.1883 14.0015 20.3744 13.9899 20.5161 13.9788 20.6519 13.96 20.7023 13.9474 20.727 13.8994 20.8211 13.823 20.8976 13.7289 20.9455 13.7041 20.9581 13.6538 20.9769 13.518 20.988 13.3763 20.9996 13.1902 21 12.9019 21H10.1C9.81172 21 9.62559 20.9996 9.48392 20.988 9.34809 20.9769 9.29773 20.9581 9.27301 20.9455 9.17892 20.8976 9.10243 20.8211 9.0545 20.727 9.0419 20.7023 9.02306 20.6519 9.01196 20.5161 9.00039 20.3744 9 20.1883 9 19.9V12.1C9 11.8117 9.00039 11.6256 9.01196 11.4839 9.02306 11.3481 9.0419 11.2977 9.0545 11.273 9.10243 11.1789 9.17892 11.1024 9.27301 11.0545ZM19.0807 10C18.8172 9.99999 18.5898 9.99998 18.4025 10.0153 18.2048 10.0314 18.0082 10.0671 17.819 10.1635 17.5368 10.3073 17.3073 10.5368 17.1635 10.819 17.0671 11.0082 17.0314 11.2048 17.0153 11.4025 17 11.5898 17 11.8172 17 12.0807V19.9193C17 20.1828 17 20.4102 17.0153 20.5975 17.0314 20.7952 17.0671 20.9918 17.1635 21.181 17.3073 21.4632 17.5368 21.6927 17.819 21.8365 18.0082 21.9329 18.2048 21.9686 18.4025 21.9847 18.5898 22 18.8171 22 19.0807 22H21.9212C22.1847 22 22.4121 22 22.5994 21.9847 22.7971 21.9686 22.9937 21.9329 23.1829 21.8365 23.4651 21.6927 23.6946 21.4632 23.8384 21.181 23.9348 20.9918 23.9704 20.7952 23.9866 20.5975 24.0019 20.4102 24.0019 20.1829 24.0019 19.9193V12.0807C24.0019 11.8172 24.0019 11.5898 23.9866 11.4025 23.9704 11.2048 23.9348 11.0082 23.8384 10.819 23.6946 10.5368 23.4651 10.3073 23.1829 10.1635 22.9937 10.0671 22.7971 10.0314 22.5994 10.0153 22.4121 9.99998 22.1847 9.99999 21.9211 10H19.0807ZM18.273 11.0545C18.2977 11.0419 18.3481 11.0231 18.4839 11.012 18.6256 11.0004 18.8117 11 19.1 11H21.9019C22.1902 11 22.3763 11.0004 22.518 11.012 22.6538 11.0231 22.7041 11.0419 22.7289 11.0545 22.823 11.1024 22.8994 11.1789 22.9474 11.273 22.96 11.2977 22.9788 11.3481 22.9899 11.4839 23.0015 11.6256 23.0019 11.8117 23.0019 12.1V19.9C23.0019 20.1883 23.0015 20.3744 22.9899 20.5161 22.9788 20.6519 22.96 20.7023 22.9474 20.727 22.8994 20.8211 22.823 20.8976 22.7289 20.9455 22.7041 20.9581 22.6538 20.9769 22.518 20.988 22.3763 20.9996 22.1902 21 21.9019 21H19.1C18.8117 21 18.6256 20.9996 18.4839 20.988 18.3481 20.9769 18.2977 20.9581 18.273 20.9455 18.1789 20.8976 18.1024 20.8211 18.0545 20.727 18.0419 20.7023 18.0231 20.6519 18.012 20.5161 18.0004 20.3744 18 20.1883 18 19.9V12.1C18 11.8117 18.0004 11.6256 18.012 11.4839 18.0231 11.3481 18.0419 11.2977 18.0545 11.273 18.1024 11.1789 18.1789 11.1024 18.273 11.0545ZM12.1908 13.4071H11.5743L10.3016 14.2523V14.8787L11.5445 14.0534H11.5743V18.498H12.1908V13.4071ZM22.1205 18.498H18.9088V18.0506L20.5892 16.2111C21.1784 15.5673 21.4543 15.2193 21.4543 14.7495 21.4543 14.2125 21.0317 13.8745 20.4798 13.8745 19.8907 13.8745 19.5154 14.2598 19.5154 14.839H18.9287C18.9287 13.9441 19.6073 13.3375 20.4997 13.3375 21.3946 13.3375 22.031 13.964 22.031 14.7495 22.031 15.3137 21.7725 15.7512 20.8975 16.6884L19.754 17.9114V17.9512H22.1205V18.498Z"/>
	</svg>
	