<?xml version="1.0"?>
	<svg xmlns="http://www.w3.org/2000/svg" 
		width="32" 
		height="32" 
		viewbox="0 0 32 32" 
		code="82539" 
		 transform=""
		><path d="M19.7867 10.0904C20.013 10.2488 20.068 10.5605 19.9096 10.7868L12.9096 20.7868C12.7513 21.013 12.4395 21.068 12.2133 20.9097 11.987 20.7513 11.932 20.4395 12.0904 20.2133L19.0904 10.2133C19.2487 9.98709 19.5605 9.93207 19.7867 10.0904ZM19.8503 20.5C21.0946 20.5 22.0009 19.787 21.998 18.804 22.0009 18.0767 21.5463 17.554 20.731 17.4375V17.3921C21.3617 17.2557 21.785 16.787 21.7821 16.1335 21.785 15.2472 21.0293 14.5227 19.8674 14.5227 18.7367 14.5227 17.8617 15.196 17.839 16.1705H18.8532C18.8702 15.6818 19.3248 15.3779 19.8617 15.3779 20.4043 15.3779 20.7651 15.7074 20.7623 16.196 20.7651 16.7046 20.3446 17.0426 19.7424 17.0426H19.2282V17.8551H19.7424C20.4782 17.8551 20.9157 18.2245 20.9128 18.75 20.9157 19.2642 20.4696 19.6165 19.8475 19.6165 19.2623 19.6165 18.8105 19.3125 18.785 18.8381H17.7168C17.7452 19.821 18.623 20.5 19.8503 20.5ZM12.1061 14.7867H12.1074L12.1074 16.7867H13.1074L13.1074 10.5H12.1061C12.099 10.5095 12.0905 10.5214 12.0805 10.5353 11.9631 10.6993 11.6425 11.147 11 11.3199V12.397C11.3864 12.3492 11.8333 12.1065 12.0455 11.9264H12.1061V14.7867Z"/>
	</svg>
	