<?xml version="1.0"?>
	<svg xmlns="http://www.w3.org/2000/svg" 
		width="32" 
		height="32" 
		viewbox="0 0 32 32" 
		code="82538" 
		 transform=""
		><path d="M11.0029 16.5C11.0029 14.567 12.5699 13 14.5029 13 15.0051 13 15.4827 13.1057 15.9145 13.2963 15.0841 14.1119 14.5691 15.2456 14.5691 16.5 14.5691 17.7544 15.0841 18.8881 15.9145 19.7037 15.4827 19.8943 15.0051 20 14.5029 20 12.5699 20 11.0029 18.433 11.0029 16.5ZM16.7906 20.3759C17.4639 20.7725 18.2493 21 19.0877 21 20.5803 21 21.9042 20.2789 22.7267 19.1681 22.891 18.9461 22.8078 18.6381 22.5691 18.4994 22.3303 18.3607 22.0268 18.4446 21.8556 18.6612 21.2112 19.4767 20.211 20 19.0877 20 18.581 20 18.0996 19.8936 17.6646 19.702 17.9505 19.4198 18.1987 19.0995 18.401 18.7497 18.7686 18.1063 18.9981 17.2975 19.0029 16.5 18.9981 15.7025 18.7686 14.8937 18.401 14.2503 18.1987 13.9005 17.9505 13.5802 17.6646 13.298 18.0996 13.1064 18.581 13 19.0877 13 20.211 13 21.2112 13.5233 21.8556 14.3388 22.0268 14.5554 22.3303 14.6393 22.5691 14.5006 22.8078 14.3619 22.891 14.0539 22.7267 13.8319 21.9042 12.7211 20.5803 12 19.0877 12 18.2493 12 17.4639 12.2275 16.7906 12.6241 16.1204 12.2277 15.3383 12 14.5029 12 12.0176 12 10.0029 14.0147 10.0029 16.5 10.0029 18.9853 12.0176 21 14.5029 21 15.3383 21 16.1204 20.7723 16.7906 20.3759ZM16.7893 13.8498C17.0853 14.1054 17.3381 14.4099 17.5353 14.7509 17.8479 15.284 18.0077 15.8409 18.0029 16.5 18.0077 17.1591 17.8479 17.716 17.5353 18.2491 17.3381 18.5901 17.0853 18.8946 16.7893 19.1502 16.0417 18.508 15.5691 17.5583 15.5691 16.5 15.5691 15.4417 16.0417 14.492 16.7893 13.8498Z"/>
	</svg>
	