<?xml version="1.0"?>
	<svg xmlns="http://www.w3.org/2000/svg" 
		width="32" 
		height="32" 
		viewbox="0 0 32 32" 
		code="82540" 
		 transform=""
		><path d="M21.6674 15.4745C21.7694 15.4745 21.8034 15.4235 21.8204 15.3385L21.9904 14.7435C22.0244 14.6755 21.9734 14.5905 21.8714 14.5905H19.2993L19.4353 12.9245C19.5713 11.1905 18.4153 10.0005 15.9333 10.0005 13.6383 10.0005 12.3633 11.1565 12.3633 12.5845 12.3633 13.2815 12.7373 13.8935 13.5023 14.3695V14.4035C12.1763 14.4035 11.0713 15.3045 11.0713 16.4775 11.0713 17.8205 12.0743 18.3475 13.0773 18.6365 14.3523 18.9935 14.7263 19.4355 14.7263 20.2005 14.7263 20.9995 13.9783 21.3565 13.3833 21.3565 12.4823 21.3565 12.2443 20.9315 11.9043 20.3025L11.4793 19.4695C11.4453 19.3845 11.3943 19.3505 11.3263 19.3675L11.1053 19.4185C11.0373 19.4355 10.9863 19.4695 11.0033 19.5545L11.2923 21.1695C11.3093 21.2545 11.3093 21.3565 11.3943 21.4075 11.5983 21.5605 12.2783 21.9005 13.1113 21.9005 14.5563 21.9005 15.6783 21.0335 15.6953 19.6565 15.6783 18.3475 14.8963 17.8375 13.6553 17.4805 12.8223 17.2425 12.0233 17.0555 12.0233 16.0695 12.0233 15.3385 12.6863 14.9475 13.3323 14.9475 13.9953 14.9475 14.3183 15.2875 14.5223 15.6105L15.1003 16.3925C15.1513 16.4775 15.1853 16.4945 15.2533 16.4775L15.4573 16.4095C15.5423 16.3755 15.5763 16.3245 15.5763 16.2565L15.3213 15.0665C15.3043 14.9645 15.2703 14.8795 15.0153 14.7605 14.7943 14.6585 14.4713 14.5565 14.2333 14.4545 13.6553 14.0125 13.2473 13.3665 13.2473 12.6185 13.2473 11.2755 14.4713 10.6295 15.9673 10.6295 17.4633 10.6295 18.4663 11.3775 18.4493 13.0775 18.4323 14.0465 17.9053 14.7265 17.0383 15.0155 16.8343 15.0835 16.7323 15.1345 16.7323 15.2705 16.7323 15.4065 16.8343 15.4745 16.9873 15.4745H18.0243C18.0073 16.1885 17.9903 17.3445 17.9903 17.6505V18.0245C17.9903 18.2625 17.9393 19.7585 17.9393 20.4555 17.9393 21.1015 18.7553 21.9961 19.5883 21.9961 20.6083 21.9961 21.3053 21.3905 21.4753 21.2205 21.5263 21.1695 21.5603 21.1015 21.5093 21.0335L21.4243 20.8805C21.3733 20.8125 21.3053 20.7955 21.2203 20.8465 20.9823 20.9995 20.4893 21.0675 20.0983 21.0675 19.7923 21.0675 19.2143 20.8465 19.2143 19.5715V17.8715C19.2143 17.0895 19.2313 16.2565 19.2653 15.4745H21.6674Z"/>
	</svg>
	