<?xml version="1.0"?>
	<svg xmlns="http://www.w3.org/2000/svg" 
		width="32" 
		height="32" 
		viewbox="0 0 32 32" 
		code="82541" 
		 transform=""
		><path d="M20.265 10.7082C19.897 10.4782 19.435 10.2578 18.9419 10.1258 18.4518 9.99448 17.8978 9.94171 17.3674 10.0876 16.8202 10.238 16.3361 10.5905 16.0005 11.1938 15.6736 11.7817 15.5 12.5837 15.5 13.6322V14.5H12.5V13.6246C12.5 12.0923 12.9002 11.4532 13.238 11.1992 13.5764 10.9447 14.0031 10.9643 14.3143 11.0888 14.5707 11.1914 14.8617 11.0667 14.9642 10.8103 15.0668 10.5539 14.9421 10.2629 14.6857 10.1603 14.1636 9.9515 13.3403 9.8711 12.637 10.4 11.9331 10.9293 11.5 11.9569 11.5 13.6246V14.5H10.5C10.2239 14.5 10 14.7239 10 15 10 15.2762 10.2239 15.5 10.5 15.5H11.5V21.5C11.5 21.7762 11.7239 22 12 22 12.2761 22 12.5 21.7762 12.5 21.5V15.5H15.5V21.5C15.5 21.7762 15.7239 22 16 22 16.2761 22 16.5 21.7762 16.5 21.5V15.5H17.5C17.7761 15.5 18 15.2762 18 15 18 14.7239 17.7761 14.5 17.5 14.5H16.5V13.6322C16.5 12.6806 16.6597 12.066 16.8745 11.6799 17.0806 11.3092 17.3465 11.1304 17.6326 11.0518 17.9356 10.9684 18.2982 10.9886 18.6831 11.0917 19.065 11.194 19.4363 11.3695 19.735 11.5562 19.9692 11.7025 20.2776 11.6313 20.424 11.3972 20.5704 11.163 20.4992 10.8545 20.265 10.7082ZM20 15V21.5C20 21.7762 20.2239 22 20.5 22 20.7761 22 21 21.7762 21 21.5V15C21 14.7239 20.7761 14.5 20.5 14.5 20.2239 14.5 20 14.7239 20 15Z"/>
	</svg>
	