<?xml version="1.0"?>
	<svg xmlns="http://www.w3.org/2000/svg" 
		width="1024" 
		height="1024" 
		viewbox="0 0 1024 1024" 
		code="82544" 
		 transform=""
		><path d="M367.139 744h289.722c52.579 0 79.139-21.774 79.139-64.232v-335.754c0-42.458-26.56-64.014-79.139-64.014h-289.722c-52.307 0-79.139 21.557-79.139 64.014v335.754c0 42.458 26.832 64.232 79.139 64.232zM641.538 397.566h-259.059c-6.341 0-10.931-4.453-10.931-10.39s4.81-10.602 10.931-10.602h259.059c6.122 0 10.931 4.664 10.931 10.602s-4.81 10.39-10.931 10.39zM529.826 480.358h-147.347c-6.122 0-10.931-4.666-10.931-10.603 0-5.936 4.81-10.602 10.931-10.602h147.347c6.122 0 10.931 4.666 10.931 10.602 0 5.938-4.81 10.603-10.931 10.603zM641.538 562.725h-259.059c-6.341 0-10.931-4.453-10.931-10.602 0-5.725 4.59-10.389 10.931-10.389h259.059c6.122 0 10.931 4.664 10.931 10.389 0 6.149-4.81 10.602-10.931 10.602zM529.826 647.426h-147.347c-6.122 0-10.931-4.664-10.931-10.602s4.59-10.602 10.931-10.602h147.347c6.339 0 10.931 4.664 10.931 10.602s-4.81 10.602-10.931 10.602z"/>
	</svg>
	