<?xml version="1.0"?>
	<svg xmlns="http://www.w3.org/2000/svg" 
		width="64" 
		height="64" 
		viewbox="0 0 64 64" 
		code="82545" 
		 transform=""
		><path d="M22.0307 46H41.9693C44.6473 46 46 44.6748 46 42.1303V20.8829C46 18.3252 44.6473 17 41.9693 17H22.0307C19.3664 17 18 18.312 18 20.8829V42.1303C18 44.688 19.3664 46 22.0307 46ZM22.0581 44.3567C20.5278 44.3567 19.6943 43.5748 19.6943 42.0375V20.9625C19.6943 19.4384 20.5278 18.6433 22.0581 18.6433H41.9419C43.4449 18.6433 44.3057 19.4384 44.3057 20.9625V42.0375C44.3057 43.5748 43.4449 44.3567 41.9419 44.3567H22.0581ZM23.4936 24.3214H39.6849C40.0675 24.3214 40.3681 24.0431 40.3681 23.672 40.3681 23.3009 40.0675 23.0094 39.6849 23.0094H23.4936C23.111 23.0094 22.8104 23.3009 22.8104 23.672 22.8104 24.0431 23.0974 24.3214 23.4936 24.3214ZM23.4936 29.4959H32.7028C33.0854 29.4959 33.386 29.2043 33.386 28.8332 33.386 28.4622 33.0854 28.1706 32.7028 28.1706H23.4936C23.111 28.1706 22.8104 28.4622 22.8104 28.8332 22.8104 29.2043 23.111 29.4959 23.4936 29.4959ZM23.4936 34.6438H39.6849C40.0675 34.6438 40.3681 34.3655 40.3681 33.9812 40.3681 33.6234 40.0675 33.3319 39.6849 33.3319H23.4936C23.0974 33.3319 22.8104 33.6234 22.8104 33.9812 22.8104 34.3655 23.0974 34.6438 23.4936 34.6438ZM23.4936 39.9376H32.7028C33.0854 39.9376 33.386 39.6461 33.386 39.275 33.386 38.9039 33.0991 38.6124 32.7028 38.6124H23.4936C23.0974 38.6124 22.8104 38.9039 22.8104 39.275 22.8104 39.6461 23.111 39.9376 23.4936 39.9376Z"/>
	</svg>
	