<?xml version="1.0"?>
	<svg xmlns="http://www.w3.org/2000/svg" 
		width="24" 
		height="24" 
		viewbox="0 0 24 24" 
		code="82546" 
		 transform=""
		><path d="M8.58351 17.3929H16.4165C17.4686 17.3929 18 16.8722 18 15.8726V7.52544C18 6.52063 17.4686 6 16.4165 6H8.58351C7.53678 6 7 6.51542 7 7.52544V15.8726C7 16.8774 7.53678 17.3929 8.58351 17.3929ZM8.59424 16.7473C7.99305 16.7473 7.66561 16.4401 7.66561 15.8362V7.55668C7.66561 6.95796 7.99305 6.64558 8.59424 6.64558H16.4058C16.9962 6.64558 17.3344 6.95796 17.3344 7.55668V15.8362C17.3344 16.4401 16.9962 16.7473 16.4058 16.7473H8.59424ZM9.1582 8.87625H15.5191C15.6694 8.87625 15.7875 8.76692 15.7875 8.62115 15.7875 8.47537 15.6694 8.36083 15.5191 8.36083H9.1582C9.0079 8.36083 8.88981 8.47537 8.88981 8.62115 8.88981 8.76692 9.00253 8.87625 9.1582 8.87625ZM9.1582 10.9091H12.7761C12.9264 10.9091 13.0445 10.7945 13.0445 10.6488 13.0445 10.503 12.9264 10.3885 12.7761 10.3885H9.1582C9.0079 10.3885 8.88981 10.503 8.88981 10.6488 8.88981 10.7945 9.0079 10.9091 9.1582 10.9091ZM9.1582 12.9315H15.5191C15.6694 12.9315 15.7875 12.8222 15.7875 12.6712 15.7875 12.5306 15.6694 12.4161 15.5191 12.4161H9.1582C9.00253 12.4161 8.88981 12.5306 8.88981 12.6712 8.88981 12.8222 9.00253 12.9315 9.1582 12.9315ZM9.1582 15.0112H12.7761C12.9264 15.0112 13.0445 14.8967 13.0445 14.7509 13.0445 14.6051 12.9318 14.4906 12.7761 14.4906H9.1582C9.00253 14.4906 8.88981 14.6051 8.88981 14.7509 8.88981 14.8967 9.0079 15.0112 9.1582 15.0112Z"/>
	</svg>
	