<?xml version="1.0"?>
	<svg xmlns="http://www.w3.org/2000/svg" 
		width="32" 
		height="32" 
		viewbox="0 0 32 32" 
		code="82547" 
		 transform=""
		><path d="M12.5 9C12.7761 9 13 9.22386 13 9.5L13 12H19V9.5C19 9.22386 19.2239 9 19.5 9 19.7761 9 20 9.22386 20 9.5V12H22.5C22.7761 12 23 12.2239 23 12.5 23 12.7761 22.7761 13 22.5 13H20L20 19H22.5C22.7761 19 23 19.2239 23 19.5 23 19.7761 22.7761 20 22.5 20H20V22.5C20 22.7761 19.7761 23 19.5 23 19.2239 23 19 22.7761 19 22.5V20H13L13 22.5C13 22.7761 12.7761 23 12.5 23 12.2239 23 12 22.7761 12 22.5L12 20H9.5C9.22386 20 9 19.7761 9 19.5 9 19.2239 9.22386 19 9.5 19H12L12 13H9.5C9.22386 13 9 12.7761 9 12.5 9 12.2239 9.22386 12 9.5 12H12L12 9.5C12 9.22386 12.2239 9 12.5 9ZM19 19L19 13H13L13 19H19Z"/>
	</svg>
	