<?xml version="1.0"?>
	<svg xmlns="http://www.w3.org/2000/svg" 
		width="32" 
		height="32" 
		viewbox="0 0 32 32" 
		code="82548" 
		 transform=""
		><path d="M8 23.3992C8 23.7632 8.26272 24.0003 8.62714 24.0003 8.77969 24.0003 8.92376 23.941 9.03393 23.8309L11.7798 21.0626 14.3392 18.4297 14.2036 21.2912V22.6965C14.2036 23.0436 14.4494 23.2976 14.7884 23.2976 15.1358 23.2976 15.3816 23.0351 15.3816 22.6965L15.3816 17.6593C15.3816 17.0074 14.9918 16.618 14.3477 16.618L9.29665 16.618C8.94918 16.618 8.68646 16.8635 8.68646 17.2106 8.68646 17.5577 8.95766 17.7948 9.29665 17.7948H10.7035L13.5765 17.6508 10.9408 20.1991 8.1695 22.959C8.05932 23.0775 8 23.2299 8 23.3992ZM16.6194 14.332C16.6194 14.9839 17.0008 15.3733 17.6533 15.3733H22.7044C23.0518 15.3733 23.3145 15.1278 23.3145 14.7807 23.3061 14.4336 23.0434 14.1965 22.7044 14.1965H21.2975L18.4246 14.3405 21.0602 11.7922 23.823 9.03235C23.9417 8.91383 24.001 8.76144 24.001 8.60059 24.001 8.23656 23.7383 7.99951 23.3739 7.99951 23.2213 7.99951 23.0772 8.05031 22.9671 8.16883L20.2212 10.9287 17.6533 13.5616 17.7974 10.7086V9.29479C17.7974 8.94769 17.5516 8.69372 17.2042 8.69372 16.8567 8.69372 16.6194 8.95616 16.6194 9.29479V14.332Z"/>
	</svg>
	