<?xml version="1.0"?>
	<svg xmlns="http://www.w3.org/2000/svg" 
		width="32" 
		height="32" 
		viewbox="0 0 32 32" 
		code="82551" 
		 transform=""
		><path d="M15.9959 8C20.3826 8 24 11.6174 24 15.9959 24 20.3744 20.3826 24 16.0041 24 11.6256 24 8 20.3744 8 15.9959 8 11.6174 11.6174 8 15.9959 8ZM16.3806 20.0716L16.3806 22.8706C17.2072 22.6414 17.9683 21.6675 18.4921 20.2926 17.8537 20.1616 17.1499 20.088 16.3806 20.0716L16.3806 20.0716ZM15.6194 20.0716C14.8501 20.088 14.1463 20.1616 13.5079 20.2926 14.0317 21.6675 14.7928 22.6414 15.6194 22.8706L15.6194 22.8706ZM19.2532 20.4726C18.9095 21.3811 18.4593 22.1176 17.9519 22.6578 18.9995 22.355 19.9407 21.8067 20.7182 21.0864 20.3008 20.8409 19.8097 20.6363 19.2532 20.4726ZM12.7468 20.4726C12.1903 20.6363 11.7074 20.8327 11.2818 21.0783 12.0593 21.7985 13.0005 22.3468 14.0481 22.6496 13.5325 22.1176 13.0905 21.3729 12.7468 20.4726ZM22.9279 16.3724L19.998 16.3724 19.9838191 16.7860697C19.930263 17.8790025 19.7524556 18.8885333 19.4905 19.7688 20.1698 19.9734 20.7673 20.2353 21.2501 20.5381 22.224 19.4087 22.846 17.9601 22.9279 16.3724L22.9279 16.3724ZM12.002 16.3724L9.08031 16.3724C9.16215 17.9601 9.78414 19.4087 10.7581 20.5299 11.2409 20.2271 11.8302 19.9734 12.5095 19.7688 12.2148 18.7785 12.0266 17.6246 12.002 16.3724L12.002 16.3724ZM15.6194 16.3724L12.7877 16.3724 12.8040979 16.8022713C12.8588359 17.7983016 13.0270875 18.7427 13.2706 19.5806 13.999 19.4251 14.7847 19.3269 15.6194 19.3105L15.6194 19.3105 15.6194 16.3724ZM19.2123 16.3724L16.3806 16.3724 16.3806 19.3105C17.2153 19.3269 18.001 19.4251 18.7294 19.5806 19.0077 18.623 19.1877 17.5263 19.2123 16.3724L19.2123 16.3724ZM21.2583 11.4701C20.7673 11.7811 20.1698 12.043 19.4905 12.2394 19.7852 13.2297 19.9652 14.3673 19.998 15.6031L19.998 15.6031 22.9197 15.6031C22.8297 14.0317 22.224 12.5913 21.2583 11.4701ZM10.7417 11.4701C9.77596 12.5913 9.17033 14.0317 9.08031 15.6031L9.08031 15.6031 12.002 15.6031 12.0211365 15.144374C12.0815922 14.0852016 12.2516375 13.1059125 12.5095 12.2394 11.8302 12.043 11.2246 11.7811 10.7417 11.4701ZM18.7294 12.4358C18.001 12.5913 17.2153 12.6813 16.3806 12.7059L16.3806 12.7059 16.3806 15.6031 19.2123 15.6031C19.1795 14.4655 19.0077 13.377 18.7294 12.4358ZM13.2706 12.4358C12.9923 13.377 12.8205 14.4655 12.7877 15.6031L12.7877 15.6031 15.6194 15.6031 15.6194 12.7059 15.1245264 12.6832912C14.472712 12.64268 13.85332 12.5602 13.2706 12.4358ZM16.3806 9.14578L16.3806 11.9448C17.1499 11.9284 17.8537 11.8547 18.4921 11.7238 17.9683 10.3488 17.2072 9.37494 16.3806 9.14578L16.3806 9.14578ZM15.6194 9.14578C14.7928 9.37494 14.0317 10.3488 13.5079 11.7238 14.1463 11.8547 14.8501 11.9284 15.6194 11.9448L15.6194 11.9448ZM14.0726 9.33402C13.0087 9.63683 12.0512 10.1934 11.2655 10.9217 11.691 11.1754 12.1903 11.3801 12.7468 11.5437 13.0987 10.6189 13.557 9.86598 14.0726 9.33402ZM17.9274 9.33402C18.443 9.86598 18.9013 10.6189 19.2532 11.5437 19.8097 11.3801 20.309 11.1754 20.7345 10.9217 19.9488 10.1934 18.9913 9.63683 17.9274 9.33402Z"/>
	</svg>
	