<?xml version="1.0"?>
	<svg xmlns="http://www.w3.org/2000/svg" 
		width="24" 
		height="24" 
		viewbox="0 0 24 24" 
		code="82550" 
		 transform=""
		><path d="M8.4375 5.43750125C9.47303 5.43750125 10.3125 6.27697125 10.3125 7.31250125 10.3125 8.17646125 9.72816 8.90395125 8.93314 9.12129125 8.93601 9.14295125 8.93748 9.16506125 8.93748 9.18750125L8.93748 15.6875013C8.93748 15.9636013 9.16134 16.1875013 9.43748 16.1875013L10.6054 16.1875013 9.9589 15.5411013C9.76367 15.3458013 9.76367 15.0292013 9.9589 14.8339013 10.1542 14.6387013 10.4708 14.6387013 10.666 14.8339013L12.166 16.3339013C12.3613 16.5292013 12.3613 16.8458013 12.166 17.0411013L10.666 18.5411013C10.4708 18.7363013 10.1542 18.7363013 9.9589 18.5411013 9.76367 18.3458013 9.76367 18.0292013 9.9589 17.8339013L10.6054 17.1875013 9.43748 17.1875013C8.60906 17.1875013 7.93748 16.5159013 7.93748 15.6875013L7.93748 9.18750125C7.93748 9.16505125 7.93896 9.14295125 7.94183 9.12129125 7.14682 8.90393125 6.5625 8.17645125 6.5625 7.31250125 6.5625 6.27697125 7.40197 5.43750125 8.4375 5.43750125ZM14.0411 5.45895125C14.2363 5.65421125 14.2363 5.97079125 14.0411 6.16605125L13.3946 6.81249875 14.5625 6.81249875C15.3909 6.81249875 16.0625 7.48407125 16.0625 8.31249875L16.0625 14.8124988C16.0625 14.8349013 16.061 14.8570013 16.0582 14.8787013 16.8532 15.0961013 17.4375 15.8235013 17.4375 16.6875013 17.4375 17.7230013 16.598 18.5625013 15.5625 18.5625013 14.527 18.5625013 13.6875 17.7230013 13.6875 16.6875013 13.6875 15.8235013 14.2718 15.0961013 15.0669 14.8787013 15.064 14.8570013 15.0625 14.8349013 15.0625 14.8124988L15.0625 8.31249875C15.0625 8.03636125 14.8387 7.81249875 14.5625 7.81249875L13.3946 7.81249875 14.0411 8.45895125C14.2363 8.65421125 14.2363 8.97079125 14.0411 9.16605125 13.8458 9.36132125 13.5292 9.36132125 13.334 9.16605125L11.834 7.66605125C11.6387 7.47079125 11.6387 7.15421125 11.834 6.95895125L13.334 5.45895125C13.5292 5.26368125 13.8458 5.26368125 14.0411 5.45895125ZM15.5625 15.8125013C15.0793 15.8125013 14.6875 16.2043013 14.6875 16.6875013 14.6875 17.1707013 15.0793 17.5625013 15.5625 17.5625013 16.0457 17.5625013 16.4375 17.1707013 16.4375 16.6875013 16.4375 16.2043013 16.0457 15.8125013 15.5625 15.8125013ZM8.4375 6.43750125C7.95425 6.43750125 7.5625 6.82925125 7.5625 7.31250125 7.5625 7.79575125 7.95425 8.18750125 8.4375 8.18750125 8.92075 8.18750125 9.3125 7.79575125 9.3125 7.31250125 9.3125 6.82925125 8.92075 6.43750125 8.4375 6.43750125Z"/>
	</svg>
	