<?xml version="1.0"?>
	<svg xmlns="http://www.w3.org/2000/svg" 
		width="24" 
		height="24" 
		viewbox="0 0 24 24" 
		code="82549" 
		 transform=""
		><path d="M11.9997 6.5C11.4089 6.49994 10.8424 6.73456 10.4246 7.15224 10.0068 7.56992 9.77209 8.13645 9.77203 8.7272 9.77197 9.31795 10.0066 9.88453 10.4243 10.3023 10.8419 10.72 11.4089 10.9548 11.9998 10.9548 12.5904 10.9549 13.1565 10.7204 13.5743 10.3026 13.9921 9.88492 14.2268 9.31839 14.2269 8.72764 14.2269 8.1369 13.9923 7.57032 13.5746 7.15255 13.157 6.73479 12.5904 6.50006 11.9997 6.5ZM9.71755 6.44506C10.3229 5.83986 11.1438 5.49991 11.9998 5.5 12.8557 5.50009 13.6766 5.8402 14.2818 6.44552 14.887 7.05084 15.227 7.87178 15.2269 8.72774 15.2268 9.58371 14.8867 10.4046 14.2814 11.0098 13.7953 11.4958 13.1704 11.8108 12.4997 11.9159V13.3535L14.9088 14.7989C15.3033 14.4322 15.8227 14.2274 16.3632 14.2274 16.9297 14.2274 17.4731 14.4525 17.8738 14.8531 18.2744 15.2538 18.4995 15.7971 18.4995 16.3637 18.4995 16.9303 18.2744 17.4737 17.8738 17.8743 17.4731 18.2749 16.9297 18.5 16.3632 18.5 15.7966 18.5 15.2532 18.2749 14.8526 17.8743 14.452 17.4737 14.2269 16.9303 14.2269 16.3637 14.2269 16.1121 14.2712 15.8652 14.3557 15.6332L11.9997 14.2197 9.6438 15.6332C9.72821 15.8652 9.77258 16.1121 9.77258 16.3637 9.77258 16.9303 9.54751 17.4737 9.14687 17.8743 8.74624 18.2749 8.20287 18.5 7.63629 18.5 7.06971 18.5 6.52634 18.2749 6.1257 17.8743 5.72507 17.4737 5.5 16.9303 5.5 16.3637 5.5 15.7971 5.72507 15.2538 6.1257 14.8531 6.52634 14.4525 7.06971 14.2274 7.63629 14.2274 8.17678 14.2274 8.69616 14.4322 9.09065 14.7989L11.4997 13.3535V11.9159C10.8288 11.8106 10.2032 11.4956 9.7171 11.0093 9.1119 10.404 8.77195 9.58306 8.77203 8.7271 8.77212 7.87113 9.11223 7.05026 9.71755 6.44506ZM7.63629 15.2274C7.33493 15.2274 7.04591 15.3471 6.83281 15.5602 6.61972 15.7733 6.5 16.0623 6.5 16.3637 6.5 16.6651 6.61972 16.9541 6.83281 17.1672 7.04591 17.3803 7.33493 17.5 7.63629 17.5 7.93765 17.5 8.22667 17.3803 8.43977 17.1672 8.65286 16.9541 8.77258 16.6651 8.77258 16.3637 8.77258 16.0623 8.65286 15.7733 8.43977 15.5602 8.22667 15.3471 7.93765 15.2274 7.63629 15.2274ZM16.3632 15.2274C16.0618 15.2274 15.7728 15.3471 15.5597 15.5602 15.3466 15.7733 15.2269 16.0623 15.2269 16.3637 15.2269 16.6651 15.3466 16.9541 15.5597 17.1672 15.7728 17.3803 16.0618 17.5 16.3632 17.5 16.6645 17.5 16.9535 17.3803 17.1666 17.1672 17.3797 16.9541 17.4995 16.6651 17.4995 16.3637 17.4995 16.0623 17.3797 15.7733 17.1666 15.5602 16.9535 15.3471 16.6645 15.2274 16.3632 15.2274Z"/>
	</svg>
	