<?xml version="1.0"?>
	<svg xmlns="http://www.w3.org/2000/svg" 
		width="32" 
		height="32" 
		viewbox="0 0 32 32" 
		code="82552" 
		 transform=""
		><path d="M10.1435 15.7803L16.217 9.70507C16.4123 9.50978 16.4122 9.19319 16.2169 8.99796 16.0216 8.80273 15.705 8.80277 15.5098 8.99806L9.43626 15.0733C8.85058 15.6591 8.85069 16.6088 9.43649 17.1946L14.8033 22.5606C15.3891 23.1463 16.3388 23.1463 16.9246 22.5605L22.9975 16.4875C23.1927 16.2923 23.1927 15.9757 22.9975 15.7804 22.8022 15.5852 22.4856 15.5852 22.2904 15.7804L16.2175 21.8534C16.0222 22.0487 15.7056 22.0487 15.5104 21.8534L10.1435 16.4874C9.94828 16.2922 9.94824 15.9756 10.1435 15.7803ZM17.8025 10.3051C17.5264 10.3051 17.3025 10.529 17.3025 10.8051 17.3025 11.0812 17.5264 11.3051 17.8025 11.3051H19.9859L15.9959 15.2951C15.8006 15.4904 15.8006 15.8069 15.9959 16.0022 16.1912 16.1975 16.5077 16.1975 16.703 16.0022L20.693 12.0122V14.1956C20.693 14.4717 20.9169 14.6956 21.193 14.6956 21.4692 14.6956 21.693 14.4717 21.693 14.1956V10.8051C21.693 10.529 21.4692 10.3051 21.193 10.3051H17.8025Z"/>
	</svg>
	