<?xml version="1.0"?>
	<svg xmlns="http://www.w3.org/2000/svg" 
		width="24" 
		height="25" 
		viewbox="0 0 24 25" 
		code="82556" 
		 transform=""
		><path d="M7.75736 16.7426C7.20021 16.1855 6.75825 15.5241 6.45672 14.7961 6.15519 14.0681 6 13.2879 6 12.5L12 12.5 7.75736 16.7426ZM6 12.5C6 11.7121 6.15519 10.9319 6.45672 10.2039 6.75825 9.47595 7.20021 8.81451 7.75736 8.25736L12 12.5 6 12.5ZM7.79174 8.22341C7.77711 8.23781 7.76254 8.25229 7.74805 8.26685L7.74817 8.26697 7.79174 8.22341ZM8.12604 7.91838L12.354 12.1464 12.7076 12.4999 12.354 12.8535 8.12597 17.0816C8.90364 17.7392 9.83821 18.1898 10.8428 18.3873 12.0072 18.6162 13.2133 18.4947 14.3086 18.0381 15.404 17.5816 16.3393 16.8104 16.9964 15.8223 17.6535 14.8341 18.0028 13.6733 18.0001 12.4866 17.9975 11.2999 17.643 10.1407 16.9815 9.15545 16.32 8.17023 15.3812 7.40329 14.2839 6.95161 13.1865 6.49993 11.9798 6.38381 10.8165 6.61792 9.82165 6.81811 8.89669 7.26673 8.12604 7.91838ZM7.79876 16.7835L7.76719 16.7519 7.767 16.7521C7.77755 16.7626 7.78814 16.7731 7.79876 16.7835Z"/>
	</svg>
	