<?xml version="1.0"?>
	<svg xmlns="http://www.w3.org/2000/svg" 
		width="24" 
		height="25" 
		viewbox="0 0 24 25" 
		code="82554" 
		 transform=""
		><path d="M7.75736 16.7426C7.20021 16.1855 6.75825 15.5241 6.45672 14.7961 6.15519 14.0681 6 13.2879 6 12.5L12 12.5 7.75736 16.7426ZM6 12.5C6 11.7121 6.15519 10.9319 6.45672 10.2039 6.75825 9.47595 7.20021 8.81451 7.75736 8.25736L12 12.5 6 12.5ZM8.8926 7.36745C8.62368 7.53027 8.3673 7.71437 8.12604 7.91838L8.8926 8.68494V7.36745ZM7.79174 8.22341C7.77711 8.23781 7.76254 8.25229 7.74805 8.26685L7.74817 8.26697 7.79174 8.22341ZM7.76719 16.7519L7.767 16.7521C7.77753 16.7626 7.78811 16.773 7.79871 16.7834L7.76719 16.7519ZM8.12597 17.0816C8.36727 17.2856 8.62368 17.4697 8.8926 17.6326V16.3149L8.12597 17.0816ZM9.3926 17.9038C9.85097 18.125 10.338 18.2881 10.8428 18.3873 10.8594 18.3906 10.876 18.3938 10.8926 18.3969V14.3149L9.3926 15.8149V17.9038ZM11.3926 18.4692C11.8933 18.5201 12.3972 18.5078 12.8926 18.4333V6.56674C12.3972 6.49223 11.8932 6.47988 11.3926 6.53084V11.1849L12.354 12.1464 12.7076 12.4999 12.354 12.8535 11.3926 13.8149V18.4692ZM10.8926 6.60311C10.8672 6.60788 10.8418 6.61282 10.8165 6.61792 10.321 6.71762 9.84294 6.87893 9.3926 7.09624V9.18494L10.8926 10.6849V6.60311ZM13.3926 6.66381V18.3362C13.7041 18.2619 14.0105 18.1624 14.3086 18.0381 14.5089 17.9547 14.7038 17.8607 14.8926 17.7568V7.24321C14.696 7.13503 14.4928 7.03761 14.2839 6.95161 13.9935 6.83209 13.6955 6.73607 13.3926 6.66381ZM15.3926 7.55113V17.4489C15.9734 17.0508 16.4818 16.5519 16.8926 15.9733V9.02667C16.4818 8.44797 15.9732 7.94917 15.3926 7.55113ZM17.3926 9.8691V15.1309C17.7928 14.3106 18.0022 13.4064 18.0001 12.4866 17.9981 11.5759 17.7888 10.6813 17.3926 9.8691Z"/>
	</svg>
	