<?xml version="1.0"?>
	<svg xmlns="http://www.w3.org/2000/svg" 
		width="64" 
		height="64" 
		viewbox="0 0 64 64" 
		code="82565" 
		 transform=""
		><path d="M20.0307 44H43.9693C46.6473 44 48 42.6748 48 40.1303V23.8829C48 21.3252 46.6473 20 43.9693 20H20.0307C17.3664 20 16 21.312 16 23.8829V40.1303C16 42.688 17.3664 44 20.0307 44ZM17.6943 23.9625C17.6943 22.4384 18.5278 21.6433 20.0581 21.6433H31.1529V31.185H17.6943V23.9625ZM43.9419 21.6433C45.4449 21.6433 46.3057 22.4384 46.3057 23.9625V31.185H32.8471V21.6433H43.9419ZM20.0581 42.3567C18.5278 42.3567 17.6943 41.5748 17.6943 40.0375V32.8283H31.1529V42.3567H20.0581ZM46.3057 40.0375C46.3057 41.5748 45.4449 42.3567 43.9419 42.3567H32.8471V32.8283H46.3057V40.0375Z"/>
	</svg>
	