<?xml version="1.0"?>
	<svg xmlns="http://www.w3.org/2000/svg" 
		width="32" 
		height="32" 
		viewbox="0 0 32 32" 
		code="82563" 
		 transform=""
		><path d="M25.51 14.9245H19.5785C17.9098 14.9245 17.0755 14.0902 17.0755 12.3694V6.5421C17.0755 4.82129 17.9098 4 19.5785 4H25.51C27.1657 4 28 4.82129 28 6.5421V12.3694C28 14.0902 27.1657 14.9245 25.51 14.9245ZM12.4345 14.9245H6.48995C4.83433 14.9245 4 14.0902 4 12.3694V6.5421C4 4.82129 4.83433 4 6.48995 4H12.4345C14.0902 4 14.9245 4.82129 14.9245 6.5421V12.3694C14.9245 14.0902 14.0902 14.9245 12.4345 14.9245ZM12.4345 28H6.48995C4.83433 28 4 27.1787 4 25.4579V19.6176C4 17.9098 4.83433 17.0755 6.48995 17.0755H12.4345C14.0902 17.0755 14.9245 17.9098 14.9245 19.6176V25.4579C14.9245 27.1787 14.0902 28 12.4345 28ZM25.51 28H19.5785C17.9098 28 17.0755 27.1787 17.0755 25.4579V19.6176C17.0755 17.9098 17.9098 17.0755 19.5785 17.0755H25.51C27.1657 17.0755 28 17.9098 28 19.6176V25.4579C28 27.1787 27.1657 28 25.51 28ZM22.9004 26.6152H22.1816C21.9785 26.6152 21.8301 26.4941 21.7832 26.2949L21.5801 25.4355C21.4277 25.3848 21.2832 25.3262 21.1504 25.2637L20.4004 25.7246C20.2324 25.8301 20.0371 25.8145 19.8965 25.6738L19.3965 25.1738C19.2559 25.0332 19.2324 24.8301 19.3496 24.6621L19.8066 23.916C19.7441 23.7793 19.6855 23.6387 19.6426 23.498L18.7754 23.291C18.5762 23.248 18.459 23.0996 18.459 22.8965V22.1895C18.459 21.9902 18.5762 21.8418 18.7754 21.7988L19.6348 21.5918C19.6809 21.4464 19.7366 21.3139 19.7845 21.2001 19.7894 21.1885 19.7941 21.1772 19.7988 21.166L19.3418 20.4082C19.2285 20.2402 19.2441 20.0488 19.3887 19.9082L19.8965 19.4043C20.041 19.2676 20.2168 19.248 20.3887 19.3457L21.1465 19.8145C21.2793 19.7441 21.4277 19.6855 21.5801 19.6348L21.7832 18.7715C21.8301 18.5723 21.9785 18.4512 22.1816 18.4512H22.9004C23.1035 18.4512 23.252 18.5723 23.2949 18.7715L23.498 19.6426C23.6582 19.6934 23.8027 19.752 23.9277 19.8184L24.6934 19.3457C24.8652 19.248 25.0371 19.2715 25.1816 19.4043L25.6934 19.9082C25.8379 20.0488 25.8496 20.2402 25.7402 20.4082L25.2793 21.166C25.334 21.2871 25.3965 21.4316 25.4473 21.5918L26.3066 21.7988C26.5059 21.8418 26.623 21.9902 26.623 22.1895V22.8965C26.623 23.0996 26.5059 23.248 26.3066 23.291L25.4395 23.498C25.3965 23.6387 25.3379 23.7793 25.2715 23.916L25.7324 24.6621C25.8457 24.8301 25.8262 25.0332 25.6855 25.1738L25.1816 25.6738C25.041 25.8145 24.8496 25.8301 24.6816 25.7246L23.9277 25.2637C23.7988 25.3262 23.6504 25.3848 23.498 25.4355L23.2949 26.2949C23.252 26.4941 23.1035 26.6152 22.9004 26.6152ZM21.1621 22.5293C21.1621 23.2871 21.7832 23.9121 22.541 23.9121 23.2988 23.9121 23.9199 23.2871 23.9199 22.5293 23.9199 21.7754 23.2988 21.1543 22.541 21.1543 21.7832 21.1543 21.1621 21.7754 21.1621 22.5293Z"/>
	</svg>
	