<?xml version="1.0"?>
	<svg xmlns="http://www.w3.org/2000/svg" 
		width="32" 
		height="32" 
		viewbox="0 0 32 32" 
		code="82566" 
		 transform=""
		><path d="M11.6029 11H13.4029C13.6995 11 13.8617 11.0008 13.9783 11.0103L13.9915 11.0114 13.9926 11.0246C14.0022 11.1412 14.0029 11.3035 14.0029 11.6V13.4C14.0029 13.6965 14.0022 13.8588 13.9926 13.9754L13.9915 13.9886 13.9783 13.9897C13.8617 13.9992 13.6995 14 13.4029 14H11.6029C11.3064 14 11.1441 13.9992 11.0276 13.9897L11.0144 13.9886 11.0132 13.9754C11.0037 13.8588 11.0029 13.6965 11.0029 13.4V11.6C11.0029 11.3035 11.0037 11.1412 11.0132 11.0246L11.0144 11.0114 11.0276 11.0103C11.1441 11.0008 11.3064 11 11.6029 11ZM10.0029 11.6C10.0029 11.0399 10.0029 10.7599 10.1119 10.546 10.2078 10.3578 10.3608 10.2049 10.5489 10.109 10.7629 10 11.0429 10 11.6029 10H13.4029C13.963 10 14.243 10 14.4569 10.109 14.6451 10.2049 14.7981 10.3578 14.8939 10.546 15.0029 10.7599 15.0029 11.0399 15.0029 11.6V13.4C15.0029 13.9601 15.0029 14.2401 14.8939 14.454 14.7981 14.6422 14.6451 14.7951 14.4569 14.891 14.243 15 13.963 15 13.4029 15H11.6029C11.0429 15 10.7629 15 10.5489 14.891 10.3608 14.7951 10.2078 14.6422 10.1119 14.454 10.0029 14.2401 10.0029 13.9601 10.0029 13.4V11.6ZM11.6029 18H13.4029C13.6995 18 13.8617 18.0008 13.9783 18.0103L13.9915 18.0114 13.9926 18.0246C14.0022 18.1412 14.0029 18.3035 14.0029 18.6V20.4C14.0029 20.6965 14.0022 20.8588 13.9926 20.9754L13.9915 20.9886 13.9783 20.9897C13.8617 20.9992 13.6995 21 13.4029 21H11.6029C11.3064 21 11.1441 20.9992 11.0276 20.9897L11.0144 20.9886 11.0132 20.9754C11.0037 20.8588 11.0029 20.6965 11.0029 20.4V18.6C11.0029 18.3035 11.0037 18.1412 11.0132 18.0246L11.0144 18.0114 11.0276 18.0103C11.1441 18.0008 11.3064 18 11.6029 18ZM10.0029 18.6C10.0029 18.0399 10.0029 17.7599 10.1119 17.546 10.2078 17.3578 10.3608 17.2049 10.5489 17.109 10.7629 17 11.0429 17 11.6029 17H13.4029C13.963 17 14.243 17 14.4569 17.109 14.6451 17.2049 14.7981 17.3578 14.8939 17.546 15.0029 17.7599 15.0029 18.0399 15.0029 18.6V20.4C15.0029 20.9601 15.0029 21.2401 14.8939 21.454 14.7981 21.6422 14.6451 21.7951 14.4569 21.891 14.243 22 13.963 22 13.4029 22H11.6029C11.0429 22 10.7629 22 10.5489 21.891 10.3608 21.7951 10.2078 21.6422 10.1119 21.454 10.0029 21.2401 10.0029 20.9601 10.0029 20.4V18.6ZM20.4029 11H18.6029C18.3064 11 18.1441 11.0008 18.0276 11.0103L18.0144 11.0114 18.0132 11.0246C18.0037 11.1412 18.0029 11.3035 18.0029 11.6V13.4C18.0029 13.6965 18.0037 13.8588 18.0132 13.9754L18.0144 13.9886 18.0276 13.9897C18.1441 13.9992 18.3064 14 18.6029 14H20.4029C20.6995 14 20.8617 13.9992 20.9783 13.9897L20.9915 13.9886 20.9926 13.9754C21.0022 13.8588 21.0029 13.6965 21.0029 13.4V11.6C21.0029 11.3035 21.0022 11.1412 20.9926 11.0246L20.9915 11.0114 20.9783 11.0103C20.8617 11.0008 20.6995 11 20.4029 11ZM17.1119 10.546C17.0029 10.7599 17.0029 11.0399 17.0029 11.6V13.4C17.0029 13.9601 17.0029 14.2401 17.1119 14.454 17.2078 14.6422 17.3608 14.7951 17.5489 14.891 17.7629 15 18.0429 15 18.6029 15H20.4029C20.963 15 21.243 15 21.4569 14.891 21.6451 14.7951 21.7981 14.6422 21.8939 14.454 22.0029 14.2401 22.0029 13.9601 22.0029 13.4V11.6C22.0029 11.0399 22.0029 10.7599 21.8939 10.546 21.7981 10.3578 21.6451 10.2049 21.4569 10.109 21.243 10 20.963 10 20.4029 10H18.6029C18.0429 10 17.7629 10 17.5489 10.109 17.3608 10.2049 17.2078 10.3578 17.1119 10.546ZM18.6029 18H20.4029C20.6995 18 20.8617 18.0008 20.9783 18.0103L20.9915 18.0114 20.9926 18.0246C21.0022 18.1412 21.0029 18.3035 21.0029 18.6V20.4C21.0029 20.6965 21.0022 20.8588 20.9926 20.9754L20.9915 20.9886 20.9783 20.9897C20.8617 20.9992 20.6995 21 20.4029 21H18.6029C18.3064 21 18.1441 20.9992 18.0276 20.9897L18.0144 20.9886 18.0132 20.9754C18.0037 20.8588 18.0029 20.6965 18.0029 20.4V18.6C18.0029 18.3035 18.0037 18.1412 18.0132 18.0246L18.0144 18.0114 18.0276 18.0103C18.1441 18.0008 18.3064 18 18.6029 18ZM17.0029 18.6C17.0029 18.0399 17.0029 17.7599 17.1119 17.546 17.2078 17.3578 17.3608 17.2049 17.5489 17.109 17.7629 17 18.0429 17 18.6029 17H20.4029C20.963 17 21.243 17 21.4569 17.109 21.6451 17.2049 21.7981 17.3578 21.8939 17.546 22.0029 17.7599 22.0029 18.0399 22.0029 18.6V20.4C22.0029 20.9601 22.0029 21.2401 21.8939 21.454 21.7981 21.6422 21.6451 21.7951 21.4569 21.891 21.243 22 20.963 22 20.4029 22H18.6029C18.0429 22 17.7629 22 17.5489 21.891 17.3608 21.7951 17.2078 21.6422 17.1119 21.454 17.0029 21.2401 17.0029 20.9601 17.0029 20.4V18.6Z"/>
	</svg>
	