<?xml version="1.0"?>
	<svg xmlns="http://www.w3.org/2000/svg" 
		width="64" 
		height="64" 
		viewbox="0 0 64 64" 
		code="82561" 
		 transform=""
		><path d="M19.0807 17H44.9193C45.1828 17 45.4102 17 45.5975 17.0153 45.7952 17.0314 45.9918 17.0671 46.181 17.1635 46.4632 17.3073 46.6927 17.5368 46.8365 17.819 46.9329 18.0082 46.9686 18.2048 46.9847 18.4025 47 18.5898 47 18.8172 47 19.0807V44.9193C47 45.1829 47 45.4102 46.9847 45.5975 46.9686 45.7952 46.9329 45.9918 46.8365 46.181 46.6927 46.4632 46.4632 46.6927 46.181 46.8365 45.9918 46.9329 45.7952 46.9686 45.5975 46.9847 45.4102 47 45.1829 47 44.9193 47H19.0807C18.8171 47 18.5898 47 18.4025 46.9847 18.2048 46.9686 18.0082 46.9329 17.819 46.8365 17.5368 46.6927 17.3073 46.4632 17.1635 46.181 17.0671 45.9918 17.0314 45.7952 17.0153 45.5975 17 45.4102 17 45.1829 17 44.9193V19.0807C17 18.8172 17 18.5898 17.0153 18.4025 17.0314 18.2048 17.0671 18.0082 17.1635 17.819 17.3073 17.5368 17.5368 17.3073 17.819 17.1635 18.0082 17.0671 18.2048 17.0314 18.4025 17.0153 18.5898 17 18.8172 17 19.0807 17ZM46 36.5V27.5L37.3344 27.5V36.5H46ZM37.3344 37.5H46V44.9C46 45.1883 45.9996 45.3744 45.988 45.5161 45.9769 45.6519 45.9581 45.7023 45.9455 45.727 45.8976 45.8211 45.8211 45.8976 45.727 45.9455 45.7023 45.9581 45.6519 45.9769 45.5161 45.988 45.3744 45.9996 45.1883 46 44.9 46H37.3344V37.5ZM36.3344 36.5V27.5L27.6344 27.5V36.5L36.3344 36.5ZM27.6344 37.5L36.3344 37.5V46H27.6344V37.5ZM26.6344 36.5V27.5L18.0005 27.5 18 36.5C17.9999 36.5 18.0002 36.5 18 36.5H26.6344ZM18.0005 37.5C18.0006 37.5 18.0003 37.5 18.0005 37.5H26.6344V46H19.1C18.8117 46 18.6256 45.9996 18.4839 45.988 18.3481 45.9769 18.2977 45.9581 18.273 45.9455 18.1789 45.8976 18.1024 45.8211 18.0545 45.727 18.0419 45.7023 18.0231 45.6519 18.012 45.5161 18.0004 45.3744 18 45.1883 18 44.9L18.0005 37.5ZM46 26.5L37.3344 26.5V18H44.9C45.1883 18 45.3744 18.0004 45.5161 18.012 45.6519 18.0231 45.7023 18.0419 45.727 18.0545 45.8211 18.1024 45.8976 18.1789 45.9455 18.273 45.9581 18.2977 45.9769 18.3481 45.988 18.4839 45.9996 18.6256 46 18.8117 46 19.1V26.5ZM36.3344 26.5V18H27.6344V26.5L36.3344 26.5ZM26.6344 26.5V18H19.1C18.8117 18 18.6256 18.0004 18.4839 18.012 18.3481 18.0231 18.2977 18.0419 18.273 18.0545 18.1789 18.1024 18.1024 18.1789 18.0545 18.273 18.0419 18.2977 18.0231 18.3481 18.012 18.4839 18.0004 18.6256 18 18.8117 18 19.1V26.5L26.6344 26.5Z"/>
	</svg>
	