<?xml version="1.0"?>
	<svg xmlns="http://www.w3.org/2000/svg" 
		width="64" 
		height="64" 
		viewbox="0 0 64 64" 
		code="82557" 
		 transform=""
		><path d="M19.0807 17H44.9193C45.1828 17 45.4102 17 45.5975 17.0153 45.7952 17.0314 45.9918 17.0671 46.181 17.1635 46.4632 17.3073 46.6927 17.5368 46.8365 17.819 46.9329 18.0082 46.9686 18.2048 46.9847 18.4025 47 18.5898 47 18.8171 47 19.0807V44.9193C47 45.1829 47 45.4102 46.9847 45.5975 46.9686 45.7952 46.9329 45.9918 46.8365 46.181 46.6927 46.4632 46.4632 46.6927 46.181 46.8365 45.9918 46.9329 45.7952 46.9686 45.5975 46.9847 45.4102 47 45.1829 47 44.9193 47H19.0807C18.8171 47 18.5898 47 18.4025 46.9847 18.2048 46.9686 18.0082 46.9329 17.819 46.8365 17.5368 46.6927 17.3073 46.4632 17.1635 46.181 17.0671 45.9918 17.0314 45.7952 17.0153 45.5975 17 45.4102 17 45.1829 17 44.9193V19.0807C17 18.8172 17 18.5898 17.0153 18.4025 17.0314 18.2048 17.0671 18.0082 17.1635 17.819 17.3073 17.5368 17.5368 17.3073 17.819 17.1635 18.0082 17.0671 18.2048 17.0314 18.4025 17.0153 18.5898 17 18.8172 17 19.0807 17ZM18 32.4258V44.9C18 45.1883 18.0004 45.3744 18.012 45.5161 18.0231 45.6519 18.0419 45.7023 18.0545 45.727 18.1024 45.8211 18.1789 45.8976 18.273 45.9455 18.2977 45.9581 18.3481 45.9769 18.4839 45.988 18.6256 45.9996 18.8117 46 19.1 46H32V32.4258L18 32.4258ZM32 31.4258L18 31.4258V19.1C18 18.8117 18.0004 18.6256 18.012 18.4839 18.0231 18.3481 18.0419 18.2977 18.0545 18.273 18.1024 18.1789 18.1789 18.1024 18.273 18.0545 18.2977 18.0419 18.3481 18.0231 18.4839 18.012 18.6256 18.0004 18.8117 18 19.1 18H32V31.4258ZM33 32.4258V46H44.9C45.1883 46 45.3744 45.9996 45.5161 45.988 45.6519 45.9769 45.7023 45.9581 45.727 45.9455 45.8211 45.8976 45.8976 45.8211 45.9455 45.727 45.9581 45.7023 45.9769 45.6519 45.988 45.5161 45.9996 45.3744 46 45.1883 46 44.9V32.4258L33 32.4258ZM46 31.4258L33 31.4258V18H44.9C45.1883 18 45.3744 18.0004 45.5161 18.012 45.6519 18.0231 45.7023 18.0419 45.727 18.0545 45.8211 18.1024 45.8976 18.1789 45.9455 18.273 45.9581 18.2977 45.9769 18.3481 45.988 18.4839 45.9996 18.6256 46 18.8117 46 19.1V31.4258Z"/>
	</svg>
	