<?xml version="1.0"?>
	<svg xmlns="http://www.w3.org/2000/svg" 
		width="64" 
		height="64" 
		viewbox="0 0 64 64" 
		code="82559" 
		 transform=""
		><path d="M18 44.9193L18 19.0807C18 18.8172 18 18.5898 18.0153 18.4025 18.0314 18.2048 18.0671 18.0082 18.1635 17.819 18.3073 17.5368 18.5368 17.3073 18.819 17.1635 19.0082 17.0671 19.2048 17.0314 19.4025 17.0153 19.5898 17 19.8171 17 20.0807 17L45.9193 17C46.1829 17 46.4102 17 46.5975 17.0153 46.7952 17.0314 46.9918 17.0671 47.181 17.1635 47.4632 17.3073 47.6927 17.5368 47.8365 17.819 47.9329 18.0082 47.9686 18.2048 47.9847 18.4025 48 18.5898 48 18.8171 48 19.0807L48 44.9193C48 45.1829 48 45.4102 47.9847 45.5975 47.9686 45.7952 47.9329 45.9918 47.8365 46.181 47.6927 46.4632 47.4632 46.6927 47.181 46.8365 46.9918 46.9329 46.7952 46.9686 46.5975 46.9847 46.4102 47 46.1828 47 45.9193 47H33.2341C33.1488 47.0678 33.0408 47.1083 32.9233 47.1083 32.8059 47.1083 32.6979 47.0678 32.6125 47H20.0807C19.8172 47 19.5898 47 19.4025 46.9847 19.2048 46.9686 19.0082 46.9329 18.819 46.8365 18.5368 46.6927 18.3073 46.4632 18.1635 46.181 18.0671 45.9918 18.0314 45.7952 18.0153 45.5975 18 45.4102 18 45.1828 18 44.9193ZM33.4233 46H45.9C46.1883 46 46.3744 45.9996 46.5161 45.988 46.6519 45.9769 46.7023 45.9581 46.727 45.9455 46.8211 45.8976 46.8976 45.8211 46.9455 45.727 46.9581 45.7023 46.9769 45.6519 46.988 45.5161 46.9996 45.3744 47 45.1883 47 44.9L47 39.7314 33.4233 39.7315V46ZM32.4233 39.7314V46H20.1C19.8117 46 19.6256 45.9996 19.4839 45.988 19.3481 45.9769 19.2977 45.9581 19.273 45.9455 19.1789 45.8976 19.1024 45.8211 19.0545 45.727 19.0419 45.7023 19.0231 45.6519 19.012 45.5161 19.0004 45.3744 19 45.1883 19 44.9L19 39.7314H32.4233ZM33.4233 38.7315L47 38.7314V32.5314L33.4233 32.5315V38.7315ZM32.4233 32.5314V38.7314H19L19 32.5315 32.4233 32.5314ZM33.4233 31.5315L47 31.5314V25.4313L33.4233 25.4313 33.4233 31.5315ZM32.4233 25.4313L32.4233 31.5314 19 31.5315 19 25.4313 32.4233 25.4313ZM33.4233 24.4313L47 24.4313V19.1C47 18.8117 46.9996 18.6256 46.988 18.4839 46.9769 18.3481 46.9581 18.2977 46.9455 18.273 46.8976 18.1789 46.8211 18.1024 46.727 18.0545 46.7023 18.0419 46.6519 18.0231 46.5161 18.012 46.3744 18.0004 46.1883 18 45.9 18L33.4233 18V24.4313ZM32.4233 18V24.4313L19 24.4313 19 19.1C19 18.8117 19.0004 18.6256 19.012 18.4839 19.0231 18.3481 19.0419 18.2977 19.0545 18.273 19.1024 18.1789 19.1789 18.1024 19.273 18.0545 19.2977 18.0419 19.3481 18.0231 19.4839 18.012 19.6256 18.0004 19.8117 18 20.1 18L32.4233 18Z"/>
	</svg>
	