<?xml version="1.0"?>
	<svg xmlns="http://www.w3.org/2000/svg" 
		width="64" 
		height="64" 
		viewbox="0 0 64 64" 
		code="82562" 
		 transform=""
		><path d="M19.0807 17H44.9193C45.1828 17 45.4102 17 45.5975 17.0153 45.7952 17.0314 45.9918 17.0671 46.181 17.1635 46.4632 17.3073 46.6927 17.5368 46.8365 17.819 46.9329 18.0082 46.9686 18.2048 46.9847 18.4025 47 18.5898 47 18.8172 47 19.0807V44.9193C47 45.1829 47 45.4102 46.9847 45.5975 46.9686 45.7952 46.9329 45.9918 46.8365 46.181 46.6927 46.4632 46.4632 46.6927 46.181 46.8365 45.9918 46.9329 45.7952 46.9686 45.5975 46.9847 45.4102 47 45.1829 47 44.9193 47H19.0807C18.8171 47 18.5898 47 18.4025 46.9847 18.2048 46.9686 18.0082 46.9329 17.819 46.8365 17.5368 46.6927 17.3073 46.4632 17.1635 46.181 17.0671 45.9918 17.0314 45.7952 17.0153 45.5975 17 45.4102 17 45.1829 17 44.9193V19.0807C17 18.8172 17 18.5898 17.0153 18.4025 17.0314 18.2048 17.0671 18.0082 17.1635 17.819 17.3073 17.5368 17.5368 17.3073 17.819 17.1635 18.0082 17.0671 18.2048 17.0314 18.4025 17.0153 18.5898 17 18.8172 17 19.0807 17ZM38.5687 46H32.4686V39.5H38.5687V46ZM31.4686 46V39.5H25.2686V46H31.4686ZM38.5687 38.5H32.4686V32.5H38.5687V38.5ZM38.5687 31.5H32.4686V25.5H38.5687V31.5ZM39.5687 32.5V38.5H46V32.5H39.5687ZM46 31.5H39.5687V25.5H46V31.5ZM31.4686 31.5V25.5H25.2686V31.5H31.4686ZM24.2686 31.5V25.5H18.0001L18 31.5C18 31.5 18 31.5 18 31.5H24.2686ZM18.0001 32.5C18.0002 32.5 18.0001 32.5 18.0001 32.5H24.2686V38.5H18.0001V32.5ZM25.2686 32.5H31.4686V38.5H25.2686V32.5ZM38.5687 24.5L32.4686 24.5V18H38.5687V24.5ZM31.4686 24.5V18H25.2686V24.5L31.4686 24.5ZM44.9 46H39.5687V39.5H46V44.9C46 45.1883 45.9996 45.3744 45.988 45.5161 45.9769 45.6519 45.9581 45.7023 45.9455 45.727 45.8976 45.8211 45.8211 45.8976 45.727 45.9455 45.7023 45.9581 45.6519 45.9769 45.5161 45.988 45.3744 45.9996 45.1883 46 44.9 46ZM18.0001 39.5H24.2686V46H19.1C18.8117 46 18.6256 45.9996 18.4839 45.988 18.3481 45.9769 18.2977 45.9581 18.273 45.9455 18.1789 45.8976 18.1024 45.8211 18.0545 45.727 18.0419 45.7023 18.0231 45.6519 18.012 45.5161 18.0004 45.3744 18 45.1883 18 44.9L18.0001 39.5ZM46 24.5L39.5687 24.5V18H44.9C45.1883 18 45.3744 18.0004 45.5161 18.012 45.6519 18.0231 45.7023 18.0419 45.727 18.0545 45.8211 18.1024 45.8976 18.1789 45.9455 18.273 45.9581 18.2977 45.9769 18.3481 45.988 18.4839 45.9996 18.6256 46 18.8117 46 19.1V24.5ZM24.2686 24.5V18H19.1C18.8117 18 18.6256 18.0004 18.4839 18.012 18.3481 18.0231 18.2977 18.0419 18.273 18.0545 18.1789 18.1024 18.1024 18.1789 18.0545 18.273 18.0419 18.2977 18.0231 18.3481 18.012 18.4839 18.0004 18.6256 18 18.8117 18 19.1V24.5L24.2686 24.5Z"/>
	</svg>
	