<?xml version="1.0"?>
	<svg xmlns="http://www.w3.org/2000/svg" 
		width="32" 
		height="32" 
		viewbox="0 0 32 32" 
		code="82567" 
		 transform=""
		><path d="M9.5 9C9.77614 9 10 9.22386 10 9.5L10 22.5C10 22.7761 9.77614 23 9.5 23 9.22386 23 9 22.7761 9 22.5V9.5C9 9.22386 9.22386 9 9.5 9ZM20.8536 15.6464C21.0488 15.8417 21.0488 16.1583 20.8536 16.3536L18.3536 18.8536C18.1583 19.0488 17.8417 19.0488 17.6464 18.8536 17.4512 18.6583 17.4512 18.3417 17.6464 18.1464L19.2929 16.5 12.7071 16.5 14.3536 18.1464C14.5488 18.3417 14.5488 18.6583 14.3536 18.8536 14.1583 19.0488 13.8417 19.0488 13.6464 18.8536L11.1464 16.3536C10.9512 16.1583 10.9512 15.8417 11.1464 15.6464L13.6464 13.1464C13.8417 12.9512 14.1583 12.9512 14.3536 13.1464 14.5488 13.3417 14.5488 13.6583 14.3536 13.8536L12.7071 15.5 19.2929 15.5 17.6464 13.8536C17.4512 13.6583 17.4512 13.3417 17.6464 13.1464 17.8417 12.9512 18.1583 12.9512 18.3536 13.1464L20.8536 15.6464ZM23 9.5C23 9.22386 22.7761 9 22.5 9 22.2239 9 22 9.22386 22 9.5L22 22.5C22 22.7761 22.2239 23 22.5 23 22.7761 23 23 22.7761 23 22.5L23 9.5Z"/>
	</svg>
	