<?xml version="1.0"?>
	<svg xmlns="http://www.w3.org/2000/svg" 
		width="32" 
		height="32" 
		viewbox="0 0 32 32" 
		code="82568" 
		 transform=""
		><path d="M9 20.4236C9 20.7419 9.25806 21 9.5764 21 9.89474 21 10.1528 20.7419 10.1528 20.4236V16.5273H15.2289V20.4236C15.2289 20.7419 15.4869 21 15.8053 21 16.1236 21 16.3817 20.7419 16.3817 20.4236V11.5764C16.3817 11.2581 16.1236 11 15.8053 11 15.4869 11 15.2289 11.2581 15.2289 11.5764V15.4531H10.1528V11.5764C10.1528 11.2581 9.89474 11 9.5764 11 9.25806 11 9 11.2581 9 11.5764V20.4236ZM22 11.8771C22 11.3927 21.6073 11 21.1229 11 20.9434 11 20.7683 11.0551 20.6211 11.1577L18.6831 12.5095C18.5478 12.6039 18.4672 12.7585 18.4672 12.9234 18.4672 13.3313 18.926 13.5706 19.2605 13.3373L20.7914 12.2695H20.8472V20.4236C20.8472 20.7419 21.1053 21 21.4236 21 21.7419 21 22 20.7419 22 20.4236V11.8771Z"/>
	</svg>
	