<?xml version="1.0"?>
	<svg xmlns="http://www.w3.org/2000/svg" 
		width="32" 
		height="32" 
		viewbox="0 0 32 32" 
		code="82569" 
		 transform=""
		><path d="M8 20.4478C8 20.7528 8.24721 21 8.55215 21 8.85709 21 9.1043 20.7528 9.1043 20.4479V16.5877H13.9668V20.4479C13.9668 20.7528 14.214 21 14.5189 21 14.8239 21 15.0711 20.7528 15.0711 20.4479V11.687C15.0711 11.3821 14.8239 11.1349 14.5189 11.1349 14.214 11.1349 13.9668 11.3821 13.9668 11.687V15.5279H9.1043V11.687C9.1043 11.3821 8.85709 11.1349 8.55215 11.1349 8.24721 11.1349 8 11.3821 8 11.687V20.4478ZM17.247 20.3651C17.247 20.7158 17.5312 21 17.8818 21H22.4701C22.7628 21 23 20.7628 23 20.4701 23 20.1775 22.7628 19.9403 22.4701 19.9403H18.7609V19.8632L20.8092 17.4933C22.3766 15.6773 22.8397 14.8295 22.8397 13.736 22.8397 12.2139 21.6998 11 20.0968 11 18.665 11 17.5404 11.9429 17.3213 13.3856 17.2778 13.6725 17.5178 13.9094 17.808 13.9094 18.0982 13.9094 18.3255 13.6712 18.3868 13.3875 18.5651 12.5616 19.1795 12.0405 20.0611 12.0405 21.0497 12.0405 21.8066 12.6956 21.8066 13.736 21.8066 14.6464 21.3124 15.3208 20.2571 16.5684L17.3968 19.9555C17.3 20.0701 17.247 20.2152 17.247 20.3651Z"/>
	</svg>
	