<?xml version="1.0"?>
	<svg xmlns="http://www.w3.org/2000/svg" 
		width="32" 
		height="32" 
		viewbox="0 0 32 32" 
		code="82570" 
		 transform=""
		><path d="M8 20.3294C8 20.6263 8.24063 20.8669 8.53747 20.8669 8.83431 20.8669 9.07494 20.6263 9.07494 20.3295V16.5133H13.8081V20.3294C13.8081 20.6263 14.0488 20.8669 14.3456 20.8669 14.6424 20.8669 14.8831 20.6263 14.8831 20.3295V11.6706C14.8831 11.3737 14.6424 11.1331 14.3456 11.1331 14.0488 11.1331 13.8081 11.3737 13.8081 11.6705V15.4677H9.07494V11.6706C9.07494 11.3737 8.83431 11.1331 8.53747 11.1331 8.24063 11.1331 8 11.3737 8 11.6705V20.3294ZM20.0006 21C21.7213 21 23 19.8165 23 18.2243 23 16.9886 22.3325 16.0903 21.2142 15.8859V15.8099C22.1114 15.5105 22.6706 14.7025 22.6706 13.6046 22.6706 12.2262 21.678 11 20.0352 11 18.6869 11 17.5394 11.8001 17.2456 13.0326 17.1773 13.3195 17.419 13.5665 17.7139 13.5665 17.9937 13.5665 18.2133 13.3391 18.3117 13.0772 18.5631 12.408 19.2629 12.0266 20.0179 12.0266 20.9975 12.0266 21.6303 12.6778 21.6303 13.6616 21.6303 14.6882 20.8978 15.3536 19.8445 15.3536H19.6565C19.3678 15.3536 19.1337 15.5877 19.1337 15.8764 19.1337 16.1652 19.3678 16.3992 19.6565 16.3992H19.8445C21.1925 16.3992 21.9424 17.1502 21.9424 18.2243 21.9424 19.2557 21.1232 19.9544 19.9832 19.9544 19.153 19.9544 18.4615 19.5756 18.1925 18.9336 18.0802 18.6658 17.8508 18.4335 17.5604 18.4335 17.246 18.4335 16.9887 18.6986 17.0666 19.0032 17.3766 20.2154 18.5031 21 20.0006 21Z"/>
	</svg>
	