<?xml version="1.0"?>
	<svg xmlns="http://www.w3.org/2000/svg" 
		width="32" 
		height="32" 
		viewbox="0 0 32 32" 
		code="82571" 
		 transform=""
		><path d="M9 19.4699C9 19.7627 9.23734 20 9.53012 20 9.82289 20 10.0602 19.7627 10.0602 19.4699V15.9746H14.7287V19.4699C14.7287 19.7627 14.966 20 15.2588 20 15.5516 20 15.7889 19.7627 15.7889 19.4699V11.5301C15.7889 11.2373 15.5516 11 15.2588 11 14.966 11 14.7287 11.2373 14.7287 11.5301V15.0078H10.0602V11.5301C10.0602 11.2373 9.82289 11 9.53012 11 9.23734 11 9 11.2373 9 11.5301V19.4699ZM17.6728 17.4555C17.6728 17.8414 17.9857 18.1543 18.3716 18.1543H21.794V19.4955C21.794 19.7741 22.0199 20 22.2985 20 22.5771 20 22.803 19.7741 22.803 19.4955V18.1543H23.5166C23.7836 18.1543 24 17.9379 24 17.6709 24 17.4039 23.7836 17.1875 23.5166 17.1875H22.803V11.8226C22.803 11.3683 22.4347 11 21.9803 11 21.6945 11 21.4292 11.1483 21.2795 11.3918L17.7763 17.0894C17.7086 17.1995 17.6728 17.3262 17.6728 17.4555ZM21.794 17.1875H18.8185V17.1172L21.7256 12.3887H21.794V17.1875Z"/>
	</svg>
	