<?xml version="1.0"?>
	<svg xmlns="http://www.w3.org/2000/svg" 
		width="32" 
		height="32" 
		viewbox="0 0 32 32" 
		code="82572" 
		 transform=""
		><path d="M8 20.2803C8 20.6033 8.26182 20.8651 8.58479 20.8651 8.90776 20.8651 9.16958 20.6033 9.16958 20.2803V16.4528H14.3195V20.2803C14.3195 20.6033 14.5813 20.8651 14.9043 20.8651 15.2273 20.8651 15.4891 20.6033 15.4891 20.2803V11.5848C15.4891 11.2618 15.2273 11 14.9043 11 14.5813 11 14.3195 11.2618 14.3195 11.5848V15.3931H9.16958V11.5848C9.16958 11.2618 8.90776 11 8.58479 11 8.26182 11 8 11.2618 8 11.5848V20.2803ZM20.8119 21C22.6512 21 24 19.6127 24 17.7245 24 15.8121 22.6984 14.4104 20.9251 14.4104 20.2743 14.4104 19.6424 14.6464 19.2462 14.9692 19.2161 14.9692 19.1927 14.9429 19.1962 14.913L19.5292 12.0597H23.0363C23.3289 12.0597 23.5661 11.8225 23.5661 11.5299 23.5661 11.2372 23.3289 11 23.0363 11H19.435C18.929 11 18.5027 11.378 18.4422 11.8804L18.0577 15.0724C18.0056 15.5053 18.3136 15.8987 18.7462 15.952 18.9462 15.9766 19.1458 15.9193 19.325 15.8271 19.7247 15.6214 20.2595 15.4855 20.7365 15.4894 21.9674 15.499 22.8681 16.4528 22.8681 17.7437 22.8681 19.0106 22.0004 19.9403 20.8119 19.9403 20.0205 19.9403 19.3585 19.525 19.0788 18.9033 18.9567 18.6319 18.7178 18.3988 18.4201 18.3988 18.0893 18.3988 17.8191 18.6791 17.9086 18.9977 18.2419 20.1847 19.3816 21 20.8119 21Z"/>
	</svg>
	