<?xml version="1.0"?>
	<svg xmlns="http://www.w3.org/2000/svg" 
		width="32" 
		height="32" 
		viewbox="0 0 32 32" 
		code="82573" 
		 transform=""
		><path d="M9 20.326C9 20.6246 9.24203 20.8666 9.54059 20.8666 9.83916 20.8666 10.0812 20.6246 10.0812 20.326V16.5132H14.8419V20.326C14.8419 20.6246 15.0839 20.8666 15.3825 20.8666 15.6811 20.8666 15.9231 20.6246 15.9231 20.326V11.6737C15.9231 11.3751 15.6811 11.1331 15.3825 11.1331 15.0839 11.1331 14.8419 11.3751 14.8419 11.6737V15.4676H10.0812V11.6737C10.0812 11.3751 9.83916 11.1331 9.54059 11.1331 9.24203 11.1331 9 11.3751 9 11.6737V20.326ZM21.018 20.9997C22.8229 21.0235 24 19.5406 24 17.7298 24 15.8478 22.7226 14.498 21.1924 14.498 20.2807 14.498 19.4975 14.9788 19.0083 15.7693 19.0001 15.7825 18.9856 15.7907 18.9701 15.7907 18.9454 15.7907 18.9254 15.7703 18.9256 15.7456 18.9405 13.4017 19.7843 12.0456 21.1575 12.0456 21.9432 12.0456 22.4678 12.4955 22.7366 13.1524 22.8328 13.3877 23.0467 13.5665 23.3008 13.5665 23.6329 13.5665 23.8915 13.2694 23.7885 12.9538 23.4047 11.7775 22.4449 11 21.1575 11 19.1477 11 17.914 12.9391 17.914 16.3801 17.914 19.9779 19.5532 20.9807 21.018 20.9997ZM21.018 19.9541C19.8976 19.9541 19.078 18.9133 19.0823 17.7489 19.0867 16.5844 19.9455 15.5436 21.0529 15.5436 22.1472 15.5436 22.9537 16.5227 22.9537 17.7298 22.9537 18.9656 22.1123 19.9541 21.018 19.9541Z"/>
	</svg>
	