<?xml version="1.0"?>
	<svg xmlns="http://www.w3.org/2000/svg" 
		width="24" 
		height="24" 
		viewbox="0 0 24 24" 
		code="82575" 
		 transform=""
		><path d="M7.68445 14.7108L8.23625 12.9526H10.919L11.4708 14.7108H13.1553L10.5923 7H8.5666L6 14.7108H7.68445ZM8.63558 11.68L9.55041 8.76205H9.60849L10.5233 11.68H8.63558ZM16.2737 17C17.8674 17 19 16.247 19 14.7673V8.92771H17.4644V9.8991H17.4063C17.1994 9.42846 16.7456 8.85241 15.8126 8.85241 14.5892 8.85241 13.5546 9.83886 13.5546 11.808 13.5546 13.7319 14.5602 14.628 15.8163 14.628 16.7057 14.628 17.203 14.1649 17.4063 13.6867H17.4717V14.7447C17.4717 15.5392 16.9816 15.8479 16.31 15.8479 15.6275 15.8479 15.2826 15.5392 15.1555 15.189L13.7252 15.3886C13.9104 16.2997 14.7707 17 16.2737 17ZM16.3063 13.4232C15.5476 13.4232 15.1338 12.7982 15.1338 11.8005 15.1338 10.8178 15.5404 10.1288 16.3063 10.1288 17.0578 10.1288 17.4789 10.7876 17.4789 11.8005 17.4789 12.8208 17.0505 13.4232 16.3063 13.4232Z"/>
	</svg>
	