<?xml version="1.0"?>
	<svg xmlns="http://www.w3.org/2000/svg" 
		width="1024" 
		height="1024" 
		viewbox="0 0 1024 1024" 
		code="82576" 
		 transform=""
		><path d="M304.822 736h414.355c10.144 0 16.822-6.432 16.822-16.822v-414.355c0-10.144-6.678-16.822-16.822-16.822h-414.355c-10.39 0-16.822 6.678-16.822 16.822v414.355c0 10.39 6.432 16.822 16.822 16.822zM402 679.723c0 14.878-9.722 24.277-25 24.277s-25-9.398-25-24.277v-335.446c0-14.878 9.722-24.277 25-24.277s25 9.398 25 24.277v142.27h220v-142.27c0-14.878 9.722-24.277 25-24.277s25 9.398 25 24.277v335.446c0 14.878-9.722 24.277-25 24.277s-25-9.398-25-24.277v-150.886h-220v150.886z"/>
	</svg>
	