<?xml version="1.0"?>
	<svg xmlns="http://www.w3.org/2000/svg" 
		width="24" 
		height="24" 
		viewbox="0 0 24 24" 
		code="82578" 
		 transform=""
		><path d="M8.65104 17C9.0489 17 9.30208 16.7553 9.30208 16.3678V12.4385H15.0312V16.3678C15.0312 16.7553 15.2844 17 15.6823 17 16.0801 17 16.3333 16.7553 16.3333 16.3678V7.63222C16.3333 7.24473 16.0801 7 15.6823 7 15.2844 7 15.0312 7.24473 15.0312 7.63222V11.3372H9.30208V7.63222C9.30208 7.24473 9.0489 7 8.65104 7 8.25318 7 8 7.24473 8 7.63222V16.3678C8 16.7553 8.25318 17 8.65104 17Z"/>
	</svg>
	