<?xml version="1.0"?>
	<svg xmlns="http://www.w3.org/2000/svg" 
		width="64" 
		height="64" 
		viewbox="0 0 64 64" 
		code="82577" 
		 transform=""
		><path d="M23.5625 44C24.5174 44 25.125 43.4126 25.125 42.4827V33.0523H38.875V42.4827C38.875 43.4126 39.4826 44 40.4375 44 41.3924 44 42 43.4126 42 42.4827V21.5173C42 20.5874 41.3924 20 40.4375 20 39.4826 20 38.875 20.5874 38.875 21.5173V30.4092H25.125V21.5173C25.125 20.5874 24.5174 20 23.5625 20 22.6076 20 22 20.5874 22 21.5173V42.4827C22 43.4126 22.6076 44 23.5625 44Z"/>
	</svg>
	