<?xml version="1.0"?>
	<svg xmlns="http://www.w3.org/2000/svg" 
		width="30" 
		height="30" 
		viewbox="0 0 30 30" 
		code="80985" 
		 transform=""
		><path d="M26.4154711 3.48783512C22.3864813 0.801841918 17.6113823 1.99561668 14.9253891 5.12927541 12.2393959 1.99561668 7.46429684 0.801841918 3.43530703 3.48783512 1.34620121 4.98005357 0.152426451 7.36760309 0.00320460606 9.90437445-0.146017239 15.7240264 4.92752548 20.3499036 12.8362833 27.5125521L12.9855051 27.661774C14.1792799 28.7063269 15.8207201 28.7063269 17.0144949 27.661774L17.1637167 27.5125521C25.0724745 20.3499036 30.1460172 15.7240264 29.9967954 9.90437445 29.6983517 7.36760309 28.5045769 4.98005357 26.4154711 3.48783512ZM15.0746109 25.1250026L14.9253891 25.2742245 14.7761672 25.1250026C7.46429684 18.5592414 2.68919781 14.2318079 2.9876415 9.7551526 3.13686335 8.71059969 3.43530703 7.81526862 4.18141626 6.91993755 6.86740946 3.63705697 11.3440648 4.83083172 13.1347269 7.51682493 13.5823925 8.11371231 14.1792799 8.412156 14.7761672 8.412156L15.0746109 8.412156C15.8207201 8.412156 16.4176075 7.96449046 16.8652731 7.51682493 18.6559352 4.83083172 23.1325905 3.63705697 25.8185837 6.91993755 26.4154711 7.66604677 26.8631367 8.71059969 27.0123585 9.7551526 27.1615803 14.2318079 22.3864813 18.5592414 15.0746109 25.1250026Z"/>
	</svg>
	