<?xml version="1.0"?>
	<svg xmlns="http://www.w3.org/2000/svg" 
		width="32" 
		height="32" 
		viewbox="0 0 32 32" 
		code="82579" 
		 transform=""
		><path d="M23.0774863 9.14612625C23.2902863 9.35141625 23.2904863 9.69223625 23.0778863 9.89774625L20.9065863 11.9966862C22.2923863 12.9573862 23.3565863 14.2881862 23.9682863 15.8249862 24.0105863 15.9380862 24.0105863 16.0618862 23.9682863 16.1748862 22.6859863 19.3745862 19.5528863 21.5310862 15.9994863 21.6599862 14.5934863 21.6380862 13.2172863 21.2658862 12.0043863 20.5794862L9.64664625 22.8539862C9.44435625 23.0490862 9.12388625 23.0490862 8.92159625 22.8539862 8.70875625 22.6485862 8.70875625 22.3076862 8.92159625 22.1023862L22.3520863 9.14612625C22.5544863 8.95087625 22.8750863 8.95087625 23.0774863 9.14612625ZM20.1390863 12.7376862L18.6082863 14.2144862C19.4906863 15.4413862 19.3364863 17.1016862 18.2418863 18.1575862 17.1948776 19.1675776 15.5747543 19.3476324 14.3228323 18.6163614L14.1544863 18.5109862 12.7996863 19.8179862C13.7831863 20.3331862 14.8809863 20.6120862 15.9999863 20.6309862 18.8269863 20.6309862 21.8138863 18.6087862 22.8966863 15.9999862 22.3200863 14.6803862 21.3629863 13.5481862 20.1390863 12.7376862ZM16.0005862 10.3403863C17.0180862 10.3523863 18.0234862 10.5550863 18.9608862 10.9372863L18.9608862 10.9372863 18.1340862 11.7399863C17.4488862 11.5038863 16.7279862 11.3787863 16.0005862 11.3694863 13.1735862 11.3694863 10.1866862 13.3916863 9.10386625 16.0004863 9.53269625 17.0010863 10.1888862 17.8960863 11.0240862 18.6194863L11.0240862 18.6194863 10.2612862 19.3501863C9.26944625 18.4759863 8.50553625 17.3881863 8.03176625 16.1753863 7.98939625 16.0623863 7.98939625 15.9385863 8.03176625 15.8254863 9.31400625 12.6258863 12.4470862 10.4692863 16.0005862 10.3403863ZM17.8341863 14.9707862L14.9324863 17.7698862C15.5906863 18.1364862 16.4011863 18.1376862 17.0604863 17.7730862 17.7197863 17.4083862 18.1282863 16.7329862 18.1327863 15.9998862 18.1288863 15.6374862 18.0258863 15.2824862 17.8341863 14.9707862ZM13.7274862 13.8229862C14.5323862 13.0463862 15.7043862 12.7408862 16.8052862 13.0204862L16.8052862 13.0204862 15.8398862 13.9569862C14.7832862 14.0309862 13.9429862 14.8415862 13.8663862 15.8607862L13.8663862 15.8607862 12.8955862 16.7921862C12.6056862 15.7301862 12.9224862 14.5994862 13.7274862 13.8229862Z"/>
	</svg>
	