<?xml version="1.0"?>
	<svg xmlns="http://www.w3.org/2000/svg" 
		width="32" 
		height="32" 
		viewbox="0 0 32 32" 
		code="82580" 
		 transform=""
		><path d="M16 10.5398C16.4258 10.5398 16.7695 10.1885 16.7695 9.76989 16.7695 9.34383 16.4258 9 16 9 15.5742 9 15.2305 9.34383 15.2305 9.76989 15.2305 10.1885 15.5742 10.5398 16 10.5398ZM20.9535 12.1393C21.2598 11.8404 21.2598 11.347 20.9535 11.0481 20.6472 10.7416 20.1616 10.7416 19.8628 11.0481 19.564 11.347 19.564 11.8404 19.8628 12.1393 20.1616 12.4383 20.6472 12.4383 20.9535 12.1393ZM12.1381 11.0555C12.4444 11.3545 12.4444 11.8404 12.1381 12.1468 11.8393 12.4458 11.3462 12.4458 11.0474 12.1468 10.7485 11.8404 10.7485 11.3545 11.0474 11.0555 11.3462 10.7491 11.8393 10.7491 12.1381 11.0555ZM15.9998 19.5392C17.9272 19.5392 19.5259 17.9397 19.5259 16.0112 19.5259 14.0828 17.9272 12.4832 15.9998 12.4832 14.0724 12.4832 12.4736 14.0828 12.4736 16.0112 12.4736 17.9397 14.0724 19.5392 15.9998 19.5392ZM10.5464 16.0037C10.5464 16.4298 10.1953 16.7736 9.76948 16.7736 9.35112 16.7736 9 16.4298 9 16.0037 9 15.5777 9.35112 15.2338 9.76948 15.2338 10.1953 15.2338 10.5464 15.5777 10.5464 16.0037ZM22.2304 16.8185C22.6562 16.8185 22.9999 16.4672 22.9999 16.0411 22.9999 15.6225 22.6562 15.2712 22.2304 15.2712 21.8046 15.2712 21.4609 15.6225 21.4609 16.0411 21.4609 16.4672 21.8046 16.8185 22.2304 16.8185ZM12.1372 19.8607C12.4435 20.1596 12.4435 20.653 12.1372 20.9519 11.8384 21.2584 11.3528 21.2584 11.0539 20.9519 10.7476 20.653 10.7476 20.1596 11.0539 19.8607 11.3528 19.5617 11.8384 19.5617 12.1372 19.8607ZM20.9229 20.9818C21.2217 20.6829 21.2217 20.197 20.9229 19.898 20.6166 19.5916 20.131 19.5916 19.8247 19.898 19.5259 20.197 19.5259 20.6829 19.8247 20.9818 20.131 21.2883 20.6166 21.2883 20.9229 20.9818ZM16.7694 22.2301C16.7694 22.6562 16.4258 23 15.9999 23 15.5741 23 15.2305 22.6562 15.2305 22.2301 15.2305 21.8041 15.5741 21.4602 15.9999 21.4602 16.4258 21.4602 16.7694 21.8041 16.7694 22.2301Z"/>
	</svg>
	