<?xml version="1.0"?>
	<svg xmlns="http://www.w3.org/2000/svg" 
		width="24" 
		height="24" 
		viewbox="0 0 24 24" 
		code="82346" 
		 transform=""
		><path d="M8.48635 18H15.4928C16.1847 18 16.5748 17.6054 16.5748 16.9068V11.5741L17.381 12.2727C17.4642 12.342 17.5475 12.4007 17.6567 12.4007 17.8492 12.4007 18 12.278 18 12.0861 18 11.9634 17.9584 11.8781 17.8648 11.7981L16.5748 10.6836V8.47049C16.5748 8.27318 16.4499 8.15053 16.2627 8.15053H15.7737C15.5917 8.15053 15.4616 8.27318 15.4616 8.47049V9.729L12.5696 7.22797C12.2211 6.92401 11.7997 6.92401 11.446 7.22797L6.13524 11.7981C6.04161 11.8781 6 11.9794 6 12.0754 6 12.246 6.13004 12.4007 6.3433 12.4007 6.45254 12.4007 6.54096 12.342 6.61899 12.2727L7.40962 11.5901V16.9068C7.40962 17.6107 7.79974 18 8.48635 18ZM13.4694 13.6379C13.4694 13.4139 13.329 13.2699 13.1157 13.2699H10.8895C10.671 13.2699 10.5306 13.4139 10.5306 13.6379V17.3387H8.62159C8.24187 17.3387 8.05462 17.1414 8.05462 16.7468V11.0408L11.7997 7.81457C11.9298 7.70258 12.0702 7.69192 12.2107 7.81457L15.9298 11.0195V16.7468C15.9298 17.1414 15.7425 17.3387 15.3576 17.3387H13.4694V13.6379Z"/>
	</svg>
	