<?xml version="1.0"?>
	<svg xmlns="http://www.w3.org/2000/svg" 
		width="24" 
		height="24" 
		viewbox="0 0 24 24" 
		code="82581" 
		 transform=""
		><path d="M14.4504 6.5H5.99036L10.3498 10.9 14.4504 6.5ZM8.28153 7.44901H12.159L10.2204 9.38785 8.28153 7.44901ZM5.9502 17.5001L10.3502 13.1001 14.7502 17.5001H5.9502ZM17.5755 15.9904C17.8374 15.9904 18.05 15.7778 18.05 15.5159 18.05 15.254 17.8374 15.0414 17.5755 15.0414L16.4005 15.043C17.4367 14.0074 18.0218 12.6072 18.0218 11.1267 18.0218 9.46327 17.2841 7.90284 15.9985 6.8454 15.7961 6.67885 15.4971 6.70803 15.3306 6.91041 15.258 6.9989 15.2226 7.10567 15.2226 7.21172 15.2226 7.34862 15.2819 7.48456 15.3958 7.57852 16.4616 8.45494 17.073 9.74821 17.073 11.1267 17.073 12.3773 16.5693 13.5587 15.6792 14.4216L15.6775 13.3806C15.6775 13.1187 15.4649 12.9061 15.2029 12.9061 14.941 12.9061 14.7284 13.1187 14.7284 13.3806V15.9904H17.5755Z"/>
	</svg>
	