<?xml version="1.0"?>
	<svg xmlns="http://www.w3.org/2000/svg" 
		width="32" 
		height="32" 
		viewbox="0 0 32 32" 
		code="82583" 
		 transform=""
		><path d="M18.1132 10.1464C18.3085 9.95118 18.6251 9.95118 18.8203 10.1464 19.0156 10.3417 19.0156 10.6583 18.8203 10.8536L17.8203 11.8536C17.6251 12.0488 17.3085 12.0488 17.1132 11.8536 16.918 11.6583 16.918 11.3417 17.1132 11.1464L18.1132 10.1464ZM14.9121 10.1464C14.7169 9.95118 14.4003 9.95118 14.205 10.1464 14.0098 10.3417 14.0098 10.6583 14.205 10.8536L15.205 11.8536C15.4003 12.0488 15.7169 12.0488 15.9121 11.8536 16.1074 11.6583 16.1074 11.3417 15.9121 11.1464L14.9121 10.1464ZM20.487 13C21.8749 13 23 14.1251 23 15.513 23 16.9008 21.8749 18.0259 20.487 18.0259H18.5V17.0259H20.487C21.3226 17.0259 22 16.3486 22 15.513 22 14.6774 21.3226 14 20.487 14H18.5V13H20.487ZM14.5 13.0259L11.5 13.0259C10.1193 13.0259 9 14.1452 9 15.5259 9 16.9067 10.1193 18.0259 11.5 18.0259H14.5V17.0259L11.5 17.0259C10.6716 17.0259 10 16.3544 10 15.5259 10 14.6975 10.6716 14.0259 11.5 14.0259H14.5L14.5 13.0259ZM18.8203 20.8536C18.6251 21.0488 18.3085 21.0488 18.1132 20.8536L17.1132 19.8536C16.918 19.6583 16.918 19.3417 17.1132 19.1464 17.3085 18.9512 17.6251 18.9512 17.8203 19.1464L18.8203 20.1464C19.0156 20.3417 19.0156 20.6583 18.8203 20.8536ZM14.205 20.8536C14.4003 21.0488 14.7169 21.0488 14.9121 20.8536L15.9121 19.8536C16.1074 19.6583 16.1074 19.3417 15.9121 19.1464 15.7169 18.9512 15.4003 18.9512 15.205 19.1464L14.205 20.1464C14.0098 20.3417 14.0098 20.6583 14.205 20.8536Z"/>
	</svg>
	