<?xml version="1.0"?>
	<svg xmlns="http://www.w3.org/2000/svg" 
		width="32" 
		height="32" 
		viewbox="0 0 32 32" 
		code="82582" 
		 transform=""
		><path d="M14 9C11.2386 9 9 11.2386 9 14 9 16.7614 11.2386 19 14 19 16.7614 19 19 16.7614 19 14 19 13.8681 18.9949 13.7374 18.9849 13.6081 19.341 13.6876 19.6812 13.8093 19.9999 13.9677L20 14C20 17.3137 17.3137 20 14 20 10.6863 20 8 17.3137 8 14 8 10.6863 10.6863 8 14 8 16.4922 8 18.6295 9.51946 19.5361 11.6825 19.1485 11.5886 18.7473 11.5295 18.336 11.5085 17.4727 10.0093 15.8542 9 14 9ZM18 13C15.2386 13 13 15.2386 13 18 13 18.1319 13.0051 18.2626 13.0151 18.3919 12.659 18.3124 12.3188 18.1907 12.0001 18.0323L12 18C12 14.6863 14.6863 12 18 12 21.3137 12 24 14.6863 24 18 24 21.3137 21.3137 24 18 24 15.5078 24 13.3705 22.4805 12.4639 20.3174 12.8515 20.4114 13.2527 20.4705 13.664 20.4915 14.5273 21.9907 16.1458 23 18 23 20.7614 23 23 20.7614 23 18 23 15.2386 20.7614 13 18 13Z"/>
	</svg>
	