<?xml version="1.0"?>
	<svg xmlns="http://www.w3.org/2000/svg" 
		width="32" 
		height="32" 
		viewbox="0 0 32 32" 
		code="82584" 
		 transform=""
		><path d="M23 16C23 14.3431 21.6569 13 20 13L18.5 13V14L20 14C21.1046 14 22 14.8954 22 16 22 17.1046 21.1046 18 20 18H18.5V19H20C21.6569 19 23 17.6569 23 16ZM14.5 13V14L12 14C10.8954 14 10 14.8954 10 16 10 17.1046 10.8954 18 12 18H14.5V19H12C10.3431 19 9 17.6569 9 16 9 14.3431 10.3431 13 12 13L14.5 13ZM19 16.5C19.2761 16.5 19.5 16.2761 19.5 16 19.5 15.7239 19.2761 15.5 19 15.5L13 15.5C12.7239 15.5 12.5 15.7239 12.5 16 12.5 16.2761 12.7239 16.5 13 16.5L19 16.5Z"/>
	</svg>
	