<?xml version="1.0"?>
	<svg xmlns="http://www.w3.org/2000/svg" 
		width="64" 
		height="64" 
		viewbox="0 0 64 64" 
		code="82586" 
		 transform=""
		><path d="M32 47C40.2104 47 47 40.2104 47 32 47 23.7747 40.2104 17 31.985 17 23.7747 17 17 23.7747 17 32 17 40.2104 23.7896 47 32 47ZM32 45.0558C24.7617 45.0558 18.9442 39.2233 18.9442 32 18.9442 24.7617 24.7617 18.9292 31.985 18.9292 39.2233 18.9292 45.0558 24.7617 45.0708 32 45.0708 39.2233 39.2383 45.0558 32 45.0558ZM28.4108 25.3749C25.8983 25.3749 24.0738 27.2742 24.0738 29.8614 24.0738 33.9442 28.4855 37.6231 31.3569 39.4327 31.5813 39.5673 31.8504 39.7318 32.015 39.7318 32.1795 39.7318 32.4487 39.5823 32.6431 39.4327 35.4546 37.5184 39.9262 33.9442 39.9262 29.8614 39.9262 27.2742 38.1017 25.3749 35.5892 25.3749 34.0189 25.3749 32.7178 26.332 32 27.6331 31.2822 26.332 30.011 25.3749 28.4108 25.3749Z"/>
	</svg>
	