<?xml version="1.0"?>
	<svg xmlns="http://www.w3.org/2000/svg" 
		width="64" 
		height="64" 
		viewbox="0 0 64 64" 
		code="82585" 
		 transform=""
		><path d="M32 47C40.2104 47 47 40.2104 47 32 47 23.7747 40.2104 17 31.985 17 23.7747 17 17 23.7747 17 32 17 40.2104 23.7896 47 32 47ZM28.321 25.2104C29.9511 25.2104 31.2522 26.1825 31.985 27.5135 32.7328 26.1825 34.0339 25.2104 35.6491 25.2104 38.2213 25.2104 40.0758 27.1545 40.0758 29.8016 40.0758 33.9591 35.5294 37.6082 32.658 39.5523 32.4487 39.7019 32.1795 39.8664 32.015 39.8664 31.8504 39.8664 31.5513 39.7019 31.327 39.5523 28.3809 37.6979 23.8943 33.9591 23.8943 29.8016 23.8943 27.1545 25.7637 25.2104 28.321 25.2104Z"/>
	</svg>
	