<?xml version="1.0"?>
	<svg xmlns="http://www.w3.org/2000/svg" 
		width="24" 
		height="24" 
		viewbox="0 0 24 24" 
		code="82592" 
		 transform=""
		><path d="M7.51153 16.6H16.4885C17.4927 16.6 18 16.0699 18 15.0521V8.55318C18 7.53009 17.4927 7 16.4885 7H7.51153C6.51238 7 6 7.52479 6 8.55318V15.0521C6 16.0752 6.51238 16.6 7.51153 16.6ZM6.63535 8.58498C6.63535 7.97537 6.94791 7.65732 7.52178 7.65732H16.4782C17.0418 7.65732 17.3646 7.97537 17.3646 8.58498V14.6705L14.4953 11.914C14.2494 11.7019 13.9983 11.5747 13.7011 11.5747 13.4039 11.5747 13.1631 11.6807 12.9172 11.9087L10.5858 14.0609 9.62255 13.1491C9.40734 12.9424 9.1819 12.8363 8.9257 12.8363 8.68489 12.8363 8.47993 12.9424 8.26473 13.1385L6.63535 14.6917V8.58498ZM9.76601 11.8663C10.427 11.8663 10.9701 11.3044 10.9701 10.6152 10.9701 9.93142 10.427 9.36422 9.76601 9.36422 9.09991 9.36422 8.55679 9.93142 8.55679 10.6152 8.55679 11.3044 9.09991 11.8663 9.76601 11.8663Z"/>
	</svg>
	