<?xml version="1.0"?>
	<svg xmlns="http://www.w3.org/2000/svg" 
		width="64" 
		height="64" 
		viewbox="0 0 64 64" 
		code="82591" 
		 transform=""
		><path d="M20.4048 43.9856H43.5952C46.1896 43.9856 47.5 42.6619 47.5 40.1205V23.8925C47.5 21.3378 46.1896 20.0142 43.5952 20.0142H20.4048C17.8237 20.0142 16.5 21.3246 16.5 23.8925V40.1205C16.5 42.6751 17.8237 43.9856 20.4048 43.9856ZM18.1413 23.9719C18.1413 22.4497 18.9488 21.6555 20.4313 21.6555H43.5687C45.0248 21.6555 45.8587 22.4497 45.8587 23.9719V39.1674L38.4462 32.2844C37.8108 31.755 37.1623 31.4373 36.3945 31.4373 35.6268 31.4373 35.0047 31.702 34.3693 32.2712L28.3467 37.6452 25.8582 35.3686C25.3023 34.8523 24.7199 34.5876 24.0581 34.5876 23.436 34.5876 22.9065 34.8523 22.3506 35.3421L18.1413 39.2204V23.9719ZM26.2289 32.1653C27.9364 32.1653 29.3395 30.7622 29.3395 29.0415 29.3395 27.334 27.9364 25.9177 26.2289 25.9177 24.5081 25.9177 23.105 27.334 23.105 29.0415 23.105 30.7622 24.5081 32.1653 26.2289 32.1653Z"/>
	</svg>
	