<?xml version="1.0"?>
	<svg xmlns="http://www.w3.org/2000/svg" 
		width="32" 
		height="32" 
		viewbox="0 0 32 32" 
		code="82590" 
		 transform=""
		><path d="M22.084 12.7529C22.084 13.0264 21.9336 13.1836 21.6602 13.1836 21.3867 13.1836 21.2363 13.0264 21.2363 12.7529V11.0439C21.2363 10.251 20.8057 9.84766 20.0469 9.84766H18.3105C18.0371 9.84766 17.8799 9.69043 17.8799 9.42383 17.8799 9.15039 18.0371 9 18.3105 9H20.0674C21.4004 9 22.084 9.68359 22.084 10.9961V12.7529ZM9.84766 12.7529C9.84766 13.0264 9.69727 13.1836 9.42383 13.1836 9.15039 13.1836 9 13.0264 9 12.7529V10.9961C9 9.67676 9.68359 9 11.0166 9H12.7666C13.0469 9 13.1973 9.15039 13.1973 9.42383 13.1973 9.69043 13.0469 9.84766 12.7666 9.84766H11.0303C10.2646 9.84766 9.84766 10.251 9.84766 11.0439V12.7529ZM12.7666 22.084H11.0166C9.68359 22.084 9 21.4072 9 20.0811V18.3311C9 18.0576 9.14355 17.9004 9.42383 17.9004 9.69727 17.9004 9.84766 18.0576 9.84766 18.3311V20.04C9.84766 20.8262 10.2646 21.2363 11.0303 21.2363H12.7666C13.0469 21.2363 13.1973 21.3867 13.1973 21.6602 13.1973 21.9268 13.0469 22.084 12.7666 22.084ZM20.0674 22.084H18.3105C18.0371 22.084 17.8799 21.9268 17.8799 21.6602 17.8799 21.3867 18.0371 21.2363 18.3105 21.2363H20.0469C20.8057 21.2363 21.2363 20.8262 21.2363 20.04V18.3311C21.2363 18.0576 21.3799 17.9004 21.6602 17.9004 21.9268 17.9004 22.084 18.0576 22.084 18.3311V20.0811C22.084 21.4004 21.4004 22.084 20.0674 22.084ZM15.5 17C16.3284 17 17 16.3284 17 15.5 17 14.6716 16.3284 14 15.5 14 14.6716 14 14 14.6716 14 15.5 14 16.3284 14.6716 17 15.5 17Z"/>
	</svg>
	