<?xml version="1.0"?>
	<svg xmlns="http://www.w3.org/2000/svg" 
		width="64" 
		height="64" 
		viewbox="0 0 64 64" 
		code="82589" 
		 transform=""
		><path d="M20.4048 43.9856H43.5952C46.1896 43.9856 47.5 42.6619 47.5 40.1205V23.8925C47.5 21.3378 46.1896 20.0142 43.5952 20.0142H20.4048C17.8237 20.0142 16.5 21.3246 16.5 23.8925V40.1205C16.5 42.6751 17.8237 43.9856 20.4048 43.9856ZM26.0436 32.258C24.2699 32.258 22.8271 30.8019 22.8271 29.0283 22.8271 27.2678 24.2699 25.8118 26.0436 25.8118 27.804 25.8118 29.2468 27.2678 29.2468 29.0283 29.2468 30.8019 27.804 32.258 26.0436 32.258ZM20.3915 42.3442C18.9885 42.3442 18.1413 41.5103 18.1413 40.094V39.3792L22.5359 35.5803C23.1447 35.0509 23.7801 34.7729 24.3625 34.7729 25.0111 34.7729 25.6862 35.0509 26.2818 35.6068L28.7703 37.857 35.1106 32.2977C35.7989 31.6888 36.5534 31.3976 37.2814 31.3976 38.0359 31.3976 38.8168 31.702 39.4787 32.3109L45.8587 38.135V40.1072C45.8587 41.5103 45.0115 42.3442 43.6217 42.3442H20.3915Z"/>
	</svg>
	