<?xml version="1.0"?>
	<svg xmlns="http://www.w3.org/2000/svg" 
		width="32" 
		height="32" 
		viewbox="0 0 32 32" 
		code="82588" 
		 transform=""
		><path d="M16 10.5597C16.4385 10.5597 16.7835 10.2147 16.7835 9.78347 16.7835 9.34501 16.4313 9 16 9 15.5687 9 15.2237 9.3522 15.2237 9.78347 15.2237 10.2147 15.5759 10.5597 16 10.5597ZM21.1105 12.6873C21.549 12.6873 21.894 12.3351 21.894 11.9111 21.894 11.4726 21.5418 11.1276 21.1105 11.1276 20.6792 11.1276 20.3342 11.4798 20.3342 11.9111 20.3342 12.3423 20.6792 12.6873 21.1105 12.6873ZM11.6658 11.9182C11.6658 12.3495 11.3208 12.7017 10.8895 12.7017 10.4582 12.7017 10.106 12.3567 10.106 11.9182 10.106 11.487 10.451 11.142 10.8895 11.142 11.3136 11.142 11.6658 11.487 11.6658 11.9182ZM16 21.8446C18.6739 21.8446 20.8518 19.681 20.8518 17 20.8518 14.319 18.6739 12.1554 16 12.1554 13.3333 12.1554 11.1554 14.319 11.1554 17 11.1554 19.681 13.3333 21.8446 16 21.8446ZM13.513 20.0045C14.1887 20.558 15.0584 20.8958 16 20.8958 18.1563 20.8958 19.9102 19.1491 19.9102 17 19.9102 14.8509 18.1563 13.097 16 13.097 13.8509 13.097 12.097 14.8509 12.097 17 12.097 17.8913 12.3989 18.7107 12.9021 19.372L15.7269 16.5544C15.8922 16.3819 16.1797 16.389 16.3378 16.5544 16.5103 16.7341 16.5103 17 16.3378 17.1725L13.513 20.0045ZM23.2165 17.7763C23.655 17.7763 24 17.4241 24 16.9928 24 16.5615 23.6478 16.2165 23.2165 16.2165 22.7853 16.2165 22.4403 16.5687 22.4403 16.9928 22.4403 17.4313 22.7925 17.7763 23.2165 17.7763ZM9.56694 16.9928C9.56694 17.4241 9.22192 17.7763 8.78347 17.7763 8.35939 17.7763 8 17.4313 8 16.9928 8 16.5687 8.3522 16.2165 8.78347 16.2165 9.20755 16.2165 9.56694 16.5615 9.56694 16.9928ZM10.8895 22.8652C11.3208 22.8652 11.6658 22.513 11.6658 22.0818 11.6658 21.6505 11.3136 21.3055 10.8895 21.3055 10.451 21.3055 10.106 21.6577 10.106 22.0818 10.106 22.5202 10.4582 22.8652 10.8895 22.8652ZM21.8868 22.0889C21.8868 22.5202 21.5418 22.8724 21.1033 22.8724 20.6792 22.8724 20.327 22.5274 20.327 22.0889 20.327 21.6577 20.6721 21.3127 21.1033 21.3127 21.5346 21.3127 21.8868 21.6577 21.8868 22.0889Z"/>
	</svg>
	