<?xml version="1.0"?>
	<svg xmlns="http://www.w3.org/2000/svg" 
		width="32" 
		height="32" 
		viewbox="0 0 32 32" 
		code="82587" 
		 transform=""
		><path d="M24 16C24 11.5817 20.4183 8 16 8 11.5817 8 8 11.5817 8 16 8 20.4183 11.5817 24 16 24 20.4183 24 24 20.4183 24 16ZM9 16C9 12.134 12.134 9 16 9 19.866 9 23 12.134 23 16 23 17.1756 22.7102 18.2834 22.1982 19.2561L21.1802 18.6744C20.4679 18.2674 19.5792 18.3366 18.9386 18.8492L18 19.6 14.6116 16.494C13.8223 15.7704 12.6031 15.7969 11.8459 16.5541L9.5878 18.8122C9.2098 17.9515 9 17.0003 9 16ZM18.8 15.2C19.9046 15.2 20.8 14.3046 20.8 13.2 20.8 12.0954 19.9046 11.2 18.8 11.2 17.6954 11.2 16.8 12.0954 16.8 13.2 16.8 14.3046 17.6954 15.2 18.8 15.2Z"/>
	</svg>
	