<?xml version="1.0"?>
	<svg xmlns="http://www.w3.org/2000/svg" 
		width="30" 
		height="30" 
		viewbox="0 0 30 30" 
		code="80869" 
		 transform=""
		><path d="M15 0.039893617C23.2579787 0.039893617 29.9601064 6.74202128 29.9601064 15 29.9601064 23.2739362 23.2579787 29.9601064 15 29.9601064 6.74202128 29.9601064 0.039893617 23.2739362 0.039893617 15 0.039893617 6.74202128 6.74202128 0.039893617 15 0.039893617ZM15 3.03191489C8.40159574 3.03191489 3.03191489 8.40159574 3.03191489 15 3.03191489 21.5984043 8.40159574 26.9680851 15 26.9680851 21.5984043 26.9680851 26.9680851 21.5984043 26.9680851 15 26.9680851 8.40159574 21.5984043 3.03191489 15 3.03191489ZM15 23.9760638L15 6.02393617C19.9547872 6.02393617 23.9760638 10.0452128 23.9760638 15 23.9760638 19.8663089 20.097122 23.8321491 15.2645244 23.9722345L15 23.9760638 15 6.02393617 15 23.9760638Z"/>
	</svg>
	