<?xml version="1.0"?>
	<svg xmlns="http://www.w3.org/2000/svg" 
		width="32" 
		height="32" 
		viewbox="0 0 32 32" 
		code="82593" 
		 transform=""
		><path d="M11.7502 12.3987L9.54659 13.8567C9.05281 14.1774 8.49271 13.9952 8.50007 13.412V10.2848C8.49271 9.67245 9.0307 9.48292 9.54659 9.82553L11.7502 11.3126C12.1334 11.575 12.1481 12.1363 11.7502 12.3987ZM24.0434 11.8167C24.3013 11.8167 24.5003 11.6198 24.5003 11.372 24.5003 11.1169 24.3013 10.92 24.0434 10.92H15.1259C14.8679 10.92 14.6689 11.1169 14.6689 11.372 14.6689 11.6198 14.8679 11.8167 15.1259 11.8167H24.0434ZM24.0434 15.4324C24.3013 15.4324 24.5003 15.2356 24.5003 14.9804 24.5003 14.7253 24.3013 14.5285 24.0434 14.5285H15.1259C14.8679 14.5285 14.6689 14.7253 14.6689 14.9804 14.6689 15.2356 14.8679 15.4324 15.1259 15.4324H24.0434ZM24.0434 19.0408C24.3013 19.0408 24.5003 18.844 24.5003 18.5961 24.5003 18.341 24.3013 18.1442 24.0434 18.1442H15.1259C14.8679 18.1442 14.6689 18.341 14.6689 18.5961 14.6689 18.844 14.8679 19.0408 15.1259 19.0408H24.0434ZM20.948 22.2041C20.948 22.4592 20.7417 22.656 20.4911 22.656H15.1259C14.8679 22.656 14.6689 22.4592 14.6689 22.2041 14.6689 21.949 14.8679 21.7521 15.1259 21.7521H20.4911C20.7417 21.7521 20.948 21.949 20.948 22.2041Z"/>
	</svg>
	