<?xml version="1.0"?>
	<svg xmlns="http://www.w3.org/2000/svg" 
		width="32" 
		height="32" 
		viewbox="0 0 32 32" 
		code="82595" 
		 transform=""
		><path d="M8.95732 11.073C8.69938 11.073 8.50039 10.8718 8.50039 10.6184 8.50039 10.3575 8.69938 10.1562 8.95732 10.1562H17.8748C18.1328 10.1562 18.3318 10.3575 18.3318 10.6184 18.3318 10.8718 18.1328 11.073 17.8748 11.073H8.95732ZM8.95693 14.7697C8.69899 14.7697 8.5 14.5684 8.5 14.3076 8.5 14.0467 8.69899 13.8455 8.95693 13.8455H17.8744C18.1324 13.8455 18.3314 14.0467 18.3314 14.3076 18.3314 14.5684 18.1324 14.7697 17.8744 14.7697H8.95693ZM21.2501 16.73L23.4537 18.2207C23.9475 18.5486 24.5076 18.3623 24.5002 17.766V14.5685C24.5076 13.9424 23.9696 13.7486 23.4537 14.0989L21.2501 15.6194C20.8669 15.8878 20.8522 16.4617 21.2501 16.73ZM8.95693 18.4592C8.69899 18.4592 8.5 18.258 8.5 18.0046 8.5 17.7437 8.69899 17.5424 8.95693 17.5424H17.8744C18.1324 17.5424 18.3314 17.7437 18.3314 18.0046 18.3314 18.258 18.1324 18.4592 17.8744 18.4592H8.95693ZM12.0523 21.6941C12.0523 21.955 12.2586 22.1562 12.5092 22.1562H17.8744C18.1324 22.1562 18.3314 21.955 18.3314 21.6941 18.3314 21.4332 18.1324 21.232 17.8744 21.232H12.5092C12.2586 21.232 12.0523 21.4332 12.0523 21.6941Z"/>
	</svg>
	