<?xml version="1.0"?>
	<svg xmlns="http://www.w3.org/2000/svg" 
		width="32" 
		height="32" 
		viewbox="0 0 32 32" 
		code="82594" 
		 transform=""
		><path d="M23.543 10.9168C23.8009 10.9168 23.9999 10.7155 23.9999 10.4621 23.9999 10.2012 23.8009 10 23.543 10H14.6255C14.3675 10 14.1686 10.2012 14.1686 10.4621 14.1686 10.7155 14.3675 10.9168 14.6255 10.9168H23.543ZM23.5434 14.6134C23.8013 14.6134 24.0003 14.4122 24.0003 14.1513 24.0003 13.8904 23.8013 13.6892 23.5434 13.6892H14.6259C14.3679 13.6892 14.1689 13.8904 14.1689 14.1513 14.1689 14.4122 14.3679 14.6134 14.6259 14.6134H23.5434ZM11.2502 16.5737L9.04659 18.0644C8.55281 18.3924 7.99271 18.206 8.00007 17.6098V14.4123C7.99271 13.7862 8.5307 13.5924 9.04659 13.9427L11.2502 15.4632C11.6334 15.7315 11.6481 16.3054 11.2502 16.5737ZM23.5434 18.303C23.8013 18.303 24.0003 18.1017 24.0003 17.8483 24.0003 17.5874 23.8013 17.3862 23.5434 17.3862H14.6259C14.3679 17.3862 14.1689 17.5874 14.1689 17.8483 14.1689 18.1017 14.3679 18.303 14.6259 18.303H23.5434ZM20.448 21.5378C20.448 21.7987 20.2417 22 19.9911 22H14.6259C14.3679 22 14.1689 21.7987 14.1689 21.5378 14.1689 21.277 14.3679 21.0757 14.6259 21.0757H19.9911C20.2417 21.0757 20.448 21.277 20.448 21.5378Z"/>
	</svg>
	