<?xml version="1.0"?>
	<svg xmlns="http://www.w3.org/2000/svg" 
		width="32" 
		height="32" 
		viewbox="0 0 32 32" 
		code="82596" 
		 transform=""
		><path d="M8 16C8 11.5817 11.5817 8 16 8 20.4183 8 24 11.5817 24 16 24 20.4183 20.4183 24 16 24 11.5817 24 8 20.4183 8 16ZM8.88879 15.9999C8.88879 19.9273 12.0725 23.111 15.9999 23.111 19.9273 23.111 23.111 19.9273 23.111 15.9999 23.111 12.0725 19.9273 8.88879 15.9999 8.88879 12.0725 8.88879 8.88879 12.0725 8.88879 15.9999ZM15.9995 15.111H15.9195L14.9595 13.1999C14.9171 13.0846 14.8124 13.0038 14.6902 12.9919 14.5679 12.98 14.4496 13.0391 14.3858 13.1441 14.3219 13.249 14.3238 13.3813 14.3906 13.4844L15.3417 15.3866C15.0603 15.6984 15.0356 16.1646 15.2823 16.5044 15.5291 16.8443 15.9801 16.965 16.3636 16.794 16.7472 16.6229 16.9587 16.2067 16.8708 15.7961 16.7829 15.3854 16.4195 15.0923 15.9995 15.0933V15.111ZM9.96493 16.0002C9.96493 12.6668 12.6671 9.96461 16.0005 9.96461 19.3318 9.96951 22.0312 12.6689 22.036 16.0002 22.036 16.1769 21.8928 16.3202 21.716 16.3202 21.5393 16.3202 21.396 16.1769 21.396 16.0002 21.4765 14.0187 20.4652 12.1523 18.7613 11.1376 17.0574 10.1229 14.9347 10.1229 13.2308 11.1376 11.5269 12.1523 10.5156 14.0187 10.596 16.0002 10.6172 16.1255 10.5621 16.2515 10.4556 16.3211 10.3492 16.3907 10.2117 16.3907 10.1053 16.3211 9.99893 16.2515 9.94382 16.1255 9.96493 16.0002Z"/>
	</svg>
	