<?xml version="1.0"?>
	<svg xmlns="http://www.w3.org/2000/svg" 
		width="1024" 
		height="1024" 
		viewbox="0 0 1024 1024" 
		code="82599" 
		 transform=""
		><path d="M519.002 796.335c163.477 0 298.667-135.189 298.667-298.667 0-163.777-135.189-298.668-298.965-298.668-163.478 0-298.37 134.892-298.37 298.668 0 163.477 135.189 298.667 298.668 298.667zM519.002 757.623c-144.124 0-259.958-116.134-259.958-259.955 0-144.124 115.834-260.256 259.659-260.256 144.119 0 260.254 116.132 260.553 260.256 0 143.821-116.134 259.955-260.254 259.955zM517.214 385.406c18.462 0 32.755-14.293 32.755-32.457s-14.293-32.755-32.755-32.755c-18.163 0-32.755 14.591-32.755 32.755s14.592 32.457 32.755 32.457zM465.698 660.25h122.086c9.532 0 16.973-7.147 16.973-16.375 0-9.233-7.441-16.674-16.973-16.674h-42.88v-166.754c0-12.211-6.251-20.548-17.865-20.548h-57.472c-9.527 0-16.973 7.445-16.973 16.38 0 9.527 7.445 16.674 16.973 16.674h39.01v154.249h-42.88c-9.527 0-16.973 7.441-16.973 16.674 0 9.229 7.445 16.375 16.973 16.375z"/>
	</svg>
	