<?xml version="1.0"?>
	<svg xmlns="http://www.w3.org/2000/svg" 
		width="24" 
		height="24" 
		viewbox="0 0 24 24" 
		code="82597" 
		 transform=""
		><path d="M12 19C15.8294 19 19 15.8225 19 12 19 8.17059 15.8225 5 11.9931 5 8.17059 5 5 8.17059 5 12 5 15.8225 8.17745 19 12 19ZM11.9314 9.4951C11.4167 9.4951 11.0049 9.08333 11.0049 8.56176 11.0049 8.0402 11.4167 7.62843 11.9314 7.62843 12.4461 7.62843 12.851 8.0402 12.851 8.56176 12.851 9.08333 12.4461 9.4951 11.9314 9.4951ZM10.7578 15.9049C10.4627 15.9049 10.2363 15.6922 10.2363 15.3971 10.2363 15.1225 10.4627 14.8961 10.7578 14.8961H11.6294V11.6706H10.8745C10.5863 11.6706 10.3598 11.4578 10.3598 11.1627 10.3598 10.8882 10.5863 10.6618 10.8745 10.6618H12.2059C12.5696 10.6618 12.7618 10.9225 12.7618 11.3069V14.8961H13.6333C13.9284 14.8961 14.1549 15.1225 14.1549 15.3971 14.1549 15.6922 13.9284 15.9049 13.6333 15.9049H10.7578Z"/>
	</svg>
	