<?xml version="1.0"?>
	<svg xmlns="http://www.w3.org/2000/svg" 
		width="30" 
		height="30" 
		viewbox="0 0 30 30" 
		code="80990" 
		 transform=""
		><path d="M17.5037855 12.5765869C17.4906813 14.2080662 17.5037855 15.8417295 17.5037855 17.4732088L17.5037855 22.332702C17.5037855 22.4440881 17.5037855 22.5511061 17.5190738 22.6930689L17.8488642 22.7651423C18.7591912 22.9348187 19.3921693 23.7676034 19.3119986 24.6901315 19.2318278 25.6126596 18.4646802 26.3237688 17.5387302 26.3338667 16.3244029 26.3542511 15.1100756 26.3542511 13.8957484 26.3338667 12.9366336 26.3323521 12.1489691 25.575501 12.1092021 24.6172098 12.0305766 23.7719856 12.6552126 22.9769943 13.5288293 22.7651423 13.6380314 22.7389337 13.7472335 22.7192774 13.8870122 22.6930689L13.8870122 14.2036981 13.8957484 14.2036981C13.7865463 14.1753055 13.6904484 14.146913 13.5921665 14.1272566 12.6737826 13.9857501 12.0235487 13.1547895 12.1070181 12.2293242 12.178955 11.2743284 12.9886663 10.5444342 13.9459813 10.5716364L14.7251383 10.5839217C14.8548157 10.5859692 14.9843567 10.586993 15.113693 10.5854573L15.5010191 10.5716364C16.5144146 10.4908269 17.5168898 11.1919043 17.5037855 12.5765869ZM15.1319161 4.5C16.4479279 4.53548472 17.4965289 5.6121646 17.4972334 6.92865457 17.4899961 8.25548887 16.4085174 9.32523361 15.0816831 9.31806898 13.7548488 9.31075905 12.685104 8.22928037 12.6922686 6.90244607 12.7218474 5.5735899 13.8027637 4.50912443 15.1319161 4.5Z"/>
	</svg>
	