<?xml version="1.0"?>
	<svg xmlns="http://www.w3.org/2000/svg" 
		width="32" 
		height="32" 
		viewbox="0 0 32 32" 
		code="82598" 
		 transform=""
		><path d="M8.99707 16C8.99707 12.134 12.1311 9 15.9971 9 19.8631 9 22.9971 12.134 22.9971 16 22.9971 19.866 19.8631 23 15.9971 23 12.1311 23 8.99707 19.866 8.99707 16ZM15.9971 24C11.5788 24 7.99707 20.4183 7.99707 16 7.99707 11.5817 11.5788 8 15.9971 8 20.4153 8 23.9971 11.5817 23.9971 16 23.9971 20.4183 20.4153 24 15.9971 24ZM15.4971 19.5V15.5H16.4971V19.5H15.4971ZM16.7471 13.0001C16.7471 13.4143 16.4113 13.7501 15.9971 13.7501 15.5829 13.7501 15.2471 13.4143 15.2471 13.0001V12.9315C15.2471 12.5173 15.5829 12.1815 15.9971 12.1815 16.4113 12.1815 16.7471 12.5173 16.7471 12.9315V13.0001Z"/>
	</svg>
	