<?xml version="1.0"?>
	<svg xmlns="http://www.w3.org/2000/svg" 
		width="32" 
		height="32" 
		viewbox="0 0 32 32" 
		code="82600" 
		 transform=""
		><path d="M6.66699 22.4167V9.58333C6.66699 9.26117 6.92816 9 7.25033 9 7.57249 9 7.83366 9.26117 7.83366 9.58333L7.83366 22.4167C7.83366 22.7388 7.57249 23 7.25032 23 6.92816 23 6.66699 22.7388 6.66699 22.4167ZM24.167 22.4167L24.167 9.58333C24.167 9.26117 24.4282 9 24.7503 9 25.0725 9 25.3337 9.26117 25.3337 9.58333L25.3337 22.4167C25.3337 22.7388 25.0725 23 24.7503 23 24.4282 23 24.167 22.7388 24.167 22.4167ZM12.0966 11.3333C11.7891 11.3333 11.5238 11.3333 11.3053 11.3512 11.0747 11.37 10.8453 11.4116 10.6246 11.5241 10.2953 11.6919 10.0276 11.9596 9.85985 12.2888 9.74738 12.5096 9.70578 12.7389 9.68694 12.9696 9.66909 13.1881 9.6691 13.4533 9.66911 13.7608V18.2392C9.6691 18.5467 9.66909 18.8119 9.68694 19.0304 9.70578 19.2611 9.74738 19.4904 9.85985 19.7112 10.0276 20.0404 10.2953 20.3081 10.6246 20.4759 10.8453 20.5884 11.0747 20.63 11.3053 20.6488 11.5238 20.6667 11.7891 20.6667 12.0966 20.6667H19.9033C20.2108 20.6667 20.4761 20.6667 20.6946 20.6488 20.9252 20.63 21.1545 20.5884 21.3753 20.4759 21.7046 20.3081 21.9723 20.0404 22.14 19.7112 22.2525 19.4904 22.2941 19.2611 22.313 19.0304 22.3308 18.8119 22.3308 18.5467 22.3308 18.2392V13.7608C22.3308 13.4533 22.3308 13.1881 22.313 12.9696 22.2941 12.7389 22.2525 12.5096 22.14 12.2888 21.9723 11.9596 21.7046 11.6919 21.3753 11.5241 21.1545 11.4116 20.9252 11.37 20.6946 11.3512 20.4761 11.3333 20.2108 11.3333 19.9033 11.3333H12.0966ZM11.1543 12.5636C11.1831 12.5489 11.2419 12.5269 11.4003 12.514 11.5656 12.5005 11.7828 12.5 12.1191 12.5H19.8808C20.2171 12.5 20.4343 12.5005 20.5996 12.514 20.758 12.5269 20.8168 12.5489 20.8456 12.5636 20.9554 12.6195 21.0446 12.7087 21.1005 12.8185 21.1152 12.8473 21.1372 12.9061 21.1502 13.0646 21.1637 13.2299 21.1641 13.447 21.1641 13.7833V18.2167C21.1641 18.553 21.1637 18.7701 21.1502 18.9354 21.1372 19.0939 21.1152 19.1527 21.1005 19.1815 21.0446 19.2913 20.9554 19.3805 20.8456 19.4364 20.8168 19.4511 20.758 19.4731 20.5996 19.486 20.4343 19.4995 20.2171 19.5 19.8808 19.5H12.1191C11.7828 19.5 11.5656 19.4995 11.4003 19.486 11.2419 19.4731 11.1831 19.4511 11.1543 19.4364 11.0445 19.3805 10.9553 19.2913 10.8994 19.1815 10.8847 19.1527 10.8627 19.0939 10.8497 18.9354 10.8362 18.7701 10.8358 18.553 10.8358 18.2167V13.7833C10.8358 13.447 10.8362 13.2299 10.8497 13.0646 10.8627 12.9061 10.8847 12.8473 10.8994 12.8185 10.9553 12.7087 11.0445 12.6195 11.1543 12.5636Z"/>
	</svg>
	