<?xml version="1.0"?>
	<svg xmlns="http://www.w3.org/2000/svg" 
		width="64" 
		height="64" 
		viewbox="0 0 64 64" 
		code="82602" 
		 transform=""
		><path d="M43.9693 40H20.0307C17.3664 40 16 38.688 16 36.1303V27.8829C16 25.312 17.3664 24 20.0307 24H43.9693C46.6473 24 48 25.3252 48 27.8829V36.1303C48 38.6748 46.6473 40 43.9693 40ZM17.6943 36.0375C17.6943 37.5748 18.5278 38.3567 20.0581 38.3567H43.9419C45.4449 38.3567 46.3057 37.5748 46.3057 36.0375V27.9625C46.3057 26.4384 45.4449 25.6433 43.9419 25.6433H20.0581C18.5278 25.6433 17.6943 26.4384 17.6943 27.9625V36.0375ZM20.6748 28.3953L20.6748 35.6046C20.6748 35.9871 20.9663 36.2877 21.3374 36.2877 21.7084 36.2877 22 35.9871 22 35.6046L22 28.3953C22 28.0128 21.7084 27.7122 21.3374 27.7122 20.9663 27.7122 20.6748 28.0128 20.6748 28.3953Z"/>
	</svg>
	