<?xml version="1.0"?>
	<svg xmlns="http://www.w3.org/2000/svg" 
		width="1024" 
		height="1024" 
		viewbox="0 0 1024 1024" 
		code="82601" 
		 transform=""
		><path d="M320.491 640c-42.629 0-64.491-20.992-64.491-61.915v-131.958c0-41.134 21.862-62.126 64.491-62.126h383.018c42.848 0 64.491 21.203 64.491 62.126v131.958c0 40.712-21.643 61.915-64.491 61.915h-383.018zM330.797 454.325v115.349c0 6.12 4.664 10.93 10.602 10.93 5.936 0 10.602-4.81 10.602-10.93v-115.349c0-6.12-4.666-10.93-10.602-10.93-5.938 0-10.602 4.81-10.602 10.93z"/>
	</svg>
	