<?xml version="1.0"?>
	<svg xmlns="http://www.w3.org/2000/svg" 
		width="32" 
		height="32" 
		viewbox="0 0 32 32" 
		code="82609" 
		 transform=""
		><path d="M24 16.691C24 20.6937 20.6116 24 16.5 24 12.3962 24 9 20.6937 9 16.691 9 13.1552 11.6572 10.1627 15.1085 9.51983V8.45601C15.1085 7.99681 15.4308 7.87436 15.8082 8.13457L18.1352 9.72647C18.4497 9.94077 18.4497 10.2469 18.1352 10.4612L15.8003 12.0531C15.4308 12.3057 15.1085 12.1832 15.1085 11.724V10.5913C12.2233 11.2036 10.0849 13.6909 10.0849 16.691 10.0849 20.158 12.9465 22.9438 16.5 22.9438 20.0613 22.9438 22.9308 20.158 22.923 16.691 22.9151 14.5481 21.8145 12.6654 20.1321 11.5556 19.8726 11.3643 19.794 11.0735 19.9513 10.8133 20.1085 10.5683 20.4544 10.4918 20.7374 10.7061 22.7028 12.0225 24 14.2267 24 16.691ZM16.5 19C17.8807 19 19 17.8807 19 16.5 19 15.1193 17.8807 14 16.5 14 15.1193 14 14 15.1193 14 16.5 14 17.8807 15.1193 19 16.5 19Z"/>
	</svg>
	