<?xml version="1.0"?>
	<svg xmlns="http://www.w3.org/2000/svg" 
		width="32" 
		height="32" 
		viewbox="0 0 32 32" 
		code="82605" 
		 transform=""
		><path d="M10 16C10 12.6863 12.6863 10 16 10 19.3137 10 22 12.6863 22 16 22 19.3137 19.3137 22 16 22 12.6863 22 10 19.3137 10 16ZM16 9C12.134 9 9 12.134 9 16 9 19.866 12.134 23 16 23 19.866 23 23 19.866 23 16 23 12.134 19.866 9 16 9ZM16 17.5C16.8284 17.5 17.5 16.8284 17.5 16 17.5 15.1716 16.8284 14.5 16 14.5 15.1716 14.5 14.5 15.1716 14.5 16 14.5 16.8284 15.1716 17.5 16 17.5Z"/>
	</svg>
	