<?xml version="1.0"?>
	<svg xmlns="http://www.w3.org/2000/svg" 
		width="32" 
		height="32" 
		viewbox="0 0 32 32" 
		code="82606" 
		 transform=""
		><path d="M14.1489 12.3799C14.1333 12.4515 14.0941 12.4992 14.0158 12.4992 13.9453 12.4992 13.9061 12.4515 13.8905 12.3799L13.8754 12.3115C13.6318 11.2 13.6157 11.1265 12.4178 10.8848 12.3395 10.8689 12.2925 10.8212 12.2925 10.7496 12.2925 10.678 12.3395 10.6303 12.4178 10.6144 13.6156 10.3728 13.6318 10.2992 13.8754 9.19553L13.8905 9.12724C13.9061 9.04772 13.9453 9 14.0158 9 14.0941 9 14.1333 9.04772 14.1489 9.12724L14.1586 9.17239C14.3998 10.2982 14.4154 10.3711 15.6137 10.6144 15.6921 10.6303 15.7391 10.678 15.7391 10.7496 15.7391 10.8291 15.6921 10.8689 15.6137 10.8848 14.4153 11.1282 14.3998 11.201 14.1586 12.3348L14.1489 12.3799ZM20.1961 14.9489C20.1805 15.0364 20.1256 15.0921 20.0395 15.0921 19.9533 15.0921 19.8985 15.0364 19.8828 14.9489L19.8799 14.9335C19.6242 13.5723 19.6033 13.4608 18.1674 13.2073 18.0812 13.1914 18.0186 13.1357 18.0186 13.0403 18.0186 12.9528 18.0812 12.8971 18.1674 12.8812 19.6031 12.6198 19.6242 12.5083 19.8798 11.1553L19.8828 11.1395C19.8985 11.0521 19.9533 10.9884 20.0395 10.9884 20.1256 10.9884 20.1805 11.0521 20.1961 11.1395L20.1996 11.1572C20.4626 12.5084 20.4843 12.6199 21.9116 12.8812 22.0056 12.8971 22.0604 12.9528 22.0604 13.0403 22.0604 13.1357 22.0056 13.1914 21.9116 13.2073 20.4842 13.4607 20.4626 13.5722 20.1995 14.9315L20.1961 14.9489ZM10.0209 17.2233C10.1071 17.2233 10.1619 17.1597 10.1776 17.0722L10.181 17.0545C10.4441 15.7033 10.4658 15.5918 11.893 15.3305 11.987 15.3146 12.0419 15.259 12.0419 15.1715 12.0419 15.076 11.987 15.0204 11.893 15.0124 10.4657 14.7511 10.4441 14.6396 10.181 13.2802L10.1776 13.2628C10.1619 13.1833 10.1071 13.1197 10.0209 13.1197 9.93476 13.1197 9.87993 13.1833 9.86427 13.2628L9.86136 13.2783C9.60564 14.6395 9.58469 14.751 8.14883 15.0124 8.06266 15.0204 8 15.076 8 15.1715 8 15.259 8.06266 15.3146 8.14883 15.3305 9.58457 15.592 9.60563 15.7035 9.8613 17.0565L9.86427 17.0722C9.87993 17.1597 9.93476 17.2233 10.0209 17.2233ZM23.7913 22.7343C24.0733 23.0285 24.0655 23.4739 23.7913 23.7761 23.525 24.0704 23.0472 24.0783 22.7652 23.7761L15.6998 16.5788C15.4256 16.2925 15.4256 15.8392 15.6998 15.537 15.9661 15.2507 16.4439 15.2427 16.7259 15.537L23.7913 22.7343ZM13.5376 23.7206C13.6551 23.7206 13.7412 23.6331 13.7569 23.5059 14.0154 21.5018 14.0859 21.47 16.099 21.12 16.2321 21.1041 16.3183 21.0326 16.3183 20.9053 16.3183 20.7781 16.2321 20.7065 16.1225 20.6826L16.0055 20.6597C14.0906 20.2852 14.0103 20.2695 13.7569 18.2968 13.7412 18.1696 13.6551 18.0821 13.5376 18.0821 13.4201 18.0821 13.3339 18.1696 13.3182 18.2888 13.0441 20.3248 12.9971 20.3645 10.9527 20.6826 10.843 20.6985 10.7568 20.7781 10.7568 20.9053 10.7568 21.0246 10.843 21.1041 10.9527 21.12L11.0297 21.1353C12.9983 21.5256 13.0476 21.5353 13.3182 23.5218 13.3339 23.6331 13.4201 23.7206 13.5376 23.7206ZM18.3867 18.6149L23.0004 23.307C23.1335 23.4422 23.2589 23.4661 23.3764 23.3627 23.4939 23.2355 23.4625 23.1003 23.3372 22.973L18.7235 18.2809 18.3867 18.6149Z"/>
	</svg>
	