<?xml version="1.0"?>
	<svg xmlns="http://www.w3.org/2000/svg" 
		width="32" 
		height="32" 
		viewbox="0 0 32 32" 
		code="82611" 
		 transform=""
		><path d="M25 22.4242C25 23.2901 24.3083 24 23.4552 24 22.7251 24 22.1026 23.4773 21.9489 22.783L10.9512 19.5222C10.7052 20.0605 10.1673 20.4349 9.55244 20.4349 8.69937 20.4349 8 19.725 8 18.8591 8 17.9932 8.69937 17.2833 9.55244 17.2833 9.65235 17.2833 9.75226 17.2911 9.85217 17.3145L13.203 10.7616C12.8802 10.4729 12.6727 10.0439 12.6727 9.57582 12.6727 8.7099 13.3721 8 14.2251 8 15.0705 8 15.7699 8.7099 15.7699 9.54461L21.9335 11.253C22.2025 10.8006 22.7021 10.4885 23.2631 10.4885 24.1162 10.4885 24.8079 11.1984 24.8079 12.0644 24.8079 12.7743 24.3467 13.3671 23.7242 13.57L23.9932 20.9498C24.5773 21.176 25 21.7533 25 22.4242ZM11.0818 18.6407L21.995 21.8937C22.1718 21.4022 22.5714 21.0278 23.071 20.903L22.8404 13.5778C22.2102 13.3983 21.7414 12.8211 21.7107 12.1346L15.524 10.4183C15.255 10.8552 14.7708 11.1516 14.2251 11.1516 14.1483 11.1516 14.0791 11.1438 14.0099 11.136L10.6591 17.7591C10.882 18.001 11.0357 18.3052 11.0818 18.6407Z"/>
	</svg>
	