<?xml version="1.0"?>
	<svg xmlns="http://www.w3.org/2000/svg" 
		width="32" 
		height="32" 
		viewbox="0 0 32 32" 
		code="82614" 
		 transform=""
		><path d="M23.5571 15.8389C24.7561 19.0819 23.4364 21.6242 20.6161 22.6381 18.2181 23.4955 16.0538 22.8245 14.2666 20.6774L11.6725 17.5685C11.0918 16.8677 11.122 16.1147 11.6951 15.6227 12.2305 15.1753 12.9394 15.2052 13.5049 15.8165L14.6587 17.0765C14.6889 17.1063 14.719 17.1212 14.7417 17.1063 14.7794 17.0988 14.7869 17.0615 14.7718 17.0243L12.9318 12.0217C10.4433 12.9686 8.80689 15.3319 8.7541 18.4557 8.74656 18.6793 8.59574 18.8359 8.38459 18.8434 8.18852 18.8434 8 18.657 8 18.4408 8 15.0486 9.88525 12.3647 12.6679 11.2986L12.5246 10.9184C12.223 10.0908 12.5849 9.36765 13.3466 9.09181 14.0856 8.82342 14.8397 9.15145 15.1413 9.97154L16.0312 12.3945C16.1971 12.2678 16.3705 12.1709 16.5515 12.1038 17.1472 11.8876 17.7128 12.0665 18.0672 12.5362 18.2633 12.3871 18.4594 12.2678 18.6705 12.1932 19.2512 11.9845 19.779 12.1485 20.1108 12.5958 21.3853 12.1485 22.441 12.8046 23.0368 14.4149L23.5571 15.8389ZM12.2177 17.0662L14.7834 20.0651C16.3898 21.9493 18.2415 22.3808 20.1974 21.6904 22.607 20.849 23.6333 18.8066 22.5995 16.0522L22.1385 14.8368C21.6997 13.6646 21.0601 13.1612 20.3462 13.4129L20.6585 14.2399C20.7403 14.4629 20.6213 14.6571 20.4429 14.7218 20.2495 14.7865 20.0338 14.7146 19.9446 14.4845L19.5802 13.5064C19.424 13.0893 19.0968 12.9239 18.6952 13.0605 18.5465 13.1181 18.3754 13.2187 18.2564 13.3338L18.7398 14.6211C18.8216 14.844 18.7101 15.0382 18.5241 15.1029 18.3382 15.1677 18.1151 15.0957 18.0333 14.8656L17.4904 13.4201C17.3268 13.003 16.9996 12.8376 16.6054 12.9742 16.4493 13.0318 16.2856 13.1324 16.1592 13.2403L16.8285 15.0022C16.9029 15.2036 16.8137 15.4122 16.6129 15.4841 16.4046 15.556 16.189 15.4481 16.122 15.254L14.3 10.4284C14.1736 10.0832 13.8687 9.91782 13.534 10.0401 13.1993 10.1551 13.058 10.4716 13.1919 10.8168L15.7576 17.6272C15.8617 17.9148 15.7353 18.1737 15.475 18.2672 15.2445 18.3535 15.0214 18.3176 14.776 18.073L13.0729 16.3183C12.7978 16.0306 12.4557 15.9659 12.1954 16.1817 11.9276 16.4118 11.9351 16.7426 12.2177 17.0662Z"/>
	</svg>
	