<?xml version="1.0"?>
	<svg xmlns="http://www.w3.org/2000/svg" 
		width="32" 
		height="32" 
		viewbox="0 0 32 32" 
		code="82607" 
		 transform=""
		><path d="M19.8114 12.8598C19.7302 12.9357 19.6287 12.9908 19.4933 12.9908 19.2497 12.9908 19.0873 12.8254 19.0873 12.5703 19.0873 12.4531 19.1415 12.3497 19.2227 12.267L21.828 9.61305 22.7415 8.73759 21.8077 8.82031H20.4137C20.1497 8.82031 19.9806 8.65487 19.9806 8.40671 19.9806 8.15855 20.143 8 20.4069 8H23.5468C23.8175 8 24.0002 8.13097 24.0002 8.45496V11.6397C24.0002 11.9017 23.8378 12.0878 23.5942 12.0878 23.3506 12.0878 23.1881 11.9154 23.1881 11.6466V10.3369L23.2626 9.28217 22.4099 10.2059 19.8114 12.8598ZM17.1794 24.0001C18.3931 24.0001 19 23.3932 19 22.1987V14.8079C19 13.6133 18.3931 13.0001 17.1794 13.0001H9.82695C8.61324 13.0001 8 13.6069 8 14.8079V22.1987C8 23.3932 8.61324 24.0001 9.82695 24.0001H17.1794ZM17.0267 23.0001H9.96715C9.33881 23.0001 9 22.6674 9 22.0206V14.9795C9 14.3327 9.33881 14.0001 9.96715 14.0001H17.0267C17.6427 14.0001 18 14.3327 18 14.9795V22.0206C18 22.6674 17.6427 23.0001 17.0267 23.0001Z"/>
	</svg>
	