<?xml version="1.0"?>
	<svg xmlns="http://www.w3.org/2000/svg" 
		width="32" 
		height="32" 
		viewbox="0 0 32 32" 
		code="82612" 
		 transform=""
		><path d="M15.1939 22.2222H16.0788C16.5674 22.2222 16.9636 22.6202 16.9636 23.1111 16.9636 23.602 16.5674 24 16.0788 24H12.5394C12.0507 24 11.6545 23.602 11.6545 23.1111 11.6545 22.6202 12.0507 22.2222 12.5394 22.2222H13.4242V9.77778H10.7697V10.6667C10.7697 11.1576 10.3735 11.5556 9.88484 11.5556 9.39616 11.5556 9 11.1576 9 10.6667V8.88889C8.99994 8.65312 9.09314 8.42699 9.2591 8.26028 9.42505 8.09357 9.65015 7.99994 9.88484 8H18.7333C18.968 7.99994 19.1931 8.09357 19.359 8.26028 19.525 8.42699 19.6182 8.65312 19.6181 8.88889V10.6667C19.6181 11.1576 19.222 11.5556 18.7333 11.5556 18.2446 11.5556 17.8484 11.1576 17.8484 10.6667V9.77778H15.1939V22.2222ZM18.5112 18.9971C18.8652 19.8806 19.7177 20.4595 20.6657 20.4602 21.6137 20.4595 22.4662 19.8806 22.8202 18.9971 23.1835 18.1124 22.9842 17.0951 22.3141 16.4148L20.761 14.8364C20.7358 14.8109 20.7015 14.7965 20.6657 14.7966 20.6293 14.7959 20.5942 14.8106 20.569 14.837L19.0173 16.4148C18.3472 17.0951 18.1479 18.1124 18.5112 18.9971Z"/>
	</svg>
	