<?xml version="1.0"?>
	<svg xmlns="http://www.w3.org/2000/svg" 
		width="32" 
		height="32" 
		viewbox="0 0 32 32" 
		code="82613" 
		 transform=""
		><path d="M15.00816 9.98931C16.65296 9.98931 18.1653309 10.556133 19.3606902 11.5050462L19.58106 11.6874 21.02326 10.2449C21.11706 10.1511 21.24416 10.0984 21.37686 10.0984 21.48294 10.0984 21.585564 10.132128 21.6703448 10.1936448L21.73036 10.2449 23.85176 12.3662C24.0252711 12.5398 24.0445501 12.809242 23.909597 13.00407L23.85176 13.0733 21.77006 15.1549C21.92936 15.7415 22.01436 16.3586 22.01436 16.9956 22.01436 20.865 18.87756 24.0019 15.00816 24.0019 11.13866 24.0019 8.00184 20.865 8.00184 16.9956 8.00184 13.1261 11.13866 9.98931 15.00816 9.98931ZM15.00816 10.9893C11.69096 10.9893 9.00184 13.6784 9.00184 16.9956 9.00184 20.3128 11.69096 23.0019 15.00816 23.0019 18.32526 23.0019 21.01436 20.3128 21.01436 16.9956 21.01436 13.6784 18.32526 10.9893 15.00816 10.9893ZM15.00766 13.9957C15.28386 13.9957 15.50766 14.2195 15.50766 14.4957L15.50766 14.4957 15.50766 19.4957C15.50766 19.7718 15.28386 19.9957 15.00766 19.9957 14.73156 19.9957 14.50766 19.7718 14.50766 19.4957L14.50766 19.4957 14.50766 14.4957C14.50766 14.2195 14.73156 13.9957 15.00766 13.9957ZM21.37686 11.3056L20.29026 12.3925C20.73816 12.906 21.11236 13.4855 21.39646 14.1144L22.79106 12.7198 21.37686 11.3056ZM18.00766 7.9981C18.28386 7.9981 18.50766 8.22196 18.50766 8.4981 18.50766 8.77424 18.28386 8.9981 18.00766 8.9981L12.00766 8.9981C11.73156 8.9981 11.50766 8.77424 11.50766 8.4981 11.50766 8.22196 11.73156 7.9981 12.00766 7.9981L18.00766 7.9981Z"/>
	</svg>
	