<?xml version="1.0"?>
	<svg xmlns="http://www.w3.org/2000/svg" 
		width="32" 
		height="32" 
		viewbox="0 0 32 32" 
		code="82603" 
		 transform=""
		><path d="M10 8C8.89543 8 8 8.89543 8 10V22C8 23.1046 8.89543 24 10 24H22C23.1046 24 24 23.1046 24 22V10C24 8.89543 23.1046 8 22 8H10ZM13.8625 14.0952L15.9292 12 17.9996 14.1C18.8416 14.9523 19.0921 16.2255 18.6358 17.3333 18.1925 18.4383 17.1217 19.1625 15.9311 19.1625 14.7405 19.1625 13.6696 18.4383 13.2263 17.3333 12.7679 16.2242 13.0186 14.9484 13.8625 14.0952Z"/>
	</svg>
	