<?xml version="1.0"?>
	<svg xmlns="http://www.w3.org/2000/svg" 
		width="32" 
		height="32" 
		viewbox="0 0 32 32" 
		code="82608" 
		 transform=""
		><path d="M8 9C8 8.44772 8.44772 8 9 8H11.2V11.2H8V9ZM14.4 8H17.6V11.2H14.4V8ZM17.6 11.2H20.8V14.4H17.6V11.2ZM11.2 11.2H14.4V14.4H11.2V11.2ZM20.8 8H23C23.5523 8 24 8.44772 24 9V11.2H20.8V8ZM8 14.4H11.2V17.6H8V14.4ZM14.4 14.4H17.6V17.6H14.4V14.4ZM17.6 17.6H20.8V20.8H17.6V17.6ZM11.2 17.6H14.4V20.8H11.2V17.6ZM20.8 14.4H24V17.6H20.8V14.4ZM8 20.8H11.2V24H9C8.44772 24 8 23.5523 8 23V20.8ZM14.4 20.8H17.6V24H14.4V20.8ZM20.8 20.8H24V23C24 23.5523 23.5523 24 23 24H20.8V20.8Z"/>
	</svg>
	