<?xml version="1.0"?>
	<svg xmlns="http://www.w3.org/2000/svg" 
		width="32" 
		height="32" 
		viewbox="0 0 32 32" 
		code="82610" 
		 transform=""
		><path d="M21.6408 23C23.2083 23 24 22.2269 24 20.7427V11.265C24 9.77305 23.2083 9 21.6408 9H10.3592C8.79973 9 8 9.76532 8 11.265V20.7427C8 22.2347 8.79973 23 10.3592 23H21.6408ZM21.6181 22H16.0098V17.6878C16.0098 16.4978 15.3228 15.8452 14.0767 15.8452H9V11.3436C9 10.4607 9.48726 10 10.3819 10H21.6181C22.4968 10 23 10.4607 23 11.3436V20.6564C23 21.547 22.4968 22 21.6181 22ZM10 22H15V17.8556C15 17.1921 14.5902 16.8 13.9046 16.8H9V21C9 21.5523 9.44772 22 10 22Z"/>
	</svg>
	