<?xml version="1.0"?>
	<svg xmlns="http://www.w3.org/2000/svg" 
		width="32" 
		height="32" 
		viewbox="0 0 32 32" 
		code="82604" 
		 transform=""
		><path d="M22 8C23.1046 8 24 8.89543 24 10V22C24 23.1046 23.1046 24 22 24H10C8.89543 24 8 23.1046 8 22V10C8 8.89543 8.89543 8 10 8H22ZM22 9H10C9.48716 9 9.06449 9.38604 9.00673 9.88338L9 10V22C9 22.5128 9.38604 22.9355 9.88338 22.9933L10 23H22C22.5128 23 22.9355 22.614 22.9933 22.1166L23 22V10C23 9.48716 22.614 9.06449 22.1166 9.00673L22 9ZM13.8625 14.0952L15.9292 12 17.9996 14.1C18.8416 14.9523 19.0921 16.2255 18.6358 17.3333 18.1925 18.4383 17.1217 19.1625 15.9311 19.1625 14.7405 19.1625 13.6696 18.4383 13.2263 17.3333 12.7679 16.2242 13.0186 14.9484 13.8625 14.0952Z"/>
	</svg>
	