<?xml version="1.0"?>
	<svg xmlns="http://www.w3.org/2000/svg" 
		width="30" 
		height="30" 
		viewbox="0 0 30 30" 
		code="80991" 
		 transform=""
		><path d="M5.48648649 15.0540541L4.91891892 14.4864865C3.13513514 12.7027027 2.59459459 10.1621622 3.27027027 7.91891892 1.48648649 7.51351351 0.162162162 5.91891892 0.162162162 4.02702703 0.162162162 1.83783784 1.94594595 0.0540540541 4.13513514 0.0540540541 6.10810811 0.0540540541 7.75675676 1.48648649 8.05405405 3.37837838 10.2162162 2.86486486 12.5675676 3.45945946 14.2432432 5.13513514L14.4594595 5.35135135 11.5135135 8.2972973 11.2972973 8.08108108C10.3513514 7.13513514 8.78378378 7.13513514 7.83783784 8.08108108 6.89189189 9.02702703 6.89189189 10.5945946 7.83783784 11.5405405L8.40540541 12.1081081 11.3513514 15.0540541 14.4594595 18.1621622 11.5135135 21.1081081 8.40540541 18 5.48648649 15.0540541 5.48648649 15.0540541ZM8.78378378 11.7837838L11.8918919 8.67567568 14.8378378 5.72972973 15.4054054 5.16216216C17.1621622 3.40540541 19.7027027 2.83783784 21.9459459 3.48648649 22.2162162 1.54054054 23.8648649 0.0540540541 25.8918919 0.0540540541 28.0810811 0.0540540541 29.8648649 1.83783784 29.8648649 4.02702703 29.8648649 6.05405405 28.3513514 7.72972973 26.4054054 7.97297297 27.0540541 10.2162162 26.4864865 12.7027027 24.7297297 14.4594595L24.5135135 14.6756757 21.5675676 11.7297297 21.7837838 11.5135135C22.7297297 10.5675676 22.7297297 9 21.7837838 8.05405405 20.8378378 7.10810811 19.2972973 7.10810811 18.3243243 8.05405405L17.7567568 8.62162162 14.8108108 11.6216216 11.7027027 14.7297297 8.78378378 11.7837838 8.78378378 11.7837838ZM22 26.5945946C19.7297297 27.2972973 17.1891892 26.7297297 15.3783784 24.9459459L15.1621622 24.7297297 18.1081081 21.7837838 18.3243243 22C19.2702703 22.9459459 20.8378378 22.9459459 21.7837838 22 22.7297297 21.0540541 22.7297297 19.5135135 21.7837838 18.5405405L21.2162162 17.972973 18.2702703 15.027027 15.1621622 11.9189189 18.1081081 9.02702703 21.2162162 12.1351351 24.1621622 15.0810811 24.7297297 15.6486486C26.4324324 17.3513514 27 19.7027027 26.4864865 21.8648649 28.4324324 22.1351351 29.9189189 23.8108108 29.9189189 25.8108108 29.9189189 28 28.1351351 29.7837838 25.9459459 29.7837838 23.972973 29.7837838 22.3783784 28.4324324 22 26.5945946L22 26.5945946ZM20.8648649 18.3513514L17.7567568 21.4594595 14.8108108 24.4054054 14.2432432 24.972973C12.5405405 26.6756757 10.1621622 27.2432432 7.97297297 26.7027027 7.56756757 28.4594595 5.97297297 29.7837838 4.08108108 29.7837838 1.89189189 29.7837838 0.108108108 28 0.108108108 25.8108108 0.108108108 23.9189189 1.40540541 22.3513514 3.16216216 21.9459459 2.59459459 19.7567568 3.18918919 17.3513514 4.89189189 15.6486486L5.10810811 15.4324324 8.05405405 18.3783784 7.83783784 18.5945946C6.89189189 19.5405405 6.89189189 21.0810811 7.83783784 22.0540541 8.78378378 23 10.3513514 23 11.2972973 22.0540541L11.8648649 21.4864865 14.8108108 18.5405405 17.9189189 15.4324324 20.8648649 18.3513514 20.8648649 18.3513514Z"/>
	</svg>
	