<?xml version="1.0"?>
	<svg xmlns="http://www.w3.org/2000/svg" 
		width="32" 
		height="32" 
		viewbox="0 0 32 32" 
		code="82621" 
		 transform=""
		><path d="M13.5 22C14.0523 22 14.5 21.5523 14.5 21L14.5 13C14.5 12.4477 14.0523 12 13.5 12 12.9477 12 12.5 12.4477 12.5 13L12.5 21C12.5 21.5523 12.9477 22 13.5 22ZM22 10C22.2761 10 22.5 9.77614 22.5 9.5 22.5 9.22386 22.2761 9 22 9L10 9C9.72386 9 9.5 9.22386 9.5 9.5 9.5 9.77614 9.72386 10 10 10L22 10ZM19.5 17C19.5 17.5523 19.0523 18 18.5 18 17.9477 18 17.5 17.5523 17.5 17V13C17.5 12.4477 17.9477 12 18.5 12 19.0523 12 19.5 12.4477 19.5 13V17Z"/>
	</svg>
	