<?xml version="1.0"?>
	<svg xmlns="http://www.w3.org/2000/svg" 
		width="32" 
		height="32" 
		viewbox="0 0 32 32" 
		code="82616" 
		 transform=""
		><path d="M13.5 10C14.0523 10 14.5 10.4477 14.5 11L14.5 19C14.5 19.5523 14.0523 20 13.5 20 12.9477 20 12.5 19.5523 12.5 19L12.5 11C12.5 10.4477 12.9477 10 13.5 10ZM22 22C22.2761 22 22.5 22.2239 22.5 22.5 22.5 22.7761 22.2761 23 22 23L10 23C9.72386 23 9.5 22.7761 9.5 22.5 9.5 22.2239 9.72386 22 10 22L22 22ZM19.5 15C19.5 14.4477 19.0523 14 18.5 14 17.9477 14 17.5 14.4477 17.5 15V19C17.5 19.5523 17.9477 20 18.5 20 19.0523 20 19.5 19.5523 19.5 19V15Z"/>
	</svg>
	