<?xml version="1.0"?>
	<svg xmlns="http://www.w3.org/2000/svg" 
		width="32" 
		height="32" 
		viewbox="0 0 32 32" 
		code="82615" 
		 transform=""
		><path d="M13.5 21.5C12.9477 21.5 12.5 21.0523 12.5 20.5L12.5 16.5H10C9.72386 16.5 9.5 16.2761 9.5 16 9.5 15.7239 9.72386 15.5 10 15.5H12.5L12.5 11.5C12.5 10.9477 12.9477 10.5 13.5 10.5 14.0523 10.5 14.5 10.9477 14.5 11.5V15.5L17.5 15.5V13.5C17.5 12.9477 17.9477 12.5 18.5 12.5 19.0523 12.5 19.5 12.9477 19.5 13.5V15.5H22C22.2761 15.5 22.5 15.7239 22.5 16 22.5 16.2761 22.2761 16.5 22 16.5H19.5V18.5C19.5 19.0523 19.0523 19.5 18.5 19.5 17.9477 19.5 17.5 19.0523 17.5 18.5V16.5L14.5 16.5V20.5C14.5 21.0523 14.0523 21.5 13.5 21.5Z"/>
	</svg>
	