<?xml version="1.0"?>
	<svg xmlns="http://www.w3.org/2000/svg" 
		width="32" 
		height="32" 
		viewbox="0 0 32 32" 
		code="82617" 
		 transform=""
		><path d="M11 10C11 9.72386 10.7761 9.5 10.5 9.5 10.2239 9.5 10 9.72386 10 10L10 22C10 22.2761 10.2239 22.5 10.5 22.5 10.7761 22.5 11 22.2761 11 22L11 10ZM21.5 9.5C21.7761 9.5 22 9.72386 22 10L22 22C22 22.2761 21.7761 22.5 21.5 22.5 21.2239 22.5 21 22.2761 21 22L21 10C21 9.72386 21.2239 9.5 21.5 9.5ZM16 12.5C16.5523 12.5 17 12.9477 17 13.5V18.5C17 19.0523 16.5523 19.5 16 19.5 15.4477 19.5 15 19.0523 15 18.5L15 13.5C15 12.9477 15.4477 12.5 16 12.5Z"/>
	</svg>
	