<?xml version="1.0"?>
	<svg xmlns="http://www.w3.org/2000/svg" 
		width="32" 
		height="32" 
		viewbox="0 0 32 32" 
		code="82618" 
		 transform=""
		><path d="M12 12C12 11.4477 12.4477 11 13 11H19C19.5523 11 20 11.4477 20 12 20 12.5523 19.5523 13 19 13H13C12.4477 13 12 12.5523 12 12ZM12 19C12 18.4477 12.4477 18 13 18H19C19.5523 18 20 18.4477 20 19 20 19.5523 19.5523 20 19 20H13C12.4477 20 12 19.5523 12 19ZM22.5 16C22.7761 16 23 15.7761 23 15.5 23 15.2239 22.7761 15 22.5 15L9.5 15C9.22386 15 9 15.2239 9 15.5 9 15.7761 9.22386 16 9.5 16L22.5 16Z"/>
	</svg>
	