<?xml version="1.0"?>
	<svg xmlns="http://www.w3.org/2000/svg" 
		width="32" 
		height="32" 
		viewbox="0 0 32 32" 
		code="82620" 
		 transform=""
		><path d="M22.5 11C22.7761 11 23 10.7761 23 10.5 23 10.2239 22.7761 10 22.5 10H9.5C9.22386 10 9 10.2239 9 10.5 9 10.7761 9.22386 11 9.5 11L22.5 11ZM12 13C12 12.4477 12.4477 12 13 12H19C19.5523 12 20 12.4477 20 13 20 13.5523 19.5523 14 19 14H13C12.4477 14 12 13.5523 12 13ZM12 17C12 16.4477 12.4477 16 13 16H19C19.5523 16 20 16.4477 20 17 20 17.5523 19.5523 18 19 18H13C12.4477 18 12 17.5523 12 17Z"/>
	</svg>
	