<?xml version="1.0"?>
	<svg xmlns="http://www.w3.org/2000/svg" 
		width="64" 
		height="64" 
		viewbox="0 0 64 64" 
		code="82622" 
		 transform=""
		><path d="M32.6457 45.6194L45.9805 32.2346C46.9184 31.2961 47 30.82 47 29.3781V24.2092C47 22.8898 46.7417 22.4954 45.7087 21.4616L42.5279 18.2922C41.5084 17.2584 41.1142 17 39.7957 17H34.6167C33.1758 17 32.7001 17.0816 31.7757 18.0066L18.3865 31.3505C16.5514 33.1868 16.5243 35.1047 18.3865 36.9683L27.0453 45.6058C28.9076 47.4693 30.8242 47.4557 32.6457 45.6194ZM37.5528 27.4058C36.6149 27.4058 35.908 26.6713 35.908 25.7463 35.908 24.8214 36.6149 24.1004 37.5528 24.1004 38.5043 24.1004 39.2111 24.8214 39.2111 25.7463 39.2111 26.6713 38.5043 27.4058 37.5528 27.4058Z"/>
	</svg>
	