<?xml version="1.0"?>
	<svg xmlns="http://www.w3.org/2000/svg" 
		width="64" 
		height="64" 
		viewbox="0 0 64 64" 
		code="82623" 
		 transform=""
		><path d="M32.6359 45.6194L45.9708 32.2346C46.9087 31.2961 46.9902 30.82 46.9902 29.3781V24.2092C46.9902 22.8898 46.732 22.4954 45.6989 21.4616L42.5181 18.2922C41.4986 17.2584 41.1044 17 39.7859 17H34.6069C33.166 17 32.6903 17.0816 31.766 18.0066L18.3767 31.3505C16.5417 33.1868 16.5145 35.1047 18.3767 36.9683L27.0356 45.6058C28.8978 47.4693 30.8144 47.4557 32.6359 45.6194ZM31.5077 44.3543C30.4066 45.4561 29.2784 45.4697 28.1502 44.3543L19.6409 35.8257C18.5263 34.7239 18.5399 33.5677 19.6273 32.4795L32.9486 19.2036C33.2884 18.8635 33.6282 18.6867 34.1447 18.6867H39.8674C40.3432 18.6867 40.6966 18.8499 41.05 19.2036L44.7881 22.9442C45.128 23.2843 45.3047 23.638 45.3047 24.1276V29.8542C45.3047 30.3575 45.128 30.7112 44.7881 31.0512L31.5077 44.3543ZM38.2363 27.4058C39.1878 27.4058 39.8946 26.6713 39.8946 25.7463 39.8946 24.8214 39.1878 24.1004 38.2363 24.1004 37.2983 24.1004 36.5915 24.8214 36.5915 25.7463 36.5915 26.6713 37.2983 27.4058 38.2363 27.4058Z"/>
	</svg>
	