<?xml version="1.0"?>
	<svg xmlns="http://www.w3.org/2000/svg" 
		width="30" 
		height="30" 
		viewbox="0 0 30 30" 
		code="80992" 
		 transform=""
		><path d="M15 25.075C15.6445313 25.075 16.1682129 25.5583984 16.2311554 26.1853058L16.2375 26.3125 16.2375 27.5125C16.2375 28.1570313 15.7541016 28.6807129 15.1271942 28.7436554L14.9875 28.75C14.3429688 28.75 13.8192871 28.2666016 13.7563446 27.6396942L13.75 27.5125 13.75 26.3125C13.75 25.6679688 14.2333984 25.1442871 14.8603058 25.0813446L15 25.075ZM24.0861815 22.4091556L24.1875 22.5 24.675 22.9875C25.1625 23.475 25.1625 24.2625 24.675 24.75 24.22 25.205 23.5036667 25.2353333 23.0138222 24.841L22.9125 24.75 22.425 24.2625C21.9375 23.775 21.9375 23 22.4375 22.5 22.8491667 22.0883333 23.4955556 22.0240556 23.9779519 22.3315778L24.0861815 22.4091556 24.0861815 22.4091556ZM7.44867778 22.3965L7.5625 22.5C8.00583333 22.9433333 8.04627778 23.6588889 7.65334444 24.1486815L7.5625 24.25 7.075 24.7375C6.5875 25.225 5.8 25.225 5.3125 24.7375 4.8575 24.2825 4.82716667 23.5770556 5.21133704 23.0785L5.3 22.975 5.7875 22.4875C6.2425 22.0325 6.95883333 22.0021667 7.44867778 22.3965ZM12.5 2.5625L17.5 2.5625C18.1445313 2.5625 18.6791992 3.05688477 18.743515 3.68516541L18.75 3.8125 18.75 8.575C20.9875 9.875 22.5 12.2875 22.5 15.075 22.5 19.5125 18.6125 23.0625 14.0625 22.5125 10.7875 22.1125 8.0875 19.5 7.5875 16.2375 7.11433824 13.0709559 8.60768815 10.2223508 11.0274943 8.70888173L11.25 8.575 11.25 3.8125C11.25 3.16796875 11.7443848 2.63330078 12.3726654 2.56898499L12.5 2.5625 17.5 2.5625 12.5 2.5625ZM3.7625 13.8125C4.40703125 13.8125 4.93071289 14.2958984 4.98335571 14.9228058L4.9875 15.0625C4.9875 15.7070313 4.50410156 16.2307129 3.87719421 16.2936554L3.75 16.3 2.4875 16.3C1.84296875 16.3 1.31928711 15.8166016 1.2563446 15.1896942L1.25 15.05C1.25 14.4054688 1.73339844 13.8817871 2.36030579 13.8188446L2.4875 13.8125 3.7625 13.8125ZM27.5 13.8125C28.1445313 13.8125 28.6682129 14.2958984 28.7311554 14.9228058L28.7375 15.0625C28.7375 15.7070312 28.2541016 16.2307129 27.6271942 16.2936554L27.5 16.3 26.2375 16.3C25.5929688 16.3 25.0692871 15.8166016 25.0063446 15.1896942L25 15.05C25 14.4054687 25.4833984 13.8817871 26.1103058 13.8188446L26.2375 13.8125 27.5 13.8125Z"/>
	</svg>
	