<?xml version="1.0"?>
	<svg xmlns="http://www.w3.org/2000/svg" 
		width="24" 
		height="24" 
		viewbox="0 0 24 24" 
		code="82624" 
		 transform=""
		><path d="M8.35355 8.31295C8.15829 8.11769 7.84171 8.11769 7.64645 8.31295 7.45118 8.50821 7.45118 8.8248 7.64645 9.02006L10.6262 11.9998 7.64645 14.9796C7.45118 15.1749 7.45118 15.4915 7.64645 15.6867 7.84171 15.882 8.15829 15.882 8.35355 15.6867L11.6869 12.3534C11.8821 12.1581 11.8821 11.8415 11.6869 11.6463L8.35355 8.31295ZM13.0205 8.31295C12.8253 8.11769 12.5087 8.11769 12.3134 8.31295 12.1182 8.50821 12.1182 8.8248 12.3134 9.02006L15.2932 11.9998 12.3134 14.9796C12.1182 15.1749 12.1182 15.4915 12.3134 15.6867 12.5087 15.882 12.8253 15.882 13.0205 15.6867L16.3539 12.3534C16.5491 12.1581 16.5491 11.8415 16.3539 11.6463L13.0205 8.31295Z"/>
	</svg>
	