<?xml version="1.0"?>
	<svg xmlns="http://www.w3.org/2000/svg" 
		width="30" 
		height="30" 
		viewbox="0 0 30 30" 
		code="80993" 
		 transform=""
		><path d="M23.3336805 5C24.2501562 5 25 5.74984378 25 6.66631952L25 23.3295147C25 24.2459904 24.2501562 24.9958342 23.3336805 24.9958342 22.4172047 24.9958342 21.667361 24.2459904 21.667361 23.3295147L21.667361 6.66631952C21.667361 5.74984378 22.4172047 5 23.3336805 5ZM7.83690898 6.16642366L15.4853156 13.8148302C16.1351802 14.4646949 16.1351802 15.5144762 15.4853156 16.1643408L7.83690898 23.8127473C7.18704437 24.462612 6.13726307 24.462612 5.48739846 23.8127473 4.85419704 23.1795459 4.85419704 22.1131014 5.50406165 21.4799L11.9693814 14.9979171 5.48739846 8.51593418C4.83753385 7.86606957 4.83753385 6.81628827 5.48739846 6.16642366 6.13726307 5.51655905 7.18704437 5.51655905 7.83690898 6.16642366Z"/>
	</svg>
	