<?xml version="1.0"?>
	<svg xmlns="http://www.w3.org/2000/svg" 
		width="32" 
		height="32" 
		viewbox="0 0 32 32" 
		code="82625" 
		 transform=""
		><path d="M12 15.5C12 14.5647 12.7582 13.8065 13.6935 13.8065 14.6288 13.8065 15.387 14.5647 15.387 15.5 15.387 16.4353 14.6288 17.1935 13.6935 17.1935 12.7582 17.1935 12 16.4353 12 15.5ZM17.6135 15.5C17.6135 14.5647 18.3717 13.8065 19.307 13.8065 20.2423 13.8065 21.0005 14.5647 21.0005 15.5 21.0005 16.4353 20.2423 17.1935 19.307 17.1935 18.3717 17.1935 17.6135 16.4353 17.6135 15.5ZM12 9.69403C12 8.75873 12.7582 8.00052 13.6935 8.00052 14.6288 8.00052 15.387 8.75873 15.387 9.69403 15.387 10.6293 14.6288 11.3875 13.6935 11.3875 12.7582 11.3875 12 10.6293 12 9.69403ZM17.6135 9.69351C17.6135 8.75821 18.3717 8 19.307 8 20.2423 8 21.0005 8.75821 21.0005 9.69351 21.0005 10.6288 20.2423 11.387 19.307 11.387 18.3717 11.387 17.6135 10.6288 17.6135 9.69351ZM12 21.3066C12 20.3713 12.7582 19.6131 13.6935 19.6131 14.6288 19.6131 15.387 20.3713 15.387 21.3066 15.387 22.2419 14.6288 23.0001 13.6935 23.0001 12.7582 23.0001 12 22.2419 12 21.3066ZM17.6135 21.3066C17.6135 20.3713 18.3717 19.6131 19.307 19.6131 20.2423 19.6131 21.0005 20.3713 21.0005 21.3066 21.0005 22.2419 20.2423 23.0001 19.307 23.0001 18.3717 23.0001 17.6135 22.2419 17.6135 21.3066Z"/>
	</svg>
	