<?xml version="1.0"?>
	<svg xmlns="http://www.w3.org/2000/svg" 
		width="32" 
		height="32" 
		viewbox="0 0 32 32" 
		code="82626" 
		 transform=""
		><path d="M17.2897 16.6815C16.9891 16.8492 16.7561 16.9294 16.5006 16.9294 16.2451 16.9294 16.0121 16.8492 15.7115 16.6815L9.71452 13.3066C9.22605 13.0296 9.01562 12.8109 9.01562 12.4683 9.01562 12.1257 9.22605 11.8998 9.71452 11.6228L15.7115 8.25513C16.0121 8.08747 16.2451 8 16.5006 8 16.7561 8 16.9891 8.08747 17.2897 8.25513L23.2867 11.6228C23.7751 11.8998 23.9856 12.1257 23.9856 12.4683 23.9856 12.8109 23.7751 13.0296 23.2867 13.3066L17.2897 16.6815ZM16.2066 15.8654C16.3194 15.931 16.402 15.9602 16.4997 15.9602 16.5974 15.9602 16.6801 15.931 16.7928 15.8654L22.7071 12.5779C22.7597 12.5561 22.7973 12.5196 22.7973 12.4686 22.7973 12.4103 22.7597 12.3811 22.7071 12.352L16.7928 9.06449C16.6801 9.00617 16.5974 8.96973 16.4997 8.96973 16.402 8.96973 16.3194 9.00617 16.2066 9.06449L10.2923 12.352C10.2397 12.3811 10.2021 12.4103 10.2021 12.4686 10.2021 12.5196 10.2397 12.5561 10.2923 12.5779L16.2066 15.8654ZM16.5 20.5669C16.733 20.5669 16.9284 20.4575 17.1989 20.3044L23.6468 16.6379C23.8948 16.4994 24 16.3026 24 16.1204 24 15.8871 23.8347 15.6976 23.6919 15.6247L16.763 19.4953C16.6653 19.5536 16.5827 19.5901 16.5 19.5901 16.4173 19.5901 16.3347 19.5536 16.237 19.4953L9.30812 15.6247C9.16533 15.6976 9 15.8871 9 16.1204 9 16.3026 9.11273 16.5067 9.35321 16.6379L15.8011 20.3044C16.0716 20.4575 16.267 20.5669 16.5 20.5669ZM17.1989 23.7448C16.9284 23.8979 16.733 23.9999 16.5 23.9999 16.267 23.9999 16.0716 23.8979 15.8011 23.7448L9.35321 20.0783C9.11273 19.9398 9 19.7357 9 19.5534 9 19.3202 9.16533 19.1379 9.30812 19.0651L16.237 22.9357 16.2407 22.9376C16.3368 22.9878 16.4184 23.0304 16.5 23.0304 16.5816 23.0304 16.6632 22.9878 16.7593 22.9376L16.763 22.9357 23.6919 19.0651C23.8347 19.1379 24 19.3202 24 19.5534 24 19.7357 23.8873 19.9398 23.6468 20.0783L17.1989 23.7448Z"/>
	</svg>
	