<?xml version="1.0"?>
	<svg xmlns="http://www.w3.org/2000/svg" 
		width="32" 
		height="32" 
		viewbox="0 0 32 32" 
		code="82636" 
		 transform=""
		><path d="M10.0807 9C9.81715 8.99999 9.58977 8.99998 9.40249 9.01529 9.20481 9.03144 9.0082 9.06709 8.81901 9.16349 8.53677 9.3073 8.3073 9.53677 8.16349 9.81901 8.06709 10.0082 8.03144 10.2048 8.01529 10.4025 7.99998 10.5898 7.99999 10.8172 8 11.0807V12.9193C7.99999 13.1828 7.99998 13.4102 8.01529 13.5975 8.03144 13.7952 8.06709 13.9918 8.16349 14.181 8.3073 14.4632 8.53677 14.6927 8.81901 14.8365 9.0082 14.9329 9.20481 14.9686 9.40249 14.9847 9.58977 15 9.81715 15 10.0807 15H21.9193C22.1828 15 22.4102 15 22.5975 14.9847 22.7952 14.9686 22.9918 14.9329 23.181 14.8365 23.4632 14.6927 23.6927 14.4632 23.8365 14.181 23.9329 13.9918 23.9686 13.7952 23.9847 13.5975 24 13.4102 24 13.1829 24 12.9193V11.0807C24 10.8171 24 10.5898 23.9847 10.4025 23.9686 10.2048 23.9329 10.0082 23.8365 9.81901 23.6927 9.53677 23.4632 9.3073 23.181 9.16349 22.9918 9.06709 22.7952 9.03144 22.5975 9.01529 22.4102 8.99998 22.1828 8.99999 21.9193 9H10.0807ZM9.27301 10.0545C9.29773 10.0419 9.34809 10.0231 9.48392 10.012 9.62559 10.0004 9.81172 10 10.1 10H21.9C22.1883 10 22.3744 10.0004 22.5161 10.012 22.6519 10.0231 22.7023 10.0419 22.727 10.0545 22.8211 10.1024 22.8976 10.1789 22.9455 10.273 22.9581 10.2977 22.9769 10.3481 22.988 10.4839 22.9996 10.6256 23 10.8117 23 11.1V12.9C23 13.1883 22.9996 13.3744 22.988 13.5161 22.9769 13.6519 22.9581 13.7023 22.9455 13.727 22.8976 13.8211 22.8211 13.8976 22.727 13.9455 22.7023 13.9581 22.6519 13.9769 22.5161 13.988 22.3744 13.9996 22.1883 14 21.9 14H10.1C9.81172 14 9.62559 13.9996 9.48392 13.988 9.34809 13.9769 9.29773 13.9581 9.27301 13.9455 9.17892 13.8976 9.10243 13.8211 9.0545 13.727 9.0419 13.7023 9.02306 13.6519 9.01196 13.5161 9.00039 13.3744 9 13.1883 9 12.9V11.1C9 10.8117 9.00039 10.6256 9.01196 10.4839 9.02306 10.3481 9.0419 10.2977 9.0545 10.273 9.10243 10.1789 9.17892 10.1024 9.27301 10.0545ZM10.0807 17C9.81715 17 9.58977 17 9.40249 17.0153 9.20481 17.0314 9.0082 17.0671 8.81901 17.1635 8.53677 17.3073 8.3073 17.5368 8.16349 17.819 8.06709 18.0082 8.03144 18.2048 8.01529 18.4025 7.99998 18.5898 7.99999 18.8172 8 19.0807V20.9193C7.99999 21.1828 7.99998 21.4102 8.01529 21.5975 8.03144 21.7952 8.06709 21.9918 8.16349 22.181 8.3073 22.4632 8.53677 22.6927 8.81901 22.8365 9.0082 22.9329 9.20481 22.9686 9.40249 22.9847 9.58978 23 9.81716 23 10.0807 23H21.9193C22.1828 23 22.4102 23 22.5975 22.9847 22.7952 22.9686 22.9918 22.9329 23.181 22.8365 23.4632 22.6927 23.6927 22.4632 23.8365 22.181 23.9329 21.9918 23.9686 21.7952 23.9847 21.5975 24 21.4102 24 21.1829 24 20.9193V19.0807C24 18.8171 24 18.5898 23.9847 18.4025 23.9686 18.2048 23.9329 18.0082 23.8365 17.819 23.6927 17.5368 23.4632 17.3073 23.181 17.1635 22.9918 17.0671 22.7952 17.0314 22.5975 17.0153 22.4102 17 22.1828 17 21.9193 17H10.0807ZM9.27301 18.0545C9.29773 18.0419 9.34809 18.0231 9.48392 18.012 9.62559 18.0004 9.81172 18 10.1 18H21.9C22.1883 18 22.3744 18.0004 22.5161 18.012 22.6519 18.0231 22.7023 18.0419 22.727 18.0545 22.8211 18.1024 22.8976 18.1789 22.9455 18.273 22.9581 18.2977 22.9769 18.3481 22.988 18.4839 22.9996 18.6256 23 18.8117 23 19.1V20.9C23 21.1883 22.9996 21.3744 22.988 21.5161 22.9769 21.6519 22.9581 21.7023 22.9455 21.727 22.8976 21.8211 22.8211 21.8976 22.727 21.9455 22.7023 21.9581 22.6519 21.9769 22.5161 21.988 22.3744 21.9996 22.1883 22 21.9 22H10.1C9.81172 22 9.62559 21.9996 9.48392 21.988 9.34809 21.9769 9.29773 21.9581 9.27301 21.9455 9.17892 21.8976 9.10243 21.8211 9.0545 21.727 9.0419 21.7023 9.02306 21.6519 9.01196 21.5161 9.00039 21.3744 9 21.1883 9 20.9V19.1C9 18.8117 9.00039 18.6256 9.01196 18.4839 9.02306 18.3481 9.0419 18.2977 9.0545 18.273 9.10243 18.1789 9.17892 18.1024 9.27301 18.0545Z"/>
	</svg>
	