<?xml version="1.0"?>
	<svg xmlns="http://www.w3.org/2000/svg" 
		width="32" 
		height="32" 
		viewbox="0 0 32 32" 
		code="82633" 
		 transform=""
		><path d="M21 8C21.5523 8 22 8.44772 22 9L22 23C22 23.5523 21.5523 24 21 24 20.4477 24 20 23.5523 20 23L20 9C20 8.44772 20.4477 8 21 8ZM15.5 8C16.0523 8 16.5 8.44772 16.5 9L16.5 23C16.5 23.5523 16.0523 24 15.5 24 14.9477 24 14.5 23.5523 14.5 23L14.5 9C14.5 8.44772 14.9477 8 15.5 8ZM11 9C11 8.44772 10.5523 8 10 8 9.44772 8 9 8.44772 9 9L9 23C9 23.5523 9.44771 24 10 24 10.5523 24 11 23.5523 11 23L11 9Z"/>
	</svg>
	