<?xml version="1.0"?>
	<svg xmlns="http://www.w3.org/2000/svg" 
		width="64" 
		height="64" 
		viewbox="0 0 64 64" 
		code="82627" 
		 transform=""
		><path d="M17 44.9193C17 45.1828 17 45.4102 17.0153 45.5975 17.0314 45.7952 17.0671 45.9918 17.1635 46.181 17.3073 46.4632 17.5368 46.6927 17.819 46.8365 18.0082 46.9329 18.2048 46.9686 18.4025 46.9847 18.5898 47 18.8171 47 19.0807 47L44.9193 47C45.1828 47 45.4102 47 45.5975 46.9847 45.7952 46.9686 45.9918 46.9329 46.181 46.8365 46.4632 46.6927 46.6927 46.4632 46.8365 46.181 46.9329 45.9918 46.9686 45.7952 46.9847 45.5975 47 45.4102 47 45.1829 47 44.9193L47 19.0807C47 18.8171 47 18.5898 46.9847 18.4025 46.9686 18.2048 46.9329 18.0082 46.8365 17.819 46.6927 17.5368 46.4632 17.3073 46.181 17.1635 45.9918 17.0671 45.7952 17.0314 45.5975 17.0153 45.4102 17 45.1829 17 44.9193 17L19.0807 17C18.8171 17 18.5898 17 18.4025 17.0153 18.2048 17.0314 18.0082 17.0671 17.819 17.1635 17.5368 17.3073 17.3073 17.5368 17.1635 17.819 17.0671 18.0082 17.0314 18.2048 17.0153 18.4025 17 18.5898 17 18.8172 17 19.0807L17 44.9193ZM46 31V19.1C46 18.8117 45.9996 18.6256 45.988 18.4839 45.9769 18.3481 45.9581 18.2977 45.9455 18.273 45.8976 18.1789 45.8211 18.1024 45.727 18.0545 45.7023 18.0419 45.6519 18.0231 45.5161 18.012 45.3744 18.0004 45.1883 18 44.9 18L19.1 18C18.8117 18 18.6256 18.0004 18.4839 18.012 18.3481 18.0231 18.2977 18.0419 18.273 18.0545 18.1789 18.1024 18.1024 18.1789 18.0545 18.273 18.0419 18.2977 18.0231 18.3481 18.012 18.4839 18.0004 18.6256 18 18.8117 18 19.1L18 31 46 31ZM18 32L46 32 46 44.9C46 45.1883 45.9996 45.3744 45.988 45.5161 45.9769 45.6519 45.9581 45.7023 45.9455 45.727 45.8976 45.8211 45.8211 45.8976 45.727 45.9455 45.7023 45.9581 45.6519 45.9769 45.5161 45.988 45.3744 45.9996 45.1883 46 44.9 46H19.1C18.8117 46 18.6256 45.9996 18.4839 45.988 18.3481 45.9769 18.2977 45.9581 18.273 45.9455 18.1789 45.8976 18.1024 45.8211 18.0545 45.727 18.0419 45.7023 18.0231 45.6519 18.012 45.5161 18.0004 45.3744 18 45.1883 18 44.9L18 32Z"/>
	</svg>
	