<?xml version="1.0"?>
	<svg xmlns="http://www.w3.org/2000/svg" 
		width="64" 
		height="64" 
		viewbox="0 0 64 64" 
		code="82629" 
		 transform=""
		><path d="M18 44.9193C18 45.1828 18 45.4102 18.0153 45.5975 18.0314 45.7952 18.0671 45.9918 18.1635 46.181 18.3073 46.4632 18.5368 46.6927 18.819 46.8365 19.0082 46.9329 19.2048 46.9686 19.4025 46.9847 19.5898 47 19.8172 47 20.0807 47L45.9193 47C46.1828 47 46.4102 47 46.5975 46.9847 46.7952 46.9686 46.9918 46.9329 47.181 46.8365 47.4632 46.6927 47.6927 46.4632 47.8365 46.181 47.9329 45.9918 47.9686 45.7952 47.9847 45.5975 48 45.4102 48 45.1829 48 44.9193L48 19.0807C48 18.8171 48 18.5898 47.9847 18.4025 47.9686 18.2048 47.9329 18.0082 47.8365 17.819 47.6927 17.5368 47.4632 17.3073 47.181 17.1635 46.9918 17.0671 46.7952 17.0314 46.5975 17.0153 46.4102 17 46.1829 17 45.9193 17L20.0807 17C19.8171 17 19.5898 17 19.4025 17.0153 19.2048 17.0314 19.0082 17.0671 18.819 17.1635 18.5368 17.3073 18.3073 17.5368 18.1635 17.819 18.0671 18.0082 18.0314 18.2048 18.0153 18.4025 18 18.5898 18 18.8172 18 19.0807L18 44.9193ZM47 31.5314V25.4313H19L19 31.5314 47 31.5314ZM19 32.5314L47 32.5314V38.7314H19L19 32.5314ZM47 19.1V24.4313L19 24.4313 19 19.1C19 18.8117 19.0004 18.6256 19.012 18.4839 19.0231 18.3481 19.0419 18.2977 19.0545 18.273 19.1024 18.1789 19.1789 18.1024 19.273 18.0545 19.2977 18.0419 19.3481 18.0231 19.4839 18.012 19.6256 18.0004 19.8117 18 20.1 18L45.9 18C46.1883 18 46.3744 18.0004 46.5161 18.012 46.6519 18.0231 46.7023 18.0419 46.727 18.0545 46.8211 18.1024 46.8976 18.1789 46.9455 18.273 46.9581 18.2977 46.9769 18.3481 46.988 18.4839 46.9996 18.6256 47 18.8117 47 19.1ZM19 39.7314H47L47 44.9C47 45.1883 46.9996 45.3744 46.988 45.5161 46.9769 45.6519 46.9581 45.7023 46.9455 45.727 46.8976 45.8211 46.8211 45.8976 46.727 45.9455 46.7023 45.9581 46.6519 45.9769 46.5161 45.988 46.3744 45.9996 46.1883 46 45.9 46L20.1 46C19.8117 46 19.6256 45.9996 19.4839 45.988 19.3481 45.9769 19.2977 45.9581 19.273 45.9455 19.1789 45.8976 19.1024 45.8211 19.0545 45.727 19.0419 45.7023 19.0231 45.6519 19.012 45.5161 19.0004 45.3744 19 45.1883 19 44.9L19 39.7314Z"/>
	</svg>
	