<?xml version="1.0"?>
	<svg xmlns="http://www.w3.org/2000/svg" 
		width="32" 
		height="32" 
		viewbox="0 0 32 32" 
		code="82635" 
		 transform=""
		><path d="M23 10.0807C23 9.81715 23 9.58977 22.9847 9.40249 22.9686 9.20481 22.9329 9.0082 22.8365 8.81902 22.6927 8.53677 22.4632 8.3073 22.181 8.16349 21.9918 8.06709 21.7952 8.03144 21.5975 8.01529 21.4102 7.99998 21.1828 7.99999 20.9193 8L19.0807 8C18.8172 7.99999 18.5898 7.99998 18.4025 8.01529 18.2048 8.03144 18.0082 8.06709 17.819 8.16349 17.5368 8.3073 17.3073 8.53677 17.1635 8.81901 17.0671 9.0082 17.0314 9.20481 17.0153 9.40249 17 9.58977 17 9.81715 17 10.0807L17 21.9193C17 22.1828 17 22.4102 17.0153 22.5975 17.0314 22.7952 17.0671 22.9918 17.1635 23.181 17.3073 23.4632 17.5368 23.6927 17.819 23.8365 18.0082 23.9329 18.2048 23.9686 18.4025 23.9847 18.5898 24 18.8171 24 19.0807 24H20.9193C21.1829 24 21.4102 24 21.5975 23.9847 21.7952 23.9686 21.9918 23.9329 22.181 23.8365 22.4632 23.6927 22.6927 23.4632 22.8365 23.181 22.9329 22.9918 22.9686 22.7952 22.9847 22.5975 23 22.4102 23 22.1828 23 21.9193L23 10.0807ZM21.9455 9.27301C21.9581 9.29773 21.9769 9.34809 21.988 9.48392 21.9996 9.62559 22 9.81172 22 10.1L22 21.9C22 22.1883 21.9996 22.3744 21.988 22.5161 21.9769 22.6519 21.9581 22.7023 21.9455 22.727 21.8976 22.8211 21.8211 22.8976 21.727 22.9455 21.7023 22.9581 21.6519 22.9769 21.5161 22.988 21.3744 22.9996 21.1883 23 20.9 23H19.1C18.8117 23 18.6256 22.9996 18.4839 22.988 18.3481 22.9769 18.2977 22.9581 18.273 22.9455 18.1789 22.8976 18.1024 22.8211 18.0545 22.727 18.0419 22.7023 18.0231 22.6519 18.012 22.5161 18.0004 22.3744 18 22.1883 18 21.9L18 10.1C18 9.81172 18.0004 9.62559 18.012 9.48392 18.0231 9.34809 18.0419 9.29773 18.0545 9.27301 18.1024 9.17892 18.1789 9.10243 18.273 9.0545 18.2977 9.0419 18.3481 9.02306 18.4839 9.01196 18.6256 9.00039 18.8117 9 19.1 9L20.9 9C21.1883 9 21.3744 9.00039 21.5161 9.01196 21.6519 9.02306 21.7023 9.0419 21.727 9.0545 21.8211 9.10243 21.8976 9.17892 21.9455 9.27301ZM15 10.0807C15 9.81715 15 9.58977 14.9847 9.40249 14.9686 9.20481 14.9329 9.0082 14.8365 8.81901 14.6927 8.53677 14.4632 8.3073 14.181 8.16349 13.9918 8.06709 13.7952 8.03144 13.5975 8.01529 13.4102 7.99998 13.1828 7.99999 12.9193 8L11.0807 8C10.8172 7.99999 10.5898 7.99998 10.4025 8.01529 10.2048 8.03144 10.0082 8.06709 9.81901 8.16349 9.53677 8.3073 9.3073 8.53677 9.16349 8.81901 9.06709 9.0082 9.03144 9.20481 9.01529 9.40249 8.99998 9.58977 8.99999 9.81716 9 10.0807L9 21.9193C8.99999 22.1828 8.99998 22.4102 9.01528 22.5975 9.03144 22.7952 9.06709 22.9918 9.16349 23.181 9.3073 23.4632 9.53677 23.6927 9.81901 23.8365 10.0082 23.9329 10.2048 23.9686 10.4025 23.9847 10.5898 24 10.8171 24 11.0807 24H12.9193C13.1829 24 13.4102 24 13.5975 23.9847 13.7952 23.9686 13.9918 23.9329 14.181 23.8365 14.4632 23.6927 14.6927 23.4632 14.8365 23.181 14.9329 22.9918 14.9686 22.7952 14.9847 22.5975 15 22.4102 15 22.1828 15 21.9193L15 10.0807ZM13.9455 9.27301C13.9581 9.29773 13.9769 9.34809 13.988 9.48392 13.9996 9.62559 14 9.81172 14 10.1L14 21.9C14 22.1883 13.9996 22.3744 13.988 22.5161 13.9769 22.6519 13.9581 22.7023 13.9455 22.727 13.8976 22.8211 13.8211 22.8976 13.727 22.9455 13.7023 22.9581 13.6519 22.9769 13.5161 22.988 13.3744 22.9996 13.1883 23 12.9 23H11.1C10.8117 23 10.6256 22.9996 10.4839 22.988 10.3481 22.9769 10.2977 22.9581 10.273 22.9455 10.1789 22.8976 10.1024 22.8211 10.0545 22.727 10.0419 22.7023 10.0231 22.6519 10.012 22.5161 10.0004 22.3744 10 22.1883 10 21.9L10 10.1C10 9.81172 10.0004 9.62559 10.012 9.48392 10.0231 9.34809 10.0419 9.29773 10.0545 9.27301 10.1024 9.17892 10.1789 9.10243 10.273 9.0545 10.2977 9.0419 10.3481 9.02306 10.4839 9.01196 10.6256 9.00039 10.8117 9 11.1 9L12.9 9C13.1883 9 13.3744 9.00039 13.5161 9.01196 13.6519 9.02306 13.7023 9.0419 13.727 9.0545 13.8211 9.10243 13.8976 9.17892 13.9455 9.27301Z"/>
	</svg>
	