<?xml version="1.0"?>
	<svg xmlns="http://www.w3.org/2000/svg" 
		width="32" 
		height="32" 
		viewbox="0 0 32 32" 
		code="82634" 
		 transform=""
		><path d="M8 10C8 9.44772 8.44772 9 9 9H23C23.5523 9 24 9.44772 24 10 24 10.5523 23.5523 11 23 11H9C8.44772 11 8 10.5523 8 10ZM8 15.5C8 14.9477 8.44772 14.5 9 14.5H23C23.5523 14.5 24 14.9477 24 15.5 24 16.0523 23.5523 16.5 23 16.5H9C8.44772 16.5 8 16.0523 8 15.5ZM9 20C8.44772 20 8 20.4477 8 21 8 21.5523 8.44772 22 9 22H23C23.5523 22 24 21.5523 24 21 24 20.4477 23.5523 20 23 20H9Z"/>
	</svg>
	