<?xml version="1.0"?>
	<svg xmlns="http://www.w3.org/2000/svg" 
		width="32" 
		height="32" 
		viewbox="0 0 32 32" 
		code="82637" 
		 transform=""
		><path d="M12.2883 9.05966C13.564 8.85679 15.0124 9.14355 16.5024 10.3499 17.9908 9.14683 19.4374 8.86092 20.7117 9.06357 22.0533 9.27695 23.1369 10.0208 23.8309 10.6365 23.9474 10.7399 24.0042 10.8855 23.9987 11.0299 23.9995 11.042 24 11.0543 24 11.0667V21.5C24 21.7762 23.7761 22 23.5 22 23.3574 22 23.2288 21.9404 23.1377 21.8447 22.5159 21.2992 21.6151 20.7059 20.5546 20.5372 19.5194 20.3726 18.2662 20.6014 16.8856 21.8212 16.8816 21.826 16.8775 21.8308 16.8733 21.8354 16.6886 22.0407 16.3724 22.0574 16.1672 21.8727 14.7657 20.6116 13.4938 20.3749 12.4454 20.5416 11.368 20.713 10.4555 21.3226 9.83281 21.875 9.62811 22.0566 9.31591 22.0397 9.13195 21.8384 9.05002 21.7493 9 21.6305 9 21.4999V11.0617C9 11.0494 9.00044 11.0373 9.00131 11.0252 8.99603 10.8811 9.05283 10.7358 9.16914 10.6326 9.86308 10.0169 10.9467 9.27304 12.2883 9.05966ZM10 11.237C10.6138 10.7265 11.4608 10.2038 12.4454 10.0473 13.4515 9.88725 14.6634 10.0988 15.998 11.2305L15.998 20.4692C14.6866 19.5792 13.4195 19.3741 12.2883 19.554 11.3995 19.6954 10.624 20.0695 10 20.485V11.237ZM16.998 20.4675C18.3109 19.5753 19.5793 19.3696 20.7117 19.5496 21.6005 19.691 22.376 20.0652 23 20.4806V11.2409C22.3862 10.7304 21.5392 10.2078 20.5546 10.0512 19.5475 9.891 18.3343 10.1031 16.998 11.2377L16.998 20.4675Z"/>
	</svg>
	