<?xml version="1.0"?>
	<svg xmlns="http://www.w3.org/2000/svg" 
		width="64" 
		height="64" 
		viewbox="0 0 64 64" 
		code="82639" 
		 transform=""
		><path d="M21.5614 38.6959H42.425C44.7856 38.6959 46 37.4951 46 35.1618V20.5614C46 18.2144 44.7856 17 42.425 17H21.5614C19.2144 17 18 18.2281 18 20.5614V35.1618C18 37.4951 19.2144 38.6959 21.5614 38.6959ZM19.5965 20.6433C19.5965 19.3197 20.2924 18.6101 21.6023 18.6101H42.3977C43.694 18.6101 44.4035 19.3197 44.4035 20.6433V34.2612L37.7992 28.1072C37.2261 27.6296 36.6257 27.3567 35.9435 27.3567 35.2612 27.3567 34.7018 27.6023 34.1287 28.0936L28.7115 32.9376 26.4737 30.8772C25.9825 30.4133 25.4503 30.1813 24.8499 30.1813 24.2904 30.1813 23.8129 30.4133 23.3216 30.8772L19.5965 34.2885V20.6433ZM26.8012 28.0117C28.3294 28.0117 29.6121 26.7427 29.6121 25.1871 29.6121 23.6589 28.3294 22.3899 26.8012 22.3899 25.2456 22.3899 24.0039 23.6589 24.0039 25.1871 24.0039 26.7427 25.2456 28.0117 26.8012 28.0117ZM18.8051 43.308H45.1949C45.6452 43.308 46 42.9532 46 42.5029 46 42.0526 45.6452 41.7115 45.1949 41.7115H18.8051C18.3411 41.7115 18 42.0526 18 42.5029 18 42.9532 18.3411 43.308 18.8051 43.308ZM18.8051 47.9201H36.1754C36.6257 47.9201 36.9805 47.5653 36.9805 47.115 36.9805 46.6647 36.6257 46.3236 36.1754 46.3236H18.8051C18.3411 46.3236 18 46.6647 18 47.115 18 47.5653 18.3411 47.9201 18.8051 47.9201Z"/>
	</svg>
	