<?xml version="1.0"?>
	<svg xmlns="http://www.w3.org/2000/svg" 
		width="64" 
		height="64" 
		viewbox="0 0 64 64" 
		code="82638" 
		 transform=""
		><path d="M21.5614 38.6959H42.425C44.7856 38.6959 46 37.4951 46 35.1618V20.5614C46 18.2144 44.7856 17 42.425 17H21.5614C19.2144 17 18 18.2281 18 20.5614V35.1618C18 37.4951 19.2144 38.6959 21.5614 38.6959ZM26.6238 28.0663C25.0273 28.0663 23.7173 26.7563 23.7173 25.1462 23.7173 23.5634 25.0273 22.2534 26.6238 22.2534 28.2066 22.2534 29.5166 23.5634 29.5166 25.1462 29.5166 26.7563 28.2066 28.0663 26.6238 28.0663ZM21.6433 37.0994C20.3606 37.0994 19.6101 36.3353 19.6101 35.0663V34.5205L23.4581 31.0682C24.0039 30.5906 24.577 30.345 25.1092 30.345 25.6959 30.345 26.2963 30.6043 26.8421 31.0955L29.0799 33.1423 34.8246 28.0936C35.4522 27.5614 36.1345 27.3021 36.8031 27.3021 37.4581 27.3021 38.1949 27.5614 38.768 28.1072L44.4444 33.3879V35.0799C44.4444 36.3353 43.6667 37.0994 42.4113 37.0994H21.6433ZM18.8051 43.308H45.1949C45.6452 43.308 46 42.9532 46 42.5029 46 42.0526 45.6452 41.7115 45.1949 41.7115H18.8051C18.3411 41.7115 18 42.0526 18 42.5029 18 42.9532 18.3411 43.308 18.8051 43.308ZM18.8051 47.9201H36.1754C36.6257 47.9201 36.9805 47.5653 36.9805 47.115 36.9805 46.6647 36.6257 46.3236 36.1754 46.3236H18.8051C18.3411 46.3236 18 46.6647 18 47.115 18 47.5653 18.3411 47.9201 18.8051 47.9201Z"/>
	</svg>
	