<?xml version="1.0"?>
	<svg xmlns="http://www.w3.org/2000/svg" 
		width="24" 
		height="24" 
		viewbox="0 0 24 24" 
		code="82640" 
		 transform=""
		><path d="M7.42456 14.0698H15.77C16.7142 14.0698 17.2 13.6232 17.2 12.7553V7.32466C17.2 6.45171 16.7142 6 15.77 6H7.42456C6.48577 6 6 6.45678 6 7.32466V12.7553C6 13.6232 6.48577 14.0698 7.42456 14.0698ZM6.6386 7.35512C6.6386 6.86281 6.91696 6.59889 7.44094 6.59889H15.7591C16.2776 6.59889 16.5614 6.86281 16.5614 7.35512V12.4203L13.9197 10.1313C13.6904 9.95369 13.4503 9.85218 13.1774 9.85218 12.9045 9.85218 12.6807 9.94354 12.4515 10.1262L10.2846 11.928 9.38947 11.1616C9.19298 10.9891 8.98012 10.9028 8.73996 10.9028 8.51618 10.9028 8.32515 10.9891 8.12865 11.1616L6.6386 12.4305V7.35512ZM9.52047 10.0958C10.1318 10.0958 10.6448 9.62379 10.6448 9.0452 10.6448 8.47676 10.1318 8.00476 9.52047 8.00476 8.89825 8.00476 8.40156 8.47676 8.40156 9.0452 8.40156 9.62379 8.89825 10.0958 9.52047 10.0958ZM6.32203 16.0349H16.878C17.0581 16.0349 17.2 15.9029 17.2 15.7354 17.2 15.568 17.0581 15.4411 16.878 15.4411H6.32203C6.13645 15.4411 6 15.568 6 15.7354 6 15.9029 6.13645 16.0349 6.32203 16.0349ZM6.32203 18H13.2702C13.4503 18 13.5922 17.868 13.5922 17.7006 13.5922 17.5331 13.4503 17.4062 13.2702 17.4062H6.32203C6.13645 17.4062 6 17.5331 6 17.7006 6 17.868 6.13645 18 6.32203 18Z"/>
	</svg>
	