<?xml version="1.0"?>
	<svg xmlns="http://www.w3.org/2000/svg" 
		width="1024" 
		height="1024" 
		viewbox="0 0 1024 1024" 
		code="82641" 
		 transform=""
		><path d="M287.493 381.738c-17.647 0-31.493-13.306-31.493-30.867 0-17.565 13.846-30.87 31.493-30.87s31.493 13.306 31.493 30.87c0 17.562-13.846 30.867-31.493 30.867zM646.272 511.866c0-63.379-18.666-112.896-53.21-145.738 2.509-4.451 3.926-9.638 3.926-15.258 0-17.565-13.846-30.87-31.494-30.87-10.893 0-20.339 5.072-25.974 13.085-23.014-8.618-49.434-13.085-78.95-13.085h-108.598c-11.402 0-18.461 7.184-18.461 18.893v346.214c0 11.709 7.059 18.893 18.461 18.893h108.598c117.558 0 185.702-70.518 185.702-192.134zM458.422 353.005c34.048 0 62.778 7.107 85.699 20.806 2.282 2.032 4.883 3.731 7.728 5.024 36.982 26.099 56.707 71.402 56.707 133.306 0 101.92-53.754 158.867-150.134 158.867h-87.693v-318.003h24.358c1.069 16.496 14.499 28.733 31.424 28.733s30.352-12.237 31.424-28.733h0.486zM736.006 350.87c0-17.565-13.846-30.87-31.494-30.87-17.645 0-31.491 13.306-31.491 30.87 0 17.562 13.846 30.867 31.491 30.867 17.648 0 31.494-13.306 31.494-30.867z"/>
	</svg>
	