<?xml version="1.0"?>
	<svg xmlns="http://www.w3.org/2000/svg" 
		width="32" 
		height="32" 
		viewbox="0 0 32 32" 
		code="82642" 
		 transform=""
		><path d="M19.7109 19.7859C19.6094 20.1153 19.4375 20.2685 19.125 20.2685 18.7969 20.2685 18.625 20.1306 18.5234 19.7859L15.8516 10.8998H15.7891L13.1172 19.7859C13.0078 20.1306 12.8359 20.2685 12.5156 20.2685 12.2031 20.2685 12.0312 20.1153 11.9297 19.7859L9.04688 9.76604C9.00781 9.64348 9 9.56687 9 9.47495 9 9.19151 9.21875 9 9.52344 9 9.80469 9 9.98438 9.14555 10.0547 9.42132L12.5156 18.5526H12.5625L15.1797 9.55921C15.2891 9.16087 15.4766 9 15.8203 9 16.1641 9 16.3516 9.16087 16.4531 9.53623L19.0703 18.5526H19.125L21.5859 9.42132C21.6562 9.13789 21.8359 9 22.1094 9 22.4219 9 22.6406 9.19917 22.6406 9.47495 22.6406 9.56687 22.625 9.65114 22.5859 9.78903L19.7109 19.7859ZM22.6197 22.9408C22.8786 22.5571 23.172 22.1223 23.7778 22.1223 23.9006 22.1223 24 22.2198 24 22.3402 24 22.4607 23.9006 22.5581 23.7778 22.5581 23.4284 22.5581 23.2509 22.795 22.9902 23.1814 22.7314 23.565 22.4378 24 21.8322 24 21.2264 24 20.933 23.5652 20.6742 23.1816 20.4135 22.7952 20.2359 22.5581 19.8867 22.5581 19.538 22.5581 19.3607 22.795 19.1 23.1812 18.8414 23.5651 18.5482 24 17.9425 24 17.3368 24 17.0434 23.5651 16.7847 23.1814 16.5241 22.795 16.3466 22.5581 15.9976 22.5581 15.6489 22.5581 15.4714 22.795 15.2109 23.1814 14.9523 23.565 14.659 24 14.0536 24 13.4484 24 13.1554 23.5655 12.8969 23.1819 12.6364 22.7955 12.4588 22.5581 12.11 22.5581 11.7613 22.5581 11.584 22.795 11.3236 23.1812 11.0649 23.5651 10.7717 24 10.1662 24 9.56084 24 9.26765 23.5652 9.00899 23.1815 8.74857 22.7951 8.57096 22.5581 8.22222 22.5581 8.09939 22.5581 8 22.4607 8 22.3402 8 22.2198 8.09939 22.1223 8.22222 22.1223 8.82762 22.1223 9.12081 22.5572 9.37947 22.9408 9.63988 23.3272 9.81749 23.5642 10.1662 23.5642 10.515 23.5642 10.6925 23.3274 10.9529 22.9409 11.2115 22.5574 11.5048 22.1223 12.11 22.1223 12.7155 22.1223 13.0087 22.5573 13.2671 22.9409 13.5276 23.3274 13.7049 23.5642 14.0536 23.5642 14.4023 23.5642 14.5799 23.3274 14.8403 22.9409 15.0989 22.5573 15.3922 22.1223 15.9976 22.1223 16.6033 22.1223 16.8967 22.5573 17.1554 22.9409 17.416 23.3274 17.5935 23.5642 17.9425 23.5642 18.2914 23.5642 18.4688 23.3274 18.7294 22.9409 18.988 22.5573 19.2813 22.1223 19.8867 22.1223 20.4923 22.1223 20.7857 22.5571 21.0446 22.9407 21.3052 23.3272 21.4829 23.5642 21.8322 23.5642 22.1814 23.5642 22.3591 23.3272 22.6197 22.9408Z"/>
	</svg>
	