<?xml version="1.0"?>
	<svg xmlns="http://www.w3.org/2000/svg" 
		width="64" 
		height="64" 
		viewbox="0 0 64 64" 
		code="82646" 
		 transform=""
		><path d="M19.0514 46C18.402 46 18 45.598 18 44.9486V19.0514C18 18.4174 18.402 18 19.0514 18H44.9486C45.5826 18 46 18.4174 46 19.0514V44.9486C46 45.598 45.5826 46 44.9486 46H19.0514ZM19.9172 20.3192V43.6963C19.9172 43.9746 20.0254 44.0828 20.3037 44.0828H43.6808C43.9591 44.0828 44.0828 43.9746 44.0828 43.6963V20.3192C44.0828 20.0409 43.9591 19.9172 43.6808 19.9172H20.3037C20.0254 19.9172 19.9172 20.0409 19.9172 20.3192ZM32.9091 34.0848L31.9057 35.1011C30.94 34.9355 30.3364 34.5967 29.8611 34.1224 28.0278 32.3007 28.0429 29.7411 29.8536 27.9344L32.4263 25.3598C34.2369 23.553 36.8021 23.538 38.6354 25.3673 40.4612 27.1966 40.4461 29.7486 38.6429 31.5554L36.4248 33.7611C36.5003 33.2718 36.455 32.7147 36.2438 32.2329L37.7225 30.7574C39.0277 29.455 39.0428 27.5956 37.7225 26.2782 36.4022 24.9608 34.5463 24.9683 33.226 26.2782L30.7665 28.7323C29.4613 30.0347 29.4537 31.9017 30.774 33.2191 31.2644 33.7084 31.9132 34.0095 32.9091 34.0848ZM31.0909 29.9143L32.0943 28.898C33.06 29.0636 33.6636 29.4023 34.1389 29.8766 35.9722 31.6984 35.9571 34.258 34.1464 36.0647L31.5662 38.6468C29.7631 40.446 27.1979 40.4611 25.3646 38.6318 23.5388 36.81 23.5539 34.2504 25.3571 32.4437L27.5752 30.238C27.4922 30.7273 27.545 31.2919 27.7562 31.7662L26.2775 33.2417C24.9648 34.5515 24.9572 36.4035 26.2775 37.7284 27.5978 39.0383 29.4537 39.0308 30.7665 37.7209L33.2335 35.2667C34.5387 33.9644 34.5463 32.0974 33.226 30.78 32.7356 30.2907 32.0868 29.9971 31.0909 29.9143Z"/>
	</svg>
	