<?xml version="1.0"?>
	<svg xmlns="http://www.w3.org/2000/svg" 
		width="24" 
		height="24" 
		viewbox="0 0 24 24" 
		code="82649" 
		 transform=""
		><path d="M12 6.625C10.6883 6.625 9.625 7.68832 9.625 9V10.125H10.625V9C10.625 8.24061 11.2406 7.625 12 7.625 12.7594 7.625 13.375 8.24061 13.375 9V10.125H14.375V9C14.375 7.68832 13.3117 6.625 12 6.625ZM9.625 13.125H10.625V15C10.625 15.7594 11.2406 16.375 12 16.375 12.7594 16.375 13.375 15.7594 13.375 15V13.125H14.375V15C14.375 16.3117 13.3117 17.375 12 17.375 10.6883 17.375 9.625 16.3117 9.625 15V13.125ZM12.5 10C12.5 9.72386 12.2761 9.5 12 9.5 11.7239 9.5 11.5 9.72386 11.5 10V14C11.5 14.2761 11.7239 14.5 12 14.5 12.2761 14.5 12.5 14.2761 12.5 14V10Z"/>
	</svg>
	