<?xml version="1.0"?>
	<svg xmlns="http://www.w3.org/2000/svg" 
		width="24" 
		height="24" 
		viewbox="0 0 24 24" 
		code="82647" 
		 transform=""
		><path d="M6.45058 18C6.17228 18 6 17.8277 6 17.5494V6.45058C6 6.17891 6.17228 6 6.45058 6H17.5494C17.8211 6 18 6.17891 18 6.45058V17.5494C18 17.8277 17.8211 18 17.5494 18H6.45058ZM6.82165 6.99393V17.0127C6.82165 17.132 6.86803 17.1784 6.9873 17.1784H17.0061C17.1253 17.1784 17.1784 17.132 17.1784 17.0127V6.99393C17.1784 6.87465 17.1253 6.82165 17.0061 6.82165H6.9873C6.86803 6.82165 6.82165 6.87465 6.82165 6.99393ZM12.3896 12.8935L11.9596 13.329C11.5457 13.2581 11.287 13.1129 11.0833 12.9096 10.2976 12.1289 10.3041 11.0319 11.0801 10.2576L12.1827 9.15418C12.9587 8.37987 14.058 8.37341 14.8437 9.15741 15.6262 9.94141 15.6197 11.0351 14.847 11.8094L13.8964 12.7548C13.9287 12.545 13.9093 12.3063 13.8188 12.0998L14.4525 11.4675C15.0119 10.9093 15.0183 10.1124 14.4525 9.54779 13.8867 8.98319 13.0913 8.98641 12.5254 9.54779L11.4713 10.5996C10.912 11.1577 10.9087 11.9579 11.4746 12.5225 11.6847 12.7322 11.9628 12.8612 12.3896 12.8935ZM11.6104 11.1061L12.0404 10.6706C12.4543 10.7415 12.713 10.8867 12.9167 11.09 13.7024 11.8707 13.6959 12.9677 12.9199 13.742L11.8141 14.8486C11.0413 15.6197 9.94197 15.6262 9.15626 14.8422 8.37379 14.0614 8.38026 12.9645 9.15303 12.1902L10.1036 11.2448C10.0681 11.4546 10.0907 11.6965 10.1812 11.8998L9.5475 12.5321C8.98489 13.0935 8.98166 13.8872 9.5475 14.455 10.1133 15.0164 10.9087 15.0132 11.4713 14.4518L12.5287 13.4C13.088 12.8419 13.0913 12.0417 12.5254 11.4771 12.3153 11.2674 12.0372 11.1416 11.6104 11.1061Z"/>
	</svg>
	