<?xml version="1.0"?>
	<svg xmlns="http://www.w3.org/2000/svg" 
		width="30" 
		height="30" 
		viewbox="0 0 30 30" 
		code="80996" 
		 transform=""
		><path d="M4.01097604 16.2197211L8.86568504 11.3406481C11.5470401 8.64589035 15.8954646 8.64589035 18.5759613 11.3406481 18.9139135 11.6796062 19.1939481 12.0514811 19.4400699 12.4394072L19.6186777 12.7330978 17.3622841 14.9999528C17.2549977 15.1077776 17.1242156 15.1684291 16.996813 15.2425587 16.8392093 14.7076398 16.5668092 14.2005396 16.1485532 13.7801846 14.8578003 12.4821221 12.787673 12.4357627 11.4404808 13.6411065L11.2938442 13.7801846 6.4382769 18.6592575C5.09971829 20.0053425 5.09971829 22.1938628 6.4382769 23.5400017 7.72902984 24.8364526 9.8007533 24.8827545 11.1472899 23.6789072L11.2938442 23.5400017 13.021316 21.8029978C14.3134072 22.3084142 15.6990623 22.4736197 17.0609458 22.3251165L17.4008536 22.2814705 13.7212523 25.9795382C11.0398973 28.6734873 6.69227742 28.6734873 4.01097604 25.9795382 1.3920305 23.3466066 1.33112479 19.1176263 3.82825891 16.4104599L4.01097604 16.2197211 8.86568504 11.3406481 4.01097604 16.2197211ZM25.8595805 4.02106835C28.5401309 6.71593397 28.5401309 11.0853729 25.8596342 13.7801307L21.0032622 18.6592036C18.3227655 21.354824 13.9743409 21.354824 11.2938442 18.6592036 10.871404 18.2363147 10.5411765 17.7595133 10.2511278 17.2675626L12.5075214 14.999845C12.6148078 14.8911576 12.7472529 14.8288348 12.8737972 14.7555679 13.0296843 15.2913494 13.3020844 15.7984495 13.7211987 16.2196132 15.0597573 17.5657521 17.2382074 17.5640809 18.5759077 16.2196132L23.4306167 11.3405403C24.7700336 9.9944014 24.7700336 7.80588112 23.4306167 6.4606048 22.0928628 5.11532849 19.9153246 5.11532849 18.5759077 6.4606048L16.8492406 8.19760867C15.4486705 7.64921166 13.9390974 7.50181514 12.4697566 7.71827346L16.1484996 4.02106835C18.8306592 1.32631055 23.1774208 1.32631055 25.8595805 4.02106835Z"/>
	</svg>
	