<?xml version="1.0"?>
	<svg xmlns="http://www.w3.org/2000/svg" 
		width="24" 
		height="24" 
		viewbox="0 0 24 24" 
		code="82648" 
		 transform=""
		><path d="M9.625 9C9.625 7.68832 10.6883 6.625 12 6.625 13.3117 6.625 14.375 7.68832 14.375 9V10.125H13.375V9C13.375 8.24061 12.7594 7.625 12 7.625 11.2406 7.625 10.625 8.24061 10.625 9V10.125H9.625V9ZM9.625 13.125V15C9.625 16.3117 10.6883 17.375 12 17.375 13.3117 17.375 14.375 16.3117 14.375 15V13.125H13.375V15C13.375 15.7594 12.7594 16.375 12 16.375 11.2406 16.375 10.625 15.7594 10.625 15V13.125H9.625Z"/>
	</svg>
	