<?xml version="1.0"?>
	<svg xmlns="http://www.w3.org/2000/svg" 
		width="24" 
		height="24" 
		viewbox="0 0 24 24" 
		code="82651" 
		 transform=""
		><path d="M4.33221 8.73342L4.62835 7.83801H5.79107L6.08478 8.73342H6.66735L5.52891 5.5H4.91235L3.77148 8.73342H4.33221ZM5.6666 7.42573H4.75148L5.20055 6.05893H5.22239L5.6666 7.42573ZM6.53467 12.675C6.53467 13.2483 6.07104 13.5846 5.37923 13.5846H4.08301V10.3512H5.4035C5.98122 10.3512 6.35504 10.6544 6.35504 11.1471 6.35504 11.5261 6.13658 11.7678 5.80645 11.8578V11.8815C6.22396 11.9288 6.53467 12.206 6.53467 12.675ZM5.09789 11.7178H4.63184V10.7774H5.28966C5.61735 10.7774 5.80912 10.9503 5.80912 11.2369 5.80912 11.5567 5.59065 11.7178 5.09789 11.7178ZM4.63184 13.1585H5.15858C5.73872 13.1585 5.97418 12.9974 5.97418 12.6563 5.97418 12.3223 5.74358 12.1233 5.33335 12.1233H4.63184V13.1585ZM6.53667 17.4292C6.53667 18.0546 6.00265 18.4999 5.272 18.4999 4.41756 18.4999 3.9248 17.9456 3.9248 17.0242V16.6286C3.9248 15.7 4.41756 15.1386 5.272 15.1386 6.00507 15.1386 6.53667 15.5981 6.53667 16.2543V16.2898H6.00022C5.99294 15.8848 5.7065 15.6029 5.27443 15.6029 4.76711 15.6029 4.48068 15.97 4.48068 16.6286V17.0265C4.48068 17.6756 4.76711 18.038 5.27443 18.038 5.7065 18.038 5.99294 17.7727 6.00022 17.3937H6.53667V17.4292ZM20.2289 7.40213C20.2289 7.68457 19.9932 7.90594 19.6818 7.90594H8.77365C8.46223 7.90594 8.22656 7.68457 8.22656 7.40213 8.22656 7.11969 8.46223 6.90594 8.77365 6.90594H19.6818C19.9932 6.90594 20.2289 7.11969 20.2289 7.40213ZM19.6818 12.9059C19.9932 12.9059 20.2289 12.6922 20.2289 12.4098 20.2289 12.1273 19.9932 11.9059 19.6818 11.9059H8.77365C8.46223 11.9059 8.22656 12.1273 8.22656 12.4098 8.22656 12.6922 8.46223 12.9059 8.77365 12.9059H19.6818ZM20.2289 17.4059C20.2289 17.6906 19.9932 17.9059 19.6818 17.9059H8.77365C8.46223 17.9059 8.22656 17.6906 8.22656 17.4059 8.22656 17.1213 8.46223 16.9059 8.77365 16.9059H19.6818C19.9932 16.9059 20.2289 17.1213 20.2289 17.4059Z"/>
	</svg>
	