<?xml version="1.0"?>
	<svg xmlns="http://www.w3.org/2000/svg" 
		width="24" 
		height="24" 
		viewbox="0 0 24 24" 
		code="82653" 
		 transform=""
		><path d="M6 7.01172C6 7.56824 5.55652 8.01172 5 8.01172 4.44348 8.01172 4 7.56824 4 7.01172 4 6.46389 4.44348 6.01172 5 6.01172 5.55652 6.01172 6 6.46389 6 7.01172ZM20.0001 6.94931C20.0001 7.23175 19.7623 7.45312 19.448 7.45312H8.44167C8.12744 7.45312 7.88965 7.23175 7.88965 6.94931 7.88965 6.66687 8.12744 6.45312 8.44167 6.45312H19.448C19.7623 6.45312 20.0001 6.66687 20.0001 6.94931ZM5 13.0039C5.55652 13.0039 6 12.5517 6 12.0039 6 11.4474 5.55652 11.0039 5 11.0039 4.44348 11.0039 4 11.4474 4 12.0039 4 12.5517 4.44348 13.0039 5 13.0039ZM20.0001 11.9413C20.0001 12.2238 19.7623 12.4375 19.448 12.4375H8.44167C8.12744 12.4375 7.88965 12.2238 7.88965 11.9413 7.88965 11.6589 8.12744 11.4375 8.44167 11.4375H19.448C19.7623 11.4375 20.0001 11.6589 20.0001 11.9413ZM5 17.9883C5.55652 17.9883 6 17.5448 6 16.9883 6 16.4318 5.55652 15.9883 5 15.9883 4.44348 15.9883 4 16.4318 4 16.9883 4 17.5448 4.44348 17.9883 5 17.9883ZM20.0001 16.9291C20.0001 17.2137 19.7623 17.4291 19.448 17.4291H8.44167C8.12744 17.4291 7.88965 17.2137 7.88965 16.9291 7.88965 16.6445 8.12744 16.4291 8.44167 16.4291H19.448C19.7623 16.4291 20.0001 16.6445 20.0001 16.9291Z"/>
	</svg>
	