<?xml version="1.0"?>
	<svg xmlns="http://www.w3.org/2000/svg" 
		width="24" 
		height="24" 
		viewbox="0 0 24 24" 
		code="82654" 
		 transform=""
		><path d="M7.01758 6.98779C7.01758 7.40159 6.65504 7.73779 6.22 7.73779H4.79703C4.37105 7.73779 4.01758 7.40159 4.01758 6.98779 4.01758 6.574 4.37105 6.23779 4.79703 6.23779H6.22C6.65504 6.23779 7.01758 6.574 7.01758 6.98779ZM20.473 6.98398C20.473 7.26642 20.2373 7.48779 19.9259 7.48779H9.01779C8.70637 7.48779 8.4707 7.26642 8.4707 6.98398 8.4707 6.70153 8.70637 6.48779 9.01779 6.48779H19.9259C20.2373 6.48779 20.473 6.70153 20.473 6.98398ZM20.473 11.9916C20.473 12.2741 20.2373 12.4878 19.9259 12.4878H9.01779C8.70637 12.4878 8.4707 12.2741 8.4707 11.9916 8.4707 11.7092 8.70637 11.4878 9.01779 11.4878H19.9259C20.2373 11.4878 20.473 11.7092 20.473 11.9916ZM19.9259 17.4878C20.2373 17.4878 20.473 17.2724 20.473 16.9878 20.473 16.7032 20.2373 16.4878 19.9259 16.4878H9.01779C8.70637 16.4878 8.4707 16.7032 8.4707 16.9878 8.4707 17.2724 8.70637 17.4878 9.01779 17.4878H19.9259ZM7.01758 16.9878C7.01758 17.4016 6.65504 17.7378 6.22 17.7378H4.79703C4.37105 17.7378 4.01758 17.4016 4.01758 16.9878 4.01758 16.574 4.37105 16.2378 4.79703 16.2378H6.22C6.65504 16.2378 7.01758 16.574 7.01758 16.9878ZM6.22 12.7378C6.65504 12.7378 7.01758 12.4016 7.01758 11.9878 7.01758 11.574 6.65504 11.2378 6.22 11.2378H4.79703C4.37105 11.2378 4.01758 11.574 4.01758 11.9878 4.01758 12.4016 4.37105 12.7378 4.79703 12.7378H6.22Z"/>
	</svg>
	