<?xml version="1.0"?>
	<svg xmlns="http://www.w3.org/2000/svg" 
		width="24" 
		height="24" 
		viewbox="0 0 24 24" 
		code="82658" 
		 transform=""
		><path d="M6.67948 17H16.6539C17.7697 17 18.3333 16.4478 18.3333 15.3876V8.61789C18.3333 7.55218 17.7697 7 16.6539 7H6.67948C5.56931 7 5 7.54666 5 8.61789V15.3876C5 16.4533 5.56931 17 6.67948 17ZM6.69086 16.3153C6.05323 16.3153 5.70595 15.9895 5.70595 15.349V8.65102C5.70595 8.01601 6.05323 7.6847 6.69086 7.6847H16.6425C17.2687 7.6847 17.6274 8.01601 17.6274 8.65102V15.349C17.6274 15.9895 17.2687 16.3153 16.6425 16.3153H6.69086ZM7.52775 9.86582C7.8181 9.86582 8.05152 9.63943 8.05152 9.36334 8.05152 9.08172 7.8181 8.85533 7.52775 8.85533 7.2431 8.85533 7.00968 9.08724 7.00968 9.36334 7.00968 9.63943 7.2431 9.86582 7.52775 9.86582ZM9.37233 9.6339H16.1187C16.2781 9.6339 16.4034 9.51795 16.4034 9.36334 16.4034 9.20872 16.2781 9.08724 16.1187 9.08724H9.37233C9.21292 9.08724 9.08767 9.20872 9.08767 9.36334 9.08767 9.51795 9.20723 9.6339 9.37233 9.6339ZM7.52775 11.5997C7.8181 11.5997 8.05152 11.3733 8.05152 11.0972 8.05152 10.8156 7.8181 10.5947 7.52775 10.5947 7.2431 10.5947 7.00968 10.8211 7.00968 11.0972 7.00968 11.3733 7.2431 11.5997 7.52775 11.5997ZM9.37233 11.3733H13.2095C13.3689 11.3733 13.4942 11.2518 13.4942 11.0972 13.4942 10.9426 13.3689 10.8211 13.2095 10.8211H9.37233C9.21292 10.8211 9.08767 10.9426 9.08767 11.0972 9.08767 11.2518 9.21292 11.3733 9.37233 11.3733ZM7.52775 13.3335C7.8181 13.3335 8.05152 13.1071 8.05152 12.8255 8.05152 12.5494 7.8181 12.3285 7.52775 12.3285 7.2431 12.3285 7.00968 12.5549 7.00968 12.8255 7.00968 13.1071 7.2431 13.3335 7.52775 13.3335ZM9.37233 13.1016H16.1187C16.2781 13.1016 16.4034 12.9856 16.4034 12.8255 16.4034 12.6764 16.2781 12.5549 16.1187 12.5549H9.37233C9.20723 12.5549 9.08767 12.6764 9.08767 12.8255 9.08767 12.9856 9.20723 13.1016 9.37233 13.1016ZM7.52775 15.1171C7.8181 15.1171 8.05152 14.8907 8.05152 14.6146 8.05152 14.333 7.8181 14.1066 7.52775 14.1066 7.2431 14.1066 7.00968 14.3385 7.00968 14.6146 7.00968 14.8907 7.2431 15.1171 7.52775 15.1171ZM9.37233 14.8907H13.2095C13.3689 14.8907 13.4942 14.7692 13.4942 14.6146 13.4942 14.46 13.3746 14.3385 13.2095 14.3385H9.37233C9.20723 14.3385 9.08767 14.46 9.08767 14.6146 9.08767 14.7692 9.21292 14.8907 9.37233 14.8907Z"/>
	</svg>
	