<?xml version="1.0"?>
	<svg xmlns="http://www.w3.org/2000/svg" 
		width="24" 
		height="24" 
		viewbox="0 0 24 24" 
		code="82657" 
		 transform=""
		><path d="M5.79357 8.52631C5.79357 8.84801 5.61045 9.00473 5.33975 9.00473 5.06905 9.00473 4.88593 8.84801 4.88593 8.52631V6.40638H4.87001L4.51172 6.67859C4.38434 6.76933 4.33657 6.78583 4.24899 6.78583 4.08179 6.78583 3.93848 6.65385 3.93848 6.45588 3.93848 6.29915 4.01013 6.20841 4.16937 6.10118L4.70281 5.71349C4.87797 5.58976 5.02924 5.49902 5.28402 5.49902 5.58657 5.49902 5.79357 5.68874 5.79357 6.0022V8.52631ZM6.39857 13.3254C6.39857 13.5316 6.25526 13.6636 6.06418 13.6636H4.16927C3.93838 13.6636 3.78711 13.5151 3.78711 13.2841 3.78711 13.1191 3.84284 12.9954 3.97819 12.8717L4.95749 12.0221C5.33966 11.6921 5.4352 11.5354 5.4352 11.3292 5.4352 11.1065 5.268 10.9497 5.03711 10.9497 4.82214 10.9497 4.66291 11.057 4.56736 11.2549 4.47978 11.4282 4.36832 11.4859 4.20112 11.4859 3.97819 11.4859 3.82692 11.3622 3.82692 11.123 3.82692 10.6445 4.32851 10.2568 5.02915 10.2568 5.80144 10.2568 6.29507 10.6693 6.29507 11.2714 6.29507 11.7086 6.10399 11.9561 5.59443 12.4015L4.95749 12.9542V12.9707H6.06418C6.26322 12.9707 6.39857 13.1109 6.39857 13.3254ZM5.04537 18.5008C5.90524 18.5008 6.4148 18.0966 6.4148 17.4615 6.4148 17.0326 6.13613 16.7356 5.61862 16.6861V16.6696C6.00875 16.5954 6.28741 16.3314 6.28741 15.8942 6.28741 15.3251 5.76193 14.9951 5.03741 14.9951 4.46416 14.9951 3.84314 15.2838 3.84314 15.7705 3.84314 15.985 3.99441 16.1252 4.20142 16.1252 4.36066 16.1252 4.42435 16.0675 4.52785 15.9437 4.69505 15.7375 4.83836 15.6715 5.03741 15.6715 5.28422 15.6715 5.45938 15.8035 5.45938 16.0427 5.45938 16.2654 5.2683 16.3892 4.95779 16.3892H4.85429C4.65524 16.3892 4.52785 16.5046 4.52785 16.7109 4.52785 16.9006 4.65524 17.0243 4.85429 17.0243H4.96575C5.31607 17.0243 5.50715 17.148 5.50715 17.4037 5.50715 17.6265 5.30811 17.7832 5.04537 17.7832 4.77467 17.7832 4.58359 17.643 4.44824 17.4862 4.36066 17.3872 4.28104 17.3295 4.15365 17.3295 3.93072 17.3295 3.77148 17.4697 3.77148 17.6925 3.77148 18.2121 4.4562 18.5008 5.04537 18.5008ZM20.2289 6.99612C20.2289 7.27856 19.9932 7.49994 19.6818 7.49994H8.77365C8.46223 7.49994 8.22656 7.27856 8.22656 6.99612 8.22656 6.71368 8.46223 6.49994 8.77365 6.49994H19.6818C19.9932 6.49994 20.2289 6.71368 20.2289 6.99612ZM20.2289 12.0038C20.2289 12.2862 19.9932 12.4999 19.6818 12.4999H8.77365C8.46223 12.4999 8.22656 12.2862 8.22656 12.0038 8.22656 11.7213 8.46223 11.4999 8.77365 11.4999H19.6818C19.9932 11.4999 20.2289 11.7213 20.2289 12.0038ZM19.6818 17.4999C19.9932 17.4999 20.2289 17.2846 20.2289 16.9999 20.2289 16.7153 19.9932 16.4999 19.6818 16.4999H8.77365C8.46223 16.4999 8.22656 16.7153 8.22656 16.9999 8.22656 17.2846 8.46223 17.4999 8.77365 17.4999H19.6818Z"/>
	</svg>
	