<?xml version="1.0"?>
	<svg xmlns="http://www.w3.org/2000/svg" 
		width="64" 
		height="64" 
		viewbox="0 0 64 64" 
		code="82656" 
		 transform=""
		><path d="M20.0307 44H43.9693C46.6473 44 48 42.6748 48 40.1303V23.8829C48 21.3252 46.6473 20 43.9693 20H20.0307C17.3664 20 16 21.312 16 23.8829V40.1303C16 42.688 17.3664 44 20.0307 44ZM20.0581 42.3567C18.5278 42.3567 17.6943 41.5748 17.6943 40.0375V23.9625C17.6943 22.4384 18.5278 21.6433 20.0581 21.6433H43.9419C45.4449 21.6433 46.3057 22.4384 46.3057 23.9625V40.0375C46.3057 41.5748 45.4449 42.3567 43.9419 42.3567H20.0581ZM22.0666 26.878C22.7634 26.878 23.3237 26.3346 23.3237 25.672 23.3237 24.9961 22.7634 24.4528 22.0666 24.4528 21.3834 24.4528 20.8232 25.0094 20.8232 25.672 20.8232 26.3346 21.3834 26.878 22.0666 26.878ZM26.4936 26.3214H42.6849C43.0675 26.3214 43.3681 26.0431 43.3681 25.672 43.3681 25.3009 43.0675 25.0094 42.6849 25.0094H26.4936C26.111 25.0094 25.8104 25.3009 25.8104 25.672 25.8104 26.0431 26.0974 26.3214 26.4936 26.3214ZM22.0666 31.0392C22.7634 31.0392 23.3237 30.4959 23.3237 29.8332 23.3237 29.1574 22.7634 28.6273 22.0666 28.6273 21.3834 28.6273 20.8232 29.1706 20.8232 29.8332 20.8232 30.4959 21.3834 31.0392 22.0666 31.0392ZM26.4936 30.4959H35.7028C36.0854 30.4959 36.386 30.2043 36.386 29.8332 36.386 29.4622 36.0854 29.1706 35.7028 29.1706H26.4936C26.111 29.1706 25.8104 29.4622 25.8104 29.8332 25.8104 30.2043 26.111 30.4959 26.4936 30.4959ZM22.0666 35.2004C22.7634 35.2004 23.3237 34.6571 23.3237 33.9812 23.3237 33.3186 22.7634 32.7885 22.0666 32.7885 21.3834 32.7885 20.8232 33.3319 20.8232 33.9812 20.8232 34.6571 21.3834 35.2004 22.0666 35.2004ZM26.4936 34.6438H42.6849C43.0675 34.6438 43.3681 34.3655 43.3681 33.9812 43.3681 33.6234 43.0675 33.3319 42.6849 33.3319H26.4936C26.0974 33.3319 25.8104 33.6234 25.8104 33.9812 25.8104 34.3655 26.0974 34.6438 26.4936 34.6438ZM22.0666 39.4809C22.7634 39.4809 23.3237 38.9376 23.3237 38.275 23.3237 37.5991 22.7634 37.0558 22.0666 37.0558 21.3834 37.0558 20.8232 37.6124 20.8232 38.275 20.8232 38.9376 21.3834 39.4809 22.0666 39.4809ZM26.4936 38.9376H35.7028C36.0854 38.9376 36.386 38.6461 36.386 38.275 36.386 37.9039 36.0991 37.6124 35.7028 37.6124H26.4936C26.0974 37.6124 25.8104 37.9039 25.8104 38.275 25.8104 38.6461 26.111 38.9376 26.4936 38.9376Z"/>
	</svg>
	