<?xml version="1.0"?>
	<svg xmlns="http://www.w3.org/2000/svg" 
		width="1024" 
		height="1024" 
		viewbox="0 0 1024 1024" 
		code="82655" 
		 transform=""
		><path d="M703.509 704c42.848 0 64.491-21.203 64.491-61.915v-259.958c0-40.923-21.643-62.126-64.491-62.126h-383.018c-42.629 0-64.491 20.992-64.491 62.126v259.958c0 40.923 21.862 61.915 64.491 61.915h383.018zM376.006 403.507c0 10.602-8.963 19.296-20.112 19.296-10.931 0-19.894-8.694-19.894-19.296s8.963-19.507 19.894-19.507c11.149 0 20.112 8.693 20.112 19.507zM685.787 413.898h-259.061c-6.341 0-10.931-4.453-10.931-10.39 0-5.936 4.81-10.602 10.931-10.602h259.061c6.12 0 10.93 4.666 10.93 10.602 0 5.938-4.81 10.39-10.93 10.39zM376.006 470.088c0 10.602-8.963 19.294-20.112 19.294-10.931 0-19.894-8.693-19.894-19.294 0-10.603 8.963-19.296 19.894-19.296 11.149 0 20.112 8.482 20.112 19.296zM574.074 480.69h-147.347c-6.122 0-10.931-4.666-10.931-10.602 0-5.938 4.81-10.603 10.931-10.603h147.347c6.122 0 10.931 4.666 10.931 10.603 0 5.936-4.81 10.602-10.931 10.602zM376.006 536.454c0 10.814-8.963 19.509-20.112 19.509-10.931 0-19.894-8.694-19.894-19.509 0-10.389 8.963-19.083 19.894-19.083 11.149 0 20.112 8.482 20.112 19.083zM685.787 547.058h-259.061c-6.341 0-10.931-4.453-10.931-10.603 0-5.725 4.59-10.389 10.931-10.389h259.061c6.12 0 10.93 4.664 10.93 10.389 0 6.15-4.81 10.603-10.93 10.603zM376.006 605.155c0 10.602-8.963 19.296-20.112 19.296-10.931 0-19.894-8.694-19.894-19.296s8.963-19.507 19.894-19.507c11.149 0 20.112 8.693 20.112 19.507zM574.074 615.757h-147.347c-6.122 0-10.931-4.664-10.931-10.602s4.59-10.602 10.931-10.602h147.347c6.339 0 10.931 4.664 10.931 10.602s-4.81 10.602-10.931 10.602z"/>
	</svg>
	