<?xml version="1.0"?>
	<svg xmlns="http://www.w3.org/2000/svg" 
		width="30" 
		height="30" 
		viewbox="0 0 30 30" 
		code="81000" 
		 transform=""
		><path d="M18.5909858 21.69254L19.3358234 19.0909091 19.8611131 19.1443239C24.066985 19.6051568 28.2990239 20.8866788 28.2990239 24.1657989 28.2990239 28.6698407 20.3195123 29.4029364 15.3858159 29.4250745L14.67215 29.4234353C9.72418388 29.3783021 2 28.5971152 2 24.1657989 2 20.7499666 6.59337108 19.5018313 10.9645154 19.0909091L11.7080381 21.69254 11.0849111 21.7522094C7.30093596 22.1490784 4.62990239 23.0742208 4.62990239 24.1657989 4.62990239 25.591522 9.16071873 26.7503593 14.815601 26.7944027L15.1495119 26.7957012C20.961514 26.7957012 25.6691215 25.6193952 25.6691215 24.1657989 25.6691215 23.0152166 22.702756 22.0495493 18.5909858 21.69254ZM15.28125 6.03961325e-14C19.0465376 6.03961325e-14 22.0994318 3.05289418 22.0994318 6.81818182 22.0994318 8.63370028 19.7556818 14.3155185 15.0681818 23.8636364L14.1885472 21.9170361C10.3715612 13.414352 8.46306818 8.38140062 8.46306818 6.81818182 8.46306818 3.05289418 11.5159624 6.03961325e-14 15.28125 6.03961325e-14ZM15.0681818 3.40909091C13.1855114 3.40909091 11.6590909 4.93551136 11.6590909 6.81818182 11.6590909 8.70085227 13.1855114 10.2272727 15.0681818 10.2272727 16.9508523 10.2272727 18.4772727 8.70085227 18.4772727 6.81818182 18.4772727 4.93551136 16.9508523 3.40909091 15.0681818 3.40909091Z"/>
	</svg>
	