<?xml version="1.0"?>
	<svg xmlns="http://www.w3.org/2000/svg" 
		width="1024" 
		height="1024" 
		viewbox="0 0 1024 1024" 
		code="82659" 
		 transform=""
		><path d="M512 288c53.021 0 96 42.979 96 96v64h12.8c17.923 0 26.883 0 33.728 3.488 6.022 3.069 10.915 7.962 13.984 13.984 3.488 6.845 3.488 15.805 3.488 33.728v153.6c0 17.923 0 26.883-3.488 33.728-3.069 6.022-7.962 10.915-13.984 13.984-6.845 3.488-15.805 3.488-33.728 3.488h-217.6c-17.923 0-26.883 0-33.728-3.488-6.022-3.069-10.915-7.962-13.984-13.984-3.488-6.845-3.488-15.805-3.488-33.728v-153.6c0-17.923 0-26.883 3.488-33.728 3.069-6.022 7.962-10.915 13.984-13.984 6.845-3.488 15.805-3.488 33.728-3.488h12.8v-64c0-53.021 42.979-96 96-96zM576 448v-64c0-35.347-28.653-64-64-64s-64 28.653-64 64v64h128z"/>
	</svg>
	