<?xml version="1.0"?>
	<svg xmlns="http://www.w3.org/2000/svg" 
		width="24" 
		height="24" 
		viewbox="0 0 24 24" 
		code="82662" 
		 transform=""
		><path d="M6.45058 18C6.17228 18 6 17.8277 6 17.5494V6.45058C6 6.17891 6.17228 6 6.45058 6H17.5494C17.8211 6 18 6.17891 18 6.45058V17.5494C18 17.8277 17.8211 18 17.5494 18H6.45058ZM6.82165 6.99393V17.0127C6.82165 17.132 6.86803 17.1784 6.9873 17.1784H17.0061C17.1253 17.1784 17.1784 17.132 17.1784 17.0127V6.99393C17.1784 6.87465 17.1253 6.82165 17.0061 6.82165H6.9873C6.86803 6.82165 6.82165 6.87465 6.82165 6.99393ZM7.98624 10.3434C8.02101 10.1935 8.17069 10.1002 8.32056 10.135 8.7161 10.2267 9.34635 10.4905 9.88044 11.0609 10.2219 11.4257 10.5181 11.9095 10.6898 12.5397 10.8461 12.1999 11.051 11.8488 11.3002 11.6079 11.4538 11.4595 11.6444 11.3332 11.87 11.298 12.1061 11.2612 12.3376 11.3307 12.5492 11.4947 12.7538 11.6533 12.943 11.9015 13.1223 12.2381 13.215 12.412 13.3073 12.6137 13.399 12.8456 13.6263 12.4015 13.9646 12.0508 14.4846 11.9261 14.4997 11.9225 14.5147 11.9202 14.5296 11.9191 14.6196 11.5873 14.9228 11.3432 15.2831 11.3432 15.7142 11.3432 16.0637 11.6927 16.0637 12.1238 16.0637 12.5549 15.7142 12.9044 15.2831 12.9044 14.9784 12.9044 14.7145 12.7298 14.5859 12.4752 14.1301 12.5989 13.8461 13.0278 13.6622 13.7414 13.6312 13.862 13.5238 13.9473 13.3994 13.9504 13.2749 13.9534 13.1635 13.8735 13.1265 13.7546 12.9563 13.2074 12.7896 12.7983 12.6306 12.5001 12.4704 12.1994 12.3261 12.0266 12.2079 11.935 12.0967 11.8489 12.0162 11.8391 11.9558 11.8485 11.885 11.8595 11.7946 11.905 11.6875 12.0085 11.4695 12.2192 11.2671 12.5874 11.1103 12.9697 10.9547 13.3494 10.863 13.6953 10.8451 13.8308 10.8259 13.9763 10.6971 14.0819 10.5506 14.0723 10.4042 14.0626 10.2904 13.9411 10.2904 13.7943 10.2904 12.6484 9.91325 11.9111 9.47375 11.4417 9.02805 10.9657 8.50263 10.7491 8.19465 10.6777 8.04478 10.6429 7.95147 10.4932 7.98624 10.3434ZM15.2831 12.4758C15.4775 12.4758 15.6351 12.3182 15.6351 12.1238 15.6351 11.9294 15.4775 11.7718 15.2831 11.7718 15.0887 11.7718 14.9311 11.9294 14.9311 12.1238 14.9311 12.3182 15.0887 12.4758 15.2831 12.4758Z"/>
	</svg>
	