<?xml version="1.0"?>
	<svg xmlns="http://www.w3.org/2000/svg" 
		width="64" 
		height="64" 
		viewbox="0 0 64 64" 
		code="82661" 
		 transform=""
		><path d="M17.0514 46C16.402 46 16 45.598 16 44.9486V19.0514C16 18.4174 16.402 18 17.0514 18H47.9486C48.5826 18 49 18.4174 49 19.0514V44.9486C49 45.598 48.5826 46 47.9486 46H17.0514ZM17.9172 20.3192V43.6963C17.9172 43.9746 18.0254 44.0828 18.3037 44.0828H46.6808C46.9591 44.0828 47.0828 43.9746 47.0828 43.6963V20.3192C47.0828 20.0409 46.9591 19.9172 46.6808 19.9172H18.3037C18.0254 19.9172 17.9172 20.0409 17.9172 20.3192ZM22.6346 28.1345C22.7157 27.7848 23.065 27.5671 23.4147 27.6482 24.3376 27.8624 25.8081 28.4779 27.0544 29.8088 27.8512 30.6599 28.5422 31.7888 28.9429 33.2593 29.3076 32.4664 29.7858 31.6472 30.3672 31.0852 30.7255 30.7389 31.1702 30.4441 31.6966 30.362 32.2475 30.2761 32.7878 30.4383 33.2815 30.8209 33.7588 31.1909 34.2003 31.7702 34.6188 32.5555 34.8351 32.9614 35.0503 33.432 35.2643 33.973 35.7946 32.9368 38.584 31.1185 39.7975 30.8275 39.8325 30.8191 39.8676 30.8137 39.9025 30.8112 40.1123 30.0369 40.82 29.4675 41.6606 29.4675 42.6665 29.4675 43.482 30.2829 43.482 31.2889 43.482 32.2948 42.6665 33.1103 41.6606 33.1103 40.9496 33.1103 40.3337 32.7029 40.0337 32.1088 38.9704 32.3975 36.3077 34.3981 35.8786 36.0633 35.806 36.3446 35.5556 36.5437 35.2652 36.5508 34.9747 36.558 34.7148 36.3716 34.6285 36.0941 34.2313 34.8173 33.8423 33.8627 33.4715 33.1669 33.0977 32.4654 32.7608 32.0622 32.4851 31.8484 32.2256 31.6473 32.0379 31.6245 31.8969 31.6465 31.7316 31.6723 31.5207 31.7782 31.2707 32.0199 30.7621 32.5115 30.2898 33.3707 29.9241 34.2626 29.5609 35.1485 29.3471 35.9557 29.3052 36.272 29.2603 36.6114 28.9598 36.8578 28.6181 36.8353 28.2765 36.8128 28.0109 36.5291 28.0109 36.1867 28.0109 33.5128 27.1309 31.7926 26.1054 30.6974 25.0655 29.5867 23.8395 29.0813 23.1208 28.9146 22.7711 28.8335 22.5534 28.4842 22.6346 28.1345ZM41.6606 32.1103C42.1142 32.1103 42.482 31.7425 42.482 31.2889 42.482 30.8352 42.1142 30.4675 41.6606 30.4675 41.2069 30.4675 40.8392 30.8352 40.8392 31.2889 40.8392 31.7425 41.2069 32.1103 41.6606 32.1103Z"/>
	</svg>
	