<?xml version="1.0"?>
	<svg xmlns="http://www.w3.org/2000/svg" 
		width="32" 
		height="32" 
		viewbox="0 0 32 32" 
		code="82663" 
		 transform=""
		><path d="M6.21484 20.0002H11.3285V19.0627H7.27166V11.2729H6.21484V20.0002ZM11.6874 12.2104H14.4317V20.0002H15.4886V12.2104H18.2329V11.2729H11.6874V12.2104ZM20.2239 20.0002H21.2807V16.5911H23.1898C23.2665 16.5911 23.339 16.5911 23.4114 16.5869L25.2523 20.0002H26.4796L24.5066 16.3951C25.6188 16.0158 26.1387 15.1082 26.1387 13.9491 26.1387 12.4065 25.2182 11.2729 23.1728 11.2729H20.2239V20.0002ZM21.2807 15.6366V12.2104H23.1387C24.5535 12.2104 25.0989 12.9008 25.0989 13.9491 25.0989 14.9974 24.5535 15.6366 23.1557 15.6366H21.2807Z"/>
	</svg>
	