<?xml version="1.0"?>
	<svg xmlns="http://www.w3.org/2000/svg" 
		width="32" 
		height="32" 
		viewbox="0 0 32 32" 
		code="82664" 
		 transform=""
		><path d="M17.3522 10H22C22.5523 10 23 10.4477 23 11V21C23 21.5523 22.5523 22 22 22H18V19.7539C18.5693 19.6009 19.0251 19.393 19.3822 19.1787 19.7328 18.9683 19.9835 18.7548 20.1504 18.5878 20.2338 18.5044 20.2963 18.4327 20.3398 18.379 20.3616 18.3521 20.3786 18.3296 20.3912 18.3124 20.3975 18.3038 20.4027 18.2965 20.4069 18.2906L20.4122 18.2829 20.4143 18.2798 20.4152 18.2785C20.4154 18.2782 20.416 18.2773 20 17.9999L20.416 18.2773C20.5692 18.0475 20.5071 17.7371 20.2774 17.5839 20.049 17.4317 19.741 17.492 19.5869 17.7183L19.5848 17.7211C19.5813 17.7258 19.574 17.7356 19.5625 17.7498 19.5397 17.778 19.5005 17.8235 19.4433 17.8807 19.329 17.9951 19.1422 18.1565 18.8678 18.3212 18.6435 18.4557 18.3575 18.5944 18 18.7111V16H16.0136C16.0825 14.6846 16.403 13.2142 16.7324 12.0066 16.9169 11.3298 17.1016 10.7451 17.24 10.33 17.2822 10.2034 17.32 10.0926 17.3522 10ZM16.2959 10H10C9.44772 10 9 10.4477 9 11V21C9 21.5523 9.44772 22 10 22H17V19.9434C16.6912 19.9796 16.3583 19.9999 16 19.9999 14.4121 19.9999 13.3228 19.6017 12.6178 19.1787 12.2672 18.9683 12.0165 18.7548 11.8496 18.5878 11.7662 18.5044 11.7037 18.4327 11.6602 18.379 11.6384 18.3521 11.6214 18.3296 11.6088 18.3124 11.6025 18.3038 11.5973 18.2965 11.5931 18.2906L11.5878 18.2829 11.5857 18.2798 11.5848 18.2785C11.5846 18.2782 11.584 18.2773 12 17.9999L11.584 18.2773C11.4308 18.0475 11.4929 17.7371 11.7226 17.5839 11.951 17.4317 12.259 17.492 12.4132 17.7183L12.4152 17.7211C12.4187 17.7258 12.426 17.7356 12.4375 17.7498 12.4603 17.778 12.4995 17.8235 12.5567 17.8807 12.671 17.9951 12.8578 18.1565 13.1322 18.3212 13.6772 18.6481 14.5879 18.9999 16 18.9999 16.3663 18.9999 16.6988 18.9762 17 18.9355V17H15V16.5C15 14.932 15.3894 13.1302 15.7676 11.7434 15.9581 11.0452 16.1484 10.4424 16.2913 10.0138 16.2928 10.0092 16.2943 10.0046 16.2959 10ZM8 11C8 9.89543 8.89543 9 10 9H22C23.1046 9 24 9.89543 24 11V21C24 22.1046 23.1046 23 22 23H10C8.89543 23 8 22.1046 8 21V11ZM19.5 15C19.2239 15 19 14.7761 19 14.5V13.5C19 13.2239 19.2239 13 19.5 13 19.7761 13 20 13.2239 20 13.5V14.5C20 14.7761 19.7761 15 19.5 15ZM12 14.5C12 14.7761 12.2239 15 12.5 15 12.7761 15 13 14.7761 13 14.5V13.5C13 13.2239 12.7761 13 12.5 13 12.2239 13 12 13.2239 12 13.5V14.5Z"/>
	</svg>
	