<?xml version="1.0"?>
	<svg xmlns="http://www.w3.org/2000/svg" 
		width="64" 
		height="64" 
		viewbox="0 0 64 64" 
		code="82666" 
		 transform=""
		><path d="M18.4158 45.4079C18.7437 45.4079 19.0715 45.2924 19.4888 45.0758L27.1341 41.0036 35.2712 45.5668C35.7779 45.8556 36.2996 46 36.7914 46 37.2683 46 37.7452 45.87 38.2072 45.6101L45.9121 41.3069C46.6721 40.8881 47 40.3393 47 39.4874V20.0505C47 19.1264 46.4784 18.6065 45.5842 18.6065 45.2563 18.6065 44.9285 18.7076 44.5261 18.9242L36.6572 23.1264 28.6841 18.4188C28.2072 18.1444 27.7004 18 27.1937 18 26.6721 18 26.1505 18.1444 25.6736 18.4188L18.1028 22.7076C17.3428 23.1264 17 23.6606 17 24.5271V43.9495C17 44.8736 17.5216 45.4079 18.4158 45.4079ZM26.389 39.2708L19.2951 43.083C19.2206 43.1264 19.1461 43.1552 19.0715 43.1552 18.9374 43.1552 18.848 43.0542 18.848 42.8809V24.9603C18.848 24.5993 18.9672 24.3538 19.3249 24.1516L25.8823 20.3827C26.0611 20.296 26.2101 20.2094 26.389 20.1372V39.2708ZM28.237 39.4296V20.3394C28.386 20.3971 28.5499 20.4838 28.699 20.5704L35.7779 24.7437V43.6462C35.5842 43.574 35.3756 43.4729 35.1967 43.3718L28.237 39.4296ZM37.611 43.8339V24.657L44.7049 20.917C44.7794 20.8736 44.854 20.8448 44.9285 20.8448 45.0626 20.8448 45.1669 20.9458 45.1669 21.1191V39.0542C45.1669 39.4007 45.0328 39.6607 44.69 39.8628L38.2221 43.5307C38.0134 43.6462 37.8197 43.7473 37.611 43.8339Z"/>
	</svg>
	