<?xml version="1.0"?>
	<svg xmlns="http://www.w3.org/2000/svg" 
		width="64" 
		height="64" 
		viewbox="0 0 64 64" 
		code="82665" 
		 transform=""
		><path d="M27.8644 41.5031L35.301 45.7235C35.5395 45.8545 35.763 45.9563 35.9866 46V22.6861L28.7288 18.3638C28.4605 18.1892 28.1475 18.0582 27.8644 18V41.5031ZM17 44.0499C17 44.9667 17.5514 45.4906 18.4605 45.4906 18.7884 45.4906 19.1311 45.3888 19.5335 45.1705L26.1207 41.6341V18.1455C25.8525 18.2474 25.5395 18.3929 25.2563 18.553L18.1326 22.6279C17.3726 23.0499 17 23.6029 17 24.4761V44.0499ZM37.7154 45.9563C37.8942 45.8981 38.073 45.8254 38.237 45.7235L45.8674 41.4158C46.6274 40.9938 47 40.4553 47 39.5821V19.9938C47 19.0624 46.4337 18.553 45.5544 18.553 45.2265 18.553 44.8838 18.6549 44.4814 18.8586L37.7154 22.5114V45.9563Z"/>
	</svg>
	