<?xml version="1.0"?>
	<svg xmlns="http://www.w3.org/2000/svg" 
		width="30" 
		height="30" 
		viewbox="0 0 30 30" 
		code="81006" 
		 transform=""
		><path d="M5.26086957 9.13043478L24.826087 9.13043478C26.5546344 9.13043478 27.9851565 10.5013518 28.0817579 12.2072904L28.0869565 12.3913043 28.0869565 25.7544757C28.0869565 27.4830232 26.7160395 28.9135453 25.0101009 29.0101466L24.826087 29.0153453 5.26086957 29.0153453C3.53232207 29.0153453 2.10180001 27.6444283 2.00519867 25.9384896L2 25.7544757 2 12.3913043C2 10.6627569 3.37091698 9.2322348 5.07685564 9.13563345L5.26086957 9.13043478ZM23.8295251 12.3899723L23.7391304 12.455243 15.0434783 19.8081841 6.34782609 12.455243C6.02813299 12.1675192 5.51662404 12.1994885 5.22890026 12.5511509 4.96515345 12.8442029 4.97003765 13.2984335 5.24355286 13.5937241L5.32480818 13.6700767 11.5268542 18.9130435 5.29283887 24.7953964C4.97314578 25.0831202 4.97314578 25.5946292 5.26086957 25.9143223 5.42071611 26.0741688 5.61253197 26.1700767 5.83631714 26.1700767 5.98976982 26.1700767 6.14322251 26.129156 6.28030691 26.0309463L6.3797954 25.9462916 12.741688 19.9680307 14.5319693 21.4705882C14.6598465 21.5984655 14.8516624 21.6624041 15.0434783 21.6624041 15.1969309 21.6624041 15.3299233 21.6214834 15.4588235 21.5396419L15.5549872 21.4705882 17.3452685 19.9680307 23.7071611 25.9462916C23.8670077 26.1061381 24.0588235 26.1700767 24.2506394 26.1700767 24.4424552 26.1700767 24.6662404 26.0741688 24.826087 25.9143223 25.087654 25.6236922 25.1114329 25.1745366 24.8734044 24.8550837L24.7941176 24.7634271 18.5601023 18.9130435 24.7621483 13.6700767C25.1138107 13.3823529 25.1457801 12.9028133 24.8580563 12.5511509 24.5943095 12.2287937 24.1693841 12.1750675 23.8295251 12.3899723ZM5.26086957 3.91304348L24.826087 3.91304348C26.5546344 3.91304348 27.9851565 5.26191999 28.0817579 6.94043199L28.0869565 7.12148749 28.0869565 11.034531C28.0869565 9.27303229 26.6163683 7.82608696 24.826087 7.82608696L5.26086957 7.82608696C3.47058824 7.82608696 2 9.27303229 2 11.034531L2 7.12148749C2 5.42073015 3.37091698 4.01320683 5.07685564 3.91815857L5.26086957 3.91304348ZM24.826087 3.79696274e-13C26.5546344 3.79696274e-13 27.9851565 1.34887651 28.0817579 3.02738851L28.0869565 3.20844401 28.0869565 5.81713966C28.0869565 4.05564099 26.6163683 2.60869565 24.826087 2.60869565L5.26086957 2.60869565C3.47058824 2.60869565 2 4.05564099 2 5.81713966L2 3.20844401C2 1.50768667 3.37091698 0.100163357 5.07685564 0.00511508682L5.26086957 3.79696274e-13 24.826087 3.79696274e-13Z"/>
	</svg>
	