<?xml version="1.0"?>
	<svg xmlns="http://www.w3.org/2000/svg" 
		width="30" 
		height="30" 
		viewbox="0 0 30 30" 
		code="81007" 
		 transform=""
		><path d="M2.19512195 7.31707317L2.19512195 24.8780488C2.19512195 26.4878049 3.51219512 27.804878 5.12195122 27.804878L22.6829268 27.804878 22.6829268 28.5365854C22.6829268 29.3414634 22.0243902 30 21.2195122 30L1.46341463 30C0.658536585 30 3.55271368e-15 29.3414634 3.55271368e-15 28.5365854L3.55271368e-15 8.7804878C3.55271368e-15 7.97560976 0.658536585 7.31707317 1.46341463 7.31707317L2.19512195 7.31707317ZM5.85365854 3.65853659L5.85365854 21.2195122C5.85365854 22.771777 7.07833499 24.0518915 8.60918056 24.1413483L8.7804878 24.1463415 26.3414634 24.1463415 26.3414634 24.8780488C26.3414634 25.6355811 25.758123 26.2634822 25.0184627 26.3347316L24.8780488 26.3414634 5.12195122 26.3414634C4.36441894 26.3414634 3.73651785 25.758123 3.66526835 25.0184627L3.65853659 24.8780488 3.65853659 5.12195122C3.65853659 4.36441894 4.24187695 3.73651785 4.98153729 3.66526835L5.12195122 3.65853659 5.85365854 3.65853659ZM28.5365854 0C29.3414634 0 30 0.658536585 30 1.46341463L30 16.4634146 20.195122 9.29268293C20.195122 9.29268293 20.1585366 9.25609756 20.1585366 9.25609756 20.1219512 9.25609756 20.1219512 9.2195122 20.0853659 9.2195122 20.0487805 9.2195122 20.0487805 9.2195122 20.0121951 9.18292683 19.9756098 9.18292683 19.9756098 9.14634146 19.9390244 9.14634146L19.6463415 9.14634146C19.6097561 9.14634146 19.5731707 9.14634146 19.5731707 9.18292683 19.5731707 9.18292683 19.5365854 9.18292683 19.5365854 9.2195122 19.5121951 9.2195122 19.504065 9.23577236 19.4905149 9.24661247L19.4634146 9.25609756C19.4268293 9.25609756 19.4268293 9.29268293 19.4268293 9.29268293 19.3902439 9.29268293 19.3902439 9.32926829 19.3536585 9.32926829L19.2804878 9.40243902 9.14634146 22.6829268 8.7804878 22.6829268C7.97560976 22.6829268 7.31707317 22.0243902 7.31707317 21.2195122L7.31707317 1.46341463C7.31707317 0.658536585 7.97560976 0 8.7804878 0L28.5365854 0ZM19.902439 10.902439L30 18.2926829 30 21.2195122C30 21.9770445 29.4166596 22.6049456 28.6769993 22.6761951L28.5365854 22.6829268 10.9756098 22.6829268 19.902439 10.902439ZM12.4390244 2.19512195C10.8292683 2.19512195 9.51219512 3.51219512 9.51219512 5.12195122 9.51219512 6.73170732 10.8292683 8.04878049 12.4390244 8.04878049 14.0487805 8.04878049 15.3658537 6.73170732 15.3658537 5.12195122 15.3658537 3.51219512 14.0487805 2.19512195 12.4390244 2.19512195ZM12.4390244 3.65853659C13.2439024 3.65853659 13.902439 4.31707317 13.902439 5.12195122 13.902439 5.92682927 13.2439024 6.58536585 12.4390244 6.58536585 11.6341463 6.58536585 10.9756098 5.92682927 10.9756098 5.12195122 10.9756098 4.31707317 11.6341463 3.65853659 12.4390244 3.65853659Z"/>
	</svg>
	