<?xml version="1.0"?>
	<svg xmlns="http://www.w3.org/2000/svg" 
		width="32" 
		height="32" 
		viewbox="0 0 32 32" 
		code="82667" 
		 transform=""
		><path d="M21.9846 22C23.3237 22 24 21.3374 24 20.0652V11.9415C24 10.6626 23.3237 10 21.9846 10H10.0154C8.68318 10 8 10.656 8 11.9415V20.0652C8 21.344 8.68318 22 10.0154 22H21.9846ZM9 20V12.1869C9 11.4069 9.40783 11 10.1566 11H21.8434C22.5788 11 23 11.4069 23 12.1869V19.9729L19.256 16.4461C18.9351 16.1748 18.6075 16.0121 18.2197 16.0121 17.8319 16.0121 17.5177 16.1477 17.1968 16.4393L14.1547 19.1929 12.8978 18.0264C12.617 17.7619 12.3228 17.6262 11.9885 17.6262 11.6743 17.6262 11.4069 17.7619 11.1261 18.0128L9 20ZM14.6269 14.519C14.6269 15.3804 13.9028 16.0828 13.0215 16.0828 12.1333 16.0828 11.4092 15.3804 11.4092 14.519 11.4092 13.6642 12.1333 12.9552 13.0215 12.9552 13.9028 12.9552 14.6269 13.6642 14.6269 14.519Z"/>
	</svg>
	