<?xml version="1.0"?>
	<svg xmlns="http://www.w3.org/2000/svg" 
		width="32" 
		height="32" 
		viewbox="0 0 32 32" 
		code="82668" 
		 transform=""
		><path d="M23.4753 13.0121C23.7654 13.0121 24 12.7879 24 12.5091 24 12.2242 23.7654 12 23.4753 12H8.51852C8.2284 12 8 12.2242 8 12.5091 8 12.7879 8.2284 13.0121 8.51852 13.0121H23.4753ZM23.4753 16.509C23.7654 16.509 24 16.2848 24 15.9999 24 15.7151 23.7654 15.4908 23.4753 15.4908H8.51852C8.2284 15.4908 8 15.7151 8 15.9999 8 16.2848 8.2284 16.509 8.51852 16.509H23.4753ZM24 19.4847C24 19.7756 23.7654 19.9998 23.4753 19.9998H8.51852C8.2284 19.9998 8 19.7756 8 19.4847 8 19.2059 8.2284 18.9817 8.51852 18.9817H23.4753C23.7654 18.9817 24 19.2059 24 19.4847Z"/>
	</svg>
	