<?xml version="1.0"?>
	<svg xmlns="http://www.w3.org/2000/svg" 
		width="30" 
		height="30" 
		viewbox="0 0 30 30" 
		code="81011" 
		 transform=""
		><path d="M21.637037 10.0740741L21.6481481 10.0777778C25.4390322 10.387617 28.6360719 13.0251704 29.6606659 16.688094 30.6852599 20.3510176 29.3206905 24.2645455 26.2407407 26.4962963 26.7370381 27.418762 27.480981 28.1819303 28.3862196 28.7014531L28.637037 28.837037 28.4196126 28.9367287C27.6252181 29.2752922 24.8553086 30.2204938 22.5666667 28.0666667 21.8339841 28.2003222 21.0878518 28.2450901 20.3444444 28.2 17.1065596 27.9691006 14.237814 26.0283498 12.8188363 23.1088095 11.3998587 20.1892693 11.6462254 16.7344873 13.4651326 14.0458465 15.2840398 11.3572057 18.3991522 9.8431746 21.637037 10.0740741ZM20.8814815 20.0777603L16.8814815 20.0777603C16.674561 20.0767924 16.4757774 20.1583014 16.3291137 20.30427 16.2117828 20.4210449 16.1355486 20.5713721 16.1097481 20.7327765L16.1 20.8555556C16.1 21.2871559 16.4498812 21.637037 16.8814815 21.637037L20.8814815 21.637037C21.2757886 21.6351683 21.6007487 21.3415163 21.6521705 20.9612561L21.6592593 20.8555556C21.6551957 20.4288963 21.3081601 20.0851658 20.8814815 20.0851852L20.8814815 20.0777603ZM9.46666667 1.37015402C13.9954048 1.36759538 17.8358087 4.6979456 18.4740741 9.18148148 13.8800812 10.301201 10.649279 14.4196703 10.6555556 19.1481481L10.6555556 19.4814815C10.2589217 19.533557 9.85929702 19.5595388 9.45925926 19.5592593 8.9053411 19.5588943 8.35255062 19.5093167 7.80740741 19.4111111 5.1037037 21.9518519 1.72592593 20.1777778 1.72592593 20.1777778 2.74562787 19.6601396 3.58296092 18.8434814 4.12592593 17.837037 0.91333406 15.5319186-0.439472762 11.4136762 0.780404047 7.65253037 2.00028086 3.89138454 5.51268811 1.35110855 9.46666667 1.37015402ZM25.6962963 16.6185185L16.8074074 16.6185185C16.6004846 16.6185185 16.4020904 16.7009686 16.2561219 16.8476322 16.139347 16.9649632 16.0638263 17.1156509 16.0387889 17.277176L16.0296208 17.4C16.0296208 17.6062795 16.1115738 17.8041103 16.2574355 17.9499719 16.4032971 18.0958336 16.6011279 18.1777778 16.8074074 18.1777778L25.6962963 18.1777778C25.9025758 18.1777778 26.1004066 18.0958336 26.2462682 17.9499719 26.3629575 17.8332826 26.4387397 17.6833331 26.464385 17.5224057L26.4740741 17.4C26.4720354 16.9718923 26.1244089 16.6259211 25.6962963 16.6259259L25.6962963 16.6185185ZM8.67777778 11.4037037L4.67407407 11.4037037C4.27976696 11.4055725 3.95480684 11.6992244 3.90338506 12.0794847L3.8962963 12.1851852C3.8962963 12.3914647 3.97824051 12.5892955 4.12410213 12.7351571 4.26996376 12.8810188 4.46779458 12.962963 4.67407407 12.962963L8.67777778 12.962963C8.88405727 12.962963 9.08188809 12.8810188 9.22774972 12.7351571 9.34443902 12.6184678 9.42022118 12.4685182 9.44586646 12.3075909L9.45555556 12.1851852C9.45555556 11.7550271 9.10793099 11.4057424 8.67777778 11.4037037ZM13.5592593 7.94812988L4.67037037 7.94812988C4.2766118 7.94812988 3.95119456 8.2407507 3.89969279 8.62038591L3.89259259 8.72592593C3.88859925 8.93540412 3.96928785 9.13763401 4.11638879 9.28682643 4.26348972 9.43601884 4.46456038 9.51955427 4.67407407 9.51853738L13.562963 9.51853738C13.7698858 9.51853738 13.96828 9.43606844 14.1142485 9.28940479 14.2310234 9.17207387 14.3065441 9.02138615 14.3316177 8.85986103L14.3408958 8.73703704C14.343727 8.52819539 14.2625926 8.32692851 14.1156025 8.17854508 13.9686123 8.03016165 13.7681198 7.94713221 13.5592593 7.94812988Z"/>
	</svg>
	