<?xml version="1.0"?>
	<svg xmlns="http://www.w3.org/2000/svg" 
		width="30" 
		height="30" 
		viewbox="0 0 30 30" 
		code="81014" 
		 transform=""
		><path d="M23.9489559 27.7102654L23.9489559 2.36339767C23.9489559 1.91096147 23.9176334 1.47244639 23.687935 1.06177354 23.3225058 0.407481192 22.6160093 0.00724917387 21.87471 0.00014217533 21.787703 0.00014217533 21.7041763 0.00014217533 21.6171694 0.00014217533L9.67285383 0.00014217533C9.14733179 0.00014217533 8.64965197-0.0136324967 8.15197216 0.229986993 7.38979118 0.602376784 7 1.39588026 7 2.21374569L7 27.1360195C7 27.3622376 7.00696056 27.5849754 7.01044084 27.8111935 7.01392111 28.9701262 7.94315545 29.9167619 9.10556845 29.930683 10.1600928 29.9446042 11.2215777 29.930683 12.2761021 29.930683L21.8051044 29.930683C22.1635731 29.930683 22.5046404 29.8610775 22.8283063 29.7009847 23.5313225 29.3599174 23.9593968 28.6081772 23.9698376 27.842516 23.9663573 27.7972724 23.9593968 27.7520288 23.9489559 27.7102654ZM15.4918794 27.4457643C14.4721578 27.4457643 13.6473318 26.6209383 13.6473318 25.6012167 13.6473318 24.5814951 14.4721578 23.7566691 15.4918794 23.7566691 16.5116009 23.7566691 17.3364269 24.5814951 17.3364269 25.6012167 17.3364269 26.617458 16.5116009 27.4457643 15.4918794 27.4457643ZM19.2157773 2.24158792C19.2053364 2.27987098 19.1983759 2.32163432 19.187935 2.35643711 19.1844548 2.36687794 19.1740139 2.39123989 19.1670534 2.40864129 19.1635731 2.41212156 19.1635731 2.41560184 19.1600928 2.41908212 19.1566125 2.42952296 19.1531323 2.43648351 19.1531323 2.43648351 19.1426914 2.4538849 19.1322506 2.47476658 19.1218097 2.49216797 19.1113689 2.51304964 19.0974478 2.53393131 19.0835267 2.55481298 19.0800464 2.55481298 19.0348028 2.61397771 19.0243619 2.62441855 18.9965197 2.65226077 18.9721578 2.67662272 18.9443155 2.70098467 18.9408353 2.70446495 18.937355 2.70794523 18.937355 2.70794523 19.0313225 2.65226077 18.9025522 2.74274801 18.937355 2.70794523 18.9338747 2.71142551 18.9303944 2.71142551 18.9269142 2.71490579 18.8886311 2.73926774 18.8468677 2.76014941 18.812065 2.78451135 18.8051044 2.78799163 18.787703 2.79843247 18.7772622 2.80191275 18.7842227 2.79843247 18.7946636 2.79495219 18.8016241 2.79147191 18.7807425 2.79843247 18.7737819 2.80191275 18.7703016 2.80539303 18.7703016 2.80539303 18.7737819 2.80191275 18.7772622 2.80191275 18.7320186 2.81931414 18.6867749 2.82975497 18.638051 2.84367609 18.6241299 2.84715637 18.6171694 2.85063664 18.6102088 2.85063664 18.6206497 2.85063664 18.6310905 2.85063664 18.6415313 2.84715637 18.6276102 2.85063664 18.5962877 2.8575972 18.5928074 2.8575972 18.5928074 2.8575972 18.599768 2.85411692 18.6102088 2.85063664 18.5719258 2.85411692 18.537123 2.85411692 18.4988399 2.85411692L18.4849188 2.85411692C18.4640371 2.85411692 18.4466357 2.85411692 18.4257541 2.85411692 18.3317865 2.85411692 18.237819 2.85411692 18.1403712 2.85411692L17.0962877 2.85411692C15.5614849 2.85411692 14.0266821 2.87847887 12.4953596 2.85411692 12.4779582 2.85411692 12.4605568 2.85411692 12.4396752 2.85411692 12.4222738 2.85411692 12.4048724 2.85411692 12.3839907 2.85063664 12.3944316 2.84715637 12.2726218 2.82279442 12.2552204 2.81931414 12.2552204 2.81931414 12.2134571 2.80191275 12.1890951 2.79495219 12.2064965 2.80539303 12.2099768 2.80539303 12.1890951 2.79843247 12.1577726 2.78451135 12.1682135 2.78799163 12.1890951 2.79495219 12.1612529 2.7775508 12.1020882 2.74622829 12.0916473 2.74274801 12.0916473 2.74274801 12.0568445 2.71838606 12.0359629 2.70446495 12.0464037 2.71490579 12.049884 2.71838606 12.0359629 2.70794523 12.0081206 2.68706356 12.0185615 2.69402412 12.0359629 2.70446495 12.0150812 2.68358328 11.962877 2.63833966 11.9559165 2.62789883 11.9559165 2.62789883 11.924594 2.59309604 11.9106729 2.57221437 11.9211137 2.58961576 11.924594 2.59309604 11.9106729 2.57917493 11.8897912 2.55481298 11.8967517 2.55829326 11.9106729 2.57221437 11.8932715 2.54437214 11.8549884 2.49216797 11.8515081 2.48172713 11.8480278 2.47476658 11.837587 2.45040463 11.8271462 2.42952296L11.8201856 2.41560184C11.8201856 2.41212156 11.8167053 2.40864129 11.8132251 2.40516101 11.8132251 2.40168073 11.8097448 2.40168073 11.8097448 2.39820045 11.8097448 2.39820045 11.8097448 2.39820045 11.8097448 2.39820045 11.7993039 2.37035822 11.7923434 2.33903572 11.7819026 2.31119349 11.7784223 2.30075265 11.7645012 2.22070625 11.7610209 2.22070625 11.7610209 2.23114709 11.7610209 2.24158792 11.7645012 2.25202876 11.7610209 2.23114709 11.7610209 2.22070625 11.7610209 2.22070625 11.7575406 2.18938374 11.7575406 2.15806124 11.7575406 2.12673873 11.7575406 2.11281762 11.7575406 2.09889651 11.7575406 2.08497539 11.7575406 1.85527702 11.7575406 1.62209836 11.7575406 1.39239999L19.2157773 1.39239999 19.2157773 1.98404732C19.2157773 2.03277122 19.2192575 2.07801484 19.2192575 2.12325845 19.2192575 2.15110068 19.1948956 2.31467377 19.2157773 2.24158792Z"/>
	</svg>
	