<?xml version="1.0"?>
	<svg xmlns="http://www.w3.org/2000/svg" 
		width="32" 
		height="32" 
		viewbox="0 0 32 32" 
		code="82670" 
		 transform=""
		><path d="M8.4209 19.7894V12.2104C8.4209 11.4808 9.09272 10.9473 9.8609 10.9473H22.1388C22.907 10.9473 23.5788 11.4808 23.5788 12.2104V19.7894C23.5788 20.519 22.907 21.0525 22.1388 21.0525H9.8609C9.09272 21.0525 8.4209 20.519 8.4209 19.7894ZM9.85209 11.7935C9.51959 11.826 9.263 12.0475 9.263 12.3157V19.6841L9.26824 19.7501C9.30975 20.0095 9.5928 20.2104 9.93669 20.2104H22.063L22.1476 20.2063C22.4801 20.1738 22.7367 19.9523 22.7367 19.6841V12.3157L22.7314 12.2497C22.6899 11.9903 22.4069 11.7894 22.063 11.7894H9.93669L9.85209 11.7935ZM11.7893 14.7367C11.7893 14.5042 11.6008 14.3157 11.3683 14.3157 11.1357 14.3157 10.9472 14.5042 10.9472 14.7367V17.2631C10.9472 17.4956 11.1357 17.6841 11.3683 17.6841 11.6008 17.6841 11.7893 17.4956 11.7893 17.2631V14.7367ZM20.6313 16.7219C20.1656 16.7219 19.7892 16.3447 19.7892 15.8798 19.7892 15.415 20.1656 15.0377 20.6313 15.0377 21.097 15.0377 21.4734 15.415 21.4734 15.8798 21.4734 16.3447 21.097 16.7219 20.6313 16.7219Z"/>
	</svg>
	