<?xml version="1.0"?>
	<svg xmlns="http://www.w3.org/2000/svg" 
		width="64" 
		height="64" 
		viewbox="0 0 64 64" 
		code="82671" 
		 transform=""
		><path d="M20.1567 44H44.8433C47.605 44 49 42.6748 49 40.1303V23.8829C49 21.3252 47.605 20 44.8433 20H20.1567C17.4091 20 16 21.312 16 23.8829V40.1303C16 42.688 17.4091 44 20.1567 44ZM20.1849 42.3567C18.6067 42.3567 17.7472 41.5748 17.7472 40.0375V23.9625C17.7472 22.4384 18.6067 21.6433 20.1849 21.6433H44.8151C46.3651 21.6433 47.2528 22.4384 47.2528 23.9625V40.0375C47.2528 41.5748 46.3651 42.3567 44.8151 42.3567H20.1849ZM19.3817 39.0834C19.3817 40.1171 20.1144 40.8062 21.1994 40.8062H43.8147C44.8856 40.8062 45.6183 40.1171 45.6183 39.0834V24.8901C45.6183 23.8564 44.8856 23.1673 43.8147 23.1673H21.1994C20.1144 23.1673 19.3817 23.8564 19.3817 24.8901V39.0834Z"/>
	</svg>
	