<?xml version="1.0"?>
	<svg xmlns="http://www.w3.org/2000/svg" 
		width="64" 
		height="64" 
		viewbox="0 0 64 64" 
		code="82672" 
		 transform=""
		><path d="M20.1567 44H44.8433C47.605 44 49 42.6748 49 40.1303V23.8829C49 21.3252 47.605 20 44.8433 20H20.1567C17.4091 20 16 21.312 16 23.8829V40.1303C16 42.688 17.4091 44 20.1567 44ZM20.1849 42.3567C18.6067 42.3567 17.7472 41.5748 17.7472 40.0375V23.9625C17.7472 22.4384 18.6067 21.6433 20.1849 21.6433H44.8151C46.3651 21.6433 47.2528 22.4384 47.2528 23.9625V40.0375C47.2528 41.5748 46.3651 42.3567 44.8151 42.3567H20.1849ZM23.1298 36.4859C23.1298 37.5594 23.8907 38.275 25.0179 38.275H39.9962C41.1234 38.275 41.8843 37.5594 41.8843 36.4859V27.4876C41.8843 26.4141 41.1234 25.6985 39.9962 25.6985H25.0179C23.8907 25.6985 23.1298 26.4141 23.1298 27.4876V36.4859Z"/>
	</svg>
	