<?xml version="1.0"?>
	<svg xmlns="http://www.w3.org/2000/svg" 
		width="983" 
		height="1024" 
		viewbox="0 0 983 1024" 
		code="82673" 
		 transform=""
		><path d="M704.304 634.88c-21.57 37.356-52.589 68.379-89.944 89.948s-79.729 32.928-122.864 32.932c-43.139 0.004-85.514-11.346-122.874-32.907s-68.386-52.576-89.962-89.928l212.807-122.925 212.836 122.88zM491.5 266.24c43.135 0 85.512 11.353 122.868 32.919 37.36 21.566 68.383 52.584 89.952 89.939 21.574 37.353 32.932 79.726 32.94 122.865 0.008 43.135-11.342 85.512-32.899 122.872l-212.861-122.835v-245.76zM278.666 634.88c-21.568-37.356-32.923-79.733-32.926-122.868s11.349-85.512 32.913-122.87c21.564-37.358 52.581-68.384 89.934-89.957s79.725-32.936 122.86-32.945l0.053 245.76-212.834 122.88z"/>
	</svg>
	