<?xml version="1.0"?>
	<svg xmlns="http://www.w3.org/2000/svg" 
		width="30" 
		height="30" 
		viewbox="0 0 30 30" 
		code="81016" 
		 transform=""
		><path d="M12.6937021 11.590561L24.721519 15C25.0253165 15.0759494 25.2911392 15.3037975 25.4050633 15.6075949 25.5949367 16.0632911 25.3670886 16.556962 24.9493671 16.7848101L21.4556962 18.5696203 28.9746835 26.1265823C29.7683544 26.9202532 29.808038 28.159462 29.0937342 28.9651282L28.9746835 29.0886076C28.1772152 29.8860759 26.8101266 29.8860759 26.0126582 29.0506329L18.4556962 21.5316456 16.6329114 24.9493671C16.4810127 25.2151899 16.2151899 25.443038 15.9113924 25.4810127 15.4177215 25.556962 14.9620253 25.2531646 14.8481013 24.7974684L11.6202532 12.7594937C11.5443038 12.4177215 11.6202532 12.0759494 11.8860759 11.8481013 12.0886076 11.6455696 12.411158 11.533052 12.6937021 11.590561ZM11.1265823-7.46069873e-14C16.7245744-7.46069873e-14 21.4056541 4.10776803 22.178157 9.61999307L22.2151899 9.91139241 22.2243938 10.0170914C22.2386437 10.4691628 21.9296867 10.8723774 21.4917938 10.9596123L21.3797468 10.9746835 21.3417722 10.9746835C20.8860759 11.0097371 20.4627369 10.6888623 20.340568 10.251004L20.3164557 10.1392405 20.3164557 10.1012658C19.556962 3.4556962 11.8481013-0.911392405 4.89873418 4.02531646 4.82278481 4.06329114 4.74683544 4.10126582 4.70886076 4.17721519-1.3789557 11.1669304 3.31765065 19.6441522 10.1874112 20.261606L10.4050633 20.278481 10.5249333 20.301971C10.9536825 20.4095861 11.2590356 20.7493533 11.2799502 21.1832361L11.278481 21.3417722C11.2432188 21.835443 10.8477784 22.19814 10.3658016 22.2170305L10.2531646 22.2151899 9.96748365 22.1905863C4.3696097 21.6339346 1.95399252e-14 16.8025316 1.95399252e-14 11.1265823 1.95399252e-14 5.01265823 4.97468354-7.46069873e-14 11.1265823-7.46069873e-14ZM16.698575 7.45254604L16.8227848 7.67088608 16.8761257 7.77787893C17.0426819 8.17620691 16.8934277 8.63309576 16.5433935 8.89547888L16.443038 8.96202532 16.3360451 9.01536618C15.9377171 9.18192241 15.4808283 9.03266825 15.2184452 8.68263397L15.1518987 8.58227848 15.0463007 8.3980549C14.0613859 6.76675924 12.1546112 5.86437613 10.1772152 6.30379747 8.69620253 6.60759494 7.48101266 7.67088608 6.94936709 9.07594937 6.06559264 11.3590334 7.14576141 13.7849496 9.15109353 14.7955283L9.34177215 14.8860759 9.44342086 14.939426C9.83318725 15.1704294 10.0176911 15.6066954 9.87736189 16.0329972L9.83544304 16.1392405 9.78209304 16.2408892C9.5510896 16.6306556 9.1148236 16.8151594 8.68852179 16.6748302L8.58227848 16.6329114 8.37556894 16.5372284C5.58021183 15.1826832 4.01265823 11.9222423 5.05063291 8.73417722 5.69620253 6.6835443 7.40506329 5.05063291 9.53164557 4.51898734 12.2860759 3.76777906 15.0742031 4.93728539 16.5628611 7.23395522L16.698575 7.45254604 16.698575 7.45254604Z"/>
	</svg>
	