<?xml version="1.0"?>
	<svg xmlns="http://www.w3.org/2000/svg" 
		width="32" 
		height="32" 
		viewbox="0 0 32 32" 
		code="82674" 
		 transform=""
		><path d="M16.3817 9.17358C16.29 9.06475 16.1527 8.99561 15.9992 8.99561 15.8435 8.99561 15.7045 9.06672 15.6128 9.17822L13.7944 10.9967C13.5991 11.1919 13.5991 11.5085 13.7944 11.7038 13.9896 11.899 14.3062 11.899 14.5015 11.7038L15.4992 10.7061V15.5002H10.7051L11.7032 14.502C11.8985 14.3068 11.8985 13.9902 11.7032 13.7949 11.508 13.5997 11.1914 13.5997 10.9961 13.7949L9.14449 15.6466C8.94923 15.8418 8.94923 16.1584 9.14449 16.3537L10.9961 18.2053C11.1914 18.4006 11.508 18.4006 11.7032 18.2053 11.8985 18.01 11.8985 17.6935 11.7032 17.4982L10.7052 16.5002H15.4992V21.294L14.5015 20.2963C14.3062 20.1011 13.9896 20.1011 13.7944 20.2963 13.5991 20.4916 13.5991 20.8082 13.7944 21.0035L15.6126 22.8217C15.7043 22.9333 15.8434 23.0045 15.9992 23.0045 16.1528 23.0045 16.2902 22.9353 16.3819 22.8263L18.2048 21.0035C18.4 20.8082 18.4 20.4916 18.2048 20.2963 18.0095 20.1011 17.6929 20.1011 17.4977 20.2963L16.4992 21.2948V16.5002H21.2933L20.2954 17.4982C20.1001 17.6934 20.1001 18.01 20.2954 18.2053 20.4906 18.4005 20.8072 18.4005 21.0025 18.2053L22.8541 16.3536C23.0494 16.1584 23.0494 15.8418 22.8541 15.6465L21.0025 13.7949C20.8072 13.5996 20.4906 13.5996 20.2954 13.7949 20.1001 13.9901 20.1001 14.3067 20.2954 14.502L21.2936 15.5002H16.4992V10.7053L17.4977 11.7038C17.6929 11.899 18.0095 11.899 18.2048 11.7038 18.4 11.5085 18.4 11.1919 18.2048 10.9967L16.3817 9.17358Z"/>
	</svg>
	