<?xml version="1.0"?>
	<svg xmlns="http://www.w3.org/2000/svg" 
		width="30" 
		height="30" 
		viewbox="0 0 30 30" 
		code="81019" 
		 transform=""
		><path d="M2.42124496 7.17146261L19.5489629 7.17146261C20.0502631 7.17146261 20.4604602 7.60340183 20.5129251 8.16166242L20.5185949 8.2831118 20.5185949 22.45541C20.5185949 23.0301584 20.1418179 23.5004131 19.6548928 23.5605593L19.5489629 23.5670592 9.68981246 23.5670592 4.92245494 29.0322581 4.92245494 23.5670592 2.42124496 23.5670592C1.91994399 23.5670592 1.50974757 23.1351211 1.45728272 22.5768596L1.4516129 22.45541 1.4516129 8.2831118C1.4516129 7.70836458 1.82838926 7.23810888 2.31531495 7.17796255L2.42124496 7.17146261 19.5489629 7.17146261 2.42124496 7.17146261ZM10.9349081 1.4516129L28.062626 1.4516129C28.5639274 1.4516129 28.9741234 1.88355207 29.0265883 2.4418126L29.0322581 2.56326196 29.0322581 16.7355602C29.0322581 17.3103074 28.6554821 17.7805631 28.1685561 17.8407094L28.062626 17.8472094 25.5614163 17.8472094 25.5614163 23.3124082 21.7722606 18.9686522 21.7722606 12.1971437 24.062894 12.1971437 24.9982458 14.7730349 26.4416758 14.7730349 22.5300915 4.73024254 20.9568884 4.73024254 20.4194281 6.10878505C20.2092295 6.01300474 19.9805841 5.94824052 19.7356674 5.92616605L19.5489629 5.91779692 9.96527603 5.91779692 9.96527603 2.56326178C9.96527603 1.98851497 10.3420531 1.51825918 10.8289782 1.45811284L10.9349081 1.4516129 28.062626 1.4516129 10.9349081 1.4516129ZM9.88518122 10.3927938L9.52208954 10.3900982C9.55355028 10.5391258 9.5698354 10.7034256 9.5698354 10.8822598 9.5698354 11.150511 9.53726579 11.5076465 9.47434117 11.9547313 9.44288043 12.0739536 9.42781764 12.1632378 9.42781764 12.2228496 9.19185164 12.2725251 8.89046083 12.3014724 8.52344353 12.3097416L8.29535635 12.3122222 7.58772036 12.3122222 7.44402765 12.3052927C7.38601426 12.3006459 7.31791241 12.293635 7.23980418 12.2841786L7.11514732 12.2681496 6.59605137 12.2681496C6.54361419 12.3426638 6.5461829 12.4476617 6.60311761 12.5840832L6.64379723 12.6697144 6.64379723 12.7150156 6.67522916 12.779407 6.67522916 12.779407 6.73806725 12.9378352 6.92660666 13.2965497C6.96855556 13.3164161 7.00370877 13.3293818 7.03180495 13.3358182L7.06862379 13.3406223 7.77625915 13.3406223 8.04040764 13.3336929C8.14101374 13.3290461 8.25419258 13.3220352 8.37999259 13.3125787L8.57816452 13.2965497 9.2836129 13.2956129 9.23927635 13.6540406 9.23388907 14.0365844C9.22673342 14.2684496 9.21250432 14.4539723 9.19153049 14.5930657 8.4364395 14.9209275 7.85471104 15.2780642 7.44570323 15.6655372 6.62768789 16.4404843 6.17577559 17.2544374 6.09020001 18.1065491L6.07695492 18.3038673 6.07695492 18.4826124C6.13594645 19.3767818 6.48561979 19.8773434 7.12535045 19.9855394L7.25716382 20.0019474 7.44570323 20.0019474C7.94909702 20.0019474 8.53082611 19.7781248 9.19153049 19.3310407L9.36519085 19.2383169C9.46334427 19.181311 9.57848531 19.1082654 9.71062644 19.0188485 9.77355106 19.1678767 9.85252698 19.2714289 9.94691296 19.3310407 10.0098376 19.3012354 10.1201595 19.2714734 10.2774695 19.2416675 10.5606293 19.0926373 10.7800472 19.0033557 10.9373577 18.9735498 10.8115091 18.7649103 10.7024127 18.511327 10.608026 18.2132698 11.5518896 17.1104615 12.2276549 16.0080669 12.6366627 14.9052579 12.8018387 14.9276119 12.9404523 14.9586555 13.052528 14.9979289L13.1557587 15.0399286 13.2035045 15.0399286C13.4552017 15.0995404 13.6432754 15.1733311 13.7691234 15.2627482 14.3411614 15.6691889 14.6666908 16.1744765 14.7447873 16.7780373L14.7607924 16.9620532 14.7607924 17.1407983C14.7293304 17.7667166 14.4297112 18.3179139 13.8633928 18.7948046 13.2970744 19.1524729 12.6213091 19.3917871 11.8347561 19.51101 11.9920666 19.6103615 12.2037357 19.7608346 12.4702023 19.9634705L12.6366615 20.09132 12.8729442 20.3153663 12.9194678 20.3153663C13.202627 20.3153663 13.5812221 20.1808286 14.0531539 19.9125773 15.1739915 19.2419498 15.78288 18.414237 15.8805356 17.4292647L15.8932505 17.2301734 15.8932505 16.916757C15.8932505 16.1120045 15.5309412 15.3679709 14.8073122 14.6824408 14.3353804 14.2949672 13.7223059 14.0711452 12.9672149 14.0115334L13.0637725 13.754128C13.0726239 13.7326849 13.0808425 13.7136249 13.0884214 13.6969451L13.1092314 13.6540431 13.0614855 13.5193719 11.9290242 13.3406267C11.8535144 13.3644709 11.8183526 13.4172498 11.8234162 13.4984497L11.8347542 13.5646706 11.8347542 13.8327883 11.7990835 13.9445158C11.7910796 13.9742989 11.7870084 13.9966305 11.7870084 14.0115334L11.2173501 14.0917725C11.0403124 14.1191265 10.8372481 14.1519573 10.6080242 14.1902792L10.4424106 14.2234904C10.3949988 14.2307836 10.3554525 14.2343518 10.3239905 14.2343518L10.3805473 13.5479744 10.3805473 13.5479744 10.4182605 13.1618803 10.6545471 13.1618803C11.3152518 13.0724631 11.9670256 12.9576902 12.6099919 12.8178725L13.2500268 12.6697181 13.2500268 11.5972466C12.6207844 11.7760808 11.9136731 11.9093943 11.1271201 11.9988114 10.9383475 12.0584238 10.7653348 12.0894082 10.6080242 12.0894082 10.6080242 12.0596029 10.623087 11.9988559 10.6545477 11.9094388 10.6860097 11.5815764 10.7336402 11.3434853 10.7965642 11.1944576 10.7965642 11.1348458 10.8279096 11.0610551 10.8908342 10.971638 10.9852215 10.7629986 11.0165643 10.5986988 10.9851036 10.4794764L10.7963823 10.4721145C10.7209012 10.4672318 10.63284 10.4599457 10.5321799 10.450332L10.3717383 10.4341752C10.1829654 10.4118208 10.0208207 10.3982047 9.88518122 10.3927938ZM9.19152924 15.6202391C9.19152861 16.2401969 9.22201255 16.8411531 9.28253174 17.4229893L9.33354574 17.8557796 9.38006927 17.9904508C9.31714529 18.0202567 9.20804754 18.1250331 9.05073694 18.3038673L8.95524272 18.3932398 8.95524272 18.3932398C8.54623491 18.7211016 8.1538037 18.8841772 7.77625852 18.8841772 7.36725071 18.8841772 7.16289255 18.6758474 7.16289255 18.2585685 7.16289255 17.9009009 7.25692939 17.6032869 7.44570198 17.3648422 7.80926447 16.7024944 8.30929761 16.1689038 8.94625219 15.765437L9.19152861 15.6202391 9.19152924 15.6202391ZM11.5984696 14.8611815C11.3782337 15.5169057 10.9695174 16.2324022 10.371737 17.0073494 10.3402763 17.0073494 10.3239912 16.7382732 10.3239912 16.2017714L10.3239912 15.1733738C10.3869145 15.1435741 10.4345469 15.1293018 10.4660077 15.1293011 10.6862429 15.0398847 11.0636138 14.9506005 11.5984696 14.8611815ZM21.7404294 6.069608L23.6307216 11.067131 21.7722606 11.067131 21.7722606 8.2831118C21.7722606 7.88794867 21.6718461 7.49847493 21.4925357 7.15225486L21.3964054 6.9829232 21.7404294 6.069608Z"/>
	</svg>
	