<?xml version="1.0"?>
	<svg xmlns="http://www.w3.org/2000/svg" 
		width="30" 
		height="30" 
		viewbox="0 0 30 30" 
		code="81020" 
		 transform=""
		><path d="M28.9898763 2.7594909899999998L28.9898763 22.0025309C28.9898763 22.98655 28.4796444 23.8156775 27.4591799 24.4899125 26.4387154 25.1641475 25.1995808 25.5012655 23.7417745 25.5012655 22.2839681 25.5012655 21.0448335 25.1641475 20.024369 24.4899125 19.0039045 23.8156775 18.4936727 22.98655 18.4936727 22.0025309 18.4936727 21.0185118 19.0039045 20.1893844 20.024369 19.5151493 21.0448335 18.8409143 22.2839681 18.5037964 23.7417745 18.5037964 24.2884517 18.5037964 24.8715744 18.5766864 25.4911417 18.7224673L25.4911417 8.608937789999999 11.4962036 12.7090173 11.4962036 25.5012655C11.4962036 26.4852846 10.9859718 27.314412 9.96550724 27.988647 8.94504273 28.6628821 7.70590814 29 6.2481018 29 4.79029547 29 3.55116088 28.6628821 2.5306963600000003 27.988647 1.5102318399999999 27.314412 1 26.4852846 1 25.5012655 1 24.5172464 1.5102318399999999 23.6881189 2.5306963600000003 23.0138839 3.55116088 22.3396489 4.79029547 22.0025309 6.2481018 22.0025309 6.79477907 22.0025309 7.37790177 22.075421 7.99746907 22.2212018L7.99746907 7.95292507C7.99746907 7.55202868 8.10680452 7.19668845 8.325475430000001 6.88690439 8.544146340000001 6.57712032 8.83570727 6.36756098 9.20015907 6.25822553L26.6938317 1.06479145C27.2769544 0.919010567 27.8054086 1.01923529 28.2791958 1.36546395 28.7529831 1.71169261 28.9898763 2.17636829 28.9898763 2.7594909899999998Z"/>
	</svg>
	