<?xml version="1.0"?>
	<svg xmlns="http://www.w3.org/2000/svg" 
		width="1024" 
		height="1024" 
		viewbox="0 0 1024 1024" 
		code="82675" 
		 transform=""
		><path d="M688.082 704h-352.163c-42.544 0-63.918-21.483-63.918-64.661v-254.678c0-43.178 21.374-64.661 63.918-64.661h352.163c42.747 0 63.918 21.693 63.918 64.661v254.678c0 42.968-21.171 64.661-63.918 64.661zM719.227 416v-12.506h-414.454v12.506h414.454zM368 355.171h-32v24h32v-24zM512 359.171h-32v16h32v-16zM576 359.171h-32v16h32v-16zM688 359.171h-80v16h80v-16z"/>
	</svg>
	