<?xml version="1.0"?>
	<svg xmlns="http://www.w3.org/2000/svg" 
		width="64" 
		height="64" 
		viewbox="0 0 64 64" 
		code="82676" 
		 transform=""
		><path d="M43.0051 20C45.6768 20 47 21.3558 47 24.0413L47 39.9587C47 42.6442 45.6768 44 43.0051 44L20.9949 44C18.3359 44 17 42.6573 17 39.9587L17 24.0413C17 21.3427 18.3359 20 20.9949 20L43.0051 20ZM44.9517 26.2184L19.0483 26.2184 19.0483 39.8544C19.0483 41.2102 19.7481 41.9011 21.0204 41.9011L42.9796 41.9011C44.2392 41.9011 44.9517 41.2102 44.9517 39.8544L44.9517 26.2184ZM23 22.1982L21 22.1982 21 23.6982 23 23.6982 23 22.1982ZM32 22.4482L30 22.4482 30 23.4482 32 23.4482 32 22.4482ZM36 22.4482L34 22.4482 34 23.4482 36 23.4482 36 22.4482ZM43 22.4482L38 22.4482 38 23.4482 43 23.4482 43 22.4482Z"/>
	</svg>
	