<?xml version="1.0"?>
	<svg xmlns="http://www.w3.org/2000/svg" 
		width="24" 
		height="24" 
		viewbox="0 0 24 24" 
		code="82677" 
		 transform=""
		><path d="M16.402 7.2C17.4707 7.2 18 7.74231 18 8.81651L18 15.1835C18 16.2577 17.4707 16.8 16.402 16.8L7.59796 16.8C6.53435 16.8 6 16.2629 6 15.1835L6 8.81651C6 7.7371 6.53435 7.2 7.59796 7.2L16.402 7.2ZM17.1807 9.68734L6.81934 9.68734 6.81934 15.1418C6.81934 15.6841 7.09924 15.9605 7.60814 15.9605L16.3919 15.9605C16.8957 15.9605 17.1807 15.6841 17.1807 15.1418L17.1807 9.68734ZM8.4 8.0793L7.6 8.0793 7.6 8.6793 8.4 8.6793 8.4 8.0793ZM12 8.1793L11.2 8.1793 11.2 8.5793 12 8.5793 12 8.1793ZM13.6 8.1793L12.8 8.1793 12.8 8.5793 13.6 8.5793 13.6 8.1793ZM16.4 8.1793L14.4 8.1793 14.4 8.5793 16.4 8.5793 16.4 8.1793Z"/>
	</svg>
	