<?xml version="1.0"?>
	<svg xmlns="http://www.w3.org/2000/svg" 
		width="32" 
		height="32" 
		viewbox="0 0 32 32" 
		code="82678" 
		 transform=""
		><path d="M21.6476 10.3339C18.9454 7.64053 14.7173 7.23027 11.5477 9.35389 8.37811 11.4775 7.14932 15.5439 8.61243 19.0674 10.0755 22.591 13.8233 24.5909 17.5649 23.8447 21.3064 23.0986 24.0003 19.814 23.9999 15.9988 24.0075 13.8714 23.1599 11.8301 21.6476 10.3339ZM21.5864 15.9986C21.5864 16.1108 21.6309 16.2184 21.7102 16.2977 21.7895 16.377 21.8971 16.4215 22.0092 16.4215H23.1369C22.898 20.032 20.025 22.9088 16.4149 23.1524V22.0335C16.4149 21.7985 16.2269 21.6066 15.992 21.6018 15.8783 21.6018 15.7694 21.6476 15.6898 21.7288 15.6102 21.81 15.5667 21.9199 15.5691 22.0335V23.1524C11.9566 22.922 9.07397 20.0507 8.82939 16.4391H9.94826C10.1915 16.4391 10.3888 16.2419 10.3888 15.9986 10.3888 15.7554 10.1915 15.5581 9.94826 15.5581H8.82939C9.07195 11.9591 11.9351 9.09216 15.5338 8.84487V9.96375C15.5315 10.0774 15.575 10.1873 15.6545 10.2685 15.7341 10.3497 15.843 10.3955 15.9567 10.3954 16.1917 10.3906 16.3797 10.1988 16.3796 9.96375V8.84487C19.9972 9.07056 22.8876 11.9421 23.1369 15.5581H22.0092C21.894 15.558 21.7836 15.605 21.7038 15.6882 21.624 15.7713 21.5816 15.8835 21.5864 15.9986ZM14.5992 14.4217L19.2157 12.2016V12.2456C19.3774 12.1684 19.5702 12.2015 19.6969 12.3282 19.8237 12.4549 19.8568 12.6477 19.7795 12.8095L17.5594 17.4171C17.5158 17.505 17.4446 17.5761 17.3568 17.6198L12.7491 19.8399C12.688 19.852 12.6252 19.852 12.5641 19.8399 12.4186 19.8394 12.2836 19.7641 12.2066 19.6407 12.1297 19.5172 12.1216 19.3628 12.1852 19.232L14.4054 14.6243C14.4482 14.5388 14.5157 14.4682 14.5992 14.4217ZM13.4366 18.5095L16.4145 17.0735 14.9079 15.5581 13.4366 18.5095ZM18.4495 13.4877L17.0487 16.4391 15.5333 14.9237 18.4495 13.4877Z"/>
	</svg>
	