<?xml version="1.0"?>
	<svg xmlns="http://www.w3.org/2000/svg" 
		width="30" 
		height="30" 
		viewbox="0 0 30 30" 
		code="81021" 
		 transform=""
		><path d="M14.7781863 1L14.9340473 1.007123C15.5042178 1.05935837 16.0517451 1.39888824 16.3085166 2.02571261L26.4420629 26.7252019C26.8822425 27.799758 26.1119282 28.8743141 25.1061997 28.9897753L24.9676873 28.9994852C24.7347066 29.00546 24.4918554 28.959643 24.2505805 28.8507751L15.4516964 24.9621296C15.2680921 24.8844509 15.0754084 24.840063 14.8814277 24.8289661L14.6873029 24.8289661C14.4933222 24.840063 14.3006385 24.8844509 14.1170342 24.9621296L5.31815006 28.8507751C5.12513013 28.9355155 4.93110139 28.9805759 4.74192456 28.9915768L4.60104325 28.9935291C3.52933198 28.960883 2.66647993 27.8486015 3.12666769 26.7252019L13.260214 2.02571261C13.5073737 1.40406861 14.0439076 1.06499006 14.6082957 1.00847696L14.7781863 1Z"/>
	</svg>
	