<?xml version="1.0"?>
	<svg xmlns="http://www.w3.org/2000/svg" 
		width="30" 
		height="30" 
		viewbox="0 0 30 30" 
		code="81024" 
		 transform=""
		><path d="M1.0000000000000915 21.783333300000002L1.0000000000000915 8.21666667C1.0000000000000915 6.913218391 2.39723858 6.138030123 3.4868623 6.776178468L3.60235294 6.85 13.1058824 13.65C13.9863102 14.27045455 14.0263296 15.57427686 13.2259407 16.2713514L13.1058824 16.3666667 3.60235294 23.15C2.53687627 23.8902299 1.102897111 23.1855133 1.00526891342 21.9209268L1.0000000000000915 21.783333300000002 1.0000000000000915 8.21666667 1.0000000000000915 21.783333300000002ZM15.8235294 21.783333300000002L15.8235294 8.21666667C15.8235294 6.913218391 17.220768 6.138030123 18.3103917 6.791179767L18.4258824 6.866666667 27.9294118 13.65C28.8098396 14.27045455 28.849859 15.57427686 28.0494701 16.2713514L27.9294118 16.3666667 18.4258824 23.15C17.3604057 23.8902299 15.9264265 23.1855133 15.8287983 21.9209268L15.8235294 21.783333300000002 15.8235294 8.21666667 15.8235294 21.783333300000002Z"/>
	</svg>
	