<?xml version="1.0"?>
	<svg xmlns="http://www.w3.org/2000/svg" 
		width="32" 
		height="32" 
		viewbox="0 0 32 32" 
		code="82679" 
		 transform=""
		><path d="M22 22.4245C22 22.7461 21.7514 23 21.4562 23 21.161 23 20.9202 22.7461 20.9202 22.4245V16.7962C20.8425 17.0924 20.6405 17.3548 20.2987 17.5749L12.779 22.3991C12.5071 22.5684 12.2662 22.6784 11.9866 22.6784 11.4583 22.6784 11 22.2383 11 21.3919V11.5996C11 10.7533 11.4583 10.3132 11.9866 10.3132 12.2662 10.3132 12.4993 10.4232 12.779 10.5924L20.2987 15.4167C20.6405 15.6452 20.8425 15.8991 20.9202 16.1953V10.5671C20.9202 10.2454 21.161 10 21.4562 10 21.7514 10 22 10.2454 22 10.5671V22.4245ZM12 20.7291C12 20.9226 12.1205 21 12.241 21 12.3052 21 12.3695 20.9845 12.4659 20.9304L19.8153 16.736C19.9357 16.6664 20 16.6045 20 16.4961 20 16.3878 19.9357 16.3336 19.8153 16.264L12.4659 12.0696C12.3695 12.0155 12.3052 12 12.241 12 12.1205 12 12 12.0774 12 12.2709V20.7291Z"/>
	</svg>
	