<?xml version="1.0"?>
	<svg xmlns="http://www.w3.org/2000/svg" 
		width="32" 
		height="32" 
		viewbox="0 0 32 32" 
		code="82680" 
		 transform=""
		><path d="M18.8845 9.00497C19.0225 8.76582 19.3283 8.68388 19.5675 8.82195 19.8066 8.96002 19.8886 9.26582 19.7505 9.50497L18.1447 12.2862C19.5557 12.7296 20.5005 13.7126 20.5005 15.0075 20.5005 16.7999 19.2799 18.0235 17.1983 18.0235H14.8323L14.0697 19.3443 14.085 19.3594C14.1508 19.4254 14.1863 19.5067 14.1863 19.6133 14.1863 19.8215 14.0394 19.9738 13.8216 19.9738 13.7887 19.9738 13.7529 19.9671 13.7172 19.9549L12.2505 22.4953C12.1124 22.7345 11.8066 22.8164 11.5675 22.6784 11.3283 22.5403 11.2464 22.2345 11.3845 21.9953L12.9615 19.2638 11.622 17.9321C11.541 17.856 11.5005 17.7595 11.5005 17.658 11.5005 17.5564 11.541 17.465 11.622 17.3889L13.5583 15.4589C13.6292 15.3878 13.7355 15.3472 13.8216 15.3472 14.0394 15.3472 14.1863 15.4995 14.1863 15.7077 14.1863 15.8092 14.1508 15.8956 14.085 15.9565L13.5264 16.5104 12.5894 17.3381 13.6986 17.2975H14.0968L16.7151 12.7625C16.5992 12.7563 16.4805 12.7531 16.3591 12.7531L12.1595 12.7531C11.9366 12.7531 11.7897 12.5906 11.7897 12.3926 11.7897 12.1895 11.9366 12.027 12.1595 12.027L16.3591 12.027C16.6182 12.027 16.8707 12.0416 17.1148 12.07L18.8845 9.00497ZM17.7776 12.9221L15.2515 17.2975 17.254 17.2975C18.8747 17.2975 19.7712 16.3784 19.7712 15.0481 19.7712 14.0479 19.0415 13.2543 17.7776 12.9221ZM13.6781 18.0227L12.5894 17.9778 13.3275 18.6298 13.6781 18.0227Z"/>
	</svg>
	