<?xml version="1.0"?>
	<svg xmlns="http://www.w3.org/2000/svg" 
		width="32" 
		height="32" 
		viewbox="0 0 32 32" 
		code="82681" 
		 transform=""
		><path d="M8 10.5C8 10.2239 8.22386 10 8.5 10H15.5C15.7761 10 16 10.2239 16 10.5V13.5415C17.2563 13.7522 18.2478 14.7437 18.4585 16H22.2948L20.6484 14.3536C20.4531 14.1583 20.4531 13.8417 20.6484 13.6464 20.8437 13.4512 21.1602 13.4512 21.3555 13.6464L23.8555 16.1464C24.0508 16.3417 24.0508 16.6583 23.8555 16.8536L21.3555 19.3536C21.1602 19.5488 20.8437 19.5488 20.6484 19.3536 20.4531 19.1583 20.4531 18.8417 20.6484 18.6464L22.2948 17H18.4585C18.2478 18.2563 17.2563 19.2478 16 19.4585V22.5C16 22.7761 15.7761 23 15.5 23H8.5C8.22386 23 8 22.7761 8 22.5 8 22.2239 8.22386 22 8.5 22H15V19.4585C13.5811 19.2205 12.5 17.9865 12.5 16.5 12.5 15.0135 13.5811 13.7795 15 13.5415V11H8.5C8.22386 11 8 10.7761 8 10.5ZM15.5 14.5C14.3954 14.5 13.5 15.3954 13.5 16.5 13.5 17.6046 14.3954 18.5 15.5 18.5 16.6046 18.5 17.5 17.6046 17.5 16.5 17.5 15.3954 16.6046 14.5 15.5 14.5Z"/>
	</svg>
	