<?xml version="1.0"?>
	<svg xmlns="http://www.w3.org/2000/svg" 
		width="32" 
		height="32" 
		viewbox="0 0 32 32" 
		code="82682" 
		 transform=""
		><path d="M15.4992179 9.5C15.7753179 9.5 15.9992179 9.7239 15.9992179 10L15.9992179 13.0415C17.4181179 13.2795 18.4992179 14.5135 18.4992179 16 18.4992179 17.4865 17.4181179 18.7205 15.9992179 18.9585L15.9992179 22C15.9992179 22.2761 15.7753179 22.5 15.4992179 22.5L8.49921789 22.5C8.22307789 22.5 7.99921789 22.2761 7.99921789 22 7.99921789 21.7239 8.22307789 21.5 8.49921789 21.5L14.9992179 21.5 14.9992179 18.9585C13.5803179 18.7205 12.4992179 17.4865 12.4992179 16 12.4992179 14.5135 13.5803179 13.2795 14.9992179 13.0415L14.9992179 10.5 8.49921789 10.5C8.22307789 10.5 7.99921789 10.2761 7.99921789 10 7.99921789 9.7239 8.22307789 9.5 8.49921789 9.5L15.4992179 9.5ZM15.4992179 14C14.3946179 14 13.4992179 14.8954 13.4992179 16 13.4992179 17.1046 14.3946179 18 15.4992179 18 16.6038179 18 17.4992179 17.1046 17.4992179 16 17.4992179 14.8954 16.6038179 14 15.4992179 14ZM23.8022179 13.1086C24.0225179 13.2751 24.0661179 13.5887 23.8997179 13.809L22.6173179 15.506 23.8774179 17.1646C24.0444179 17.3844 24.0016179 17.6981 23.7817179 17.8652 23.5618179 18.0322 23.2482179 17.9894 23.0811179 17.7695L21.9911179 16.3348 20.8997179 17.7792C20.7332179 17.9995 20.4196179 18.0432 20.1993179 17.8767 19.9790179 17.7102 19.9353179 17.3967 20.1018179 17.1763L21.3627179 15.5077 20.0811179 13.8208C19.9141179 13.6009 19.9569179 13.2872 20.1768179 13.1202 20.3967179 12.9531 20.7103179 12.996 20.8774179 13.2158L21.9889179 14.6789 23.1018179 13.2061C23.2683179 12.9858 23.5819179 12.9422 23.8022179 13.1086Z"/>
	</svg>
	