<?xml version="1.0"?>
	<svg xmlns="http://www.w3.org/2000/svg" 
		width="1024" 
		height="1024" 
		viewbox="0 0 1024 1024" 
		code="82684" 
		 transform=""
		><path d="M287.906 512c0-123.712 100.289-224 224.001-224s224 100.288 224 224c0 123.712-100.288 224-224 224s-224.001-100.288-224.001-224zM511.907 256c-141.386 0-256.001 114.614-256.001 256s114.615 256 256.001 256c141.382 0 256-114.614 256-256s-114.618-256-256-256zM511.907 375.997c-13.254 0-24 10.746-24 24v100.032c0 13.254 10.746 24 24 24s24-10.746 24-24v-100.032c0-13.254-10.746-24-24-24zM543.907 607.997v2.195c0 17.674-14.326 32-32 32s-32-14.326-32-32v-2.195c0-17.674 14.326-32 32-32s32 14.326 32 32z"/>
	</svg>
	