<?xml version="1.0"?>
	<svg xmlns="http://www.w3.org/2000/svg" 
		width="30" 
		height="30" 
		viewbox="0 0 30 30" 
		code="81140" 
		 transform=""
		><path d="M12.0216083 26.1282051L17.765198 26.1282051C17.765198 27.7076923 16.4728903 29 14.8934031 29 13.3633108 29 12.1243496 27.8090092 12.0276809 26.3163008L12.0216083 26.1282051 17.765198 26.1282051 12.0216083 26.1282051ZM14.8934031 1C16.0284459 1 16.9551044 1.87260887 17.0407838 2.9852317L17.0472493 3.15384615 17.0472493 4.13025641C21.0537534 5.08285178 23.3928738 8.61852499 23.5045939 12.8838869L23.5087878 13.2051282 23.5087878 20.3846154 25.3610954 22.2369231C26.2322066 23.1080342 25.665293 24.5783223 24.4809559 24.6860375L24.3416083 24.6923077 5.43083904 24.6923077C4.20022175 24.6923077 3.56878143 23.254283 4.33147546 22.3399834L4.42571083 22.2369231 6.27801853 20.3846154 6.27801853 13.2051282C6.27801853 8.89043152 8.50575232 5.28642292 12.4412042 4.20649037L12.739557 4.13025641 12.739557 3.15384615C12.739557 1.96205128 13.7016083 1 14.8934031 1Z"/>
	</svg>
	