<?xml version="1.0"?>
	<svg xmlns="http://www.w3.org/2000/svg" 
		width="24" 
		height="24" 
		viewbox="0 0 24 24" 
		code="82691" 
		 transform=""
		><path d="M7.64732 11.5703H4.14732V12.4297H7.64732V11.5703ZM12.1763 8H11.2075L9.20752 9.32812V10.3125L11.1606 9.01562H11.2075V16H12.1763V8ZM17.1964 16.1094C18.9621 16.1094 19.9777 14.6133 19.9777 12 19.9777 9.40625 18.9464 7.89062 17.1964 7.89062 15.4464 7.89062 14.4152 9.40625 14.4152 12 14.4152 14.6133 15.4308 16.1094 17.1964 16.1094ZM17.1964 15.25C16.0324 15.25 15.3527 14.082 15.3527 12 15.3527 9.92188 16.0402 8.73437 17.1964 8.73437 18.3527 8.73437 19.0402 9.92188 19.0402 12 19.0402 14.082 18.3605 15.25 17.1964 15.25Z"/>
	</svg>
	