<?xml version="1.0"?>
	<svg xmlns="http://www.w3.org/2000/svg" 
		width="24" 
		height="24" 
		viewbox="0 0 24 24" 
		code="82688" 
		 transform=""
		><path d="M6.00555 16H11.0524V15.1406H7.33367V15.0781L9.13055 13.1562C10.5055 11.6836 10.9118 10.9961 10.9118 10.1094 10.9118 8.875 9.9118 7.89062 8.50555 7.89062 7.1032 7.89062 6.0368 8.84375 6.0368 10.25H6.95867C6.95867 9.33984 7.54852 8.73437 8.4743 8.73437 9.34148 8.73437 10.0055 9.26562 10.0055 10.1094 10.0055 10.8477 9.57195 11.3945 8.64617 12.4062L6.00555 15.2969V16ZM15.3851 16.1094C17.1507 16.1094 18.1663 14.6133 18.1663 12 18.1663 9.40625 17.1351 7.89062 15.3851 7.89062 13.6351 7.89062 12.6038 9.40625 12.6038 12 12.6038 14.6133 13.6195 16.1094 15.3851 16.1094ZM15.3851 15.25C14.221 15.25 13.5413 14.082 13.5413 12 13.5413 9.92188 14.2288 8.73437 15.3851 8.73437 16.5413 8.73437 17.2288 9.92188 17.2288 12 17.2288 14.082 16.5491 15.25 15.3851 15.25Z"/>
	</svg>
	