<?xml version="1.0"?>
	<svg xmlns="http://www.w3.org/2000/svg" 
		width="24" 
		height="24" 
		viewbox="0 0 24 24" 
		code="82687" 
		 transform=""
		><path d="M6.09898 8H5.13023L3.13023 9.32812V10.3125L5.08336 9.01562H5.13023V16H6.09898V8ZM11.1191 16.1094C12.8848 16.1094 13.9004 14.6133 13.9004 12 13.9004 9.40625 12.8691 7.89062 11.1191 7.89062 9.36914 7.89062 8.33789 9.40625 8.33789 12 8.33789 14.6133 9.35352 16.1094 11.1191 16.1094ZM11.1191 15.25C9.95508 15.25 9.27539 14.082 9.27539 12 9.27539 9.92188 9.96289 8.73437 11.1191 8.73437 12.2754 8.73437 12.9629 9.92188 12.9629 12 12.9629 14.082 12.2832 15.25 11.1191 15.25ZM18.1041 16.1094C19.8698 16.1094 20.8854 14.6133 20.8854 12 20.8854 9.40625 19.8541 7.89062 18.1041 7.89062 16.3541 7.89062 15.3229 9.40625 15.3229 12 15.3229 14.6133 16.3385 16.1094 18.1041 16.1094ZM18.1041 15.25C16.9401 15.25 16.2604 14.082 16.2604 12 16.2604 9.92188 16.9479 8.73437 18.1041 8.73437 19.2604 8.73437 19.9479 9.92188 19.9479 12 19.9479 14.082 19.2682 15.25 18.1041 15.25Z"/>
	</svg>
	