<?xml version="1.0"?>
	<svg xmlns="http://www.w3.org/2000/svg" 
		width="24" 
		height="24" 
		viewbox="0 0 24 24" 
		code="82689" 
		 transform=""
		><path d="M12.4819 16.1094C14.0054 16.1094 15.1226 14.9844 15.1226 13.4531 15.1226 11.9023 14.0444 10.7656 12.5757 10.7656 12.0366 10.7656 11.5132 10.957 11.1851 11.2187H11.1382L11.4194 8.85937H14.7632V8H10.6069L10.1226 11.9375 11.0288 12.0469C11.3608 11.8086 11.9272 11.6367 12.4194 11.6406 13.439 11.6484 14.1851 12.4219 14.1851 13.4687 14.1851 14.4961 13.4663 15.25 12.4819 15.25 11.6616 15.25 11.0093 14.7227 10.9351 14H9.99756C10.0562 15.2188 11.1069 16.1094 12.4819 16.1094Z"/>
	</svg>
	