<?xml version="1.0"?>
	<svg xmlns="http://www.w3.org/2000/svg" 
		width="24" 
		height="24" 
		viewbox="0 0 24 24" 
		code="82692" 
		 transform=""
		><path d="M7.56188 11.5703H4.06188V12.4297H7.56188V11.5703ZM8.90234 16H13.9492V15.1406H10.2305V15.0781L12.0273 13.1562C13.4023 11.6836 13.8086 10.9961 13.8086 10.1094 13.8086 8.875 12.8086 7.89062 11.4023 7.89062 10 7.89062 8.93359 8.84375 8.93359 10.25H9.85547C9.85547 9.33984 10.4453 8.73437 11.3711 8.73437 12.2383 8.73437 12.9023 9.26562 12.9023 10.1094 12.9023 10.8477 12.4688 11.3945 11.543 12.4062L8.90234 15.2969V16ZM18.2819 16.1094C20.0475 16.1094 21.0631 14.6133 21.0631 12 21.0631 9.40625 20.0319 7.89062 18.2819 7.89062 16.5319 7.89062 15.5006 9.40625 15.5006 12 15.5006 14.6133 16.5163 16.1094 18.2819 16.1094ZM18.2819 15.25C17.1178 15.25 16.4381 14.082 16.4381 12 16.4381 9.92188 17.1256 8.73437 18.2819 8.73437 19.4381 8.73437 20.1256 9.92188 20.1256 12 20.1256 14.082 19.4459 15.25 18.2819 15.25Z"/>
	</svg>
	