<?xml version="1.0"?>
	<svg xmlns="http://www.w3.org/2000/svg" 
		width="24" 
		height="24" 
		viewbox="0 0 24 24" 
		code="82693" 
		 transform=""
		><path d="M10.3503 11.5703H6.85027V12.4297H10.3503V11.5703ZM14.5667 16.1094C16.0902 16.1094 17.2073 14.9844 17.2073 13.4531 17.2073 11.9023 16.1292 10.7656 14.6605 10.7656 14.1214 10.7656 13.598 10.957 13.2698 11.2187H13.223L13.5042 8.85937H16.848V8H12.6917L12.2073 11.9375 13.1136 12.0469C13.4456 11.8086 14.012 11.6367 14.5042 11.6406 15.5238 11.6484 16.2698 12.4219 16.2698 13.4687 16.2698 14.4961 15.5511 15.25 14.5667 15.25 13.7464 15.25 13.0941 14.7227 13.0198 14H12.0823C12.1409 15.2188 13.1917 16.1094 14.5667 16.1094Z"/>
	</svg>
	