<?xml version="1.0"?>
	<svg xmlns="http://www.w3.org/2000/svg" 
		width="24" 
		height="24" 
		viewbox="0 0 24 24" 
		code="82694" 
		 transform=""
		><path d="M7.35777 11.5703H3.85777V12.4297H7.35777V11.5703ZM11.5742 16.1094C13.0977 16.1094 14.2148 14.9844 14.2148 13.4531 14.2148 11.9023 13.1367 10.7656 11.668 10.7656 11.1289 10.7656 10.6055 10.957 10.2773 11.2187H10.2305L10.5117 8.85937H13.8555V8H9.69922L9.21484 11.9375 10.1211 12.0469C10.4531 11.8086 11.0195 11.6367 11.5117 11.6406 12.5313 11.6484 13.2773 12.4219 13.2773 13.4687 13.2773 14.4961 12.5586 15.25 11.5742 15.25 10.7539 15.25 10.1016 14.7227 10.0273 14H9.08984C9.14844 15.2188 10.1992 16.1094 11.5742 16.1094ZM18.486 16.1094C20.2516 16.1094 21.2672 14.6133 21.2672 12 21.2672 9.40625 20.236 7.89062 18.486 7.89062 16.736 7.89062 15.7047 9.40625 15.7047 12 15.7047 14.6133 16.7204 16.1094 18.486 16.1094ZM18.486 15.25C17.3219 15.25 16.6422 14.082 16.6422 12 16.6422 9.92188 17.3297 8.73437 18.486 8.73437 19.6422 8.73437 20.3297 9.92188 20.3297 12 20.3297 14.082 19.65 15.25 18.486 15.25Z"/>
	</svg>
	