<?xml version="1.0"?>
	<svg xmlns="http://www.w3.org/2000/svg" 
		width="24" 
		height="24" 
		viewbox="0 0 24 24" 
		code="82690" 
		 transform=""
		><path d="M8.48943 16.1094C10.0129 16.1094 11.1301 14.9844 11.1301 13.4531 11.1301 11.9023 10.0519 10.7656 8.58318 10.7656 8.04412 10.7656 7.52068 10.957 7.19256 11.2187H7.14568L7.42693 8.85937H10.7707V8H6.61443L6.13006 11.9375 7.03631 12.0469C7.36834 11.8086 7.93475 11.6367 8.42693 11.6406 9.44646 11.6484 10.1926 12.4219 10.1926 13.4687 10.1926 14.4961 9.47381 15.25 8.48943 15.25 7.66912 15.25 7.01678 14.7227 6.94256 14H6.00506C6.06365 15.2188 7.11443 16.1094 8.48943 16.1094ZM15.4012 16.1094C17.1668 16.1094 18.1824 14.6133 18.1824 12 18.1824 9.40625 17.1512 7.89062 15.4012 7.89062 13.6512 7.89062 12.6199 9.40625 12.6199 12 12.6199 14.6133 13.6356 16.1094 15.4012 16.1094ZM15.4012 15.25C14.2371 15.25 13.5574 14.082 13.5574 12 13.5574 9.92188 14.2449 8.73437 15.4012 8.73437 16.5574 8.73437 17.2449 9.92188 17.2449 12 17.2449 14.082 16.5653 15.25 15.4012 15.25Z"/>
	</svg>
	