<?xml version="1.0"?>
	<svg xmlns="http://www.w3.org/2000/svg" 
		width="24" 
		height="24" 
		viewbox="0 0 24 24" 
		code="82686" 
		 transform=""
		><path d="M10.0915 8H9.12273L7.12273 9.32812V10.3125L9.07586 9.01562H9.12273V16H10.0915V8ZM15.1116 16.1094C16.8773 16.1094 17.8929 14.6133 17.8929 12 17.8929 9.40625 16.8616 7.89062 15.1116 7.89062 13.3616 7.89062 12.3304 9.40625 12.3304 12 12.3304 14.6133 13.346 16.1094 15.1116 16.1094ZM15.1116 15.25C13.9476 15.25 13.2679 14.082 13.2679 12 13.2679 9.92188 13.9554 8.73437 15.1116 8.73437 16.2679 8.73437 16.9554 9.92188 16.9554 12 16.9554 14.082 16.2757 15.25 15.1116 15.25Z"/>
	</svg>
	