<?xml version="1.0"?>
	<svg xmlns="http://www.w3.org/2000/svg" 
		width="32" 
		height="32" 
		viewbox="0 0 32 32" 
		code="82700" 
		 transform=""
		><path d="M18.2949 11.1464C18.4901 10.9512 18.8067 10.9512 19.002 11.1464L20.8536 12.9981C21.0489 13.1933 21.0489 13.5099 20.8536 13.7052L19.002 15.5568C18.8067 15.7521 18.4901 15.7521 18.2949 15.5568 18.0996 15.3616 18.0996 15.045 18.2949 14.8497L19.2928 13.8518H13.8506V19.2956L14.8497 18.2964C15.045 18.1012 15.3616 18.1012 15.5568 18.2964 15.7521 18.4917 15.7521 18.8083 15.5568 19.0035L13.7052 20.8552C13.5099 21.0504 13.1933 21.0504 12.9981 20.8552L11.1464 19.0035C10.9512 18.8083 10.9512 18.4917 11.1464 18.2964 11.3417 18.1012 11.6583 18.1012 11.8536 18.2964L12.8506 19.2935V13.3516C12.8506 13.0754 13.0744 12.8516 13.3506 12.8516 13.3559 12.8516 13.3611 12.8516 13.3664 12.8518H19.2931L18.2949 11.8536C18.0996 11.6583 18.0996 11.3417 18.2949 11.1464Z"/>
	</svg>
	