<?xml version="1.0"?>
	<svg xmlns="http://www.w3.org/2000/svg" 
		width="32" 
		height="32" 
		viewbox="0 0 32 32" 
		code="82701" 
		 transform=""
		><path d="M20.8542 13.7057C21.0495 13.5104 21.0495 13.1938 20.8542 12.9986L19.0026 11.1469C18.8073 10.9517 18.4907 10.9517 18.2955 11.1469L16.4438 12.9986C16.2486 13.1938 16.2486 13.5104 16.4438 13.7057 16.6391 13.9009 16.9557 13.9009 17.1509 13.7057L18.1488 12.7078V18.15H12.7051L13.7042 17.1508C13.8995 16.9556 13.8995 16.639 13.7042 16.4437 13.509 16.2485 13.1924 16.2485 12.9971 16.4437L11.1455 18.2954C10.9502 18.4906 10.9502 18.8072 11.1455 19.0025L12.9971 20.8541C13.1924 21.0494 13.509 21.0494 13.7042 20.8541 13.8995 20.6589 13.8995 20.3423 13.7042 20.147L12.7072 19.15H18.6491C18.9252 19.15 19.1491 18.9261 19.1491 18.65 19.1491 18.6447 19.149 18.6394 19.1488 18.6342L19.1488 12.7074 20.1471 13.7057C20.3424 13.9009 20.6589 13.9009 20.8542 13.7057Z"/>
	</svg>
	