<?xml version="1.0"?>
	<svg xmlns="http://www.w3.org/2000/svg" 
		width="32" 
		height="32" 
		viewbox="0 0 32 32" 
		code="82695" 
		 transform=""
		><path d="M15.6475 11.1464C15.8428 10.9512 16.1593 10.9512 16.3546 11.1464L18.2062 12.9981C18.4015 13.1933 18.4015 13.5099 18.2062 13.7052 18.011 13.9005 17.6944 13.9005 17.4991 13.7052L16.5011 12.7072V18.1461H21.2955L20.2973 17.1479C20.102 16.9526 20.102 16.636 20.2973 16.4408 20.4926 16.2455 20.8092 16.2455 21.0044 16.4408L22.8561 18.2924C23.0513 18.4877 23.0513 18.8042 22.8561 18.9995L21.0044 20.8511C20.8092 21.0464 20.4926 21.0464 20.2973 20.8511 20.102 20.6559 20.102 20.3393 20.2973 20.144L21.2953 19.1461H10.7072L11.7052 20.1441C11.9005 20.3393 11.9005 20.6559 11.7052 20.8512 11.5099 21.0464 11.1933 21.0464 10.9981 20.8512L9.14645 18.9995C8.95118 18.8043 8.95118 18.4877 9.14645 18.2924L10.9981 16.4408C11.1933 16.2455 11.5099 16.2455 11.7052 16.4408 11.9005 16.6361 11.9005 16.9526 11.7052 17.1479L10.707 18.1461H15.5011V12.707L14.503 13.7052C14.3077 13.9005 13.9911 13.9005 13.7959 13.7052 13.6006 13.5099 13.6006 13.1933 13.7959 12.9981L15.6475 11.1464Z"/>
	</svg>
	