<?xml version="1.0"?>
	<svg xmlns="http://www.w3.org/2000/svg" 
		width="32" 
		height="32" 
		viewbox="0 0 32 32" 
		code="82703" 
		 transform=""
		><path d="M13.7052 11.1464C13.5099 10.9512 13.1933 10.9512 12.9981 11.1464L11.1464 12.9981C10.9512 13.1933 10.9512 13.5099 11.1464 13.7052L12.9981 15.5568C13.1933 15.7521 13.5099 15.7521 13.7052 15.5568 13.9005 15.3616 13.9005 15.045 13.7052 14.8497L12.7073 13.8518H18.1495V19.2956L17.1504 18.2964C16.9551 18.1012 16.6385 18.1012 16.4432 18.2964 16.248 18.4917 16.248 18.8083 16.4432 19.0035L18.2949 20.8552C18.4901 21.0504 18.8067 21.0504 19.002 20.8552L20.8536 19.0035C21.0489 18.8083 21.0489 18.4917 20.8536 18.2964 20.6584 18.1012 20.3418 18.1012 20.1465 18.2964L19.1495 19.2935V13.3516C19.1495 13.0754 18.9256 12.8516 18.6495 12.8516 18.6442 12.8516 18.639 12.8516 18.6337 12.8518H12.7069L13.7052 11.8536C13.9005 11.6583 13.9005 11.3417 13.7052 11.1464Z"/>
	</svg>
	