<?xml version="1.0"?>
	<svg xmlns="http://www.w3.org/2000/svg" 
		width="32" 
		height="32" 
		viewbox="0 0 32 32" 
		code="82698" 
		 transform=""
		><path d="M11.1455 13.7057C10.9502 13.5104 10.9502 13.1938 11.1455 12.9986L12.9971 11.1469C13.1924 10.9517 13.509 10.9517 13.7042 11.1469L15.5559 12.9986C15.7511 13.1938 15.7511 13.5104 15.5559 13.7057 15.3606 13.9009 15.044 13.9009 14.8487 13.7057L13.8508 12.7078 13.8508 18.15H19.2946L18.2955 17.1508C18.1002 16.9556 18.1002 16.639 18.2955 16.4437 18.4907 16.2485 18.8073 16.2485 19.0026 16.4437L20.8542 18.2954C21.0495 18.4906 21.0495 18.8072 20.8542 19.0025L19.0026 20.8541C18.8073 21.0494 18.4907 21.0494 18.2955 20.8541 18.1002 20.6589 18.1002 20.3423 18.2955 20.147L19.2925 19.15H13.3506C13.0744 19.15 12.8506 18.9261 12.8506 18.65 12.8506 18.6447 12.8507 18.6394 12.8508 18.6342L12.8508 12.7074 11.8526 13.7057C11.6573 13.9009 11.3407 13.9009 11.1455 13.7057Z"/>
	</svg>
	