<?xml version="1.0"?>
	<svg xmlns="http://www.w3.org/2000/svg" 
		width="32" 
		height="32" 
		viewbox="0 0 32 32" 
		code="82696" 
		 transform=""
		><path d="M15.6475 20.8512C15.8428 21.0464 16.1593 21.0464 16.3546 20.8512L18.2062 18.9995C18.4015 18.8043 18.4015 18.4877 18.2062 18.2924 18.011 18.0972 17.6944 18.0972 17.4991 18.2924L16.5011 19.2904V13.8516H21.2955L20.2973 14.8498C20.102 15.045 20.102 15.3616 20.2973 15.5569 20.4926 15.7521 20.8092 15.7521 21.0044 15.5569L22.8561 13.7052C23.0513 13.51 23.0513 13.1934 22.8561 12.9981L21.0044 11.1465C20.8092 10.9512 20.4926 10.9512 20.2973 11.1465 20.102 11.3417 20.102 11.6583 20.2973 11.8536L21.2953 12.8516H10.7072L11.7052 11.8536C11.9005 11.6583 11.9005 11.3417 11.7052 11.1464 11.5099 10.9512 11.1933 10.9512 10.9981 11.1464L9.14645 12.9981C8.95118 13.1933 8.95118 13.5099 9.14645 13.7052L10.9981 15.5568C11.1933 15.7521 11.5099 15.7521 11.7052 15.5568 11.9005 15.3616 11.9005 15.045 11.7052 14.8497L10.707 13.8516H15.5011V19.2906L14.503 18.2924C14.3077 18.0972 13.9911 18.0972 13.7959 18.2924 13.6006 18.4877 13.6006 18.8043 13.7959 18.9995L15.6475 20.8512Z"/>
	</svg>
	