<?xml version="1.0"?>
	<svg xmlns="http://www.w3.org/2000/svg" 
		width="32" 
		height="32" 
		viewbox="0 0 32 32" 
		code="82699" 
		 transform=""
		><path d="M12 9.5C12 9.22386 11.7761 9 11.5 9 11.2239 9 11 9.22386 11 9.5V22.5C11 22.7761 11.2239 23 11.5 23 11.7761 23 12 22.7761 12 22.5L12 9.5ZM14 16C14 15.7239 14.2239 15.5 14.5 15.5H19.7578L18.1113 13.8536C17.9161 13.6583 17.9161 13.3417 18.1113 13.1464 18.3066 12.9512 18.6232 12.9512 18.8184 13.1464L21.3184 15.6464C21.5137 15.8417 21.5137 16.1583 21.3184 16.3536L18.8184 18.8536C18.6232 19.0488 18.3066 19.0488 18.1113 18.8536 17.9161 18.6583 17.9161 18.3417 18.1113 18.1464L19.7578 16.5H14.5C14.2239 16.5 14 16.2761 14 16Z"/>
	</svg>
	