<?xml version="1.0"?>
	<svg xmlns="http://www.w3.org/2000/svg" 
		width="32" 
		height="32" 
		viewbox="0 0 32 32" 
		code="82697" 
		 transform=""
		><path d="M13.7959 9.05578C13.9911 9.25104 14.3077 9.25104 14.503 9.05578L15.501 8.05777 15.501 12.8517H10.7072L11.7052 11.8537C11.9005 11.6585 11.9005 11.3419 11.7052 11.1466 11.5099 10.9514 11.1933 10.9514 10.9981 11.1466L9.14645 12.9983C8.95118 13.1935 8.95118 13.5101 9.14645 13.7054L10.9981 15.557C11.1933 15.7523 11.5099 15.7523 11.7052 15.557 11.9005 15.3618 11.9005 15.0452 11.7052 14.8499L10.707 13.8517H15.501V18.6459L14.503 17.6479C14.3077 17.4526 13.9911 17.4526 13.7959 17.6479 13.6006 17.8432 13.6006 18.1597 13.7959 18.355L15.6475 20.2066C15.8428 20.4019 16.1593 20.4019 16.3546 20.2066L18.2062 18.355C18.4015 18.1597 18.4015 17.8432 18.2062 17.6479 18.011 17.4526 17.6944 17.4526 17.4991 17.6479L16.501 18.6461V13.8517H21.295L20.2968 14.8499C20.1016 15.0452 20.1016 15.3618 20.2968 15.557 20.4921 15.7523 20.8087 15.7523 21.0039 15.557L22.8556 13.7054C23.0508 13.5101 23.0508 13.1936 22.8556 12.9983L21.0039 11.1467C20.8087 10.9514 20.4921 10.9514 20.2968 11.1467 20.1016 11.3419 20.1016 11.6585 20.2968 11.8538L21.2948 12.8517H16.501L16.501 8.05762 17.4991 9.05578C17.6944 9.25104 18.011 9.25104 18.2062 9.05578 18.4015 8.86051 18.4015 8.54393 18.2062 8.34867L16.3546 6.49703C16.1593 6.30177 15.8428 6.30177 15.6475 6.49703L13.7959 8.34867C13.6006 8.54393 13.6006 8.86051 13.7959 9.05578Z"/>
	</svg>
	