<?xml version="1.0"?>
	<svg xmlns="http://www.w3.org/2000/svg" 
		width="32" 
		height="32" 
		viewbox="0 0 32 32" 
		code="82704" 
		 transform=""
		><path d="M7 11.5C7 11.2239 7.22386 11 7.5 11H17.5C17.7761 11 18 11.2239 18 11.5 18 11.7761 17.7761 12 17.5 12H7.5C7.22386 12 7 11.7761 7 11.5ZM21.3733 21.8331C21.2785 21.9387 21.1432 21.999 21.0012 21.999 20.8593 21.999 20.724 21.9387 20.6292 21.8331L17.1279 17.9331C16.9435 17.7276 16.9605 17.4115 17.166 17.227 17.3715 17.0425 17.6876 17.0595 17.8721 17.265L20.5012 20.1936 20.5012 11.5C20.5012 11.2239 20.7251 11 21.0012 11 21.2774 11 21.5012 11.2239 21.5012 11.5L21.5012 20.1936 24.1304 17.265C24.3149 17.0595 24.631 17.0425 24.8365 17.227 25.042 17.4115 25.059 17.7276 24.8745 17.9331L21.3733 21.8331ZM7.5 14.3333C7.22386 14.3333 7 14.5572 7 14.8333 7 15.1095 7.22386 15.3333 7.5 15.3333H15.5C15.7761 15.3333 16 15.1095 16 14.8333 16 14.5572 15.7761 14.3333 15.5 14.3333H7.5ZM7 18.1666C7 17.8905 7.22386 17.6666 7.5 17.6666H13.5C13.7761 17.6666 14 17.8905 14 18.1666 14 18.4428 13.7761 18.6666 13.5 18.6666H7.5C7.22386 18.6666 7 18.4428 7 18.1666ZM7.5 20.9999C7.22386 20.9999 7 21.2238 7 21.4999 7 21.7761 7.22386 21.9999 7.5 21.9999H11.5C11.7761 21.9999 12 21.7761 12 21.4999 12 21.2238 11.7761 20.9999 11.5 20.9999H7.5Z"/>
	</svg>
	