<?xml version="1.0"?>
	<svg xmlns="http://www.w3.org/2000/svg" 
		width="32" 
		height="32" 
		viewbox="0 0 32 32" 
		code="82705" 
		 transform=""
		><path d="M12.0807 9.00195C11.8172 9.00194 11.5898 9.00194 11.4025 9.01724 11.2048 9.03339 11.0082 9.06905 10.819 9.16544 10.5368 9.30925 10.3073 9.53872 10.1635 9.82097 10.0671 10.0102 10.0314 10.2068 10.0153 10.4044 9.99998 10.5917 9.99999 10.8191 10 11.0827V20.9212C9.99999 21.1848 9.99998 21.4122 10.0153 21.5995 10.0314 21.7971 10.0671 21.9937 10.1635 22.1829 10.3073 22.4652 10.5368 22.6947 10.819 22.8385 11.0082 22.9349 11.2048 22.9705 11.4025 22.9867 11.5898 23.002 11.8171 23.002 12.0807 23.002H19.9193C20.1829 23.002 20.4102 23.002 20.5975 22.9867 20.7952 22.9705 20.9918 22.9349 21.181 22.8385 21.4632 22.6947 21.6927 22.4652 21.8365 22.1829 21.9329 21.9937 21.9686 21.7971 21.9847 21.5995 22 21.4122 22 21.1848 22 20.9212V11.0827C22 10.8191 22 10.5917 21.9847 10.4044 21.9686 10.2068 21.9329 10.0102 21.8365 9.82097 21.6927 9.53872 21.4632 9.30925 21.181 9.16544 20.9918 9.06905 20.7952 9.03339 20.5975 9.01724 20.4102 9.00194 20.1828 9.00194 19.9193 9.00195H12.0807ZM11.273 10.0565C11.2977 10.0439 11.3481 10.025 11.4839 10.0139 11.6256 10.0023 11.8117 10.002 12.1 10.002H19.9C20.1883 10.002 20.3744 10.0023 20.5161 10.0139 20.6519 10.025 20.7023 10.0439 20.727 10.0565 20.8211 10.1044 20.8976 10.1809 20.9455 10.275 20.9581 10.2997 20.9769 10.35 20.988 10.4859 20.9996 10.6275 21 10.8137 21 11.102V20.902C21 21.1902 20.9996 21.3764 20.988 21.518 20.9769 21.6539 20.9581 21.7042 20.9455 21.7289 20.8976 21.823 20.8211 21.8995 20.727 21.9475 20.7023 21.9601 20.6519 21.9789 20.5161 21.99 20.3744 22.0016 20.1883 22.002 19.9 22.002H12.1C11.8117 22.002 11.6256 22.0016 11.4839 21.99 11.3481 21.9789 11.2977 21.9601 11.273 21.9475 11.1789 21.8995 11.1024 21.823 11.0545 21.7289 11.0419 21.7042 11.0231 21.6539 11.012 21.518 11.0004 21.3764 11 21.1902 11 20.902V11.102C11 10.8137 11.0004 10.6275 11.012 10.4859 11.0231 10.35 11.0419 10.2997 11.0545 10.275 11.1024 10.1809 11.1789 10.1044 11.273 10.0565ZM13.5572 13.3011C13.4482 13.515 13.4482 13.7951 13.4482 14.3551V17.6487C13.4482 18.2087 13.4482 18.4887 13.5572 18.7026 13.6531 18.8908 13.8061 19.0438 13.9943 19.1397 14.2082 19.2487 14.4882 19.2487 15.0482 19.2487H16.9503C17.5104 19.2487 17.7904 19.2487 18.0043 19.1397 18.1925 19.0438 18.3454 18.8908 18.4413 18.7026 18.5503 18.4887 18.5503 18.2087 18.5503 17.6487V14.3551C18.5503 13.7951 18.5503 13.515 18.4413 13.3011 18.3454 13.113 18.1925 12.96 18.0043 12.8641 17.7904 12.7551 17.5104 12.7551 16.9503 12.7551H15.0482C14.4882 12.7551 14.2082 12.7551 13.9943 12.8641 13.8061 12.96 13.6531 13.113 13.5572 13.3011Z"/>
	</svg>
	