<?xml version="1.0"?>
	<svg xmlns="http://www.w3.org/2000/svg" 
		width="32" 
		height="32" 
		viewbox="0 0 32 32" 
		code="82709" 
		 transform=""
		><path d="M10.0807 8H17.9193C18.1829 7.99999 18.4102 7.99999 18.5975 8.01529 18.7952 8.03144 18.9918 8.06709 19.181 8.16349 19.4632 8.3073 19.6927 8.53677 19.8365 8.81902 19.9329 9.00821 19.9686 9.20482 19.9847 9.40249 20 9.58977 20 9.81715 20 10.0807V11L20.9193 11C21.1828 11 21.4102 11 21.5975 11.0153 21.7952 11.0314 21.9918 11.0671 22.181 11.1635 22.4632 11.3073 22.6927 11.5368 22.8365 11.819 22.9329 12.0082 22.9686 12.2048 22.9847 12.4025 23 12.5898 23 12.8172 23 13.0807V17.9193C23 18.1828 23 18.4102 22.9847 18.5975 22.9686 18.7952 22.9329 18.9918 22.8365 19.181 22.6927 19.4632 22.4632 19.6927 22.181 19.8365 21.9918 19.9329 21.7952 19.9686 21.5975 19.9847 21.4102 20 21.1829 20 20.9193 20H20V20.9193C20 21.1829 20 21.4102 19.9847 21.5975 19.9686 21.7952 19.9329 21.9918 19.8365 22.181 19.6927 22.4632 19.4632 22.6927 19.181 22.8365 18.9918 22.9329 18.7952 22.9686 18.5975 22.9847 18.4102 23 18.1829 23 17.9193 23H10.0807C9.81715 23 9.58977 23 9.40249 22.9847 9.20482 22.9686 9.00821 22.9329 8.81902 22.8365 8.53677 22.6927 8.3073 22.4632 8.16349 22.181 8.06709 21.9918 8.03144 21.7952 8.01529 21.5975 7.99999 21.4102 7.99999 21.1828 8 20.9193V10.0807C7.99999 9.81715 7.99999 9.58976 8.01529 9.40249 8.03144 9.20482 8.06709 9.00821 8.16349 8.81902 8.3073 8.53677 8.53677 8.3073 8.81902 8.16349 9.00821 8.06709 9.20482 8.03144 9.40249 8.01529 9.58976 7.99999 9.81717 7.99999 10.0807 8ZM19 20H17.0807C16.8171 20 16.5898 20 16.4025 19.9847 16.2048 19.9686 16.0082 19.9329 15.819 19.8365 15.5368 19.6927 15.3073 19.4632 15.1635 19.181 15.0671 18.9918 15.0314 18.7952 15.0153 18.5975 15 18.4102 15 18.1828 15 17.9193V13.0807C15 12.8172 15 12.5898 15.0153 12.4025 15.0314 12.2048 15.0671 12.0082 15.1635 11.819 15.3073 11.5368 15.5368 11.3073 15.819 11.1635 16.0082 11.0671 16.2048 11.0314 16.4025 11.0153 16.5898 11 16.8172 11 17.0807 11L19 11V10.1C19 9.81173 18.9996 9.62559 18.988 9.48392 18.9769 9.34809 18.9581 9.29773 18.9455 9.27301 18.8976 9.17893 18.8211 9.10244 18.727 9.0545 18.7023 9.0419 18.6519 9.02306 18.5161 9.01197 18.3744 9.00039 18.1883 9 17.9 9H10.1C9.81173 9 9.62559 9.00039 9.48392 9.01197 9.34809 9.02306 9.29773 9.0419 9.27301 9.0545 9.17893 9.10244 9.10244 9.17893 9.0545 9.27301 9.0419 9.29773 9.02306 9.34809 9.01197 9.48392 9.00039 9.62559 9 9.81173 9 10.1V20.9C9 21.1883 9.00039 21.3744 9.01197 21.5161 9.02306 21.6519 9.0419 21.7023 9.0545 21.727 9.10244 21.8211 9.17893 21.8976 9.27301 21.9455 9.29773 21.9581 9.34809 21.9769 9.48392 21.988 9.62559 21.9996 9.81173 22 10.1 22H17.9C18.1883 22 18.3744 21.9996 18.5161 21.988 18.6519 21.9769 18.7023 21.9581 18.727 21.9455 18.8211 21.8976 18.8976 21.8211 18.9455 21.727 18.9581 21.7023 18.9769 21.6519 18.988 21.5161 18.9996 21.3744 19 21.1883 19 20.9V20ZM16.273 12.0545C16.2977 12.0419 16.3481 12.0231 16.4839 12.012 16.6256 12.0004 16.8117 12 17.1 12H20.9C21.1883 12 21.3744 12.0004 21.5161 12.012 21.6519 12.0231 21.7023 12.0419 21.727 12.0545 21.8211 12.1024 21.8976 12.1789 21.9455 12.273 21.9581 12.2977 21.9769 12.3481 21.988 12.4839 21.9996 12.6256 22 12.8117 22 13.1V17.9C22 18.1883 21.9996 18.3744 21.988 18.5161 21.9769 18.6519 21.9581 18.7023 21.9455 18.727 21.8976 18.8211 21.8211 18.8976 21.727 18.9455 21.7023 18.9581 21.6519 18.9769 21.5161 18.988 21.3744 18.9996 21.1883 19 20.9 19H17.1C16.8117 19 16.6256 18.9996 16.4839 18.988 16.3481 18.9769 16.2977 18.9581 16.273 18.9455 16.1789 18.8976 16.1024 18.8211 16.0545 18.727 16.0419 18.7023 16.0231 18.6519 16.012 18.5161 16.0004 18.3744 16 18.1883 16 17.9V13.1C16 12.8117 16.0004 12.6256 16.012 12.4839 16.0231 12.3481 16.0419 12.2977 16.0545 12.273 16.1024 12.1789 16.1789 12.1024 16.273 12.0545Z"/>
	</svg>
	