<?xml version="1.0"?>
	<svg xmlns="http://www.w3.org/2000/svg" 
		width="32" 
		height="32" 
		viewbox="0 0 32 32" 
		code="82710" 
		 transform=""
		><path d="M8.5 9C8.77614 9 9 9.22386 9 9.5L9 22.5C9 22.7761 8.77614 23 8.5 23 8.22386 23 8 22.7761 8 22.5V9.5C8 9.22386 8.22386 9 8.5 9ZM23.5 9C23.7761 9 24 9.22386 24 9.5L24 22.5C24 22.7761 23.7761 23 23.5 23 23.2239 23 23 22.7761 23 22.5L23 9.5C23 9.22386 23.2239 9 23.5 9ZM12 11.0442C11.7239 11.0442 11.5 11.268 11.5 11.5442V19.5442C11.5 19.8203 11.7239 20.0442 12 20.0442H20C20.2761 20.0442 20.5 19.8203 20.5 19.5442V11.5442C20.5 11.268 20.2761 11.0442 20 11.0442H12ZM12.5 19.0442V12.0442H19.5V19.0442H12.5Z"/>
	</svg>
	