<?xml version="1.0"?>
	<svg xmlns="http://www.w3.org/2000/svg" 
		width="1024" 
		height="1024" 
		viewbox="0 0 1024 1024" 
		code="82712" 
		 transform=""
		><path d="M316.455 707.549h391.11v-391.109h-391.11v391.109zM277.344 296.884c0-10.8 8.756-19.556 19.556-19.556h430.221c10.803 0 19.558 8.756 19.558 19.556v430.223c0 10.8-8.755 19.555-19.558 19.555h-430.221c-10.8 0-19.556-8.755-19.556-19.555v-430.223zM433.789 590.218h156.445v-156.445h-156.445v156.445zM394.678 414.218c0-10.8 8.755-19.555 19.555-19.555h195.555c10.8 0 19.555 8.755 19.555 19.555v195.555c0 10.8-8.755 19.555-19.555 19.555h-195.555c-10.8 0-19.555-8.755-19.555-19.555v-195.555z"/>
	</svg>
	