<?xml version="1.0"?>
	<svg xmlns="http://www.w3.org/2000/svg" 
		width="32" 
		height="32" 
		viewbox="0 0 32 32" 
		code="82711" 
		 transform=""
		><path d="M23 8.5C23 8.77614 22.7761 9 22.5 9L9.5 9C9.22386 9 9 8.77614 9 8.5 9 8.22386 9.22386 8 9.5 8L22.5 8C22.7761 8 23 8.22386 23 8.5ZM23 23.5C23 23.7761 22.7761 24 22.5 24L9.5 24C9.22386 24 9 23.7761 9 23.5 9 23.2239 9.22386 23 9.5 23L22.5 23C22.7761 23 23 23.2239 23 23.5ZM20.9558 12C20.9558 11.7239 20.732 11.5 20.4558 11.5L12.4558 11.5C12.1797 11.5 11.9558 11.7239 11.9558 12L11.9558 20C11.9558 20.2761 12.1797 20.5 12.4558 20.5L20.4558 20.5C20.732 20.5 20.9558 20.2761 20.9558 20L20.9558 12ZM12.9558 12.5L19.9558 12.5 19.9558 19.5H12.9558L12.9558 12.5Z"/>
	</svg>
	