<?xml version="1.0"?>
	<svg xmlns="http://www.w3.org/2000/svg" 
		width="24" 
		height="24" 
		viewbox="0 0 24 24" 
		code="82713" 
		 transform=""
		><path d="M13.124995 6.725C13.231095 6.725 13.332795 6.76714 13.407895 6.84215L16.407895 9.84216C16.482895 9.91717 16.524995 10.0189 16.524995 10.125L16.524995 16.875C16.524995 17.0959 16.345895 17.275 16.124995 17.275L7.875005 17.275C7.654095 17.275 7.475005 17.0959 7.475005 16.875L7.475005 7.125C7.475005 6.90408 7.654095 6.725 7.875005 6.725L13.124995 6.725ZM12.724995 7.525L8.275005 7.525 8.275005 16.475 15.724995 16.475 15.724995 10.525 13.124995 10.525C12.904095 10.525 12.724995 10.3459 12.724995 10.125L12.724995 7.525ZM13.524995 8.09068L13.524995 9.725 15.159295 9.725 13.524995 8.09068Z"/>
	</svg>
	