<?xml version="1.0"?>
	<svg xmlns="http://www.w3.org/2000/svg" 
		width="30" 
		height="30" 
		viewbox="0 0 30 30" 
		code="81028" 
		 transform=""
		><path d="M9.20599875 11.9139585L9.3363903 12.0378756 18.2309215 20.9436373C19.0865763 21.7992921 19.1476945 22.7466241 18.4239774 23.5625036L18.3095348 23.6838717 17.5907848 24.4026217C16.7886085 25.204798 15.843823 25.2226242 14.9795584 24.4463988L14.8505505 24.3240084 11.7172497 21.1907076C10.9648083 22.4822115 9.86422233 25.2561373 8.8310192 26.2893404 7.50582389 27.6145358 5.64156608 27.5696139 4.1591442 26.1096529 2.6879528 24.6609225 2.60933952 22.7854342 3.96822624 21.4377779 4.95122256 20.4653515 7.4761739 19.4332364 8.83719791 18.6878606L9.07808952 18.5515475 5.94478874 15.4182467C5.08913397 14.5518962 5.02801578 13.6244276 5.76143414 12.8007629L5.87740592 12.6780123 6.58492545 11.9704928C7.36514749 11.1902708 8.23679288 11.1322931 9.06788204 11.7965599L9.20599875 11.9139585ZM16.7706413 1.3996483L16.8832653 1.50369591 22.7904919 7.42215295C22.6159091 9.1776794 21.3523886 10.9248294 20.2225104 12.1861456L20.0453974 12.3811938 19.6249016 12.8282141C19.5371221 12.9336788 19.4750079 13.0685831 19.6234997 13.2170748 20.1907988 13.7843739 23.7467044 11.2782834 25.1745526 10.0433347L25.2948864 9.93777795 26.4291637 11.0608248C27.2293346 11.8609957 27.1578527 12.6915731 26.4746935 13.446641L26.3617809 13.5652194 20.7914684 19.1130709C20.0446423 19.8598971 19.2167321 20.0188644 18.4136539 19.3107398L18.2870739 19.1916842 10.7851208 11.6897311C9.96361198 10.8682223 10.034027 10.1075265 10.678618 9.26321282L10.7851208 9.1291842C13.4804333 5.91727013 13.4467419 3.2331881 14.5810192 1.62723107 15.0934832 0.903752452 15.9745617 0.818606212 16.6531152 1.3074386L16.7706413 1.3996483Z"/>
	</svg>
	