<?xml version="1.0"?>
	<svg xmlns="http://www.w3.org/2000/svg" 
		width="30" 
		height="30" 
		viewbox="0 0 30 30" 
		code="81031" 
		 transform=""
		><path d="M8.75 20C8.75 20.6875 9.3125 21.25 10 21.25L20 21.25C20.6875 21.25 21.25 20.6875 21.25 20 21.25 19.3125 20.6875 18.75 20 18.75L10 18.75C9.3125 18.75 8.75 19.3125 8.75 20ZM5 26.25L25 26.25C25.6875 26.25 26.25 25.6875 26.25 25 26.25 24.3125 25.6875 23.75 25 23.75L5 23.75C4.3125 23.75 3.75 24.3125 3.75 25 3.75 25.6875 4.3125 26.25 5 26.25ZM5 16.25L25 16.25C25.6875 16.25 26.25 15.6875 26.25 15 26.25 14.3125 25.6875 13.75 25 13.75L5 13.75C4.3125 13.75 3.75 14.3125 3.75 15 3.75 15.6875 4.3125 16.25 5 16.25ZM8.75 10C8.75 10.6875 9.3125 11.25 10 11.25L20 11.25C20.6875 11.25 21.25 10.6875 21.25 10 21.25 9.3125 20.6875 8.75 20 8.75L10 8.75C9.3125 8.75 8.75 9.3125 8.75 10ZM3.75 5C3.75 5.6875 4.3125 6.25 5 6.25L25 6.25C25.6875 6.25 26.25 5.6875 26.25 5 26.25 4.3125 25.6875 3.75 25 3.75L5 3.75C4.3125 3.75 3.75 4.3125 3.75 5Z"/>
	</svg>
	