<?xml version="1.0"?>
	<svg xmlns="http://www.w3.org/2000/svg" 
		width="32" 
		height="32" 
		viewbox="0 0 32 32" 
		code="82715" 
		 transform=""
		><path d="M15.8536 10.6464C16.0488 10.8417 16.0488 11.1583 15.8536 11.3536L14.3536 12.8536C14.1583 13.0488 13.8417 13.0488 13.6464 12.8536 13.4512 12.6583 13.4512 12.3417 13.6464 12.1464L14.2929 11.5 8.5 11.5C8.22386 11.5 8 11.2761 8 11 8 10.7239 8.22386 10.5 8.5 10.5L14.2929 10.5 13.6464 9.85355C13.4512 9.65829 13.4512 9.34171 13.6464 9.14645 13.8417 8.95118 14.1583 8.95118 14.3536 9.14645L15.8536 10.6464ZM17.6836 11C17.6836 10.7238 17.9075 10.5 18.1836 10.5H23.5009C23.777 10.5 24.0009 10.7238 24.0009 11 24.0009 11.2761 23.777 11.5 23.5009 11.5H18.1836C17.9075 11.5 17.6836 11.2761 17.6836 11ZM10.5 13.9995C10.2239 13.9995 10 14.2234 10 14.4995 10 14.7756 10.2239 14.9995 10.5 14.9995H23.5C23.7761 14.9995 24 14.7756 24 14.4995 24 14.2234 23.7761 13.9995 23.5 13.9995H10.5ZM10 18.4995C10 18.2234 10.2239 17.9995 10.5 17.9995H23.5C23.7761 17.9995 24 18.2234 24 18.4995 24 18.7756 23.7761 18.9995 23.5 18.9995H10.5C10.2239 18.9995 10 18.7756 10 18.4995ZM10 22.4995C10 22.2234 10.2239 21.9995 10.5 21.9995H23.5C23.7761 21.9995 24 22.2234 24 22.4995 24 22.7756 23.7761 22.9995 23.5 22.9995H10.5C10.2239 22.9995 10 22.7756 10 22.4995Z"/>
	</svg>
	