<?xml version="1.0"?>
	<svg xmlns="http://www.w3.org/2000/svg" 
		width="64" 
		height="64" 
		viewbox="0 0 64 64" 
		code="82716" 
		 transform=""
		><path d="M18.1166 22.1045H45.8536C46.4789 22.1045 47 21.6446 47 21.0453 47 20.4599 46.4789 20 45.8536 20H18.1166C17.4913 20 17 20.4599 17 21.0453 17 21.6446 17.4913 22.1045 18.1166 22.1045ZM18.1166 29.4077H45.8536C46.4789 29.4077 47 28.9477 47 28.3484 47 27.7631 46.4789 27.3031 45.8536 27.3031H18.1166C17.4913 27.3031 17 27.7631 17 28.3484 17 28.9477 17.4913 29.4077 18.1166 29.4077ZM18.1166 36.7108H45.8536C46.4789 36.7108 47 36.2369 47 35.6516 47 35.0662 46.4789 34.6063 45.8536 34.6063H18.1166C17.4913 34.6063 17 35.0662 17 35.6516 17 36.2369 17.4913 36.7108 18.1166 36.7108ZM18.1166 44H34.0471C34.6725 44 35.1787 43.5401 35.1787 42.9547 35.1787 42.3693 34.6725 41.8955 34.0471 41.8955H18.1166C17.4913 41.8955 17 42.3693 17 42.9547 17 43.5401 17.4913 44 18.1166 44Z"/>
	</svg>
	