<?xml version="1.0"?>
	<svg xmlns="http://www.w3.org/2000/svg" 
		width="30" 
		height="30" 
		viewbox="0 0 30 30" 
		code="81030" 
		 transform=""
		><path d="M5 13.125C3.9625 13.125 3.125 13.9625 3.125 15 3.125 16.0375 3.9625 16.875 5 16.875 6.0375 16.875 6.875 16.0375 6.875 15 6.875 13.9625 6.0375 13.125 5 13.125ZM5 5.625C3.9625 5.625 3.125 6.4625 3.125 7.5 3.125 8.5375 3.9625 9.375 5 9.375 6.0375 9.375 6.875 8.5375 6.875 7.5 6.875 6.4625 6.0375 5.625 5 5.625ZM5 20.625C3.9625 20.625 3.125 21.475 3.125 22.5 3.125 23.525 3.975 24.375 5 24.375 6.025 24.375 6.875 23.525 6.875 22.5 6.875 21.475 6.0375 20.625 5 20.625ZM10 23.75L25 23.75C25.6875 23.75 26.25 23.1875 26.25 22.5 26.25 21.8125 25.6875 21.25 25 21.25L10 21.25C9.3125 21.25 8.75 21.8125 8.75 22.5 8.75 23.1875 9.3125 23.75 10 23.75ZM10 16.25L25 16.25C25.6875 16.25 26.25 15.6875 26.25 15 26.25 14.3125 25.6875 13.75 25 13.75L10 13.75C9.3125 13.75 8.75 14.3125 8.75 15 8.75 15.6875 9.3125 16.25 10 16.25ZM8.75 7.5C8.75 8.1875 9.3125 8.75 10 8.75L25 8.75C25.6875 8.75 26.25 8.1875 26.25 7.5 26.25 6.8125 25.6875 6.25 25 6.25L10 6.25C9.3125 6.25 8.75 6.8125 8.75 7.5Z"/>
	</svg>
	