<?xml version="1.0"?>
	<svg xmlns="http://www.w3.org/2000/svg" 
		width="1024" 
		height="1024" 
		viewbox="0 0 1024 1024" 
		code="82714" 
		 transform=""
		><path d="M260.426 736h503.149c12.315 0 20.426-6.432 20.426-16.822v-414.355c0-10.144-8.11-16.822-20.426-16.822h-503.149c-12.616 0-20.426 6.678-20.426 16.822v414.355c0 10.39 7.81 16.822 20.426 16.822zM733.658 385.672h-443.792c-10.005 0-17.866-7.358-17.866-16.947 0-9.366 7.861-16.725 17.866-16.725h443.792c10.005 0 18.342 7.358 18.342 16.725 0 9.589-8.338 16.947-18.342 16.947zM733.658 486.523h-443.792c-10.005 0-17.866-7.36-17.866-16.949 0-9.365 7.861-16.725 17.866-16.725h443.792c10.005 0 18.342 7.36 18.342 16.725 0 9.589-8.338 16.949-18.342 16.949zM733.658 587.373h-443.792c-10.005 0-17.866-7.582-17.866-16.947s7.861-16.725 17.866-16.725h443.792c10.005 0 18.342 7.358 18.342 16.725 0 9.365-8.338 16.947-18.342 16.947zM544.754 688h-254.888c-10.005 0-17.866-7.358-17.866-16.725s7.861-16.947 17.866-16.947h254.888c10.006 0 18.106 7.581 18.106 16.947s-8.099 16.725-18.106 16.725z"/>
	</svg>
	