<?xml version="1.0"?>
	<svg xmlns="http://www.w3.org/2000/svg" 
		width="24" 
		height="24" 
		viewbox="0 0 24 24" 
		code="82717" 
		 transform=""
		><path d="M6.44665 7.84181H17.5414C17.7916 7.84181 18 7.65784 18 7.41812 18 7.18397 17.7916 7 17.5414 7H6.44665C6.19653 7 6 7.18397 6 7.41812 6 7.65784 6.19653 7.84181 6.44665 7.84181ZM6.44665 10.7631H17.5414C17.7916 10.7631 18 10.5791 18 10.3394 18 10.1052 17.7916 9.92125 17.5414 9.92125H6.44665C6.19653 9.92125 6 10.1052 6 10.3394 6 10.5791 6.19653 10.7631 6.44665 10.7631ZM6.44665 13.6843H17.5414C17.7916 13.6843 18 13.4948 18 13.2606 18 13.0265 17.7916 12.8425 17.5414 12.8425H6.44665C6.19653 12.8425 6 13.0265 6 13.2606 6 13.4948 6.19653 13.6843 6.44665 13.6843ZM6.44665 16.6H12.8189C13.069 16.6 13.2715 16.416 13.2715 16.1819 13.2715 15.9477 13.069 15.7582 12.8189 15.7582H6.44665C6.19653 15.7582 6 15.9477 6 16.1819 6 16.416 6.19653 16.6 6.44665 16.6Z"/>
	</svg>
	