<?xml version="1.0"?>
	<svg xmlns="http://www.w3.org/2000/svg" 
		width="32" 
		height="32" 
		viewbox="0 0 32 32" 
		code="82718" 
		 transform=""
		><path d="M24 16C24 20.3789 20.3789 24 16 24 11.6211 24 8 20.3789 8 16 8 11.6211 11.6132 8 15.992 8 20.3789 8 24 11.6211 24 16ZM9.03689 16C9.03689 19.8604 12.1396 22.9711 16 22.9711 19.8604 22.9711 22.9711 19.8604 22.9711 16 22.9631 12.1396 19.8524 9.03689 15.992 9.03689 12.1396 9.03689 9.03689 12.1396 9.03689 16ZM14.6127 19.015C14.9636 19.015 15.1311 18.8235 15.1311 18.5364V13.4875C15.1311 13.2004 14.9636 13.009 14.6127 13.009H13.831C13.4721 13.009 13.3046 13.2004 13.3046 13.4875V18.5364C13.3046 18.8235 13.4721 19.015 13.831 19.015H14.6127ZM18.6879 18.5364C18.6879 18.8235 18.5204 19.015 18.1615 19.015H17.3878C17.0369 19.015 16.8694 18.8235 16.8694 18.5364V13.4875C16.8694 13.2004 17.0369 13.009 17.3878 13.009H18.1615C18.5204 13.009 18.6879 13.2004 18.6879 13.4875V18.5364Z"/>
	</svg>
	