<?xml version="1.0"?>
	<svg xmlns="http://www.w3.org/2000/svg" 
		width="32" 
		height="32" 
		viewbox="0 0 32 32" 
		code="82720" 
		 transform=""
		><path d="M22.5753 10.849L21.1505 9.4242C20.5888 8.86251 19.6024 8.86251 19.0407 9.4242L12.273 16.192C11.6154 16.8496 11.1085 17.6716 10.8208 18.5621L10.0399 20.9458C9.94397 21.2335 10.0262 21.5486 10.2317 21.7678 10.3824 21.9185 10.5879 22.0007 10.7934 22.0007 10.8756 22.0007 10.9578 21.987 11.04 21.9596L13.4238 21.1787C14.3142 20.891 15.1362 20.3841 15.7938 19.7265L22.5616 12.9588C22.8493 12.6711 23 12.3012 23 11.9039 23 11.5066 22.863 11.1367 22.5753 10.849ZM13.1498 20.2745L11.0263 20.9732 11.725 18.8635C11.8209 18.5621 11.9579 18.2744 12.1223 17.9867L14.0265 19.8909C13.7389 20.0416 13.4512 20.1786 13.1498 20.2745ZM15.1362 19.0553C15.0403 19.1511 14.9307 19.247 14.8211 19.3429L12.6703 17.1921C12.7662 17.0825 12.8484 16.9729 12.958 16.877L18.3283 11.5066 20.5203 13.6986 15.1362 19.0553ZM21.904 12.2875L21.1779 13.0136 18.9859 10.8216 19.712 10.0955C19.8079 9.9859 19.9449 9.9311 20.0956 9.9311 20.2463 9.9311 20.3833 9.9859 20.4792 10.0955L21.904 11.5203C22.0136 11.6162 22.0684 11.7532 22.0684 11.9039 22.0684 12.0546 22.0136 12.1916 21.904 12.2875Z"/>
	</svg>
	