<?xml version="1.0"?>
	<svg xmlns="http://www.w3.org/2000/svg" 
		width="30" 
		height="30" 
		viewbox="0 0 30 30" 
		code="81038" 
		 transform=""
		><path d="M16.367281 1.949524273L16.4364286 2.07132231 29.2537932 26.2818999C29.7508312 27.2207494 29.3353329 27.9803959 28.3334771 28.0446774L28.1932566 28.0490845 2.80846396 28.0490845C1.755458678 28.0490845 1.273831095 27.3251929 1.6861332089999999 26.408105L1.747927403 26.2818999 14.565292 2.07132231C15.0386615 1.177179891 15.7735861 1.1021708590000001 16.2913111 1.833740981L16.367281 1.949524273ZM15.5008603 21.2008156L15.3601061 21.2068099C14.574149 21.2740477 13.9466261 21.8990837 13.8755194 22.6839358L13.8688046 22.8328713 13.8747989 22.9736254C13.9420367 23.7595826 14.5670727 24.3871055 15.3519248 24.4582121L15.5008603 24.464927 15.6416145 24.4589327C16.4275717 24.3916948 17.0550945 23.7666589 17.1262012 22.9818067L17.132916 22.8328713 17.1269217 22.6921171C17.0596839 21.9061599 16.4346479 21.2786371 15.6497958 21.2075304L15.5008603 21.2008156ZM15.5008603 8.14437008L15.3601061 8.150364360000001C14.574149 8.2176022 13.9466261 8.842638149999999 13.8755194 9.62749031L13.8688046 9.77642577 13.8688046 17.9367042C13.8688046 18.7901834 14.5250266 19.4913254 15.3601061 19.5627656L15.5008603 19.5687599 15.6416145 19.5627656C16.4275717 19.4955278 17.0550945 18.8704918 17.1262012 18.0856397L17.132916 17.9367042 17.132916 9.77642577C17.132916 8.875531030000001 16.401755 8.14437008 15.5008603 8.14437008Z"/>
	</svg>
	