<?xml version="1.0"?>
	<svg xmlns="http://www.w3.org/2000/svg" 
		width="64" 
		height="64" 
		viewbox="0 0 64 64" 
		code="82721" 
		 transform=""
		><path d="M20 46H44C44 47.1046 43.1046 48 42 48H22C20.8954 48 20 47.1046 20 46ZM20 18H44C44 16.8954 43.1046 16 42 16H22C20.8954 16 20 16.8954 20 18ZM46 20C47.1046 20 48 20.8954 48 22V42C48 43.1046 47.1046 44 46 44V20ZM18 20C16.8954 20 16 20.8954 16 22V42C16 43.1046 16.8954 44 18 44V20ZM33.9997 31.9998C33.9997 33.1044 33.1043 33.9998 31.9997 33.9998 30.8952 33.9998 29.9997 33.1044 29.9997 31.9998 29.9997 30.8952 30.8952 29.9998 31.9997 29.9998 33.1043 29.9998 33.9997 30.8952 33.9997 31.9998Z"/>
	</svg>
	