<?xml version="1.0"?>
	<svg xmlns="http://www.w3.org/2000/svg" 
		width="40" 
		height="40" 
		viewbox="0 0 40 40" 
		code="82723" 
		 transform=""
		><path d="M27.583005 14.0527C29.106405 14.0527 30.053705 15.0195 30.053705 16.5918L30.053705 16.5918 30.053705 23.4082C30.053705 24.9805 29.106405 25.9473 27.583005 25.9473L27.583005 25.9473 12.407205 25.9473C10.883805 25.9473 9.946295 24.9805 9.946295 23.4082L9.946295 23.4082 9.946295 16.5918C9.946295 15.0195 10.883805 14.0527 12.407205 14.0527L12.407205 14.0527ZM12.493705 18C12.202505 18 12.000005 18.164 12.000005 18.3998L12.000005 21.6002C12.000005 21.836 12.202505 22 12.493705 22 12.797505 22 13.000005 21.836 13.000005 21.6002L13.000005 18.3998C13.000005 18.164 12.797505 18 12.493705 18Z"/>
	</svg>
	