<?xml version="1.0"?>
	<svg xmlns="http://www.w3.org/2000/svg" 
		width="40" 
		height="40" 
		viewbox="0 0 40 40" 
		code="82724" 
		 transform=""
		><path d="M18.4805 27.1592H21.5293C21.7539 27.1592 21.9102 27.0029 21.9102 26.7783 21.9102 26.5439 21.7539 26.3877 21.5293 26.3877H18.4805C18.2559 26.3877 18.0996 26.5439 18.0996 26.7783 18.0996 27.0029 18.2559 27.1592 18.4805 27.1592ZM16.5918 30.0537H23.4082C24.9805 30.0537 25.9473 29.1162 25.9473 27.5928V12.417C25.9473 10.8936 24.9805 9.94629 23.4082 9.94629H16.5918C15.0195 9.94629 14.0527 10.8936 14.0527 12.417V27.5928C14.0527 29.1162 15.0195 30.0537 16.5918 30.0537ZM16.7285 28.8525C15.752 28.8525 15.2637 28.374 15.2637 27.417V12.583C15.2637 11.6357 15.752 11.1572 16.7285 11.1572H17.0996C17.4961 11.1572 17.6953 11.1572 17.6953 11.1572H22.3145C22.6758 11.1572 22.8086 11.1572 22.9102 11.1572H23.2715C24.248 11.1572 24.7461 11.6357 24.7461 12.583V27.417C24.7461 28.374 24.248 28.8525 23.2715 28.8525H16.7285Z"/>
	</svg>
	