<?xml version="1.0"?>
	<svg xmlns="http://www.w3.org/2000/svg" 
		width="40" 
		height="40" 
		viewbox="0 0 40 40" 
		code="82722" 
		 transform=""
		><path d="M12.8408 18.4805L12.8408 21.5293C12.8408 21.7539 12.9971 21.9102 13.2217 21.9102 13.4561 21.9102 13.6123 21.7539 13.6123 21.5293L13.6123 18.4805C13.6123 18.2559 13.4561 18.0996 13.2217 18.0996 12.9971 18.0996 12.8408 18.2559 12.8408 18.4805ZM9.94629 16.5918L9.94629 23.4082C9.94629 24.9805 10.8838 25.9473 12.4072 25.9473L27.583 25.9473C29.1064 25.9473 30.0537 24.9805 30.0537 23.4082V16.5918C30.0537 15.0195 29.1064 14.0527 27.583 14.0527L12.4072 14.0527C10.8838 14.0527 9.94629 15.0195 9.94629 16.5918ZM11.1475 16.7285C11.1475 15.752 11.626 15.2637 12.583 15.2637L27.417 15.2637C28.3643 15.2637 28.8428 15.752 28.8428 16.7285V17.0996C28.8428 17.4961 28.8428 17.6953 28.8428 17.6953V22.3145C28.8428 22.6758 28.8428 22.8086 28.8428 22.9102V23.2715C28.8428 24.248 28.3643 24.7461 27.417 24.7461L12.583 24.7461C11.626 24.7461 11.1475 24.248 11.1475 23.2715L11.1475 16.7285Z"/>
	</svg>
	