<?xml version="1.0"?>
	<svg xmlns="http://www.w3.org/2000/svg" 
		width="40" 
		height="40" 
		viewbox="0 0 40 40" 
		code="82725" 
		 transform=""
		><path d="M23.4082 9.946295C24.9805 9.946295 25.9473 10.893605 25.9473 12.417005L25.9473 12.417005 25.9473 27.592805C25.9473 29.116205 24.9805 30.053705 23.4082 30.053705L23.4082 30.053705 16.5918 30.053705C15.0195 30.053705 14.0527 29.116205 14.0527 27.592805L14.0527 27.592805 14.0527 12.417005C14.0527 10.893605 15.0195 9.946295 16.5918 9.946295L16.5918 9.946295ZM21.5293 27.387705L18.4805 27.387705C18.2559 27.387705 18.0996 27.543905 18.0996 27.778305 18.0996 28.002905 18.2559 28.159205 18.4805 28.159205L21.5293 28.159205C21.7539 28.159205 21.9102 28.002905 21.9102 27.778305 21.9102 27.543905 21.7539 27.387705 21.5293 27.387705Z"/>
	</svg>
	