<?xml version="1.0"?>
	<svg xmlns="http://www.w3.org/2000/svg" 
		width="32" 
		height="32" 
		viewbox="0 0 32 32" 
		code="82726" 
		 transform=""
		><path d="M17.3759 20.263C17.6349 19.8716 17.7496 19.4423 17.7051 19.0706 17.6728 18.7986 17.6703 18.4237 17.8273 18.1987L20.203 14.7897C20.3598 14.5649 20.4957 14.3911 20.5066 14.4018L20.5261 14.4213C20.8277 14.7219 21.347 14.7185 21.8161 14.4529 22.0551 14.318 22.0526 13.9955 21.8581 13.8017L18.1849 10.1415C17.9906 9.94766 17.667 9.94502 17.5314 10.1831 17.2652 10.6508 17.2616 11.168 17.5636 11.469 17.5636 11.469 17.5724 11.4777 17.583 11.4883 17.5936 11.4989 17.4194 11.6345 17.1933 11.7906L13.7727 14.1582C13.5468 14.3145 13.1706 14.3124 12.8976 14.2799 12.5244 14.2355 12.0936 14.3499 11.7008 14.608 11.4712 14.7588 11.4738 15.0786 11.6681 15.2723L13.8454 17.442 11.427 19.8516 11.4325 19.857C10.4634 20.8747 9.84954 21.7861 10.0321 21.968 10.2146 22.1499 11.1292 21.5381 12.1507 20.5726L12.1562 20.578 14.5744 18.1684 16.7091 20.2958C16.9036 20.4894 17.2245 20.492 17.3759 20.263Z"/>
	</svg>
	