<?xml version="1.0"?>
	<svg xmlns="http://www.w3.org/2000/svg" 
		width="30" 
		height="30" 
		viewbox="0 0 30 30" 
		code="81043" 
		 transform=""
		><path d="M3.36246751 11.3775391L11.3773113 3.36269534C11.8293946 2.91109812 12.5423576 2.88144534 13.0288014 3.27246664L13.1293946 3.36269534 13.2898113 3.52285159C13.7411654 3.97469187 13.7712557 4.68854603 13.3800821 5.17447458L13.2898113 5.27493492 12.8778321 5.68795576 17.3182943 8.93460289 17.3182943 8.93460289 21.7741863 12.1811849 21.7741863 12.1811849C24.1473633 11.1754558 26.3215821 11.0759766 27.4885092 12.2426433L27.5525826 12.3115605C27.69594 12.4780365 27.9004419 12.8087013 27.6239549 13.1656883L27.5444988 13.2554037 13.2780925 27.5220703C12.7786133 28.0215495 12.3679363 27.6098308 12.2075196 27.4496745 11.1353842 26.2470703 11.1853842 24.1720703 12.1465821 21.8577474 12.1267904 21.8215495 12.1043946 21.7850912 12.0760092 21.7473308L8.82106126 17.3721354 8.82106126 17.3721354 5.57314459 12.991862 5.27548834 13.2900391C4.82340501 13.7413933 4.10998834 13.7714835 3.6241192 13.3798865L3.52366542 13.2895183 3.36272792 13.129362C2.91161681 12.6777648 2.88108903 11.9643805 3.27220323 11.4780901L3.36246751 11.3775391 11.3773113 3.36269534 3.36246751 11.3775391ZM20.2549154 22.5001953L22.4903321 20.2455078 22.4903321 20.2455078 22.7314779 20.5202474 27.2213217 25.8241537C27.617155 26.2910808 27.6273113 26.8288412 27.2426758 27.2077474 26.860905 27.5843099 26.3444988 27.5780599 25.8806967 27.1905599L20.2549154 22.5001953 20.2549154 22.5001953Z"/>
	</svg>
	