<?xml version="1.0"?>
	<svg xmlns="http://www.w3.org/2000/svg" 
		width="32" 
		height="32" 
		viewbox="0 0 32 32" 
		code="82728" 
		 transform=""
		><path d="M16 24C20.3857 24 24 20.3793 24 15.9958 24 11.6207 20.3774 8 16 8 11.6143 8 8 11.6207 8 15.9958 8 20.3793 11.6226 24 16 24ZM16 22.844C12.2096 22.844 9.15723 19.7932 9.15723 15.9964 9.15723 12.208 12.2013 9.15723 16 9.15723 19.7904 9.15723 22.8428 12.208 22.8512 15.9964 22.8595 19.7932 19.7987 22.844 16 22.844ZM18.876 16.3896L14.5657 18.9459C14.2387 19.1471 13.8613 18.9878 13.8613 18.6526V13.3472C13.8613 13.0119 14.2555 12.8695 14.5657 13.0455L18.876 15.6185C19.1695 15.7946 19.1779 16.2052 18.876 16.3896Z"/>
	</svg>
	