<?xml version="1.0"?>
	<svg xmlns="http://www.w3.org/2000/svg" 
		width="32" 
		height="32" 
		viewbox="0 0 32 32" 
		code="82729" 
		 transform=""
		><path d="M12.5636 22.7307C12.2836 22.9021 12.0658 23 11.8013 23 11.3112 23 11 22.6083 11 21.9962V11.0119C11 10.3917 11.3112 10 11.8013 10 12.0658 10 12.2836 10.1061 12.5636 10.2693L21.261 15.5738C21.7977 15.9002 22 16.1287 22 16.5041 22 16.8795 21.7977 17.0998 21.261 17.4344L12.5636 22.7307ZM12 21.8717C12 21.9572 12.0404 22 12.0889 22 12.1375 22 12.1698 21.9829 12.2102 21.9572L20.903 16.6283C20.9515 16.5941 21 16.5599 21 16.5 21 16.4401 20.9515 16.3974 20.903 16.3717L12.2102 11.0428C12.1698 11.0171 12.1375 11 12.0889 11 12.0404 11 12 11.0342 12 11.1198V21.8717Z"/>
	</svg>
	