<?xml version="1.0"?>
	<svg xmlns="http://www.w3.org/2000/svg" 
		width="30" 
		height="30" 
		viewbox="0 0 30 30" 
		code="81047" 
		 transform=""
		><path d="M13.0249859 6.9348801C13.1846219 7.02146215 13.3191607 7.14784703 13.4155413 7.3017655L15.3209783 10.6155691C17.1183031 13.6457351 16.5290354 17.5230177 13.9126118 19.8823841L15.5813486 22.7582922C16.0932689 23.6905121 16.9833982 24.3557321 18.0224495 24.5825992 19.0615007 24.8094662 20.1478931 24.5758012 21.0017845 23.9417935 22.4789636 22.7284803 22.8328005 20.6105135 21.8302354 18.9829231 20.9436954 17.4703299 20.695024 15.6672859 21.1390289 13.971187 21.5830338 12.2750882 22.6832684 10.825161 24.197238 9.94097336L27.8897619 7.72782596C28.6001505 7.41420744 29.4324927 7.69336081 29.8101333 8.37188574 30.1877738 9.05041067 29.9863753 9.90490394 29.3454685 10.3433638L25.6766146 12.4618311C23.968592 13.4822849 23.3679801 15.651471 24.275487 17.3956996L24.3747631 17.5745566C25.3006439 19.1316871 25.5538445 20.9982717 25.0762357 22.7457844 24.5986269 24.493297 23.4312362 25.971623 21.8420704 26.8413716 18.5804846 28.4549172 14.6267625 27.2066482 12.8829657 24.0128036L11.332579 21.3735957C7.98183004 22.4342939 4.34494843 21.015023 2.59833958 17.965112L0.692902513 14.6513085C0.602556902 14.5010413 0.553560223 14.329553 0.55088236 14.1542379L13.0249859 6.9348801ZM2.51053827 6.81689858L2.58650456 6.9348801 4.36175648 10.0119834 1.99475392 11.3848449 0.195831975 8.27223655C-0.00738510128 7.93374284-0.0550369691 7.5241447 0.065044972 7.148039 0.185126913 6.7719333 0.46131758 6.46573067 0.823087654 6.30762442 1.44103852 6.07263266 2.13292115 6.28841858 2.51053827 6.81689858ZM8.08531439 3.61641518L8.1607956 3.73942664 9.91237749 6.80469496 7.54537493 8.18939146 5.73461797 5.07678309C5.53140089 4.73828938 5.48374903 4.32869124 5.60383097 3.95258554 5.72391291 3.57647984 6.00010357 3.27027721 6.36187365 3.11217097 6.98884047 2.84732259 7.70792429 3.06582498 8.08531439 3.61641518Z"/>
	</svg>
	