<?xml version="1.0"?>
	<svg xmlns="http://www.w3.org/2000/svg" 
		width="32" 
		height="32" 
		viewbox="0 0 32 32" 
		code="82730" 
		 transform=""
		><path d="M16 9C14.7733 9 14 9.71059 14 10.5 14 10.9208 14.1997 11.3505 14.5583 11.6856 14.8159 11.9263 14.8114 12.2642 14.7502 12.4682 14.6903 12.668 14.488 13 14.0761 13H11V23H21V20.4933C20.5675 20.8084 20.0493 21 19.5 21 17.9422 21 17 19.5347 17 18 17 16.4653 17.9422 15 19.5 15 20.0493 15 20.5675 15.1916 21 15.5067V13H17.9239C17.512 13 17.3097 12.668 17.2498 12.4682 17.1886 12.2642 17.1841 11.9263 17.4417 11.6856 17.8003 11.3505 18 10.9208 18 10.5 18 9.71059 17.2267 9 16 9ZM13 10.5C13 8.9422 14.4653 8 16 8 17.5347 8 19 8.9422 19 10.5 19 11.0493 18.8084 11.5675 18.4933 12H21C21.5523 12 22 12.4477 22 13V16.0761C22 16.488 21.668 16.6903 21.4682 16.7502 21.2642 16.8114 20.9263 16.8159 20.6856 16.5583 20.3505 16.1997 19.9208 16 19.5 16 18.7106 16 18 16.7733 18 18 18 19.2267 18.7106 20 19.5 20 19.9208 20 20.3505 19.8003 20.6856 19.4417 20.9263 19.1841 21.2642 19.1886 21.4682 19.2498 21.668 19.3097 22 19.512 22 19.9239V23C22 23.5523 21.5523 24 21 24H11C10.4477 24 10 23.5523 10 23V13C10 12.4477 10.4477 12 11 12H13.5067C13.1916 11.5675 13 11.0493 13 10.5Z"/>
	</svg>
	