<?xml version="1.0"?>
	<svg xmlns="http://www.w3.org/2000/svg" 
		width="24" 
		height="24" 
		viewbox="0 0 24 24" 
		code="82734" 
		 transform=""
		><path d="M7.40039 10.8599C7.40039 10.0314 8.07196 9.35986 8.90039 9.35986H15.1002C15.9286 9.35986 16.6002 10.0314 16.6002 10.8599V17.0596C16.6002 17.8881 15.9286 18.5596 15.1002 18.5596H8.90039C8.07196 18.5596 7.40039 17.8881 7.40039 17.0596V10.8599ZM8.90039 10.3599C8.62425 10.3599 8.40039 10.5837 8.40039 10.8599V17.0596C8.40039 17.3358 8.62425 17.5596 8.90039 17.5596H15.1002C15.3763 17.5596 15.6002 17.3358 15.6002 17.0596V10.8599C15.6002 10.5837 15.3763 10.3599 15.1002 10.3599H8.90039Z"/>
	</svg>
	