<?xml version="1.0"?>
	<svg xmlns="http://www.w3.org/2000/svg" 
		width="32" 
		height="32" 
		viewbox="0 0 32 32" 
		code="82736" 
		 transform=""
		><path d="M8 22.8571V9.14286C8 8.51429 8.51429 8 9.14286 8H22.8571C23.4857 8 24 8.51429 24 9.14286V22.8571C24 23.4857 23.4857 24 22.8571 24H9.14286C8.51429 24 8 23.4857 8 22.8571ZM9.58333 23H22.4167C22.7433 23 23 22.7433 23 22.4167V9.58333C23 9.25667 22.7433 9 22.4167 9H9.58333C9.25667 9 9 9.25667 9 9.58333V22.4167C9 22.7433 9.25667 23 9.58333 23ZM15.8637 17.9541C15.8801 17.9378 15.8847 17.9331 15.8902 17.9318 15.8924 17.9312 15.8948 17.9312 15.898 17.9312H16.1723C16.1723 17.9312 16.1952 17.9312 16.1952 17.9541H16.218C16.218 17.9541 16.2409 17.9541 16.2409 17.977L17.2923 19.0284C17.3837 19.1198 17.3837 19.257 17.2923 19.3484 17.2009 19.4398 17.0638 19.4398 16.9723 19.3484L16.298 18.6741V20.7884C16.298 20.8684 16.2638 20.937 16.2066 20.9827 16.1723 21.0055 16.1266 21.017 16.0695 21.017 16.0123 21.017 15.9552 20.9941 15.898 20.937 15.8637 20.9027 15.818 20.8455 15.818 20.7655V18.6855L15.1438 19.3598C15.0523 19.4512 14.9152 19.4512 14.8238 19.3598 14.7895 19.3255 14.7438 19.2684 14.7438 19.1884 14.7438 19.1312 14.7666 19.0741 14.8238 19.017L15.8752 17.9655C15.8409 17.977 15.8409 17.9541 15.8637 17.9541ZM11.2 16H20.8C21.46 16 22 15.55 22 15V13C22 12.45 21.46 12 20.8 12H11.2C10.54 12 10 12.45 10 13V15C10 15.55 10.54 16 11.2 16Z"/>
	</svg>
	