<?xml version="1.0"?>
	<svg xmlns="http://www.w3.org/2000/svg" 
		width="24" 
		height="24" 
		viewbox="0 0 24 24" 
		code="82732" 
		 transform=""
		><path d="M5.75419 5.46265L5.74253 5.4624C5.59155 5.4624 5.46916 5.58479 5.46916 5.73577L5.46916 12.0755C5.46916 12.2265 5.59155 12.3488 5.74253 12.3488 5.89351 12.3488 6.0159 12.2265 6.0159 12.0755L6.0159 6.00939H13.3665V9.33631H10.8303C10.0018 9.33631 9.33026 10.0079 9.33026 10.8363V13.5077H5.96916C5.69302 13.5077 5.46916 13.7316 5.46916 14.0077 5.46916 14.2839 5.69302 14.5077 5.96916 14.5077H9.33026V17.0374C9.33026 17.8658 10.0018 18.5374 10.8303 18.5374H17.0313C17.8598 18.5374 18.5313 17.8658 18.5313 17.0374V10.8363C18.5313 10.0079 17.8598 9.33631 17.0313 9.33631H14.3665V6.00939H17.9224V8.26284C17.9224 8.41382 18.0448 8.53621 18.1958 8.53621 18.3468 8.53621 18.4692 8.41382 18.4692 8.26284V5.73577C18.4692 5.58479 18.3468 5.4624 18.1958 5.4624L18.1841 5.46265H13.8823C13.877 5.46248 13.8718 5.4624 13.8665 5.4624 13.8612 5.4624 13.8559 5.46248 13.8507 5.46265H5.75419ZM10.8303 10.3363C10.5541 10.3363 10.3303 10.5602 10.3303 10.8363V17.0374C10.3303 17.3135 10.5541 17.5374 10.8303 17.5374H17.0313C17.3075 17.5374 17.5313 17.3135 17.5313 17.0374V10.8363C17.5313 10.5602 17.3075 10.3363 17.0313 10.3363H10.8303ZM8.19538 18.4975C8.34636 18.4975 8.46875 18.3751 8.46875 18.2241 8.46875 18.0732 8.34636 17.9508 8.19538 17.9508H6.01549L6.01549 15.7283C6.01549 15.5773 5.8931 15.4549 5.74212 15.4549 5.59114 15.4549 5.46875 15.5773 5.46875 15.7283V18.224C5.46875 18.3616 5.57037 18.4754 5.70264 18.4946 5.71577 18.4965 5.7292 18.4975 5.74286 18.4975H8.19538Z"/>
	</svg>
	