<?xml version="1.0"?>
	<svg xmlns="http://www.w3.org/2000/svg" 
		width="24" 
		height="24" 
		viewbox="0 0 24 24" 
		code="82731" 
		 transform=""
		><path d="M14.3598 5.97949C14.3598 5.70335 14.136 5.47949 13.8598 5.47949 13.5837 5.47949 13.3598 5.70335 13.3598 5.97949V9.34162H10.836C10.0076 9.34162 9.33603 10.0132 9.33603 10.8416V13.5031H5.98653C5.71039 13.5031 5.48653 13.727 5.48653 14.0031 5.48653 14.2793 5.71039 14.5031 5.98653 14.5031H9.33603V17.0206C9.33603 17.849 10.0076 18.5206 10.836 18.5206H17.015C17.8434 18.5206 18.515 17.849 18.515 17.0206V10.8416C18.515 10.0132 17.8435 9.34162 17.015 9.34162H14.3598V5.97949ZM5.75976 5.47974C5.60919 5.47974 5.48713 5.6018 5.48713 5.75237L5.48725 5.7606 5.48725 12.1429C5.48725 12.2935 5.60931 12.4156 5.75988 12.4156 5.91045 12.4156 6.03251 12.2935 6.03251 12.1429L6.03251 6.025H12.1285C12.279 6.025 12.4011 5.90294 12.4011 5.75237 12.4011 5.6018 12.279 5.47974 12.1285 5.47974H5.75976ZM10.336 10.8416C10.336 10.5655 10.5599 10.3416 10.836 10.3416H17.015C17.2912 10.3416 17.515 10.5655 17.515 10.8416V17.0206C17.515 17.2968 17.2912 17.5206 17.015 17.5206H10.836C10.5599 17.5206 10.336 17.2968 10.336 17.0206V10.8416ZM15.4604 5.7524C15.4604 5.60183 15.5824 5.47977 15.733 5.47977H18.1789C18.3295 5.47977 18.4515 5.60183 18.4515 5.7524L18.4513 5.76329V8.24151C18.4513 8.39208 18.3293 8.51414 18.1787 8.51414 18.0281 8.51414 17.9061 8.39208 17.9061 8.24151V6.02503H15.733C15.5824 6.02503 15.4604 5.90297 15.4604 5.7524ZM8.20576 18.4795C8.35633 18.4795 8.47839 18.3574 8.47839 18.2069 8.47839 18.0563 8.35633 17.9342 8.20576 17.9342H6.03159L6.03159 15.7177C6.03159 15.5672 5.90953 15.4451 5.75896 15.4451 5.60839 15.4451 5.48633 15.5672 5.48633 15.7177V18.2067C5.48633 18.3446 5.58865 18.4586 5.72149 18.4768 5.73402 18.4786 5.74683 18.4795 5.75985 18.4795H8.20576Z"/>
	</svg>
	