<?xml version="1.0"?>
	<svg xmlns="http://www.w3.org/2000/svg" 
		width="1024" 
		height="1024" 
		viewbox="0 0 1024 1024" 
		code="82733" 
		 transform=""
		><path d="M613.308 253.854v144.33h114.116c35.345 0 64 28.653 64 64.002v265.284c0 35.345-28.655 64-64 64h-265.634c-35.345 0-63.998-28.655-63.998-64v-108.322h-143.916c-11.782 0-21.333-9.553-21.333-21.333 0-11.785 9.551-21.333 21.333-21.333h143.916v-114.295c0-35.349 28.654-64.002 63.998-64.002h108.851v-144.33c0-11.782 9.549-21.333 21.333-21.333 11.78 0 21.333 9.551 21.333 21.333zM461.79 440.853c-11.78 0-21.333 9.549-21.333 21.333v265.284c0 11.78 9.553 21.333 21.333 21.333h265.634c11.78 0 21.333-9.553 21.333-21.333v-265.284c0-11.785-9.553-21.333-21.333-21.333h-265.634z"/>
	</svg>
	