<?xml version="1.0"?>
	<svg xmlns="http://www.w3.org/2000/svg" 
		width="24" 
		height="24" 
		viewbox="0 0 24 24" 
		code="82735" 
		 transform=""
		><path d="M6.67865 5.96227L10.2091 9.49271C10.4098 9.39303 10.6361 9.33699 10.8754 9.33699H17.0765C17.9049 9.33699 18.5765 10.0086 18.5765 10.837V17.0381C18.5765 17.8665 17.9049 18.5381 17.0765 18.5381H10.8754C10.0469 18.5381 9.37537 17.8665 9.37537 17.0381V10.837C9.37537 10.6132 9.42438 10.4008 9.51225 10.2101L5.57125 6.26908C5.37599 6.07382 5.37599 5.75724 5.57125 5.56197 5.65348 5.47975 5.75722 5.43215 5.86436 5.41917 5.87892 5.41677 5.89387 5.41553 5.90911 5.41553H18.2404C18.3914 5.41553 18.5138 5.53792 18.5138 5.6889 18.5138 5.70337 18.5127 5.71758 18.5105 5.73145 18.513 5.74625 18.5143 5.76146 18.5143 5.77697V8.27269C18.5143 8.42366 18.3919 8.54606 18.2409 8.54606 18.0899 8.54606 17.9675 8.42366 17.9675 8.27269V5.96227H6.67865ZM10.3754 10.837C10.3754 10.5608 10.5992 10.337 10.8754 10.337H17.0765C17.3526 10.337 17.5765 10.5608 17.5765 10.837V17.0381C17.5765 17.3142 17.3526 17.5381 17.0765 17.5381H10.8754C10.5992 17.5381 10.3754 17.3142 10.3754 17.0381V10.837ZM8.52134 18.3113C8.52134 18.4623 8.39895 18.5847 8.24797 18.5847H5.7937C5.79169 18.5847 5.78967 18.5847 5.78764 18.5847 5.63666 18.5847 5.51427 18.4623 5.51427 18.3114V8.70667C5.51427 8.55569 5.63666 8.4333 5.78764 8.4333 5.93862 8.4333 6.06101 8.55569 6.06101 8.70667V18.0379L8.24797 18.0379C8.39895 18.0379 8.52134 18.1603 8.52134 18.3113Z"/>
	</svg>
	