<?xml version="1.0"?>
	<svg xmlns="http://www.w3.org/2000/svg" 
		width="32" 
		height="32" 
		viewbox="0 0 32 32" 
		code="82737" 
		 transform=""
		><path d="M19.0328 19.23885C19.8051125 19.23885 20.4709895 19.7457152 20.7309161 20.4563878L20.7774 20.60115 23.5154 20.60115C23.7739 20.60115 24 20.82685 24 21.11105 24 21.37105 23.8213531 21.5782698 23.600101 21.6211087L23.5154 21.62925 20.7774 21.62925C20.5593 22.41495 19.8566 23.00005 19.0328 23.00005 18.2528938 23.00005 17.5865422 22.485802 17.3266683 21.7741241L17.2802 21.62925 8.50076 21.62925C8.21807 21.62925 8 21.40355 8 21.11105 8 20.8584278 8.17230222 20.6520278 8.40913383 20.6092799L8.50076 20.60115 17.2882 20.60115C17.5063 19.81555 18.209 19.23885 19.0328 19.23885ZM19.0325 20.09125C18.4752 20.09125 18.0391 20.53425 18.0391 21.11095 18.0391 21.68765 18.4752 22.14735 19.0325 22.14735 19.5898 22.14735 20.0259 21.68765 20.0259 21.11095 20.0259 20.53425 19.5898 20.09125 19.0325 20.09125ZM13.1691 14.13175C13.9414125 14.13175 14.6072895 14.6386152 14.8672161 15.3424489L14.9137 15.48575 23.4992 15.48575C23.7739 15.48575 24 15.71145 24 16.00395 24 16.2565722 23.8213531 16.4696093 23.5887232 16.513832L23.4992 16.52225 14.9218 16.52225C14.7037 17.30785 14.001 17.89295 13.1691 17.89295 12.3967875 17.89295 11.7309105 17.378702 11.4709839 16.6671065L11.4245 16.52225 8.47653 16.52225C8.21807 16.52225 8 16.28815 8 16.00395 8 15.74395 8.17230222 15.5367302 8.39211632 15.4938913L8.47653 15.48575 11.4245 15.48575C11.6426 14.70845 12.3453 14.13175 13.1691 14.13175ZM13.1692 14.97615C12.6119 14.97615 12.1758 15.42745 12.1758 16.00415 12.1758 16.58085 12.6119 17.03225 13.1692 17.03225 13.7265 17.03225 14.1627 16.58085 14.1627 16.00415 14.1627 15.42745 13.7265 14.97615 13.1692 14.97615ZM19.0328 8.99995C19.8566 8.99995 20.5674 9.58502 20.7774 10.37905L23.5154 10.37905C23.7739 10.37905 24 10.60475 24 10.89725 24 11.18145 23.7739 11.40715 23.5154 11.40715L20.7774 11.40715C20.5512 12.19275 19.8566 12.76115 19.0328 12.76115 18.209 12.76115 17.5063 12.19275 17.2882 11.40715L8.50076 11.40715C8.21807 11.40715 8 11.18145 8 10.89725 8 10.60475 8.21807 10.37905 8.50076 10.37905L17.2802 10.37905C17.4982 9.58502 18.2009 8.99995 19.0328 8.99995ZM19.0325 9.85239C18.4752 9.85239 18.0391 10.29535 18.0391 10.88045 18.0391 11.44885 18.4752 11.90855 19.0325 11.90855 19.5898 11.90855 20.0259 11.44885 20.0259 10.88045 20.0259 10.29535 19.5898 9.85239 19.0325 9.85239Z"/>
	</svg>
	