<?xml version="1.0"?>
	<svg xmlns="http://www.w3.org/2000/svg" 
		width="32" 
		height="32" 
		viewbox="0 0 32 32" 
		code="82740" 
		 transform=""
		><path d="M11 22.4245C11 22.7461 11.2486 23 11.5438 23 11.839 23 12.0798 22.7461 12.0798 22.4245V16.7962C12.1575 17.0924 12.3595 17.3548 12.7013 17.5749L20.221 22.3991C20.4929 22.5684 20.7338 22.6784 21.0134 22.6784 21.5417 22.6784 22 22.2383 22 21.3919V11.5996C22 10.7533 21.5417 10.3132 21.0134 10.3132 20.7338 10.3132 20.5007 10.4232 20.221 10.5924L12.7013 15.4167C12.3595 15.6452 12.1575 15.8991 12.0798 16.1953V10.5671C12.0798 10.2454 11.839 10 11.5438 10 11.2486 10 11 10.2454 11 10.5671V22.4245ZM21 20.7291C21 20.9226 20.8795 21 20.759 21 20.6948 21 20.6305 20.9845 20.5341 20.9304L13.1847 16.736C13.0643 16.6664 13 16.6045 13 16.4961 13 16.3878 13.0643 16.3336 13.1847 16.264L20.5341 12.0696C20.6305 12.0155 20.6948 12 20.759 12 20.8795 12 21 12.0774 21 12.2709V20.7291Z"/>
	</svg>
	