<?xml version="1.0"?>
	<svg xmlns="http://www.w3.org/2000/svg" 
		width="30" 
		height="30" 
		viewbox="0 0 30 30" 
		code="81049" 
		 transform=""
		><path d="M4.99335548 3C6.089701 3 6.98671096 3.89700997 6.98671096 4.99335548L6.98671096 24.9269103C6.98671096 26.0232558 6.089701 26.9202658 4.99335548 26.9202658 3.89700997 26.9202658 3 26.0232558 3 24.9269103L3 4.99335548C3 3.89700997 3.89700997 3 4.99335548 3ZM12.2890365 13.3255814L23.7906977 5.21262458C25.08451 4.32433555 26.8272944 5.17581369 26.934955 6.69782711L26.9401993 6.84717608 26.9401993 23.0730897C26.9401993 24.6372508 25.2191393 25.5840752 23.9154831 24.7899632L23.7906977 24.7076412 12.2890365 16.5946844C11.1982724 15.8292359 11.1546419 14.2554738 12.1581449 13.4253602L12.2890365 13.3255814 23.7906977 5.21262458 12.2890365 13.3255814Z"/>
	</svg>
	