<?xml version="1.0"?>
	<svg xmlns="http://www.w3.org/2000/svg" 
		width="30" 
		height="30" 
		viewbox="0 0 30 30" 
		code="81054" 
		 transform=""
		><path d="M15 0C6.72 0 0 6.72 0 15 0 23.28 6.72 30 15 30 23.28 30 30 23.28 30 15 30 6.72 23.28 0 15 0ZM16.5 25.5L13.5 25.5 13.5 22.5 16.5 22.5 16.5 25.5ZM19.605 13.875L18.255 15.255C17.505 16.02 16.965 16.71 16.695 17.79 16.575 18.27 16.5 18.81 16.5 19.5L13.5 19.5 13.5 18.75C13.5 18.06 13.62 17.4 13.83 16.785 14.13 15.915 14.625 15.135 15.255 14.505L17.115 12.615C17.805 11.955 18.135 10.965 17.94 9.915 17.745 8.835 16.905 7.92 15.855 7.62 14.19 7.155 12.645 8.1 12.15 9.525 11.97 10.08 11.505 10.5 10.92 10.5L10.47 10.5C9.6 10.5 9 9.66 9.24 8.82 9.885 6.615 11.76 4.935 14.085 4.575 16.365 4.215 18.54 5.4 19.89 7.275 21.66 9.72 21.135 12.345 19.605 13.875L19.605 13.875Z"/>
	</svg>
	