<?xml version="1.0"?>
	<svg xmlns="http://www.w3.org/2000/svg" 
		width="30" 
		height="30" 
		viewbox="0 0 30 30" 
		code="81056" 
		 transform=""
		><path d="M4.53040541 5.63851351C8.02702703 5.63851351 13.652027 9.83445946 13.652027 16.5236486 13.652027 20.9628378 10.9459459 24.4594595 6.59797297 24.4594595 2.7972973 24.4594595-1.98063788e-13 21.7533784-1.98063788e-13 17.9831081-1.98063788e-13 14.3648649 2.28040541 11.7195946 5.625 11.7195946 7.14527027 11.7195946 8.48310811 12.1148649 9.30405405 13.1182432L9.82094595 13.1182432C9.09121622 10.9594595 6.93243243 9.16554054 4.19594595 8.55743243 3.28378378 8.34459459 2.85810811 7.8277027 2.85810811 7.06756757 2.85810811 6.18581081 3.58783784 5.63851351 4.53040541 5.63851351ZM20.8581081 5.63851351C24.3547297 5.63851351 29.9797297 9.83445946 29.9797297 16.5236486 29.9797297 20.9628378 27.2736486 24.4594595 22.9256757 24.4594595 19.125 24.4594595 16.3277027 21.7533784 16.3277027 17.9831081 16.3277027 14.3648649 18.6081081 11.7195946 21.9831081 11.7195946 23.4139507 11.7195946 24.6562588 12.0697302 25.4818896 12.9474457L25.6317568 13.1182432 26.1790541 13.1182432C25.4189189 10.9594595 23.2601351 9.16554054 20.5540541 8.55743243 19.6418919 8.34459459 19.1858108 7.8277027 19.1858108 7.06756757 19.1858108 6.18581081 19.9155405 5.63851351 20.8581081 5.63851351Z"/>
	</svg>
	