<?xml version="1.0"?>
	<svg xmlns="http://www.w3.org/2000/svg" 
		width="1024" 
		height="1024" 
		viewbox="0 0 1024 1024" 
		code="82743" 
		 transform=""
		><path d="M704 512c0-106.038-85.962-192-192-192s-192 85.962-192 192c0 106.038 85.962 192 192 192s192-85.962 192-192zM736 512c0 123.712-100.288 224-224 224s-224-100.288-224-224c0-123.712 100.288-224 224-224s224 100.288 224 224zM512 624c-61.856 0-112-50.144-112-112s50.144-112 112-112c61.856 0 112 50.144 112 112s-50.144 112-112 112z"/>
	</svg>
	