<?xml version="1.0"?>
	<svg xmlns="http://www.w3.org/2000/svg" 
		width="1024" 
		height="1024" 
		viewbox="0 0 1024 1024" 
		code="82744" 
		 transform=""
		><path d="M287.157 256.531c-7.362 0-14.984 2.445-20.87 7.677-6.034 5.363-9.755 13.237-9.755 22.949v109.357c0 4.418 3.582 8 8 8s8-3.582 8-8v-109.357c0-5.371 1.934-8.811 4.386-10.99 2.598-2.309 6.288-3.635 10.24-3.635h109.357c4.418 0 8-3.582 8-8s-3.582-8-8-8h-109.357zM619.482 264.531c0-4.418 3.582-8 8-8h109.357c9.714 0 17.586 3.722 22.949 9.755 5.232 5.886 7.677 13.509 7.677 20.87v109.357c0 4.418-3.581 8-8 8s-8-3.582-8-8v-109.357c0-3.952-1.326-7.642-3.635-10.24-2.179-2.451-5.619-4.386-10.99-4.386h-109.357c-4.418 0-8-3.582-8-8zM759.464 619.482c4.419 0 8 3.582 8 8v109.357c0 9.714-3.722 17.586-9.755 22.949-5.886 5.232-13.509 7.677-20.87 7.677h-109.357c-4.418 0-8-3.581-8-8s3.582-8 8-8h109.357c3.952 0 7.643-1.326 10.24-3.635 2.451-2.179 4.386-5.619 4.386-10.99v-109.357c0-4.418 3.582-8 8-8zM264.531 619.482c4.418 0 8 3.582 8 8v109.357c0 3.952 1.326 7.643 3.635 10.24 2.179 2.451 5.619 4.386 10.99 4.386h109.357c4.418 0 8 3.582 8 8s-3.582 8-8 8h-109.357c-9.712 0-17.586-3.722-22.949-9.755-5.232-5.886-7.677-13.509-7.677-20.87v-109.357c0-4.418 3.582-8 8-8zM511.998 542.931c17.083 0 30.933-13.85 30.933-30.933 0-17.085-13.85-30.933-30.933-30.933-17.085 0-30.933 13.848-30.933 30.933 0 17.083 13.848 30.933 30.933 30.933z"/>
	</svg>
	