<?xml version="1.0"?>
	<svg xmlns="http://www.w3.org/2000/svg" 
		width="32" 
		height="32" 
		viewbox="0 0 32 32" 
		code="82745" 
		 transform=""
		><path d="M11.0839791 9.22265768C11.2371791 8.99289768 11.5475791 8.93080768 11.7773791 9.08398768L11.7773791 9.08398768 20.7773791 15.0839577C20.9110791 15.1731577 20.9938791 15.3211577 20.9996791 15.4817577 21.0055791 15.6423577 20.9338791 15.7960577 20.8069791 15.8946577L20.8069791 15.8946577 11.8069791 22.8946577C11.5889791 23.0642577 11.2748791 23.0249577 11.1053791 22.8069577 10.9357791 22.5889577 10.9750791 22.2748577 11.1930791 22.1053577L11.1930791 22.1053577 15.4733791 18.7761577C14.8400791 17.8044577 14.4995791 16.6658577 14.5000791 15.4976577 14.5002791 14.8453577 14.5571791 14.2822577 14.7316791 13.7424577 14.8574791 13.3531577 15.0393791 12.9910577 15.2862791 12.6250577L15.2862791 12.6250577 11.2226791 9.91603768C10.9928791 9.76285768 10.9308791 9.45242768 11.0839791 9.22265768ZM16.1182791 13.1797577C15.9134791 13.4827577 15.7761791 13.7623577 15.6832791 14.0499577 15.5529791 14.4529577 15.5002791 14.9013577 15.5000787 15.4980577 15.4996791 16.4434577 15.7671791 17.3655577 16.2660791 18.1596577L19.6454791 15.5312577 16.1182791 13.1797577Z"/>
	</svg>
	