<?xml version="1.0"?>
	<svg xmlns="http://www.w3.org/2000/svg" 
		width="64" 
		height="64" 
		viewbox="0 0 64 64" 
		code="82747" 
		 transform=""
		><path d="M29.7115 19.9502C30.2656 19.9502 30.714 20.4003 30.7127 20.9543 30.7095 22.3399 30.7106 24.1002 30.7155 26.2278L28.981 24.4933 27.8262 25.2294C25.859 26.4832 24.492 28.5022 24.0283 30.7595H20.1002C20.5183 27.6346 22.0975 24.7777 24.5818 22.748L26.0427 21.5539 24.4391 19.9502H29.7115ZM44.7312 24.7157L43.3966 26.0503 42.2025 24.5894C40.1768 22.1085 37.3255 20.5304 34.2058 20.1094V24.0381C36.4574 24.5046 38.4701 25.8711 39.7211 27.8337L40.4572 28.9885 38.7227 30.723C39.9976 30.7202 41.1404 30.7185 42.1496 30.7185 42.8243 30.7185 43.4396 30.7191 43.9948 30.7205 44.549 30.7219 44.9997 30.2734 44.9997 29.7191V24.4466L44.7312 24.7157ZM21.6031 38.8813L22.7972 40.3422C25.1836 43.264 28.713 44.9394 32.4795 44.9394 35.9253 44.9394 39.1315 43.5615 41.4787 41.1142L38.7702 38.3773C38.3788 38.7926 37.9459 39.1698 37.4794 39.5003 36.0811 40.5795 33.6378 40.9987 31.6478 41.0311 29.056 40.7666 26.6861 39.3069 25.2786 37.0985L24.5425 35.9436 26.277 34.2091C25.0022 34.212 23.8593 34.2137 22.8501 34.2137 22.1754 34.2137 21.5601 34.213 21.005 34.2117 20.4507 34.2103 20 34.6588 20 35.2131V40.485L21.6031 38.8813Z"/>
	</svg>
	