<?xml version="1.0"?>
	<svg xmlns="http://www.w3.org/2000/svg" 
		width="64" 
		height="64" 
		viewbox="0 0 64 64" 
		code="82746" 
		 transform=""
		><path d="M43.2212 47H20.7788C18.281 47 17 45.36 17 42.1629V21.8537C17 18.64 18.281 17 20.7788 17H43.2212C45.7319 17 47 18.6565 47 21.8537V42.1629C47 45.3435 45.7319 47 43.2212 47ZM30.7127 21.0041C30.714 20.4501 30.2656 20 29.7115 20H24.4391L26.0427 21.6037 24.5818 22.7978C22.0975 24.8275 20.5183 27.6844 20.1002 30.8093H24.0283C24.492 28.552 25.859 26.533 27.8262 25.2792L28.981 24.5431 30.7155 26.2776C30.7106 24.15 30.7095 22.3897 30.7127 21.0041ZM43.3966 26.1001L44.7312 24.7655 44.9997 24.4964V29.7689C44.9997 30.3232 44.549 30.7717 43.9948 30.7703 43.4396 30.7689 42.8243 30.7683 42.1496 30.7683 41.1404 30.7683 39.9976 30.77 38.7227 30.7729L40.4572 29.0383 39.7211 27.8835C38.4701 25.9209 36.4574 24.5544 34.2058 24.0879V20.1592C37.3255 20.5802 40.1768 22.1583 42.2025 24.6392L43.3966 26.1001ZM22.7972 40.392L21.6031 38.9311 20 40.5348V35.2629C20 34.7086 20.4507 34.2601 21.005 34.2615 21.5601 34.2628 22.1754 34.2635 22.8501 34.2635 23.8593 34.2635 25.0022 34.2618 26.277 34.2589L24.5425 35.9934 25.2786 37.1483C26.6861 39.3567 29.056 40.8164 31.6478 41.0809 33.6378 41.0485 36.0811 40.6293 37.4794 39.5501 37.9459 39.2196 38.3788 38.8424 38.7702 38.4271L41.4787 41.164C39.1315 43.6113 35.9253 44.9892 32.4795 44.9892 28.713 44.9892 25.1836 43.3138 22.7972 40.392Z"/>
	</svg>
	