<?xml version="1.0"?>
	<svg xmlns="http://www.w3.org/2000/svg" 
		width="32" 
		height="32" 
		viewbox="0 0 32 32" 
		code="82748" 
		 transform=""
		><path d="M23 16C23 19.866 19.866 23 16 23 12.134 23 9 19.866 9 16 9 12.134 12.134 9 16 9 19.866 9 23 12.134 23 16ZM24 16C24 20.4183 20.4183 24 16 24 11.5817 24 8 20.4183 8 16 8 11.5817 11.5817 8 16 8 20.4183 8 24 11.5817 24 16ZM15.6725 12.9968C15.6725 12.7207 15.4487 12.4968 15.1725 12.4968 14.8964 12.4968 14.6725 12.7207 14.6725 12.9968V17.4968C14.6725 17.773 14.8964 17.9968 15.1725 17.9968H19.6725C19.9487 17.9968 20.1725 17.773 20.1725 17.4968 20.1725 17.2207 19.9487 16.9968 19.6725 16.9968H15.6725V12.9968Z"/>
	</svg>
	