<?xml version="1.0"?>
	<svg xmlns="http://www.w3.org/2000/svg" 
		width="24" 
		height="24" 
		viewbox="0 0 24 24" 
		code="82750" 
		 transform=""
		><path d="M7.75736 16.2426C7.20021 15.6855 6.75825 15.0241 6.45672 14.2961 6.15519 13.5681 6 12.7879 6 12L12 12 7.75736 16.2426ZM6 12C6 11.2121 6.15519 10.4319 6.45672 9.7039 6.75825 8.97595 7.20021 8.31451 7.75736 7.75736L12 12 6 12ZM7.79174 7.72341C7.77711 7.73781 7.76254 7.75229 7.74805 7.76685L7.74817 7.76697 7.79174 7.72341ZM8.12604 7.41838L12.354 11.6464 12.7076 11.9999 12.354 12.3535 8.12597 16.5816C8.90364 17.2392 9.83821 17.6898 10.8428 17.8873 12.0072 18.1162 13.2133 17.9947 14.3086 17.5381 15.404 17.0816 16.3393 16.3104 16.9964 15.3223 17.6535 14.3341 18.0028 13.1733 18.0001 11.9866 17.9975 10.7999 17.643 9.64067 16.9815 8.65545 16.32 7.67023 15.3812 6.90329 14.2839 6.45161 13.1865 5.99993 11.9798 5.88381 10.8165 6.11792 9.82165 6.31811 8.89669 6.76673 8.12604 7.41838ZM7.79876 16.2835L7.76719 16.2519 7.767 16.2521C7.77755 16.2626 7.78814 16.2731 7.79876 16.2835Z"/>
	</svg>
	