<?xml version="1.0"?>
	<svg xmlns="http://www.w3.org/2000/svg" 
		width="40" 
		height="40" 
		viewbox="0 0 40 40" 
		code="82751" 
		 transform=""
		><path d="M19.5354 16C22.1765 16 24.5684 16.99 26.4121 18.6L28.2958 16.71C28.9236 16.08 30 16.52 30 17.41V23C30 23.55 29.5515 24 29.0034 24H23.4322C22.5452 24 22.0967 22.92 22.7246 22.29L24.6282 20.38C23.2429 19.22 21.4788 18.5 19.5254 18.5 16.3761 18.5 13.6553 20.34 12.3597 23 12.0906 23.56 11.4527 23.84 10.8647 23.64 10.1571 23.41 9.79834 22.6 10.1173 21.92 11.8315 18.42 15.3994 16 19.5354 16Z"/>
	</svg>
	