<?xml version="1.0"?>
	<svg xmlns="http://www.w3.org/2000/svg" 
		width="30" 
		height="30" 
		viewbox="0 0 30 30" 
		code="81060" 
		 transform=""
		><path d="M27.1391113 15.063623C28.135791 15.063623 28.942627 15.870459 28.942627 16.8790039L28.942627 18.0655273C28.942627 21.9929199 26.1542969 24.4134277 21.6217773 24.4134277L12.9838867 24.4134277 12.9838867 26.7508789C12.9838867 27.5933105 12.4618164 28.1272461 11.63125 28.1272461 11.2515625 28.1272461 10.91933594 27.9848633 10.67016602 27.7712891L5.66303711 23.5472656C5.02231445 23.0133301 5.02231445 22.1234375 5.66303711 21.589502L10.67016602 17.365478500000002C10.91933594 17.151904299999998 11.2515625 17.0213867 11.63125 17.0213867 12.4618164 17.0213867 12.9838867 17.543457 12.9838867 18.3858887L12.9838867 20.8775879 21.8234863 20.8775879C23.982959 20.8775879 25.3355957 19.6317383 25.3355957 17.6146484L25.3355957 16.8790039C25.3355957 15.870459 26.1424316 15.063623 27.1391113 15.063623ZM18.311377 1.9999999999999991C18.6368234 1.9999999999999991 18.9274006 2.104607781 19.1606925 2.268991436L19.2724609 2.355957031 24.2795898 6.56811523C24.8826229 7.08181009 24.9286058 7.90030598 24.3878622 8.43996765L24.2795898 8.537744140000001 19.2724609 12.7499023C19.023291 12.9634766 18.6910645 13.1058594 18.311377 13.1058594 17.5296674 13.1058594 17.0212277 12.6328922 16.9641162 11.88480045L16.9587402 11.74135742 16.9587402 9.249658199999999 8.11914063 9.249658199999999C6.03165039 9.249658199999999 4.69810352 10.41383545 4.61151982 12.3241949L4.60703125 12.5244629 4.60703125 13.2601074C4.60703125 14.2567871 3.80019531 15.063623 2.8035156299999997 15.063623 1.856669922 15.063623 1.0811582031 14.3354536 1.00597414551 13.4081084L1.0000000000004619 13.2601074 1.0000000000004619 12.0617187C1.0000000000004619 8.22776489 3.67335987 5.815810969999999 8.03984766 5.7169769299999995L8.32084961 5.713818359999999 16.9587402 5.713818359999999 16.9587402 3.37636719C16.9587402 2.533935547 17.4808105 1.9999999999999991 18.311377 1.9999999999999991Z"/>
	</svg>
	