<?xml version="1.0"?>
	<svg xmlns="http://www.w3.org/2000/svg" 
		width="30" 
		height="30" 
		viewbox="0 0 30 30" 
		code="81061" 
		 transform=""
		><path d="M8.375 14.1125L14.1125 8.375C14.8708333 7.616666667 16.1507716 8.110185185 16.2445416 9.141192910000001L16.25 9.2625 16.25 11.25C25 12.5 28.75 18.75 30 25 26.9460227 20.724431799999998 22.698218 18.7171358 16.6732382 18.6281036L16.25 18.625 16.25 20.725C16.25 21.7962963 14.9981481 22.3575789 14.2022176 21.6944851L14.1125 21.6125 8.375 15.875C7.92 15.42 7.88966667 14.70366667 8.284 14.21382222L8.375 14.1125 14.1125 8.375 8.375 14.1125ZM0.8875 14.1125L6.4875 8.5125C7.325 7.675 8.75 8.275 8.75 9.45 8.75 9.75 8.64897959 10.04081633 8.46268222 10.27521866L8.3625 10.3875 3.75 15 8.3625 19.6125C8.6125 19.8625 8.75 20.2 8.75 20.55 8.75 21.683035699999998 7.42496811 22.2814094 6.57938855 21.5605628L6.4875 21.475 0.8875 15.875C0.4325 15.42 0.402166667 14.70366667 0.7965 14.21382222L0.8875 14.1125 6.4875 8.5125 0.8875 14.1125Z"/>
	</svg>
	