<?xml version="1.0"?>
	<svg xmlns="http://www.w3.org/2000/svg" 
		width="24" 
		height="24" 
		viewbox="0 0 24 24" 
		code="82753" 
		 transform=""
		><path d="M10.0839 19.3016L7.99502 17.2064C7.65646 16.8678 7.65646 16.4845 7.99502 16.146L10.0839 14.0507C10.2563 13.8719 10.5119 13.8591 10.6907 14.038 10.8696 14.2168 10.844 14.466 10.6716 14.6384L10.0455 15.2772 8.99792 16.261H15.6477C16.3185 16.261 16.6634 15.9096 16.6634 15.2581V10.1541C16.6634 9.86665 16.8231 9.70057 17.085 9.69418 17.3469 9.68779 17.5002 9.86665 17.5002 10.1541V15.2708C17.5002 16.4782 16.8934 17.0978 15.6925 17.0978H9.00431L10.0455 18.0751 10.6716 18.7139C10.844 18.8928 10.8632 19.1355 10.6907 19.3144 10.5119 19.4933 10.2563 19.4805 10.0839 19.3016ZM6.91521 14.3062C6.65331 14.3062 6.5 14.1338 6.5 13.8463V8.7232C6.5 7.51588 7.10685 6.90264 8.30139 6.90264H14.9895L13.9547 5.92529 13.3223 5.2865C13.1498 5.10764 13.1307 4.8649 13.3095 4.68603 13.4884 4.50717 13.7375 4.51995 13.9164 4.69881L16.0052 6.79405C16.3374 7.13261 16.3374 7.51588 16.0052 7.85444L13.9164 9.94968C13.7375 10.1285 13.4884 10.1349 13.3095 9.96246 13.1307 9.7836 13.1562 9.53447 13.3223 9.36199L13.9547 8.7232 14.9959 7.73946H8.34611C7.67538 7.73946 7.33043 8.0908 7.33043 8.74236V13.8463C7.33043 14.1338 7.17712 14.2999 6.91521 14.3062Z"/>
	</svg>
	