<?xml version="1.0"?>
	<svg xmlns="http://www.w3.org/2000/svg" 
		width="24" 
		height="24" 
		viewbox="0 0 24 24" 
		code="82754" 
		 transform=""
		><path d="M6.53902 6.53902C6.34376 6.73429 6.34376 7.05087 6.53902 7.24613L8.96884 9.67594H7.62222C7.34607 9.67594 7.12222 9.8998 7.12222 10.1759 7.12222 10.4521 7.34607 10.6759 7.62222 10.6759H10.1759C10.4521 10.6759 10.6759 10.4521 10.6759 10.1759V7.62222C10.6759 7.34607 10.4521 7.12222 10.1759 7.12222 9.8998 7.12222 9.67594 7.34607 9.67594 7.62222V8.96884L7.24613 6.53902C7.05087 6.34376 6.73429 6.34376 6.53902 6.53902ZM17.4604 7.24613C17.6557 7.05087 17.6557 6.73429 17.4604 6.53902 17.2652 6.34376 16.9486 6.34376 16.7533 6.53902L14.3235 8.96884V7.62222C14.3235 7.34607 14.0996 7.12222 13.8235 7.12222 13.5474 7.12222 13.3235 7.34607 13.3235 7.62222V10.1759C13.3235 10.4521 13.5474 10.6759 13.8235 10.6759H16.3772C16.6534 10.6759 16.8772 10.4521 16.8772 10.1759 16.8772 9.8998 16.6534 9.67594 16.3772 9.67594H15.0306L17.4604 7.24613ZM17.4604 16.754C17.6557 16.9492 17.6557 17.2658 17.4604 17.4611 17.2652 17.6563 16.9486 17.6563 16.7533 17.4611L14.3235 15.0313V16.3779C14.3235 16.654 14.0996 16.8779 13.8235 16.8779 13.5474 16.8779 13.3235 16.654 13.3235 16.3779V13.8242C13.3235 13.548 13.5474 13.3242 13.8235 13.3242H16.3772C16.6534 13.3242 16.8772 13.548 16.8772 13.8242 16.8772 14.1003 16.6534 14.3242 16.3772 14.3242H15.0306L17.4604 16.754ZM6.53902 16.754C6.34376 16.9492 6.34376 17.2658 6.53902 17.4611 6.73429 17.6563 7.05087 17.6563 7.24613 17.4611L9.67594 15.0313V16.3779C9.67594 16.654 9.8998 16.8779 10.1759 16.8779 10.4521 16.8779 10.6759 16.654 10.6759 16.3779V13.8242C10.6759 13.548 10.4521 13.3242 10.1759 13.3242H7.62222C7.34607 13.3242 7.12222 13.548 7.12222 13.8242 7.12222 14.1003 7.34607 14.3242 7.62222 14.3242H8.96884L6.53902 16.754Z"/>
	</svg>
	