<?xml version="1.0"?>
	<svg xmlns="http://www.w3.org/2000/svg" 
		width="32" 
		height="32" 
		viewbox="0 0 32 32" 
		code="82755" 
		 transform=""
		><path d="M14.578 10.1646C14.7633 10.3693 14.7474 10.6855 14.5427 10.8708L11.798 13.3538H15.5002C19.0763 13.3538 22.0002 16.2777 22.0002 19.8538V20.5C22.0002 20.7761 21.7763 21 21.5002 21 21.2241 21 21.0002 20.7761 21.0002 20.5V19.8538C21.0002 16.8299 18.524 14.3538 15.5002 14.3538H11.7579L14.5505 16.9902C14.7513 17.1798 14.7604 17.4962 14.5708 17.697 14.3812 17.8978 14.0648 17.9069 13.864 17.7174L10.1568 14.2174C10.0554 14.1216 9.99855 13.9879 10 13.8485 10.0015 13.709 10.0612 13.5766 10.1646 13.483L13.8718 10.1292C14.0766 9.94396 14.3928 9.95979 14.578 10.1646Z"/>
	</svg>
	