<?xml version="1.0"?>
	<svg xmlns="http://www.w3.org/2000/svg" 
		width="32" 
		height="32" 
		viewbox="0 0 32 32" 
		code="82762" 
		 transform=""
		><path d="M8 21.372C8 23.1085 8.8827 24 10.6481 24H21.3426C23.108 24 24 23.1178 24 21.372V10.628C24 8.88218 23.108 8 21.3426 8H10.6481C8.8827 8 8 8.89147 8 10.628V21.372ZM16.2969 20.5269H14.9589C12.8125 20.5269 11.2423 19.1619 11.2423 17.0075 11.2423 14.8438 12.8032 13.5159 14.9496 13.5159H17.96L19.0379 13.5438 18.3596 13.0145 17.1981 11.8723C17.0866 11.7701 17.0123 11.6215 17.0123 11.4544 17.0123 11.1294 17.2539 10.8786 17.5884 10.8786 17.7556 10.8786 17.8857 10.9344 17.9972 11.0551L20.478 13.5716C20.6081 13.7016 20.701 13.8781 20.701 14.0731 20.701 14.2681 20.6081 14.4352 20.478 14.5652L17.9879 17.1096C17.8857 17.2211 17.7463 17.2768 17.5698 17.2768 17.2539 17.2768 17.0123 17.0261 17.0123 16.6918 17.0123 16.5432 17.0681 16.3853 17.1888 16.2739L18.5175 14.9924 19.0379 14.6024 17.96 14.6395H14.9496C13.4908 14.6395 12.4223 15.4753 12.4223 16.9518 12.4223 18.4468 13.4722 19.3847 14.9589 19.3847H16.3062C16.6406 19.3847 16.9101 19.589 16.9101 19.9605 16.9101 20.3226 16.6406 20.5269 16.2969 20.5269Z"/>
	</svg>
	