<?xml version="1.0"?>
	<svg xmlns="http://www.w3.org/2000/svg" 
		width="24" 
		height="24" 
		viewbox="0 0 24 24" 
		code="82763" 
		 transform=""
		><path d="M13.4683 17.25C15.8614 17.25 17.25 15.8311 17.25 13.7057 17.25 11.5743 15.826 10.1192 13.3974 10.1192H9.31443L8.0204 10.1735 9.11353 9.18933 10.8153 7.48059C10.8921 7.4021 10.9335 7.30549 10.9335 7.17869 10.9335 6.93114 10.7621 6.75 10.508 6.75 10.4076 6.75 10.2835 6.80434 10.2008 6.88887L6.89181 10.2279C6.79727 10.3184 6.75 10.4332 6.75 10.5539 6.75 10.6747 6.79727 10.7834 6.89181 10.8739L10.2008 14.2189C10.2835 14.3035 10.4076 14.3518 10.508 14.3518 10.7621 14.3518 10.9335 14.1706 10.9335 13.9231 10.9335 13.8023 10.8921 13.6997 10.8153 13.6272L9.11353 11.9185 8.0204 10.9343 9.31443 10.9826H13.4624C15.3533 10.9826 16.3991 12.0755 16.3991 13.6574 16.3991 15.2394 15.3533 16.3866 13.4624 16.3866H12.0266C11.7666 16.3866 11.5952 16.5798 11.5952 16.8153 11.5952 17.0568 11.7666 17.25 12.0266 17.25H13.4683Z"/>
	</svg>
	