<?xml version="1.0"?>
	<svg xmlns="http://www.w3.org/2000/svg" 
		width="32" 
		height="32" 
		viewbox="0 0 32 32" 
		code="82759" 
		 transform=""
		><path d="M23 14.0422C23 10.8514 21.1081 9 18.2743 9 15.4324 9 13.4922 10.8987 13.4922 14.1367V19.5808L13.5647 21.3061 12.2524 19.8486 9.97412 17.5796C9.86947 17.4772 9.74066 17.4221 9.57159 17.4221 9.24152 17.4221 9 17.6505 9 17.9893 9 18.1232 9.07246 18.2887 9.18516 18.399L13.6371 22.8109C13.7579 22.937 13.9109 23 14.0719 23 14.2329 23 14.3778 22.937 14.4986 22.8109L18.9586 18.399C19.0713 18.2887 19.1357 18.1232 19.1357 17.9893 19.1357 17.6505 18.8942 17.4221 18.5641 17.4221 18.4031 17.4221 18.2662 17.4772 18.1696 17.5796L15.8913 19.8486 14.5791 21.3061 14.6435 19.5808V14.0501C14.6435 11.529 16.1006 10.1345 18.2099 10.1345 20.3191 10.1345 21.8488 11.529 21.8488 14.0501V15.9645C21.8488 16.3112 22.1064 16.5397 22.4204 16.5397 22.7424 16.5397 23 16.3112 23 15.9645V14.0422Z"/>
	</svg>
	