<?xml version="1.0"?>
	<svg xmlns="http://www.w3.org/2000/svg" 
		width="32" 
		height="32" 
		viewbox="0 0 32 32" 
		code="82761" 
		 transform=""
		><path d="M14.0422 23C10.8514 23 9 21.1081 9 18.2743 9 15.4324 10.8987 13.4922 14.1367 13.4922H19.5808L21.3061 13.5647 19.8486 12.2524 17.5796 9.97412C17.4772 9.86947 17.4221 9.74066 17.4221 9.57159 17.4221 9.24152 17.6505 9 17.9893 9 18.1232 9 18.2887 9.07246 18.399 9.18516L22.8109 13.6371C22.937 13.7579 23 13.9109 23 14.0719 23 14.2329 22.937 14.3778 22.8109 14.4986L18.399 18.9586C18.2887 19.0713 18.1232 19.1357 17.9893 19.1357 17.6505 19.1357 17.4221 18.8942 17.4221 18.5641 17.4221 18.4031 17.4772 18.2662 17.5796 18.1696L19.8486 15.8913 21.3061 14.5791 19.5808 14.6435H14.0501C11.529 14.6435 10.1345 16.1006 10.1345 18.2099 10.1345 20.3191 11.529 21.8488 14.0501 21.8488H15.9645C16.3112 21.8488 16.5397 22.1064 16.5397 22.4204 16.5397 22.7424 16.3112 23 15.9645 23H14.0422Z"/>
	</svg>
	