<?xml version="1.0"?>
	<svg xmlns="http://www.w3.org/2000/svg" 
		width="32" 
		height="32" 
		viewbox="0 0 32 32" 
		code="82764" 
		 transform=""
		><path d="M11.1464 14.3536C10.9512 14.1583 10.9512 13.8417 11.1464 13.6464L13.6464 11.1464C13.8417 10.9512 14.1583 10.9512 14.3536 11.1464 14.5488 11.3417 14.5488 11.6583 14.3536 11.8536L12.7071 13.5 19.5002 13.5C19.7764 13.5 20.0002 13.7239 20.0002 14 20.0002 14.2761 19.7764 14.5 19.5002 14.5L12.7071 14.5 14.3536 16.1464C14.5488 16.3417 14.5488 16.6583 14.3536 16.8536 14.1583 17.0488 13.8417 17.0488 13.6464 16.8536L11.1464 14.3536ZM18.3536 16.1464L20.8536 18.6464C21.0488 18.8417 21.0488 19.1583 20.8536 19.3536L18.3536 21.8536C18.1583 22.0488 17.8417 22.0488 17.6464 21.8536 17.4512 21.6583 17.4512 21.3417 17.6464 21.1464L19.2929 19.5H12.4998C12.2236 19.5 11.9998 19.2761 11.9998 19 11.9998 18.7239 12.2236 18.5 12.4998 18.5H19.2929L17.6464 16.8536C17.4512 16.6583 17.4512 16.3417 17.6464 16.1464 17.8417 15.9512 18.1583 15.9512 18.3536 16.1464Z"/>
	</svg>
	