<?xml version="1.0"?>
	<svg xmlns="http://www.w3.org/2000/svg" 
		width="32" 
		height="32" 
		viewbox="0 0 32 32" 
		code="82757" 
		 transform=""
		><path d="M21.372 24C23.1085 24 24 23.1173 24 21.3519V10.6574C24 8.89199 23.1178 8 21.372 8H10.628C8.88218 8 8 8.89199 8 10.6574V21.3519C8 23.1173 8.89147 24 10.628 24H21.372ZM20.5269 15.7031V17.0411C20.5269 19.1875 19.1619 20.7577 17.0075 20.7577 14.8438 20.7577 13.5159 19.1968 13.5159 17.0504V14.04L13.5438 12.9621 13.0145 13.6404 11.8723 14.8019C11.7701 14.9134 11.6215 14.9877 11.4544 14.9877 11.1294 14.9877 10.8786 14.7461 10.8786 14.4116 10.8786 14.2444 10.9344 14.1143 11.0551 14.0028L13.5716 11.522C13.7016 11.3919 13.8781 11.299 14.0731 11.299 14.2681 11.299 14.4352 11.3919 14.5652 11.522L17.1096 14.0121C17.2211 14.1143 17.2768 14.2537 17.2768 14.4302 17.2768 14.7461 17.0261 14.9877 16.6918 14.9877 16.5432 14.9877 16.3853 14.9319 16.2739 14.8112L14.9924 13.4825 14.6024 12.9621 14.6395 14.04V17.0504C14.6395 18.5092 15.4753 19.5777 16.9518 19.5777 18.4468 19.5777 19.3847 18.5278 19.3847 17.0411V15.6938C19.3847 15.3594 19.589 15.0899 19.9605 15.0899 20.3226 15.0899 20.5269 15.3594 20.5269 15.7031Z"/>
	</svg>
	