<?xml version="1.0"?>
	<svg xmlns="http://www.w3.org/2000/svg" 
		width="32" 
		height="32" 
		viewbox="0 0 32 32" 
		code="82756" 
		 transform=""
		><path d="M21.372 8C23.1085 8 24 8.8827 24 10.6481V21.3426C24 23.108 23.1178 24 21.372 24H10.628C8.88218 24 8 23.108 8 21.3426V10.6481C8 8.8827 8.89147 8 10.628 8H21.372ZM20.5269 16.2969V14.9589C20.5269 12.8125 19.1619 11.2423 17.0075 11.2423 14.8438 11.2423 13.5159 12.8032 13.5159 14.9496V17.96L13.5438 19.0379 13.0145 18.3596 11.8723 17.1981C11.7701 17.0866 11.6215 17.0123 11.4544 17.0123 11.1294 17.0123 10.8786 17.2539 10.8786 17.5884 10.8786 17.7556 10.9344 17.8857 11.0551 17.9972L13.5716 20.478C13.7016 20.6081 13.8781 20.701 14.0731 20.701 14.2681 20.701 14.4352 20.6081 14.5652 20.478L17.1096 17.9879C17.2211 17.8857 17.2768 17.7463 17.2768 17.5698 17.2768 17.2539 17.0261 17.0123 16.6918 17.0123 16.5432 17.0123 16.3853 17.0681 16.2739 17.1888L14.9924 18.5175 14.6024 19.0379 14.6395 17.96V14.9496C14.6395 13.4908 15.4753 12.4223 16.9518 12.4223 18.4468 12.4223 19.3847 13.4722 19.3847 14.9589V16.3062C19.3847 16.6406 19.589 16.9101 19.9605 16.9101 20.3226 16.9101 20.5269 16.6406 20.5269 16.2969Z"/>
	</svg>
	