<?xml version="1.0"?>
	<svg xmlns="http://www.w3.org/2000/svg" 
		width="32" 
		height="32" 
		viewbox="0 0 32 32" 
		code="82758" 
		 transform=""
		><path d="M24 21.372C24 23.1085 23.1173 24 21.3519 24H10.6574C8.89199 24 8 23.1178 8 21.372V10.628C8 8.88218 8.89199 8 10.6574 8H21.3519C23.1173 8 24 8.89147 24 10.628V21.372ZM15.7031 20.5269H17.0411C19.1875 20.5269 20.7577 19.1619 20.7577 17.0075 20.7577 14.8438 19.1968 13.5159 17.0504 13.5159H14.04L12.9621 13.5438 13.6404 13.0145 14.8019 11.8723C14.9134 11.7701 14.9877 11.6215 14.9877 11.4544 14.9877 11.1294 14.7461 10.8786 14.4116 10.8786 14.2444 10.8786 14.1143 10.9344 14.0028 11.0551L11.522 13.5716C11.3919 13.7016 11.299 13.8781 11.299 14.0731 11.299 14.2681 11.3919 14.4352 11.522 14.5652L14.0121 17.1096C14.1143 17.2211 14.2537 17.2768 14.4302 17.2768 14.7461 17.2768 14.9877 17.0261 14.9877 16.6918 14.9877 16.5432 14.9319 16.3853 14.8112 16.2739L13.4825 14.9924 12.9621 14.6024 14.04 14.6395H17.0504C18.5092 14.6395 19.5777 15.4753 19.5777 16.9518 19.5777 18.4468 18.5278 19.3847 17.0411 19.3847H15.6938C15.3594 19.3847 15.0899 19.589 15.0899 19.9605 15.0899 20.3226 15.3594 20.5269 15.7031 20.5269Z"/>
	</svg>
	