<?xml version="1.0"?>
	<svg xmlns="http://www.w3.org/2000/svg" 
		width="32" 
		height="32" 
		viewbox="0 0 32 32" 
		code="82760" 
		 transform=""
		><path d="M23 17.9578C23 21.1486 21.1081 23 18.2743 23 15.4324 23 13.4922 21.1013 13.4922 17.8633V12.4192L13.5647 10.6939 12.2524 12.1514 9.97412 14.4204C9.86947 14.5228 9.74066 14.5779 9.57159 14.5779 9.24152 14.5779 9 14.3495 9 14.0107 9 13.8768 9.07246 13.7113 9.18516 13.601L13.6371 9.18908C13.7579 9.06303 13.9109 9 14.0719 9 14.2329 9 14.3778 9.06303 14.4986 9.18908L18.9586 13.601C19.0713 13.7113 19.1357 13.8768 19.1357 14.0107 19.1357 14.3495 18.8942 14.5779 18.5641 14.5779 18.4031 14.5779 18.2662 14.5228 18.1696 14.4204L15.8913 12.1514 14.5791 10.6939 14.6435 12.4192V17.9499C14.6435 20.471 16.1006 21.8655 18.2099 21.8655 20.3191 21.8655 21.8488 20.471 21.8488 17.9499V16.0355C21.8488 15.6888 22.1064 15.4603 22.4204 15.4603 22.7424 15.4603 23 15.6888 23 16.0355V17.9578Z"/>
	</svg>
	