<?xml version="1.0"?>
	<svg xmlns="http://www.w3.org/2000/svg" 
		width="64" 
		height="64" 
		viewbox="0 0 64 64" 
		code="82766" 
		 transform=""
		><path d="M20.502 42.377C20.502 45.2344 21.9102 46.6562 24.7402 46.6562H39.2598C42.0898 46.6562 43.498 45.2344 43.498 42.377V21.6367C43.498 18.793 42.0898 17.3438 39.2598 17.3438H24.7402C21.9102 17.3438 20.502 18.793 20.502 21.6367V42.377ZM25.2871 29.8535C24.8359 29.8535 24.5625 29.5938 24.5625 29.1562 24.5625 29.0605 24.5898 28.8691 24.6582 28.7051L26.668 23.1406C26.873 22.5664 27.2012 22.293 27.748 22.293 28.3359 22.293 28.6777 22.5664 28.8828 23.1406L30.8926 28.7051C30.9473 28.8828 30.9746 29.0605 30.9746 29.1562 30.9746 29.5938 30.7148 29.8535 30.25 29.8535 29.8945 29.8535 29.6621 29.6484 29.5391 29.1973L29.0469 27.8438H26.4766L26.0117 29.1973C25.8887 29.6621 25.6562 29.8535 25.2871 29.8535ZM33.9004 24.6582C33.3945 24.6582 33.0391 24.2891 33.0391 23.8105 33.0391 23.3457 33.3945 22.9766 33.9004 22.9766H38.6172C39.0957 22.9766 39.4648 23.3457 39.4648 23.8105 39.4648 24.2891 39.0957 24.6582 38.6172 24.6582H33.9004ZM26.791 26.709H28.7461L27.8027 23.8379H27.7207L26.791 26.709ZM33.9004 29.4297C33.3945 29.4297 33.0391 29.0605 33.0391 28.582 33.0391 28.1172 33.3945 27.748 33.9004 27.748H38.6172C39.0957 27.748 39.4648 28.1172 39.4648 28.582 39.4648 29.0605 39.0957 29.4297 38.6172 29.4297H33.9004ZM24.4941 41.2832V34.6113C24.4941 33.4082 25.1777 32.793 26.3398 32.793H37.6738C38.877 32.793 39.5059 33.4082 39.5059 34.6113V41.1465H38.002L35.2676 38.002C35.0215 37.7148 34.666 37.6055 34.3242 37.6055 34.0098 37.6055 33.6816 37.7285 33.3672 38.002L30.5645 40.4902 29.4434 39.4648C29.1836 39.2324 28.8828 39.123 28.6094 39.123 28.3359 39.123 28.0625 39.2188 27.8027 39.4648L25.998 41.2832H24.4941ZM29.5527 38.002C30.3594 38.002 31.0293 37.3184 31.0293 36.5254 31.0293 35.7051 30.3594 35.0762 29.5527 35.0488 28.7324 35.0215 28.0762 35.7051 28.0762 36.5254 28.0762 37.3184 28.7324 38.002 29.5527 38.002Z"/>
	</svg>
	