<?xml version="1.0"?>
	<svg xmlns="http://www.w3.org/2000/svg" 
		width="64" 
		height="64" 
		viewbox="0 0 64 64" 
		code="82765" 
		 transform=""
		><path d="M20.7002 42.5342C20.7002 45.2002 22.0537 46.5674 24.6924 46.5674H39.3076C41.96 46.5674 43.2998 45.2002 43.2998 42.5342V21.4521C43.2998 18.7861 41.96 17.4326 39.3076 17.4326H24.6924C22.0537 17.4326 20.7002 18.7861 20.7002 21.4521V42.5342ZM22.3955 42.4932V21.4932C22.3955 19.9482 23.2021 19.1143 24.7881 19.1143H39.2256C40.7979 19.1143 41.6182 19.9482 41.6182 21.4932V42.4932C41.6182 44.0381 40.7979 44.8721 39.2256 44.8721H24.7881C23.2021 44.8721 22.3955 44.0381 22.3955 42.4932ZM25.5127 30.0654C25.7998 30.0654 25.9912 29.915 26.0869 29.5596L26.6885 27.9189H29.4502L30.0654 29.5596C30.1611 29.915 30.3662 30.0654 30.6396 30.0654 31.0225 30.0654 31.2275 29.8604 31.2275 29.5049 31.2275 29.4229 31.2002 29.2861 31.1592 29.1494L28.917 23.2021C28.7666 22.7646 28.5068 22.5596 28.0693 22.5596 27.6455 22.5596 27.3857 22.7646 27.2354 23.2021L24.9932 29.1494C24.9521 29.2861 24.9248 29.4229 24.9248 29.5049 24.9248 29.8604 25.1436 30.0654 25.5127 30.0654ZM33.6748 24.8291H38.542C38.9385 24.8291 39.2256 24.5283 39.2256 24.1455 39.2256 23.7764 38.9385 23.4756 38.542 23.4756H33.6748C33.2783 23.4756 32.9775 23.7764 32.9775 24.1455 32.9775 24.5283 33.2783 24.8291 33.6748 24.8291ZM26.9893 26.9482L28.042 23.8994H28.0967L29.1631 26.9482H26.9893ZM33.6748 29.6279H38.542C38.9385 29.6279 39.2256 29.3271 39.2256 28.9443 39.2256 28.5752 38.9385 28.2744 38.542 28.2744H33.6748C33.2783 28.2744 32.9775 28.5752 32.9775 28.9443 32.9775 29.3271 33.2783 29.6279 33.6748 29.6279ZM24.6924 41.4404H25.458L27.4951 39.4717C27.7822 39.1982 28.083 39.0752 28.3701 39.0752 28.6572 39.0752 28.9854 39.2119 29.2588 39.4717L30.4346 40.5381 33.4287 37.9131C33.7842 37.626 34.1396 37.4756 34.4678 37.4756 34.8369 37.4756 35.2334 37.5986 35.5068 37.9268L38.542 41.3447H39.3076V34.29C39.3076 33.0869 38.6924 32.4854 37.4893 32.4854H26.5244C25.3486 32.4854 24.6924 33.0869 24.6924 34.29V41.4404ZM29.3682 37.8994C28.5068 37.8994 27.7959 37.1748 27.7959 36.3135 27.7959 35.4521 28.5068 34.7139 29.3682 34.7412 30.2432 34.7549 30.9541 35.4521 30.9541 36.3135 30.9541 37.1748 30.2432 37.8994 29.3682 37.8994Z"/>
	</svg>
	