<?xml version="1.0"?>
	<svg xmlns="http://www.w3.org/2000/svg" 
		width="33" 
		height="33" 
		viewbox="0 0 33 33" 
		code="82767" 
		 transform=""
		><path d="M15.5 9.48242C19.366 9.48242 22.5 12.6164 22.5 16.4824V19.2753L20.3536 17.1289C20.1583 16.9336 19.8417 16.9336 19.6464 17.1289 19.4512 17.3241 19.4512 17.6407 19.6464 17.836L23 21.1895 26.3536 17.836C26.5488 17.6407 26.5488 17.3241 26.3536 17.1289 26.1583 16.9336 25.8417 16.9336 25.6464 17.1289L23.5 19.2753V16.4824C23.5 12.0641 19.9183 8.48242 15.5 8.48242V9.48242ZM15.5 16.4824H7.5V24.4824H15.5V16.4824ZM7.5 15.4824C6.94772 15.4824 6.5 15.9301 6.5 16.4824V24.4824C6.5 25.0347 6.94772 25.4824 7.5 25.4824H15.5C16.0523 25.4824 16.5 25.0347 16.5 24.4824V16.4824C16.5 15.9301 16.0523 15.4824 15.5 15.4824H7.5Z"/>
	</svg>
	