<?xml version="1.0"?>
	<svg xmlns="http://www.w3.org/2000/svg" 
		width="32" 
		height="32" 
		viewbox="0 0 32 32" 
		code="82768" 
		 transform=""
		><path d="M21.5 11L11.5 11 11.5 14 21.5 14V11ZM11 10C10.7239 10 10.5 10.2239 10.5 10.5L10.5 14.5C10.5 14.7761 10.7239 15 11 15L22 15C22.2761 15 22.5 14.7761 22.5 14.5L22.5 10.5C22.5 10.2239 22.2761 10 22 10L11 10ZM21.5 18H11.5L11.5 21H21.5V18ZM11 17C10.7239 17 10.5 17.2239 10.5 17.5L10.5 21.5C10.5 21.7761 10.7239 22 11 22L22 22C22.2761 22 22.5 21.7761 22.5 21.5V17.5C22.5 17.2239 22.2761 17 22 17L11 17Z"/>
	</svg>
	