<?xml version="1.0"?>
	<svg xmlns="http://www.w3.org/2000/svg" 
		width="32" 
		height="32" 
		viewbox="0 0 32 32" 
		code="82769" 
		 transform=""
		><path d="M6.13477 20.0002H7.19158V16.5911H9.10067C9.17738 16.5911 9.24982 16.5911 9.32227 16.5869L11.1632 20.0002H12.3904L10.4174 16.3951C11.5297 16.0158 12.0495 15.1082 12.0495 13.9491 12.0495 12.4065 11.1291 11.2729 9.08363 11.2729H6.13477V20.0002ZM7.19158 15.6366V12.2104H9.04954C10.4643 12.2104 11.0098 12.9008 11.0098 13.9491 11.0098 14.9974 10.4643 15.6366 9.06658 15.6366H7.19158ZM13.6933 12.2104H16.4376V20.0002H17.4944V12.2104H20.2387V11.2729H13.6933V12.2104ZM22.2298 20.0002H27.3434V19.0627H23.2866V11.2729H22.2298V20.0002Z"/>
	</svg>
	