<?xml version="1.0"?>
	<svg xmlns="http://www.w3.org/2000/svg" 
		width="32" 
		height="32" 
		viewbox="0 0 32 32" 
		code="82770" 
		 transform=""
		><path d="M12.2314 23.9981L8.33161 23.9998 8.27215 23.9896 8.22757 23.9746C8.1364 23.9368 8.06434 23.8648 8.02699 23.7746 8.01373 23.7403 8.01373 23.7403 8.005 23.7003L8.00117 23.6695 8 8.35002 8.01173 8.27319 8.02715 8.22831C8.06434 8.13857 8.1364 8.0665 8.22653 8.02915 8.26045 8.01601 8.26045 8.01601 8.30043 8.00723L8.31884 8.00462 23.6314 8.00098 23.6605 8.00278 23.7275 8.0138 23.7723 8.02907C23.8626 8.0665 23.9347 8.13857 23.972 8.2287 23.9764 8.23993 23.9794 8.24761 23.9816 8.25411L23.9967 8.32257 24 12.1856 23.994 12.2522C23.9894 12.2736 23.9872 12.2837 23.9842 12.2936 23.9815 12.3023 23.9781 12.3109 23.9719 12.3271 23.9347 12.4168 23.8626 12.4889 23.7725 12.5262 23.753 12.5334 23.7465 12.5358 23.7392 12.538L23.6538 12.5533 12.5516 12.5549 12.5522 23.6335 12.5461 23.7003C12.5415 23.7214 12.5393 23.7313 12.5363 23.7411 12.5337 23.7498 12.5304 23.7583 12.5242 23.7744 12.4867 23.8648 12.4147 23.9368 12.3245 23.9742L12.3019 23.9823 12.2314 23.9981ZM8.7362 23.2657H11.8143V22.087L10.1324 22.0863 10.0825 22.0805C9.98639 22.058 9.9148 21.9717 9.9148 21.8686V21.5825L9.92055 21.5326C9.9431 21.4365 10.0294 21.3649 10.1324 21.3649L11.8143 21.3654V20.1867L10.1245 20.1862 10.0746 20.1805C9.97845 20.1579 9.90686 20.0716 9.90686 19.9686V19.6666L9.91261 19.6167C9.93517 19.5205 10.0215 19.449 10.1245 19.449L11.8143 19.4494V18.2785L10.1245 18.2782 10.0746 18.2725C9.97845 18.2499 9.90686 18.1636 9.90686 18.0606V17.7586L9.91261 17.7087C9.93517 17.6125 10.0215 17.541 10.1245 17.541L11.8143 17.5412V16.3704L10.1245 16.3702 10.0746 16.3645C9.97845 16.3419 9.90686 16.2556 9.90686 16.1526V15.8506L9.91261 15.8007C9.93517 15.7046 10.0215 15.633 10.1245 15.633L11.8143 15.633V14.4631L10.1245 14.4624 10.0746 14.4567C9.97845 14.4341 9.90686 14.3478 9.90686 14.2448V13.9426L9.91261 13.8927C9.93517 13.7966 10.0215 13.725 10.1245 13.725L11.8143 13.7257V12.5549L10.1245 12.5544 10.0746 12.5487C9.97845 12.5261 9.90686 12.4398 9.90686 12.3368V12.0346L9.91261 11.9847C9.93517 11.8886 10.0215 11.817 10.1245 11.817L11.8143 11.8176 11.8149 10.1266 11.8206 10.0767C11.8432 9.98057 11.9295 9.90899 12.0325 9.90899H12.3347L12.3846 9.91474C12.4807 9.93729 12.5523 10.0236 12.5523 10.1266L12.5517 11.8176H13.7225L13.7228 10.1266 13.7286 10.0767C13.7512 9.98057 13.8375 9.90899 13.9405 9.90899H14.2427L14.2926 9.91474C14.3887 9.93729 14.4603 10.0236 14.4603 10.1266L14.4598 11.8176H15.6307L15.6308 10.1266 15.6366 10.0767C15.6591 9.98057 15.7454 9.90899 15.8485 9.90899H16.1507L16.2006 9.91474C16.2967 9.93729 16.3683 10.0236 16.3683 10.1266L16.368 11.8176H17.538L17.5388 10.1266 17.5446 10.0767C17.5671 9.98057 17.6534 9.90899 17.7565 9.90899H18.0585L18.1084 9.91474C18.2045 9.93729 18.2761 10.0236 18.2761 10.1266L18.2753 11.8176H19.4462L19.4468 10.1266 19.4526 10.0767C19.4751 9.98057 19.5614 9.90899 19.6645 9.90899H19.9664L20.0163 9.91474C20.1125 9.93729 20.1841 10.0236 20.1841 10.1266L20.1835 11.8176H21.3543L21.3548 10.1266 21.3606 10.0767C21.3831 9.98057 21.4694 9.90899 21.5724 9.90899H21.8744L21.9243 9.91474C22.0205 9.93729 22.0921 10.0236 22.0921 10.1266L22.0917 11.8176H23.2625V8.73854H8.7362V23.2657Z"/>
	</svg>
	