<?xml version="1.0"?>
	<svg xmlns="http://www.w3.org/2000/svg" 
		width="32" 
		height="32" 
		viewbox="0 0 32 32" 
		code="82771" 
		 transform=""
		><path d="M8.41016 19.5899C8.41441 15.3999 11.81 12.0043 16.0001 12L16.2201 12.0033C20.3084 12.1236 23.586 15.4734 23.5902 19.59 23.5902 19.8164 23.4067 20 23.1802 20 22.9538 20 22.7703 19.8164 22.7703 19.59 22.7703 15.851 19.7392 12.8199 16.0002 12.8199 12.2612 12.8199 9.2301 15.851 9.2301 19.59 9.2301 19.8164 9.04655 20 8.82013 20 8.59371 20 8.41016 19.8164 8.41016 19.5899ZM16.0007 13.7665C12.7845 13.7665 10.1772 16.3738 10.1772 19.59 10.1772 19.8164 10.3608 20 10.5872 20 10.8136 20 10.9972 19.8164 10.9972 19.59 10.9972 16.8266 13.2373 14.5865 16.0007 14.5865 18.7641 14.5865 21.0043 16.8266 21.0043 19.59 21.0043 19.8164 21.1878 20 21.4142 20 21.6407 20 21.8242 19.8164 21.8242 19.59 21.8242 16.3738 19.2169 13.7665 16.0007 13.7665ZM15.9997 15.6622C13.8325 15.6622 12.0757 17.419 12.0757 19.5862 12.0757 19.8126 12.2593 19.9962 12.4857 19.9962 12.7121 19.9962 12.8956 19.8126 12.8956 19.5862 12.8956 18.4772 13.4873 17.4525 14.4477 16.898 15.4081 16.3435 16.5914 16.3435 17.5518 16.898 18.5122 17.4525 19.1038 18.4772 19.1038 19.5862 19.1038 19.8126 19.2874 19.9962 19.5138 19.9962 19.7402 19.9962 19.9237 19.8126 19.9237 19.5862 19.9237 17.419 18.1669 15.6622 15.9997 15.6622Z"/>
	</svg>
	