<?xml version="1.0"?>
	<svg xmlns="http://www.w3.org/2000/svg" 
		width="32" 
		height="32" 
		viewbox="0 0 32 32" 
		code="82772" 
		 transform=""
		><path d="M22 23.1686C22 23.743 21.6913 24 21.2669 24 20.9428 24 20.7267 23.8337 20.1633 23.282L16.0965 19.3066C16.091 19.3022 16.0858 19.2981 16.0808 19.2941 16.0511 19.2703 16.0303 19.2537 16.0039 19.2537 15.973 19.2537 15.9421 19.2763 15.9035 19.3066L11.8367 23.282C11.2733 23.8413 11.065 24 10.7331 24 10.3164 24 10 23.743 10 23.1686V10.2296C10 8.75579 10.764 8 12.2534 8H19.7466C21.2437 8 22 8.75579 22 10.2296V23.1686ZM16.3287 18.1545L20.7554 22.4202C20.8853 22.5463 21 22.524 21 22.346V10.2908C21 9.45253 20.5413 9 19.6621 9H12.3379C11.4511 9 11 9.45253 11 10.2908V22.346C11 22.524 11.1147 22.5463 11.237 22.4202L15.6636 18.1545C15.7783 18.0432 15.893 18.0061 16 18.0061 16.0994 18.0061 16.2141 18.0432 16.3287 18.1545Z"/>
	</svg>
	