<?xml version="1.0"?>
	<svg xmlns="http://www.w3.org/2000/svg" 
		width="30" 
		height="30" 
		viewbox="0 0 30 30" 
		code="81066" 
		 transform=""
		><path d="M15.8912683 21.1434286L19.8228398 16.677C20.3836969 16.7958571 20.9426969 16.8571429 21.4998398 16.8571429 21.6261255 16.8571429 21.7474588 16.8381587 21.8693424 16.8216508L22.0532683 16.8014286 27.4556969 22.2038571C28.1414985 22.8879048 28.1795986 23.9744881 27.5699972 24.7048264L27.4556969 24.8298571 24.8296969 27.4558571C24.1456493 28.1416587 23.059066 28.1797588 22.3287277 27.5701574L22.2036969 27.4558571 15.8912683 21.1434286 19.8228398 16.677 15.8912683 21.1434286ZM21.4998398 2C21.9618969 2 22.4073141 2.06418286 22.8408455 2.163072L23.1638398 2.24328571 19.1468398 6.26028571C18.4610382 6.94433333 18.4229381 8.03091667 19.0325395 8.76125497L19.1468398 8.88628571 21.1154112 10.8548571C21.7994588 11.5406587 22.8860422 11.5787588 23.6163805 10.9691574L23.7414112 10.8548571 27.7584112 6.83785714C27.8995541 7.37085714 27.9998398 7.92242857 27.9998398 8.5 27.9998398 12.0898571 25.0896969 15 21.4998398 15 20.7913398 15 20.1169648 14.8734531 19.4804472 14.6589277L19.2099826 14.5617143 8.34012549 26.9098571C6.88969692 28.3602857 4.53855406 28.3602857 3.08812549 26.9098571 1.6877117 25.5094433 1.63942157 23.2693625 2.9432551 21.8110406L3.08812549 21.6578571 15.4362683 10.7898571C15.1651255 10.0748571 14.9998398 9.30971429 14.9998398 8.5 14.9998398 4.91014286 17.9099826 2 21.4998398 2ZM5.71412549 22.4285714C4.68898264 22.4285714 3.85698264 23.2605714 3.85698264 24.2857143 3.85698264 25.3108571 4.68898264 26.1428571 5.71412549 26.1428571 6.73926835 26.1428571 7.57126835 25.3108571 7.57126835 24.2857143 7.57126835 23.2605714 6.73926835 22.4285714 5.71412549 22.4285714ZM4.88999358 2.09639562L4.99355406 2.156 8.99012549 4.81728571C9.44425883 5.12061905 9.53439216 5.7426546 9.20767809 6.16095801L9.13126835 6.24728571 8.67441121 6.70414286 12.6969826 10.7285714 10.6002683 12.5727143 6.70398264 8.67457143 6.24898264 9.12957143C5.86071597 9.51610476 5.23463597 9.48363365 4.88864723 9.08047572L4.81898264 8.98842857 2.15583978 4.99371429C1.93298264 4.65774026 1.95262844 4.22200236 2.19245242 3.91114372L2.27098264 3.82185714 3.82169692 2.27114286C4.07381813 2.01902165 4.44235895 1.93910444 4.76954533 2.04707064L4.88999358 2.09639562Z"/>
	</svg>
	