<?xml version="1.0"?>
	<svg xmlns="http://www.w3.org/2000/svg" 
		width="24" 
		height="24" 
		viewbox="0 0 24 24" 
		code="82776" 
		 transform=""
		><path d="M18 17.4509C18 17.7828 17.7638 18.0573 17.4064 18.0573 17.2468 18.0573 17.0936 17.9934 16.9851 17.8849L13.7362 14.6296C12.9255 15.2424 11.9234 15.6062 10.8319 15.6062 8.17021 15.6062 6 13.436 6 10.7743 6 8.11898 8.17021 5.94238 10.8319 5.94238 13.4936 5.94238 15.6638 8.11898 15.6638 10.7743 15.6638 11.9169 15.2681 12.9637 14.5979 13.7934L17.834 17.0296C17.9489 17.1445 18 17.2977 18 17.4509ZM6.81088 10.7743C6.81088 12.9828 8.62364 14.7956 10.8322 14.7956 13.0407 14.7956 14.8534 12.9828 14.8534 10.7743 14.8534 8.57218 13.0407 6.75303 10.8322 6.75303 8.62364 6.75303 6.81088 8.57218 6.81088 10.7743Z"/>
	</svg>
	