<?xml version="1.0"?>
	<svg xmlns="http://www.w3.org/2000/svg" 
		width="64" 
		height="64" 
		viewbox="0 0 64 64" 
		code="82774" 
		 transform=""
		><path d="M22.1752 42.225C20.7609 42.225 19.9905 41.474 19.9905 39.9975V37.4644C21.5564 38.5973 23.4886 39.2719 25.5596 39.2719 27.7064 39.2719 29.7017 38.5463 31.3054 37.3243L38.5541 44.6563C38.7814 44.8727 39.0845 45 39.4002 45 40.0947 45 40.5746 44.4526 40.5746 43.7907 40.5746 43.4852 40.4736 43.1797 40.2463 42.9506L33.0103 35.6568C34.3236 34.002 35.1192 31.9145 35.1192 29.6359 35.1192 26.721 33.8185 24.0988 31.7727 22.3294H44.2494C45.6385 22.3294 46.4341 23.0932 46.4341 24.557V39.9975C46.4341 41.474 45.6385 42.225 44.2494 42.225H41.1176C41.5091 42.6578 41.7238 43.2052 41.7238 43.8035H44.2747C46.7498 43.8035 48 42.5306 48 40.0866V24.4807C48 22.0239 46.7498 20.751 44.2747 20.751H29.2597C28.1105 20.2673 26.8603 20 25.5596 20 20.2936 20 16 24.3406 16 29.6359 16 32.0927 16.9219 34.333 18.4246 36.0387V40.0866C18.4246 42.5433 19.6875 43.8035 22.15 43.8035H36.1042L34.5383 42.225H22.1752Z"/>
	</svg>
	