<?xml version="1.0"?>
	<svg xmlns="http://www.w3.org/2000/svg" 
		width="24" 
		height="24" 
		viewbox="0 0 24 24" 
		code="82782" 
		 transform=""
		><path d="M9 6C9.23669 6 9.42857 6.19188 9.42857 6.42857L9.42857 8.57143H14.5714V6.42857C14.5714 6.19188 14.7633 6 15 6 15.2367 6 15.4286 6.19188 15.4286 6.42857V8.57143H17.5714C17.8081 8.57143 18 8.76331 18 9 18 9.23669 17.8081 9.42857 17.5714 9.42857H15.4286L15.4286 14.5714H17.5714C17.8081 14.5714 18 14.7633 18 15 18 15.2367 17.8081 15.4286 17.5714 15.4286H15.4286V17.5714C15.4286 17.8081 15.2367 18 15 18 14.7633 18 14.5714 17.8081 14.5714 17.5714V15.4286H9.42857V17.5714C9.42857 17.8081 9.23669 18 9 18 8.76331 18 8.57143 17.8081 8.57143 17.5714V15.4286H6.42857C6.19188 15.4286 6 15.2367 6 15 6 14.7633 6.19188 14.5714 6.42857 14.5714H8.57143L8.57143 9.42857H6.42857C6.19188 9.42857 6 9.23669 6 9 6 8.76331 6.19188 8.57143 6.42857 8.57143H8.57143L8.57143 6.42857C8.57143 6.19188 8.76331 6 9 6ZM14.5714 14.5714L14.5714 9.42857H9.42857L9.42857 14.5714H14.5714Z"/>
	</svg>
	