<?xml version="1.0"?>
	<svg xmlns="http://www.w3.org/2000/svg" 
		width="64" 
		height="64" 
		viewbox="0 0 64 64" 
		code="82781" 
		 transform=""
		><path d="M25 18C25.5523 18 26 18.4477 26 19L26 24H38V19C38 18.4477 38.4477 18 39 18 39.5523 18 40 18.4477 40 19V24H45C45.5523 24 46 24.4477 46 25 46 25.5523 45.5523 26 45 26H40L40 38H45C45.5523 38 46 38.4477 46 39 46 39.5523 45.5523 40 45 40H40V45C40 45.5523 39.5523 46 39 46 38.4477 46 38 45.5523 38 45V40H26L26 45C26 45.5523 25.5523 46 25 46 24.4477 46 24 45.5523 24 45L24 40H19C18.4477 40 18 39.5523 18 39 18 38.4477 18.4477 38 19 38H24L24 26H19C18.4477 26 18 25.5523 18 25 18 24.4477 18.4477 24 19 24H24L24 19C24 18.4477 24.4477 18 25 18ZM38 38L38 26H26L26 38H38Z"/>
	</svg>
	