<?xml version="1.0"?>
	<svg xmlns="http://www.w3.org/2000/svg" 
		width="64" 
		height="64" 
		viewbox="0 0 64 64" 
		code="82778" 
		 transform=""
		><path d="M19.0625 46.2969C18.4062 46.2969 18 45.8906 18 45.2344V39.225C18 39.7832 18.4525 40.2357 19.0107 40.2357H24.0643L24.0643 45.2893C24.0643 45.8205 24.4742 46.2561 24.9949 46.2969H19.0625ZM25.1551 46.2969H39.1449C38.6242 46.2561 38.2143 45.8205 38.2143 45.2893V40.2357H26.0857L26.0857 45.2893C26.0857 45.8205 25.6758 46.2561 25.1551 46.2969ZM39.3051 46.2969H45.2344C45.875 46.2969 46.2969 45.8906 46.2969 45.2344V39.3051C46.2561 39.8258 45.8205 40.2357 45.2893 40.2357H40.2357V45.2893C40.2357 45.8205 39.8258 46.2561 39.3051 46.2969ZM46.2969 39.1449V25.1551C46.2561 25.6758 45.8205 26.0857 45.2893 26.0857H40.2357L40.2357 38.2143H45.2893C45.8205 38.2143 46.2561 38.6242 46.2969 39.1449ZM46.2969 24.9949V19.0625C46.2969 18.4219 45.875 18 45.2344 18H39.225 25.075 19.0625C18.4062 18 18 18.4219 18 19.0625V25.075 39.225C18 38.6668 18.4525 38.2143 19.0107 38.2143H24.0643L24.0643 26.0857H19.0107C18.4525 26.0857 18 25.6332 18 25.075 18 24.5168 18.4525 24.0643 19.0107 24.0643H24.0643L24.0643 19.0107C24.0643 18.4525 24.5168 18 25.075 18 25.6332 18 26.0857 18.4525 26.0857 19.0107L26.0857 24.0643H38.2143V19.0107C38.2143 18.4525 38.6668 18 39.225 18 39.7832 18 40.2357 18.4525 40.2357 19.0107V24.0643H45.2893C45.8205 24.0643 46.2561 24.4742 46.2969 24.9949ZM38.2143 26.0857L38.2143 38.2143H26.0857V26.0857H38.2143Z"/>
	</svg>
	