<?xml version="1.0"?>
	<svg xmlns="http://www.w3.org/2000/svg" 
		width="64" 
		height="64" 
		viewbox="0 0 64 64" 
		code="82780" 
		 transform=""
		><path d="M19.0807 19H44.9193C45.1828 19 45.4102 19 45.5975 19.0153 45.7952 19.0314 45.9918 19.0671 46.181 19.1635 46.4632 19.3073 46.6927 19.5368 46.8365 19.819 46.9329 20.0082 46.9686 20.2048 46.9847 20.4025 47 20.5898 47 20.8171 47 21.0807V42.9193C47 43.1829 47 43.4102 46.9847 43.5975 46.9686 43.7952 46.9329 43.9918 46.8365 44.181 46.6927 44.4632 46.4632 44.6927 46.181 44.8365 45.9918 44.9329 45.7952 44.9686 45.5975 44.9847 45.4102 45 45.1829 45 44.9193 45H19.0807C18.8171 45 18.5898 45 18.4025 44.9847 18.2048 44.9686 18.0082 44.9329 17.819 44.8365 17.5368 44.6927 17.3073 44.4632 17.1635 44.181 17.0671 43.9918 17.0314 43.7952 17.0153 43.5975 17 43.4102 17 43.1828 17 42.9193V21.0807C17 20.8172 17 20.5898 17.0153 20.4025 17.0314 20.2048 17.0671 20.0082 17.1635 19.819 17.3073 19.5368 17.5368 19.3073 17.819 19.1635 18.0082 19.0671 18.2048 19.0314 18.4025 19.0153 18.5898 19 18.8172 19 19.0807 19ZM18.4839 20.012C18.3481 20.0231 18.2977 20.0419 18.273 20.0545 18.1789 20.1024 18.1024 20.1789 18.0545 20.273 18.0419 20.2977 18.0231 20.3481 18.012 20.4839 18.0004 20.6256 18 20.8117 18 21.1V25.1074H46V21.1C46 20.8117 45.9996 20.6256 45.988 20.4839 45.9769 20.3481 45.9581 20.2977 45.9455 20.273 45.8976 20.1789 45.8211 20.1024 45.727 20.0545 45.7023 20.0419 45.6519 20.0231 45.5161 20.012 45.3744 20.0004 45.1883 20 44.9 20H19.1C18.8117 20 18.6256 20.0004 18.4839 20.012ZM18 42.9V26.1074H25.4492V44H19.1C18.8117 44 18.6256 43.9996 18.4839 43.988 18.3481 43.9769 18.2977 43.9581 18.273 43.9455 18.1789 43.8976 18.1024 43.8211 18.0545 43.727 18.0419 43.7023 18.0231 43.6519 18.012 43.5161 18.0004 43.3744 18 43.1883 18 42.9ZM26.4492 44H44.9C45.1883 44 45.3744 43.9996 45.5161 43.988 45.6519 43.9769 45.7023 43.9581 45.727 43.9455 45.8211 43.8976 45.8976 43.8211 45.9455 43.727 45.9581 43.7023 45.9769 43.6519 45.988 43.5161 45.9996 43.3744 46 43.1883 46 42.9V26.1074H26.4492V44Z"/>
	</svg>
	