<?xml version="1.0"?>
	<svg xmlns="http://www.w3.org/2000/svg" 
		width="64" 
		height="64" 
		viewbox="0 0 64 64" 
		code="82779" 
		 transform=""
		><path d="M18.0807 16C17.8172 16 17.5898 16 17.4025 16.0153 17.2048 16.0314 17.0082 16.0671 16.819 16.1635 16.5368 16.3073 16.3073 16.5368 16.1635 16.819 16.0671 17.0082 16.0314 17.2048 16.0153 17.4025 16 17.5898 16 17.8171 16 18.0807V28.9193C16 29.1828 16 29.4102 16.0153 29.5975 16.0314 29.7952 16.0671 29.9918 16.1635 30.181 16.3073 30.4632 16.5368 30.6927 16.819 30.8365 17.0082 30.9329 17.2048 30.9686 17.4025 30.9847 17.5898 31 17.8171 31 18.0807 31H28.9193C29.1829 31 29.4102 31 29.5975 30.9847 29.7952 30.9686 29.9918 30.9329 30.181 30.8365 30.4632 30.6927 30.6927 30.4632 30.8365 30.181 30.9329 29.9918 30.9686 29.7952 30.9847 29.5975 31 29.4102 31 29.1829 31 28.9193V18.0807C31 17.8171 31 17.5898 30.9847 17.4025 30.9686 17.2048 30.9329 17.0082 30.8365 16.819 30.6927 16.5368 30.4632 16.3073 30.181 16.1635 29.9918 16.0671 29.7952 16.0314 29.5975 16.0153 29.4102 16 29.1828 16 28.9193 16H18.0807ZM17.273 17.0545C17.2977 17.0419 17.3481 17.0231 17.4839 17.012 17.6256 17.0004 17.8117 17 18.1 17H28.9C29.1883 17 29.3744 17.0004 29.5161 17.012 29.6519 17.0231 29.7023 17.0419 29.727 17.0545 29.8211 17.1024 29.8976 17.1789 29.9455 17.273 29.9581 17.2977 29.9769 17.3481 29.988 17.4839 29.9996 17.6256 30 17.8117 30 18.1V28.9C30 29.1883 29.9996 29.3744 29.988 29.5161 29.9769 29.6519 29.9581 29.7023 29.9455 29.727 29.8976 29.8211 29.8211 29.8976 29.727 29.9455 29.7023 29.9581 29.6519 29.9769 29.5161 29.988 29.3744 29.9996 29.1883 30 28.9 30H18.1C17.8117 30 17.6256 29.9996 17.4839 29.988 17.3481 29.9769 17.2977 29.9581 17.273 29.9455 17.1789 29.8976 17.1024 29.8211 17.0545 29.727 17.0419 29.7023 17.0231 29.6519 17.012 29.5161 17.0004 29.3744 17 29.1883 17 28.9V18.1C17 17.8117 17.0004 17.6256 17.012 17.4839 17.0231 17.3481 17.0419 17.2977 17.0545 17.273 17.1024 17.1789 17.1789 17.1024 17.273 17.0545ZM18.0807 33C17.8172 33 17.5898 33 17.4025 33.0153 17.2048 33.0314 17.0082 33.0671 16.819 33.1635 16.5368 33.3073 16.3073 33.5368 16.1635 33.819 16.0671 34.0082 16.0314 34.2048 16.0153 34.4025 16 34.5898 16 34.8171 16 35.0807V45.9193C16 46.1828 16 46.4102 16.0153 46.5975 16.0314 46.7952 16.0671 46.9918 16.1635 47.181 16.3073 47.4632 16.5368 47.6927 16.819 47.8365 17.0082 47.9329 17.2048 47.9686 17.4025 47.9847 17.5897 48 17.8171 48 18.0806 48H28.9193C29.1828 48 29.4103 48 29.5975 47.9847 29.7952 47.9686 29.9918 47.9329 30.181 47.8365 30.4632 47.6927 30.6927 47.4632 30.8365 47.181 30.9329 46.9918 30.9686 46.7952 30.9847 46.5975 31 46.4102 31 46.1829 31 45.9193V35.0807C31 34.8171 31 34.5898 30.9847 34.4025 30.9686 34.2048 30.9329 34.0082 30.8365 33.819 30.6927 33.5368 30.4632 33.3073 30.181 33.1635 29.9918 33.0671 29.7952 33.0314 29.5975 33.0153 29.4102 33 29.1828 33 28.9193 33H18.0807ZM17.273 34.0545C17.2977 34.0419 17.3481 34.0231 17.4839 34.012 17.6256 34.0004 17.8117 34 18.1 34H28.9C29.1883 34 29.3744 34.0004 29.5161 34.012 29.6519 34.0231 29.7023 34.0419 29.727 34.0545 29.8211 34.1024 29.8976 34.1789 29.9455 34.273 29.9581 34.2977 29.9769 34.3481 29.988 34.4839 29.9996 34.6256 30 34.8117 30 35.1V45.9C30 46.1883 29.9996 46.3744 29.988 46.5161 29.9769 46.6519 29.9581 46.7023 29.9455 46.727 29.8976 46.8211 29.8211 46.8976 29.727 46.9455 29.7023 46.9581 29.6519 46.9769 29.5161 46.988 29.3744 46.9996 29.1883 47 28.9 47H18.1C17.8117 47 17.6256 46.9996 17.4839 46.988 17.3481 46.9769 17.2977 46.9581 17.273 46.9455 17.1789 46.8976 17.1024 46.8211 17.0545 46.727 17.0419 46.7023 17.0231 46.6519 17.012 46.5161 17.0004 46.3744 17 46.1883 17 45.9V35.1C17 34.8117 17.0004 34.6256 17.012 34.4839 17.0231 34.3481 17.0419 34.2977 17.0545 34.273 17.1024 34.1789 17.1789 34.1024 17.273 34.0545ZM35.0807 16H45.9193C46.1828 16 46.4102 16 46.5975 16.0153 46.7952 16.0314 46.9918 16.0671 47.181 16.1635 47.4632 16.3073 47.6927 16.5368 47.8365 16.819 47.9329 17.0082 47.9686 17.2048 47.9847 17.4025 48 17.5897 48 17.8171 48 18.0806V28.9193C48 29.1828 48 29.4103 47.9847 29.5975 47.9686 29.7952 47.9329 29.9918 47.8365 30.181 47.6927 30.4632 47.4632 30.6927 47.181 30.8365 46.9918 30.9329 46.7952 30.9686 46.5975 30.9847 46.4102 31 46.1829 31 45.9193 31H35.0807C34.8171 31 34.5898 31 34.4025 30.9847 34.2048 30.9686 34.0082 30.9329 33.819 30.8365 33.5368 30.6927 33.3073 30.4632 33.1635 30.181 33.0671 29.9918 33.0314 29.7952 33.0153 29.5975 33 29.4102 33 29.1828 33 28.9193V18.0807C33 17.8172 33 17.5898 33.0153 17.4025 33.0314 17.2048 33.0671 17.0082 33.1635 16.819 33.3073 16.5368 33.5368 16.3073 33.819 16.1635 34.0082 16.0671 34.2048 16.0314 34.4025 16.0153 34.5898 16 34.8172 16 35.0807 16ZM34.4839 17.012C34.3481 17.0231 34.2977 17.0419 34.273 17.0545 34.1789 17.1024 34.1024 17.1789 34.0545 17.273 34.0419 17.2977 34.0231 17.3481 34.012 17.4839 34.0004 17.6256 34 17.8117 34 18.1V28.9C34 29.1883 34.0004 29.3744 34.012 29.5161 34.0231 29.6519 34.0419 29.7023 34.0545 29.727 34.1024 29.8211 34.1789 29.8976 34.273 29.9455 34.2977 29.9581 34.3481 29.9769 34.4839 29.988 34.6256 29.9996 34.8117 30 35.1 30H45.9C46.1883 30 46.3744 29.9996 46.5161 29.988 46.6519 29.9769 46.7023 29.9581 46.727 29.9455 46.8211 29.8976 46.8976 29.8211 46.9455 29.727 46.9581 29.7023 46.9769 29.6519 46.988 29.5161 46.9996 29.3744 47 29.1883 47 28.9V18.1C47 17.8117 46.9996 17.6256 46.988 17.4839 46.9769 17.3481 46.9581 17.2977 46.9455 17.273 46.8976 17.1789 46.8211 17.1024 46.727 17.0545 46.7023 17.0419 46.6519 17.0231 46.5161 17.012 46.3744 17.0004 46.1883 17 45.9 17H35.1C34.8117 17 34.6256 17.0004 34.4839 17.012ZM35.0807 33C34.8172 33 34.5898 33 34.4025 33.0153 34.2048 33.0314 34.0082 33.0671 33.819 33.1635 33.5368 33.3073 33.3073 33.5368 33.1635 33.819 33.0671 34.0082 33.0314 34.2048 33.0153 34.4025 33 34.5898 33 34.8172 33 35.0807V45.9193C33 46.1828 33 46.4102 33.0153 46.5975 33.0314 46.7952 33.0671 46.9918 33.1635 47.181 33.3073 47.4632 33.5368 47.6927 33.819 47.8365 34.0082 47.9329 34.2048 47.9686 34.4025 47.9847 34.5898 48 34.8171 48 35.0807 48H45.9193C46.1828 48 46.4102 48 46.5975 47.9847 46.7952 47.9686 46.9918 47.9329 47.181 47.8365 47.4632 47.6927 47.6927 47.4632 47.8365 47.181 47.9329 46.9918 47.9686 46.7952 47.9847 46.5975 48 46.4102 48 46.1829 48 45.9193V35.0807C48 34.8172 48 34.5898 47.9847 34.4025 47.9686 34.2048 47.9329 34.0082 47.8365 33.819 47.6927 33.5368 47.4632 33.3073 47.181 33.1635 46.9918 33.0671 46.7952 33.0314 46.5975 33.0153 46.4102 33 46.1828 33 45.9193 33H35.0807ZM34.273 34.0545C34.2977 34.0419 34.3481 34.0231 34.4839 34.012 34.6256 34.0004 34.8117 34 35.1 34H45.9C46.1883 34 46.3744 34.0004 46.5161 34.012 46.6519 34.0231 46.7023 34.0419 46.727 34.0545 46.8211 34.1024 46.8976 34.1789 46.9455 34.273 46.9581 34.2977 46.9769 34.3481 46.988 34.4839 46.9996 34.6256 47 34.8117 47 35.1V45.9C47 46.1883 46.9996 46.3744 46.988 46.5161 46.9769 46.6519 46.9581 46.7023 46.9455 46.727 46.8976 46.8211 46.8211 46.8976 46.727 46.9455 46.7023 46.9581 46.6519 46.9769 46.5161 46.988 46.3744 46.9996 46.1883 47 45.9 47H35.1C34.8117 47 34.6256 46.9996 34.4839 46.988 34.3481 46.9769 34.2977 46.9581 34.273 46.9455 34.1789 46.8976 34.1024 46.8211 34.0545 46.727 34.0419 46.7023 34.0231 46.6519 34.012 46.5161 34.0004 46.3744 34 46.1883 34 45.9V35.1C34 34.8117 34.0004 34.6256 34.012 34.4839 34.0231 34.3481 34.0419 34.2977 34.0545 34.273 34.1024 34.1789 34.1789 34.1024 34.273 34.0545Z"/>
	</svg>
	