<?xml version="1.0"?>
	<svg xmlns="http://www.w3.org/2000/svg" 
		width="64" 
		height="64" 
		viewbox="0 0 64 64" 
		code="82777" 
		 transform=""
		><path d="M19.1 18C19.0024 18 18.9156 18 18.8363 18.0006 18.747 18.0012 18.6631 17.9784 18.5903 17.9379 18.5299 17.981 18.4591 18.0112 18.381 18.024 18.3199 18.034 18.2902 18.0458 18.273 18.0545 18.2495 18.0664 18.2272 18.0802 18.2061 18.0955 18.184 18.1115 18.1611 18.1255 18.1375 18.1375 18.1255 18.1611 18.1115 18.184 18.0955 18.2061 18.0802 18.2272 18.0664 18.2495 18.0545 18.273 18.0458 18.2902 18.034 18.3199 18.024 18.381 18.0112 18.4591 17.981 18.5299 17.9379 18.5903 17.9784 18.6631 18.0012 18.747 18.0006 18.8363 18 18.9156 18 19.0024 18 19.1V21.25C18 21.5261 17.7761 21.75 17.5 21.75 17.2239 21.75 17 21.5261 17 21.25V19.0988C17 19.0026 17 18.9124 17.0006 18.8293 17.0013 18.7224 17.0356 18.6235 17.0933 18.5426 17.0405 18.4477 17.0182 18.3349 17.0371 18.2193 17.0594 18.0834 17.0969 17.9496 17.1635 17.819 17.1993 17.7487 17.2405 17.6816 17.2865 17.6183 17.3349 17.5516 17.3968 17.5004 17.4657 17.4657 17.5004 17.3968 17.5516 17.3349 17.6183 17.2865 17.6816 17.2405 17.7487 17.1993 17.819 17.1635 17.9496 17.0969 18.0834 17.0594 18.2193 17.0371 18.3349 17.0182 18.4477 17.0405 18.5426 17.0933 18.6235 17.0356 18.7224 17.0013 18.8293 17.0006 18.9124 17 19.0026 17 19.0988 17H21.25C21.5261 17 21.75 17.2239 21.75 17.5 21.75 17.7761 21.5261 18 21.25 18H19.1ZM25.05 17.5C25.05 17.2239 25.2739 17 25.55 17H29.85C30.1261 17 30.35 17.2239 30.35 17.5 30.35 17.7761 30.1261 18 29.85 18H25.55C25.2739 18 25.05 17.7761 25.05 17.5ZM33.65 17.5C33.65 17.2239 33.8739 17 34.15 17H38.45C38.7261 17 38.95 17.2239 38.95 17.5 38.95 17.7761 38.7261 18 38.45 18H34.15C33.8739 18 33.65 17.7761 33.65 17.5ZM42.25 17.5C42.25 17.2239 42.4739 17 42.75 17H44.9012C44.9974 17 45.0876 17 45.1707 17.0006 45.2776 17.0013 45.3765 17.0356 45.4573 17.0933 45.5523 17.0405 45.6651 17.0182 45.7807 17.0371 45.9166 17.0594 46.0504 17.0969 46.181 17.1635 46.2513 17.1993 46.3184 17.2405 46.3817 17.2865 46.4484 17.3349 46.4996 17.3968 46.5343 17.4657 46.6032 17.5004 46.6651 17.5516 46.7135 17.6183 46.7595 17.6816 46.8007 17.7487 46.8365 17.819 46.9031 17.9496 46.9406 18.0834 46.9629 18.2193 46.9818 18.3349 46.9595 18.4477 46.9067 18.5426 46.9644 18.6235 46.9987 18.7224 46.9994 18.8293 47 18.9125 47 19.0027 47 19.0991V21.25C47 21.5261 46.7761 21.75 46.5 21.75 46.2239 21.75 46 21.5261 46 21.25V19.1C46 19.0024 46 18.9156 45.9994 18.8363 45.9988 18.747 46.0216 18.6631 46.0621 18.5903 46.019 18.5299 45.9888 18.4591 45.976 18.381 45.966 18.3199 45.9542 18.2902 45.9455 18.273 45.9336 18.2495 45.9198 18.2272 45.9045 18.2061 45.8885 18.184 45.8745 18.1611 45.8625 18.1375 45.8389 18.1255 45.816 18.1115 45.7939 18.0955 45.7728 18.0802 45.7505 18.0664 45.727 18.0545 45.7098 18.0458 45.6801 18.034 45.619 18.024 45.5409 18.0112 45.4701 17.981 45.4097 17.9379 45.3369 17.9784 45.253 18.0012 45.1637 18.0006 45.0844 18 44.9976 18 44.9 18H42.75C42.4739 18 42.25 17.7761 42.25 17.5ZM46.5 25.05C46.7761 25.05 47 25.2739 47 25.55V29.85C47 30.1261 46.7761 30.35 46.5 30.35 46.2239 30.35 46 30.1261 46 29.85V25.55C46 25.2739 46.2239 25.05 46.5 25.05ZM17.5 25.05C17.7761 25.05 18 25.2739 18 25.55V29.85C18 30.1261 17.7761 30.35 17.5 30.35 17.2239 30.35 17 30.1261 17 29.85V25.55C17 25.2739 17.2239 25.05 17.5 25.05ZM17.5 33.65C17.7761 33.65 18 33.8739 18 34.15V38.45C18 38.7261 17.7761 38.95 17.5 38.95 17.2239 38.95 17 38.7261 17 38.45V34.15C17 33.8739 17.2239 33.65 17.5 33.65ZM46.5 33.65C46.7761 33.65 47 33.8739 47 34.15V38.45C47 38.7261 46.7761 38.95 46.5 38.95 46.2239 38.95 46 38.7261 46 38.45V34.15C46 33.8739 46.2239 33.65 46.5 33.65ZM46.5 42.25C46.7761 42.25 47 42.4739 47 42.75V44.9C47 44.9967 47 45.0872 46.9994 45.1707 46.9987 45.2776 46.9644 45.3765 46.9067 45.4573 46.9595 45.5523 46.9818 45.6651 46.9629 45.7807 46.9406 45.9166 46.9031 46.0504 46.8365 46.181 46.8007 46.2513 46.7595 46.3184 46.7135 46.3817 46.6651 46.4484 46.6032 46.4996 46.5343 46.5343 46.4996 46.6032 46.4484 46.6651 46.3817 46.7135 46.3184 46.7595 46.2513 46.8007 46.181 46.8365 46.0504 46.9031 45.9166 46.9406 45.7807 46.9629 45.6651 46.9818 45.5523 46.9595 45.4574 46.9067 45.3765 46.9644 45.2776 46.9987 45.1707 46.9994 45.0872 47 44.9967 47 44.9 47H42.75C42.4739 47 42.25 46.7761 42.25 46.5 42.25 46.2239 42.4739 46 42.75 46H44.9C44.9976 46 45.0844 46 45.1637 45.9994 45.253 45.9988 45.3369 46.0216 45.4097 46.0621 45.4701 46.019 45.5409 45.9888 45.619 45.976 45.6801 45.966 45.7098 45.9542 45.727 45.9455 45.7505 45.9336 45.7728 45.9198 45.7939 45.9045 45.816 45.8885 45.8389 45.8745 45.8625 45.8625 45.8745 45.8389 45.8885 45.816 45.9045 45.7939 45.9198 45.7728 45.9336 45.7505 45.9455 45.727 45.9542 45.7098 45.966 45.6801 45.976 45.619 45.9888 45.5409 46.019 45.4701 46.0621 45.4097 46.0216 45.3369 45.9988 45.253 45.9994 45.1637 46 45.0844 46 44.9976 46 44.9V42.75C46 42.4739 46.2239 42.25 46.5 42.25ZM17.5 42.25C17.7761 42.25 18 42.4739 18 42.75V44.9C18 44.9976 18 45.0844 18.0006 45.1637 18.0012 45.253 17.9784 45.3369 17.9379 45.4097 17.981 45.4701 18.0112 45.5409 18.024 45.619 18.034 45.6801 18.0458 45.7098 18.0545 45.727 18.0664 45.7505 18.0802 45.7728 18.0955 45.7939 18.1115 45.816 18.1255 45.8389 18.1375 45.8625 18.1611 45.8745 18.184 45.8885 18.2061 45.9045 18.2272 45.9198 18.2495 45.9336 18.273 45.9455 18.2902 45.9542 18.3199 45.966 18.381 45.976 18.4591 45.9888 18.5299 46.019 18.5903 46.0621 18.6631 46.0216 18.747 45.9988 18.8363 45.9994 18.9156 46 19.0024 46 19.1 46H21.25C21.5261 46 21.75 46.2239 21.75 46.5 21.75 46.7761 21.5261 47 21.25 47H19.1C19.0037 47 18.9125 47 18.8293 46.9994 18.7224 46.9987 18.6235 46.9644 18.5426 46.9067 18.4477 46.9595 18.3349 46.9818 18.2193 46.9629 18.0834 46.9406 17.9496 46.9031 17.819 46.8365 17.7487 46.8007 17.6816 46.7595 17.6183 46.7135 17.5516 46.6651 17.5004 46.6032 17.4657 46.5343 17.3968 46.4996 17.3349 46.4484 17.2865 46.3817 17.2405 46.3184 17.1993 46.2513 17.1635 46.181 17.0969 46.0504 17.0594 45.9166 17.0371 45.7807 17.0182 45.6651 17.0405 45.5523 17.0933 45.4574 17.0356 45.3765 17.0013 45.2776 17.0006 45.1707 17 45.0876 17 44.9974 17 44.9012V42.75C17 42.4739 17.2239 42.25 17.5 42.25ZM25.05 46.5C25.05 46.2239 25.2739 46 25.55 46H29.85C30.1261 46 30.35 46.2239 30.35 46.5 30.35 46.7761 30.1261 47 29.85 47H25.55C25.2739 47 25.05 46.7761 25.05 46.5ZM33.65 46.5C33.65 46.2239 33.8739 46 34.15 46H38.45C38.7261 46 38.95 46.2239 38.95 46.5 38.95 46.7761 38.7261 47 38.45 47H34.15C33.8739 47 33.65 46.7761 33.65 46.5Z"/>
	</svg>
	