<?xml version="1.0"?>
	<svg xmlns="http://www.w3.org/2000/svg" 
		width="32" 
		height="32" 
		viewbox="0 0 32 32" 
		code="82786" 
		 transform=""
		><path d="M22 18.3079C22 17.7324 21.5483 17.2658 20.9911 17.2658 20.7824 17.2685 20.5787 17.332 20.4034 17.449 20.2473 17.0483 19.868 16.7887 19.4499 16.7962 19.2413 16.799 19.0376 16.8625 18.8623 16.9795 18.695 16.5983 18.325 16.3555 17.9199 16.361 17.7416 16.3638 17.5667 16.411 17.4099 16.4985V15.8228C18.1385 15.4676 18.6375 14.7485 18.7292 13.9217H20.8802L20.4478 14.3569C20.3942 14.4088 20.3638 14.4814 20.3638 14.5573 20.3638 14.6332 20.3942 14.7058 20.4478 14.7577 20.4983 14.8169 20.571 14.8508 20.6473 14.8508 20.7237 14.8508 20.7964 14.8169 20.8469 14.7577L21.745 13.8301C21.7986 13.7781 21.829 13.7056 21.829 13.6297 21.829 13.5537 21.7986 13.4812 21.745 13.4293L20.8469 12.4787C20.7756 12.4051 20.6717 12.3763 20.5743 12.4033 20.4769 12.4302 20.4008 12.5088 20.3747 12.6094 20.3486 12.71 20.3765 12.8173 20.4478 12.891L20.8802 13.3262H18.7292C18.604 12.212 17.7561 11.3314 16.6781 11.1961V8.98576L17.0994 9.42095C17.1479 9.47963 17.2188 9.51343 17.2934 9.51343 17.3681 9.51343 17.439 9.47963 17.4875 9.42095 17.5443 9.3709 17.577 9.29765 17.577 9.22053 17.577 9.14341 17.5443 9.07016 17.4875 9.02012L16.5894 8.09248C16.5409 8.0338 16.47 8 16.3954 8 16.3207 8 16.2498 8.0338 16.2013 8.09248L15.3033 9.02012C15.2465 9.07016 15.2137 9.14341 15.2137 9.22053 15.2137 9.29765 15.2465 9.3709 15.3033 9.42095 15.3522 9.47564 15.4198 9.5085 15.4918 9.51256 15.5715 9.51474 15.6482 9.48136 15.7024 9.42095L16.1237 8.98576V11.1961C15.0457 11.3314 14.1978 12.212 14.0726 13.3262H11.8551L12.3762 12.891C12.4335 12.8388 12.4663 12.7637 12.4663 12.6849 12.4663 12.606 12.4335 12.5309 12.3762 12.4787 12.3259 12.4234 12.2557 12.3919 12.1822 12.3919 12.1087 12.3919 12.0385 12.4234 11.9882 12.4787L11.0901 13.4063C11.0328 13.4585 11 13.5336 11 13.6125 11 13.6914 11.0328 13.7665 11.0901 13.8186L11.9882 14.7463C12.0439 14.7958 12.1143 14.824 12.1877 14.8264 12.2579 14.8243 12.3249 14.7958 12.3762 14.7463 12.4335 14.6941 12.4663 14.619 12.4663 14.5401 12.4663 14.4612 12.4335 14.3862 12.3762 14.334L11.9549 13.9217H14.0393C14.1333 14.751 14.6369 15.4706 15.3698 15.8228V19.4532L14.6491 18.7317C14.2892 18.3948 13.759 18.3391 13.3408 18.5942 13.0999 18.7582 12.9385 19.0208 12.8973 19.3157 12.8468 19.6165 12.9326 19.9246 13.1302 20.1518L15.2146 22.7629C15.8362 23.557 16.7761 24.0128 17.7646 23.9997H19.0286C20.639 23.9997 21.9446 22.6512 21.9446 20.9878L22 18.3079ZM14.5935 13.6706C14.5401 12.9507 14.8735 12.2601 15.4564 11.8829 16.0393 11.5057 16.7732 11.5057 17.3561 11.8829 17.939 12.2601 18.2723 12.9507 18.219 13.6706 18.2209 14.2997 17.9256 14.8883 17.4318 15.24V14.1391C17.4257 13.8569 17.3233 13.5866 17.1435 13.3778 16.9546 13.1723 16.694 13.0579 16.4229 13.0616 15.8638 13.068 15.4139 13.5485 15.4139 14.1391V15.24C14.8979 14.906 14.5863 14.3099 14.5935 13.6706ZM19.1056 23.5076C19.7437 23.51 20.3556 23.2457 20.8019 22.7747L20.7908 22.7976C21.2417 22.3076 21.485 21.6523 21.4672 20.9766V18.3083C21.4672 18.0173 21.2388 17.7815 20.9571 17.7815 20.6755 17.7815 20.4471 18.0173 20.4471 18.3083V18.8809C20.4691 18.9903 20.4248 19.1025 20.335 19.1648 20.2452 19.2271 20.1279 19.2271 20.0381 19.1648 19.9484 19.1025 19.9041 18.9903 19.926 18.8809V17.8845C19.9201 17.5961 19.6952 17.3638 19.416 17.3577 19.1387 17.3639 18.917 17.598 18.9171 17.8845V18.4113C18.9171 18.5631 18.7979 18.6862 18.651 18.6862 18.504 18.6862 18.3849 18.5631 18.3849 18.4113V17.415C18.385 17.1284 18.1633 16.8944 17.886 16.8882 17.6068 16.8942 17.3818 17.1266 17.3759 17.415V17.9418C17.376 18.0137 17.3476 18.0825 17.2974 18.1322 17.2471 18.1819 17.1794 18.2083 17.1098 18.2052 17.0422 18.2052 16.9774 18.1774 16.9295 18.128 16.8817 18.0786 16.8548 18.0116 16.8548 17.9418V14.0824C16.8505 13.9464 16.7994 13.8165 16.7107 13.7159 16.6129 13.6177 16.4811 13.5641 16.3448 13.567 16.0674 13.5669 15.8408 13.7959 15.8348 14.0824V19.694C15.8352 19.8683 15.7348 20.026 15.5798 20.0948 15.4174 20.1647 15.2303 20.1287 15.103 20.0032L14.2715 19.1328C14.1673 19.0379 14.0334 18.985 13.8945 18.9839 13.6289 18.9641 13.3969 19.168 13.3734 19.442 13.3489 19.5932 13.3894 19.7479 13.4843 19.8658L15.6352 22.454C16.1706 23.1168 16.9616 23.5023 17.7973 23.5076H19.1056Z"/>
	</svg>
	