<?xml version="1.0"?>
	<svg xmlns="http://www.w3.org/2000/svg" 
		width="1024" 
		height="1024" 
		viewbox="0 0 1024 1024" 
		code="82783" 
		 transform=""
		><path d="M752 663.766c0 47.496-19.614 72.234-58.446 72.234h-347.107c-38.634 0-58.446-24.49-58.446-72.234v-303.285c0-47.992 19.813-72.482 58.446-72.482h347.107c38.832 0 58.446 24.738 58.446 72.482v303.285zM511.406 387.594c2.968-2.499 5.626-3.594 8.594-3.594s5.469 1.094 8.437 3.437l108.126 88.75c2.187 1.718 3.437 4.219 3.437 7.97 0 6.093-4.531 10.781-10.781 10.781-2.501 0-5.157-0.938-7.97-3.282l-101.25-83.282-101.25 83.282c-2.813 2.344-5.469 3.282-7.97 3.282-6.25 0-10.781-4.688-10.781-10.781 0-3.75 1.25-6.251 3.437-7.97l107.97-88.594zM528.437 652.282c-2.968 2.499-5.469 3.594-8.437 3.594s-5.626-1.25-8.594-3.594l-107.97-88.594c-2.187-1.875-3.437-4.219-3.437-7.97 0-6.093 4.531-10.781 10.781-10.781 2.501 0 5.157 0.938 7.97 3.125l101.25 83.438 101.25-83.438c2.813-2.187 5.469-3.125 7.97-3.125 6.25 0 10.781 4.688 10.781 10.781 0 3.75-1.25 6.094-3.437 7.97l-108.126 88.594z"/>
	</svg>
	