<?xml version="1.0"?>
	<svg xmlns="http://www.w3.org/2000/svg" 
		width="16" 
		height="16" 
		viewbox="0 0 16 16" 
		code="82785" 
		 transform=""
		><path d="M7.99951 3.24658C7.87598 3.24658 7.76318 3.29492 7.63428 3.40234L4.01416 6.34033C3.92285 6.4209 3.86914 6.53369 3.86914 6.69482 3.86914 6.97412 4.07861 7.18359 4.35791 7.18359 4.47607 7.18359 4.58887 7.14062 4.71777 7.04395L7.99951 4.36914 11.2812 7.04395C11.4048 7.14062 11.5229 7.18359 11.6357 7.18359 11.9204 7.18359 12.1299 6.97412 12.1299 6.69482 12.1299 6.53369 12.0762 6.4209 11.9849 6.34033L8.36475 3.39697C8.23584 3.29492 8.11768 3.24658 7.99951 3.24658ZM7.99951 12.7534C8.11768 12.7534 8.23584 12.7051 8.36475 12.603L11.9849 9.65967C12.0762 9.5791 12.1299 9.46631 12.1299 9.30518 12.1299 9.02588 11.9204 8.81104 11.6357 8.81104 11.5229 8.81104 11.4048 8.85938 11.2812 8.95605L7.99951 11.6309 4.71777 8.95605C4.58887 8.85938 4.47607 8.81104 4.35791 8.81104 4.07861 8.81104 3.86914 9.02588 3.86914 9.30518 3.86914 9.46631 3.92285 9.5791 4.01416 9.65967L7.63428 12.5977C7.76318 12.7051 7.87598 12.7534 7.99951 12.7534Z"/>
	</svg>
	