<?xml version="1.0"?>
	<svg xmlns="http://www.w3.org/2000/svg" 
		width="32" 
		height="32" 
		viewbox="0 0 32 32" 
		code="82787" 
		 transform=""
		><path d="M17.3966 23.9959C17.5685 23.9668 17.6616 23.8579 17.6902 23.669L17.8048 22.8334C18.1987 22.7317 18.5855 22.5864 18.9508 22.412L19.5595 22.9714C19.6885 23.095 19.8317 23.1095 20.0036 23.0223 20.154 22.9424 20.2041 22.8043 20.1683 22.6154L20.0036 21.7944C20.333 21.5619 20.6482 21.3003 20.9346 21.0024L21.6938 21.3221C21.8514 21.4021 21.9946 21.3657 22.1307 21.2059 22.2525 21.0751 22.2668 20.9225 22.1594 20.7699L21.7153 20.0579C21.9517 19.7237 22.1522 19.3604 22.3241 18.9826L23.1549 19.0262C23.3339 19.0334 23.4628 18.9535 23.5201 18.7791 23.5774 18.6048 23.5273 18.4667 23.3912 18.3577L22.7395 17.8273C22.8469 17.4422 22.9185 17.0281 22.9472 16.6067L23.735 16.3524C23.9069 16.287 24 16.178 24 15.9964 24 15.8147 23.9069 15.6985 23.735 15.6331L22.9472 15.3861C22.9185 14.9574 22.8397 14.5578 22.7395 14.1654L23.3912 13.635C23.5273 13.5333 23.5703 13.3953 23.5201 13.2209 23.4628 13.0465 23.3339 12.9666 23.1549 12.9738L22.3241 13.0102C22.1522 12.6251 21.9517 12.2763 21.7153 11.9348L22.1594 11.2228C22.2596 11.0775 22.2525 10.9249 22.1307 10.7941 21.9946 10.6343 21.8514 10.598 21.6938 10.6779L20.9346 10.9903C20.6482 10.6997 20.333 10.4308 20.0036 10.1983L20.1683 9.38458C20.2041 9.19568 20.154 9.05763 20.0036 8.97771 19.8317 8.88325 19.6885 8.89778 19.5595 9.02857L18.9508 9.57349C18.5855 9.40638 18.1987 9.26833 17.8048 9.15935L17.6902 8.33106C17.6616 8.14215 17.5613 8.03316 17.3894 8.0041 17.2032 7.9823 17.0743 8.0477 16.9955 8.19301L16.6088 8.94864 16.588 8.94719C16.3877 8.93316 16.1938 8.91958 16 8.91958 15.8049 8.91958 15.6225 8.9324 15.429 8.94599L15.3912 8.94864 14.9973 8.19301C14.9257 8.0477 14.7968 7.9823 14.6034 8.0041 14.4315 8.03316 14.3312 8.14215 14.3098 8.33106L14.188 9.15935C13.8013 9.26833 13.4145 9.39912 13.0421 9.57349L12.4333 9.03583C12.3044 8.90505 12.1611 8.89052 11.9893 8.97771 11.846 9.05763 11.7959 9.19568 11.8245 9.38458L11.9964 10.1983C11.667 10.4308 11.3447 10.6997 11.0582 10.9903L10.3062 10.6779C10.1415 10.598 10.0054 10.6343 9.86929 10.7941 9.74754 10.9249 9.74038 11.0775 9.83348 11.2155L10.2775 11.9348C10.0483 12.2763 9.84781 12.6251 9.67592 13.0102L8.83796 12.9738C8.65891 12.9666 8.53715 13.0465 8.47986 13.2209 8.4154 13.3953 8.45837 13.5333 8.60877 13.635L9.25336 14.1654C9.15309 14.5578 9.08147 14.9574 9.05282 15.3788L8.265 15.6331C8.08594 15.6985 8 15.8075 8 15.9964 8 16.1853 8.08594 16.2943 8.265 16.3524L9.05282 16.614C9.08147 17.0281 9.15309 17.4422 9.25336 17.8273L8.60877 18.3577C8.46553 18.4594 8.42256 18.5975 8.47986 18.7791 8.53715 18.9535 8.65891 19.0334 8.83796 19.0262L9.67592 18.9826C9.84064 19.3604 10.0483 19.7237 10.2775 20.0579L9.84064 20.7699C9.73321 20.9225 9.74038 21.0751 9.86929 21.2059 10.0054 21.3657 10.1415 21.4021 10.3062 21.3221L11.0582 21.0024C11.3447 21.3003 11.667 21.5619 11.9964 21.7944L11.8245 22.6154C11.7959 22.8043 11.846 22.9424 11.9893 23.0223 12.1683 23.1095 12.3044 23.095 12.4333 22.9714L13.0421 22.412C13.4145 22.5864 13.8013 22.7317 14.188 22.8407L14.3098 23.669C14.3312 23.8579 14.4315 23.9668 14.6106 23.9959 14.7968 24.0177 14.9257 23.9523 14.9973 23.7997L15.3912 23.0441C15.5918 23.0659 15.7923 23.0804 16 23.0804 16.2005 23.0804 16.4011 23.0659 16.6088 23.0441L16.9955 23.7997C17.0743 23.9523 17.2032 24.0177 17.3966 23.9959ZM22.0519 15.6259H17.7117C17.4539 14.7686 16.8021 14.2382 15.9928 14.2382 15.8424 14.2382 15.6848 14.26 15.47 14.3254L13.2354 10.4382C14.0591 10.0096 14.9973 9.76979 16 9.76979 19.2873 9.76979 21.8657 12.3273 22.0519 15.6259ZM9.94062 16.0034C9.94062 18.1468 10.9576 20.0286 12.5404 21.1476L14.8251 17.3331C14.4312 16.9552 14.2235 16.5193 14.2235 16.0325 14.2235 15.553 14.4241 15.1025 14.8037 14.7392L12.5619 10.8448C10.9648 11.9564 9.94062 13.8383 9.94062 16.0034ZM16.0002 17.0066C15.4845 17.0066 15.0333 16.5706 15.0333 16.0257 15.0333 15.4881 15.4845 15.0594 16.0002 15.0594 16.5374 15.0594 16.9742 15.4881 16.9742 16.0257 16.9742 16.5706 16.5374 17.0066 16.0002 17.0066ZM13.2208 21.5545C14.0445 21.9904 14.9899 22.2302 15.9997 22.2302 19.2799 22.2302 21.8583 19.6727 22.0516 16.3958H17.7186C17.4751 17.2822 16.8162 17.8272 15.9925 17.8272 15.8493 17.8272 15.6917 17.8126 15.4912 17.7545L13.2208 21.5545Z"/>
	</svg>
	