<?xml version="1.0"?>
	<svg xmlns="http://www.w3.org/2000/svg" 
		width="32" 
		height="32" 
		viewbox="0 0 32 32" 
		code="82788" 
		 transform=""
		><path d="M9.08939 18.9193C8.70987 18.0221 8.5 17.0355 8.5 16 8.5 11.8579 11.8578 8.50003 15.9999 8.5 15.9999 8.5 16 8.5 15.9999 8.5 20.1421 8.5 23.5 11.8579 23.5 16 23.5 19.8833 20.5488 23.0772 16.7668 23.4613 16.5147 23.4869 16.2588 23.5 15.9999 23.5 15.7411 23.5 15.4853 23.4869 15.2332 23.4613 14.8156 23.4189 14.4081 23.3422 14.0136 23.2341 11.7882 22.6245 9.97592 21.0153 9.08939 18.9193ZM15.9999 22.4285C19.5502 22.4284 22.4283 19.5503 22.4283 16 22.4283 12.4496 19.5502 9.5715 15.9999 9.5714V10.6875H12.3787C12.1031 10.8757 11.8429 11.0848 11.6004 11.3125H15.9999V13.9375H9.90915C9.84012 14.1414 9.78104 14.35 9.73249 14.5625H15.9999V17.1875H9.68063C9.72026 17.3997 9.77031 17.6082 9.83023 17.8125H15.9999V20.4375H11.3484C11.5626 20.6619 11.7928 20.8709 12.0373 21.0625H15.9999V22.4285Z"/>
	</svg>
	