<?xml version="1.0"?>
	<svg xmlns="http://www.w3.org/2000/svg" 
		width="32" 
		height="32" 
		viewbox="0 0 32 32" 
		code="82789" 
		 transform=""
		><path d="M19.9478 10C21.8808 10 23.4478 11.567 23.4478 13.5 23.4478 14.7611 22.7809 15.8663 21.7805 16.4824 23.1142 17.2337 24.0005 18.7773 24.0005 20.5L24.0005 20.5 24.0005 22 7.9995 22 7.9995 20.5C7.9995 18.7867 8.86642 17.2443 10.1779 16.4892 9.17138 15.8745 8.4995 14.7657 8.4995 13.5 8.4995 11.567 10.0665 10 11.9995 10 13.9325 10 15.4995 11.567 15.4995 13.5 15.4995 14.7657 14.8277 15.8744 13.8213 16.4891 14.945 17.136 15.7424 18.3609 15.9478 19.7761 16.1568 18.3534 16.9714 17.1266 18.1151 16.4824 17.1147 15.8663 16.4478 14.761 16.4478 13.5 16.4478 11.567 18.0148 10 19.9478 10ZM19.9478 17C18.3159 17 16.895 18.5096 16.895 20.5L16.895 20.5 16.895 21 23.0005 21 23.0005 20.5C23.0005 18.5096 21.5796 17 19.9478 17ZM11.9997 17C10.4033 17 8.9995 18.5022 8.9995 20.5L8.9995 20.5 8.9995 21 14.9999 21 14.9999 20.5 14.9949421 20.2951402C14.9028572 18.4003862 13.5410517 17 11.9997 17ZM19.9478 11C18.5671 11 17.4478 12.1193 17.4478 13.5 17.4478 14.8807 18.5671 16 19.9478 16 21.3285 16 22.4478 14.8807 22.4478 13.5 22.4478 12.1193 21.3285 11 19.9478 11ZM11.9995 11C10.6188 11 9.4995 12.1193 9.4995 13.5 9.4995 14.8807 10.6188 16 11.9995 16 13.3803 16 14.4995 14.8807 14.4995 13.5 14.4995 12.1193 13.3803 11 11.9995 11Z"/>
	</svg>
	