<?xml version="1.0"?>
	<svg xmlns="http://www.w3.org/2000/svg" 
		width="24" 
		height="24" 
		viewbox="0 0 24 24" 
		code="82791" 
		 transform=""
		><path d="M6.42465 5.57564C6.19034 5.34132 5.81044 5.34132 5.57613 5.57564 5.34181 5.80995 5.34181 6.18985 5.57613 6.42417L7.16534 8.01338C7.14634 8.06645 7.13613 8.12328 7.13613 8.18184V12C7.13613 13.8596 8.36791 15.3502 9.4887 16.3309 10.0596 16.8304 10.6281 17.221 11.053 17.4865 11.2659 17.6196 11.444 17.7221 11.5701 17.7919 11.6332 17.8268 11.6833 17.8536 11.7183 17.872L11.7593 17.8933 11.7709 17.8991 11.7743 17.9009 11.7754 17.9014C11.7756 17.9015 11.7762 17.9018 11.9998 17.4546L11.7754 17.9014C11.9196 17.9735 12.0905 17.972 12.2331 17.8968 13.2552 17.3575 14.1896 16.6686 15.0059 15.854L17.5761 18.4242C17.8104 18.6585 18.1903 18.6585 18.4247 18.4242 18.659 18.1899 18.659 17.81 18.4247 17.5756L6.42465 5.57564ZM14.2988 15.1469L8.13613 8.98417V12C8.13613 13.4132 9.08617 14.6499 10.1472 15.5783 10.6672 16.0333 11.1896 16.3927 11.583 16.6385 11.7489 16.7422 11.8909 16.8252 11.9989 16.886 12.8418 16.4138 13.6156 15.8286 14.2988 15.1469ZM11.8255 6.0769C11.9385 6.0347 12.063 6.03478 12.176 6.07715L16.5396 7.71351C16.7347 7.78669 16.864 7.97325 16.864 8.18168V12.0032C16.8613 12.4223 16.7967 12.8387 16.6725 13.239 16.5906 13.5027 16.3104 13.6502 16.0467 13.5683 15.783 13.4864 15.6356 13.2063 15.7174 12.9425 15.8124 12.6367 15.8618 12.3184 15.864 11.9982V8.52818L12 7.07917 10.4517 7.65736C10.193 7.75396 9.90495 7.62256 9.80835 7.36386 9.71175 7.10517 9.84315 6.81714 10.1018 6.72054L11.8255 6.0769Z"/>
	</svg>
	