<?xml version="1.0"?>
	<svg xmlns="http://www.w3.org/2000/svg" 
		width="24" 
		height="24" 
		viewbox="0 0 24 24" 
		code="82790" 
		 transform=""
		><path d="M11.8244 6.53184C11.9376 6.48939 12.0624 6.48939 12.1756 6.53184L16.1756 8.03184C16.3707 8.10502 16.5 8.29158 16.5 8.5V12C16.5 13.7232 15.3591 15.1001 14.3293 16.0013 13.8038 16.4611 13.2807 16.8204 12.89 17.0646 12.6941 17.1871 12.5302 17.2814 12.414 17.3456 12.3559 17.3778 12.3097 17.4025 12.2773 17.4195L12.2394 17.4392 12.2286 17.4447 12.2254 17.4463 12.2243 17.4469C12.2243 17.4469 12.2236 17.4472 12 17 11.7764 17.4472 11.7761 17.4471 11.7761 17.4471L11.7746 17.4463 11.7714 17.4447 11.7606 17.4392 11.7227 17.4195C11.6903 17.4025 11.6441 17.3778 11.586 17.3456 11.4698 17.2814 11.3059 17.1871 11.11 17.0646 10.7193 16.8204 10.1962 16.4611 9.67075 16.0013 8.64087 15.1001 7.5 13.7232 7.5 12V8.5C7.5 8.29158 7.62929 8.10502 7.82444 8.03184L11.8244 6.53184ZM12 17L11.7761 17.4471C11.9168 17.5174 12.0836 17.5172 12.2243 17.4469L12 17ZM12 16.4314C12.0958 16.3771 12.2184 16.3052 12.36 16.2166 12.7193 15.9921 13.1962 15.6639 13.6707 15.2487 14.6409 14.3999 15.5 13.2768 15.5 12V8.8465L12 7.534 8.5 8.8465V12C8.5 13.2768 9.35913 14.3999 10.3293 15.2487 10.8038 15.6639 11.2807 15.9921 11.64 16.2166 11.7816 16.3052 11.9042 16.3771 12 16.4314Z"/>
	</svg>
	