<?xml version="1.0"?>
	<svg xmlns="http://www.w3.org/2000/svg" 
		width="32" 
		height="32" 
		viewbox="0 0 32 32" 
		code="82792" 
		 transform=""
		><path d="M23.9682 15.8145C22.6861 12.4227 19.5532 10.1367 16 10 12.4468 10.1367 9.31393 12.4227 8.03177 15.8145 7.98941 15.9344 7.98941 16.0656 8.03177 16.1855 9.31393 19.5773 12.4468 21.8633 16 22 19.5532 21.8633 22.6861 19.5773 23.9682 16.1855 24.0106 16.0656 24.0106 15.9344 23.9682 15.8145ZM15.9997 20.9093C13.173 20.9093 10.1862 18.7657 9.10352 16.0002 10.1862 13.2347 13.173 11.0911 15.9997 11.0911 18.8265 11.0911 21.8132 13.2347 22.8959 16.0002 21.8132 18.7657 18.8265 20.9093 15.9997 20.9093ZM15.9999 12.727C14.2325 12.727 12.7998 14.1923 12.7998 15.9998 12.7998 17.8072 14.2325 19.2725 15.9999 19.2725 17.7673 19.2725 19.2 17.8072 19.2 15.9998 19.2 14.1923 17.7673 12.727 15.9999 12.727ZM15.9996 18.1818C14.8214 18.1818 13.8662 17.2049 13.8662 15.9999 13.8662 14.795 14.8214 13.8181 15.9996 13.8181 17.1778 13.8181 18.133 14.795 18.133 15.9999 18.133 16.5786 17.9082 17.1335 17.5081 17.5427 17.1081 17.9519 16.5654 18.1818 15.9996 18.1818Z"/>
	</svg>
	