<?xml version="1.0"?>
	<svg xmlns="http://www.w3.org/2000/svg" 
		width="32" 
		height="32" 
		viewbox="0 0 32 32" 
		code="82793" 
		 transform=""
		><path d="M11.5 9.5C11.5 9.22386 11.2761 9 11 9 10.7239 9 10.5 9.22386 10.5 9.5V22.5C10.5 22.7761 10.7239 23 11 23 11.2761 23 11.5 22.7761 11.5 22.5L11.5 9.5ZM13.5 16C13.5 15.7239 13.7239 15.5 14 15.5H19.2578L17.6113 13.8536C17.4161 13.6583 17.4161 13.3417 17.6113 13.1464 17.8066 12.9512 18.1232 12.9512 18.3184 13.1464L20.8184 15.6464C21.0137 15.8417 21.0137 16.1583 20.8184 16.3536L18.3184 18.8536C18.1232 19.0488 17.8066 19.0488 17.6113 18.8536 17.4161 18.6583 17.4161 18.3417 17.6113 18.1464L19.2578 16.5H14C13.7239 16.5 13.5 16.2761 13.5 16Z"/>
	</svg>
	