<?xml version="1.0"?>
	<svg xmlns="http://www.w3.org/2000/svg" 
		width="32" 
		height="32" 
		viewbox="0 0 32 32" 
		code="82795" 
		 transform=""
		><path d="M16.5002 9.5C16.5002 9.22386 16.2764 9 16.0002 9 15.7241 9 15.5002 9.22386 15.5002 9.5L15.5002 22.5C15.5002 22.7761 15.7241 23 16.0002 23 16.2764 23 16.5002 22.7761 16.5002 22.5L16.5002 9.5ZM13.8538 15.6464C14.0491 15.8417 14.0491 16.1583 13.8538 16.3536L11.3538 18.8536C11.1585 19.0488 10.8419 19.0488 10.6467 18.8536 10.4514 18.6583 10.4514 18.3417 10.6467 18.1464L12.2931 16.5 8.5 16.5C8.22386 16.5 8 16.2761 8 16 8 15.7239 8.22386 15.5 8.5 15.5L12.2931 15.5 10.6467 13.8536C10.4514 13.6583 10.4514 13.3417 10.6467 13.1464 10.8419 12.9512 11.1585 12.9512 11.3538 13.1464L13.8538 15.6464ZM18.1467 15.6464C17.9514 15.8417 17.9514 16.1583 18.1467 16.3536L20.6467 18.8536C20.8419 19.0488 21.1585 19.0488 21.3538 18.8536 21.5491 18.6583 21.5491 18.3417 21.3538 18.1464L19.7073 16.5 23.5005 16.5C23.7766 16.5 24.0005 16.2761 24.0005 16 24.0005 15.7239 23.7766 15.5 23.5005 15.5L19.7073 15.5 21.3538 13.8536C21.5491 13.6583 21.5491 13.3417 21.3538 13.1464 21.1585 12.9512 20.8419 12.9512 20.6467 13.1464L18.1467 15.6464Z"/>
	</svg>
	