<?xml version="1.0"?>
	<svg xmlns="http://www.w3.org/2000/svg" 
		width="32" 
		height="32" 
		viewbox="0 0 32 32" 
		code="82794" 
		 transform=""
		><path d="M21.5 9.5C21.5 9.22386 21.2761 9 21 9 20.7239 9 20.5 9.22386 20.5 9.5L20.5 22.5C20.5 22.7761 20.7239 23 21 23 21.2761 23 21.5 22.7761 21.5 22.5L21.5 9.5ZM11.1464 16.3536C10.9512 16.1583 10.9512 15.8417 11.1464 15.6464L13.6464 13.1464C13.8417 12.9512 14.1583 12.9512 14.3536 13.1464 14.5488 13.3417 14.5488 13.6583 14.3536 13.8536L12.7071 15.5H18C18.2761 15.5 18.5 15.7239 18.5 16 18.5 16.2761 18.2761 16.5 18 16.5H12.7071L14.3536 18.1464C14.5488 18.3417 14.5488 18.6583 14.3536 18.8536 14.1583 19.0488 13.8417 19.0488 13.6464 18.8536L11.1464 16.3536Z"/>
	</svg>
	