<?xml version="1.0"?>
	<svg xmlns="http://www.w3.org/2000/svg" 
		width="30" 
		height="30" 
		viewbox="0 0 30 30" 
		code="81073" 
		 transform=""
		><path d="M14.7047461 15.7121289L15.0435059 16.391582C15.1466455 16.5937451 15.24 16.7715039 15.3235547 16.9246094 15.4907813 17.2314648 15.7167773 17.5857227 16.0013086 17.987207 16.2856641 18.3888672 16.5701953 18.704043 16.8543164 18.9326172 17.1386133 19.1614258 17.4899414 19.3564844 17.9082422 19.5181445 18.2568262 19.6531055 18.6304346 19.7318734 19.0293726 19.7543804L19.2717773 19.7611328 23.5544531 19.7611328 23.5544531 16.5488477C23.5544531 16.3928711 23.6045508 16.2645508 23.7048047 16.1642969 23.805 16.0638672 23.9333789 16.0139453 24.0893555 16.0139453 24.1965117 16.0139453 24.303668 16.0493828 24.4108242 16.1206178L24.4911914 16.1807617 29.8272656 21.5169531C29.9279297 21.6171484 29.9780273 21.745293 29.9780273 21.9015039 29.9780273 22.0266133 29.9459648 22.1334977 29.8818098 22.222787L29.8276758 22.2864648 24.4742578 27.6394727C24.3744141 27.7397266 24.2460938 27.7898242 24.089707 27.7898242 23.9449219 27.7898242 23.8194141 27.7369141 23.7135352 27.6309766 23.628832 27.5462734 23.5780289 27.4490078 23.5610958 27.3392697L23.5547461 27.2546289 23.5547461 24.0425781 22.3787972 24.0488325 22.3787972 24.0488325 20.7771094 24.067832C20.4651563 24.0730469 20.0580469 24.067832 19.5563672 24.0510156L19.089796 24.0304232C18.8022786 24.0142253 18.5618359 23.9931055 18.3685547 23.967168L17.9884669 23.9112583C17.7823711 23.8784969 17.5522031 23.8386016 17.2979883 23.7919141 16.8743555 23.71375 16.5234375 23.610625 16.2438867 23.4823633L15.887737 23.3136611C15.6990141 23.221975 15.4942852 23.1192695 15.2733984 23.0054688 14.9054297 22.8162109 14.5764258 22.5928516 14.2864453 22.3365625 13.9965234 22.0799219 13.6897266 21.7815625 13.3664063 21.4414844 13.0429688 21.101582 12.7306641 20.7139844 12.429668 20.2791016 13.087793 19.2418164 13.8460547 17.7194922 14.7047461 15.7121289ZM24.0892969 1.02408203C24.1961719 1.02408203 24.3035344 1.05959453 24.4105744 1.13085953L24.4907812 1.19101563 29.8273242 6.52761719C29.9279883 6.62845703 29.9780859 6.75660156 29.9780859 6.9128125 29.9780859 7.03778125 29.9460234 7.14475 29.8816584 7.23398875L29.8273242 7.29759766 24.4739062 12.6506641C24.3740625 12.7510938 24.2457422 12.8011328 24.0893555 12.8011328 23.9445703 12.8011328 23.8190625 12.7482227 23.7131836 12.6422266 23.6284805 12.5575703 23.5776773 12.4602766 23.5607442 12.3505253L23.5543945 12.2658789 23.5543945 9.05388672 19.2721289 9.05388672C18.7365234 9.05388672 18.2514844 9.13755859 17.8167773 9.30484375 17.3816016 9.47195313 16.9970508 9.72314453 16.6621875 10.0577734 16.3277344 10.3922852 16.0431445 10.7352344 15.8091797 11.0865625 15.5749805 11.4378906 15.3238477 11.8700781 15.0561914 12.3830078 14.6992969 13.0744727 14.2644727 14.0280273 13.751543 15.2435547L13.1311752 16.6417135C13.0581517 16.804216 12.9890039 16.9571624 12.9237305 17.1005664 12.6952148 17.6023047 12.3939258 18.1877734 12.0204492 18.8571484 11.6467969 19.5262305 11.2898437 20.0836914 10.9498828 20.5298828 10.6098047 20.9757813 10.1969531 21.4389648 9.71191406 21.9182031 9.22675781 22.3978516 8.72496094 22.7798828 8.20623047 23.0644141 7.68779297 23.3487109 7.09376953 23.5829102 6.42462891 23.7670117 5.86691406 23.9204297 5.27839681 24.0100456 4.65873806 24.0356559L4.28320312 24.0433398 0.535898437 24.0433398C0.379921875 24.0433398 0.251542969 23.9932422 0.151113281 23.8929297 0.0708164062 23.8124453 0.0224320312 23.7142234 0.00629015625 23.5982641L0.000234375 23.5079688 0.000234375 20.2956836C0.000234375 20.1393555 0.0505664062 20.0113867 0.150703125 19.9111328 0.23090625 19.8306484 0.329071875 19.7827141 0.44511 19.7667597L0.535488281 19.7607813 4.28267578 19.7607813C4.81792969 19.7607813 5.30320312 19.6769922 5.73802734 19.5097656 6.17296875 19.3424805 6.55775391 19.0914648 6.89238281 18.7566016 7.22689453 18.4220898 7.51148437 18.0791992 7.745625 17.7278711 7.97964844 17.3766016 8.23078125 16.9442969 8.49837891 16.4313672L8.72185359 15.9850544C9.03231797 15.3480156 9.39277734 14.5431719 9.80326172 13.5707031L10.1929242 12.6888076C10.3545069 12.3255345 10.5006278 12.0004994 10.6313086 11.7136914 10.8599414 11.2118945 11.1611133 10.6263086 11.5345898 9.95716797 11.908125 9.28791016 12.2651367 8.73033203 12.6052148 8.284375 12.9451758 7.83830078 13.3579102 7.37529297 13.8430664 6.89587891 14.3282812 6.41623047 14.8300781 6.03431641 15.34875 5.74990234 15.8672461 5.46537109 16.4612109 5.23128906 17.1305273 5.04730469 17.688291 4.89398438 18.2768571 4.80438477 18.8965308 4.77877713L19.2720703 4.77109375 23.5543359 4.77109375 23.5543359 1.55933594C23.5543359 1.40318359 23.6044922 1.27503906 23.7043359 1.17466797 23.8049414 1.07417969 23.9329102 1.02408203 24.0892969 1.02408203ZM0.535253906 4.77144531L4.2825 4.77144531C7.07068359 4.77144531 9.35695312 6.02628906 11.1413672 8.53556641 10.472168 9.56160156 9.70839844 11.0839258 8.84947266 13.1025391L8.61711155 12.633227C8.47089193 12.3420117 8.34205078 12.0941211 8.23060547 11.8895898 8.06332031 11.5830859 7.83744141 11.2288867 7.55308594 10.8272266 7.26867187 10.4258008 6.98431641 10.1108594 6.69990234 9.88210938 6.41554687 9.65335938 6.06427734 9.45830078 5.64597656 9.29646484 5.29739258 9.16160156 4.92374349 9.08293132 4.52489366 9.0604541L4.28255859 9.05371094 0.535253906 9.05371094C0.379277344 9.05371094 0.250957031 9.00367188 0.15046875 8.90318359 0.070171875 8.82293359 0.02205 8.72498359 0.006013125 8.60900359L-1.09245946e-13 8.51863281-1.09245946e-13 5.30664063C-1.09245946e-13 5.15042969 0.0503320312 5.02228516 0.15046875 4.92203125 0.230671875 4.84164063 0.3288375 4.7935 0.444875625 4.77745938L0.535253906 4.77144531Z"/>
	</svg>
	