<?xml version="1.0"?>
	<svg xmlns="http://www.w3.org/2000/svg" 
		width="30" 
		height="30" 
		viewbox="0 0 30 30" 
		code="81075" 
		 transform=""
		><path d="M17.75 4C23.96225 4 29 9.036625 29 15.25 29 21.463375 23.96225 26.5 17.75 26.5 15.87365 26.5 14.10902 26.03548 12.554894 25.2235173L12.225125 25.04425 14.051 23.445625C15.1805 23.9575 16.430375 24.25 17.75 24.25 22.712375 24.25 26.75 20.212375 26.75 15.25 26.75 10.287625 22.712375 6.25 17.75 6.25 16.5623375 6.25 15.4311725 6.486925 14.3934106 6.908287L14.051 7.0555 12.225125 5.456875C13.8575 4.53325 15.739625 4 17.75 4ZM11 7.375L20 15.25 11 23.125 11 18.625 2 18.625 2 11.875 11 11.875 11 7.375Z"/>
	</svg>
	