<?xml version="1.0"?>
	<svg xmlns="http://www.w3.org/2000/svg" 
		width="32" 
		height="32" 
		viewbox="0 0 32 32" 
		code="82796" 
		 transform=""
		><path d="M19.3536 10.6464C19.5488 10.8417 19.5488 11.1583 19.3536 11.3536L16.495 14.2121C16.2216 14.4855 15.7784 14.4855 15.505 14.2121L12.6464 11.3536C12.4512 11.1583 12.4512 10.8417 12.6464 10.6464 12.8417 10.4512 13.1583 10.4512 13.3536 10.6464L16 13.2929 18.6464 10.6464C18.8417 10.4512 19.1583 10.4512 19.3536 10.6464ZM15.505 17.7879C15.7784 17.5145 16.2216 17.5145 16.495 17.7879L19.3536 20.6464C19.5488 20.8417 19.5488 21.1583 19.3536 21.3536 19.1583 21.5488 18.8417 21.5488 18.6464 21.3536L16 18.7071 13.3536 21.3536C13.1583 21.5488 12.8417 21.5488 12.6464 21.3536 12.4512 21.1583 12.4512 20.8417 12.6464 20.6464L15.505 17.7879Z"/>
	</svg>
	