<?xml version="1.0"?>
	<svg xmlns="http://www.w3.org/2000/svg" 
		width="32" 
		height="32" 
		viewbox="0 0 32 32" 
		code="82798" 
		 transform=""
		><path d="M21.5004 13.49V11.5H23.5004C23.7765 11.5 24.0004 11.2761 24.0004 11 24.0058 10.864 23.9556 10.7316 23.8612 10.6334 23.7669 10.5353 23.6365 10.4799 23.5004 10.48H21.5004V8.5C21.5004 8.22386 21.2765 8 21.0004 8 20.7243 8 20.5004 8.22386 20.5004 8.5V10.48H12.0004C11.5991 10.48 11.2145 10.6407 10.9326 10.9264 10.6507 11.212 10.495 11.5987 10.5004 12V20.48H8.5004C8.36425 20.4799 8.23395 20.5353 8.13958 20.6334 8.04522 20.7316 7.99495 20.864 8.0004 21 8.0004 21.2761 8.22426 21.5 8.5004 21.5H10.5004V23.5C10.5004 23.7761 10.7243 24 11.0004 24 11.2743 23.9947 11.4951 23.7739 11.5004 23.5V21.5H13.5004L13.4904 20.48H11.5004V12C11.5004 11.7239 11.7243 11.5 12.0004 11.5H20.5004V13.5L21.5004 13.49ZM20.5004 14.49V16.49H21.5004V14.49H20.5004ZM16.4904 20.48H14.4904V21.48H16.4904V20.48ZM20.5004 20V17.48H21.5004V20C21.5004 20.8284 20.8288 21.5 20.0004 21.5H17.4904V20.5H20.0004C20.2765 20.5 20.5004 20.2761 20.5004 20Z"/>
	</svg>
	