<?xml version="1.0"?>
	<svg xmlns="http://www.w3.org/2000/svg" 
		width="32" 
		height="32" 
		viewbox="0 0 32 32" 
		code="82797" 
		 transform=""
		><path d="M23.9919 9.41264C23.9493 9.17765 23.744 9 23.4964 9H9.49286L9.40541 9.00809C9.17778 9.05063 9 9.25577 9 9.50321V23.4968L9.0081 23.5874C9.05066 23.8223 9.25595 24 9.50357 24H23.5071L23.5946 23.9887C23.8222 23.9387 24 23.7335 24 23.4861V9.50321L23.9919 9.41264ZM10.3285 9.99564H23.0035V22.6723L22.995 22.7459C22.9617 22.8878 22.8342 22.9935 22.6821 22.9935H10.0071V10.3168L10.0156 10.2432C10.0489 10.1013 10.1763 9.99564 10.3285 9.99564ZM14.6468 17.7689C14.8503 17.5761 15.1611 17.5761 15.3539 17.7796 15.5227 17.9576 15.5438 18.2175 15.41 18.4089L15.3432 18.4862 12.7075 21.0237H14.4003C14.6789 21.0237 14.9039 21.2485 14.9039 21.5269 14.9039 21.7743 14.7261 21.9795 14.491 22.022L14.4003 22.0301H11.4646C11.3682 22.0301 11.2718 22 11.1889 21.9443L11.1111 21.8802 11.0789 21.8267C11.0468 21.7946 11.0253 21.7624 11.0039 21.7196L10.9785 21.654 10.9611 21.5804V18.6468C10.9611 18.3684 11.1861 18.1436 11.4646 18.1436 11.7123 18.1436 11.9175 18.3213 11.9601 18.5562L11.9682 18.6468V20.3385L14.6468 17.7689ZM21.795 11.0349C21.7398 10.9988 21.6755 10.9807 21.6112 10.9807H18.6755L18.5848 10.9888C18.3497 11.0314 18.1719 11.2365 18.1719 11.484 18.1719 11.7623 18.3969 11.9872 18.6755 11.9872H20.3683L17.7755 14.6638 17.7258 14.7388C17.6136 14.9475 17.6612 15.2182 17.8612 15.3705 17.9362 15.424 18.0433 15.4668 18.1398 15.4668 18.279 15.4668 18.4076 15.4133 18.504 15.3169L21.0648 12.6831V14.3855L21.0728 14.476C21.1154 14.711 21.3207 14.8887 21.5683 14.8887 21.8469 14.8887 22.0719 14.6638 22.0719 14.3855V11.4518L22.0576 11.388C22.0457 11.346 22.029 11.3055 22.0076 11.2698 21.9862 11.2056 21.9433 11.152 21.9005 11.1092L21.8469 11.0771 21.795 11.0349Z"/>
	</svg>
	