<?xml version="1.0"?>
	<svg xmlns="http://www.w3.org/2000/svg" 
		width="64" 
		height="64" 
		viewbox="0 0 64 64" 
		code="82800" 
		 transform=""
		><path d="M20.0515 37.2047H43.9485C46.6637 37.2047 48 35.9209 48 33.2698V23.9349C48 21.2977 46.6637 20 43.9485 20H20.0515C17.3505 20 16 21.2977 16 23.9349V33.2698C16 35.9209 17.3505 37.2047 20.0515 37.2047ZM20.08 35.5023C18.5162 35.5023 17.7628 34.7628 17.7628 33.2V24.0047C17.7628 22.4558 18.5162 21.7163 20.08 21.7163H43.9343C45.4838 21.7163 46.2372 22.4558 46.2372 24.0047V33.2C46.2372 34.7628 45.4838 35.5023 43.9343 35.5023H20.08ZM17.2084 44H20.2506C20.606 44 20.8761 43.7488 20.8761 43.4V40.4279C20.8761 40.0651 20.6202 39.814 20.2506 39.814H17.2084C16.8245 39.814 16.5686 40.0651 16.5686 40.4279V43.4C16.5686 43.7488 16.8245 44 17.2084 44ZM23.8472 44H26.8894C27.2448 44 27.5149 43.7488 27.5149 43.4V40.4279C27.5149 40.0651 27.259 39.814 26.8894 39.814H23.8472C23.4633 39.814 23.2075 40.0651 23.2075 40.4279V43.4C23.2075 43.7488 23.4776 44 23.8472 44ZM30.486 44H33.5282C33.8978 44 34.1537 43.7488 34.1537 43.4V40.4279C34.1537 40.0651 33.8978 39.814 33.5282 39.814H30.486C30.1022 39.814 29.8463 40.0651 29.8463 40.4279V43.4C29.8463 43.7488 30.1164 44 30.486 44ZM37.1248 44H40.1813C40.5367 44 40.7925 43.7488 40.7925 43.4V40.4279C40.7925 40.0651 40.5367 39.814 40.1813 39.814H37.1248C36.741 39.814 36.4851 40.0651 36.4851 40.4279V43.4C36.4851 43.7488 36.7552 44 37.1248 44ZM43.7637 44H46.8201C47.1755 44 47.4456 43.7488 47.4456 43.4V40.4279C47.4456 40.0651 47.1897 39.814 46.8201 39.814H43.7637C43.3798 39.814 43.1239 40.0651 43.1239 40.4279V43.4C43.1239 43.7488 43.394 44 43.7637 44Z"/>
	</svg>
	