<?xml version="1.0"?>
	<svg xmlns="http://www.w3.org/2000/svg" 
		width="64" 
		height="64" 
		viewbox="0 0 64 64" 
		code="82799" 
		 transform=""
		><path d="M43.9485 37.2047H20.0515C17.3505 37.2047 16 35.9209 16 33.2698V23.9349C16 21.2977 17.3505 20 20.0515 20H43.9485C46.6637 20 48 21.2977 48 23.9349V33.2698C48 35.9209 46.6637 37.2047 43.9485 37.2047ZM20.2506 44H17.2084C16.8245 44 16.5686 43.7488 16.5686 43.4V40.4279C16.5686 40.0651 16.8245 39.814 17.2084 39.814H20.2506C20.6202 39.814 20.8761 40.0651 20.8761 40.4279V43.4C20.8761 43.7488 20.606 44 20.2506 44ZM26.8894 44H23.8472C23.4776 44 23.2075 43.7488 23.2075 43.4V40.4279C23.2075 40.0651 23.4633 39.814 23.8472 39.814H26.8894C27.259 39.814 27.5149 40.0651 27.5149 40.4279V43.4C27.5149 43.7488 27.2448 44 26.8894 44ZM33.5282 44H30.486C30.1164 44 29.8463 43.7488 29.8463 43.4V40.4279C29.8463 40.0651 30.1022 39.814 30.486 39.814H33.5282C33.8978 39.814 34.1537 40.0651 34.1537 40.4279V43.4C34.1537 43.7488 33.8978 44 33.5282 44ZM40.1813 44H37.1248C36.7552 44 36.4851 43.7488 36.4851 43.4V40.4279C36.4851 40.0651 36.741 39.814 37.1248 39.814H40.1813C40.5367 39.814 40.7925 40.0651 40.7925 40.4279V43.4C40.7925 43.7488 40.5367 44 40.1813 44ZM46.8201 44H43.7637C43.394 44 43.1239 43.7488 43.1239 43.4V40.4279C43.1239 40.0651 43.3798 39.814 43.7637 39.814H46.8201C47.1897 39.814 47.4456 40.0651 47.4456 40.4279V43.4C47.4456 43.7488 47.1755 44 46.8201 44Z"/>
	</svg>
	