<?xml version="1.0"?>
	<svg xmlns="http://www.w3.org/2000/svg" 
		width="24" 
		height="24" 
		viewbox="0 0 24 24" 
		code="82801" 
		 transform=""
		><path d="M6.68814 14.1686H16.6452C17.7765 14.1686 18.3333 13.6337 18.3333 12.5291V8.63953C18.3333 7.5407 17.7765 7 16.6452 7H6.68814C5.56271 7 5 7.5407 5 8.63953V12.5291C5 13.6337 5.56271 14.1686 6.68814 14.1686ZM6.69999 13.4593C6.04842 13.4593 5.73449 13.1512 5.73449 12.5V8.6686C5.73449 8.02326 6.04842 7.71512 6.69999 7.71512H16.6393C17.2849 7.71512 17.5988 8.02326 17.5988 8.6686V12.5C17.5988 13.1512 17.2849 13.4593 16.6393 13.4593H6.69999ZM5.50348 17H6.77106C6.91915 17 7.03169 16.8953 7.03169 16.75V15.5116C7.03169 15.3605 6.92507 15.2558 6.77106 15.2558H5.50348C5.34355 15.2558 5.23693 15.3605 5.23693 15.5116V16.75C5.23693 16.8953 5.34355 17 5.50348 17ZM8.26966 17H9.53724C9.68532 17 9.79787 16.8953 9.79787 16.75V15.5116C9.79787 15.3605 9.69125 15.2558 9.53724 15.2558H8.26966C8.10973 15.2558 8.00311 15.3605 8.00311 15.5116V16.75C8.00311 16.8953 8.11565 17 8.26966 17ZM11.0358 17H12.3034C12.4574 17 12.564 16.8953 12.564 16.75V15.5116C12.564 15.3605 12.4574 15.2558 12.3034 15.2558H11.0358C10.8759 15.2558 10.7693 15.3605 10.7693 15.5116V16.75C10.7693 16.8953 10.8818 17 11.0358 17ZM13.802 17H15.0755C15.2236 17 15.3302 16.8953 15.3302 16.75V15.5116C15.3302 15.3605 15.2236 15.2558 15.0755 15.2558H13.802C13.6421 15.2558 13.5355 15.3605 13.5355 15.5116V16.75C13.5355 16.8953 13.648 17 13.802 17ZM16.5682 17H17.8417C17.9898 17 18.1023 16.8953 18.1023 16.75V15.5116C18.1023 15.3605 17.9957 15.2558 17.8417 15.2558H16.5682C16.4083 15.2558 16.3016 15.3605 16.3016 15.5116V16.75C16.3016 16.8953 16.4142 17 16.5682 17Z"/>
	</svg>
	