<?xml version="1.0"?>
	<svg xmlns="http://www.w3.org/2000/svg" 
		width="32" 
		height="32" 
		viewbox="0 0 32 32" 
		code="82802" 
		 transform=""
		><path d="M10 16C10 12.6863 12.6863 10 16 10 19.3137 10 22 12.6863 22 16 22 19.3137 19.3137 22 16 22 12.6863 22 10 19.3137 10 16ZM16 9C12.134 9 9 12.134 9 16 9 19.866 12.134 23 16 23 19.866 23 23 19.866 23 16 23 12.134 19.866 9 16 9ZM18.75 15.252C19.2333 15.252 19.625 14.8602 19.625 14.377 19.625 13.8937 19.2333 13.502 18.75 13.502 18.2667 13.502 17.875 13.8937 17.875 14.377 17.875 14.8602 18.2667 15.252 18.75 15.252ZM12.2537 17.4041C12.1176 17.0926 12.3671 16.771 12.707 16.771 12.9299 16.771 13.1244 16.9148 13.2218 17.1154 13.7218 18.1453 14.7778 18.8553 15.9996 18.8553 17.2213 18.8553 18.2773 18.1453 18.7773 17.1154 18.8748 16.9148 19.0692 16.771 19.2922 16.771 19.6322 16.771 19.8816 17.0926 19.7455 17.4041 19.1149 18.847 17.6749 19.8553 15.9996 19.8553 14.3242 19.8553 12.8843 18.847 12.2537 17.4041ZM14.125 14.377C14.125 14.8602 13.7333 15.252 13.25 15.252 12.7667 15.252 12.375 14.8602 12.375 14.377 12.375 13.8937 12.7667 13.502 13.25 13.502 13.7333 13.502 14.125 13.8937 14.125 14.377Z"/>
	</svg>
	