<?xml version="1.0"?>
	<svg xmlns="http://www.w3.org/2000/svg" 
		width="30" 
		height="30" 
		viewbox="0 0 30 30" 
		code="81080" 
		 transform=""
		><path d="M2.55555556 24.6666667L8.77777778 24.6666667C9.63333333 24.6666667 10.3333333 23.9666667 10.3333333 23.1111111 10.3333333 22.2555556 9.63333333 21.5555556 8.77777778 21.5555556L2.55555556 21.5555556C1.7 21.5555556 1 22.2555556 1 23.1111111 1 23.9666667 1.7 24.6666667 2.55555556 24.6666667ZM1 7.55555556C1 8.41111111 1.7 9.11111111 2.55555556 9.11111111L27.4444444 9.11111111C28.3 9.11111111 29 8.41111111 29 7.55555556 29 6.7 28.3 6 27.4444444 6L2.55555556 6C1.7 6 1 6.7 1 7.55555556ZM2.55555556 16.8888889L18.1111111 16.8888889C18.9666667 16.8888889 19.6666667 16.1888889 19.6666667 15.3333333 19.6666667 14.4777778 18.9666667 13.7777778 18.1111111 13.7777778L2.55555556 13.7777778C1.7 13.7777778 1 14.4777778 1 15.3333333 1 16.1888889 1.7 16.8888889 2.55555556 16.8888889Z"/>
	</svg>
	