<?xml version="1.0"?>
	<svg xmlns="http://www.w3.org/2000/svg" 
		width="32" 
		height="32" 
		viewbox="0 0 32 32" 
		code="82805" 
		 transform=""
		><path d="M16.8077 13.0095C16.6982 13.1021 16.6092 13.1483 16.4998 13.1483 16.3903 13.1483 16.3013 13.1087 16.1918 13.0095L13.8652 10.8683C13.7625 10.7757 13.7009 10.6832 13.7009 10.551 13.7009 10.3396 13.8583 10.1875 14.091 10.1875 14.2005 10.1875 14.3031 10.2272 14.3853 10.3065L15.2201 11.1194 16.1165 12.005 16.0823 10.7823V8.38993C16.0823 8.17844 16.2739 8 16.4998 8 16.7256 8 16.9172 8.17844 16.9172 8.38993V10.7823L16.883 12.005 17.7726 11.1194 18.6143 10.3065C18.6895 10.2272 18.7922 10.1875 18.9017 10.1875 19.1343 10.1875 19.2986 10.3396 19.2986 10.551 19.2986 10.6832 19.2301 10.7757 19.1275 10.8683L16.8077 13.0095ZM24 16.2747C24 17.2594 23.213 17.9864 22.1045 17.9864H10.8955C9.78695 17.9864 9 17.2594 9 16.2747V15.7262C9 14.7348 9.78695 14.0078 10.8955 14.0078H22.1045C23.213 14.0078 24 14.7348 24 15.7262V16.2747ZM21.8916 17H11.115C10.4474 17 10 16.625 10 16.1141V15.8859C10 15.375 10.4474 15 11.115 15H21.8916C22.5593 15 23 15.375 23 15.8859V16.1141C23 16.625 22.5593 17 21.8916 17ZM16.9174 23.6036C16.9174 23.8151 16.7258 24.0002 16.5 24.0002 16.2742 24.0002 16.0826 23.8151 16.0826 23.6036V21.2178L16.1168 19.9886 15.2203 20.8742 14.3855 21.687C14.3034 21.7664 14.2007 21.806 14.0912 21.806 13.8586 21.806 13.7012 21.6606 13.7012 21.4425 13.7012 21.3103 13.7628 21.2178 13.8654 21.1253L16.192 18.984C16.3015 18.8849 16.3905 18.8518 16.5 18.8518 16.6095 18.8518 16.6984 18.8915 16.8079 18.984L19.1277 21.1253C19.2304 21.2178 19.2988 21.3103 19.2988 21.4425 19.2988 21.6606 19.1346 21.806 18.9019 21.806 18.7924 21.806 18.6898 21.7664 18.6145 21.687L17.7728 20.8742 16.8832 19.9886 16.9174 21.2178V23.6036Z"/>
	</svg>
	