<?xml version="1.0"?>
	<svg xmlns="http://www.w3.org/2000/svg" 
		width="32" 
		height="32" 
		viewbox="0 0 32 32" 
		code="82803" 
		 transform=""
		><path d="M22.5 9C22.7761 9 23 9.22386 23 9.5 23 9.77614 22.7761 10 22.5 10H9.5C9.22386 10 9 9.77614 9 9.5 9 9.22386 9.22386 9 9.5 9L22.5 9ZM13 14C12.4477 14 12 13.5523 12 13 12 12.4477 12.4477 12 13 12H19C19.5523 12 20 12.4477 20 13 20 13.5523 19.5523 14 19 14H13ZM13 19C12.4477 19 12 18.5523 12 18 12 17.4477 12.4477 17 13 17H19C19.5523 17 20 17.4477 20 18 20 18.5523 19.5523 19 19 19H13ZM23 21.5C23 21.2239 22.7761 21 22.5 21L9.5 21C9.22386 21 9 21.2239 9 21.5 9 21.7761 9.22386 22 9.5 22L22.5 22C22.7761 22 23 21.7761 23 21.5Z"/>
	</svg>
	