<?xml version="1.0"?>
	<svg xmlns="http://www.w3.org/2000/svg" 
		width="32" 
		height="32" 
		viewbox="0 0 32 32" 
		code="82804" 
		 transform=""
		><path d="M8 9.5C8 9.22386 8.22386 9 8.5 9H11.4531C11.7293 9 11.9531 9.22386 11.9531 9.5V22.5C11.9531 22.7761 11.7293 23 11.4531 23H8.5C8.22386 23 8 22.7761 8 22.5 8 22.2239 8.22386 22 8.5 22H10.9531V10H8.5C8.22386 10 8 9.77614 8 9.5ZM24 9.5C24 9.22386 23.7761 9 23.5 9H20.5469C20.2707 9 20.0469 9.22386 20.0469 9.5V22.5C20.0469 22.7761 20.2707 23 20.5469 23H23.5C23.7761 23 24 22.7761 24 22.5 24 22.2239 23.7761 22 23.5 22H21.0469V10H23.5C23.7761 10 24 9.77614 24 9.5ZM16.4814 12.5C16.4814 12.2239 16.2576 12 15.9814 12 15.7053 12 15.4814 12.2239 15.4814 12.5L15.4814 19.5C15.4814 19.7761 15.7053 20 15.9814 20 16.2576 20 16.4814 19.7761 16.4814 19.5V12.5Z"/>
	</svg>
	