<?xml version="1.0"?>
	<svg xmlns="http://www.w3.org/2000/svg" 
		width="32" 
		height="32" 
		viewbox="0 0 32 32" 
		code="82807" 
		 transform=""
		><path d="M15.9999 8C16.276 8 16.4999 8.22386 16.4999 8.5L16.4999 10.5C16.4999 10.7761 16.276 11 15.9999 11 15.7237 11 15.4999 10.7761 15.4999 10.5L15.4999 8.5C15.4999 8.22386 15.7237 8 15.9999 8ZM16.0003 24.0001C16.2765 24.0001 16.5003 23.7763 16.5003 23.5001L16.5003 21.5001C16.5003 21.224 16.2765 21.0001 16.0003 21.0001 15.7242 21.0001 15.5003 21.224 15.5003 21.5001L15.5003 23.5001C15.5003 23.7763 15.7242 24.0001 16.0003 24.0001ZM8.5 16.6002C8.22386 16.6002 8 16.3763 8 16.1002 8 15.824 8.22386 15.6002 8.5 15.6002L10.5 15.6002C10.7761 15.6002 11 15.8241 11 16.1002 11 16.3763 10.7761 16.6002 10.5 16.6002L8.5 16.6002ZM23.9996 16.1002C23.9996 16.3763 23.7758 16.6002 23.4996 16.6002L21.4996 16.6002C21.2235 16.6002 20.9996 16.3763 20.9996 16.1002 20.9996 15.8241 21.2235 15.6002 21.4996 15.6002L23.4996 15.6002C23.7758 15.6002 23.9996 15.824 23.9996 16.1002ZM12.4889 12.0889C12.2127 12.0889 11.9889 12.3128 11.9889 12.5889V19.6112C11.9889 19.8874 12.2127 20.1112 12.4889 20.1112H19.5111C19.7873 20.1112 20.0111 19.8874 20.0111 19.6112V12.5889C20.0111 12.3128 19.7873 12.0889 19.5111 12.0889H12.4889ZM12.9889 19.1112V13.0889H19.0111V19.1112H12.9889Z"/>
	</svg>
	