<?xml version="1.0"?>
	<svg xmlns="http://www.w3.org/2000/svg" 
		width="32" 
		height="32" 
		viewbox="0 0 32 32" 
		code="82806" 
		 transform=""
		><path d="M21.9814 8C22.2576 8 22.4814 8.22386 22.4814 8.5V11.4531C22.4814 11.7293 22.2576 11.9531 21.9814 11.9531L8.98145 11.9531C8.7053 11.9531 8.48145 11.7293 8.48145 11.4531L8.48145 8.5C8.48145 8.22386 8.7053 8 8.98145 8 9.25759 8 9.48145 8.22386 9.48145 8.5L9.48145 10.9531 21.4814 10.9531V8.5C21.4814 8.22386 21.7053 8 21.9814 8ZM21.9814 24C22.2576 24 22.4814 23.7761 22.4814 23.5V20.5469C22.4814 20.2707 22.2576 20.0469 21.9814 20.0469L8.98145 20.0469C8.7053 20.0469 8.48145 20.2707 8.48145 20.5469L8.48145 23.5C8.48145 23.7761 8.7053 24 8.98145 24 9.25759 24 9.48145 23.7761 9.48145 23.5L9.48145 21.0469 21.4814 21.0469V23.5C21.4814 23.7761 21.7053 24 21.9814 24ZM18.9814 16.4814C19.2576 16.4814 19.4814 16.2576 19.4814 15.9814 19.4814 15.7053 19.2576 15.4814 18.9814 15.4814L11.9814 15.4814C11.7053 15.4814 11.4814 15.7053 11.4814 15.9814 11.4814 16.2576 11.7053 16.4814 11.9814 16.4814H18.9814Z"/>
	</svg>
	