<?xml version="1.0"?>
	<svg xmlns="http://www.w3.org/2000/svg" 
		width="32" 
		height="32" 
		viewbox="0 0 32 32" 
		code="82808" 
		 transform=""
		><path d="M16.9781 10.3524C16.9134 10.1429 16.7197 10 16.5004 10 16.2811 10 16.0874 10.1429 16.0227 10.3524L14.7151 14.5838H10.5C10.2856 14.5838 10.0951 14.7205 10.0264 14.9236 9.95769 15.1267 10.0261 15.351 10.1965 15.4811L13.6278 18.1024 12.3143 22.3529C12.25 22.5607 12.3275 22.7862 12.5059 22.9106 12.6843 23.0351 12.9227 23.0299 13.0955 22.8979L16.5004 20.2968 19.9053 22.8979C20.0781 23.0299 20.3165 23.0351 20.4949 22.9106 20.6733 22.7862 20.7508 22.5607 20.6865 22.3529L19.373 18.1024 22.8043 15.4811C22.9747 15.351 23.0431 15.1267 22.9744 14.9236 22.9057 14.7205 22.7152 14.5838 22.5008 14.5838H18.2857L16.9781 10.3524Z"/>
	</svg>
	