<?xml version="1.0"?>
	<svg xmlns="http://www.w3.org/2000/svg" 
		width="32" 
		height="32" 
		viewbox="0 0 32 32" 
		code="82809" 
		 transform=""
		><path d="M16.5 10C16.7107 10 16.8975 10.1421 16.9626 10.352L18.273 14.5764H22.5136C22.7243 14.5764 22.911 14.7185 22.9762 14.9284 23.0413 15.1383 22.9699 15.3683 22.7995 15.498L19.3688 18.1088 20.6792 22.3331C20.7443 22.543 20.673 22.773 20.5025 22.9027 20.332 23.0324 20.1012 23.0324 19.9307 22.9027L16.5 20.2919 13.0693 22.9027C12.8988 23.0324 12.668 23.0324 12.4975 22.9027 12.327 22.773 12.2557 22.543 12.3208 22.3331L13.6312 18.1088 10.2005 15.498C10.0301 15.3683 9.95872 15.1383 10.0238 14.9284 10.089 14.7185 10.2757 14.5764 10.4864 14.5764H14.727L16.0374 10.352C16.1025 10.1421 16.2893 10 16.5 10ZM16.5 12.1581L15.543 15.2433C15.4779 15.4532 15.2911 15.5953 15.0804 15.5953H11.9834L14.4889 17.502C14.6594 17.6317 14.7307 17.8617 14.6656 18.0716L13.7086 21.1568 16.2141 19.25C16.3846 19.1203 16.6154 19.1203 16.7859 19.25L19.2914 21.1568 18.3344 18.0716C18.2693 17.8617 18.3406 17.6317 18.5111 17.502L21.0166 15.5953H17.9196C17.7089 15.5953 17.5221 15.4532 17.457 15.2433L16.5 12.1581Z"/>
	</svg>
	