<?xml version="1.0"?>
	<svg xmlns="http://www.w3.org/2000/svg" 
		width="32" 
		height="32" 
		viewbox="0 0 32 32" 
		code="82811" 
		 transform=""
		><path d="M22 11C22.2761 11 22.5 10.7761 22.5 10.5 22.5 10.2239 22.2761 10 22 10L10 10C9.72386 10 9.5 10.2239 9.5 10.5 9.5 10.7761 9.72386 11 10 11L22 11ZM22.5 16C22.5 16.2761 22.2761 16.5 22 16.5L10 16.5C9.72386 16.5 9.5 16.2761 9.5 16 9.5 15.7238 9.72386 15.5 10 15.5L22 15.5C22.2761 15.5 22.5 15.7238 22.5 16ZM22.5 21.5C22.5 21.7761 22.2761 22 22 22L10 22C9.72386 22 9.5 21.7761 9.5 21.5 9.5 21.2238 9.72386 21 10 21L22 21C22.2761 21 22.5 21.2238 22.5 21.5Z"/>
	</svg>
	