<?xml version="1.0"?>
	<svg xmlns="http://www.w3.org/2000/svg" 
		width="32" 
		height="32" 
		viewbox="0 0 32 32" 
		code="82812" 
		 transform=""
		><path d="M9.5 9C9.22386 9 9 9.22386 9 9.5 9 9.77614 9.22386 10 9.5 10H22.5C22.7761 10 23 9.77614 23 9.5 23 9.22386 22.7761 9 22.5 9H9.5ZM15.6 20C15.0399 20 14.7599 20 14.546 19.891 14.3578 19.7951 14.2049 19.6422 14.109 19.454 14 19.2401 14 18.9601 14 18.4L14 12.6C14 12.0399 14 11.7599 14.109 11.546 14.2049 11.3578 14.3578 11.2049 14.546 11.109 14.7599 11 15.0399 11 15.6 11H16.4C16.9601 11 17.2401 11 17.454 11.109 17.6422 11.2049 17.7951 11.3578 17.891 11.546 18 11.7599 18 12.0399 18 12.6V18.4C18 18.9601 18 19.2401 17.891 19.454 17.7951 19.6422 17.6422 19.7951 17.454 19.891 17.2401 20 16.9601 20 16.4 20H15.6ZM9 21.5C9 21.2239 9.22386 21 9.5 21H22.5C22.7761 21 23 21.2239 23 21.5 23 21.7761 22.7761 22 22.5 22H9.5C9.22386 22 9 21.7761 9 21.5Z"/>
	</svg>
	