<?xml version="1.0"?>
	<svg xmlns="http://www.w3.org/2000/svg" 
		width="32" 
		height="32" 
		viewbox="0 0 32 32" 
		code="82810" 
		 transform=""
		><path d="M11 10C11 9.72386 10.7761 9.5 10.5 9.5 10.2239 9.5 10 9.72386 10 10L10 22C10 22.2761 10.2239 22.5 10.5 22.5 10.7761 22.5 11 22.2761 11 22L11 10ZM16 9.5C16.2761 9.5 16.5 9.72386 16.5 10L16.5 22C16.5 22.2761 16.2761 22.5 16 22.5 15.7238 22.5 15.5 22.2761 15.5 22L15.5 10C15.5 9.72386 15.7238 9.5 16 9.5ZM21.5 9.5C21.7761 9.5 22 9.72386 22 10L22 22C22 22.2761 21.7761 22.5 21.5 22.5 21.2238 22.5 21 22.2761 21 22L21 10C21 9.72386 21.2238 9.5 21.5 9.5Z"/>
	</svg>
	