<?xml version="1.0"?>
	<svg xmlns="http://www.w3.org/2000/svg" 
		width="32" 
		height="32" 
		viewbox="0 0 32 32" 
		code="82813" 
		 transform=""
		><path d="M9.5 23C9.22386 23 9 22.7761 9 22.5V9.5C9 9.22386 9.22386 9 9.5 9 9.77614 9 10 9.22386 10 9.5L10 22.5C10 22.7761 9.77614 23 9.5 23ZM19.5 15C20.0523 15 20.5 14.5523 20.5 14 20.5 13.4477 20.0523 13 19.5 13L12.5 13C11.9477 13 11.5 13.4477 11.5 14 11.5 14.5523 11.9477 15 12.5 15L19.5 15ZM18.5 19C19.0523 19 19.5 18.5523 19.5 18 19.5 17.4477 19.0523 17 18.5 17L13.5 17C12.9477 17 12.5 17.4477 12.5 18 12.5 18.5523 12.9477 19 13.5 19L18.5 19ZM22 22.5C22 22.7761 22.2239 23 22.5 23 22.7761 23 23 22.7761 23 22.5L23 9.5C23 9.22386 22.7761 9 22.5 9 22.2239 9 22 9.22386 22 9.5L22 22.5Z"/>
	</svg>
	