<?xml version="1.0"?>
	<svg xmlns="http://www.w3.org/2000/svg" 
		width="32" 
		height="32" 
		viewbox="0 0 32 32" 
		code="82814" 
		 transform=""
		><path d="M9 9.5C9 9.22386 9.22386 9 9.5 9H22.5C22.7761 9 23 9.22386 23 9.5 23 9.77614 22.7761 10 22.5 10L9.5 10C9.22386 10 9 9.77614 9 9.5ZM9 15C9 14.4477 9.44772 14 10 14L22 14C22.5523 14 23 14.4477 23 15 23 15.5523 22.5523 16 22 16L10 16C9.44772 16 9 15.5523 9 15ZM10.5 20C9.67157 20 9 20.6716 9 21.5 9 22.3284 9.67157 23 10.5 23L21.5 23C22.3284 23 23 22.3284 23 21.5 23 20.6716 22.3284 20 21.5 20L10.5 20Z"/>
	</svg>
	