<?xml version="1.0"?>
	<svg xmlns="http://www.w3.org/2000/svg" 
		width="32" 
		height="32" 
		viewbox="0 0 32 32" 
		code="82816" 
		 transform=""
		><path d="M10 12C10 13.1046 10.8954 14 12 14 13.1046 14 14 13.1046 14 12 14 10.8954 13.1046 10 12 10 10.8954 10 10 10.8954 10 12ZM10 20C10 21.1046 10.8954 22 12 22 13.1046 22 14 21.1046 14 20 14 18.8954 13.1046 18 12 18 10.8954 18 10 18.8954 10 20ZM20 14C18.8954 14 18 13.1046 18 12 18 10.8954 18.8954 10 20 10 21.1046 10 22 10.8954 22 12 22 13.1046 21.1046 14 20 14ZM18 20C18 21.1046 18.8954 22 20 22 21.1046 22 22 21.1046 22 20 22 18.8954 21.1046 18 20 18 18.8954 18 18 18.8954 18 20Z"/>
	</svg>
	