<?xml version="1.0"?>
	<svg xmlns="http://www.w3.org/2000/svg" 
		width="32" 
		height="32" 
		viewbox="0 0 32 32" 
		code="82815" 
		 transform=""
		><path d="M17.2257346 8.33639926L22.6397346 13.7436193C23.3848346 14.4819193 23.3985346 15.2954193 22.6876346 16.0063193L19.3653346 19.3627193C19.1466346 19.5815193 18.8868346 19.7182193 18.6065346 19.7661193 18.9278346 20.2719193 18.8595346 20.8188193 18.4083346 21.2768193L17.7384346 21.9536193C17.1915346 22.5141193 16.5011346 22.4868193 15.9063346 21.8989193L14.4161346 20.4155193C14.2743346 20.6489193 14.1123346 20.9659193 13.9363346 21.3102193 13.5609346 22.0448193 13.1219346 22.9038193 12.6798346 23.3413193 11.7501346 24.2778193 10.4718346 24.2710193 9.51476464 23.3139193 8.55773464 22.3501193 8.55089464 21.0717193 9.48058464 20.1420193 9.92250464 19.7048193 10.7822346 19.2675193 11.5191346 18.8927193 11.8652346 18.7167193 12.1841346 18.5545193 12.4200346 18.4126193L10.9434346 16.9292193C10.3419346 16.3344193 10.3214346 15.6508193 10.8819346 15.0971193L11.5587346 14.4272193C11.9825346 13.9965193 12.4815346 13.9145193 12.9532346 14.1606193 12.9942346 13.9692193 13.0968346 13.7778193 13.2472346 13.5864193 14.2862346 12.3217193 15.0040346 10.7563193 15.3458346 9.06784926 15.4210346 8.70553926 15.5645346 8.43210926 15.7491346 8.24753926 16.1661346 7.83737926 16.7677346 7.87155926 17.2257346 8.33639926ZM12.1454791 15.0543938L12.0645346 15.1245193 11.5792346 15.6098193C11.3454146 15.8497593 11.3276216 16.1174013 11.5257098 16.3678389L11.5997346 16.4506193 13.3429346 18.1870193C13.5548346 18.3920193 13.4796346 18.6313193 13.1993346 18.8364193 12.8347346 19.0689193 12.3609346 19.3238193 11.8871346 19.5787193 11.1350346 19.9834193 10.3830346 20.3880193 10.0684346 20.7026193 9.46691464 21.3042193 9.46007464 22.1381193 10.0753346 22.7534193 10.6905346 23.3686193 11.5177346 23.3549193 12.1261346 22.7534193 12.4388346 22.4407193 12.8405346 21.6955193 13.2429346 20.9494193 13.5001346 20.4722193 13.7576346 19.9946193 13.9923346 19.6294193 14.1768346 19.3771493 14.3891176 19.2965183 14.5792471 19.4324327L14.6417346 19.4858193 16.3917346 21.2358193C16.6377946 21.4818793 16.9060486 21.5175823 17.146633 21.3279109L17.2257346 21.2563193 17.7110346 20.7641193C17.9448546 20.5241793 17.9627286 20.2676343 17.7645837 20.0194161L17.6905346 19.9370193 12.9054346 15.1450193C12.6592846 14.8927493 12.3910216 14.8675223 12.1454791 15.0543938ZM11.3331346 21.4956193C11.5450346 21.7075193 11.5518346 22.0356193 11.3331346 22.2612193 11.1212346 22.4731193 10.7862346 22.4731193 10.5743346 22.2612193 10.3556346 22.0424193 10.3692346 21.7143193 10.5743346 21.4956193 10.7794346 21.2768193 11.1212346 21.2836193 11.3331346 21.4956193ZM16.2823346 9.11569926C16.2140346 9.18405926 16.1661346 9.27975926 16.1388346 9.38229926 15.6397346 11.3305193 14.8604346 12.8276193 13.9854346 13.9829193 13.6258039 14.4624577 13.6913565 14.7556483 13.9293815 15.0290773L13.9923346 15.0971193 17.6973346 18.8022193 17.7616314 18.8617392C18.0016036 19.0719609 18.2867154 19.1865777 18.5755888 18.9611993L18.6544346 18.8911193 22.0518346 15.4799193 22.1259791 15.3985363C22.3725514 15.0993164 22.3672454 14.7656507 22.094047 14.4419771L22.0040346 14.3452193 21.5323346 13.8735193 21.4308315 13.9604827C20.5760486 14.6812303 18.7301106 15.9726953 18.4151346 15.6577193 18.3126346 15.5551193 18.4015346 15.4594193 18.4698346 15.3979193 19.0950746 14.7726793 19.9049902 13.7722517 20.1435382 12.7468116L20.1856346 12.5268193 16.7745346 9.11569926 16.7059919 9.05906365C16.547744 8.94971723 16.4019471 8.99606926 16.2823346 9.11569926Z"/>
	</svg>
	