<?xml version="1.0"?>
	<svg xmlns="http://www.w3.org/2000/svg" 
		width="30" 
		height="30" 
		viewbox="0 0 30 30" 
		code="81086" 
		 transform=""
		><path d="M28.6105263 18.9473684C29.3684211 20.0842105 29.8105263 21.4105263 29.8105263 22.8631579 29.8105263 26.6842105 26.6842105 29.8105263 22.8631579 29.8105263 21.4105263 29.8105263 20.0526316 29.3684211 18.9473684 28.6105263 19.4842105 28.4526316 20.0210526 28.2631579 20.5263158 28.0421053 21.2526316 28.3578947 22.0421053 28.5473684 22.8631579 28.5473684 25.9894737 28.5473684 28.5473684 25.9894737 28.5473684 22.8631579 28.5473684 22.0105263 28.3578947 21.2526316 28.0421053 20.5263158 28.2631579 20.0210526 28.4526316 19.4842105 28.6105263 18.9473684ZM1.2 18.9473684C1.35789474 19.4842105 1.54736842 20.0210526 1.76842105 20.5263158 1.45263158 21.2526316 1.26315789 22.0421053 1.26315789 22.8631579 1.26315789 25.9894737 3.82105263 28.5473684 6.94736842 28.5473684 7.8 28.5473684 8.58947368 28.3578947 9.28421053 28.0421053 9.78947368 28.2631579 10.3263158 28.4526316 10.8631579 28.6105263 9.72631579 29.3684211 8.4 29.8105263 6.94736842 29.8105263 3.12631579 29.8105263 2.57571742e-14 26.6842105 2.57571742e-14 22.8631579 2.57571742e-14 21.4105263 0.442105263 20.0526316 1.2 18.9473684ZM14.9684211 1.57894737C22.2947368 1.57894737 28.2315789 7.51578947 28.2315789 14.8421053 28.2315789 22.1684211 22.2947368 28.1052632 14.9684211 28.1052632 7.64210526 28.1052632 1.70526316 22.1684211 1.70526316 14.8421053 1.70526316 7.51578947 7.64210526 1.57894737 14.9684211 1.57894737ZM17.5263158 21.3157895C16.7368421 21.6315789 15.8526316 21.7894737 14.9684211 21.7894737 14.1157895 21.7894737 13.3263158 21.6315789 12.6 21.3789474 12.4105263 22.1368421 12.3157895 22.9578947 12.3157895 23.8421053 12.3157895 24.8526316 12.4421053 25.8 12.6947368 26.6210526 13.4526316 26.7789474 14.1789474 26.8421053 14.9684211 26.8421053 15.8210526 26.8421053 16.6421053 26.7473684 17.4631579 26.5894737 17.7157895 25.7684211 17.8421053 24.8210526 17.8421053 23.8421053 17.8421053 22.9578947 17.7157895 22.0736842 17.5263158 21.3157895ZM14.9684211 9.15789474C11.8421053 9.15789474 9.28421053 11.7157895 9.28421053 14.8421053 9.28421053 17.9684211 11.8421053 20.5263158 14.9684211 20.5263158 18.0947368 20.5263158 20.6526316 17.9684211 20.6526316 14.8421053 20.6526316 11.7157895 18.0947368 9.15789474 14.9684211 9.15789474ZM6.06315789 12.0947368C5.02105263 12.0947368 4.04210526 12.2526316 3.18947368 12.5052632 3.06315789 13.2631579 2.96842105 14.0526316 2.96842105 14.8421053 2.96842105 15.6315789 3.06315789 16.4210526 3.22105263 17.1789474 4.07368421 17.4315789 5.05263158 17.5894737 6.09473684 17.5894737 6.94736842 17.5894737 7.76842105 17.4947368 8.49473684 17.3052632 8.17894737 16.5473684 8.02105263 15.7263158 8.02105263 14.8421053 8.02105263 13.9578947 8.17894737 13.1368421 8.46315789 12.3789474 7.73684211 12.1894737 6.91578947 12.0947368 6.06315789 12.0947368ZM24.0631579 12.0631579C23.1473684 12.0631579 22.2631579 12.1894737 21.4736842 12.4105263 21.7578947 13.1684211 21.9157895 13.9894737 21.9157895 14.7789474 21.9157895 15.6315789 21.7578947 16.4526316 21.4736842 17.2105263 22.2631579 17.4315789 23.1473684 17.5578947 24.0631579 17.5578947 25.0105263 17.5578947 25.9263158 17.4315789 26.7157895 17.2105263 26.8736842 16.4526316 26.9684211 15.6315789 26.9684211 14.8105263 26.9684211 13.9894737 26.8736842 13.2 26.7157895 12.4105263 25.9263158 12.1894737 25.0105263 12.0631579 24.0631579 12.0631579ZM22.8631579-1.48325796e-13C26.6842105-1.48325796e-13 29.8105263 3.12631579 29.8105263 6.94736842 29.8105263 8.4 29.3684211 9.72631579 28.6105263 10.8631579 28.4526316 10.3263158 28.2631579 9.78947368 28.0421053 9.28421053 28.3578947 8.55789474 28.5473684 7.76842105 28.5473684 6.94736842 28.5473684 3.82105263 25.9894737 1.26315789 22.8631579 1.26315789 22.0421053 1.26315789 21.2526316 1.45263158 20.5263158 1.76842105 20.0210526 1.54736842 19.4842105 1.35789474 18.9473684 1.2 20.0842105 0.442105263 21.4105263-1.48325796e-13 22.8631579-1.48325796e-13ZM6.94736842-1.48325796e-13C8.4-1.48325796e-13 9.75789474 0.442105263 10.8631579 1.2 10.3263158 1.35789474 9.78947368 1.54736842 9.28421053 1.76842105 8.55789474 1.45263158 7.76842105 1.26315789 6.94736842 1.26315789 3.82105263 1.26315789 1.26315789 3.82105263 1.26315789 6.94736842 1.26315789 7.8 1.45263158 8.55789474 1.76842105 9.28421053 1.54736842 9.78947368 1.35789474 10.3263158 1.2 10.8631579 0.442105263 9.72631579 1.39444012e-13 8.4 1.39444012e-13 6.94736842 1.39444012e-13 3.12631579 3.12631579-1.48325796e-13 6.94736842-1.48325796e-13ZM14.9684211 2.84210526C14.1789474 2.84210526 13.4210526 2.93684211 12.6947368 3.06315789 12.4421053 3.88421053 12.3157895 4.83157895 12.3157895 5.84210526 12.3157895 6.72631579 12.4105263 7.54736842 12.6 8.30526316 13.3578947 8.05263158 14.1473684 7.89473684 14.9684211 7.89473684 15.8842105 7.89473684 16.7368421 8.05263158 17.5263158 8.36842105 17.7157895 7.61052632 17.8421053 6.75789474 17.8421053 5.84210526 17.8421053 4.86315789 17.7157895 3.91578947 17.4631579 3.09473684 16.6421053 2.93684211 15.8210526 2.84210526 14.9684211 2.84210526Z"/>
	</svg>
	