<?xml version="1.0"?>
	<svg xmlns="http://www.w3.org/2000/svg" 
		width="24" 
		height="24" 
		viewbox="0 0 24 24" 
		code="82818" 
		 transform=""
		><path d="M8.84286 9.91001L8.37986 9.77179 8.23488 10.258 8.69787 10.3962 8.84286 9.91001ZM9.13282 8.93764L8.66984 8.79942 8.52485 9.2856 8.98784 9.42382 9.13282 8.93764ZM8.81579 8.31323L9.27878 8.45145 9.42376 7.96527 8.96077 7.82705 8.81579 8.31323ZM9.7147 6.99386L9.25171 6.85564 9.10672 7.34183 9.56972 7.48005 9.7147 6.99386ZM15.0946 16.0729L15.5576 16.2111 15.7026 15.7249 15.2396 15.5867 15.0946 16.0729ZM15.9935 14.7535L15.5306 14.6153 15.3856 15.1015 15.8486 15.2397 15.9935 14.7535ZM15.6765 14.1291L16.1395 14.2673 16.2845 13.7811 15.8215 13.6429 15.6765 14.1291ZM15.9665 13.1567L16.4295 13.2949 16.5745 12.8088 16.1115 12.6705 15.9665 13.1567ZM9.98824 6.92717C10.6552 6.92717 11.1965 6.38589 11.1965 5.71896 11.1965 5.05202 10.6552 4.51074 9.98824 4.51074 9.32131 4.51074 8.78003 5.05202 8.78003 5.71896 8.78003 6.38589 9.32131 6.92717 9.98824 6.92717ZM9.98824 4.99403C10.3884 4.99403 10.7132 5.3188 10.7132 5.71896 10.7132 6.11912 10.3884 6.44388 9.98824 6.44388 9.58808 6.44388 9.26331 6.11912 9.26331 5.71896 9.26331 5.3188 9.58808 4.99403 9.98824 4.99403ZM14.8211 16.1096C14.1542 16.1096 13.6129 16.6509 13.6129 17.3178 13.6129 17.9847 14.1542 18.526 14.8211 18.526 15.488 18.526 16.0293 17.9847 16.0293 17.3178 16.0293 16.6509 15.488 16.1096 14.8211 16.1096ZM14.8211 18.0427C14.4209 18.0427 14.0962 17.718 14.0962 17.3178 14.0962 16.9176 14.4209 16.5929 14.8211 16.5929 15.2213 16.5929 15.546 16.9176 15.546 17.3178 15.546 17.718 15.2213 18.0427 14.8211 18.0427ZM17.7208 6.68553C16.9205 6.68553 16.2709 7.33506 16.2709 8.13538 16.2709 8.57517 16.4701 8.96373 16.7794 9.22954 16.7687 9.22084 16.7552 9.21697 16.7446 9.20731 16.5049 9.74472 16.1956 10.3972 15.8457 11.0477 14.4035 13.727 13.5868 13.9348 13.3712 13.9348 13.2813 13.9348 13.1141 13.9348 12.9972 13.4071 12.8879 12.9151 12.888 12.2056 12.888 11.5184 12.888 10.7799 12.8879 10.0154 12.7555 9.41995 12.5197 8.35866 11.9088 8.13538 11.4381 8.13538 10.5353 8.13538 9.56778 9.03429 8.49102 10.864L8.08893 10.7432 7.94394 11.2294 8.23488 11.3164C8.19428 11.3898 8.15465 11.4546 8.11309 11.5309 8.06863 11.6131 8.03287 11.6904 7.99034 11.7726L7.79896 11.7156 7.65397 12.2017 7.75643 12.2327C7.67814 12.3902 7.59985 12.5429 7.52832 12.6937L7.50898 12.6879 7.46935 12.8223C7.3669 13.0398 7.26057 13.263 7.17455 13.4554 7.19001 13.4564 7.20355 13.4641 7.21805 13.466 7.17359 13.4602 7.13299 13.4515 7.08853 13.4515 6.28821 13.4515 5.63867 14.1011 5.63867 14.9014 5.63867 15.7017 6.28821 16.3512 7.08853 16.3512 7.88885 16.3512 8.53838 15.7017 8.53838 14.9014 8.53838 14.4616 8.3383 14.073 8.02997 13.8072 8.0406 13.8159 8.0551 13.8208 8.06477 13.8295 8.30448 13.292 8.61378 12.6396 8.96368 11.9891 10.4058 9.30976 11.2225 9.10195 11.4381 9.10195 11.528 9.10195 11.6952 9.10195 11.8122 9.6297 11.9214 10.1217 11.9214 10.8321 11.9214 11.5184 11.9214 12.2568 11.9214 13.0214 12.0538 13.6168 12.2896 14.6781 12.9005 14.9014 13.3712 14.9014 14.2701 14.9014 15.2328 14.0112 16.3038 12.1988L16.7214 12.3235 16.8664 11.8373 16.5609 11.7455C16.6064 11.6634 16.6508 11.5909 16.6972 11.5048 16.7368 11.4314 16.7687 11.3628 16.8074 11.2893L17.0123 11.3502 17.1573 10.864 17.0413 10.8292C17.1196 10.6726 17.1989 10.5189 17.2704 10.3682L17.3023 10.3778 17.368 10.1594C17.4608 9.96123 17.5584 9.75632 17.6377 9.58041 17.6222 9.57944 17.6097 9.57171 17.5942 9.56977 17.6357 9.57654 17.6773 9.58524 17.7208 9.58524 18.5211 9.58524 19.1707 8.9357 19.1707 8.13538 19.1707 7.33506 18.5211 6.68553 17.7208 6.68553ZM8.0551 14.9014C8.0551 15.434 7.62111 15.8679 7.08853 15.8679 6.55595 15.8679 6.12196 15.434 6.12196 14.9014 6.12196 14.3688 6.55595 13.9348 7.08853 13.9348 7.62111 13.9348 8.0551 14.3688 8.0551 14.9014ZM17.7208 9.10195C17.1882 9.10195 16.7542 8.66796 16.7542 8.13538 16.7542 7.6028 17.1882 7.16881 17.7208 7.16881 18.2534 7.16881 18.6874 7.6028 18.6874 8.13538 18.6874 8.66796 18.2534 9.10195 17.7208 9.10195Z"/>
	</svg>
	