<?xml version="1.0"?>
	<svg xmlns="http://www.w3.org/2000/svg" 
		width="64" 
		height="64" 
		viewbox="0 0 64 64" 
		code="82820" 
		 transform=""
		><path d="M19.0514 46C18.402 46 18 45.598 18 44.9486V19.0514C18 18.4174 18.402 18 19.0514 18H44.9486C45.5826 18 46 18.4174 46 19.0514V44.9486C46 45.598 45.5826 46 44.9486 46H19.0514ZM19.9172 20.3192V43.6963C19.9172 43.9746 20.0254 44.0828 20.3037 44.0828H43.6808C43.9591 44.0828 44.0828 43.9746 44.0828 43.6963V20.3192C44.0828 20.0409 43.9591 19.9172 43.6808 19.9172H20.3037C20.0254 19.9172 19.9172 20.0409 19.9172 20.3192ZM27.4437 29.736L28.0254 29.9129 27.8432 30.5354 27.2616 30.3585 27.4437 29.736ZM27.808 28.491L28.3896 28.668 28.2075 29.2905 27.6259 29.1135 27.808 28.491ZM28.573 28.0455L27.9914 27.8685 28.1735 27.246 28.7551 27.423 28.573 28.0455ZM28.539 26.0023L29.1206 26.1793 28.9385 26.8017 28.3569 26.6248 28.539 26.0023ZM36.461 37.9805L35.8794 37.8035 36.0615 37.1811 36.6431 37.358 36.461 37.9805ZM36.427 35.9373L37.0086 36.1143 36.8265 36.7368 36.2449 36.5598 36.427 35.9373ZM37.192 35.4918L36.6104 35.3148 36.7925 34.6924 37.3741 34.8693 37.192 35.4918ZM37.5563 34.2468L36.9746 34.0699 37.1568 33.4474 37.7384 33.6243 37.5563 34.2468ZM30.9821 24.5469C30.9821 25.4008 30.3021 26.0939 29.4643 26.0939 28.6264 26.0939 27.9464 25.4008 27.9464 24.5469 27.9464 23.693 28.6264 23 29.4643 23 30.3021 23 30.9821 23.693 30.9821 24.5469ZM30.375 24.5469C30.375 24.0346 29.967 23.6188 29.4643 23.6188 28.9616 23.6188 28.5536 24.0346 28.5536 24.5469 28.5536 25.0593 28.9616 25.4751 29.4643 25.4751 29.967 25.4751 30.375 25.0593 30.375 24.5469ZM34.0179 39.3975C34.0179 38.5436 34.6979 37.8506 35.5357 37.8506 36.3736 37.8506 37.0536 38.5436 37.0536 39.3975 37.0536 40.2514 36.3736 40.9444 35.5357 40.9444 34.6979 40.9444 34.0179 40.2514 34.0179 39.3975ZM34.625 39.3975C34.625 39.9099 35.033 40.3257 35.5357 40.3257 36.0384 40.3257 36.4464 39.9099 36.4464 39.3975 36.4464 38.8852 36.0384 38.4693 35.5357 38.4693 35.033 38.4693 34.625 38.8852 34.625 39.3975ZM37.3571 27.6408C37.3571 26.6161 38.1731 25.7845 39.1786 25.7845 40.184 25.7845 41 26.6161 41 27.6408 41 28.6655 40.184 29.4971 39.1786 29.4971 39.1336 29.4971 39.0902 29.4896 39.0471 29.4821 39.0379 29.4805 39.0287 29.4789 39.0195 29.4773 39.0286 29.4785 39.0368 29.4813 39.0451 29.484 39.0545 29.4872 39.0638 29.4903 39.0741 29.4909 39.0004 29.6579 38.9139 29.8452 38.8266 30.0342 38.7961 30.1003 38.7655 30.1665 38.7354 30.2322L38.6528 30.5119 38.6127 30.4995C38.5479 30.6387 38.4781 30.7798 38.4073 30.9228 38.3799 30.9782 38.3524 31.0339 38.3249 31.0899L38.4706 31.1344 38.2885 31.7569 38.0311 31.6789C38.0092 31.7213 37.9891 31.7623 37.969 31.8033 37.9445 31.8533 37.92 31.9032 37.8926 31.9549 37.86 32.0166 37.8281 32.0729 37.7963 32.129 37.7714 32.1729 37.7465 32.2168 37.7214 32.263L38.1051 32.3806 37.923 33.0031 37.3984 32.8435C36.053 35.1639 34.8436 36.3036 33.7143 36.3036 33.1229 36.3036 32.3555 36.0178 32.0592 34.6589 31.8929 33.8966 31.8929 32.9177 31.8929 31.9722 31.8929 31.0936 31.8929 30.184 31.7556 29.5541 31.6087 28.8784 31.3986 28.8784 31.2857 28.8784 31.0149 28.8784 29.9889 29.1444 28.1771 32.5749 27.7376 33.4078 27.349 34.2431 27.0479 34.9312 27.0415 34.9254 27.0336 34.9209 27.0255 34.9164 27.018 34.9123 27.0105 34.9081 27.0041 34.9027 27.3915 35.2431 27.6429 35.7406 27.6429 36.3036 27.6429 37.3283 26.8269 38.16 25.8214 38.16 24.816 38.16 24 37.3283 24 36.3036 24 35.2789 24.816 34.4473 25.8214 34.4473 25.862 34.4473 25.9001 34.4532 25.9393 34.4593 25.954 34.4615 25.9689 34.4639 25.9841 34.4659 25.9759 34.4648 25.9679 34.4621 25.9598 34.4594 25.95 34.4562 25.9401 34.4529 25.9295 34.4523 26.0197 34.2468 26.1276 34.0137 26.2357 33.7803 26.2571 33.7341 26.2785 33.6878 26.2999 33.6417L26.3496 33.4697 26.3739 33.4771C26.4373 33.3409 26.5049 33.2036 26.5737 33.0637 26.6025 33.0052 26.6315 32.9462 26.6605 32.8868L26.5318 32.8472 26.7139 32.2247 26.9544 32.2977C26.9762 32.2546 26.9967 32.2126 27.017 32.1708 27.0464 32.1104 27.0756 32.0504 27.1086 31.9883 27.1368 31.9355 27.1643 31.887 27.1916 31.8388 27.2149 31.7977 27.2381 31.7568 27.2616 31.7136L26.8961 31.6022 27.0782 30.9797 27.5834 31.1344C28.9361 28.7917 30.1516 27.6408 31.2857 27.6408 31.8771 27.6408 32.6445 27.9267 32.9408 29.2855 33.1071 30.0478 33.1071 31.0267 33.1071 31.9722 33.1071 32.8521 33.1071 33.7605 33.2444 34.3904 33.3913 35.0661 33.6014 35.0661 33.7143 35.0661 33.9851 35.0661 35.0111 34.8 36.8229 31.3695 37.2624 30.5367 37.651 29.7013 37.9521 29.0132 37.9593 29.0199 37.9675 29.0244 37.9756 29.0288 37.9827 29.0327 37.9896 29.0365 37.9959 29.0417 37.6073 28.7014 37.3571 28.2039 37.3571 27.6408ZM25.8214 37.5412C26.4905 37.5412 27.0357 36.9855 27.0357 36.3036 27.0357 35.6217 26.4905 35.0661 25.8214 35.0661 25.1524 35.0661 24.6071 35.6217 24.6071 36.3036 24.6071 36.9855 25.1524 37.5412 25.8214 37.5412ZM37.9643 27.6408C37.9643 28.3227 38.5095 28.8784 39.1786 28.8784 39.8476 28.8784 40.3929 28.3227 40.3929 27.6408 40.3929 26.9589 39.8476 26.4033 39.1786 26.4033 38.5095 26.4033 37.9643 26.9589 37.9643 27.6408Z"/>
	</svg>
	