<?xml version="1.0"?>
	<svg xmlns="http://www.w3.org/2000/svg" 
		width="1024" 
		height="1024" 
		viewbox="0 0 1024 1024" 
		code="82819" 
		 transform=""
		><path d="M304.822 736h414.355c10.144 0 16.822-6.432 16.822-16.822v-414.355c0-10.144-6.678-16.822-16.822-16.822h-414.355c-10.39 0-16.822 6.678-16.822 16.822v414.355c0 10.39 6.432 16.822 16.822 16.822zM439.099 475.776l9.307 2.83-2.915 9.96-9.306-2.83 2.914-9.96zM444.928 455.856l9.306 2.832-2.914 9.96-9.306-2.832 2.914-9.96zM457.168 448.728l-9.306-2.832 2.914-9.96 9.306 2.832-2.914 9.96zM456.624 416.037l9.306 2.832-2.914 9.958-9.306-2.83 2.914-9.96zM583.376 607.688l-9.306-2.832 2.914-9.958 9.306 2.83-2.914 9.96zM582.832 574.997l9.306 2.832-2.914 9.96-9.306-2.832 2.914-9.96zM595.072 567.869l-9.306-2.832 2.914-9.958 9.306 2.83-2.914 9.96zM600.901 547.949l-9.307-2.83 2.915-9.96 9.306 2.83-2.914 9.96zM495.714 392.75c0 13.662-10.88 24.752-24.285 24.752s-24.286-11.09-24.286-24.752 10.88-24.75 24.286-24.75c13.405 0 24.285 11.088 24.285 24.75zM486 392.75c0-8.197-6.528-14.85-14.571-14.85s-14.571 6.653-14.571 14.85c0 8.198 6.528 14.851 14.571 14.851s14.571-6.653 14.571-14.851zM544.286 630.36c0-13.662 10.88-24.75 24.285-24.75s24.286 11.088 24.286 24.75-10.88 24.75-24.286 24.75c-13.405 0-24.285-11.088-24.285-24.75zM554 630.36c0 8.198 6.528 14.851 14.571 14.851s14.571-6.653 14.571-14.851c0-8.197-6.528-14.851-14.571-14.851s-14.571 6.654-14.571 14.851zM597.714 442.253c0-16.395 13.056-29.701 29.144-29.701 16.086 0 29.142 13.306 29.142 29.701s-13.056 29.701-29.142 29.701c-0.72 0-1.414-0.12-2.104-0.24-0.147-0.026-0.294-0.051-0.442-0.077 0.146 0.019 0.277 0.064 0.41 0.107 0.15 0.051 0.299 0.101 0.464 0.11-1.179 2.672-2.563 5.669-3.96 8.693-0.488 1.058-0.978 2.117-1.459 3.168l-1.322 4.475-0.642-0.198c-1.037 2.227-2.154 4.485-3.286 6.773-0.438 0.886-0.878 1.778-1.318 2.674l2.331 0.712-2.914 9.96-4.118-1.248c-0.35 0.678-0.672 1.334-0.994 1.99-0.392 0.8-0.784 1.598-1.222 2.426-0.522 0.987-1.032 1.888-1.541 2.786-0.398 0.702-0.797 1.405-1.198 2.144l6.139 1.882-2.914 9.96-8.394-2.554c-21.526 37.126-40.877 55.362-58.946 55.362-9.462 0-21.741-4.573-26.482-26.315-2.661-12.197-2.661-27.859-2.661-42.987 0-14.058 0-28.611-2.197-38.69-2.35-10.811-5.712-10.811-7.518-10.811-4.333 0-20.749 4.256-49.738 59.144-7.032 13.326-13.25 26.691-18.067 37.701-0.102-0.093-0.229-0.165-0.358-0.237-0.12-0.066-0.24-0.133-0.342-0.219 6.198 5.446 10.221 13.406 10.221 22.414 0 16.395-13.056 29.702-29.144 29.702-16.086 0-29.142-13.307-29.142-29.702s13.056-29.701 29.142-29.701c0.65 0 1.259 0.094 1.886 0.192 0.235 0.035 0.474 0.074 0.717 0.106-0.131-0.018-0.259-0.061-0.389-0.104-0.157-0.051-0.315-0.104-0.485-0.114 1.443-3.288 3.17-7.018 4.899-10.752 0.342-0.739 0.685-1.48 1.027-2.218l0.795-2.752 0.389 0.118c1.014-2.179 2.096-4.376 3.197-6.614 0.461-0.936 0.925-1.88 1.389-2.83l-2.059-0.634 2.914-9.96 3.848 1.168c0.349-0.69 0.677-1.362 1.002-2.03 0.47-0.966 0.938-1.926 1.466-2.92 0.451-0.845 0.891-1.621 1.328-2.392 0.373-0.658 0.744-1.312 1.12-2.003l-5.848-1.782 2.914-9.96 8.083 2.475c21.643-37.483 41.091-55.898 59.237-55.898 9.462 0 21.741 4.574 26.482 26.315 2.661 12.197 2.661 27.859 2.661 42.987 0 14.078 0 28.613 2.197 38.691 2.35 10.811 5.712 10.811 7.518 10.811 4.333 0 20.749-4.258 49.738-59.146 7.032-13.325 13.25-26.691 18.067-37.701 0.115 0.107 0.246 0.179 0.376 0.25 0.114 0.062 0.224 0.123 0.325 0.206-6.218-5.445-10.221-13.405-10.221-22.414zM413.142 600.659c10.706 0 19.429-8.891 19.429-19.802s-8.723-19.8-19.429-19.8c-10.704 0-19.429 8.89-19.429 19.8s8.725 19.802 19.429 19.802zM607.429 442.253c0 10.91 8.723 19.802 19.429 19.802 10.704 0 19.429-8.891 19.429-19.802s-8.725-19.8-19.429-19.8c-10.706 0-19.429 8.89-19.429 19.8z"/>
	</svg>
	