<?xml version="1.0"?>
	<svg xmlns="http://www.w3.org/2000/svg" 
		width="32" 
		height="32" 
		viewbox="0 0 32 32" 
		code="82821" 
		 transform=""
		><path d="M22.2231 13.1866L21.0219 14.6645C21.0134 14.6102 21.0041 14.556 20.994 14.502 20.84 13.6826 20.4981 12.9038 19.9888 12.2273 19.2756 11.2799 18.2718 10.5832 17.1257 10.24 15.9796 9.89685 14.7518 9.92533 13.6234 10.3213 12.816 10.6046 12.0902 11.0652 11.4982 11.6631 11.2627 11.9009 11.0484 12.1604 10.8586 12.4391L11.7025 12.9961C12.2483 12.1948 13.0413 11.5873 13.9645 11.2634 14.8878 10.9394 15.8923 10.9161 16.83 11.1969 17.7677 11.4777 18.5889 12.0477 19.1724 12.8228 19.6655 13.4778 19.9669 14.2499 20.0484 15.0556L17.8058 13.5839 17.2572 14.42 20.6825 16.6677 22.9991 13.8173 22.2231 13.1866ZM8 17.1866L8.77603 17.8173 9.97716 16.3394C9.98567 16.3938 9.995 16.4479 10.0051 16.502 10.1591 17.3213 10.501 18.1001 11.0103 18.7766 11.7235 19.724 12.7273 20.4207 13.8734 20.7639 15.0195 21.1071 16.2473 21.0786 17.3757 20.6826 18.1831 20.3993 18.9089 19.9387 19.5009 19.3408 19.7364 19.103 19.9507 18.8435 20.1405 18.5648L19.2966 18.0078C18.7508 18.8091 17.9578 19.4166 17.0345 19.7405 16.1113 20.0645 15.1068 20.0878 14.1691 19.807 13.2314 19.5262 12.4102 18.9562 11.8267 18.1811 11.3336 17.5261 11.0322 16.754 10.9506 15.9483L13.1933 17.42 13.7419 16.5839 10.3166 14.3362 8 17.1866Z"/>
	</svg>
	