<?xml version="1.0"?>
	<svg xmlns="http://www.w3.org/2000/svg" 
		width="32" 
		height="32" 
		viewbox="0 0 32 32" 
		code="82823" 
		 transform=""
		><path d="M13.0991 19.5C12.6805 19.6615 12.2256 19.75 11.75 19.75 11.666 19.75 11.5826 19.7472 11.5 19.7418 9.54549 19.6132 8 17.9871 8 16 8 14.0129 9.54549 12.3868 11.5 12.2582 11.5826 12.2528 11.666 12.25 11.75 12.25 12.2256 12.25 12.6805 12.3385 13.0991 12.5 14.5036 13.0417 15.5 14.4045 15.5 16 15.5 17.5955 14.5036 18.9583 13.0991 19.5ZM14.9613 12.5C15.9071 13.3683 16.5 14.6149 16.5 16 16.5 17.3851 15.9071 18.6317 14.9613 19.5H20.5C22.433 19.5 24 17.933 24 16 24 14.067 22.433 12.5 20.5 12.5H14.9613ZM11.5 20.5C9.01472 20.5 7 18.4853 7 16 7 13.5147 9.01472 11.5 11.5 11.5H20.5C22.9853 11.5 25 13.5147 25 16 25 18.4853 22.9853 20.5 20.5 20.5H11.5Z"/>
	</svg>
	