<?xml version="1.0"?>
	<svg xmlns="http://www.w3.org/2000/svg" 
		width="32" 
		height="32" 
		viewbox="0 0 32 32" 
		code="82824" 
		 transform=""
		><path d="M12.5414 10.0046C12.5162 10.0012 12.4778 10 12.3003 10H10.1C9.81172 10 9.62559 10.0004 9.48392 10.012 9.34809 10.0231 9.29773 10.0419 9.27301 10.0545 9.17892 10.1025 9.10243 10.1789 9.0545 10.273 9.0419 10.2977 9.02306 10.3481 9.01196 10.4839 9.00039 10.6256 9 10.8117 9 11.1V20.9C9 21.1883 9.00039 21.3744 9.01196 21.5161 9.02306 21.6519 9.0419 21.7023 9.0545 21.727 9.10243 21.8211 9.17892 21.8976 9.27301 21.9455 9.29773 21.9581 9.34809 21.977 9.48392 21.9881 9.62559 21.9996 9.81172 22 10.1 22H21.9C22.1883 22 22.3744 21.9996 22.5161 21.9881 22.6519 21.977 22.7023 21.9581 22.727 21.9455 22.8211 21.8976 22.8976 21.8211 22.9455 21.727 22.9581 21.7023 22.9769 21.6519 22.988 21.5161 22.9996 21.3744 23 21.1883 23 20.9V13.4466C23 13.1584 22.9996 12.9722 22.988 12.8306 22.9769 12.6947 22.9581 12.6444 22.9455 12.6196 22.8976 12.5256 22.8211 12.4491 22.727 12.4011 22.7023 12.3885 22.6519 12.3697 22.5161 12.3586 22.3744 12.347 22.1883 12.3466 21.9 12.3466L14.6178 12.3466C14.4859 12.3467 14.3724 12.3468 14.27 12.3328 13.6032 12.2414 13.0788 11.717 12.9875 11.0502 12.9734 10.9478 12.9735 10.8343 12.9736 10.7024L12.9736 10.6733C12.9736 10.4958 12.9724 10.4574 12.969 10.4322 12.9385 10.2099 12.7637 10.0351 12.5414 10.0046ZM12.3294 9.00001C12.4613 8.99994 12.5748 8.99987 12.6771 9.0139 13.344 9.10523 13.8684 9.62961 13.9597 10.2965 13.9737 10.3988 13.9737 10.5123 13.9736 10.6443L13.9736 10.6733C13.9736 10.8508 13.9748 10.8892 13.9782 10.9145 14.0087 11.1368 14.1834 11.3116 14.4057 11.342 14.431 11.3455 14.4694 11.3466 14.6469 11.3466L21.9193 11.3466C22.1828 11.3466 22.4102 11.3466 22.5975 11.3619 22.7952 11.3781 22.9918 11.4137 23.181 11.5101 23.4632 11.6539 23.6927 11.8834 23.8365 12.1656 23.9329 12.3548 23.9686 12.5514 23.9847 12.7491 24 12.9364 24 13.1638 24 13.4274V20.9193C24 21.1829 24 21.4103 23.9847 21.5975 23.9686 21.7952 23.9329 21.9918 23.8365 22.181 23.6927 22.4632 23.4632 22.6927 23.181 22.8365 22.9918 22.9329 22.7952 22.9686 22.5975 22.9847 22.4102 23 22.1828 23 21.9192 23H10.0808C9.81717 23 9.58978 23 9.40249 22.9847 9.20481 22.9686 9.0082 22.9329 8.81901 22.8365 8.53677 22.6927 8.3073 22.4632 8.16349 22.181 8.06709 21.9918 8.03144 21.7952 8.01529 21.5975 7.99998 21.4102 7.99999 21.1829 8 20.9193V11.0807C7.99999 10.8172 7.99998 10.5898 8.01529 10.4025 8.03144 10.2048 8.06709 10.0082 8.16349 9.81904 8.3073 9.53679 8.53677 9.30732 8.81901 9.16351 9.0082 9.06711 9.20481 9.03146 9.40249 9.01531 9.58977 9 9.81715 9.00001 10.0807 9.00002L12.3294 9.00001ZM15.0068 10.2422C15.0068 9.96607 15.2307 9.74221 15.5068 9.74221H17.5068C17.783 9.74221 18.0068 9.96607 18.0068 10.2422 18.0068 10.5184 17.783 10.7422 17.5068 10.7422H15.5068C15.2307 10.7422 15.0068 10.5184 15.0068 10.2422ZM19.5 9.74221C19.2239 9.74221 19 9.96607 19 10.2422 19 10.5184 19.2239 10.7422 19.5 10.7422H21.5C21.7761 10.7422 22 10.5184 22 10.2422 22 9.96607 21.7761 9.74221 21.5 9.74221H19.5Z"/>
	</svg>
	