<?xml version="1.0"?>
	<svg xmlns="http://www.w3.org/2000/svg" 
		width="40" 
		height="40" 
		viewbox="0 0 40 40" 
		code="82825" 
		 transform=""
		><path d="M12.0459 28.1982C12.0459 29.7803 13.0615 30.7568 14.6826 30.7568H25.3076C26.9385 30.7568 27.9541 29.7803 27.9541 28.1982V11.8115C27.9541 10.2295 26.9385 9.24316 25.3076 9.24316H14.6826C13.0615 9.24316 12.0459 10.2295 12.0459 11.8115V28.1982ZM13.2568 28.0127V11.9873C13.2568 11.001 13.8135 10.4541 14.8291 10.4541H25.1709C26.1865 10.4541 26.7432 11.001 26.7432 11.9873V28.0127C26.7432 28.999 26.1865 29.5557 25.1709 29.5557H14.8291C13.8135 29.5557 13.2568 28.999 13.2568 28.0127ZM17.2803 27.8037H22.7197C22.9443 27.8037 23.1006 27.6475 23.1006 27.4229 23.1006 27.1885 22.9443 27.0322 22.7197 27.0322H17.2803C17.0654 27.0322 16.8994 27.1885 16.8994 27.4229 16.8994 27.6475 17.0654 27.8037 17.2803 27.8037Z"/>
	</svg>
	