<?xml version="1.0"?>
	<svg xmlns="http://www.w3.org/2000/svg" 
		width="30" 
		height="30" 
		viewbox="0 0 30 30" 
		code="81087" 
		 transform=""
		><path d="M29 12.3157895L29 25.5789474C29 27.1351579 27.7776674 28.4197389 26.2456771 28.5200155L26.0526316 28.5263158 21.6315789 28.5263158 21.6315789 12.3157895 29 12.3157895ZM8.36842105 12.3157895L8.36842105 28.5263158 3.94736842 28.5263158C2.39115789 28.5263158 1.10657684 27.3039832 1.00630029 25.7719929L1 25.5789474 1 12.3157895 8.36842105 12.3157895ZM18.6842105 12.3452632L18.6842105 28.5263158 11.3157895 28.5263158 11.3157895 12.3452632 18.6842105 12.3452632ZM3.94736842 2L26.0526316 2C27.6088421 2 28.8934232 3.22233263 28.9936997 4.75432286L29 4.94736842 29 9.36842105 1 9.36842105 1 4.94736842C1 3.39115789 2.22233263 2.10657684 3.75432286 2.00630029L3.94736842 2Z"/>
	</svg>
	