<?xml version="1.0"?>
	<svg xmlns="http://www.w3.org/2000/svg" 
		width="32" 
		height="32" 
		viewbox="0 0 32 32" 
		code="82827" 
		 transform=""
		><path d="M11.4062 8H20.5938C21.3751 8 22 8.68511 22 9.52V22.48C22 23.3149 21.3751 24 20.5938 24H11.4062C10.6249 24 10 23.3149 10 22.48V9.52C10 8.68511 10.6249 8 11.4062 8ZM20.9951 9.61209C20.9565 9.26661 20.6935 9 20.375 9H11.625L11.5466 9.00545C11.2386 9.04858 11 9.34268 11 9.7V22.3L11.0049 22.3879C11.0435 22.7334 11.3065 23 11.625 23H20.375L20.4534 22.9946C20.7614 22.9514 21 22.6573 21 22.3V9.7L20.9951 9.61209ZM19.5 20C19.7761 20 20 19.7761 20 19.5 20 19.2239 19.7761 19 19.5 19H12.5C12.2239 19 12 19.2239 12 19.5 12 19.7761 12.2239 20 12.5 20H19.5ZM15.2505 21.5998C15.2505 21.1574 15.5865 20.7998 16.0005 20.7998 16.4145 20.7998 16.7505 21.1574 16.7505 21.5998 16.7505 22.0422 16.4145 22.3998 16.0005 22.3998 15.5865 22.3998 15.2505 22.0422 15.2505 21.5998Z"/>
	</svg>
	