<?xml version="1.0"?>
	<svg xmlns="http://www.w3.org/2000/svg" 
		width="40" 
		height="40" 
		viewbox="0 0 40 40" 
		code="82826" 
		 transform=""
		><path d="M25.2617 9C26.8926 9 27.9082 9.98634 27.9082 11.56834L27.9082 11.56834 27.9082 27.95504C27.9082 29.53714 26.8926 30.51364 25.2617 30.51364L25.2617 30.51364 14.6367 30.51364C13.0156 30.51364 12 29.53714 12 27.95504L12 27.95504 12 11.56834C12 9.98634 13.0156 9 14.6367 9L14.6367 9ZM22.6738 27.31944L17.2344 27.31944C17.0195 27.31944 16.8535 27.47574 16.8535 27.71004 16.8535 27.93474 17.0195 28.09094 17.2344 28.09094L22.6738 28.09094C22.8984 28.09094 23.0547 27.93474 23.0547 27.71004 23.0547 27.47574 22.8984 27.31944 22.6738 27.31944Z"/>
	</svg>
	