<?xml version="1.0"?>
	<svg xmlns="http://www.w3.org/2000/svg" 
		width="24" 
		height="24" 
		viewbox="0 0 24 24" 
		code="82830" 
		 transform=""
		><path d="M16.5443 16.6H7.56154C6.52933 16.6 6 16.0787 6 15.0623V8.4429C6 7.47921 6.48699 7 7.36039 7H8.9378C9.46714 7 9.71063 7.08426 10.0547 7.38969L10.3617 7.65299C10.446 7.72717 10.5243 7.82355 10.604 7.92157 10.7845 8.14367 10.9719 8.37422 11.251 8.37422H16.4385C17.4707 8.37422 18 8.49556 18 9.5119V15.0623C18 16.0734 17.4707 16.6 16.5443 16.6ZM7.49272 7.64772C6.94221 7.64772 6.65637 7.92156 6.65637 8.48502V15.0255C6.65637 15.6363 6.97927 15.947 7.57742 15.947H16.4226C17.0049 15.947 17.3436 15.6363 17.3436 15.0307V9.5435C17.3436 9.00714 17.0779 9.01174 16.6126 9.0198 16.5525 9.02084 16.4891 9.02194 16.4226 9.02194H11.0922C10.6977 9.02194 10.4502 8.7525 10.2135 8.49489 10.1295 8.40341 10.0468 8.31342 9.95942 8.23752L9.6577 7.97948C9.37186 7.72145 9.16542 7.64772 8.779 7.64772H7.49272ZM15.9544 11.5143H8.04544C7.9064 11.5143 7.80417 11.3824 7.80417 11.2149 7.80417 11.0474 7.9064 10.9205 8.04544 10.9205H15.9544C16.0893 10.9205 16.1957 11.0474 16.1957 11.2149 16.1957 11.3824 16.0893 11.5143 15.9544 11.5143ZM13.2513 13.4794H8.04544C7.9064 13.4794 7.80417 13.3475 7.80417 13.18 7.80417 13.0125 7.9064 12.8856 8.04544 12.8856H13.2513C13.3862 12.8856 13.4926 13.0125 13.4926 13.18 13.4926 13.3475 13.3862 13.4794 13.2513 13.4794Z"/>
	</svg>
	