<?xml version="1.0"?>
	<svg xmlns="http://www.w3.org/2000/svg" 
		width="64" 
		height="64" 
		viewbox="0 0 64 64" 
		code="82829" 
		 transform=""
		><path d="M43.3608 44H20.9038C18.3233 44 17 42.6967 17 40.1558V23.6072C17 21.198 18.2175 20 20.401 20H24.3445C25.6678 20 26.2766 20.2106 27.1367 20.9742L27.9043 21.6325C28.115 21.8179 28.3108 22.0589 28.51 22.3039 28.9613 22.8592 29.4297 23.4355 30.1275 23.4355H43.0962C45.6767 23.4355 47 23.7389 47 26.2798V40.1558C47 42.6835 45.6767 44 43.3608 44ZM20.7318 21.6193C19.3555 21.6193 18.6409 22.3039 18.6409 23.7126V40.0636C18.6409 41.5908 19.4482 42.3675 20.9435 42.3675H43.0565C44.5121 42.3675 45.3591 41.5908 45.3591 40.0768V26.3587C45.3591 25.0178 44.6947 25.0294 43.5315 25.0495 43.3813 25.0521 43.2229 25.0549 43.0565 25.0549H29.7305C28.7442 25.0549 28.1254 24.3812 27.5338 23.7372 27.3237 23.5085 27.117 23.2836 26.8985 23.0938L26.1442 22.4487C25.4296 21.8036 24.9135 21.6193 23.9475 21.6193H20.7318ZM41.8863 31.2858H22.1139C21.7663 31.2858 21.5107 30.9559 21.5107 30.5372 21.5107 30.1185 21.7663 29.8013 22.1139 29.8013H41.8863C42.2237 29.8013 42.4895 30.1185 42.4895 30.5372 42.4895 30.9559 42.2237 31.2858 41.8863 31.2858ZM35.1285 36.1986H22.1139C21.7663 36.1986 21.5107 35.8687 21.5107 35.45 21.5107 35.0312 21.7663 34.714 22.1139 34.714H35.1285C35.4659 34.714 35.7317 35.0312 35.7317 35.45 35.7317 35.8687 35.4659 36.1986 35.1285 36.1986Z"/>
	</svg>
	