<?xml version="1.0"?>
	<svg xmlns="http://www.w3.org/2000/svg" 
		width="1024" 
		height="1024" 
		viewbox="0 0 1024 1024" 
		code="82828" 
		 transform=""
		><path d="M481.693 359.318c-16.278 0-24.846-2.99-35.984-12.821l-12.424-10.685c-13.922-12.394-23.774-15.813-45.194-15.813h-61.045c-35.555 0-55.046 19.446-55.046 58.55v263.053c0 41.456 21.419 62.397 63.186 62.397h357.912c37.483 0 58.902-21.37 58.902-62.397v-219.886c0-41.029-21.419-62.398-63.186-62.398h-207.122zM662.306 488.51h-316.358c-5.562 0-9.65-5.278-9.65-11.978s4.088-11.774 9.65-11.774h316.358c5.398 0 9.651 5.075 9.651 11.774s-4.253 11.978-9.651 11.978zM554.181 567.115h-208.234c-5.562 0-9.65-5.278-9.65-11.978 0-6.701 4.088-11.776 9.65-11.776h208.234c5.398 0 9.651 5.075 9.651 11.776 0 6.699-4.253 11.978-9.651 11.978z"/>
	</svg>
	