<?xml version="1.0"?>
	<svg xmlns="http://www.w3.org/2000/svg" 
		width="30" 
		height="30" 
		viewbox="0 0 30 30" 
		code="81089" 
		 transform=""
		><path d="M18.9452946 1C18.2925753 1 17.5718933 1.16317981 16.7832483 1.48953944 15.9946034 1.81589907 15.3663784 2.21332643 14.8985732 2.68182154L1.68411325 15.8776521C1.28504719 16.2978487 1.06057253 16.7795882 1.01068927 17.3228705L1 17.5605086C1 18.2132279 1.22803775 18.7676252 1.68411325 19.2237007L10.7587048 28.3169217C11.2389295 28.7729972 11.7995367 29.001035 12.4405264 29.001035 13.0932456 29.001035 13.647643 28.7729972 14.1037185 28.3169217L27.3181785 15.0838323C27.7866736 14.6277568 28.1841009 14.0053966 28.5104606 13.2167517 28.8368202 12.4281067 29 11.7074247 29 11.0547054L29 3.3659348C29 2.72494517 28.7657524 2.17054779 28.2972573 1.70274266 27.8287622 1.23493753 27.2743649 1.00068998 26.6340652 1L18.9452946 1ZM23.086198 4.5489022C23.7389172 4.5489022 24.2964195 4.78004485 24.7587048 5.24233015 25.2209901 5.70461546 25.4521328 6.26211774 25.4521328 6.91483699 25.4521328 7.56755625 25.2209901 8.12505852 24.7587048 8.58734383 24.2964195 9.04962914 23.7389172 9.28077179 23.086198 9.28077179 22.4334787 9.28077179 21.8759764 9.04962914 21.4136911 8.58734383 20.9514058 8.12505852 20.7202632 7.56755625 20.7202632 6.91483699 20.7202632 6.26211774 20.9514058 5.70461546 21.4136911 5.24233015 21.8759764 4.78004485 22.4334787 4.5489022 23.086198 4.5489022Z"/>
	</svg>
	