<?xml version="1.0"?>
	<svg xmlns="http://www.w3.org/2000/svg" 
		width="24" 
		height="24" 
		viewbox="0 0 24 24" 
		code="82831" 
		 transform=""
		><path d="M7.875 9C8.49632 9 9 8.49632 9 7.875 9 7.25368 8.49632 6.75 7.875 6.75 7.25368 6.75 6.75 7.25368 6.75 7.875 6.75 8.49632 7.25368 9 7.875 9ZM8.25 9.71249C8.98467 9.56336 9.56336 8.98467 9.71249 8.25H14.2875C14.4366 8.98467 15.0153 9.56336 15.75 9.71249V14.2875C15.0153 14.4366 14.4366 15.0153 14.2875 15.75H9.71249C9.56336 15.0153 8.98467 14.4366 8.25 14.2875V9.71249ZM7.5 14.2875V9.71249C6.64416 9.53877 6 8.78211 6 7.875 6 6.83947 6.83947 6 7.875 6 8.78211 6 9.53877 6.64416 9.71249 7.5H14.2875C14.4612 6.64416 15.2179 6 16.125 6 17.1605 6 18 6.83947 18 7.875 18 8.78211 17.3558 9.53877 16.5 9.71249V14.2875C17.3558 14.4612 18 15.2179 18 16.125 18 17.1605 17.1605 18 16.125 18 15.2179 18 14.4612 17.3558 14.2875 16.5H9.71249C9.53877 17.3558 8.78211 18 7.875 18 6.83947 18 6 17.1605 6 16.125 6 15.2179 6.64416 14.4612 7.5 14.2875ZM17.25 7.875C17.25 8.49632 16.7463 9 16.125 9 15.5037 9 15 8.49632 15 7.875 15 7.25368 15.5037 6.75 16.125 6.75 16.7463 6.75 17.25 7.25368 17.25 7.875ZM16.125 17.25C16.7463 17.25 17.25 16.7463 17.25 16.125 17.25 15.5037 16.7463 15 16.125 15 15.5037 15 15 15.5037 15 16.125 15 16.7463 15.5037 17.25 16.125 17.25ZM9 16.125C9 16.7463 8.49632 17.25 7.875 17.25 7.25368 17.25 6.75 16.7463 6.75 16.125 6.75 15.5037 7.25368 15 7.875 15 8.49632 15 9 15.5037 9 16.125Z"/>
	</svg>
	