<?xml version="1.0"?>
	<svg xmlns="http://www.w3.org/2000/svg" 
		width="30" 
		height="30" 
		viewbox="0 0 30 30" 
		code="81091" 
		 transform=""
		><path d="M6.41784386 15.7614104L16.5183573 25.8606827 11.0543181 27.3256C10.3087265 27.5247749 9.54389429 27.119794 9.27851003 26.4110052L9.23473001 26.2746204 6.41784386 15.7614104ZM3.60157831 12.9054267L6.99189535 25.55597 2.10159729 24.2462017C1.35542163 24.0452745 0.895656474 23.3119317 1.0203214 22.5661552L1.05061763 22.4263033 3.60157831 12.9054267ZM7.9463723 2L15.8654901 2.00093089C16.2040641 2.00120241 16.530522 2.11883448 16.7901924 2.33158443L16.8972313 2.42852168 28.4912095 14.0231205C29.03491 14.5668209 29.0688912 15.4271527 28.5931533 16.0106878L28.4912095 16.1235283 20.0874061 24.528573C19.796967 24.8187017 19.4168519 24.9639212 19.0367367 24.9639212 18.7041359 24.9639212 18.3715351 24.8529751 18.0990104 24.6306671L17.9860673 24.528573 6.39146852 12.9342844C6.15199597 12.6948119 6.00446376 12.3805042 5.97132247 12.0464483L5.96418804 11.902233 5.96449834 3.98187396C5.96449834 2.93719899 6.77338971 2.08110513 7.79851835 2.00543683L7.9463723 2 15.8654901 2.00093089 7.9463723 2ZM10.256852 4.37874523C9.4001189 4.37874523 8.70536146 5.07350268 8.70536146 5.93023573 8.70536146 6.78696879 9.4001189 7.48172623 10.256852 7.48172623 11.113585 7.48172623 11.8083425 6.78727909 11.8083425 5.93023573 11.8083425 5.07350268 11.113585 4.37874523 10.256852 4.37874523Z"/>
	</svg>
	