<?xml version="1.0"?>
	<svg xmlns="http://www.w3.org/2000/svg" 
		width="32" 
		height="32" 
		viewbox="0 0 32 32" 
		code="82832" 
		 transform=""
		><path d="M16 8C16.2761 8 16.5 8.22386 16.5 8.5V10.0205C19.4149 10.261 21.739 12.5851 21.9794 15.5H23.5C23.7761 15.5 24 15.7239 24 16 24 16.2761 23.7761 16.5 23.5 16.5H21.9794C21.739 19.4149 19.4149 21.739 16.5 21.9795V23.5C16.5 23.7761 16.2761 24 16 24 15.7238 24 15.5 23.7761 15.5 23.5V21.9795C12.5851 21.739 10.261 19.4149 10.0205 16.5H8.5C8.22386 16.5 8 16.2761 8 16 8 15.7239 8.22386 15.5 8.5 15.5H10.0205C10.261 12.5851 12.5851 10.261 15.5 10.0205V8.5C15.5 8.22386 15.7238 8 16 8ZM20.9753 15.5H18C17.7239 15.5 17.5 15.7239 17.5 16 17.5 16.2761 17.7239 16.5 18 16.5H20.9753C20.7408 18.8622 18.8622 20.7408 16.5 20.9753V18C16.5 17.7239 16.2761 17.5 16 17.5 15.7238 17.5 15.5 17.7239 15.5 18V20.9753C13.1378 20.7408 11.2592 18.8622 11.0247 16.5H14C14.2761 16.5 14.5 16.2761 14.5 16 14.5 15.7239 14.2761 15.5 14 15.5H11.0247C11.2592 13.1378 13.1378 11.2592 15.5 11.0247V14C15.5 14.2761 15.7238 14.5 16 14.5 16.2761 14.5 16.5 14.2761 16.5 14V11.0247C18.8622 11.2592 20.7408 13.1378 20.9753 15.5Z"/>
	</svg>
	