<?xml version="1.0"?>
	<svg xmlns="http://www.w3.org/2000/svg" 
		width="24" 
		height="24" 
		viewbox="0 0 24 24" 
		code="82835" 
		 transform=""
		><path d="M5 8C5 7.72386 5.22386 7.5 5.5 7.5H18.5C18.7761 7.5 19 7.72386 19 8 19 8.27614 18.7761 8.5 18.5 8.5H5.5C5.22386 8.5 5 8.27614 5 8ZM11 12C11 11.7239 11.2239 11.5 11.5 11.5H18.5C18.7761 11.5 19 11.7239 19 12 19 12.2761 18.7761 12.5 18.5 12.5H11.5C11.2239 12.5 11 12.2761 11 12ZM19 16C19 15.7239 18.7761 15.5 18.5 15.5H9.5C9.22386 15.5 9 15.7239 9 16 9 16.2761 9.22386 16.5 9.5 16.5H18.5C18.7761 16.5 19 16.2761 19 16Z"/>
	</svg>
	