<?xml version="1.0"?>
	<svg xmlns="http://www.w3.org/2000/svg" 
		width="32" 
		height="32" 
		viewbox="0 0 32 32" 
		code="82844" 
		 transform=""
		><path d="M24 9.53913C24 9.83478 23.7707 10.0696 23.4735 10.0696H8.52654C8.2293 10.0696 8 9.83478 8 9.53913 8 9.23478 8.2293 9 8.52654 9H23.4735C23.7707 9 24 9.23478 24 9.53913ZM24 13.8432C24 14.1475 23.7707 14.3823 23.4735 14.3823H8.52654C8.2293 14.3823 8 14.1475 8 13.8432 8 13.5388 8.2293 13.304 8.52654 13.304H23.4735C23.7707 13.304 24 13.5388 24 13.8432ZM23.4735 18.6866C23.7707 18.6866 24 18.4518 24 18.1561 24 17.8518 23.7707 17.617 23.4735 17.617H8.52654C8.2293 17.617 8 17.8518 8 18.1561 8 18.4518 8.2293 18.6866 8.52654 18.6866H23.4735ZM24.0005 22.4604C24.0005 22.7648 23.7712 22.9995 23.4739 22.9995H15.0578C14.7605 22.9995 14.5312 22.7648 14.5312 22.4604 14.5312 22.1561 14.7605 21.9213 15.0578 21.9213H23.4739C23.7712 21.9213 24.0005 22.1561 24.0005 22.4604Z"/>
	</svg>
	