<?xml version="1.0"?>
	<svg xmlns="http://www.w3.org/2000/svg" 
		width="24" 
		height="24" 
		viewbox="0 0 24 24" 
		code="82838" 
		 transform=""
		><path d="M5.5 5.75C5.22386 5.75 5 5.97386 5 6.25 5 6.52614 5.22386 6.75 5.5 6.75H18.5C18.7761 6.75 19 6.52614 19 6.25 19 5.97386 18.7761 5.75 18.5 5.75H5.5ZM12 8.04289L8.64645 11.3964C8.45118 11.5917 8.45118 11.9083 8.64645 12.1036 8.84171 12.2988 9.15829 12.2988 9.35355 12.1036L11.5 9.95711V17.75C11.5 18.0261 11.7239 18.25 12 18.25 12.2761 18.25 12.5 18.0261 12.5 17.75V9.95711L14.6464 12.1036C14.8417 12.2988 15.1583 12.2988 15.3536 12.1036 15.5488 11.9083 15.5488 11.5917 15.3536 11.3964L12 8.04289Z"/>
	</svg>
	