<?xml version="1.0"?>
	<svg xmlns="http://www.w3.org/2000/svg" 
		width="24" 
		height="24" 
		viewbox="0 0 24 24" 
		code="82837" 
		 transform=""
		><path d="M5.5 18.25C5.22386 18.25 5 18.0261 5 17.75 5 17.4739 5.22386 17.25 5.5 17.25H18.5C18.7761 17.25 19 17.4739 19 17.75 19 18.0261 18.7761 18.25 18.5 18.25H5.5ZM12 15.9571L8.64645 12.6036C8.45118 12.4083 8.45118 12.0917 8.64645 11.8964 8.84171 11.7012 9.15829 11.7012 9.35355 11.8964L11.5 14.0429V6.25C11.5 5.97386 11.7239 5.75 12 5.75 12.2761 5.75 12.5 5.97386 12.5 6.25V14.0429L14.6464 11.8964C14.8417 11.7012 15.1583 11.7012 15.3536 11.8964 15.5488 12.0917 15.5488 12.4083 15.3536 12.6036L12 15.9571Z"/>
	</svg>
	