<?xml version="1.0"?>
	<svg xmlns="http://www.w3.org/2000/svg" 
		width="32" 
		height="32" 
		viewbox="0 0 32 32" 
		code="82854" 
		 transform=""
		><path d="M9.5 8C9.22386 8 9 8.22386 9 8.5 9 8.77614 9.22386 9 9.5 9H22.5C22.7761 9 23 8.77614 23 8.5 23 8.22386 22.7761 8 22.5 8H9.5ZM9.5 23C9.22386 23 9 23.2239 9 23.5 9 23.7761 9.22386 24 9.5 24H22.5C22.7761 24 23 23.7761 23 23.5 23 23.2239 22.7761 23 22.5 23H9.5ZM9 21C9 20.7239 9.22386 20.5 9.5 20.5H22.5C22.7761 20.5 23 20.7239 23 21 23 21.2761 22.7761 21.5 22.5 21.5H9.5C9.22386 21.5 9 21.2761 9 21ZM15.8536 10.5297C15.6583 10.3345 15.3417 10.3345 15.1464 10.5297L12.6464 13.0297C12.4512 13.225 12.4512 13.5416 12.6464 13.7369 12.8417 13.9321 13.1583 13.9321 13.3536 13.7369L15 12.0904V17.6762L13.3536 16.0297C13.1583 15.8345 12.8417 15.8345 12.6464 16.0297 12.4512 16.225 12.4512 16.5416 12.6464 16.7369L15.1464 19.2369C15.3417 19.4321 15.6583 19.4321 15.8536 19.2369L18.3536 16.7369C18.5488 16.5416 18.5488 16.225 18.3536 16.0297 18.1583 15.8345 17.8417 15.8345 17.6464 16.0297L16 17.6762V12.0904L17.6464 13.7369C17.8417 13.9321 18.1583 13.9321 18.3536 13.7369 18.5488 13.5416 18.5488 13.225 18.3536 13.0297L15.8536 10.5297Z"/>
	</svg>
	