<?xml version="1.0"?>
	<svg xmlns="http://www.w3.org/2000/svg" 
		width="24" 
		height="24" 
		viewbox="0 0 24 24" 
		code="82848" 
		 transform=""
		><path d="M8.5 5C8.22386 5 8 5.22386 8 5.5 8 5.77614 8.22386 6 8.5 6H16.5C16.7761 6 17 5.77614 17 5.5 17 5.22386 16.7761 5 16.5 5H8.5ZM12.4874 19C15.2269 19 17 17.1532 17 13.9487V12.1441C17 8.93113 15.2605 7 12.5126 7 9.77311 7 8 8.93113 8 12.1356V13.9487C8 17.1532 9.7395 19 12.4874 19ZM12.5 18C10.476 18 9 16.6473 9 13.9846V12.1182C9 9.44692 10.4848 8 12.5 8 14.5328 8 16 9.44692 16 12.1182V13.9846C16 16.6473 14.5328 18 12.5 18Z"/>
	</svg>
	