<?xml version="1.0"?>
	<svg xmlns="http://www.w3.org/2000/svg" 
		width="24" 
		height="24" 
		viewbox="0 0 24 24" 
		code="82842" 
		 transform=""
		><path d="M8.76923 6.92296C8.76923 6.66806 8.97587 6.46143 9.23077 6.46143H17.5385C17.7934 6.46143 18 6.66806 18 6.92296 18 7.17786 17.7934 7.3845 17.5385 7.3845H14.2212L9.91462 16.6153H14.7692C15.0241 16.6153 15.2308 16.8219 15.2308 17.0768 15.2308 17.3317 15.0241 17.5383 14.7692 17.5383H6.46154C6.20664 17.5383 6 17.3317 6 17.0768 6 16.8219 6.20664 16.6153 6.46154 16.6153H8.89603L13.2026 7.3845H9.23077C8.97587 7.3845 8.76923 7.17786 8.76923 6.92296Z"/>
	</svg>
	