<?xml version="1.0"?>
	<svg xmlns="http://www.w3.org/2000/svg" 
		width="24" 
		height="24" 
		viewbox="0 0 24 24" 
		code="82856" 
		 transform=""
		><path d="M6.58459 16.4999L7.46259 14.0279H10.9896L11.8676 16.4999H12.9756L9.77159 7.77295H8.68159L5.47559 16.4999H6.58459ZM7.79459 13.0899L9.19259 9.15295H9.26059L10.6586 13.0909 7.79459 13.0899ZM13.8746 17.9999H17.8126V17.2499H15.2046V17.2159L16.3126 16.2439C17.2506 15.426 17.6596 14.9489 17.6596 14.2499 17.6596 13.3639 16.8926 12.6989 15.7676 12.6989 14.6426 12.6989 13.8416 13.3469 13.8416 14.3189H14.7276C14.7276 13.7889 15.1376 13.4319 15.7506 13.4319 16.3306 13.4319 16.7736 13.7559 16.7736 14.2669 16.7736 14.7099 16.4666 15.0339 15.8696 15.5629L13.8756 17.3349V17.9999H13.8746Z"/>
	</svg>
	