<?xml version="1.0"?>
	<svg xmlns="http://www.w3.org/2000/svg" 
		width="32" 
		height="32" 
		viewbox="0 0 32 32" 
		code="82843" 
		 transform=""
		><path d="M24 9.53913C24 9.83478 23.7707 10.0696 23.4735 10.0696H8.52654C8.2293 10.0696 8 9.83478 8 9.53913 8 9.23478 8.2293 9 8.52654 9H23.4735C23.7707 9 24 9.23478 24 9.53913ZM24 13.8432C24 14.1475 23.7707 14.3823 23.4735 14.3823H8.52654C8.2293 14.3823 8 14.1475 8 13.8432 8 13.5388 8.2293 13.304 8.52654 13.304H23.4735C23.7707 13.304 24 13.5388 24 13.8432ZM23.4735 18.6866C23.7707 18.6866 24 18.4518 24 18.1561 24 17.8518 23.7707 17.617 23.4735 17.617H8.52654C8.2293 17.617 8 17.8518 8 18.1561 8 18.4518 8.2293 18.6866 8.52654 18.6866H23.4735ZM17.4692 22.4604C17.4692 22.7648 17.2314 22.9995 16.9342 22.9995H8.52654C8.2293 22.9995 8 22.7648 8 22.4604 8 22.1561 8.2293 21.9213 8.52654 21.9213H16.9342C17.2314 21.9213 17.4692 22.1561 17.4692 22.4604Z"/>
	</svg>
	