<?xml version="1.0"?>
	<svg xmlns="http://www.w3.org/2000/svg" 
		width="24" 
		height="24" 
		viewbox="0 0 24 24" 
		code="82865" 
		 transform=""
		><path d="M6.03378 16.3139L6.91178 13.8419H10.4398L11.3178 16.3139H12.4258L9.22178 7.58691H8.13078L4.92578 16.3139H6.03378ZM7.24378 12.9039L8.64178 8.96691H8.70978L10.1078 12.9049 7.24378 12.9039ZM17.8998 11.3389H19.0248C18.7798 9.92191 17.5688 8.94191 15.9998 8.94191 14.1178 8.94191 12.7438 10.3589 12.7438 12.6819 12.7438 14.9819 14.0788 16.4129 16.0498 16.4129 17.8138 16.4129 19.0748 15.2559 19.0748 13.4199V12.5919H16.2168V13.4979H18.0128C17.9888 14.6699 17.2138 15.4119 16.0498 15.4119 14.7678 15.4119 13.8338 14.4419 13.8338 12.6739 13.8338 10.9129 14.7738 9.94391 16.0068 9.94391 16.9728 9.94391 17.6268 10.4759 17.8998 11.3389Z"/>
	</svg>
	