<?xml version="1.0"?>
	<svg xmlns="http://www.w3.org/2000/svg" 
		width="24" 
		height="24" 
		viewbox="0 0 24 24" 
		code="82867" 
		 transform=""
		><path d="M9.5 7C9.5 6.72386 9.27614 6.5 9 6.5 8.72386 6.5 8.5 6.72386 8.5 7V12.5C8.5 14.433 10.067 16 12 16 13.933 16 15.5 14.433 15.5 12.5V7C15.5 6.72386 15.2761 6.5 15 6.5 14.7239 6.5 14.5 6.72386 14.5 7V12.5C14.5 13.8807 13.3807 15 12 15 10.6193 15 9.5 13.8807 9.5 12.5V7ZM6 18C5.72386 18 5.5 18.2239 5.5 18.5 5.5 18.7761 5.72386 19 6 19H18C18.2761 19 18.5 18.7761 18.5 18.5 18.5 18.2239 18.2761 18 18 18H6Z"/>
	</svg>
	