<?xml version="1.0"?>
	<svg xmlns="http://www.w3.org/2000/svg" 
		width="24" 
		height="24" 
		viewbox="0 0 24 24" 
		code="82833" 
		 transform=""
		><path d="M5 8C5 7.72386 5.22386 7.5 5.5 7.5H18.5C18.7761 7.5 19 7.72386 19 8 19 8.27614 18.7761 8.5 18.5 8.5H5.5C5.22386 8.5 5 8.27614 5 8ZM5 12C5 11.7239 5.22386 11.5 5.5 11.5H12.5C12.7761 11.5 13 11.7239 13 12 13 12.2761 12.7761 12.5 12.5 12.5H5.5C5.22386 12.5 5 12.2761 5 12ZM15 16C15 15.7239 14.7761 15.5 14.5 15.5H5.5C5.22386 15.5 5 15.7239 5 16 5 16.2761 5.22386 16.5 5.5 16.5H14.5C14.7761 16.5 15 16.2761 15 16Z"/>
	</svg>
	