<?xml version="1.0"?>
	<svg xmlns="http://www.w3.org/2000/svg" 
		width="24" 
		height="24" 
		viewbox="0 0 24 24" 
		code="82855" 
		 transform=""
		><path d="M5.72714 16.4998L6.60514 14.0278H10.1341L11.0101 16.4998H12.1201L8.91514 7.77281H7.82414L4.61914 16.4998H5.72714ZM6.93714 13.0898L8.33514 9.15281H8.40314L9.80114 13.0908 6.93714 13.0898ZM13.3251 16.4998H18.8311V15.5618H14.7741V15.4938L16.7341 13.3978C18.2341 11.7908 18.6781 11.0408 18.6781 10.0738 18.6781 8.72681 17.5871 7.65381 16.0531 7.65381 14.5231 7.65381 13.3591 8.69381 13.3591 10.2268H14.3651C14.3651 9.23381 15.0081 8.57381 16.0181 8.57381 16.9641 8.57381 17.6881 9.15381 17.6881 10.0738 17.6881 10.8788 17.2161 11.4758 16.2061 12.5798L13.3261 15.7328V16.4998H13.3251Z"/>
	</svg>
	