<?xml version="1.0"?>
	<svg xmlns="http://www.w3.org/2000/svg" 
		width="1024" 
		height="1024" 
		viewbox="0 0 1024 1024" 
		code="82840" 
		 transform=""
		><path d="M703.509 288c42.848 0 64.491 24.738 64.491 72.482v169.934c-2.584 1.187-5.157 3.15-7.37 5.79l-166.467 198.387c-0.389 0.462-0.754 0.931-1.098 1.406h-272.574c-42.629 0-64.491-24.49-64.491-72.234v-303.285c0-47.992 21.862-72.482 64.491-72.482h383.018zM768 560.41v103.357c0 47.496-21.643 72.234-64.491 72.234v0h-82.846l147.338-175.59zM346.211 374.122c-5.398 0-9.743 3.975-10.489 9.296l-0.113 1.634v179.349c0 6.12 4.664 10.93 10.602 10.93 5.398 0 9.743-3.975 10.489-9.296l0.113-1.634v-179.349c0-6.12-4.664-10.93-10.602-10.93z"/>
	</svg>
	