<?xml version="1.0"?>
	<svg xmlns="http://www.w3.org/2000/svg" 
		width="24" 
		height="24" 
		viewbox="0 0 24 24" 
		code="82859" 
		 transform=""
		><path d="M5 8C5 7.72386 5.22386 7.5 5.5 7.5H18.5C18.7761 7.5 19 7.72386 19 8 19 8.27614 18.7761 8.5 18.5 8.5H5.5C5.22386 8.5 5 8.27614 5 8ZM5 12C5 11.7239 5.22386 11.5 5.5 11.5H18.5C18.7761 11.5 19 11.7239 19 12 19 12.2761 18.7761 12.5 18.5 12.5H5.5C5.22386 12.5 5 12.2761 5 12ZM5.5 15.5C5.22386 15.5 5 15.7239 5 16 5 16.2761 5.22386 16.5 5.5 16.5H13.5C13.7761 16.5 14 16.2761 14 16 14 15.7239 13.7761 15.5 13.5 15.5H5.5Z"/>
	</svg>
	