<?xml version="1.0"?>
	<svg xmlns="http://www.w3.org/2000/svg" 
		width="24" 
		height="24" 
		viewbox="0 0 24 24" 
		code="82862" 
		 transform=""
		><path d="M6.01134 15.0678L6.88934 12.5958H10.4173L11.2953 15.0678H12.4033L9.19734 6.34082H8.10734L4.90234 15.0678H6.01134ZM7.22134 11.6578L8.61934 7.72082H8.68734L10.0853 11.6588 7.22134 11.6578ZM16.2683 17.6578C17.8363 17.6578 19.0983 16.9428 19.0983 15.2558V8.52282H18.1263V9.56282H18.0243C17.8023 9.22082 17.3933 8.43682 16.1143 8.43682 14.4613 8.43682 13.3193 9.74982 13.3193 11.7608 13.3193 13.8068 14.5123 14.9658 16.0973 14.9658 17.3763 14.9658 17.7853 14.2158 18.0073 13.8578H18.0923V15.1878C18.0923 16.2778 17.3253 16.7728 16.2683 16.7728 15.0793 16.7728 14.6613 16.1458 14.3933 15.7828L13.5923 16.3458C14.0013 17.0318 14.8063 17.6578 16.2683 17.6578ZM16.2343 14.0618C14.9733 14.0618 14.3243 13.1078 14.3243 11.7438 14.3243 10.4138 14.9553 9.34082 16.2343 9.34082 17.4613 9.34082 18.1093 10.3288 18.1093 11.7438 18.1093 13.1928 17.4443 14.0618 16.2343 14.0618Z"/>
	</svg>
	