<?xml version="1.0"?>
	<svg xmlns="http://www.w3.org/2000/svg" 
		width="64" 
		height="64" 
		viewbox="0 0 64 64" 
		code="82841" 
		 transform=""
		><path d="M43.9693 18C46.5636125 18 47.914162 19.2436691 47.9960378 21.6467293L48 21.8829 48 42.1303C48 44.5952844 46.7305228 45.9159843 44.2164789 45.9961208L43.9693 46 20.0307 46C17.4496594 46 16.0866675 44.7687188 16.004001 42.3664328L16 42.1303 16 21.8829C16 19.3923406 17.2823344 18.0832294 19.7847264 18.0038421L20.0307 18 43.9693 18ZM43.9419 19.6433L20.0581 19.6433C18.5915625 19.6433 17.7649681 20.373522 17.6986313 21.7757892L17.6943 21.9625 17.6943 42.0375C17.6943 43.5107458 18.4597887 44.2902302 19.8704516 44.3526295L20.0581 44.3567 37.6185 44.3567C37.6425 44.3066333 37.6714333 44.2573222 37.7052407 44.2095074L37.7596 44.139 46.3057 33.9541 46.3057 21.9625C46.3057 20.4384 45.4449 19.6433 43.9419 19.6433ZM46.3057 36.0158L39.3069 44.3567 43.9419 44.3567C45.4449 44.3567 46.3057 43.5748 46.3057 42.0375L46.3057 36.0158ZM21.3374 22.7122C21.7084 22.7122 22 23.0128 22 23.3953L22 34.6046C22 34.9871 21.7084 35.2877 21.3374 35.2877 20.9663 35.2877 20.6748 34.9871 20.6748 34.6046L20.6748 23.3953C20.6748 23.0128 20.9663 22.7122 21.3374 22.7122Z"/>
	</svg>
	