<?xml version="1.0"?>
	<svg xmlns="http://www.w3.org/2000/svg" 
		width="24" 
		height="24" 
		viewbox="0 0 24 24" 
		code="82861" 
		 transform=""
		><path d="M9.90385 7.29714C10.5559 6.76942 11.4276 6.5 12.3486 6.5 13.2557 6.5 14.1045 6.72833 14.7557 7.24249 15.4171 7.7647 15.825 8.5433 15.9049 9.53679 15.927 9.81204 15.7219 10.0531 15.4466 10.0753 15.1714 10.0974 14.9303 9.89225 14.9081 9.617 14.8478 8.86771 14.5546 8.35785 14.136 8.02732 13.7071 7.68872 13.0972 7.5 12.3486 7.5 11.6141 7.5 10.9765 7.71549 10.533 8.07444 10.0989 8.4258 9.82985 8.92887 9.82985 9.57689 9.82985 10.1922 10.1148 10.5901 10.469 10.8693 10.529 10.9166 10.5906 10.96 10.6526 11H9.2422C8.99669 10.6266 8.82985 10.1578 8.82985 9.57689 8.82985 8.61783 9.24245 7.83246 9.90385 7.29714ZM14.8235 14H15.893C15.9616 14.2406 16 14.507 16 14.8014 16 15.7725 15.6269 16.5937 14.9353 17.1625 14.2549 17.722 13.3131 18 12.228 18 11.1275 18 10.2415 17.6893 9.59988 17.1211 8.95968 16.5542 8.6107 15.7735 8.50389 14.9219 8.46952 14.6479 8.66378 14.3979 8.93777 14.3636 9.21177 14.3292 9.46175 14.5234 9.49611 14.7974 9.57892 15.4577 9.83893 15.9971 10.2628 16.3724 10.6852 16.7465 11.3184 17 12.228 17 13.1527 17 13.847 16.7628 14.3001 16.3901 14.7421 16.0266 15 15.4985 15 14.8014 15 14.4771 14.9337 14.2154 14.8235 14ZM6 12C5.72386 12 5.5 12.2239 5.5 12.5 5.5 12.7761 5.72386 13 6 13H18C18.2761 13 18.5 12.7761 18.5 12.5 18.5 12.2239 18.2761 12 18 12H6Z"/>
	</svg>
	