<?xml version="1.0"?>
	<svg xmlns="http://www.w3.org/2000/svg" 
		width="32" 
		height="32" 
		viewbox="0 0 32 32" 
		code="82853" 
		 transform=""
		><path d="M17.3333 22.2222H16.4167V9.77778H19.1667V10.6667C19.1667 11.1576 19.5771 11.5556 20.0833 11.5556 20.5896 11.5556 21 11.1576 21 10.6667V8.88889C21.0001 8.65312 20.9035 8.42699 20.7316 8.26028 20.5597 8.09357 20.3265 7.99994 20.0833 8H10.9167C10.6735 7.99994 10.4403 8.09357 10.2684 8.26028 10.0965 8.42699 9.99994 8.65312 10 8.88889V10.6667C10 11.1576 10.4104 11.5556 10.9167 11.5556 11.4229 11.5556 11.8333 11.1576 11.8333 10.6667V9.77778H14.5833V22.2222H13.6667C13.1604 22.2222 12.75 22.6202 12.75 23.1111 12.75 23.602 13.1604 24 13.6667 24H17.3333C17.8396 24 18.25 23.602 18.25 23.1111 18.25 22.6202 17.8396 22.2222 17.3333 22.2222Z"/>
	</svg>
	