<?xml version="1.0"?>
	<svg xmlns="http://www.w3.org/2000/svg" 
		width="24" 
		height="24" 
		viewbox="0 0 24 24" 
		code="82839" 
		 transform=""
		><path d="M12 9.92586L14.3536 7.5723C14.5488 7.37704 14.5488 7.06046 14.3536 6.8652 14.1583 6.66993 13.8417 6.66993 13.6464 6.8652L12.5 8.01164V3.71875C12.5 3.44261 12.2761 3.21875 12 3.21875 11.7239 3.21875 11.5 3.44261 11.5 3.71875V8.01164L10.3536 6.8652C10.1583 6.66993 9.84171 6.66993 9.64645 6.8652 9.45118 7.06046 9.45118 7.37704 9.64645 7.5723L12 9.92586ZM12 13.5116L14.3536 15.8652C14.5488 16.0605 14.5488 16.377 14.3536 16.5723 14.1583 16.7676 13.8417 16.7676 13.6464 16.5723L12.5 15.4259V19.7188C12.5 19.9949 12.2761 20.2188 12 20.2188 11.7239 20.2188 11.5 19.9949 11.5 19.7188V15.4259L10.3536 16.5723C10.1583 16.7676 9.84171 16.7676 9.64645 16.5723 9.45118 16.377 9.45118 16.0605 9.64645 15.8652L12 13.5116ZM5 11.2188C4.72386 11.2188 4.5 11.4426 4.5 11.7188 4.5 11.9949 4.72386 12.2188 5 12.2188H19C19.2761 12.2188 19.5 11.9949 19.5 11.7188 19.5 11.4426 19.2761 11.2188 19 11.2188H5Z"/>
	</svg>
	