<?xml version="1.0"?>
	<svg xmlns="http://www.w3.org/2000/svg" 
		width="32" 
		height="32" 
		viewbox="0 0 32 32" 
		code="82846" 
		 transform=""
		><path d="M8.5 10C8.77614 10 9 10.2239 9 10.5L9 21.5C9 21.7761 8.77614 22 8.5 22 8.22386 22 8 21.7761 8 21.5L8 10.5C8 10.2239 8.22386 10 8.5 10ZM23.5 10C23.7761 10 24 10.2239 24 10.5L24 21.5C24 21.7761 23.7761 22 23.5 22 23.2239 22 23 21.7761 23 21.5L23 10.5C23 10.2239 23.2239 10 23.5 10ZM16.6519 12L19.4519 20 18.4983 20 17.7983 18 14.2019 18 13.5019 20 12.5483 20 15.3483 12 16.6519 12ZM16.0001 12.8622L14.5519 17 17.4483 17 16.0001 12.8622Z"/>
	</svg>
	