<?xml version="1.0"?>
	<svg xmlns="http://www.w3.org/2000/svg" 
		width="24" 
		height="24" 
		viewbox="0 0 24 24" 
		code="82864" 
		 transform=""
		><path d="M7.96347 14.1732C9.10547 14.1732 9.70147 13.5602 9.90647 13.1332H9.95647V14.0202H10.9635V9.70716C10.9635 7.62816 9.37847 7.38916 8.54347 7.38916 7.55447 7.38916 6.42947 7.73016 5.91847 8.92316L6.87347 9.26416C7.09447 8.78716 7.61847 8.27616 8.57747 8.27616 9.50247 8.27616 9.95747 8.76616 9.95747 9.60616V9.63916C9.95747 10.1252 9.46347 10.0832 8.27047 10.2362 7.05647 10.3942 5.73047 10.6622 5.73047 12.1622 5.73047 13.4412 6.72047 14.1732 7.96347 14.1732ZM8.11647 13.2702C7.31547 13.2702 6.73647 12.9122 6.73647 12.2132 6.73647 11.4462 7.43447 11.2082 8.21847 11.1052 8.64447 11.0552 9.78647 10.9352 9.95747 10.7302V11.6502C9.95747 12.4692 9.30947 13.2702 8.11647 13.2702ZM15.4405 16.6102C17.0085 16.6102 18.2705 15.8952 18.2705 14.2082V7.47516H17.2985V8.51516H17.1965C16.9745 8.17316 16.5665 7.38916 15.2865 7.38916 13.6335 7.38916 12.4915 8.70216 12.4915 10.7132 12.4915 12.7592 13.6845 13.9182 15.2705 13.9182 16.5485 13.9182 16.9575 13.1682 17.1795 12.8102H17.2645V14.1402C17.2645 15.2302 16.4975 15.7252 15.4405 15.7252 14.2515 15.7252 13.8345 15.0982 13.5655 14.7352L12.7645 15.2982C13.1745 15.9842 13.9785 16.6102 15.4405 16.6102ZM15.4065 13.0142C14.1455 13.0142 13.4965 12.0602 13.4965 10.6962 13.4965 9.36616 14.1285 8.29316 15.4065 8.29316 16.6335 8.29316 17.2815 9.28116 17.2815 10.6962 17.2815 12.1452 16.6165 13.0142 15.4065 13.0142Z"/>
	</svg>
	