<?xml version="1.0"?>
	<svg xmlns="http://www.w3.org/2000/svg" 
		width="32" 
		height="32" 
		viewbox="0 0 32 32" 
		code="82860" 
		 transform=""
		><path d="M8.5223 10C8.51491 9.99968 8.50747 9.99951 8.5 9.99951 8.22386 9.99951 8 10.2234 8 10.4995V11.9995C8 12.2757 8.22386 12.4995 8.5 12.4995 8.77614 12.4995 9 12.2757 9 11.9995L9 11H12L12 22H11C10.7239 22 10.5 22.2239 10.5 22.5 10.5 22.7761 10.7239 23 11 23H14C14.2761 23 14.5 22.7761 14.5 22.5 14.5 22.2239 14.2761 22 14 22H13L13 11H16V11.9995C16 12.2757 16.2239 12.4995 16.5 12.4995 16.7761 12.4995 17 12.2757 17 11.9995V10.5C17 10.2239 16.7761 9.99951 16.5 9.99951 16.4925 9.99951 16.4851 9.99968 16.4777 10H8.5223ZM18.5 14C18.2239 14 18 14.2239 18 14.5V15.5C18 15.7761 18.2239 16 18.5 16 18.7761 16 19 15.7761 19 15.5V15H20.5L20.5 22H19.498C19.2219 22 18.998 22.2239 18.998 22.5 18.998 22.7761 19.2219 23 19.498 23H22.4999C22.776 23 22.9999 22.7761 22.9999 22.5 22.9999 22.2239 22.776 22 22.4999 22H21.5L21.5 15H23V15.5C23 15.7761 23.2239 16 23.5 16 23.7761 16 24 15.7761 24 15.5V14.5428C24.0012 14.5287 24.0018 14.5144 24.0018 14.5 24.0018 14.2239 23.7779 14 23.5018 14H18.5Z"/>
	</svg>
	