<?xml version="1.0"?>
	<svg xmlns="http://www.w3.org/2000/svg" 
		width="24" 
		height="24" 
		viewbox="0 0 24 24" 
		code="82863" 
		 transform=""
		><path d="M17.5268 10.6616H18.6508C18.4058 9.24465 17.1948 8.26465 15.6258 8.26465 13.7438 8.26465 12.3698 9.68165 12.3698 12.0046 12.3698 14.3046 13.7048 15.7356 15.6758 15.7356 17.4398 15.7356 18.7008 14.5786 18.7008 12.7426V11.9146H15.8428V12.8206H17.6388C17.6148 13.9926 16.8398 14.7346 15.6758 14.7346 14.3938 14.7346 13.4598 13.7646 13.4598 11.9966 13.4598 10.2356 14.3998 9.26665 15.6328 9.26665 16.5988 9.26665 17.2538 9.79865 17.5268 10.6616ZM6.46283 15.6366L7.13083 13.7116H9.97083L10.6358 15.6366H11.8008L9.18383 8.36365H7.91583L5.29883 15.6366H6.46283ZM7.45083 12.7886L8.52283 9.68465H8.57983L9.65083 12.7886H7.45083Z"/>
	</svg>
	