<?xml version="1.0"?>
	<svg xmlns="http://www.w3.org/2000/svg" 
		width="24" 
		height="24" 
		viewbox="0 0 24 24" 
		code="82834" 
		 transform=""
		><path d="M5 8C5 7.72386 5.22386 7.5 5.5 7.5H18.5C18.7761 7.5 19 7.72386 19 8 19 8.27614 18.7761 8.5 18.5 8.5H5.5C5.22386 8.5 5 8.27614 5 8ZM8 12C8 11.7239 8.22386 11.5 8.5 11.5H15.5C15.7761 11.5 16 11.7239 16 12 16 12.2761 15.7761 12.5 15.5 12.5H8.5C8.22386 12.5 8 12.2761 8 12ZM17 16C17 15.7239 16.7761 15.5 16.5 15.5H7.5C7.22386 15.5 7 15.7239 7 16 7 16.2761 7.22386 16.5 7.5 16.5H16.5C16.7761 16.5 17 16.2761 17 16Z"/>
	</svg>
	