<?xml version="1.0"?>
	<svg xmlns="http://www.w3.org/2000/svg" 
		width="24" 
		height="24" 
		viewbox="0 0 24 24" 
		code="82857" 
		 transform=""
		><path d="M6.93517 16.4999L7.81317 14.0279H11.3402L12.2182 16.4999H13.3262L10.1222 7.77294H9.03217L5.82617 16.4999H6.93517ZM8.14517 13.0899L9.54317 9.15294H9.61117L11.0092 13.0909 8.14517 13.0899ZM13.6252 12.1359H17.5632V11.3859H14.9552V11.3519L16.0632 10.3809C17.0012 9.56194 17.4102 9.08494 17.4102 8.38594 17.4102 7.49994 16.6432 6.83594 15.5182 6.83594 14.3932 6.83594 13.5922 7.48294 13.5922 8.45494H14.4782C14.4782 7.92594 14.8882 7.56794 15.5012 7.56794 16.0812 7.56794 16.5242 7.89194 16.5242 8.40294 16.5242 8.84694 16.2172 9.16994 15.6202 9.69894L13.6262 11.4719V12.1359H13.6252Z"/>
	</svg>
	