<?xml version="1.0"?>
	<svg xmlns="http://www.w3.org/2000/svg" 
		width="32" 
		height="32" 
		viewbox="0 0 32 32" 
		code="82847" 
		 transform=""
		><path d="M22.5 22C22.7761 22 23 22.2239 23 22.5 23 22.7761 22.7761 23 22.5 23L9.5 23C9.22386 23 9 22.7761 9 22.5 9 22.2239 9.22386 22 9.5 22L22.5 22ZM16.6519 12L19.4519 20 18.4983 20 17.7983 18 14.2019 18 13.5019 20 12.5483 20 15.3483 12 16.6519 12ZM16.0001 12.8622L14.5519 17 17.4483 17 16.0001 12.8622ZM22.5 9C22.7761 9 23 9.22386 23 9.5 23 9.77614 22.7761 10 22.5 10L9.5 10C9.22386 10 9 9.77614 9 9.5 9 9.22386 9.22386 9 9.5 9L22.5 9Z"/>
	</svg>
	