<?xml version="1.0"?>
	<svg xmlns="http://www.w3.org/2000/svg" 
		width="24" 
		height="24" 
		viewbox="0 0 24 24" 
		code="82836" 
		 transform=""
		><path d="M15.9948 9.5C15.9948 9.04037 15.9044 8.58525 15.7286 8.16061 15.5528 7.73597 15.2951 7.35013 14.9703 7.02513 14.6455 6.70012 14.2599 6.44231 13.8355 6.26642 13.4111 6.09053 12.9562 6 12.4968 6H7.99943C7.73436 6 7.48015 6.10536 7.29273 6.29289 7.1053 6.48043 7 6.73478 7 7V17C7 17.2652 7.1053 17.5196 7.29273 17.7071 7.48015 17.8946 7.73436 18 7.99943 18H12.4968C13.1931 18.003 13.8744 17.7975 14.4529 17.4098 15.0314 17.0221 15.4808 16.4701 15.743 15.8247 16.0053 15.1794 16.0686 14.4703 15.9247 13.7886 15.7807 13.107 15.4362 12.4841 14.9354 12 15.2696 11.6749 15.5354 11.2863 15.7173 10.857 15.8993 10.4277 15.9936 9.96631 15.9948 9.5ZM12.4968 16H8.99885V13H12.4968C12.8944 13 13.2758 13.158 13.5569 13.4393 13.838 13.7206 13.996 14.1022 13.996 14.5 13.996 14.8978 13.838 15.2794 13.5569 15.5607 13.2758 15.842 12.8944 16 12.4968 16ZM12.4968 11H8.99885V8H12.4968C12.8944 8 13.2758 8.15804 13.5569 8.43934 13.838 8.72064 13.996 9.10218 13.996 9.5 13.996 9.89782 13.838 10.2794 13.5569 10.5607 13.2758 10.842 12.8944 11 12.4968 11Z"/>
	</svg>
	