<?xml version="1.0"?>
	<svg xmlns="http://www.w3.org/2000/svg" 
		width="24" 
		height="24" 
		viewbox="0 0 24 24" 
		code="82866" 
		 transform=""
		><path d="M5.88477 16L6.68945 13.7344H9.92383L10.7285 16H11.7441L8.80664 8H7.80664L4.86914 16H5.88477ZM6.99414 12.875L8.27539 9.26562H8.33789L9.61914 12.875H6.99414ZM18.083 10.5H19.083C18.7861 8.95313 17.4893 7.89062 15.8018 7.89062 13.751 7.89062 12.3018 9.46875 12.3018 12 12.3018 14.5312 13.7393 16.1094 15.8643 16.1094 17.7705 16.1094 19.1299 14.8398 19.1299 12.8594V12H16.083V12.8594H18.1924C18.165 14.2969 17.2197 15.2031 15.8643 15.2031 14.3799 15.2031 13.2393 14.0781 13.2393 12 13.2393 9.92188 14.3799 8.79688 15.8018 8.79688 16.958 8.79688 17.7432 9.44922 18.083 10.5Z"/>
	</svg>
	