<?xml version="1.0"?>
	<svg xmlns="http://www.w3.org/2000/svg" 
		width="30" 
		height="30" 
		viewbox="0 0 30 30" 
		code="81093" 
		 transform=""
		><path d="M2.60477893 12.9723195L6.12168962 12.9723195C6.52219221 12.979964 6.84945474 13.2802528 6.90121723 13.6668426L6.90837637 13.7742608 6.90837637 26.6879651C6.9114765 27.0907215 6.61699553 27.4270539 6.22951745 27.4867608L6.12168962 27.4960281 2.60477893 27.4960281C1.22152924 27.4960281 0.0901105643 26.4178113 0.00512458596 25.0559795L9.28146449e-14 24.8912492 9.28146449e-14 15.5770984C9.28146449e-14 14.1938487 1.07821676 13.06243 2.44004861 12.9774441L2.60477893 12.9723195ZM16.2653293 2.06040773L17.0427839 2.34506629C18.0756686 2.71799754 18.7637207 3.69865547 18.7629787 4.79680299L18.756857 4.79680299 18.756857 10.1440989C18.7560436 10.410083 18.8611356 10.6654519 19.0489283 10.8538189 19.236721 11.0421859 19.4917679 11.1480572 19.7577532 11.148056L27.593516 11.148056C28.3055947 11.1478663 28.9811746 11.463132 29.4384294 12.0090021 29.8956842 12.5548722 30.0876313 13.2752589 29.9626098 13.9762766L28.2791452 23.3669484C27.8508688 25.7562618 25.7724568 27.4955781 23.3450634 27.4960281L9.58962679 27.4960281C9.37587381 27.4960281 9.17096365 27.4107045 9.02039326 27.2589847 8.86982287 27.1072649 8.78605374 26.9017118 8.78763931 26.6879651L8.78763931 13.8875121C8.78763931 13.6751044 8.87227145 13.4714408 9.02275326 13.3215333 9.17323507 13.1716259 9.37722067 13.0878177 9.58962679 13.0886316L10.6425574 13.0886316C11.3479983 13.0852501 11.9687436 12.6221742 12.1729798 11.9469365L14.9644703 2.71236767C15.0438355 2.4487405 15.2282881 2.22944563 15.474421 2.1060896 15.7205539 1.98273358 16.0066308 1.96621014 16.2653293 2.06040773ZM3.45263294 23.0302468C3.16554119 23.0302468 2.89025245 23.1445102 2.68753526 23.3478017 2.48481807 23.5510931 2.37134144 23.826704 2.37214609 24.1137946 2.37214609 24.5523234 2.6364847 24.9476133 3.04175141 25.1151436 3.44701811 25.282674 3.91330676 25.1894086 4.22295454 24.8788836 4.53260233 24.5683586 4.62454829 24.101808 4.45587219 23.6970168 4.28719609 23.2922257 3.89116 23.0290167 3.45263294 23.0302468Z"/>
	</svg>
	