<?xml version="1.0"?>
	<svg xmlns="http://www.w3.org/2000/svg" 
		width="32" 
		height="32" 
		viewbox="0 0 32 32" 
		code="82870" 
		 transform=""
		><path d="M22.5 9C22.7761 9 23 9.22386 23 9.5L23 22.5C23 22.7761 22.7761 23 22.5 23 22.2239 23 22 22.7761 22 22.5L22 9.5C22 9.22386 22.2239 9 22.5 9ZM16 9C16.2761 9 16.5 9.22386 16.5 9.5L16.5 22.5C16.5 22.7761 16.2761 23 16 23 15.7239 23 15.5 22.7761 15.5 22.5L15.5 9.5C15.5 9.22386 15.7239 9 16 9ZM10 9.5C10 9.22386 9.77614 9 9.5 9 9.22386 9 9 9.22386 9 9.5L9 22.5C9 22.7761 9.22386 23 9.5 23 9.77614 23 10 22.7761 10 22.5L10 9.5Z"/>
	</svg>
	