<?xml version="1.0"?>
	<svg xmlns="http://www.w3.org/2000/svg" 
		width="32" 
		height="32" 
		viewbox="0 0 32 32" 
		code="82868" 
		 transform=""
		><path d="M9 10.5C9 10.0341 9 9.80109 9.07612 9.61732 9.17761 9.37229 9.37229 9.17761 9.61732 9.07612 9.80109 9 10.0341 9 10.5 9 10.9659 9 11.1989 9 11.3827 9.07612 11.6277 9.17761 11.8224 9.37229 11.9239 9.61732 12 9.80109 12 10.0341 12 10.5 12 10.9659 12 11.1989 11.9239 11.3827 11.8224 11.6277 11.6277 11.8224 11.3827 11.9239 11.1989 12 10.9659 12 10.5 12 10.0341 12 9.80109 12 9.61732 11.9239 9.37229 11.8224 9.17761 11.6277 9.07612 11.3827 9 11.1989 9 10.9659 9 10.5ZM19 10.5C19 10.0341 19 9.80109 19.0761 9.61732 19.1776 9.37229 19.3723 9.17761 19.6173 9.07612 19.8011 9 20.0341 9 20.5 9 20.9659 9 21.1989 9 21.3827 9.07612 21.6277 9.17761 21.8224 9.37229 21.9239 9.61732 22 9.80109 22 10.0341 22 10.5 22 10.9659 22 11.1989 21.9239 11.3827 21.8224 11.6277 21.6277 11.8224 21.3827 11.9239 21.1989 12 20.9659 12 20.5 12 20.0341 12 19.8011 12 19.6173 11.9239 19.3723 11.8224 19.1776 11.6277 19.0761 11.3827 19 11.1989 19 10.9659 19 10.5ZM9.07612 14.6173C9 14.8011 9 15.0341 9 15.5 9 15.9659 9 16.1989 9.07612 16.3827 9.17761 16.6277 9.37229 16.8224 9.61732 16.9239 9.80109 17 10.0341 17 10.5 17 10.9659 17 11.1989 17 11.3827 16.9239 11.6277 16.8224 11.8224 16.6277 11.9239 16.3827 12 16.1989 12 15.9659 12 15.5 12 15.0341 12 14.8011 11.9239 14.6173 11.8224 14.3723 11.6277 14.1776 11.3827 14.0761 11.1989 14 10.9659 14 10.5 14 10.0341 14 9.80109 14 9.61732 14.0761 9.37229 14.1776 9.17761 14.3723 9.07612 14.6173ZM19 15.5C19 15.0341 19 14.8011 19.0761 14.6173 19.1776 14.3723 19.3723 14.1776 19.6173 14.0761 19.8011 14 20.0341 14 20.5 14 20.9659 14 21.1989 14 21.3827 14.0761 21.6277 14.1776 21.8224 14.3723 21.9239 14.6173 22 14.8011 22 15.0341 22 15.5 22 15.9659 22 16.1989 21.9239 16.3827 21.8224 16.6277 21.6277 16.8224 21.3827 16.9239 21.1989 17 20.9659 17 20.5 17 20.0341 17 19.8011 17 19.6173 16.9239 19.3723 16.8224 19.1776 16.6277 19.0761 16.3827 19 16.1989 19 15.9659 19 15.5ZM9.07612 19.6173C9 19.8011 9 20.0341 9 20.5 9 20.9659 9 21.1989 9.07612 21.3827 9.17761 21.6277 9.37229 21.8224 9.61732 21.9239 9.80109 22 10.0341 22 10.5 22 10.9659 22 11.1989 22 11.3827 21.9239 11.6277 21.8224 11.8224 21.6277 11.9239 21.3827 12 21.1989 12 20.9659 12 20.5 12 20.0341 12 19.8011 11.9239 19.6173 11.8224 19.3723 11.6277 19.1776 11.3827 19.0761 11.1989 19 10.9659 19 10.5 19 10.0341 19 9.80109 19 9.61732 19.0761 9.37229 19.1776 9.17761 19.3723 9.07612 19.6173ZM19 20.5C19 20.0341 19 19.8011 19.0761 19.6173 19.1776 19.3723 19.3723 19.1776 19.6173 19.0761 19.8011 19 20.0341 19 20.5 19 20.9659 19 21.1989 19 21.3827 19.0761 21.6277 19.1776 21.8224 19.3723 21.9239 19.6173 22 19.8011 22 20.0341 22 20.5 22 20.9659 22 21.1989 21.9239 21.3827 21.8224 21.6277 21.6277 21.8224 21.3827 21.9239 21.1989 22 20.9659 22 20.5 22 20.0341 22 19.8011 22 19.6173 21.9239 19.3723 21.8224 19.1776 21.6277 19.0761 21.3827 19 21.1989 19 20.9659 19 20.5ZM14.0761 9.61732C14 9.80109 14 10.0341 14 10.5 14 10.9659 14 11.1989 14.0761 11.3827 14.1776 11.6277 14.3723 11.8224 14.6173 11.9239 14.8011 12 15.0341 12 15.5 12 15.9659 12 16.1989 12 16.3827 11.9239 16.6277 11.8224 16.8224 11.6277 16.9239 11.3827 17 11.1989 17 10.9659 17 10.5 17 10.0341 17 9.80109 16.9239 9.61732 16.8224 9.37229 16.6277 9.17761 16.3827 9.07612 16.1989 9 15.9659 9 15.5 9 15.0341 9 14.8011 9 14.6173 9.07612 14.3723 9.17761 14.1776 9.37229 14.0761 9.61732ZM14 15.5C14 15.0341 14 14.8011 14.0761 14.6173 14.1776 14.3723 14.3723 14.1776 14.6173 14.0761 14.8011 14 15.0341 14 15.5 14 15.9659 14 16.1989 14 16.3827 14.0761 16.6277 14.1776 16.8224 14.3723 16.9239 14.6173 17 14.8011 17 15.0341 17 15.5 17 15.9659 17 16.1989 16.9239 16.3827 16.8224 16.6277 16.6277 16.8224 16.3827 16.9239 16.1989 17 15.9659 17 15.5 17 15.0341 17 14.8011 17 14.6173 16.9239 14.3723 16.8224 14.1776 16.6277 14.0761 16.3827 14 16.1989 14 15.9659 14 15.5ZM14.0761 19.6173C14 19.8011 14 20.0341 14 20.5 14 20.9659 14 21.1989 14.0761 21.3827 14.1776 21.6277 14.3723 21.8224 14.6173 21.9239 14.8011 22 15.0341 22 15.5 22 15.9659 22 16.1989 22 16.3827 21.9239 16.6277 21.8224 16.8224 21.6277 16.9239 21.3827 17 21.1989 17 20.9659 17 20.5 17 20.0341 17 19.8011 16.9239 19.6173 16.8224 19.3723 16.6277 19.1776 16.3827 19.0761 16.1989 19 15.9659 19 15.5 19 15.0341 19 14.8011 19 14.6173 19.0761 14.3723 19.1776 14.1776 19.3723 14.0761 19.6173Z"/>
	</svg>
	