<?xml version="1.0"?>
	<svg xmlns="http://www.w3.org/2000/svg" 
		width="32" 
		height="32" 
		viewbox="0 0 32 32" 
		code="82871" 
		 transform=""
		><path d="M9 9.5C9 9.22386 9.22386 9 9.5 9H22.5C22.7761 9 23 9.22386 23 9.5 23 9.77614 22.7761 10 22.5 10H9.5C9.22386 10 9 9.77614 9 9.5ZM9 16C9 15.7239 9.22386 15.5 9.5 15.5H22.5C22.7761 15.5 23 15.7239 23 16 23 16.2761 22.7761 16.5 22.5 16.5H9.5C9.22386 16.5 9 16.2761 9 16ZM9.5 22C9.22386 22 9 22.2239 9 22.5 9 22.7761 9.22386 23 9.5 23H22.5C22.7761 23 23 22.7761 23 22.5 23 22.2239 22.7761 22 22.5 22H9.5Z"/>
	</svg>
	