<?xml version="1.0"?>
	<svg xmlns="http://www.w3.org/2000/svg" 
		width="32" 
		height="32" 
		viewbox="0 0 32 32" 
		code="82869" 
		 transform=""
		><path d="M10 11C10 10.4477 10.4477 10 11 10 11.5523 10 12 10.4477 12 11 12 11.5523 11.5523 12 11 12 10.4477 12 10 11.5523 10 11ZM20 11C20 10.4477 20.4477 10 21 10 21.5523 10 22 10.4477 22 11 22 11.5523 21.5523 12 21 12 20.4477 12 20 11.5523 20 11ZM11 15C10.4477 15 10 15.4477 10 16 10 16.5523 10.4477 17 11 17 11.5523 17 12 16.5523 12 16 12 15.4477 11.5523 15 11 15ZM20 16C20 15.4477 20.4477 15 21 15 21.5523 15 22 15.4477 22 16 22 16.5523 21.5523 17 21 17 20.4477 17 20 16.5523 20 16ZM11 20C10.4477 20 10 20.4477 10 21 10 21.5523 10.4477 22 11 22 11.5523 22 12 21.5523 12 21 12 20.4477 11.5523 20 11 20ZM20 21C20 20.4477 20.4477 20 21 20 21.5523 20 22 20.4477 22 21 22 21.5523 21.5523 22 21 22 20.4477 22 20 21.5523 20 21ZM16 10C15.4477 10 15 10.4477 15 11 15 11.5523 15.4477 12 16 12 16.5523 12 17 11.5523 17 11 17 10.4477 16.5523 10 16 10ZM15 16C15 15.4477 15.4477 15 16 15 16.5523 15 17 15.4477 17 16 17 16.5523 16.5523 17 16 17 15.4477 17 15 16.5523 15 16ZM16 20C15.4477 20 15 20.4477 15 21 15 21.5523 15.4477 22 16 22 16.5523 22 17 21.5523 17 21 17 20.4477 16.5523 20 16 20Z"/>
	</svg>
	