<?xml version="1.0"?>
	<svg xmlns="http://www.w3.org/2000/svg" 
		width="32" 
		height="32" 
		viewbox="0 0 32 32" 
		code="82873" 
		 transform=""
		><path d="M13.9252 7.63867C13.4187 7.63867 13.0086 8.04156 13.0086 8.53817 13.0086 9.03499 13.4187 9.43787 13.9252 9.43787 14.4314 9.43787 14.8416 9.03499 14.8416 8.53817 14.8416 8.04156 14.4314 7.63867 13.9252 7.63867ZM17.1384 8.55694C17.1384 8.06033 17.5485 7.65744 18.055 7.65744 18.5613 7.65744 18.9714 8.06033 18.9714 8.55694 18.9714 9.05376 18.5613 9.45664 18.055 9.45664 17.5485 9.45664 17.1384 9.05376 17.1384 8.55694ZM18.0552 11.3832C17.5486 11.3832 17.1384 11.7858 17.1384 12.2827 17.1384 12.7797 17.5486 13.1824 18.0552 13.1824 18.5616 13.1824 18.9718 12.7797 18.9718 12.2827 18.9718 11.7858 18.5616 11.3832 18.0552 11.3832ZM17.1384 16.0092C17.1384 15.5124 17.5485 15.1095 18.055 15.1095 18.5613 15.1095 18.9714 15.5124 18.9714 16.0092 18.9714 16.5061 18.5613 16.9087 18.055 16.9087 17.5485 16.9087 17.1384 16.5061 17.1384 16.0092ZM9.91669 18.8357C9.41015 18.8357 9 19.2384 9 19.7353 9 20.232 9.41015 20.6349 9.91669 20.6349 10.423 20.6349 10.8332 20.232 10.8332 19.7353 10.8332 19.2384 10.423 18.8357 9.91669 18.8357ZM18.0551 18.8357C17.5486 18.8357 17.1384 19.2384 17.1384 19.7353 17.1384 20.232 17.5486 20.6349 18.0551 20.6349 18.5614 20.6349 18.9716 20.232 18.9716 19.7353 18.9716 19.2384 18.5614 18.8357 18.0551 18.8357ZM18.0551 22.5617C17.5486 22.5617 17.1384 22.9648 17.1384 23.4613 17.1384 23.9584 17.5486 24.3609 18.0551 24.3609 18.5614 24.3609 18.9716 23.9584 18.9716 23.4613 18.9716 22.9648 18.5614 22.5617 18.0551 22.5617ZM21.1661 19.7353C21.1661 19.2384 21.5763 18.8357 22.0828 18.8357 22.5892 18.8357 22.9993 19.2384 22.9993 19.7353 22.9993 20.232 22.5892 20.6349 22.0828 20.6349 21.5763 20.6349 21.1661 20.232 21.1661 19.7353ZM22.0827 15.1095C21.5763 15.1095 21.1661 15.5124 21.1661 16.0092 21.1661 16.5061 21.5763 16.9087 22.0827 16.9087 22.589 16.9087 22.9991 16.5061 22.9991 16.0092 22.9991 15.5124 22.589 15.1095 22.0827 15.1095ZM9 16.0092C9 15.5124 9.4101 15.1095 9.91658 15.1095 10.4228 15.1095 10.833 15.5124 10.833 16.0092 10.833 16.5061 10.4228 16.9087 9.91658 16.9087 9.4101 16.9087 9 16.5061 9 16.0092ZM21.1661 12.2827C21.1661 11.7858 21.5763 11.3832 22.0829 11.3832 22.5893 11.3832 22.9995 11.7858 22.9995 12.2827 22.9995 12.7797 22.5893 13.1824 22.0829 13.1824 21.5763 13.1824 21.1661 12.7797 21.1661 12.2827ZM9.9168 11.3832C9.4102 11.3832 9 11.7858 9 12.2827 9 12.7797 9.4102 13.1824 9.9168 13.1824 10.4232 13.1824 10.8334 12.7797 10.8334 12.2827 10.8334 11.7858 10.4232 11.3832 9.9168 11.3832ZM13.9253 22.5429C13.4187 22.5429 13.0086 22.946 13.0086 23.4425 13.0086 23.9396 13.4187 24.3421 13.9253 24.3421 14.4316 24.3421 14.8418 23.9396 14.8418 23.4425 14.8418 22.946 14.4316 22.5429 13.9253 22.5429ZM13.0086 19.7165C13.0086 19.2197 13.4187 18.8169 13.9253 18.8169 14.4316 18.8169 14.8418 19.2197 14.8418 19.7165 14.8418 20.2132 14.4316 20.6161 13.9253 20.6161 13.4187 20.6161 13.0086 20.2132 13.0086 19.7165ZM13.9252 15.0908C13.4187 15.0908 13.0086 15.4936 13.0086 15.9905 13.0086 16.4873 13.4187 16.89 13.9252 16.89 14.4314 16.89 14.8415 16.4873 14.8415 15.9905 14.8415 15.4936 14.4314 15.0908 13.9252 15.0908ZM13.0086 12.2639C13.0086 11.767 13.4188 11.3645 13.9254 11.3645 14.4318 11.3645 14.842 11.767 14.842 12.2639 14.842 12.7609 14.4318 13.1637 13.9254 13.1637 13.4188 13.1637 13.0086 12.7609 13.0086 12.2639Z"/>
	</svg>
	