<?xml version="1.0"?>
	<svg xmlns="http://www.w3.org/2000/svg" 
		width="32" 
		height="32" 
		viewbox="0 0 32 32" 
		code="82872" 
		 transform=""
		><path d="M21.6663 9.38889C22.1883 9.38889 22.6109 8.96566 22.6109 8.44445 22.6109 7.92257 22.1883 7.5 21.6663 7.5 21.1446 7.5 20.722 7.92257 20.722 8.44445 20.722 8.96565 21.1446 9.38889 21.6663 9.38889ZM16.9442 8.44445C16.9442 8.96565 16.5216 9.38889 15.9997 9.38889 15.478 9.38889 15.0553 8.96565 15.0553 8.44444 15.0553 7.92257 15.478 7.5 15.9997 7.5 16.5216 7.5 16.9442 7.92257 16.9442 8.44445ZM11.2776 8.44444C11.2776 8.96565 10.8549 9.38889 10.333 9.38889 9.8113 9.38889 9.38867 8.96565 9.38867 8.44444 9.38867 7.92257 9.8113 7.5 10.333 7.5 10.8549 7.5 11.2776 7.92257 11.2776 8.44444ZM11.2776 12.2222C11.2776 12.7439 10.8549 13.1667 10.333 13.1667 9.8113 13.1667 9.38867 12.7439 9.38867 12.2222 9.38867 11.7008 9.8113 11.2778 10.333 11.2778 10.8549 11.2778 11.2776 11.7008 11.2776 12.2222ZM15.9997 13.1667C16.5216 13.1667 16.9442 12.7439 16.9442 12.2222 16.9442 11.7008 16.5216 11.2778 15.9997 11.2778 15.478 11.2778 15.0553 11.7008 15.0553 12.2222 15.0553 12.7439 15.478 13.1667 15.9997 13.1667ZM22.6109 12.2222C22.6109 12.7439 22.1883 13.1667 21.6663 13.1667 21.1446 13.1667 20.722 12.7439 20.722 12.2222 20.722 11.7008 21.1446 11.2778 21.6663 11.2778 22.1883 11.2778 22.6109 11.7008 22.6109 12.2222ZM10.333 16.9444C10.8549 16.9444 11.2776 16.5215 11.2776 15.9999 11.2776 15.4783 10.8549 15.0556 10.333 15.0556 9.8113 15.0556 9.38867 15.4783 9.38867 15.9999 9.38867 16.5215 9.8113 16.9444 10.333 16.9444ZM16.9442 15.9999C16.9442 16.5215 16.5216 16.9444 15.9997 16.9444 15.478 16.9444 15.0553 16.5215 15.0553 15.9999 15.0553 15.4783 15.478 15.0556 15.9997 15.0556 16.5216 15.0556 16.9442 15.4783 16.9442 15.9999ZM21.6663 16.9444C22.1883 16.9444 22.6109 16.5215 22.6109 15.9999 22.6109 15.4783 22.1883 15.0556 21.6663 15.0556 21.1446 15.0556 20.722 15.4783 20.722 15.9999 20.722 16.5215 21.1446 16.9444 21.6663 16.9444ZM11.2776 19.7779C11.2776 20.2996 10.8549 20.7222 10.333 20.7222 9.8113 20.7222 9.38867 20.2996 9.38867 19.7779 9.38867 19.2562 9.8113 18.8333 10.333 18.8333 10.8549 18.8333 11.2776 19.2562 11.2776 19.7779ZM15.9997 20.7222C16.5216 20.7222 16.9442 20.2996 16.9442 19.7779 16.9442 19.2562 16.5216 18.8333 15.9997 18.8333 15.478 18.8333 15.0553 19.2562 15.0553 19.7779 15.0553 20.2996 15.478 20.7222 15.9997 20.7222ZM22.6109 19.7779C22.6109 20.2996 22.1883 20.7222 21.6663 20.7222 21.1446 20.7222 20.722 20.2996 20.722 19.7779 20.722 19.2562 21.1446 18.8333 21.6663 18.8333 22.1883 18.8333 22.6109 19.2562 22.6109 19.7779ZM10.333 24.5C10.8549 24.5 11.2776 24.077 11.2776 23.5557 11.2776 23.0341 10.8549 22.6111 10.333 22.6111 9.8113 22.6111 9.38867 23.0341 9.38867 23.5557 9.38867 24.077 9.8113 24.5 10.333 24.5ZM16.9442 23.5557C16.9442 24.077 16.5216 24.5 15.9997 24.5 15.478 24.5 15.0553 24.077 15.0553 23.5557 15.0553 23.0341 15.478 22.6111 15.9997 22.6111 16.5216 22.6111 16.9442 23.0341 16.9442 23.5557ZM21.6663 24.5C22.1883 24.5 22.6109 24.077 22.6109 23.5557 22.6109 23.0341 22.1883 22.6111 21.6663 22.6111 21.1446 22.6111 20.722 23.0341 20.722 23.5557 20.722 24.077 21.1446 24.5 21.6663 24.5Z"/>
	</svg>
	