<?xml version="1.0"?>
	<svg xmlns="http://www.w3.org/2000/svg" 
		width="32" 
		height="32" 
		viewbox="0 0 32 32" 
		code="82874" 
		 transform=""
		><path d="M9.38889 10.3332C9.38889 9.81129 8.96565 9.38867 8.44444 9.38867 7.92257 9.38867 7.5 9.81129 7.5 10.3332 7.5 10.8549 7.92257 11.2776 8.44444 11.2776 8.96565 11.2776 9.38889 10.8549 9.38889 10.3332ZM8.44444 15.0553C8.96565 15.0553 9.38889 15.478 9.38889 15.9999 9.38889 16.5216 8.96565 16.9442 8.44444 16.9442 7.92257 16.9442 7.5 16.5216 7.5 15.9999 7.5 15.478 7.92257 15.0553 8.44444 15.0553ZM8.44444 20.722C8.96565 20.722 9.38889 21.1446 9.38889 21.6666 9.38889 22.1883 8.96565 22.6109 8.44444 22.6109 7.92257 22.6109 7.5 22.1883 7.5 21.6666 7.5 21.1446 7.92257 20.722 8.44444 20.722ZM12.2222 20.722C12.7439 20.722 13.1667 21.1446 13.1667 21.6666 13.1667 22.1883 12.7439 22.6109 12.2222 22.6109 11.7008 22.6109 11.2778 22.1883 11.2778 21.6666 11.2778 21.1446 11.7008 20.722 12.2222 20.722ZM13.1667 15.9999C13.1667 15.478 12.7439 15.0553 12.2222 15.0553 11.7008 15.0553 11.2778 15.478 11.2778 15.9999 11.2778 16.5216 11.7008 16.9442 12.2222 16.9442 12.7439 16.9442 13.1667 16.5216 13.1667 15.9999ZM12.2222 9.38867C12.7439 9.38867 13.1667 9.81129 13.1667 10.3332 13.1667 10.8549 12.7439 11.2776 12.2222 11.2776 11.7008 11.2776 11.2778 10.8549 11.2778 10.3332 11.2778 9.81129 11.7008 9.38867 12.2222 9.38867ZM16.9444 21.6666C16.9444 21.1446 16.5215 20.722 15.9999 20.722 15.4783 20.722 15.0556 21.1446 15.0556 21.6666 15.0556 22.1883 15.4783 22.6109 15.9999 22.6109 16.5215 22.6109 16.9444 22.1883 16.9444 21.6666ZM15.9999 15.0553C16.5215 15.0553 16.9444 15.478 16.9444 15.9999 16.9444 16.5216 16.5215 16.9442 15.9999 16.9442 15.4783 16.9442 15.0556 16.5216 15.0556 15.9999 15.0556 15.478 15.4783 15.0553 15.9999 15.0553ZM16.9444 10.3332C16.9444 9.81129 16.5215 9.38867 15.9999 9.38867 15.4783 9.38867 15.0556 9.81129 15.0556 10.3332 15.0556 10.8549 15.4783 11.2776 15.9999 11.2776 16.5215 11.2776 16.9444 10.8549 16.9444 10.3332ZM19.7779 20.722C20.2996 20.722 20.7222 21.1446 20.7222 21.6666 20.7222 22.1883 20.2996 22.6109 19.7779 22.6109 19.2562 22.6109 18.8333 22.1883 18.8333 21.6666 18.8333 21.1446 19.2562 20.722 19.7779 20.722ZM20.7222 15.9999C20.7222 15.478 20.2996 15.0553 19.7779 15.0553 19.2562 15.0553 18.8333 15.478 18.8333 15.9999 18.8333 16.5216 19.2562 16.9442 19.7779 16.9442 20.2996 16.9442 20.7222 16.5216 20.7222 15.9999ZM19.7779 9.38867C20.2996 9.38867 20.7222 9.81129 20.7222 10.3332 20.7222 10.8549 20.2996 11.2776 19.7779 11.2776 19.2562 11.2776 18.8333 10.8549 18.8333 10.3332 18.8333 9.81129 19.2562 9.38867 19.7779 9.38867ZM24.5 21.6666C24.5 21.1446 24.077 20.722 23.5557 20.722 23.0341 20.722 22.6111 21.1446 22.6111 21.6666 22.6111 22.1883 23.0341 22.6109 23.5557 22.6109 24.077 22.6109 24.5 22.1883 24.5 21.6666ZM23.5557 15.0553C24.077 15.0553 24.5 15.478 24.5 15.9999 24.5 16.5216 24.077 16.9442 23.5557 16.9442 23.0341 16.9442 22.6111 16.5216 22.6111 15.9999 22.6111 15.478 23.0341 15.0553 23.5557 15.0553ZM24.5 10.3332C24.5 9.81129 24.077 9.38867 23.5557 9.38867 23.0341 9.38867 22.6111 9.81129 22.6111 10.3332 22.6111 10.8549 23.0341 11.2776 23.5557 11.2776 24.077 11.2776 24.5 10.8549 24.5 10.3332Z"/>
	</svg>
	