<?xml version="1.0"?>
	<svg xmlns="http://www.w3.org/2000/svg" 
		width="32" 
		height="32" 
		viewbox="0 0 32 32" 
		code="82875" 
		 transform=""
		><path d="M15.98235 9C17.59655 9 19.0990736 9.4780832 20.3560948 10.3003749L20.62165 10.4818 21.74985 9.35355C21.92345 9.17998556 22.192892 9.16070062 22.38772 9.29569519L22.45695 9.35355 23.87125 10.7678C24.0447611 10.9413111 24.0640401 11.2107432 23.929087 11.4056403L23.87125 11.4749 22.69695 12.6492C23.51005 13.9015 23.98235 15.3956 23.98235 17 23.98235 21.4183 20.40065 25 15.98235 25 11.56405 25 7.98235 21.4183 7.98235 17 7.98235 12.5817 11.56405 9 15.98235 9ZM15.98235 10C12.11635 10 8.98235 13.134 8.98235 17 8.98235 20.866 12.11635 24 15.98235 24 19.84835 24 22.98235 20.866 22.98235 17 22.98235 15.3357176 22.4015223 13.8070533 21.4315361 12.605676L21.24515 12.3843 20.59805 11.7372C19.36585 10.6557 17.75065 10 15.98235 10ZM16.48235 12L16.48235 17C16.48235 17.2761 16.25845 17.5 15.98235 17.5 15.70625 17.5 15.48235 17.2761 15.48235 17L15.48235 17 15.48235 12 16.48235 12ZM22.10345 10.4142L21.40215 11.1155C21.60265 11.3004 21.79375 11.4953 21.97465 11.6996L22.10345 11.8284 22.81055 11.1213 22.10345 10.4142ZM18.98235 7C19.25845 7 19.48235 7.22386 19.48235 7.5 19.48235 7.77614 19.25845 8 18.98235 8L12.98235 8C12.70625 8 12.48235 7.77614 12.48235 7.5 12.48235 7.22386 12.70625 7 12.98235 7L18.98235 7Z"/>
	</svg>
	