<?xml version="1.0"?>
	<svg xmlns="http://www.w3.org/2000/svg" 
		width="30" 
		height="30" 
		viewbox="0 0 30 30" 
		code="81094" 
		 transform=""
		><path d="M24.556314 5.45885476C23.9647327 4.86727342 23.0091013 4.86727342 22.4175199 5.45885476L15 12.8612059 7.58248009 5.44368601C6.99089875 4.85210466 6.03526735 4.85210466 5.44368601 5.44368601 4.85210466 6.03526735 4.85210466 6.99089875 5.44368601 7.58248009L12.8612059 15 5.44368601 22.4175199C4.85210466 23.0091013 4.85210466 23.9647327 5.44368601 24.556314 6.03526735 25.1478953 6.99089875 25.1478953 7.58248009 24.556314L15 17.1387941 22.4175199 24.556314C23.0091013 25.1478953 23.9647327 25.1478953 24.556314 24.556314 25.1478953 23.9647327 25.1478953 23.0091013 24.556314 22.4175199L17.1387941 15 24.556314 7.58248009C25.1327266 7.0060675 25.1327266 6.03526735 24.556314 5.45885476Z"/>
	</svg>
	