<?xml version="1.0"?>
	<svg xmlns="http://www.w3.org/2000/svg" 
		width="32" 
		height="32" 
		viewbox="0 0 32 32" 
		code="82876" 
		 transform=""
		><path d="M17.3021 10.4666C16.9659 10.1695 16.6468 9.85343 16.3466 9.51998L15.9999 9.08887 15.6532 9.53331C15.3534 9.86223 15.0351 10.1738 14.6999 10.4666L14.6826 10.4828C13.0917 11.9713 10.4443 14.4483 10.4443 17.3555 10.4443 20.4238 12.9316 22.9111 15.9999 22.9111 19.0681 22.9111 21.5554 20.4238 21.5554 17.3555 21.5554 14.4517 18.9143 11.9771 17.325 10.4881L17.3021 10.4666ZM15.9999 22.0222C13.4226 22.0222 11.3332 19.9329 11.3332 17.3555 11.3332 14.8273 13.81 12.5137 15.2954 11.1261L15.3043 11.1178C15.571 10.8689 15.8066 10.6489 15.9999 10.4511 16.1496 10.6008 16.3246 10.7664 16.5197 10.9512L16.6954 11.1178 16.7005 11.1225C18.1855 12.5097 20.6666 14.8273 20.6666 17.3555 20.6666 19.9329 18.5772 22.0222 15.9999 22.0222ZM13.6599 16.9933H13.7954C14.3291 16.9933 14.8902 17.1928 15.486 17.4046 15.5253 17.4186 15.5647 17.4326 15.6043 17.4466 16.3421 17.7244 17.1777 18.0378 18.1066 18.0378H18.1954C18.793 18.0113 19.3875 17.937 19.9732 17.8155 19.7358 19.9053 17.9206 21.4543 15.8195 21.36 13.7184 21.2657 12.0492 19.5604 11.9999 17.4578 12.521 17.2049 13.0832 17.0476 13.6599 16.9933Z"/>
	</svg>
	