<?xml version="1.0"?>
	<svg xmlns="http://www.w3.org/2000/svg" 
		width="30" 
		height="30" 
		viewbox="0 0 30 30" 
		code="81149" 
		 transform=""
		><path d="M23 15C23 12.2142857 20.9029412 10 18.2647059 10L4.73529412 10C2.16836248 10 0.113749839 12.096212 0.00456473747 14.7754159L0 15C0 17.7857143 2.09705882 20 4.73529412 20L18.2647059 20C20.8316375 20 22.8862502 17.903788 22.9954353 15.2245841L23 15ZM22 7C26.418278 7 30 10.581722 30 15 30 19.418278 26.418278 23 22 23 17.581722 23 14 19.418278 14 15 14 10.581722 17.581722 7 22 7Z"/>
	</svg>
	