<?xml version="1.0"?>
	<svg xmlns="http://www.w3.org/2000/svg" 
		width="40" 
		height="40" 
		viewbox="0 0 40 40" 
		code="82883" 
		 transform=""
		><path d="M20.6 9C20.72728 9 20.8504 9.0404544 20.952208 9.11425152L21.0243 9.17574 28.0243 16.1757C28.1143 16.26578 28.172748 16.38146 28.1925272 16.505588L28.2 16.6 28.2 27.6C28.2 28.2896 27.9261 28.9509 27.4385 29.4385 26.99966 29.87734 26.420123 30.143083 25.8058856 30.1918432L25.6 30.2 13.6 30.2C12.9104 30.2 12.2491 29.9261 11.7615 29.4385 11.32266 28.99966 11.056917 28.420123 11.0081568 27.8058856L11 27.6 11 11.6C11 10.9104 11.2739 10.2491 11.7615 9.76152 12.20034 9.322689 12.779877 9.0569226 13.3941144 9.00815763L13.6 9 20.6 9ZM20.1 10.2L13.6 10.2C13.2287 10.2 12.8726 10.3475 12.6101 10.6101 12.380325 10.8397875 12.2386734 11.1411375 12.2068508 11.4616281L12.2 11.6 12.2 27.6C12.2 27.9713 12.3475 28.3274 12.6101 28.5899 12.8397875 28.819675 13.1411375 28.9613266 13.4616281 28.9931492L13.6 29 25.6 29C25.9713 29 26.3274 28.8525 26.5899 28.5899 26.819675 28.3602125 26.9613266 28.0588625 26.9931492 27.7383719L27 27.6 27 17.1 21.1 17.1C20.58715 17.1 20.1644908 16.713973 20.1067275 16.2166239L20.1 16.1 20.1 10.2ZM21.1 10.9485L21.1 16.1 26.2515 16.1 21.1 10.9485Z"/>
	</svg>
	