<?xml version="1.0"?>
	<svg xmlns="http://www.w3.org/2000/svg" 
		width="40" 
		height="40" 
		viewbox="0 0 40 40" 
		code="82882" 
		 transform=""
		><path d="M8 14C8 13.5858 8.33579 13.25 8.75 13.25H31.25C31.6642 13.25 32 13.5858 32 14 32 14.4142 31.6642 14.75 31.25 14.75H8.75C8.33579 14.75 8 14.4142 8 14ZM8 20C8 19.5858 8.33579 19.25 8.75 19.25H31.25C31.6642 19.25 32 19.5858 32 20 32 20.4142 31.6642 20.75 31.25 20.75H8.75C8.33579 20.75 8 20.4142 8 20ZM8.75 25.25C8.33579 25.25 8 25.5858 8 26 8 26.4142 8.33579 26.75 8.75 26.75H31.25C31.6642 26.75 32 26.4142 32 26 32 25.5858 31.6642 25.25 31.25 25.25H8.75Z"/>
	</svg>
	