<?xml version="1.0"?>
	<svg xmlns="http://www.w3.org/2000/svg" 
		width="40" 
		height="40" 
		viewbox="0 0 40 40" 
		code="82885" 
		 transform=""
		><path d="M12.9994 11.5999C12.2262 11.5999 11.5994 12.2267 11.5994 12.9999V16.3999H28.3994V12.9999C28.3994 12.2267 27.7726 11.5999 26.9994 11.5999H12.9994ZM16.3994 17.5999H11.5994V26.9999C11.5994 27.7731 12.2262 28.3999 12.9994 28.3999H16.3994V17.5999ZM17.5994 28.3999V17.5999H28.3994V26.9999C28.3994 27.7731 27.7726 28.3999 26.9994 28.3999H17.5994ZM12.9994 29.5999C11.5635 29.5999 10.3994 28.4358 10.3994 26.9999V12.9999C10.3994 11.564 11.5635 10.3999 12.9994 10.3999H26.9994C28.4354 10.3999 29.5994 11.564 29.5994 12.9999V26.9999C29.5994 28.4358 28.4354 29.5999 26.9994 29.5999H12.9994Z"/>
	</svg>
	