<?xml version="1.0"?>
	<svg xmlns="http://www.w3.org/2000/svg" 
		width="40" 
		height="40" 
		viewbox="0 0 40 40" 
		code="82880" 
		 transform=""
		><path d="M19.7312 9.46325C19.9001 9.37879 20.099 9.37879 20.2679 9.46325L30.2679 14.4632C30.4711 14.5649 30.5995 14.7726 30.5995 14.9999 30.5995 15.2272 30.4711 15.4349 30.2679 15.5366L20.2679 20.5366C20.099 20.621 19.9001 20.621 19.7312 20.5366L9.73122 15.5366C9.52795 15.4349 9.39955 15.2272 9.39955 14.9999 9.39955 14.7726 9.52795 14.5649 9.73122 14.4632L19.7312 9.46325ZM11.3412 14.9999L19.9995 19.3291 28.6579 14.9999 19.9995 10.6707 11.3412 14.9999ZM9.46289 24.7316C9.61108 24.4352 9.97149 24.3151 10.2679 24.4632L19.9995 29.3291 29.7312 24.4632C30.0276 24.3151 30.388 24.4352 30.5362 24.7316 30.6844 25.028 30.5643 25.3884 30.2679 25.5366L20.2679 30.5366C20.099 30.621 19.9001 30.621 19.7312 30.5366L9.73122 25.5366C9.43483 25.3884 9.3147 25.028 9.46289 24.7316ZM10.2679 19.4632C9.97149 19.3151 9.61108 19.4352 9.46289 19.7316 9.3147 20.028 9.43483 20.3884 9.73122 20.5366L19.7312 25.5366C19.9001 25.621 20.099 25.621 20.2679 25.5366L30.2679 20.5366C30.5643 20.3884 30.6844 20.028 30.5362 19.7316 30.388 19.4352 30.0276 19.3151 29.7312 19.4632L19.9995 24.3291 10.2679 19.4632Z"/>
	</svg>
	