<?xml version="1.0"?>
	<svg xmlns="http://www.w3.org/2000/svg" 
		width="40" 
		height="40" 
		viewbox="0 0 40 40" 
		code="82879" 
		 transform=""
		><path d="M16.4143 11.35L10.6985 21.25H22.1301L16.4143 11.35ZM15.9813 9.69997C15.9886 9.68738 15.9962 9.67526 16.0043 9.66363 16.0229 9.63674 16.0436 9.61239 16.0659 9.59058 16.2895 9.37183 16.6789 9.40828 16.8473 9.69995L23.7755 21.7C23.8659 21.8565 23.8608 22.0315 23.79 22.173 23.7478 22.2575 23.6822 22.33 23.5996 22.3796 23.5259 22.4239 23.4387 22.45 23.3425 22.45H9.4861C9.1012 22.45 8.86063 22.0333 9.05309 21.7L15.9813 9.69997ZM15.8309 22.45C15.8202 22.6153 15.8147 22.782 15.8147 22.95 15.8147 27.1473 19.2173 30.55 23.4147 30.55 27.6121 30.55 31.0147 27.1473 31.0147 22.95 31.0147 18.7526 27.6121 15.35 23.4147 15.35 22.3649 15.35 21.3647 15.5628 20.4551 15.9478L21.0608 16.9968C21.7894 16.7084 22.5835 16.55 23.4147 16.55 26.9493 16.55 29.8147 19.4154 29.8147 22.95 29.8147 26.4846 26.9493 29.35 23.4147 29.35 19.8801 29.35 17.0147 26.4846 17.0147 22.95 17.0147 22.7817 17.0212 22.615 17.0339 22.45H15.8309Z"/>
	</svg>
	