<?xml version="1.0"?>
	<svg xmlns="http://www.w3.org/2000/svg" 
		width="40" 
		height="40" 
		viewbox="0 0 40 40" 
		code="82881" 
		 transform=""
		><path d="M11.4453 28.8428H28.5547C30.4688 28.8428 31.4355 27.8662 31.4355 25.9912V14.0186C31.4355 12.1338 30.4688 11.1572 28.5547 11.1572H11.4453C9.54102 11.1572 8.56445 12.124 8.56445 14.0186V25.9912C8.56445 27.876 9.54102 28.8428 11.4453 28.8428ZM9.77539 14.0771C9.77539 12.9541 10.3711 12.3682 11.4648 12.3682H28.5352C29.6094 12.3682 30.2246 12.9541 30.2246 14.0771V25.2881L24.7559 20.21C24.2871 19.8193 23.8086 19.585 23.2422 19.585 22.6758 19.585 22.2168 19.7803 21.748 20.2002L17.3047 24.165 15.4688 22.4854C15.0586 22.1045 14.6289 21.9092 14.1406 21.9092 13.6816 21.9092 13.291 22.1045 12.8809 22.4658L9.77539 25.3271V14.0771ZM15.7422 20.1221C17.002 20.1221 18.0371 19.0869 18.0371 17.8174 18.0371 16.5576 17.002 15.5127 15.7422 15.5127 14.4727 15.5127 13.4375 16.5576 13.4375 17.8174 13.4375 19.0869 14.4727 20.1221 15.7422 20.1221Z"/>
	</svg>
	