<?xml version="1.0"?>
	<svg xmlns="http://www.w3.org/2000/svg" 
		width="40" 
		height="40" 
		viewbox="0 0 40 40" 
		code="82884" 
		 transform=""
		><path d="M20.4961 31.9805C26.8008 31.9805 31.9805 26.8008 31.9805 20.4961 31.9805 14.1797 26.8008 9 20.4844 9 14.1797 9 9 14.1797 9 20.4961 9 26.8008 14.1797 31.9805 20.4961 31.9805ZM20.4961 31.0898C14.6367 31.0898 9.89062 26.3438 9.89062 20.4961 9.89062 14.6484 14.6367 9.89062 20.4844 9.89062 26.3438 9.89062 31.0898 14.6484 31.0898 20.4961 31.0898 26.3438 26.3438 31.0898 20.4961 31.0898ZM16.8984 26.7305C17.0859 26.7305 17.2031 26.6367 17.4375 26.4023L20.4375 23.3086C20.4727 23.2734 20.5078 23.2734 20.543 23.3086L23.543 26.4023C23.7773 26.6367 23.8945 26.7305 24.082 26.7305 24.3516 26.7305 24.5273 26.5195 24.5273 26.2148V16.1484C24.5273 15.1172 23.9883 14.5664 22.9688 14.5664H18.0117C16.9922 14.5664 16.4531 15.1172 16.4531 16.1484V26.2148C16.4531 26.5195 16.6289 26.7305 16.8984 26.7305Z"/>
	</svg>
	