<?xml version="1.0"?>
	<svg xmlns="http://www.w3.org/2000/svg" 
		width="40" 
		height="40" 
		viewbox="0 0 40 40" 
		code="82877" 
		 transform=""
		><path d="M19.4994 9.94995C18.9471 9.94995 18.4994 10.3977 18.4994 10.95 18.4994 11.5022 18.9471 11.95 19.4994 11.95 20.0517 11.95 20.4994 11.5022 20.4994 10.95 20.4994 10.3977 20.0517 9.94995 19.4994 9.94995ZM17.4994 10.95C17.4994 9.84538 18.3948 8.94995 19.4994 8.94995 20.604 8.94995 21.4994 9.84538 21.4994 10.95 21.4994 12.0545 20.604 12.95 19.4994 12.95 18.3948 12.95 17.4994 12.0545 17.4994 10.95ZM16.5492 20.6257C16.6819 20.9294 16.5433 21.2831 16.2396 21.4158 14.6844 22.0953 13.5994 23.6466 13.5994 25.4499 13.5994 27.88 15.5694 29.8499 17.9994 29.8499 20.4295 29.8499 22.3994 27.88 22.3994 25.4499 22.3994 25.1186 22.668 24.8499 22.9994 24.8499 23.3308 24.8499 23.5994 25.1186 23.5994 25.4499 23.5994 28.5427 21.0922 31.0499 17.9994 31.0499 14.9066 31.0499 12.3994 28.5427 12.3994 25.4499 12.3994 23.1526 13.7826 21.1798 15.7592 20.3162 16.0628 20.1835 16.4166 20.3221 16.5492 20.6257ZM18.3994 14.4791V23.05H23.4629C24.0971 23.05 24.6522 23.4764 24.8156 24.0892L26.4197 30.1045C26.5051 30.4247 26.8338 30.6151 27.154 30.5297 27.4742 30.4443 27.6645 30.1155 27.5792 29.7954L25.9751 23.78C25.6716 22.6419 24.6408 21.85 23.4629 21.85H19.5994V16.4208L24.7311 18.9866C25.0275 19.1348 25.3879 19.0147 25.5361 18.7183 25.6843 18.4219 25.5641 18.0615 25.2677 17.9133L18.3994 14.4791Z"/>
	</svg>
	