<?xml version="1.0"?>
	<svg xmlns="http://www.w3.org/2000/svg" 
		width="40" 
		height="40" 
		viewbox="0 0 40 40" 
		code="82878" 
		 transform=""
		><path d="M16.6553 24.79H28.2178C28.501 24.79 28.7646 24.5459 28.7646 24.2236 28.7646 23.9014 28.501 23.6572 28.2178 23.6572H16.8213C16.2061 23.6572 15.8252 23.2666 15.7275 22.6025L15.542 21.333H28.1396C29.458 21.333 30.0928 20.5518 30.2881 19.2725L31.0889 13.96C31.1084 13.8525 31.1279 13.6865 31.1279 13.6182 31.1279 13.1982 30.835 12.9248 30.3662 12.9248H14.2822L14.0576 11.3818C13.9697 10.8057 13.7646 10.5127 12.9834 10.5127H9.42871C9.12598 10.5127 8.87207 10.7666 8.87207 11.0791 8.87207 11.3818 9.12598 11.6455 9.42871 11.6455H12.915L14.5557 22.7783C14.7314 24.0186 15.3857 24.79 16.6553 24.79ZM29.8682 14.0576L29.1064 19.1455C28.999 19.8096 28.6768 20.2002 28.0615 20.2002H15.3662L14.458 14.0576H29.8682ZM17.6611 29.4873C18.5107 29.4873 19.1846 28.8135 19.1846 27.9639 19.1846 27.1143 18.5107 26.4404 17.6611 26.4404 16.8115 26.4404 16.1377 27.1143 16.1377 27.9639 16.1377 28.8135 16.8115 29.4873 17.6611 29.4873ZM26.6357 29.4873C27.4854 29.4873 28.1592 28.8135 28.1592 27.9639 28.1592 27.1143 27.4854 26.4404 26.6357 26.4404 25.7861 26.4404 25.1025 27.1143 25.1025 27.9639 25.1025 28.8135 25.7861 29.4873 26.6357 29.4873Z"/>
	</svg>
	