<?xml version="1.0"?>
	<svg xmlns="http://www.w3.org/2000/svg" 
		width="32" 
		height="32" 
		viewbox="0 0 32 32" 
		code="82886" 
		 transform=""
		><path d="M22.5 11C22.7761 11 23 10.7761 23 10.5 23 10.2239 22.7761 10 22.5 10H9.5C9.22386 10 9 10.2239 9 10.5 9 10.7761 9.22386 11 9.5 11L22.5 11ZM17.454 12.109C17.2401 12 16.9601 12 16.4 12H15.6C15.0399 12 14.7599 12 14.546 12.109 14.3578 12.2049 14.2049 12.3578 14.109 12.546 14 12.7599 14 13.0399 14 13.6L14 19.4C14 19.9601 14 20.2401 14.109 20.454 14.2049 20.6422 14.3578 20.7951 14.546 20.891 14.7599 21 15.0399 21 15.6 21H16.4C16.9601 21 17.2401 21 17.454 20.891 17.6422 20.7951 17.7951 20.6422 17.891 20.454 18 20.2401 18 19.9601 18 19.4V13.6C18 13.0399 18 12.7599 17.891 12.546 17.7951 12.3578 17.6422 12.2049 17.454 12.109Z"/>
	</svg>
	