<?xml version="1.0"?>
	<svg xmlns="http://www.w3.org/2000/svg" 
		width="32" 
		height="32" 
		viewbox="0 0 32 32" 
		code="82887" 
		 transform=""
		><path d="M14.8660966 10.1175161L17.1607966 10.1175161C17.3430966 9.41037611 17.8684966 8.84251611 18.5547966 8.62822611 19.6806966 8.25322611 20.8816966 8.86394611 21.2569966 9.98894611 21.6322966 11.1139661 21.0210966 12.3139661 19.8951966 12.6889661L21.7716966 19.2674661C22.5758966 19.4174661 23.2299966 20.0282661 23.4337966 20.8317661 23.7232966 21.9782661 23.0369966 23.1460661 21.8896966 23.4353661 20.7422966 23.7246661 19.5734966 23.0389661 19.2839966 21.8924661L12.7106966 21.8924661C12.5069966 22.6853661 11.8635966 23.2960661 11.0486966 23.4567661 9.89059658 23.6817661 8.76465658 22.9210661 8.53947658 21.7639661 8.31428658 20.6067661 9.07562658 19.4817661 10.2336966 19.2567661L12.1209966 12.6782661C11.4239966 12.4532661 10.8877966 11.8853661 10.7054966 11.1674661 10.4159966 10.0210861 11.1129966 8.85322611 12.2603966 8.56394611 13.4076966 8.27465611 14.5765966 8.97108611 14.8660966 10.1175161ZM10.6614966 20.2852661C10.0717966 20.2852661 9.58919658 20.7673661 9.58919658 21.3566661 9.58919658 21.9459661 10.0717966 22.4280661 10.6614966 22.4280661 11.2512966 22.4280661 11.7337966 21.9459661 11.7337966 21.3566661 11.7337966 20.7673661 11.2512966 20.2852661 10.6614966 20.2852661ZM21.3642966 20.2852661C20.7744966 20.2852661 20.2919966 20.7673661 20.2919966 21.3566661 20.2919966 21.9459661 20.7744966 22.4280661 21.3642966 22.4280661 21.9540966 22.4280661 22.4365966 21.9459661 22.4365966 21.3566661 22.4365966 20.7673661 21.9647966 20.2852661 21.3642966 20.2852661ZM17.1601966 11.1890661L14.8654966 11.1890661C14.6617966 11.9819661 14.0183966 12.5926661 13.2140966 12.7533661L11.3375966 19.3319661C12.0238966 19.5676661 12.5492966 20.1247661 12.7315966 20.8211661L19.3047966 20.8211661C19.4870966 20.1247661 20.0125966 19.5569661 20.6987966 19.3319661L18.8115966 12.7533661C18.0072966 12.5926661 17.3639966 11.9819661 17.1601966 11.1890661ZM12.7970966 9.58192611C12.2072966 9.58192611 11.7246966 10.0640661 11.7246966 10.6533661 11.7246966 11.2426661 12.2072966 11.7247661 12.7970966 11.7247661 13.3867966 11.7247661 13.8693966 11.2426661 13.8693966 10.6533661 13.8693966 10.0640661 13.3867966 9.58192611 12.7970966 9.58192611ZM19.2308966 9.58192611C18.6410966 9.58192611 18.1585966 10.0640661 18.1585966 10.6533661 18.1585966 11.2426661 18.6410966 11.7247661 19.2308966 11.7247661 19.8205966 11.7247661 20.3031966 11.2426661 20.3031966 10.6533661 20.3031966 10.0640661 19.8205966 9.58192611 19.2308966 9.58192611Z"/>
	</svg>
	