<?xml version="1.0"?>
	<svg xmlns="http://www.w3.org/2000/svg" 
		width="32" 
		height="32" 
		viewbox="0 0 32 32" 
		code="82889" 
		 transform=""
		><path d="M12.7236 10H8.22363V20.8333H13.4736C14.0704 20.8333 14.6427 21.0616 15.0646 21.4679 15.4866 21.8743 15.7236 22.4254 15.7236 23V12.8889C15.7236 12.1227 15.4076 11.3879 14.845 10.8461 14.2823 10.3044 13.5193 10 12.7236 10ZM19.2547 10H23.7547V20.8333H18.5047C17.9079 20.8333 17.3356 21.0616 16.9137 21.4679 16.4917 21.8743 16.2547 22.4254 16.2547 23V12.8889C16.2547 12.1227 16.5707 11.3879 17.1334 10.8461 17.696 10.3044 18.459 10 19.2547 10Z"/>
	</svg>
	