<?xml version="1.0"?>
	<svg xmlns="http://www.w3.org/2000/svg" 
		width="32" 
		height="32" 
		viewbox="0 0 32 32" 
		code="82890" 
		 transform=""
		><path d="M8.72363 9C8.44749 9 8.22363 9.22386 8.22363 9.5V20.8386C8.22363 21.1147 8.44749 21.3386 8.72363 21.3386H14.015C14.4838 21.3386 14.9334 21.5248 15.2649 21.8563 15.5915 22.1829 15.7771 22.6241 15.7826 23.0854V23.1063C15.7826 23.3824 16.0064 23.6063 16.2826 23.6063 16.2826 23.6063 16.2825 23.6063 16.2826 23.6063 16.5587 23.6063 16.7827 23.3824 16.7827 23.1063V23.0854C16.7881 22.6241 16.9737 22.1829 17.3003 21.8563 17.6318 21.5248 18.0815 21.3386 18.5503 21.3386H23.8416C24.1178 21.3386 24.3416 21.1147 24.3416 20.8386V9.5C24.3416 9.22386 24.1178 9 23.8416 9H19.3062C18.3717 9 17.4754 9.37124 16.8146 10.032 16.6082 10.2385 16.43 10.4678 16.2826 10.7142 16.1352 10.4678 15.9571 10.2385 15.7506 10.032 15.0898 9.37124 14.1936 9 13.2591 9H8.72363ZM16.7827 20.9765V12.5236C16.7827 12.5173 16.7827 12.5109 16.7826 12.5046 16.7876 11.8422 17.0529 11.2079 17.5217 10.7392 17.995 10.2659 18.6369 10 19.3062 10H23.3416V20.3386H18.5503C17.9021 20.3386 17.2774 20.566 16.7827 20.9765ZM15.7826 12.5046C15.7776 11.8422 15.5123 11.2079 15.0435 10.7392 14.5703 10.2659 13.9284 10 13.2591 10H9.22363V20.3386H14.015C14.6632 20.3386 15.2879 20.566 15.7826 20.9765V12.5236C15.7826 12.5173 15.7826 12.5109 15.7826 12.5046Z"/>
	</svg>
	