<?xml version="1.0"?>
	<svg xmlns="http://www.w3.org/2000/svg" 
		width="64" 
		height="64" 
		viewbox="0 0 64 64" 
		code="82892" 
		 transform=""
		><path d="M19.0514 46C18.402 46 18 45.598 18 44.9486V19.0514C18 18.4174 18.402 18 19.0514 18H44.9486C45.5826 18 46 18.4174 46 19.0514V44.9486C46 45.598 45.5826 46 44.9486 46H19.0514ZM19.9172 20.3192V43.6963C19.9172 43.9746 20.0254 44.0828 20.3037 44.0828H43.6808C43.9591 44.0828 44.0828 43.9746 44.0828 43.6963V20.3192C44.0828 20.0409 43.9591 19.9172 43.6808 19.9172H20.3037C20.0254 19.9172 19.9172 20.0409 19.9172 20.3192ZM26.2247 24.8898C26.0565 24.7097 25.795 24.6505 25.5653 24.7443 25.3367 24.8378 25.1914 25.0612 25.1914 25.3047 25.1914 25.5812 25.1853 25.8742 25.1787 26.185L25.1785 26.1953C25.1535 27.3838 25.1236 28.8097 25.4349 30.3203 25.7911 32.0489 26.589 33.8853 28.2997 35.7065 27.899 35.8448 27.4056 35.9972 26.8756 36.1516 26.0203 36.4007 25.112 36.6431 24.4318 36.8246L24.1453 36.9011C23.8847 36.9708 23.7068 37.2056 23.7004 37.4706 23.694 37.7356 23.8602 37.9786 24.1166 38.0612 24.2331 38.0988 24.3535 38.1379 24.4778 38.1784L24.5049 38.1873C26.3991 38.8041 29.1979 39.7157 31.8889 39.0894 33.3557 38.7481 34.7763 37.9562 35.9992 36.4656 37.1802 35.0261 38.1588 32.9576 38.8413 30.0626 39.284 29.7647 39.7489 29.3037 40.1336 28.8761 40.5976 28.3602 41.0105 27.8181 41.2083 27.5005 41.3363 27.295 41.3302 27.0319 41.1925 26.8326 41.0539 26.6322 40.8075 26.5338 40.5677 26.5896L38.2418 27.1309C37.976 26.8423 37.6288 26.5511 37.2356 26.3073 36.6981 25.9739 36.0287 25.7007 35.3162 25.6766 34.5834 25.6518 33.8326 25.8936 33.1911 26.5412 32.6656 27.0717 32.2394 27.8477 31.9314 28.9052 31.1014 28.5889 30.1487 28.0521 29.2121 27.4083 28.0559 26.6136 26.9696 25.6871 26.2247 24.8898ZM26.6063 30.0739C26.3609 28.8834 26.3489 27.7603 26.3661 26.7029 27.0173 27.2857 27.7656 27.8761 28.539 28.4077 29.7466 29.2378 31.0628 29.9577 32.1979 30.2615 32.3562 30.3038 32.5243 30.2787 32.6633 30.1928 32.802 30.1071 32.899 29.9688 32.9345 29.811 33.2184 28.5472 33.6279 27.8091 34.0368 27.3963 34.4299 26.9995 34.8535 26.8705 35.2763 26.8848 35.7195 26.8997 36.1872 27.0755 36.6096 27.3375 37.033 27.6 37.3623 27.9191 37.5331 28.1576 37.6728 28.3527 37.9158 28.4472 38.152 28.3923L39.1626 28.1571C38.7451 28.6111 38.3316 28.9849 38.0359 29.1431 37.8809 29.2261 37.7712 29.3727 37.7328 29.5426 37.0752 32.4499 36.1373 34.403 35.078 35.6942 34.0267 36.9755 32.8377 37.6281 31.6203 37.9114 29.8921 38.3136 28.0759 37.9833 26.4573 37.5266 26.7069 37.457 26.959 37.3854 27.2071 37.3131 28.1792 37.03 29.1669 36.7157 29.6487 36.4578 29.8219 36.3652 29.9373 36.1939 29.9619 36.0012 29.9866 35.8086 29.9181 35.6142 29.7753 35.4805 27.7917 33.6226 26.9571 31.7763 26.6063 30.0739Z"/>
	</svg>
	