<?xml version="1.0"?>
	<svg xmlns="http://www.w3.org/2000/svg" 
		width="64" 
		height="64" 
		viewbox="0 0 64 64" 
		code="82891" 
		 transform=""
		><path d="M19.0514 46C18.402 46 18 45.598 18 44.9486V19.0514C18 18.4174 18.402 18 19.0514 18H44.9486C45.5826 18 46 18.4174 46 19.0514V44.9486C46 45.598 45.5826 46 44.9486 46H19.0514ZM25.9385 25.1321C25.776 24.9581 25.5234 24.9009 25.3016 24.9916 25.0807 25.0818 24.9404 25.2977 24.9404 25.5328 24.9404 25.7999 24.9345 26.083 24.9281 26.3832L24.9279 26.3931C24.9038 27.5411 24.8748 28.9184 25.1756 30.3775 25.5196 32.0472 26.2903 33.821 27.9427 35.58 27.5557 35.7137 27.0791 35.8609 26.5672 36.01 25.741 36.2506 24.8636 36.4847 24.2067 36.66L23.9299 36.7339C23.6782 36.8013 23.5064 37.028 23.5002 37.284 23.494 37.54 23.6545 37.7747 23.9023 37.8545 24.0148 37.8908 24.131 37.9286 24.2511 37.9677L24.2773 37.9762C26.1069 38.5721 28.8103 39.4525 31.4095 38.8477 32.8263 38.518 34.1985 37.753 35.3797 36.3133 36.5205 34.9229 37.4657 32.9249 38.1249 30.1286 38.5526 29.8408 39.0016 29.3956 39.3731 28.9825 39.8214 28.4842 40.2202 27.9606 40.4112 27.6538 40.5349 27.4553 40.529 27.2012 40.3959 27.0087 40.2621 26.8151 40.0241 26.7201 39.7924 26.774L37.5458 27.2968C37.2892 27.0181 36.9538 26.7368 36.574 26.5013 36.0548 26.1792 35.4082 25.9153 34.72 25.8921 34.0121 25.8682 33.287 26.1017 32.6674 26.7272 32.1597 27.2396 31.7481 27.9891 31.4505 29.0107 30.6489 28.7051 29.7287 28.1867 28.824 27.5647 27.7072 26.7971 26.6579 25.9022 25.9385 25.1321Z"/>
	</svg>
	