<?xml version="1.0"?>
	<svg xmlns="http://www.w3.org/2000/svg" 
		width="24" 
		height="24" 
		viewbox="0 0 24 24" 
		code="82893" 
		 transform=""
		><path d="M6.45058 18C6.17228 18 6 17.8277 6 17.5494V6.45058C6 6.17891 6.17228 6 6.45058 6H17.5494C17.8211 6 18 6.17891 18 6.45058V17.5494C18 17.8277 17.8211 18 17.5494 18H6.45058ZM6.82165 6.99393V17.0127C6.82165 17.132 6.86803 17.1784 6.9873 17.1784H17.0061C17.1253 17.1784 17.1784 17.132 17.1784 17.0127V6.99393C17.1784 6.87465 17.1253 6.82165 17.0061 6.82165H6.9873C6.86803 6.82165 6.82165 6.87465 6.82165 6.99393ZM9.52502 8.95248C9.45292 8.8753 9.34087 8.84992 9.24243 8.89015 9.14445 8.93019 9.08218 9.02596 9.08218 9.13029 9.08218 9.24881 9.07954 9.37439 9.07674 9.50759L9.07665 9.51201C9.06594 10.0214 9.05309 10.6324 9.18652 11.2799 9.33919 12.0207 9.68112 12.8077 10.4143 13.5882 10.2426 13.6475 10.0311 13.7128 9.80398 13.779 9.43741 13.8857 9.04812 13.9896 8.75662 14.0674L8.63382 14.1002C8.52216 14.1301 8.44591 14.2307 8.44316 14.3443 8.44041 14.4578 8.51164 14.562 8.62156 14.5974L8.78797 14.6514C9.59976 14.9158 10.7992 15.3064 11.9525 15.038 12.5812 14.8918 13.19 14.5524 13.7141 13.9136 14.2202 13.2966 14.6396 12.4101 14.9321 11.1694 15.1219 11.0417 15.3211 10.8442 15.4859 10.6609 15.6848 10.4398 15.8618 10.2075 15.9466 10.0714 16.0014 9.9833 15.9988 9.87053 15.9398 9.78511 15.8804 9.69921 15.7748 9.65706 15.672 9.68099L14.6752 9.91296C14.5613 9.78928 14.4125 9.6645 14.244 9.55998 14.0136 9.4171 13.7267 9.30001 13.4214 9.28969 13.1073 9.27908 12.7855 9.38269 12.5106 9.66023 12.2854 9.8876 12.1027 10.2201 11.9707 10.6734 11.615 10.5378 11.2067 10.3078 10.8053 10.0318 10.3098 9.69125 9.84425 9.29418 9.52502 8.95248ZM9.68853 11.1743C9.58338 10.664 9.57823 10.1827 9.5856 9.72954 9.86468 9.97932 10.1854 10.2323 10.5169 10.4602 11.0344 10.8159 11.5985 11.1245 12.0849 11.2546 12.1528 11.2728 12.2248 11.262 12.2844 11.2252 12.3439 11.1885 12.3854 11.1292 12.4006 11.0616 12.5223 10.5199 12.6978 10.2036 12.8731 10.0267 13.0415 9.85666 13.2231 9.80135 13.4042 9.80747 13.5942 9.81389 13.7947 9.88922 13.9757 10.0015 14.1571 10.114 14.2983 10.2508 14.3715 10.353 14.4313 10.4366 14.5355 10.4771 14.6367 10.4535L15.0698 10.3528C14.8909 10.5473 14.7137 10.7075 14.587 10.7753 14.5205 10.8109 14.4735 10.8737 14.457 10.9465 14.1752 12.1925 13.7733 13.0296 13.3193 13.5829 12.8687 14.1321 12.3591 14.4118 11.8374 14.5332 11.0968 14.7056 10.3184 14.564 9.62471 14.3683 9.73165 14.3384 9.83973 14.3077 9.94602 14.2768 10.3626 14.1554 10.7859 14.0207 10.9924 13.9102 11.0666 13.8705 11.1161 13.7971 11.1267 13.7145 11.1372 13.632 11.1079 13.5487 11.0467 13.4914 10.1966 12.6951 9.83889 11.9038 9.68853 11.1743Z"/>
	</svg>
	