<?xml version="1.0"?>
	<svg xmlns="http://www.w3.org/2000/svg" 
		width="32" 
		height="32" 
		viewbox="0 0 32 32" 
		code="82894" 
		 transform=""
		><path d="M23.2192 14.2341C23.4795 14.2341 23.6226 14.0817 23.6226 13.8233V11.9415C23.6226 10.6626 22.9719 10 21.7031 10H10.3034C9.03457 10 8.3839 10.656 8.3839 11.9415V13.8233C8.3839 14.0817 8.53355 14.2341 8.78731 14.2341 9.03457 14.2341 9.18422 14.0817 9.18422 13.8233V11.9812C9.18422 11.2192 9.58113 10.8216 10.3164 10.8216H21.6836C22.4059 10.8216 22.8158 11.2192 22.8158 11.9812V13.8233C22.8158 14.0817 22.9654 14.2341 23.2192 14.2341ZM15.9833 18.8192C16.2436 18.8192 16.3867 18.6403 16.3867 18.362V13.8496H18.098C18.2932 13.8496 18.4364 13.7105 18.4364 13.5051 18.4364 13.293 18.2932 13.1605 18.098 13.1605H13.9077C13.7125 13.1605 13.5693 13.293 13.5693 13.5051 13.5693 13.7105 13.7125 13.8496 13.9077 13.8496H15.5799V18.362C15.5799 18.6337 15.7296 18.8192 15.9833 18.8192ZM9.56812 15.8775C9.56812 16.3214 9.21675 16.6726 8.78731 16.6726 8.35787 16.6726 8 16.3214 8 15.8775 8 15.4402 8.35787 15.0824 8.78731 15.0824 9.21675 15.0824 9.56812 15.4402 9.56812 15.8775ZM23.219 16.6726C23.6419 16.6726 23.9998 16.3214 23.9998 15.8775 23.9998 15.4402 23.6419 15.0824 23.219 15.0824 22.783 15.0824 22.4316 15.4335 22.4316 15.8775 22.4316 16.3214 22.783 16.6726 23.219 16.6726ZM23.6225 20.065C23.6225 21.3372 22.9718 21.9998 21.703 21.9998H10.3033C9.03446 21.9998 8.38379 21.3438 8.38379 20.065V17.9645C8.38379 17.7061 8.53344 17.5537 8.78721 17.5537 9.03446 17.5537 9.18411 17.7061 9.18411 17.9645V20.0186C9.18411 20.7872 9.58102 21.1782 10.3163 21.1782H21.6835C22.4057 21.1782 22.8157 20.7872 22.8157 20.0186V17.9645C22.8157 17.7061 22.9653 17.5537 23.2191 17.5537 23.4728 17.5537 23.6225 17.7061 23.6225 17.9645V20.065Z"/>
	</svg>
	