<?xml version="1.0"?>
	<svg xmlns="http://www.w3.org/2000/svg" 
		width="30" 
		height="30" 
		viewbox="0 0 30 30" 
		code="81098" 
		 transform=""
		><path d="M24.8545555 5.11686151C22.0025764 2.26488233 17.9608145 0.620182688 13.516626 1.07509961 7.0952987 1.72248139 1.81126367 6.9365292 1.09389467 13.3578565 0.13157041 21.8438069 6.69287219 29 14.9688608 29 20.5503416 29 25.3444661 25.7280975 27.5840571 21.021457 28.1439548 19.8491711 27.3041082 18.5019171 26.0093446 18.5019171 25.3619629 18.5019171 24.7495747 18.8518532 24.4696258 19.4292478 22.4924869 23.6809714 17.7508528 26.3754793 12.5717986 25.2206902 8.68750794 24.3633467 5.55557988 21.1964251 4.73323006 17.3121344 3.26349846 10.5233742 8.42505586 4.50447334 14.9688608 4.50447334 17.8733304 4.50447334 20.4628575 5.71175287 22.3525124 7.61890459L19.7104949 10.2609221C18.6081962 11.3632208 19.3780556 13.2528757 20.9352713 13.2528757L27.2166242 13.2528757C28.1789484 13.2528757 28.9663046 12.4655195 28.9663046 11.5031952L28.9663046 5.22184234C28.9663046 3.66462672 27.0766497 2.8772705 25.974351 3.9795692L24.8545555 5.11686151Z"/>
	</svg>
	