<?xml version="1.0"?>
	<svg xmlns="http://www.w3.org/2000/svg" 
		width="30" 
		height="30" 
		viewbox="0 0 30 30" 
		code="81100" 
		 transform=""
		><path d="M15.69469 9C11.9860302 9 8.62724387 10.3854993 6.03817944 12.6386852L3.39313523 9.99364095C2.51145383 9.11195954 1 9.72773703 1 10.9732869L1 18.79646C1 19.5661819 1.62977243 20.1959543 2.39949429 20.1959543L10.2226674 20.1959543C11.4682173 20.1959543 12.0979897 18.6845005 11.2163083 17.8028191L8.54327422 15.129785C10.4885713 13.5063716 12.9656762 12.4987357 15.708685 12.4987357 20.1310869 12.4987357 23.9517063 15.0738052 25.7710489 18.79646 26.1489124 19.5801768 27.0445887 19.9720352 27.8702903 19.6921364 28.8639313 19.3702527 29.3677492 18.2366623 28.9199111 17.2850062 26.5127809 12.3867762 21.5025913 9 15.69469 9Z"/>
	</svg>
	