<?xml version="1.0"?>
	<svg xmlns="http://www.w3.org/2000/svg" 
		width="40" 
		height="40" 
		viewbox="0 0 40 40" 
		code="82895" 
		 transform=""
		><path d="M20.4646 16C17.8235 16 15.4316 16.99 13.5879 18.6L11.7042 16.71C11.0764 16.08 10 16.52 10 17.41V23C10 23.55 10.4485 24 10.9966 24H16.5678C17.4548 24 17.9033 22.92 17.2754 22.29L15.3718 20.38C16.7571 19.22 18.5212 18.5 20.4746 18.5 23.6239 18.5 26.3447 20.34 27.6403 23 27.9094 23.56 28.5473 23.84 29.1353 23.64 29.8429 23.41 30.2017 22.6 29.8827 21.92 28.1685 18.42 24.6006 16 20.4646 16Z"/>
	</svg>
	