<?xml version="1.0"?>
	<svg xmlns="http://www.w3.org/2000/svg" 
		width="32" 
		height="32" 
		viewbox="0 0 32 32" 
		code="82896" 
		 transform=""
		><path d="M17 12.0005C17 10.3436 18.3431 9.00049 20 9.00049 21.6569 9.00049 23 10.3436 23 12.0005V12.9999H22V12.0005C22 10.8959 21.1046 10.0005 20 10.0005 18.8954 10.0005 18 10.8959 18 12.0005V13.9999H18.4C18.9601 13.9999 19.2401 13.9999 19.454 14.1089 19.6422 14.2048 19.7951 14.3577 19.891 14.5459 20 14.7598 20 15.0398 20 15.5999V15.9999H23L22.5 16.0005 20 15.9999V20.3999C20 20.9599 20 21.24 19.891 21.4539 19.7951 21.642 19.6422 21.795 19.454 21.8909 19.2401 21.9999 18.9601 21.9999 18.4 21.9999H11.6C11.0399 21.9999 10.7599 21.9999 10.546 21.8909 10.3578 21.795 10.2049 21.642 10.109 21.4539 10 21.24 10 20.9599 10 20.3999V15.5999C10 15.0398 10 14.7598 10.109 14.5459 10.2049 14.3577 10.3578 14.2048 10.546 14.1089 10.7599 13.9999 11.0399 13.9999 11.6 13.9999H17V12.0005Z"/>
	</svg>
	