<?xml version="1.0"?>
	<svg xmlns="http://www.w3.org/2000/svg" 
		width="64" 
		height="64" 
		viewbox="0 0 64 64" 
		code="82898" 
		 transform=""
		><path d="M35.6303 37.2721V38.8252H41.6536C45.3281 38.8252 47.5 36.6028 47.5 33.648 47.5 31.211 46.0479 29.1401 43.5603 28.2562 43.6487 22.7381 39.7216 18.71 34.7086 18.71 31.2613 18.71 28.8874 20.5788 27.4857 22.8391 24.6193 22.0057 21.0963 24.1523 21.0837 27.6375 18.2931 27.9784 16.5 30.2008 16.5 33.0924 16.5 36.2998 18.8234 38.8252 22.8136 38.8252H28.2939V37.2721H22.801C19.72 37.2721 18.0658 35.4285 18.0658 33.0924 18.0658 30.6806 19.5937 28.8623 22.2707 28.8623 22.4348 28.8623 22.498 28.7739 22.498 28.6224 22.498 24.91 25.3012 23.6851 27.9656 24.4554 28.1045 24.4933 28.1929 24.468 28.256 24.3417 29.5061 22.1446 31.4002 20.2631 34.7086 20.2631 38.8377 20.2631 41.7925 23.5336 42.045 27.4607 42.0829 27.9784 42.0324 28.5971 42.0071 29.1401 41.9945 29.2916 42.0576 29.38 42.1965 29.4053 44.4821 29.9356 45.9342 31.4888 45.9342 33.648 45.9342 35.7442 44.4568 37.2721 41.6536 37.2721H35.6303ZM31.9684 45.2904C32.3851 45.2904 32.7387 44.9368 32.7387 44.5328V32.057L32.6756 29.9356 33.7994 31.0847 35.946 33.2313C36.0976 33.3829 36.2996 33.4713 36.489 33.4713 36.8804 33.4713 37.1835 33.1808 37.1835 32.7768 37.1835 32.5747 37.1204 32.4106 36.9562 32.2717L32.524 28.0163C32.322 27.8269 32.1578 27.7511 31.9684 27.7511 31.7664 27.7511 31.6022 27.8269 31.4002 28.0163L26.9554 32.2717C26.8039 32.4106 26.7281 32.5747 26.7281 32.7768 26.7281 33.1808 27.0185 33.4713 27.4226 33.4713 27.612 33.4713 27.8267 33.3829 27.9656 33.2313L30.1122 31.0847 31.2487 29.923 31.1855 32.057V44.5328C31.1855 44.9368 31.5391 45.2904 31.9684 45.2904Z"/>
	</svg>
	