<?xml version="1.0"?>
	<svg xmlns="http://www.w3.org/2000/svg" 
		width="64" 
		height="64" 
		viewbox="0 0 64 64" 
		code="82897" 
		 transform=""
		><path d="M22.9778 38.8477H30.2074V32.4031L28.7064 33.9041C28.3734 34.2558 27.8978 34.4488 27.4445 34.4488 26.4881 34.4488 25.75 33.7107 25.75 32.7543 25.75 32.261 25.9514 31.8374 26.2921 31.5208L30.7381 27.2642C31.0591 26.9633 31.4559 26.7286 31.9903 26.7286 32.5202 26.7286 32.917 26.9709 33.2299 27.2643L33.2386 27.2724 37.6525 31.5104C38.0474 31.8588 38.2054 32.3062 38.2054 32.7543 38.2054 33.7226 37.4426 34.4488 36.5109 34.4488 36.0249 34.4488 35.5764 34.2316 35.2608 33.916L33.7606 32.4158V38.8477H41.742C45.2523 38.8477 47.5 36.6632 47.5 33.7589 47.5 31.3597 46.0479 29.1878 43.5603 28.2787 43.6487 22.7605 39.7216 18.7324 34.7086 18.7324 31.2613 18.7324 28.8874 20.6013 27.4857 22.8615 24.6193 22.0281 21.0963 24.1748 21.0837 27.6599 18.2931 28.0009 16.5 30.3495 16.5 33.2033 16.5 36.3601 19.0002 38.8477 22.9778 38.8477ZM32.7606 44.5103C32.7606 44.9144 32.407 45.2679 31.9903 45.2679 31.561 45.2679 31.2074 44.9144 31.2074 44.5103V32.0345L31.2706 29.9005 30.1341 31.0622 27.9875 33.2089C27.8486 33.3604 27.6339 33.4488 27.4445 33.4488 27.0404 33.4488 26.75 33.1584 26.75 32.7543 26.75 32.5523 26.8258 32.3881 26.9773 32.2492L31.4221 27.9938C31.6241 27.8044 31.7883 27.7286 31.9903 27.7286 32.1797 27.7286 32.3439 27.8044 32.5459 27.9938L36.9781 32.2492C37.1423 32.3881 37.2054 32.5523 37.2054 32.7543 37.2054 33.1584 36.9023 33.4488 36.5109 33.4488 36.3215 33.4488 36.1195 33.3604 35.9679 33.2089L33.8213 31.0622 32.6975 29.9132 32.7606 32.0345V44.5103Z"/>
	</svg>
	