<?xml version="1.0"?>
	<svg xmlns="http://www.w3.org/2000/svg" 
		width="24" 
		height="24" 
		viewbox="0 0 24 24" 
		code="82899" 
		 transform=""
		><path d="M12.3531 13.6197C12.3531 13.8092 12.1923 13.9643 12.0028 13.9643 11.8132 13.9643 11.6524 13.8092 11.6524 13.6197V7.43359L11.6754 6.60073 11.1642 7.12916 10.1877 8.14582C10.1245 8.21475 10.0269 8.24921 9.94074 8.24921 9.75694 8.24921 9.61909 8.1171 9.61909 7.93904 9.61909 7.8414 9.65929 7.77247 9.72822 7.70355L11.75 5.72767C11.8362 5.64151 11.9109 5.61279 12.0028 5.61279 12.0947 5.61279 12.1693 5.64151 12.2555 5.72767L14.2773 7.70355C14.3405 7.77247 14.3807 7.8414 14.3807 7.93904 14.3807 8.1171 14.2371 8.24921 14.0591 8.24921 13.9729 8.24921 13.881 8.21475 13.8178 8.14582L12.8414 7.12916 12.3302 6.60073 12.3531 7.43359V13.6197ZM17 16.7099C17 17.8127 16.4256 18.3871 15.3056 18.3871H8.69443C7.57438 18.3871 7 17.8184 7 16.7099V10.8397C7 9.72538 7.57438 9.15674 8.69443 9.15674H10.3372V9.86897H8.70592C8.06261 9.86897 7.71223 10.2136 7.71223 10.8741V16.6697C7.71223 17.3359 8.06261 17.6748 8.70592 17.6748H15.2883C15.9259 17.6748 16.2878 17.3359 16.2878 16.6697V10.8741C16.2878 10.2136 15.9259 9.86897 15.2883 9.86897H13.6686V9.15674H15.3056C16.4256 9.15674 17 9.73112 17 10.8397V16.7099Z"/>
	</svg>
	