<?xml version="1.0"?>
	<svg xmlns="http://www.w3.org/2000/svg" 
		width="30" 
		height="30" 
		viewbox="0 0 30 30" 
		code="81106" 
		 transform=""
		><path d="M24.4491967 4.58372196C24.849591 4.58963331 25.2023248 4.85437572 25.3198434 5.23718106L25.3459212 5.34440394 28.7498962 24.0893539C28.8403959 24.5941414 28.5350025 25.0783035 28.0556627 25.2229269L27.9420591 25.2501291 9.20346577 28.6096338 9.08766471 28.6235802 8.97345594 28.6241169C8.55867049 28.6022373 8.19349984 28.322084 8.07048339 27.9173395L8.04308194 27.803966 7.5 24.8127473 23.3389575 24.8127473C23.8517933 24.8127473 24.2744647 24.4267071 24.3322298 23.9293684L24.3389575 23.8127473 24.3389575 4.58863284 24.4491967 4.58372196ZM1.7138515 22.9285714C1.16156675 22.9285714 0.713851498 22.4808562 0.713851498 21.9285714L0.713851498 2.5C0.713851498 1.94771525 1.16156675 1.5 1.7138515 1.5L21.1424229 1.5C21.6947077 1.5 22.1424229 1.94771525 22.1424229 2.5L22.1424229 21.9285714C22.1424229 22.4414073 21.7563827 22.8640786 21.2590441 22.9218437L21.1424229 22.9285714 1.7138515 22.9285714Z"/>
	</svg>
	