<?xml version="1.0"?>
	<svg xmlns="http://www.w3.org/2000/svg" 
		width="32" 
		height="32" 
		viewbox="0 0 32 32" 
		code="82900" 
		 transform=""
		><path d="M16.0122 15.386C17.9054 15.386 19.4248 13.7203 19.4248 11.6483 19.4248 9.62507 17.8973 8 16.0122 8 14.1352 8 12.5914 9.64132 12.5995 11.6564 12.6077 13.7284 14.119 15.386 16.0122 15.386ZM16.0122 14.4353C14.6878 14.4353 13.6071 13.2246 13.6071 11.6564 13.5908 10.1532 14.6878 8.95879 16.0122 8.95879 17.3366 8.95879 18.4173 10.137 18.4173 11.6483 18.4173 13.2084 17.3447 14.4353 16.0122 14.4353ZM10.7551 22.8369H21.2449C22.4394 22.8369 23 22.455 23 21.6344 23 19.5136 20.3349 16.4991 16.0041 16.4991 11.6651 16.4991 9 19.5136 9 21.6344 9 22.455 9.56878 22.8369 10.7551 22.8369ZM10.5032 21.8781C10.1294 21.8781 10.0075 21.7887 10.0075 21.5287 10.0075 19.993 12.177 17.4498 16.0041 17.4498 19.823 17.4498 22.0006 19.993 22.0006 21.5287 22.0006 21.7887 21.8706 21.8781 21.5049 21.8781H10.5032Z"/>
	</svg>
	