<?xml version="1.0"?>
	<svg xmlns="http://www.w3.org/2000/svg" 
		width="30" 
		height="30" 
		viewbox="0 0 30 30" 
		code="81108" 
		 transform=""
		><path d="M7.21875 16.171875L15.65625 16.171875C17.9744318 16.171875 19.763688 17.8908833 19.8699991 20.1748803L19.875 20.390625 19.875 29.53125 3 29.53125 3 20.390625C3 18.0724432 4.71900826 16.283187 7.00300526 16.1768759L7.21875 16.171875ZM17.0625 10.546875L21.28125 10.546875C23.5994318 10.546875 25.388688 12.2658833 25.4949991 14.5498803L25.5 14.765625 25.5 28.40625 21.5845335 28.40625 21.5979544 26.4238833C21.6692678 20.0427792 21.8453486 14.9333132 17.2910217 14.7696694L17.0625 14.765625 14.25 14.765625C15.7195312 13.9640625 16.6814062 12.5279297 17.0150566 10.8189316L17.0625 10.546875ZM11.4375 5.625C13.828125 5.625 15.65625 7.453125 15.65625 9.84375 15.65625 12.234375 13.828125 14.0625 11.4375 14.0625 9.046875 14.0625 7.21875 12.234375 7.21875 9.84375 7.21875 7.453125 9.046875 5.625 11.4375 5.625ZM17.0625-4.4408921e-14C19.453125-4.4408921e-14 21.28125 1.828125 21.28125 4.21875 21.28125 6.53693182 19.5622417 8.32618802 17.2782447 8.43249906L17.0625 8.4375 16.921875 8.4375C16.3828125 6.55078125 14.9396973 5.05151367 13.0876058 4.43477376L12.84375 4.359375 12.84375 4.21875C12.84375 1.828125 14.671875-4.4408921e-14 17.0625-4.4408921e-14Z"/>
	</svg>
	