<?xml version="1.0"?>
	<svg xmlns="http://www.w3.org/2000/svg" 
		width="30" 
		height="30" 
		viewbox="0 0 30 30" 
		code="81162" 
		 transform=""
		><path d="M14.96 0C23.28 0 30 6.72 30 14.96 30 23.28 23.28 30 14.96 30 6.72 30 0 23.28 0 14.96 0 6.72 6.72 0 14.96 0ZM14.96 2C7.84 2 2 7.84 2 14.96 2 22.16 7.84 27.92 14.96 27.92 22.16 27.92 27.92 22.16 27.92 14.96 27.92 7.84 22.16 2 14.96 2ZM19.04 18C21.52 18 23.68 19.76 24.16 22.08 22 24.8 18.72 26.56 14.96 26.56 11.28 26.56 7.92 24.8 5.84 22.08 6.32 19.76 8.4 18 10.88 18L19.04 18ZM14.96 6.56C17.7435151 6.56 20 8.81648486 20 11.6 20 14.3835151 17.7435151 16.64 14.96 16.64 12.1764849 16.64 9.92 14.3835151 9.92 11.6 9.92 8.81648486 12.1764849 6.56 14.96 6.56Z"/>
	</svg>
	