<?xml version="1.0"?>
	<svg xmlns="http://www.w3.org/2000/svg" 
		width="24" 
		height="24" 
		viewbox="0 0 24 24" 
		code="82901" 
		 transform=""
		><path d="M15.9904 6.42471C15.9904 6.16278 15.7778 5.9502 15.5159 5.9502 15.254 5.9502 15.0414 6.16278 15.0414 6.42471L15.043 7.59968C14.0074 6.56351 12.6072 5.97843 11.1267 5.97843 9.46327 5.97843 7.90284 6.71605 6.8454 8.00174 6.67885 8.20412 6.70803 8.50306 6.91041 8.66961 6.9989 8.74221 7.10567 8.77756 7.21172 8.77756 7.34862 8.77756 7.48456 8.71825 7.57852 8.60437 8.45494 7.53862 9.74821 6.92721 11.1267 6.92721 12.3773 6.92721 13.5587 7.43094 14.4216 8.32102L13.3806 8.32274C13.1187 8.32274 12.9061 8.53532 12.9061 8.79725 12.9061 9.05918 13.1187 9.27176 13.3806 9.27176H15.9904V6.42471ZM17.4996 18.05L13.0996 13.65 17.4996 9.25V18.05ZM6.5 9.54932V18.0094L10.9 13.6499 6.5 9.54932ZM7.44854 15.7182V11.8407L9.38738 13.7793 7.44854 15.7182Z"/>
	</svg>
	