<?xml version="1.0"?>
	<svg xmlns="http://www.w3.org/2000/svg" 
		width="32" 
		height="32" 
		viewbox="0 0 32 32" 
		code="82905" 
		 transform=""
		><path d="M19 19.0392C19 20.2876 18.2456 21 16.9522 21H10.0545C8.76118 21 8 20.2876 8 19.0392V12.9608C8 11.7124 8.80159 11 10.0545 11H16.9994C18.2927 11 19 11.7124 19 12.9608V19.0392ZM24 19.1818C24 19.6688 23.672 20 23.18 20 22.9305 20 22.6738 19.8831 22.4385 19.7013L20 17.8052V14.1883L22.4385 12.2987C22.6738 12.1169 22.9305 12 23.18 12 23.672 12 24 12.3312 24 12.8182V19.1818Z"/>
	</svg>
	