<?xml version="1.0"?>
	<svg xmlns="http://www.w3.org/2000/svg" 
		width="24" 
		height="24" 
		viewbox="0 0 24 24" 
		code="82902" 
		 transform=""
		><path d="M7.42414 17H13.1421C14.386 17 15.1121 16.2661 15.1121 14.9804V14.0202L17.2316 15.8357C17.4345 16.0067 17.6481 16.1226 17.8616 16.1226 18.2727 16.1226 18.545 15.8136 18.545 15.3446V9.64991C18.545 9.18087 18.2727 8.87186 17.8616 8.87186 17.6481 8.87186 17.4345 8.98774 17.2316 9.1588L15.1121 10.9742V10.0141C15.1121 8.72839 14.386 8 13.1421 8H7.42414C6.21756 8 5.4541 8.72839 5.4541 10.0141V14.9804C5.4541 16.2661 6.18019 17 7.42414 17ZM7.5416 16.3599C6.61798 16.3599 6.11612 15.8688 6.11612 14.87V10.1245C6.11612 9.13121 6.61798 8.6401 7.5416 8.6401H13.0246C13.9482 8.6401 14.4501 9.13121 14.4501 10.1245V14.87C14.4501 15.8688 13.9482 16.3599 13.0246 16.3599H7.5416ZM17.5573 15.2673L15.1121 13.2146V11.7799L17.5573 9.72716C17.6374 9.66646 17.6961 9.62232 17.7655 9.62232 17.8563 9.62232 17.9097 9.69405 17.9097 9.82097V15.179C17.9097 15.3059 17.8563 15.3777 17.7655 15.3777 17.6961 15.3777 17.6374 15.328 17.5573 15.2673Z"/>
	</svg>
	