<?xml version="1.0"?>
	<svg xmlns="http://www.w3.org/2000/svg" 
		width="64" 
		height="64" 
		viewbox="0 0 64 64" 
		code="82906" 
		 transform=""
		><path d="M20.8157 43H34.7928C37.8336 43 39.6085 41.206 39.6085 38.0632V35.7161L44.7896 40.1539C45.2855 40.572 45.8075 40.8553 46.3295 40.8553 47.3344 40.8553 48 40.0999 48 38.9534V25.0331C48 23.8866 47.3344 23.1312 46.3295 23.1312 45.8075 23.1312 45.2855 23.4145 44.7896 23.8326L39.6085 28.2704V25.9234C39.6085 22.7805 37.8336 21 34.7928 21H20.8157C17.8662 21 16 22.7805 16 25.9234V38.0632C16 41.206 17.7749 43 20.8157 43ZM21.1028 41.4353C18.845 41.4353 17.6183 40.2348 17.6183 37.7934V26.1931C17.6183 23.7652 18.845 22.5647 21.1028 22.5647H34.5057C36.7635 22.5647 37.9902 23.7652 37.9902 26.1931V37.7934C37.9902 40.2348 36.7635 41.4353 34.5057 41.4353H21.1028ZM45.5856 38.7646L39.6085 33.7468V30.2397L45.5856 25.2219C45.7814 25.0736 45.925 24.9657 46.0946 24.9657 46.3165 24.9657 46.447 25.141 46.447 25.4513V38.5487C46.447 38.859 46.3165 39.0343 46.0946 39.0343 45.925 39.0343 45.7814 38.9129 45.5856 38.7646Z"/>
	</svg>
	