<?xml version="1.0"?>
	<svg xmlns="http://www.w3.org/2000/svg" 
		width="32" 
		height="32" 
		viewbox="0 0 32 32" 
		code="82904" 
		 transform=""
		><path d="M24 15.9958C24 11.6207 20.3774 8 16 8 11.6143 8 8 11.6207 8 15.9958 8 20.3793 11.6226 24 16 24 20.3857 24 24 20.3793 24 15.9958ZM9 15.9959C9 12.1691 12.1687 9 16 9 19.8261 9 23 12.172 23 15.9959 23 19.8298 19.8325 23 16 23 12.1728 23 9 19.8268 9 15.9959ZM18.0997 17.7559C18.0997 18.558 17.6332 19.0163 16.8311 19.0163H12.5342C11.7403 19.0163 11.2656 18.558 11.2656 17.7559V13.8682C11.2656 13.0662 11.7649 12.616 12.5342 12.616H16.8638C17.6659 12.616 18.0997 13.0662 18.0997 13.8682V17.7559ZM20.9316 17.862C20.9316 18.1811 20.7433 18.3858 20.4569 18.3858 20.3096 18.3858 20.1622 18.3121 20.0231 18.1975L18.5008 16.9125V14.7109L20.0231 13.4259C20.1541 13.3195 20.3096 13.2377 20.4569 13.2377 20.7433 13.2377 20.9316 13.4505 20.9316 13.7615V17.862Z"/>
	</svg>
	