<?xml version="1.0"?>
	<svg xmlns="http://www.w3.org/2000/svg" 
		width="32" 
		height="32" 
		viewbox="0 0 32 32" 
		code="82903" 
		 transform=""
		><path d="M23.1183 22C23.7016 22 24 21.7154 24 21.1462V10.8605C24 10.2978 23.7016 10 23.1183 10H8.87495C8.29843 10 8 10.2978 8 10.8605V21.1462C8 21.7154 8.29843 22 8.87495 22H23.1183ZM10.1298 12.2043H9.22769C9.01743 12.2043 8.875 12.0586 8.875 11.8799V11.0327C8.875 10.8275 9.01065 10.6885 9.22769 10.6885H10.1298C10.3332 10.6885 10.4757 10.8275 10.4757 11.0327V11.8799C10.4757 12.0586 10.3332 12.2043 10.1298 12.2043ZM21.8293 12.2043H22.7313C22.9348 12.2043 23.0772 12.0586 23.0772 11.8799V11.0327C23.0772 10.8275 22.9416 10.6885 22.7313 10.6885H21.8293C21.619 10.6885 21.4766 10.8275 21.4766 11.0327V11.8799C21.4766 12.0586 21.6258 12.2043 21.8293 12.2043ZM20.209 15.5861H11.7511C11.5205 15.5861 11.3984 15.4604 11.3984 15.2419V11.1647C11.3984 10.9463 11.5205 10.8205 11.7511 10.8205H20.209C20.4328 10.8205 20.5616 10.9463 20.5616 11.1647V15.2419C20.5616 15.4604 20.4328 15.5861 20.209 15.5861ZM9.22769 14.4876H10.1298C10.3332 14.4876 10.4757 14.342 10.4757 14.1633V13.3161C10.4757 13.1109 10.3332 12.9719 10.1298 12.9719H9.22769C9.01065 12.9719 8.875 13.1109 8.875 13.3161V14.1633C8.875 14.342 9.01743 14.4876 9.22769 14.4876ZM22.7313 14.4876H21.8293C21.6258 14.4876 21.4766 14.342 21.4766 14.1633V13.3161C21.4766 13.1109 21.619 12.9719 21.8293 12.9719H22.7313C22.9416 12.9719 23.0772 13.1109 23.0772 13.3161V14.1633C23.0772 14.342 22.9348 14.4876 22.7313 14.4876ZM9.22769 16.771H10.1298C10.3332 16.771 10.4757 16.6254 10.4757 16.4467V15.5995C10.4757 15.3943 10.3332 15.2553 10.1298 15.2553H9.22769C9.01065 15.2553 8.875 15.3943 8.875 15.5995V16.4467C8.875 16.6254 9.01743 16.771 9.22769 16.771ZM22.7313 16.771H21.8293C21.6258 16.771 21.4766 16.6254 21.4766 16.4467V15.5995C21.4766 15.3943 21.619 15.2553 21.8293 15.2553H22.7313C22.9416 15.2553 23.0772 15.3943 23.0772 15.5995V16.4467C23.0772 16.6254 22.9348 16.771 22.7313 16.771ZM11.7511 21.1927H20.209C20.4328 21.1927 20.5616 21.0669 20.5616 20.8485V16.7845C20.5616 16.5661 20.4328 16.4404 20.209 16.4404H11.7511C11.5205 16.4404 11.3984 16.5661 11.3984 16.7845V20.8485C11.3984 21.0669 11.5205 21.1927 11.7511 21.1927ZM10.1298 19.0544H9.22769C9.01743 19.0544 8.875 18.9022 8.875 18.7301V17.8829C8.875 17.6777 9.01065 17.5387 9.22769 17.5387H10.1298C10.3332 17.5387 10.4757 17.6777 10.4757 17.8829V18.7301C10.4757 18.9022 10.3332 19.0544 10.1298 19.0544ZM21.8293 19.0544H22.7313C22.9348 19.0544 23.0772 18.9022 23.0772 18.7301V17.8829C23.0772 17.6777 22.9416 17.5387 22.7313 17.5387H21.8293C21.619 17.5387 21.4766 17.6777 21.4766 17.8829V18.7301C21.4766 18.9022 21.6258 19.0544 21.8293 19.0544ZM10.1298 21.3383H9.22769C9.01743 21.3383 8.875 21.186 8.875 21.0139V20.1667C8.875 19.9549 9.01065 19.8225 9.22769 19.8225H10.1298C10.3332 19.8225 10.4757 19.9549 10.4757 20.1667V21.0139C10.4757 21.186 10.3332 21.3383 10.1298 21.3383ZM21.8293 21.3383H22.7313C22.9348 21.3383 23.0772 21.186 23.0772 21.0139V20.1667C23.0772 19.9549 22.9416 19.8225 22.7313 19.8225H21.8293C21.619 19.8225 21.4766 19.9549 21.4766 20.1667V21.0139C21.4766 21.186 21.6258 21.3383 21.8293 21.3383Z"/>
	</svg>
	