<?xml version="1.0"?>
	<svg xmlns="http://www.w3.org/2000/svg" 
		width="24" 
		height="24" 
		viewbox="0 0 24 24" 
		code="82907" 
		 transform=""
		><path d="M6.56632 16.9632C6.69747 16.9632 6.82861 16.917 6.99553 16.8303L10.0537 15.2014 13.3085 17.0267C13.5112 17.1422 13.7198 17.2 13.9165 17.2 14.1073 17.2 14.2981 17.148 14.4829 17.044L17.5648 15.3227C17.8689 15.1552 18 14.9357 18 14.5949V6.82022C18 6.45054 17.7914 6.2426 17.4337 6.2426 17.3025 6.2426 17.1714 6.28303 17.0104 6.36968L13.8629 8.05054 10.6736 6.16751C10.4829 6.05776 10.2802 6 10.0775 6 9.86885 6 9.66021 6.05776 9.46945 6.16751L6.44113 7.88303C6.13711 8.05054 6 8.26426 6 8.61083V16.3798C6 16.7495 6.20864 16.9632 6.56632 16.9632ZM9.75559 14.5083L6.91803 16.0332C6.88823 16.0505 6.85842 16.0621 6.82861 16.0621 6.77496 16.0621 6.7392 16.0217 6.7392 15.9523V8.78412C6.7392 8.63971 6.78689 8.54152 6.92996 8.46065L9.55291 6.95307C9.62444 6.91841 9.68405 6.88375 9.75559 6.85487V14.5083ZM10.4948 14.5718V6.93574C10.5544 6.95884 10.62 6.9935 10.6796 7.02816L13.5112 8.69747V16.2585C13.4337 16.2296 13.3502 16.1892 13.2787 16.1487L10.4948 14.5718ZM14.2444 16.3336V8.66282L17.082 7.16679C17.1118 7.14946 17.1416 7.13791 17.1714 7.13791 17.225 7.13791 17.2668 7.17834 17.2668 7.24765V14.4217C17.2668 14.5603 17.2131 14.6643 17.076 14.7451L14.4888 16.2123C14.4054 16.2585 14.3279 16.2989 14.2444 16.3336Z"/>
	</svg>
	