<?xml version="1.0"?>
	<svg xmlns="http://www.w3.org/2000/svg" 
		width="32" 
		height="32" 
		viewbox="0 0 32 32" 
		code="82908" 
		 transform=""
		><path d="M15.2018 23.5C17.1144 23.5 18.6688 21.9456 18.6688 20.033 18.6688 19.0229 18.2533 18.1347 17.4367 17.4183 17.2791 17.2822 17.2433 17.1963 17.2433 16.9742L17.2505 10.7851C17.2505 9.40974 16.4267 8.5 15.2018 8.5 13.9625 8.5 13.1459 9.40974 13.1459 10.7851L13.153 16.9742C13.153 17.1963 13.1172 17.2822 12.9596 17.4183 12.143 18.1347 11.7275 19.0229 11.7275 20.033 11.7275 21.9456 13.2748 23.5 15.2018 23.5ZM15.2018 22.6547C13.7548 22.6547 12.58 21.4728 12.58 20.033 12.58 19.1877 12.974 18.414 13.7046 17.9198 13.9195 17.7693 14.0055 17.6189 14.0055 17.3324V10.8209C14.0055 9.9255 14.4926 9.3596 15.2018 9.3596 15.9038 9.3596 16.3909 9.9255 16.3909 10.8209V17.3324C16.3909 17.6189 16.4697 17.7693 16.6917 17.9198 17.4224 18.414 17.8092 19.1877 17.8092 20.033 17.8092 21.4728 16.6416 22.6547 15.2018 22.6547ZM20.2734 10.606C20.2734 10.7923 20.123 10.957 19.9152 10.957H18.4682C18.2605 10.957 18.1172 10.7923 18.1172 10.606 18.1172 10.4198 18.2605 10.2622 18.4682 10.2622H19.9152C20.123 10.2622 20.2734 10.4198 20.2734 10.606ZM19.9152 12.8553C20.123 12.8553 20.2734 12.6977 20.2734 12.5115 20.2734 12.3252 20.123 12.1605 19.9152 12.1605H18.4682C18.2605 12.1605 18.1172 12.3252 18.1172 12.5115 18.1172 12.6977 18.2605 12.8553 18.4682 12.8553H19.9152ZM16.8995 20.0258C16.8995 20.9785 16.1401 21.7378 15.1946 21.7378 14.2562 21.7378 13.4897 20.9785 13.4897 20.0258 13.4897 19.3668 13.8622 18.8223 14.4066 18.5287 14.6358 18.4069 14.7075 18.3209 14.7075 17.9771V14.4241C14.7075 14.0516 14.9224 13.8295 15.1946 13.8295 15.474 13.8295 15.6817 14.0516 15.6817 14.4241V17.9771C15.6817 18.3209 15.7605 18.4069 15.9897 18.5287 16.5341 18.8223 16.8995 19.3668 16.8995 20.0258ZM19.9152 14.7607C20.123 14.7607 20.2734 14.596 20.2734 14.4097 20.2734 14.2235 20.123 14.0659 19.9152 14.0659H18.4682C18.2605 14.0659 18.1172 14.2235 18.1172 14.4097 18.1172 14.596 18.2605 14.7607 18.4682 14.7607H19.9152ZM20.2734 16.3152C20.2734 16.5014 20.123 16.659 19.9152 16.659H18.4682C18.2605 16.659 18.1172 16.5014 18.1172 16.3152 18.1172 16.1289 18.2605 15.9642 18.4682 15.9642H19.9152C20.123 15.9642 20.2734 16.1289 20.2734 16.3152Z"/>
	</svg>
	