<?xml version="1.0"?>
	<svg xmlns="http://www.w3.org/2000/svg" 
		width="24" 
		height="24" 
		viewbox="0 0 24 24" 
		code="82909" 
		 transform=""
		><path d="M12.4377525 5.2759925L19.5908525 18.2409725C19.7747525 18.5741725 19.5336525 18.9824725 19.1530525 18.9824725L4.84691251 18.9824725C4.46632251 18.9824725 4.22527251 18.5741725 4.40913251 18.2409725L11.5622525 5.2759925C11.7523525 4.9313725 12.2476525 4.9313725 12.4377525 5.2759925ZM12.0000525 15.1393725C11.3925525 15.1393725 10.9000525 15.6317725 10.9000525 16.2393725L10.9000525 16.2393725 10.9000525 16.3078725 10.9065073 16.4277273C10.9662303 16.9788503 11.4330525 17.4078725 12.0000525 17.4078725 12.6075525 17.4078725 13.1000525 16.9153725 13.1000525 16.3078725L13.1000525 16.3078725 13.1000525 16.2393725 13.0935977 16.1195003C13.0338747 15.5683076 12.5670525 15.1393725 12.0000525 15.1393725ZM12.0000525 8.8642325C11.5029525 8.8642325 11.1000525 9.2671825 11.1000525 9.7642325L11.1000525 9.7642325 11.1000525 12.8520725C11.1000525 13.3490725 11.5029525 13.7520725 12.0000525 13.7520725 12.4970525 13.7520725 12.9000525 13.3490725 12.9000525 12.8520725L12.9000525 12.8520725 12.9000525 9.7642325C12.9000525 9.2671825 12.4970525 8.8642325 12.0000525 8.8642325Z"/>
	</svg>
	