<?xml version="1.0"?>
	<svg xmlns="http://www.w3.org/2000/svg" 
		width="30" 
		height="30" 
		viewbox="0 0 30 30" 
		code="81135" 
		 transform=""
		><path d="M15 0C23.28 0 30 6.72 30 15 30 23.28 23.28 30 15 30 6.72 30 0 23.28 0 15 0 6.72 6.72 0 15 0ZM15 2C7.83375 2 2 7.83375 2 15 2 22.16625 7.83375 28 15 28 22.16625 28 28 22.16625 28 15 28 7.83375 22.16625 2 15 2ZM15.7584693 7.46285757L15.8314019 7.57114064 15.8977588 7.68510911 22.7959538 20.3962415C23.2701377 21.2700084 22.8894727 21.9855138 21.9481541 22.0460799L21.8163449 22.0502328 8.18396607 22.0502328C7.19051254 22.0502328 6.74773896 21.3727086 7.14495731 20.5143628L7.20435718 20.3962415 14.1025522 7.68510911C14.5541559 6.85295023 15.261359 6.77887347 15.7584693 7.46285757ZM15.0001555 18.0962441L14.8949543 18.1017767C14.4483981 18.1490287 14.0928483 18.4935815 14.0407907 18.928148L14.034222 19.0385449 14.0398934 19.1411723C14.0883305 19.576803 14.4415245 19.9236539 14.8869898 19.9744378L15.0001555 19.9808458 15.1053567 19.9753132C15.5519129 19.9280612 15.9074627 19.5835084 15.9595203 19.1489419L15.966089 19.0385449 15.9604176 18.9359176C15.9119805 18.5002869 15.5587865 18.153436 15.1133212 18.102652L15.0001555 18.0962441ZM15.0001555 10.5578371L14.8949543 10.5633697C14.4483981 10.6106217 14.0928483 10.9551745 14.0407907 11.389741L14.034222 11.5001379 14.034222 16.2116423C14.034222 16.6971157 14.4111851 17.0972209 14.8949543 17.1484106L15.0001555 17.1539432 15.1053567 17.1484106C15.5519129 17.1011585 15.9074627 16.7566058 15.9595203 16.3220393L15.966089 16.2116423 15.966089 11.5001379C15.966089 10.9799879 15.5333508 10.5578371 15.0001555 10.5578371Z"/>
	</svg>
	