<?xml version="1.0"?>
	<svg xmlns="http://www.w3.org/2000/svg" 
		width="30" 
		height="30" 
		viewbox="0 0 30 30" 
		code="81112" 
		 transform=""
		><path d="M16.9029907 2.96379984L17.0149679 3.15612162 28.6556721 24.6061576C29.4558574 26.0806391 28.8134852 27.2880545 27.22501 27.3902599L27.0025821 27.3972678 3.99794274 27.3972678C2.32148992 27.3972678 1.57430949 26.2539458 2.24461546 24.8054873L2.34485274 24.6061576 13.9855569 3.15612162C14.7476381 1.75185351 15.9410433 1.62684897 16.7799169 2.78107216L16.9029907 2.96379984ZM15.5002624 20.7249119L15.3227354 20.7342482C14.5691718 20.813986 13.9691815 21.3954187 13.8813343 22.1287497L13.8702496 22.3150446 13.8798201 22.4882282C13.9615577 23.2233551 14.5575726 23.8086659 15.3092953 23.8943639L15.5002624 23.9051773 15.6777894 23.895841C16.4313531 23.8161032 17.0313433 23.2346704 17.1191906 22.5013394L17.1302752 22.3150446 17.1207047 22.141861C17.0389671 21.4067341 16.4429522 20.8214233 15.6912295 20.7357253L15.5002624 20.7249119ZM15.5002624 8.00385004L15.3227354 8.01318636C14.5691718 8.09292415 13.9691815 8.67435693 13.8813343 9.40768791L13.8702496 9.59398277 13.8702496 17.5446464C13.8702496 18.3638828 14.5063748 19.0390602 15.3227354 19.1254428L15.5002624 19.1347791 15.6777894 19.1254428C16.4313531 19.045705 17.0313433 18.4642722 17.1191906 17.7309413L17.1302752 17.5446464 17.1302752 9.59398277C17.1302752 8.7162295 16.4000295 8.00385004 15.5002624 8.00385004Z"/>
	</svg>
	