<?xml version="1.0"?>
	<svg xmlns="http://www.w3.org/2000/svg" 
		width="1024" 
		height="1024" 
		viewbox="0 0 1024 1024" 
		code="82910" 
		 transform=""
		><path d="M745.178 703.994h-466.569l233.285-414.728 233.283 414.728zM539.786 273.577c-12.234-21.749-43.549-21.749-55.782 0l-233.284 414.73c-11.999 21.331 3.416 47.686 27.89 47.686h466.569c24.477 0 39.891-26.355 27.891-47.686l-233.283-414.73zM511.891 415.139c-13.254 0-24 10.746-24 24v80.941c0 13.254 10.746 24 24 24s24-10.746 24-24v-80.941c0-13.254-10.746-24-24-24zM543.891 624v2.195c0 17.67-14.326 32-32 32s-32-14.33-32-32v-2.195c0-17.674 14.326-32 32-32s32 14.326 32 32z"/>
	</svg>
	