<?xml version="1.0"?>
	<svg xmlns="http://www.w3.org/2000/svg" 
		width="32" 
		height="32" 
		viewbox="0 0 32 32" 
		code="82911" 
		 transform=""
		><path d="M9.5 8C8.67157 8 8 8.67157 8 9.5V21.0003C8 21.8287 8.67157 22.5003 9.5 22.5003H11V21.5003H9.5C9.22386 21.5003 9 21.2764 9 21.0003V11.5H14.118L16.118 10.5 22.5001 10.5007C22.7762 10.5008 23 10.7246 23 11.0007V21.0003C23 21.2764 22.7761 21.5003 22.5 21.5003H21V22.5003H22.5C23.3284 22.5003 24 21.8287 24 21.0003V11.0007C24 10.1724 23.3285 9.50082 22.5002 9.50073L16.1667 9.50002 14.1667 8H9.5ZM18 22.5003V21.5003H14V22.5003H18ZM9 10.5V9.5C9 9.22386 9.22386 9 9.5 9H14L15.5 10 14 10.5H9ZM13.25 17.5C12.5596 17.5 12 18.0596 12 18.75V22.5C12 22.7761 12.2239 23 12.5 23 12.7761 23 13 22.7761 13 22.5V18.75C13 18.6119 13.1119 18.5 13.25 18.5H18.75C18.8881 18.5 19 18.6119 19 18.75V22.5C19 22.7761 19.2239 23 19.5 23 19.7761 23 20 22.7761 20 22.5V18.75C20 18.0596 19.4404 17.5 18.75 17.5H13.25Z"/>
	</svg>
	