<?xml version="1.0"?>
	<svg xmlns="http://www.w3.org/2000/svg" 
		width="30" 
		height="30" 
		viewbox="0 0 30 30" 
		code="81113" 
		 transform=""
		><path d="M11.85 23.2L17.45 23.2C17.8653846 23.2 18.2381657 23.5408284 18.2930587 23.9472007L18.3 24.05 18.3 28.85C18.3 29.2653846 17.9591716 29.6381657 17.5527993 29.6930587L17.45 29.7 11.85 29.7C11.4346154 29.7 11.0618343 29.3591716 11.0069413 28.9527993L11 28.85 11 24.05C11 23.6346154 11.3408284 23.2618343 11.7472007 23.2069413L11.85 23.2 17.45 23.2 11.85 23.2ZM7.45 17.5C7.91153846 17.5 8.24526627 17.7982249 8.29387802 18.2373691L8.3 18.35 8.3 23.15C8.3 23.5653846 7.9591716 23.9381657 7.55279927 23.9930587L7.45 24 1.85 24C1.43461538 24 1.06183432 23.6591716 1.00694128 23.2527993L1 23.15 1 18.35C1 17.8884615 1.3408284 17.5547337 1.74720073 17.506122L1.85 17.5 7.45 17.5ZM21.8 17.5L27.4 17.5C27.8615385 17.5 28.1952663 17.7982249 28.243878 18.2373691L28.25 18.35 28.25 23.15C28.25 23.5653846 27.9091716 23.9381657 27.5027993 23.9930587L27.4 24 21.8 24C21.3846154 24 21.0118343 23.6591716 20.9569413 23.2527993L20.95 23.15 20.95 18.35C20.95 17.9346154 21.2908284 17.5618343 21.6972007 17.5069413L21.8 17.5ZM15.5 7.5L15.5 11.35 24.45 11.35C24.8653846 11.35 25.2381657 11.6908284 25.2930587 12.0972007L25.3 12.2 25.3 16.45 23.6 16.45 23.6 13.1 15.5 13.1 15.5 22.2 13.75 22.2 13.75 13.1 5.65 13.1 5.65 16.45 3.95 16.45 3.95 12.2C3.95 11.7846154 4.2908284 11.4118343 4.69720073 11.3569413L4.8 11.35 13.8 11.35 13.8 7.5 15.5 7.5ZM17.85 6.79456491e-14C18.2653846 6.79456491e-14 18.6381657 0.340828402 18.6930587 0.747200728L18.7 0.85 18.7 5.7C18.7 6.11538462 18.3591716 6.48816568 17.9527993 6.54305872L17.85 6.55 11.4 6.55C10.9384615 6.55 10.6047337 6.2091716 10.556122 5.76347292L10.55 5.65 10.55 0.85C10.55 0.434615385 10.8908284 0.0618343195 11.2972007 0.00694128357L11.4 6.79456491e-14 17.85 6.79456491e-14Z"/>
	</svg>
	