<?xml version="1.0"?>
	<svg xmlns="http://www.w3.org/2000/svg" 
		width="32" 
		height="32" 
		viewbox="0 0 32 32" 
		code="82912" 
		 transform=""
		><path d="M10 13.8387C10 15.5801 11.8 16.7426 14.1414 16.7426L18.341 16.7426C18.5639 16.7426 18.7107 16.5843 18.7107 16.3865 18.7107 16.1935 18.5639 16.0352 18.341 16.0352L14.1414 16.0352C12.0199 16.0352 10.7293 15.0953 10.7293 13.7991 10.7293 12.503 11.6258 11.6076 13.2465 11.6076L16.8019 11.6076 17.9111 11.568 16.9741 12.3744 16.4155 12.9141C16.3496 12.9735 16.3142 13.0576 16.3142 13.1565 16.3142 13.3594 16.4611 13.5078 16.6788 13.5078 16.7649 13.5078 16.8713 13.4682 16.9422 13.3989L18.8784 11.5185C18.9595 11.4443 19 11.3553 19 11.2564 19 11.1574 18.9595 11.0634 18.8784 10.9892L16.9422 9.11378C16.8713 9.04452 16.7649 9 16.6788 9 16.4611 9 16.3142 9.14841 16.3142 9.35124 16.3142 9.45513 16.3496 9.53428 16.4155 9.59859L16.9741 10.1383 17.9111 10.9447 16.8019 10.9002 13.3022 10.9002C11.2206 10.9002 10 12.0924 10 13.8387ZM21 17.1613C21 15.4199 19.2 14.2574 16.8586 14.2574L12.659 14.2574C12.4361 14.2574 12.2893 14.4157 12.2893 14.6135 12.2893 14.8065 12.4361 14.9648 12.659 14.9648L16.8586 14.9648C18.9801 14.9648 20.2707 15.9047 20.2707 17.2009 20.2707 18.497 19.3742 19.3924 17.7535 19.3924H14.1981L13.0889 19.432 14.0259 18.6256 14.5845 18.0859C14.6504 18.0265 14.6858 17.9424 14.6858 17.8435 14.6858 17.6406 14.5389 17.4922 14.3212 17.4922 14.2351 17.4922 14.1287 17.5318 14.0578 17.6011L12.1216 19.4815C12.0405 19.5557 12 19.6447 12 19.7436 12 19.8426 12.0405 19.9366 12.1216 20.0108L14.0578 21.8862C14.1287 21.9555 14.2351 22 14.3212 22 14.5389 22 14.6858 21.8516 14.6858 21.6488 14.6858 21.5449 14.6504 21.4657 14.5845 21.4014L14.0259 20.8617 13.0889 20.0553 14.1981 20.0998 17.6978 20.0998C19.7794 20.0998 21 18.9076 21 17.1613Z"/>
	</svg>
	