<?xml version="1.0"?>
	<svg xmlns="http://www.w3.org/2000/svg" 
		width="32" 
		height="32" 
		viewbox="0 0 32 32" 
		code="82913" 
		 transform=""
		><path d="M9 9.5C9 9.22386 9.22386 9 9.5 9 9.77614 9 10 9.22386 10 9.5L10 22.5C10 22.7761 9.77614 23 9.5 23 9.22386 23 9 22.7761 9 22.5V9.5ZM22.5 9C22.2239 9 22 9.22386 22 9.5L22 22.5C22 22.7761 22.2239 23 22.5 23 22.7761 23 23 22.7761 23 22.5L23 9.5C23 9.22386 22.7761 9 22.5 9ZM16.3586 12.0268C18.7 12.0268 20.5 13.22 20.5 15.0073 20.5 16.7997 19.2794 18.0234 17.1978 18.0234H13.6981L12.5889 17.9777 13.5259 18.8053 14.0845 19.3593C14.1504 19.4253 14.1858 19.5065 14.1858 19.6131 14.1858 19.8213 14.0389 19.9736 13.8212 19.9736 13.7351 19.9736 13.6287 19.9279 13.5578 19.8569L11.6216 17.932C11.5405 17.8558 11.5 17.7593 11.5 17.6578 11.5 17.5562 11.5405 17.4648 11.6216 17.3887L13.5578 15.4587C13.6287 15.3876 13.7351 15.347 13.8212 15.347 14.0389 15.347 14.1858 15.4993 14.1858 15.7075 14.1858 15.8091 14.1504 15.8954 14.0845 15.9563L13.5259 16.5103 12.5889 17.3379 13.6981 17.2973 17.2535 17.2973C18.8742 17.2973 19.7707 16.3783 19.7707 15.048 19.7707 13.7176 18.4801 12.7529 16.3586 12.7529L12.159 12.7529C11.9361 12.7529 11.7893 12.5904 11.7893 12.3924 11.7893 12.1893 11.9361 12.0268 12.159 12.0268L16.3586 12.0268Z"/>
	</svg>
	