<?xml version="1.0"?>
	<svg xmlns="http://www.w3.org/2000/svg" 
		width="30" 
		height="30" 
		viewbox="0 0 30 30" 
		code="81114" 
		 transform=""
		><path d="M25.3570094 4.93548387C25.8604816 5.44763665 26.2019168 6.09096227 26.3813149 6.59797101L26.4409938 6.781187 22.4859156 7.9139995C21.7749781 8.12363491 21.463867 8.64802727 21.5764017 9.28074139L21.6070094 9.41790575 23.3062281 15.6679057C21.0503688 16.5761089 19.2339625 15.6386089 17.6324 17.2401714 14.9370875 19.9354839 12.4468531 24.4960307 10.6499781 26.3026714 8.6870875 28.265562 6.13825938 28.3534526 4.3120875 26.5370464 2.48591563 24.7011089 2.57380625 22.1620464 4.52693125 20.1991557 6.62654063 18.0897807 10.6890406 16.0682964 13.3648219 13.3925151 15.28865 11.4882182 12.7593531 8.11907762 16.3433375 4.70110887 18.8140406 2.35735887 22.9058375 2.43548387 25.3570094 4.93548387ZM6.33357188 22.328062C5.7574 22.9237651 5.7574 23.9100932 6.35310313 24.5057964 6.929275 25.0917339 7.95466563 25.1014995 8.51130625 24.5057964 9.09724375 23.9003276 9.14607188 22.9139995 8.52107188 22.328062 7.91560313 21.7421245 6.91950938 21.7225932 6.33357188 22.328062ZM24.0972438 10.2284526L27.1050563 9.359312C27.4859156 10.9511089 26.9195094 12.7772807 25.6988063 14.046812 25.4331813 14.3202495 25.1550563 14.574937 24.8744313 14.7908745L24.66365 14.9452495 23.4038844 10.296812C23.5835719 10.3202495 23.7507594 10.312437 23.9454469 10.2683745L24.0972438 10.2284526 27.1050563 9.359312 24.0972438 10.2284526ZM19.7332873 12.0504474L19.6538844 12.0643901 17.4566188 12.640562C17.2613063 12.6991557 17.1441188 12.8847026 17.1831813 13.0995464 17.2173609 13.2875347 17.3936 13.4007549 17.574512 13.3868694L17.6519313 13.3729839 19.8491969 12.7772807C20.0347438 12.7284526 20.1714625 12.5136089 20.1128688 12.3085307 20.0762477 12.1693706 19.9572291 12.0686626 19.8093714 12.0517253L19.7332873 12.0504474ZM19.4408526 10.9302425L19.3706813 10.9413432 17.1734156 11.5272807C16.9683375 11.5761089 16.8413844 11.7909526 16.8999781 11.9764995 16.9597926 12.1730327 17.1093287 12.287321 17.2962489 12.273569L17.3784938 12.2597026 19.5562281 11.6737651C19.7613063 11.624937 19.8882594 11.4296245 19.8199 11.2050151 19.7759547 11.0512065 19.6496119 10.9523296 19.5109095 10.9331035L19.4408526 10.9302425ZM19.1670146 9.80761522L19.0972438 9.81829637 16.8902125 10.4042339C16.6949 10.4628276 16.5679469 10.6776714 16.616775 10.8632182 16.6765895 11.0597514 16.8336024 11.166563 17.0223918 11.1509418L17.1050563 11.1366557 19.2827906 10.5604839C19.4878688 10.5116557 19.6245875 10.3065776 19.5464625 10.0917339 19.495193 9.93792528 19.3725123 9.83355516 19.2360987 9.8115825L19.1670146 9.80761522Z"/>
	</svg>
	