<?xml version="1.0"?>
	<svg xmlns="http://www.w3.org/2000/svg" 
		width="24" 
		height="24" 
		viewbox="0 0 24 24" 
		code="82914" 
		 transform=""
		><path d="M5.5 6C5.5 5.72386 5.72386 5.5 6 5.5H18C18.2761 5.5 18.5 5.72386 18.5 6 18.5 6.27614 18.2761 6.5 18 6.5H6C5.72386 6.5 5.5 6.27614 5.5 6ZM5.5 12C5.5 11.7239 5.72386 11.5 6 11.5H18C18.2761 11.5 18.5 11.7239 18.5 12 18.5 12.2761 18.2761 12.5 18 12.5H6C5.72386 12.5 5.5 12.2761 5.5 12ZM6 17.5C5.72386 17.5 5.5 17.7239 5.5 18 5.5 18.2761 5.72386 18.5 6 18.5H18C18.2761 18.5 18.5 18.2761 18.5 18 18.5 17.7239 18.2761 17.5 18 17.5H6Z"/>
	</svg>
	