<?xml version="1.0"?>
	<svg xmlns="http://www.w3.org/2000/svg" 
		width="24" 
		height="24" 
		viewbox="0 0 24 24" 
		code="82915" 
		 transform=""
		><path d="M18 5.5C18.2761 5.5 18.5 5.72386 18.5 6L18.5 18C18.5 18.2761 18.2761 18.5 18 18.5 17.7239 18.5 17.5 18.2761 17.5 18L17.5 6C17.5 5.72386 17.7239 5.5 18 5.5ZM12 5.5C12.2761 5.5 12.5 5.72386 12.5 6L12.5 18C12.5 18.2761 12.2761 18.5 12 18.5 11.7239 18.5 11.5 18.2761 11.5 18L11.5 6C11.5 5.72386 11.7239 5.5 12 5.5ZM6.5 6C6.5 5.72386 6.27614 5.5 6 5.5 5.72386 5.5 5.5 5.72386 5.5 6L5.5 18C5.5 18.2761 5.72386 18.5 6 18.5 6.27614 18.5 6.5 18.2761 6.5 18L6.5 6Z"/>
	</svg>
	