<?xml version="1.0"?>
	<svg xmlns="http://www.w3.org/2000/svg" 
		width="24" 
		height="44" 
		viewbox="0 0 24 44" 
		code="82916" 
		 transform=""
		><path d="M17.375 22C17.375 20.6883 16.3117 19.625 15 19.625L13.875 19.625V20.625H15C15.7594 20.625 16.375 21.2406 16.375 22 16.375 22.7594 15.7594 23.375 15 23.375H13.875V24.375L15 24.375C16.3117 24.375 17.375 23.3117 17.375 22ZM10.875 19.625V20.625L9 20.625C8.24061 20.625 7.625 21.2406 7.625 22 7.625 22.7594 8.24061 23.375 9 23.375H10.875V24.375H9C7.68832 24.375 6.625 23.3117 6.625 22 6.625 20.6883 7.68832 19.625 9 19.625L10.875 19.625ZM14.25 22.5C14.5261 22.5 14.75 22.2761 14.75 22 14.75 21.7239 14.5261 21.5 14.25 21.5L9.75 21.5C9.47386 21.5 9.25 21.7239 9.25 22 9.25 22.2761 9.47386 22.5 9.75 22.5L14.25 22.5ZM1 0.5C0.723858 0.5 0.5 0.723858 0.5 1 0.5 1.27614 0.723858 1.5 1 1.5H11.5V13.5C11.5 13.7761 11.7239 14 12 14 12.2761 14 12.5 13.7761 12.5 13.5V0.5H1ZM1 43.5C0.723858 43.5 0.5 43.2761 0.5 43 0.5 42.7239 0.723858 42.5 1 42.5H11.5V30.5C11.5 30.2239 11.7239 30 12 30 12.2761 30 12.5 30.2239 12.5 30.5V43.5H1Z"/>
	</svg>
	