<?xml version="1.0"?>
	<svg xmlns="http://www.w3.org/2000/svg" 
		width="24" 
		height="44" 
		viewbox="0 0 24 44" 
		code="82917" 
		 transform=""
		><path d="M13 17.25C11.7574 17.25 10.75 18.2574 10.75 19.5V20.625H11.5V19.5C11.5 18.6716 12.1716 18 13 18 13.8284 18 14.5 18.6716 14.5 19.5V20.625H15.25V19.5C15.25 18.2574 14.2426 17.25 13 17.25ZM10.75 23.625H11.5V25.5C11.5 26.3284 12.1716 27 13 27 13.8284 27 14.5 26.3284 14.5 25.5V23.625H15.25V25.5C15.25 26.7426 14.2426 27.75 13 27.75 11.7574 27.75 10.75 26.7426 10.75 25.5V23.625ZM13.375 20.25C13.375 20.0429 13.2071 19.875 13 19.875 12.7929 19.875 12.625 20.0429 12.625 20.25V24.75C12.625 24.9571 12.7929 25.125 13 25.125 13.2071 25.125 13.375 24.9571 13.375 24.75V20.25ZM0.5 1C0.5 0.723858 0.723858 0.5 1 0.5H13.5V13.5C13.5 13.7761 13.2761 14 13 14 12.7239 14 12.5 13.7761 12.5 13.5V1.5H1C0.723858 1.5 0.5 1.27614 0.5 1ZM0.5 43C0.5 43.2761 0.723858 43.5 1 43.5H13.5V30.5C13.5 30.2239 13.2761 30 13 30 12.7239 30 12.5 30.2239 12.5 30.5V42.5H1C0.723858 42.5 0.5 42.7239 0.5 43Z"/>
	</svg>
	