<?xml version="1.0"?>
	<svg xmlns="http://www.w3.org/2000/svg" width="30" height="30" viewbox="" code="61654"  transform=""><path d="M11.86890572 1.83036167C12.4247017 1.33462751 13.23625348 1.25219938 13.88030448 1.62633076 13.88030448 1.62633076 21.7675873 6.20824111 21.7800927 6.21716074 22.1872581 6.47157187 22.4522921 6.8697728 22.5483462 7.30741731 22.7303694 7.94608964 22.5958578 8.66082535 22.1250448 9.19698918L22.1250448 9.19698918 18.8201654 12.9609382 24.8254961 12.6266538C25.3216785 12.5994915 25.807238 12.787745 26.154745 13.144306 26.5020726 13.5007774 26.6782241 13.9901468 26.6377048 14.486374L26.6377048 14.486374 25.911898 23.3918841C25.8385688 24.2922287 25.0848825 24.9743787 24.1971329 24.9743787 24.150204 24.9743787 24.1028269 24.972541 24.0553601 24.9686862 23.1072349 24.8912782 22.4011947 24.0601391 22.4785131 23.1120587L22.4785131 23.1120587 23.0439907 16.1758145 20.7194637 16.305306C21.2936816 17.4750773 21.616626 18.7905657 21.616626 20.1816244 21.616626 22.5165054 20.7066445 24.6374049 19.2239243 26.2136244L19.2239243 26.2136244 16.998185499999998 23.9877512C17.9130077 22.9815363 18.471448199999998 21.645609 18.471448199999998 20.1816244 18.471448199999998 17.0589474 15.9309675 14.5184219 12.80833539 14.5184219 11.34435085 14.5184219 10.00833385 15.0768624 9.002119010000001 15.9917743L9.002119010000001 15.9917743 6.77624575 13.7659011C8.02463524 12.5916028 9.614928899999999 11.7771376 11.38240495 11.4888856L11.38240495 11.4888856 15.6448223 6.63441113 13.23006801 5.23214683 10.30909119 7.83770943C9.59928594 8.47109274 8.5105085 8.40874498 7.87725966 7.69893972 7.24405564 6.98904482 7.3062241100000005 5.90031221 8.016074190000001 5.26715301L8.016074190000001 5.26715301ZM22.9646553-4.52970994e-13C24.5568764-4.52970994e-13 25.8474884 1.29088099 25.8474884 2.88310201 25.8474884 4.47541267 24.5568764 5.7661592 22.9646553 5.7661592 21.3722102 5.7661592 20.0815533 4.47541267 20.0815533 2.88310201 20.0815533 1.29088099 21.372255-4.52970994e-13 22.9646553-4.52970994e-13ZM12.80838022 25.8447821C9.68570325 25.8447821 7.145177739999999 23.3042566 7.145177739999999 20.1815796 7.145177739999999 19.0047264 7.50626584 17.9108841 8.12306491 17.0042643L5.87316692 14.7544111C4.700840804 16.2504436 3.999999999999992 18.1336955 3.999999999999992 20.1815796 3.999999999999992 25.0463632 7.943596599999999 28.989915 12.80838022 28.989915 14.8563539 28.989915 16.7394266 28.2890742 18.2354142 27.1167032L15.9855611 24.8669397C15.0789861 25.4835595 13.98514374 25.8447821 12.80838022 25.8447821Z"/></svg>
	