<svg xmlns="http://www.w3.org/2000/svg" width="30" height="30" viewBox="0 0 30 30">
  <g fill="none" fill-rule="evenodd" class="angle-double-left">
    <path fill="#7A8391" fill-rule="nonzero" d="M5.22644362,14.7818322 L13.1305942,3.53554604 C13.5274435,2.96795931 14.3092733,2.82954925 14.87686,3.2263985 C15.4110593,3.59990369 15.5650883,4.31442974 15.2505051,4.87039996 L15.1860076,4.97266433 L8.05054817,15.1244011 C7.91125349,15.3216123 7.89384165,15.5768792 7.99831266,15.7886043 L8.05054817,15.8763816 L15.1860076,26.0281183 C15.4540081,26.4111043 15.4866028,26.9114079 15.2705599,27.3259293 C15.054517,27.7404506 14.6257433,28.0002952 14.1583009,28 C13.7895815,28.0015202 13.4414223,27.8397027 13.2051007,27.5620227 L13.1305942,27.4652366 L5.22644362,16.2189505 C4.9496792,15.8234402 4.92661549,15.3080047 5.15725251,14.8925068 L5.22644362,14.7818322 L13.1305942,3.53554604 L5.22644362,14.7818322 Z M23.3363347,3.0001592 L23.4576108,3.0048055 C23.9039426,3.04354635 24.2957022,3.31745955 24.4853175,3.72336465 C24.6559713,4.08867924 24.6395545,4.51095728 24.4474183,4.85942247 L24.3768804,4.97266433 L17.241421,15.1244011 C17.1021263,15.3216123 17.0847144,15.5768792 17.1891854,15.7886043 L17.241421,15.8763816 L24.3768804,26.0281183 C24.6448808,26.4111043 24.6774756,26.9114079 24.4614327,27.3259293 C24.2453898,27.7404506 23.8166161,28.0002952 23.3491737,28 C22.9804543,28.0015202 22.6322951,27.8397027 22.3959735,27.5620227 L22.321467,27.4652366 L14.4173164,16.2189505 C14.140552,15.8234402 14.1174883,15.3080047 14.3481253,14.8925068 L14.4173164,14.7818322 L22.321467,3.53554604 C22.5548456,3.20176037 22.9339921,3.00421195 23.3363347,3.0001592 L23.3363347,3.0001592 Z" class="angle-double-left__shape"/>
  </g>
</svg>
