<?xml version="1.0"?>
	<svg xmlns="http://www.w3.org/2000/svg" 
		width="30" 
		height="30" 
		viewbox="0 0 30 30" 
		code="80889" 
		 transform=""
		><path d="M16.1166751 9.39319911L16.261745 9.52348993 24.4765101 17.738255C25.1744966 18.4362416 25.1744966 19.5637584 24.4765101 20.261745 24.1973154 20.5409396 23.849396 20.7084564 23.4877315 20.7642953L23.3060085 20.7829083 23.1235217 20.7829083C22.7588029 20.7642953 22.3986657 20.6340045 22.09809 20.3920358L21.9530201 20.261745 15.0089485 13.3176734 8.06487696 20.261745C7.78568233 20.5409396 7.43489933 20.7055928 7.06979866 20.7591409L6.88632032 20.7766721C6.39527716 20.7988168 5.89574944 20.6244594 5.52348993 20.261745 4.87203579 19.6102908 4.82860552 18.5846682 5.39319911 17.8833249L5.52348993 17.738255 13.738255 9.52348993C14.3897092 8.87203579 15.4153318 8.82860552 16.1166751 9.39319911Z"/>
	</svg>
	