<?xml version="1.0"?>
	<svg xmlns="http://www.w3.org/2000/svg" 
		width="30" 
		height="30" 
		viewbox="0 0 30 30" 
		code="81131" 
		 transform=""
		><path d="M3.27101668 14.1009627L12.7310167 0.640962682C13.2059816-0.0383475599 14.1417064-0.204002202 14.8210167 0.270962682 15.4603675 0.717988456 15.6447154 1.57316149 15.2682098 2.23856864L15.1910167 2.36096268 6.65101668 14.5109627C6.4843033 14.7469928 6.46346413 15.0525063 6.58849916 15.3059073L6.65101668 15.4109627 15.1910167 27.5609627C15.5117702 28.0193354 15.5507809 28.6181185 15.2922122 29.1142341 15.0336435 29.6103497 14.5204702 29.921342 13.9610167 29.9209886 13.5197187 29.9228081 13.103028 29.7291385 12.820189 29.3968001L12.7310167 29.2809627 3.27101668 15.8209627C2.93977407 15.3476003 2.91217052 14.7307067 3.18820603 14.2334224L3.27101668 14.1009627 12.7310167 0.640962682 3.27101668 14.1009627ZM24.9456505 0.00019053236L25.0907985 0.00575140892C25.6249861 0.052117994 26.0938594 0.379948147 26.3207986 0.865751419 26.5250438 1.30297436 26.5053955 1.80837342 26.2754393 2.22543034L26.1910167 2.36096268 17.6510167 14.5109627C17.4843033 14.7469928 17.4634641 15.0525063 17.5884992 15.3059073L17.6510167 15.4109627 26.1910167 27.5609627C26.5117702 28.0193354 26.5507809 28.6181185 26.2922122 29.1142341 26.0336435 29.6103497 25.5204702 29.921342 24.9610167 29.9209886 24.5197187 29.9228081 24.103028 29.7291385 23.820189 29.3968001L23.7310167 29.2809627 14.2710167 15.8209627C13.9397741 15.3476003 13.9121705 14.7307067 14.188206 14.2334224L14.2710167 14.1009627 23.7310167 0.640962682C24.0103334 0.241474784 24.4641109 0.00504103261 24.9456505 0.00019053236L24.9456505 0.00019053236Z"/>
	</svg>
	