<?xml version="1.0"?>
	<svg xmlns="http://www.w3.org/2000/svg" 
		width="30" 
		height="30" 
		viewbox="0 0 30 30" 
		code="81160" 
		 transform=""
		><path d="M24.3768842 14.7818322L16.4727336 3.53554604C16.0758844 2.96795931 15.2940545 2.82954925 14.7264678 3.2263985 14.1922685 3.59990369 14.0382396 4.31442974 14.3528228 4.87039996L14.4173203 4.97266433 21.5527797 15.1244011C21.6920744 15.3216123 21.7094862 15.5768792 21.6050152 15.7886043L21.5527797 15.8763816 14.4173203 26.0281183C14.1493198 26.4111043 14.116725 26.9114079 14.3327679 27.3259293 14.5488109 27.7404506 14.9775845 28.0002952 15.4450269 28 15.8137464 28.0015202 16.1619055 27.8397027 16.3982271 27.5620227L16.4727336 27.4652366 24.3768842 16.2189505C24.6536487 15.8234402 24.6767124 15.3080047 24.4460753 14.8925068L24.3768842 14.7818322 16.4727336 3.53554604 24.3768842 14.7818322ZM6.26699313 3.0001592L6.14571702 3.0048055C5.69938523 3.04354635 5.30762565 3.31745955 5.11801033 3.72336465 4.94735653 4.08867924 4.96377332 4.51095728 5.15590952 4.85942247L5.22644748 4.97266433 12.3619069 15.1244011C12.5012016 15.3216123 12.5186134 15.5768792 12.4141424 15.7886043L12.3619069 15.8763816 5.22644748 26.0281183C4.958447 26.4111043 4.92585224 26.9114079 5.14189515 27.3259293 5.35793807 27.7404506 5.78671176 28.0002952 6.25415416 28 6.62287357 28.0015202 6.97103274 27.8397027 7.20735433 27.5620227L7.28186085 27.4652366 15.1860114 16.2189505C15.4627759 15.8234402 15.4858396 15.3080047 15.2552025 14.8925068L15.1860114 14.7818322 7.28186085 3.53554604C7.04848225 3.20176037 6.66933579 3.00421195 6.26699313 3.0001592Z"/>
	</svg>
	