<?xml version="1.0"?>
	<svg xmlns="http://www.w3.org/2000/svg" 
		width="30" 
		height="30" 
		viewbox="0 0 30 30" 
		code="81132" 
		 transform=""
		><path d="M26.1910213 14.1009627L16.7310213 0.640962682C16.2560564-0.0383475599 15.3203315-0.204002202 14.6410213 0.270962682 14.0016705 0.717988456 13.8173225 1.57316149 14.1938282 2.23856864L14.2710213 2.36096268 22.8110213 14.5109627C22.9777347 14.7469928 22.9985738 15.0525063 22.8735388 15.3059073L22.8110213 15.4109627 14.2710213 27.5609627C13.9502677 28.0193354 13.911257 28.6181185 14.1698257 29.1142341 14.4283944 29.6103497 14.9415678 29.921342 15.5010213 29.9209886 15.9423193 29.9228081 16.3590099 29.7291385 16.6418489 29.3968001L16.7310213 29.2809627 26.1910213 15.8209627C26.5222639 15.3476003 26.5498675 14.7307067 26.2738319 14.2334224L26.1910213 14.1009627 16.7310213 0.640962682 26.1910213 14.1009627ZM4.51638748 0.00019053236L4.37123944 0.00575140892C3.8370519 0.052117994 3.36817855 0.379948147 3.14123943 0.865751419 2.93699422 1.30297436 2.95664248 1.80837342 3.18659868 2.22543034L3.2710213 2.36096268 11.8110213 14.5109627C11.9777347 14.7469928 11.9985738 15.0525063 11.8735388 15.3059073L11.8110213 15.4109627 3.2710213 27.5609627C2.95026773 28.0193354 2.91125703 28.6181185 3.16982573 29.1142341 3.42839443 29.6103497 3.94156775 29.921342 4.5010213 29.9209886 4.94231926 29.9228081 5.35900993 29.7291385 5.64184895 29.3968001L5.7310213 29.2809627 15.1910213 15.8209627C15.5222639 15.3476003 15.5498675 14.7307067 15.2738319 14.2334224L15.1910213 14.1009627 5.7310213 0.640962682C5.45170457 0.241474784 4.99792708 0.00504103261 4.51638748 0.00019053236Z"/>
	</svg>
	