<?xml version="1.0"?>
	<svg xmlns="http://www.w3.org/2000/svg" 
		width="30" 
		height="30" 
		viewbox="0 0 30 30" 
		code="80874" 
		 transform=""
		><path d="M28.4837125 5.55644601C28.8142189 5.885713089999999 29 6.33303955 29 6.79957065 29 7.26610175 28.8142189 7.71342821 28.4837125 8.042695290000001L15.7437991 20.7826087 10.81781205 20.182188 10.2173913 15.2562009 22.9573047 2.5162874520000003C23.2865718 2.185781081 23.7338982 2 24.2004293 2 24.6669605 2 25.1142869 2.185781081 25.443554 2.5162874520000003L28.4837125 5.55644601ZM9.274251060000001 21.7244546L8.424951459999999 14.4743927 17.767246999999998 5.13043478 3.86845912 5.13043478C2.836537641 5.13043478 2 5.96712127 2 6.99922637L2 27.1312084C2 28.1633135 2.836537641 29 3.86845912 29L24.0011061 29C24.4966523 29 24.9719022 28.80311 25.3223062 28.4526436 25.6727103 28.1021772 25.8695652 27.6268428 25.8695652 27.1312084L25.8695652 13.2426892 16.5272696 22.5866471 9.274251060000001 21.7244546Z"/>
	</svg>
	