<?xml version="1.0"?>
	<svg xmlns="http://www.w3.org/2000/svg" 
		width="30" 
		height="30" 
		viewbox="0 0 30 30" 
		code="80876" 
		 transform=""
		><path d="M4.65569903 13.9944117L4.81674532 14.0107491C5.07311613 14.0499587 5.32144393 14.1519038 5.53599111 14.3165844L5.69016547 14.4518577 13.3561553 22.1178475 13.3561553 4.57089955C13.3561553 3.76090447 13.9774583 3.08897673 14.7670309 3.00814981L14.9270548 3 15.0870787 3.00814981C15.8240131 3.08358827 16.4143661 3.67394122 16.4898045 4.41087566L16.4979543 4.57089955 16.4979543 22.1178475 24.1639441 14.4518577C24.776595 13.8392069 25.7662617 13.8392069 26.3789125 14.4518577 26.9507199 15.0236651 26.9888404 15.9238953 26.493274 16.5394924L26.3789125 16.666826 16.0266845 27.0190541C15.7816242 27.2641144 15.4762413 27.4111506 15.1587939 27.4601626L14.9992883 27.4765 14.8391124 27.4765C14.518984 27.4601626 14.2028771 27.3458012 13.9390497 27.1334155L13.8117161 27.0190541 3.45948812 16.666826C2.84683729 16.0541752 2.84683729 15.0645085 3.45948812 14.4518577 3.78623522 14.1251106 4.22469074 13.9726286 4.65569903 13.9944117L4.81674532 14.0107491 4.65569903 13.9944117Z"/>
	</svg>
	