<?xml version="1.0"?>
	<svg xmlns="http://www.w3.org/2000/svg" 
		width="30" 
		height="30" 
		viewbox="0 0 30 30" 
		code="80884" 
		 transform=""
		><path d="M15.2352913 3L15.3923358 3C15.7062059 3.01601797 16.0161331 3.12814375 16.2748027 3.33637735L16.399647 3.44850313 26.5494946 13.5983507C27.1101235 14.1589796 27.1474988 15.0416108 26.6616204 15.6451733L26.5494946 15.7700176 16.399647 25.9198652C16.1593775 26.1601348 15.8599647 26.3042965 15.5487232 26.3523504L15.3923358 26.3683684 15.2352913 26.3683684C14.8691096 26.3496807 14.5082946 26.2001797 14.2279801 25.9198652 13.6673512 25.3592363 13.6299759 24.4631884 14.1158543 23.857837L14.2279801 23.7327964 21.744104 16.2166725 4.54018931 16.2166725 4.38329381 16.2086821C3.60915691 16.1294353 3 15.4706433 3 14.6764832 3 13.8823231 3.60915691 13.2235312 4.38329381 13.1442844L4.54018931 13.1362939 21.744104 13.1362939 14.2279801 5.62017006C13.6273063 5.01949623 13.6273063 4.04917696 14.2279801 3.44850313 14.5082946 3.16818867 14.8691096 3.01868763 15.2352913 3L15.3923358 3 15.2352913 3Z"/>
	</svg>
	