<?xml version="1.0"?>
	<svg xmlns="http://www.w3.org/2000/svg" 
		width="30" 
		height="30" 
		viewbox="0 0 30 30" 
		code="80879" 
		 transform=""
		><path d="M4.91666667 3C5.97083333 3 6.83333333 3.8625 6.83333333 4.91666667L6.83333333 24.0833333C6.83333333 25.0873016 6.05102041 25.9174225 5.06588561 25.9942051L4.91666667 26C3.8625 26 3 25.1375 3 24.0833333L3 4.91666667C3 3.8625 3.8625 3 4.91666667 3ZM24.0390495 4.78161343L24.1716804 4.78265055C25.0966833 4.82195344 25.9391217 5.52858137 26.0137958 6.55099703L26.0191667 6.69916667 26.0191667 22.3008333C26.0191667 23.4026075 25.1310779 24.1858281 24.1632728 24.225757L24.0308812 24.2265548C23.7211688 24.2174801 23.407106 24.1312001 23.1147324 23.9540331L22.9908333 23.8725 11.9316667 16.0716667C10.8846875 15.3369444 10.8410634 13.8277025 11.8007943 13.028437L11.9316667 12.9283333 22.9908333 5.1275C23.2669982 4.93789427 23.5644372 4.83072581 23.8612281 4.79474754L24.0390495 4.78161343Z"/>
	</svg>
	