<?xml version="1.0"?>
	<svg xmlns="http://www.w3.org/2000/svg" 
		width="30" 
		height="30" 
		viewbox="0 0 30 30" 
		code="80892" 
		 transform=""
		><path d="M13.8255916 1.25171494L14.030718 1.25917529 14.2375 1.275C16.7632143 1.51785714 18.6401531 3.71883673 18.7453449 6.2393172L18.75 6.4625 18.75 19.375C18.75 21.0346774 17.4650884 22.3884235 15.8347706 22.4967331L15.6588147 22.5035292C15.5406868 22.5048257 15.4209677 22.4995968 15.3 22.4875 13.7351852 22.3310185 12.5876543 20.9458676 12.5047986 19.3812675L12.5 19.2 12.5 8.4375C12.5 7.96160714 12.8664541 7.56116071 13.3291409 7.50638211L13.4375 7.5 13.5458591 7.50638211C13.9729546 7.55694698 14.318053 7.90204537 14.3686179 8.32914085L14.375 8.4375 14.375 19.375C14.375 20.0195313 14.8693848 20.5541992 15.4976654 20.618515L15.625 20.625 15.7523346 20.618515C16.3387299 20.5584869 16.8084869 20.0887299 16.868515 19.5023346L16.875 19.375 16.875 6.25C16.875 4.53104839 15.4966701 3.14027055 13.7838147 3.12147083L13.6054723 3.12446293 13.425 3.1375C11.8601852 3.29398148 10.7126543 4.67913237 10.6297986 6.24373254L10.625 6.425 10.625 21.875C10.625 24.6639535 12.8978502 26.9187872 15.6990059 26.8732851L15.904886 26.8658247 16.1125 26.85C18.6382143 26.6071429 20.5151531 24.4061633 20.6203449 21.8856828L20.625 21.6625 20.625 8.4375C20.625 7.96160714 20.9914541 7.56116071 21.4541409 7.50638211L21.5625 7.5 21.6708591 7.50638211C22.0979546 7.55694698 22.443053 7.90204537 22.4936179 8.32914085L22.5 8.4375 22.5 21.875C22.5 25.5903846 19.5710059 28.6028107 15.8857988 28.7493286L15.6545084 28.754911C15.4222726 28.7563702 15.1872596 28.7466346 14.95 28.725 11.4544444 28.395 8.8671358 25.316358 8.75387051 21.8260837L8.75 21.5875 8.75 6.25C8.75 3.46104651 11.0342144 1.20621282 13.8255916 1.25171494Z"/>
	</svg>
	