<?xml version="1.0"?>
	<svg xmlns="http://www.w3.org/2000/svg" 
		width="30" 
		height="30" 
		viewbox="0 0 30 30" 
		code="80895" 
		 transform=""
		><path d="M5 20L25 20C25.6875 20 26.25 20.5625 26.25 21.25 26.25 21.8945312 25.7556152 22.4291992 25.1273346 22.493515L25 22.5 5 22.5C4.3125 22.5 3.75 21.9375 3.75 21.25 3.75 20.6054688 4.24438477 20.0708008 4.87266541 20.006485L5 20ZM5 13.75L25 13.75C25.6875 13.75 26.25 14.3125 26.25 15 26.25 15.6445312 25.7556152 16.1791992 25.1273346 16.243515L25 16.25 5 16.25C4.3125 16.25 3.75 15.6875 3.75 15 3.75 14.3554688 4.24438477 13.8208008 4.87266541 13.756485L5 13.75ZM5 7.5L25 7.5C25.6875 7.5 26.25 8.0625 26.25 8.75 26.25 9.39453125 25.7556152 9.92919922 25.1273346 9.99351501L25 10 5 10C4.3125 10 3.75 9.4375 3.75 8.75 3.75 8.10546875 4.24438477 7.57080078 4.87266541 7.50648499L5 7.5 25 7.5 5 7.5Z"/>
	</svg>
	