<?xml version="1.0"?>
	<svg xmlns="http://www.w3.org/2000/svg" 
		width="30" 
		height="30" 
		viewbox="0 0 30 30" 
		code="80901" 
		 transform=""
		><path d="M6.25 6.25L18.75 6.25C20.07 6.25 21.1596 7.2868 21.244656 8.586255999999999L21.25 8.75 21.25 28.75 12.5 25 3.75 28.75 3.75 8.75C3.75 7.43 4.7867999999999995 6.3404 6.0862560000000006 6.255344L6.25 6.25 18.75 6.25 6.25 6.25ZM11.2375 1.25L23.75 1.25C25.07 1.25 26.1596 2.2868 26.244656 3.586256L26.25 3.75 26.25 23.75 23.75 22.5 23.75 6.25C23.75 4.93 22.7132 3.8404 21.413744 3.755344L21.25 3.75 8.75 3.75C8.75 2.4299999999999997 9.77528 1.3404 11.0738144 1.255344L11.2375 1.25 23.75 1.25 11.2375 1.25Z"/>
	</svg>
	