<?xml version="1.0"?>
	<svg xmlns="http://www.w3.org/2000/svg" 
		width="30" 
		height="30" 
		viewbox="0 0 30 30" 
		code="80903" 
		 transform=""
		><path d="M7.5 3.75L22.5 3.75C23.02875 3.75 23.49675 3.962625 23.8311 4.3149750000000004L23.9375 4.4375 25.675 6.5375C25.9972222 6.91527778 26.2009259 7.40169753 26.2422154 7.92652606L26.25 8.125 26.25 23.75C26.25 25.07 25.2132 26.1596 23.913744 26.244656L23.75 26.25 6.25 26.25C4.93 26.25 3.8404 25.2132 3.755344 23.913744L3.75 23.75 3.75 8.125C3.75 7.59166667 3.917901235 7.08796296 4.20980796 6.68412209L4.325 6.5375 6.05 4.4375C6.365 4.055 6.811624999999999 3.804125 7.3260875 3.757775L7.5 3.75 22.5 3.75 7.5 3.75ZM17.5 12.5L12.5 12.5 12.5 15 8.125 15 15 21.875 21.875 15 17.5 15 17.5 12.5ZM22.4125 5L7.4125 5 6.4 6.25 23.5875 6.25 22.4125 5Z"/>
	</svg>
	