<?xml version="1.0"?>
	<svg xmlns="http://www.w3.org/2000/svg" 
		width="30" 
		height="30" 
		viewbox="0 0 30 30" 
		code="80902" 
		 transform=""
		><path d="M22.5 3.75C23.0875 3.75 23.6 4.0125 23.95 4.425L23.95 4.425 25.6875 6.525C26.0375 6.9625 26.25 7.5125 26.25 8.125L26.25 8.125 26.25 23.75C26.25 25.125 25.125 26.25 23.75 26.25L23.75 26.25 6.25 26.25C4.8625 26.25 3.75 25.125 3.75 23.75L3.75 23.75 3.75 8.125C3.75 7.5125 3.9625 6.9625 4.325 6.525L4.325 6.525 6.0625 4.4375C6.4 4.0125 6.9125 3.75 7.5 3.75L7.5 3.75ZM15 11.875L8.125 18.75 12.5 18.75 12.5 21.25 17.5 21.25 17.5 18.75 21.875 18.75 15 11.875ZM22.425 5L7.425 5 6.4 6.25 23.5875 6.25 22.425 5Z"/>
	</svg>
	