<?xml version="1.0"?>
	<svg xmlns="http://www.w3.org/2000/svg" 
		width="30" 
		height="30" 
		viewbox="0 0 30 30" 
		code="80905" 
		 transform=""
		><path d="M27.4883037 18.6929822L27.4883037 23.590643C27.4883037 24.8836254 26.4727248 25.9509236 25.1998659 26.0342387L25.0394734 26.0394734 5.44883037 26.0394734C4.15584794 26.0394734 3.08854971 25.0238944 3.00523462 23.7510355L3 23.590643 3 18.6929822C3 19.9859647 4.01557893 21.0532629 5.28843786 21.136578L5.44883037 21.1418126 25.0394734 21.1418126C26.3324558 21.1418126 27.399754 20.1262337 27.4830691 18.8533747L27.4883037 18.6929822ZM12.7953215 4L17.6929822 4C19.0474222 4 20.0581795 4.95657972 20.136873 6.28135796L20.1418126 6.44883037 20.141 7.673 25.0394734 7.67324556C26.3324558 7.67324556 27.399754 8.68882449 27.4830691 9.96168342L27.4883037 10.1220759 27.4883037 17.4685671C27.4883037 18.7615495 26.4727248 19.8288477 25.1998659 19.9121628L25.0394734 19.9173974 5.44883037 19.9173974C4.15584794 19.9173974 3.08854971 18.9018185 3.00523462 17.6289596L3 17.4685671 3 10.1220759C3 8.8290935 4.01557893 7.76179527 5.28843786 7.67848018L5.44883037 7.67324556 10.346 7.673 10.3464911 6.44883037C10.3464911 5.09439042 11.3030708 4.08363311 12.6278491 4.00493962L12.7953215 4ZM15.2441519 15.0197367C14.5095028 15.0197367 14.0197367 15.5095028 14.0197367 16.2441519 14.0197367 16.978801 14.5095028 17.4685671 15.2441519 17.4685671 15.978801 17.4685671 16.4685671 16.978801 16.4685671 16.2441519 16.4685671 15.5095028 15.978801 15.0197367 15.2441519 15.0197367ZM12.794 6.448L12.795 7.673 17.692 7.673 17.693 6.448 12.794 6.448Z"/>
	</svg>
	