<?xml version="1.0"?>
	<svg xmlns="http://www.w3.org/2000/svg" 
		width="30" 
		height="30" 
		viewbox="0 0 30 30" 
		code="80906" 
		 transform=""
		><path d="M17.7410137 21.0391447C18.5583214 21.462902 18.7323776 22.5321678 18.1781304 23.2227353L18.0727445 23.3404605 15.9525521 25.4680921C15.4275521 25.9949342 14.6010137 26.030057 14.0358086 25.5734605L13.9188983 25.4680921 11.798706 23.3404605C11.1208214 22.6601974 11.2794752 21.4878289 12.1015906 21.0391447 13.8756291 20.1273026 15.9813983 20.1273026 17.7410137 21.0391447ZM6.59197522 14.8733553C11.5679368 11.26940789 18.3323598 11.26940789 23.2938983 14.8733553 24.239331 15.5471053 24.3386699 16.9131678 23.6042811 17.792652099999998L23.4669752 17.9417763C22.7602445 18.6509868 21.6496675 18.708881599999998 20.8275521 18.1299342 17.3083214 15.6259868 12.5775521 15.6259868 9.05832137 18.1299342 8.23620599 18.7233553 7.12562907 18.6509868 6.4188983 17.9417763 5.5390906 17.0588816 5.59678291 15.5970395 6.59197522 14.8733553ZM29.1496675 9.06940789C30.0871675 9.836513159999999 30.1448598 11.25493421 29.2938983 12.10888158 28.5583214 12.84703947 27.3756291 12.90493421 26.5679368 12.23914474 19.8179368 6.69572368 10.0390906 6.69572368 3.30351368 12.25361842 2.51024445 12.91940789 1.34197522 12.84703947 0.606398297 12.10888158-0.258986319 11.24046053-0.186870934 9.82203947 0.750629066 9.06940789 9.00062907 2.31019737 20.9140906 2.31019737 29.1496675 9.06940789Z"/>
	</svg>
	