<?xml version="1.0"?>
	<svg xmlns="http://www.w3.org/2000/svg" 
		width="30" 
		height="30" 
		viewbox="0 0 30 30" 
		code="80907" 
		 transform=""
		><path d="M9.47525669 12.8640306L9.612136549999999 12.9931501 18.807093899999998 22.1881075C19.657236 23.0488763 19.6997431 24.0307903 18.9633872 24.865311L18.8406522 24.9958134 17.9233937 25.924258C17.1051319 26.731893 16.1152478 26.7823702 15.2414612 25.9989643L15.1045016 25.8683276 12.21849308 22.9935052C11.54732831 24.3134626 10.67481411 26.617795 9.65688087 27.6357282 8.102015810000001 29.2017793 5.96547462 29.1458489 4.2987487699999996 27.5014952 2.620836834 25.8459555 2.5649064360000002 23.6982282 4.15332973 22.1321771 5.1138411 21.1925464 7.19494905 20.3601032 8.52314602 19.7166998L8.79555274 19.5817509 5.9207303 16.6845563C5.05996148 15.8131607 5.01692304 14.8408108 5.76284298 14.0072731L5.88717206 13.8768504 6.7932445 12.9595918C7.57608364 12.1767527 8.493995980000001 12.0962942 9.32883829 12.7424546L9.47525669 12.8640306 9.47525669 12.8640306ZM6.16682405 24.2575322C5.79768342 24.6378589 5.786497349999999 25.2083489 6.16682405 25.5998617 6.54715075 25.9913745 7.14001297 25.9690023 7.5091536 25.5998617 7.87829422 25.2083489 7.87829422 24.6378589 7.5091536 24.2575322 7.12882689 23.8883916 6.54715075 23.8772055 6.16682405 24.2575322ZM14.9143383 2.601282178C15.5165222 1.840628769 16.497859 1.81832566 17.226981600000002 2.440138953L17.352903599999998 2.55653786 23.2144093 8.41804354C23.0297395 10.16754638 21.7472028 11.89171383 20.6362523 13.1502731L20.4422418 13.3674488 20.1088068 13.7326282C20.0026235 13.8582069 19.9219732 14.0073546 20.0711209 14.1565023 20.5933881 14.6787695 23.6406405 12.5948911 25.2130694 11.30551436L25.3605017 11.18333034 25.6865329 10.9013532 26.9170016 12.1206359C27.7458901 12.9388976 27.706571 13.8379228 26.9620857 14.6546702L26.838699 14.7829228 21.4246365 20.1746131C20.6170016 20.9822481 19.7185077 21.1033933 18.882605599999998 20.3750076L18.7511635 20.2529157 11.21174592 12.702312C10.36160388 11.85216996 10.38976483 11.03231423 11.08523416 10.12765682L11.42815362 9.70631684C13.7790077 6.75276602 13.7103093 4.10903011 14.9143383 2.601282178Z"/>
	</svg>
	