<?xml version="1.0"?>
	<svg xmlns="http://www.w3.org/2000/svg" 
		width="30" 
		height="30" 
		viewbox="0 0 30 30" 
		code="80908" 
		 transform=""
		><path d="M8.56703911 29C9.05865922 29 9.45096214 28.8013656 9.99113732 28.3422995L14.9022346 23.9469274 22.9217877 23.9469274C26.7304469 23.9594972 28.9553073 21.6843575 28.9553073 17.9259777L28.9553073 8.03351955C28.9553073 4.27513966 26.7304469 2 22.9217877 2L7.03351955 2C3.22486034 2 1 4.26256983 1 8.03351955L1 17.9259777C1 21.6969274 3.32541899 23.9469274 6.87011173 23.9469274L7.29748603 23.9469274 7.29748603 27.5796089C7.29748603 28.4469274 7.77513966 29 8.56703911 29ZM8.69273743 12.1564246C8.69273743 10.547486 9.88687151 9.41620112 11.4958101 9.41620112 13.2932961 9.41620112 14.4622905 10.8617318 14.4622905 12.722067 14.4622905 15.7388268 11.9608939 17.4608939 10.527933 17.4608939 10.1256983 17.4608939 9.83659218 17.2094972 9.83659218 16.8449721 9.83659218 16.5810056 9.96170129 16.3747818 10.279286 16.2599839L10.4273743 16.2164804C11.4832402 15.952514 12.4259777 15.2234637 12.8156425 14.2555866L12.627095 14.2555866C12.2625698 14.6829609 11.722067 14.8212291 11.1061453 14.8212291 9.66061453 14.8212291 8.69273743 13.6648045 8.69273743 12.1564246ZM15.6941341 12.1564246C15.6941341 10.547486 16.900838 9.41620112 18.4972067 9.41620112 20.3072626 9.41620112 21.4636872 10.8617318 21.4636872 12.722067 21.4636872 15.7388268 18.9622905 17.4608939 17.5293296 17.4608939 17.1396648 17.4608939 16.8505587 17.2094972 16.8505587 16.8449721 16.8505587 16.5810056 16.9756678 16.3747818 17.2932524 16.2599839L17.4413408 16.2164804C18.4972067 15.952514 19.4399441 15.2234637 19.8170391 14.2555866L19.6284916 14.2555866C19.2765363 14.6829609 18.7234637 14.8212291 18.1075419 14.8212291 16.6620112 14.8212291 15.6941341 13.6648045 15.6941341 12.1564246Z"/>
	</svg>
	