<?xml version="1.0"?>
	<svg xmlns="http://www.w3.org/2000/svg" 
		width="30" 
		height="30" 
		viewbox="0 0 30 30" 
		code="80911" 
		 transform=""
		><path d="M5.49804688 2L24.3242188 2C27.20625 2 28.7464955 3.4450000000000003 28.8321569 6.20966837L28.8359375 6.45703125 28.8359375 23.0957031C28.8359375 25.9378906 27.3780357 27.464096 24.5750306 27.5489876L24.3242188 27.5527344 5.49804688 27.5527344C2.62929688 27.5527344 1.0894308036 26.1077344 1.00378029337 23.343066L1 23.0957031 1 6.45703125C1 3.6015625 2.45790179 2.0878794643 5.24837372 2.00371428571L5.49804688 2ZM24.3378906 8.671875L5.484375 8.671875C4.40634766 8.671875 3.7848584 9.202446290000001 3.72540454 10.28703271L3.72070312 10.46289062 3.72070312 23.0410156C3.72070312 24.1839844 4.28829102 24.7717041 5.31796948 24.8276187L5.484375 24.8320312 24.3378906 24.8320312C25.415918 24.8320312 26.0374072 24.30146 26.0968611 23.2168735L26.1015625 23.0410156 26.1015625 10.46289062C26.1015625 9.25976562 25.4726562 8.671875 24.3378906 8.671875ZM8.61523438 20.1015625C9.0695613 20.1015625 9.24430242 20.229706 9.26849735 20.6365392L9.27148438 20.7441406 9.27148438 21.5507812C9.27148438 21.992488 9.13169148 22.1546089 8.723066079999999 22.1769369L8.61523438 22.1796875 7.82226562 22.1796875C7.3679387 22.1796875 7.19319758 22.051544 7.16900265 21.6554641L7.16601562 21.5507812 7.16601562 20.7441406C7.16601562 20.2898137 7.30580852 20.126722 7.71443392 20.1043193L7.82226562 20.1015625 8.61523438 20.1015625ZM13.0859375 20.1015625C13.5402644 20.1015625 13.7150055 20.229706 13.7392005 20.6365392L13.7421875 20.7441406 13.7421875 21.5507812C13.7421875 21.992488 13.6023946 22.1546089 13.1937692 22.1769369L13.0859375 22.1796875 12.2792969 22.1796875C11.82497 22.1796875 11.6502288 22.051544 11.6260339 21.6554641L11.6230469 21.5507812 11.6230469 20.7441406C11.6230469 20.2898137 11.7628398 20.126722 12.1714652 20.1043193L12.2792969 20.1015625 13.0859375 20.1015625ZM17.5566406 20.1015625C18.0351562 20.1015625 18.1992188 20.2519531 18.1992188 20.7441406L18.1992188 21.5507812C18.1992188 22.0292969 18.0351562 22.1796875 17.5566406 22.1796875L16.75 22.1796875C16.2578125 22.1796875 16.09375 22.0292969 16.09375 21.5507812L16.09375 20.7441406C16.09375 20.2519531 16.2578125 20.1015625 16.75 20.1015625L17.5566406 20.1015625ZM8.61523438 15.7128906C9.0695613 15.7128906 9.24430242 15.8410341 9.26849735 16.237114L9.27148438 16.3417969 9.27148438 17.1484375C9.27148438 17.602764399999998 9.13169148 17.7658561 8.723066079999999 17.7882588L8.61523438 17.7910156 7.82226562 17.7910156C7.3679387 17.7910156 7.19319758 17.6628721 7.16900265 17.256039L7.16601562 17.1484375 7.16601562 16.3417969C7.16601562 15.9000901 7.30580852 15.7379692 7.71443392 15.7156412L7.82226562 15.7128906 8.61523438 15.7128906ZM13.0859375 15.7128906C13.5402644 15.7128906 13.7150055 15.8410341 13.7392005 16.237114L13.7421875 16.3417969 13.7421875 17.1484375C13.7421875 17.602764399999998 13.6023946 17.7658561 13.1937692 17.7882588L13.0859375 17.7910156 12.2792969 17.7910156C11.82497 17.7910156 11.6502288 17.6628721 11.6260339 17.256039L11.6230469 17.1484375 11.6230469 16.3417969C11.6230469 15.9000901 11.7628398 15.7379692 12.1714652 15.7156412L12.2792969 15.7128906 13.0859375 15.7128906ZM17.5566406 15.7128906C17.9983474 15.7128906 18.1721177 15.8410341 18.1962379 16.237114L18.1992188 16.3417969 18.1992188 17.1484375C18.1992188 17.602764399999998 18.0594259 17.7658561 17.6615538 17.7882588L17.5566406 17.7910156 16.75 17.7910156C16.295673100000002 17.7910156 16.120932 17.6628721 16.096736999999997 17.256039L16.09375 17.1484375 16.09375 16.3417969C16.09375 15.9000901 16.2335429 15.7379692 16.6421683 15.7156412L16.75 15.7128906 17.5566406 15.7128906ZM22.0136719 15.7128906C22.4679988 15.7128906 22.6427399 15.8410341 22.6669348 16.237114L22.6699219 16.3417969 22.6699219 17.1484375C22.6699219 17.602764399999998 22.530129 17.7658561 22.1215036 17.7882588L22.0136719 17.7910156 21.2070312 17.7910156C20.7653245 17.7910156 20.5915542 17.6628721 20.5674339 17.256039L20.5644531 17.1484375 20.5644531 16.3417969C20.5644531 15.9000901 20.704246 15.7379692 21.1021181 15.7156412L21.2070312 15.7128906 22.0136719 15.7128906ZM13.0859375 11.31054688C13.5402644 11.31054688 13.7150055 11.43869037 13.7392005 11.84552355L13.7421875 11.953125 13.7421875 12.7597656C13.7421875 13.2014724 13.6023946 13.3635933 13.1937692 13.3859213L13.0859375 13.3886719 12.2792969 13.3886719C11.82497 13.3886719 11.6502288 13.2605284 11.6260339 12.8644485L11.6230469 12.7597656 11.6230469 11.953125C11.6230469 11.49879808 11.7628398 11.33570636 12.1714652 11.31330365L12.2792969 11.31054688 13.0859375 11.31054688ZM17.5566406 11.31054688C17.9983474 11.31054688 18.1721177 11.43869037 18.1962379 11.84552355L18.1992188 11.953125 18.1992188 12.7597656C18.1992188 13.2014724 18.0594259 13.3635933 17.6615538 13.3859213L17.5566406 13.3886719 16.75 13.3886719C16.295673100000002 13.3886719 16.120932 13.2605284 16.096736999999997 12.8644485L16.09375 12.7597656 16.09375 11.953125C16.09375 11.49879808 16.2335429 11.33570636 16.6421683 11.31330365L16.75 11.31054688 17.5566406 11.31054688ZM22.0136719 11.31054688C22.4679988 11.31054688 22.6427399 11.43869037 22.6669348 11.84552355L22.6699219 11.953125 22.6699219 12.7597656C22.6699219 13.2014724 22.530129 13.3635933 22.1215036 13.3859213L22.0136719 13.3886719 21.2070312 13.3886719C20.7653245 13.3886719 20.5915542 13.2605284 20.5674339 12.8644485L20.5644531 12.7597656 20.5644531 11.953125C20.5644531 11.49879808 20.704246 11.33570636 21.1021181 11.31330365L21.2070312 11.31054688 22.0136719 11.31054688Z"/>
	</svg>
	