<?xml version="1.0"?>
	<svg xmlns="http://www.w3.org/2000/svg" 
		width="30" 
		height="30" 
		viewbox="0 0 30 30" 
		code="80912" 
		 transform=""
		><path d="M12.35 2.5L17.65 2.5C18.2863636 2.5 18.9020661 2.747933884 19.3562359 3.1780616100000003L19.4875 3.3125 21.0375 5 25 5C26.32 5 27.4096 6.0368 27.494656 7.336256L27.5 7.5 27.5 22.5C27.5 23.82 26.4632 24.9096 25.163744 24.994656L25 25 5 25C3.6799999999999997 25 2.5904 23.9632 2.505344 22.663744L2.5 22.5 2.5 7.5C2.5 6.18 3.5368 5.0904 4.8362560000000006 5.005344L5 5 8.9625 5 10.5 3.3125C10.93181818 2.846590909 11.52892562 2.5563016530000002 12.1598422 2.507372276L12.35 2.5 17.65 2.5 12.35 2.5ZM15 8.75C11.55 8.75 8.75 11.55 8.75 15 8.75 18.45 11.55 21.25 15 21.25 18.45 21.25 21.25 18.45 21.25 15 21.25 11.55 18.45 8.75 15 8.75ZM15 11.25C17.0710678 11.25 18.75 12.9289322 18.75 15 18.75 17.0710678 17.0710678 18.75 15 18.75 12.9289322 18.75 11.25 17.0710678 11.25 15 11.25 12.9289322 12.9289322 11.25 15 11.25Z"/>
	</svg>
	