<?xml version="1.0"?>
	<svg xmlns="http://www.w3.org/2000/svg" 
		width="30" 
		height="30" 
		viewbox="0 0 30 30" 
		code="80926" 
		 transform=""
		><path d="M9.94852794 19.0197497L20.0775854 19.0197497C21.7534498 19.0197497 22.6314828 20.9780631 21.5941831 22.2231636L21.4659311 22.3635119 16.4014024 27.4280407C15.6896308 28.1398123 14.5690468 28.1872637 13.8027668 27.570395L13.6442651 27.4280407 8.57973639 22.3635119C7.39345037 21.1772259 8.14734525 19.174976 9.75884171 19.0282884L9.94852794 19.0197497 20.0775854 19.0197497 9.94852794 19.0197497ZM16.4014024 3.57195933L21.4659311 8.63648807C22.6978435 9.86840047 21.8179061 11.9802503 20.0775854 11.9802503L9.94852794 11.9802503C8.20820725 11.9802503 7.34782399 9.86840047 8.57973639 8.63648807L13.6442651 3.57195933C14.4068776 2.80934689 15.63879 2.80934689 16.4014024 3.57195933Z"/>
	</svg>
	