<?xml version="1.0"?>
	<svg xmlns="http://www.w3.org/2000/svg" 
		width="30" 
		height="30" 
		viewbox="0 0 30 30" 
		code="81122" 
		 transform=""
		><path d="M11.500250299999998 10.42852794L11.500250299999998 20.5575854C11.500250299999998 22.233449799999995 9.541936899999996 23.111482799999997 8.296836399999997 22.0741831L8.156488099999997 21.945931099999996 3.0919592999999956 16.8814024C2.380187699999997 16.1696308 2.332736299999997 15.049046800000001 2.9496049999999947 14.282766800000001L3.0919592999999956 14.1242651 8.156488099999997 9.059736390000001C9.342774099999996 7.87345037 11.345023999999995 8.627345250000001 11.491711599999995 10.23884171L11.500250299999998 10.42852794 11.500250299999998 20.5575854 11.500250299999998 10.42852794ZM26.948040669999997 16.8814024L21.883511929999997 21.945931099999996C20.65159953 23.1778435 18.539749699999998 22.2979061 18.539749699999998 20.5575854L18.539749699999994 10.428527939999999C18.539749699999994 8.688207249999998 20.65159953 7.82782399 21.883511929999997 9.05973639L26.948040669999997 14.124265099999999C27.710653109999996 14.886877599999998 27.710653109999996 16.118789999999997 26.948040669999997 16.8814024Z"/>
	</svg>
	