<?xml version="1.0"?>
	<svg xmlns="http://www.w3.org/2000/svg" 
		width="30" 
		height="30" 
		viewbox="0 0 30 30" 
		code="80914" 
		 transform=""
		><path d="M9.5 24C10.8807119 24 12 25.1192881 12 26.5 12 27.8807119 10.8807119 29 9.5 29 8.11928813 29 7 27.8807119 7 26.5 7 25.1192881 8.11928813 24 9.5 24ZM24.5 24C25.8807119 24 27 25.1192881 27 26.5 27 27.8807119 25.8807119 29 24.5 29 23.1192881 29 22 27.8807119 22 26.5 22 25.1192881 23.1192881 24 24.5 24ZM1.33333333 1.0000000000001386L5.63333333 1.0000000000001386C6.22142857 1.0000000000001386 6.69455782 1.3448979589999999 6.89258989 1.874562682L6.93333333 2 7.66666667 4.86666667 28.7333333 5.83333333C29.1666667 5.83333333 29.5666667 6.1 29.8 6.46666667 30.0074074 6.82222222 30.0567901 7.23045267 29.9247371 7.5743027L25.2 17.7C25.02 18.09 24.651 18.372 24.2145 18.4488L24.0666667 18.4666667 10.7333333 19.1 10.3666667 20.6333333 24.9666667 20.6333333C25.7 20.6333333 26.3 21.2333333 26.3 21.9666667 26.3 22.6568627 25.7685121 23.2289504 25.0945994 23.2938666L24.9666667 23.3 8.63333333 23.3C8.23333333 23.3 7.86666667 23.1333333 7.6 22.8 7.39583333 22.5375 7.29375 22.1729167 7.33841146 21.8179036L7.36666667 21.6666667 8.26666667 17.9333333 4.6 3.66666667 1.33333333 3.66666667C0.6 3.66666667 1.75859327e-13 3.06666667 1.75859327e-13 2.3333333300000003 1.75859327e-13 1.643137255 0.531487889 1.0710495963 1.20540064 1.00613338761L1.33333333 1.0000000000001386Z"/>
	</svg>
	