<?xml version="1.0"?>
	<svg xmlns="http://www.w3.org/2000/svg" 
		width="30" 
		height="30" 
		viewbox="0 0 30 30" 
		code="80916" 
		 transform=""
		><path d="M7.0829166699999995 24.0935L21.666249999999998 24.0935C22.6688542 24.0935 23.4891667 24.9138125 23.4891667 25.9164167 23.4891667 26.9190208 22.6688542 27.7393333 21.666249999999998 27.7393333L7.0829166699999995 27.7393333C6.0803125 27.7393333 5.26 26.9190208 5.26 25.9164167 5.26 24.9138125 6.0803125 24.0935 7.0829166699999995 24.0935ZM7.34333333 9.24975C8.3459375 9.24975 9.16625 10.0700625 9.16625 11.07266667L9.16625 20.18725C9.16625 21.1898542 8.3459375 22.0101667 7.34333333 22.0101667L7.0829166699999995 22.0101667C6.0803125 22.0101667 5.26 21.1898542 5.26 20.18725L5.26 11.07266667C5.26 10.0700625 6.0803125 9.24975 7.0829166699999995 9.24975L7.34333333 9.24975ZM14.37458333 3.781C15.3771875 3.781 16.197499999999998 4.601312500000001 16.197499999999998 5.60391667L16.197499999999998 20.18725C16.197499999999998 21.1898542 15.3771875 22.0101667 14.37458333 22.0101667 13.37197917 22.0101667 12.55166667 21.1898542 12.55166667 20.18725L12.55166667 5.60391667C12.55166667 4.601312500000001 13.37197917 3.781 14.37458333 3.781ZM21.666249999999998 14.197666700000001C22.6688542 14.197666700000001 23.4891667 15.017979200000001 23.4891667 16.0205833L23.4891667 20.18725C23.4891667 21.1898542 22.6688542 22.0101667 21.666249999999998 22.0101667 20.663645799999998 22.0101667 19.843333299999998 21.1898542 19.843333299999998 20.18725L19.843333299999998 16.0205833C19.843333299999998 15.017979200000001 20.663645799999998 14.197666700000001 21.666249999999998 14.197666700000001Z"/>
	</svg>
	