<?xml version="1.0"?>
	<svg xmlns="http://www.w3.org/2000/svg" 
		width="30" 
		height="30" 
		viewbox="0 0 30 30" 
		code="80918" 
		 transform=""
		><path d="M23.75 3.75L6.25 3.75C4.875 3.75 3.75 4.875 3.75 6.25L3.75 23.75C3.75 25.125 4.875 26.25 6.25 26.25L23.75 26.25C25.125 26.25 26.25 25.125 26.25 23.75L26.25 6.25C26.25 4.875 25.125 3.75 23.75 3.75ZM20 16.25L10 16.25C9.3125 16.25 8.75 15.6875 8.75 15 8.75 14.3125 9.3125 13.75 10 13.75L20 13.75C20.6875 13.75 21.25 14.3125 21.25 15 21.25 15.6875 20.6875 16.25 20 16.25Z"/>
	</svg>
	