<?xml version="1.0"?>
	<svg xmlns="http://www.w3.org/2000/svg" 
		width="30" 
		height="30" 
		viewbox="0 0 30 30" 
		code="80919" 
		 transform=""
		><path d="M22.5 23.75L7.5 23.75C6.8125 23.75 6.25 23.1875 6.25 22.5L6.25 7.5C6.25 6.8125 6.8125 6.25 7.5 6.25L22.5 6.25C23.1875 6.25 23.75 6.8125 23.75 7.5L23.75 22.5C23.75 23.1875 23.1875 23.75 22.5 23.75ZM23.75 3.75L6.25 3.75C4.875 3.75 3.75 4.875 3.75 6.25L3.75 23.75C3.75 25.125 4.875 26.25 6.25 26.25L23.75 26.25C25.125 26.25 26.25 25.125 26.25 23.75L26.25 6.25C26.25 4.875 25.125 3.75 23.75 3.75Z"/>
	</svg>
	