<?xml version="1.0"?>
	<svg xmlns="http://www.w3.org/2000/svg" 
		width="30" 
		height="30" 
		viewbox="0 0 30 30" 
		code="80921" 
		 transform=""
		><path d="M15.5 2C22.9557285 2 29 8.04427145 29 15.5 29 22.9557285 22.9557285 29 15.5 29 8.04427145 29 2 22.9557285 2 15.5 2 8.04427145 8.04427145 2 15.5 2ZM6.60539854 14.2603486C7.31683872 13.5484515 8.48383821 13.5484515 9.19573532 14.2603486L12.5409206 17.606447799999998C14.5038924 16.016331 18.4581655 12.9073786 22.9740058 9.36160095 24.3566763 8.266796410000001 25.659384 9.70292774 24.4530885 10.88180741L13.8372313 21.4930953C13.1166526 22.214131 11.9743273 22.1990523 11.24643764 21.4930953L6.60539854 16.8515993C5.89213065 16.139245199999998 5.89213065 14.9731596 6.60539854 14.2603486Z"/>
	</svg>
	