<?xml version="1.0"?>
	<svg xmlns="http://www.w3.org/2000/svg" 
		width="30" 
		height="30" 
		viewbox="0 0 30 30" 
		code="80920" 
		 transform=""
		><path d="M24.5242424 14.6909091C25.4480642 14.6909091 26.1969752 15.4398146 26.1969752 16.3636364L26.1969752 28.3242424C26.1977743 28.7684021 26.0218964 29.1946457 25.7081119 29.5089986 25.3943274 29.8233516 24.9684028 30 24.5242424 30L5.9 30C5.45583961 30 5.02991501 29.8233516 4.716130538 29.5089986 4.402346069 29.1946457 4.226468089 28.7684021 4.227267248 28.3242424L4.227267248 16.3636364C4.227267248 15.4398146 4.976178237 14.6909091 5.9 14.6909091L24.5242424 14.6909091ZM18.8575758 18.4534751C18.605017 18.4534751 18.3628877 18.5542022 18.1848485 18.7333333L14 22.9242424C13.92662167 22.9980786 13.82682413 23.039598 13.72272727 23.039598 13.61863042 23.039598 13.51883287 22.9980786 13.44545455 22.9242424L12.31515152 21.8181818C12.13312221 21.6349791 11.88553213 21.5319576 11.62727273 21.5319576 11.36901332 21.5319576 11.12142324 21.6349791 10.93939394 21.8181818L10.43939394 22.3181818C10.06110987 22.6987567 10.06110987 23.3133645 10.43939394 23.6939394L13.04242424 26.2939394C13.41364255 26.6633867 14.0136302 26.6633867 14.3848485 26.2939394L20.0606061 20.6060606C20.2386237 20.42866 20.338685 20.1876826 20.338685 19.9363636 20.338685 19.6850447 20.2386237 19.4440672 20.0606061 19.2666667L19.530303 18.7333333C19.3522638 18.5542022 19.1101345 18.4534751 18.8575758 18.4534751ZM19.1985749 1.20522605C21.5248968 2.56891065 22.9632351 5.04498303 23.0065743 7.7278248L23.0060606 12.7272727C23.0060658 12.9955418 22.789476 13.2134852 22.5212121 13.2151515L20.3818182 13.2151515C20.1123702 13.2151515 19.8939394 12.9967207 19.8939394 12.7272727L19.8939394 8.04242424C19.942895999999998 6.3740874 19.083142600000002 4.81044924 17.648173 3.95803689 16.213203399999998 3.10562453 14.4288014 3.09855993 12.98712734 3.93958339 11.61098391 4.74237852 10.753805100000001 6.19734166 10.70981199 7.77926465L10.70909091 12.7272727C10.70909608 12.9955418 10.49250628 13.2134852 10.22424242 13.2151515L8.08484848 13.2151515C7.81540047 13.2151515 7.5969697 12.9967207 7.5969697 12.7272727L7.5969697 8.00606061C7.54165532 5.21706934 8.99791552 2.61593426 11.40445542 1.20522605 13.81099532-0.205482168 16.792035-0.205482168 19.1985749 1.20522605Z"/>
	</svg>
	