<?xml version="1.0"?>
	<svg xmlns="http://www.w3.org/2000/svg" 
		width="30" 
		height="30" 
		viewbox="0 0 30 30" 
		code="80929" 
		 transform=""
		><path d="M14.9875 2.5C8.0875 2.5 2.5 8.1 2.5 15 2.5 21.9 8.0875 27.5 14.9875 27.5 21.9 27.5 27.5 21.9 27.5 15 27.5 8.1 21.9 2.5 14.9875 2.5ZM15 25C9.475 25 5 20.525 5 15 5 9.475 9.475 5 15 5 20.525 5 25 9.475 25 15 25 20.525 20.525 25 15 25ZM14.725 8.75L14.65 8.75C14.15 8.75 13.75 9.15 13.75 9.65L13.75 15.55C13.75 15.9875 13.975 16.4 14.3625 16.625L19.55 19.7375C19.975 19.9875 20.525 19.8625 20.775 19.4375 21.0375 19.0125 20.9 18.45 20.4625 18.2L15.625 15.325 15.625 9.65C15.625 9.15 15.225 8.75 14.725 8.75L14.725 8.75Z"/>
	</svg>
	