<?xml version="1.0"?>
	<svg xmlns="http://www.w3.org/2000/svg" 
		width="30" 
		height="30" 
		viewbox="0 0 30 30" 
		code="81133" 
		 transform=""
		><path d="M22.25 13.8L26.3 13.8C27.7985 13.8 29 12.585 29 11.1L29 5.7C29 4.2015 27.785 3 26.3 3L22.25 3C20.7515 3 19.55 4.215 19.55 5.7L19.55 7.05 11.4635 7.05 11.4635 5.7C11.4635 4.2015 10.2485 3 8.7635 3L4.7 3C3.215 3 2 4.215 2 5.7L2 11.1C2 12.5985 3.215 13.8 4.7 13.8L8.75 13.8C10.2485 13.8 11.45 12.585 11.45 11.1L11.45 9.75 14.15 9.75 14.15 19.2135C14.15 21.441 15.959 23.25 18.1865 23.25L19.55 23.25 19.55 24.6C19.55 26.0985 20.765 27.3 22.25 27.3L26.3 27.3C27.7985 27.3 29 26.085 29 24.6L29 19.2C29 17.7015 27.785 16.5 26.3 16.5L22.25 16.5C20.7515 16.5 19.55 17.715 19.55 19.2L19.55 20.55 18.1865 20.55C17.4575 20.55 16.85 19.9425 16.85 19.2135L16.85 9.75 19.55 9.75 19.55 11.1C19.55 12.585 20.765 13.8 22.25 13.8Z"/>
	</svg>
	