<?xml version="1.0"?>
	<svg xmlns="http://www.w3.org/2000/svg" 
		width="30" 
		height="30" 
		viewbox="0 0 30 30" 
		code="80933" 
		 transform=""
		><path d="M23.75 7.5L25 7.5C26.32 7.5 27.4096 8.5368 27.494656 9.836256L27.5 10 27.5 27.5 22.5 22.5 10 22.5C8.68 22.5 7.5904 21.4632 7.505344 20.163744L7.5 20 7.5 18.75 22.5 18.75C23.1445312 18.75 23.6791992 18.2556152 23.743515 17.6273346L23.75 17.5 23.75 7.5 25 7.5 23.75 7.5ZM5 2.5L18.75 2.5C20.07 2.5 21.1596 3.5368 21.244656 4.836256L21.25 5 21.25 13.75C21.25 15.07 20.2132 16.1596 18.913744 16.244656L18.75 16.25 7.5 16.25 2.5 21.25 2.5 5C2.5 3.68 3.5368 2.5904 4.836256 2.505344L5 2.5 18.75 2.5 5 2.5Z"/>
	</svg>
	