<?xml version="1.0"?>
	<svg xmlns="http://www.w3.org/2000/svg" 
		width="30" 
		height="30" 
		viewbox="0 0 30 30" 
		code="80934" 
		 transform=""
		><path d="M15 0C23.2842548 0 30 6.71574519 30 15 30 23.2842548 23.2842548 30 15 30 6.71574519 30 0 23.2842548 0 15 0 6.71574519 6.71574519 0 15 0ZM15 2.30769231C8.00257212 2.30769231 2.30769231 8.00257212 2.30769231 15 2.30769231 21.9974279 8.00257212 27.6923077 15 27.6923077 21.9974279 27.6923077 27.6923077 21.9974279 27.6923077 15 27.6923077 8.00257212 21.9974279 2.30769231 15 2.30769231ZM22.3422837 7.65778846L18.2632212 18.2632212 7.65771635 22.3422837 11.7367788 11.7367788 22.3422837 7.65778846ZM13.3683894 13.3683894C12.4669471 14.2698317 12.4669471 15.7301683 13.3683894 16.6316106 14.2698317 17.5330529 15.7301683 17.5330529 16.6316106 16.6316106 17.5330529 15.7301683 17.5330529 14.2698317 16.6316106 13.3683894 15.7301683 12.4669471 14.2698317 12.4669471 13.3683894 13.3683894Z"/>
	</svg>
	