<?xml version="1.0"?>
	<svg xmlns="http://www.w3.org/2000/svg" 
		width="30" 
		height="30" 
		viewbox="0 0 30 30" 
		code="80935" 
		 transform=""
		><path d="M25.8796953 17.9081324L29.750643 19.9140989C30.0554127 20.0722969 30.0808101 20.3201167 29.8268354 20.4930122L29.750643 20.5381842 15.6020134 27.8707985C15.311097 28.0215336 14.8620032 28.0403755 14.5315424 27.9273241L14.3979866 27.8707985 0.249356955 20.5381842C-0.0554126568 20.3802712-0.0808101245 20.1324752 0.173164552 19.9593422L0.249356955 19.9140989 4.11906762 17.9087543 14.3002541 23.1853385C14.6430738 23.3630662 15.175524 23.3828137 15.5604838 23.2445811L15.6972716 23.1853385 25.8796953 17.9081324ZM25.8796953 12L29.750643 14.0059664C30.0554127 14.1641645 30.0808101 14.4119843 29.8268354 14.5848797L29.750643 14.6300518 15.6020134 21.962666C15.311097 22.1134012 14.8620032 22.132243 14.5315424 22.0191917L14.3979866 21.962666 0.249356955 14.6300518C-0.0554126568 14.4718538-0.0808101245 14.224034 0.173164552 14.0511385L0.249356955 14.0059664 4.11906762 12.0006219 14.3002541 17.2772061C14.6430738 17.4549338 15.175524 17.4746813 15.5604838 17.3364486L15.6972716 17.2772061 25.8796953 12ZM0.249356955 8.19879398L14.3979866 1.124652493C14.688903 0.9792245845 15.1379968 0.9610460959 15.4684576 1.0701170273L15.6020134 1.124652493 29.750643 8.19879398C30.0554127 8.351147019999999 30.0808101 8.59047056 29.8268354 8.75731869L29.750643 8.80090602 15.6020134 15.8753475C15.311097 16.020775399999998 14.8620032 16.0389539 14.5315424 15.929883L14.3979866 15.8753475 0.249356955 8.80090602C-0.0554126568 8.64855297-0.0808101245 8.40948152 0.173164552 8.24244433L0.249356955 8.19879398 14.3979866 1.124652493 0.249356955 8.19879398Z"/>
	</svg>
	