<?xml version="1.0"?>
	<svg xmlns="http://www.w3.org/2000/svg" 
		width="30" 
		height="30" 
		viewbox="0 0 30 30" 
		code="81118" 
		 transform=""
		><path d="M25.099943 16.784375C25.8811551 16.784375 26.263081 17.7218294 25.7249127 18.2599977L25.7249127 18.2599977 23.2076739 20.7772365 26.9922122 24.5270542C27.6692626 25.2041046 27.6692626 26.3151618 26.9922122 26.9922122 26.3151618 27.6692626 25.2041046 27.6692626 24.5270542 26.9922122L24.5270542 26.9922122 20.7772365 23.2076739 18.2599977 25.7249127C17.7218294 26.263081 16.784375 25.8811551 16.784375 25.099943L16.784375 25.099943 16.784375 17.6523884C16.784375 17.1663009 17.1663009 16.784375 17.6523884 16.784375L17.6523884 16.784375ZM2.50778782 2.50778782C3.18483824 1.83073739 4.29589535 1.83073739 4.97294578 2.50778782L4.97294578 2.50778782 8.72276352 6.29232609 11.2400023 3.77508733C11.7781706 3.23691905 12.715625 3.61884493 12.715625 4.40005696L12.715625 4.40005696 12.715625 11.8476116C12.715625 12.3336991 12.3336991 12.715625 11.8476116 12.715625L11.8476116 12.715625 4.40005696 12.715625C3.61884493 12.715625 3.23691905 11.7781706 3.77508733 11.2400023L3.77508733 11.2400023 6.29232609 8.72276352 2.50778782 4.97294578C1.83073739 4.29589535 1.83073739 3.18483824 2.50778782 2.50778782Z"/>
	</svg>
	