<?xml version="1.0"?>
	<svg xmlns="http://www.w3.org/2000/svg" 
		width="30" 
		height="30" 
		viewbox="0 0 30 30" 
		code="80938" 
		 transform=""
		><path d="M27.8889759 26.4363208C27.9638848 26.4363208 28.0387937 26.5001965 28.0616825 26.5747183L28.0687572 26.620283 28.0687572 27.8160377C28.0687572 27.8926887 28.0063331 27.9693396 27.9335051 27.9927607L27.8889759 28 26.6904339 28C26.615525 28 26.5406161 27.9361242 26.5177273 27.8616025L26.5106526 27.8160377 26.5106526 27.1415094C26.5106526 27.0648585 26.5730766 26.9882075 26.6459047 26.9647864L26.6904339 26.9575472 26.8402516 26.9575472C26.9151605 26.9575472 26.9900694 26.8936714 27.0129582 26.8191496L27.0200329 26.7735849 27.0200329 26.620283C27.0200329 26.5436321 27.082457 26.4669811 27.1552851 26.44356L27.1998142 26.4363208 27.8889759 26.4363208ZM24.1135685 26.9575472C24.1884774 26.9575472 24.2633863 27.021423 24.2862751 27.0959447L24.2933498 27.1415094 24.2933498 27.8160377C24.2933498 27.8926887 24.2309258 27.9693396 24.1580977 27.9927607L24.1135685 28 22.5554639 28C22.480555 28 22.4056461 27.9361242 22.3827573 27.8616025L22.3756826 27.8160377 22.3756826 27.1415094C22.3756826 27.0648585 22.4381067 26.9882075 22.5109347 26.9647864L22.5554639 26.9575472 24.1135685 26.9575472ZM19.2648106 9.18976022L10.4830557 18.1660525C10.0648769 18.5949538 10.0369983 19.2640399 10.39942 19.7249659L10.4830557 19.8203862 10.5778905 19.9065773C10.7774877 20.0673483 11.0335156 20.1573801 11.2895434 20.1573801 11.5455712 20.1573801 11.7796538 20.0673483 11.9917912 19.9065773L12.0960311 19.8203862 20.7284364 10.9666372 20.7284364 27.0810731C20.7284364 27.5077862 20.4193742 27.8816681 19.9925741 27.9329027L19.8920788 27.9388758 2.83635761 27.9388758C2.42031237 27.9388758 2.05577749 27.6218889 2.00582376 27.1841452L2 27.0810731 2 10.0475629C2 9.62084983 2.30906218 9.24696791 2.73586233 9.19573331L2.83635761 9.18976022 19.2648106 9.18976022ZM27.8590123 22.2971698C27.9339212 22.2971698 28.0088301 22.3610456 28.0317189 22.4355673L28.0387937 22.4811321 28.0387937 24.0141509C28.0387937 24.0908019 27.9763696 24.1674528 27.9035415 24.190874L27.8590123 24.1981132 27.1998142 24.1981132C27.1249054 24.1981132 27.0499965 24.1342374 27.0271077 24.0597157L27.0200329 24.0141509 27.0200329 22.4811321C27.0200329 22.4044811 27.082457 22.3278302 27.1552851 22.3044091L27.1998142 22.2971698 27.8590123 22.2971698ZM27.8590123 18.1886792C27.9339212 18.1886792 28.0088301 18.252555 28.0317189 18.3270768L28.0387937 18.3726415 28.0387937 19.9056604C28.0387937 19.9823113 27.9763696 20.0589623 27.9035415 20.0823834L27.8590123 20.0896226 27.1998142 20.0896226C27.1249054 20.0896226 27.0499965 20.0257469 27.0271077 19.9512251L27.0200329 19.9056604 27.0200329 18.3726415C27.0200329 18.2959906 27.082457 18.2193396 27.1552851 18.1959185L27.1998142 18.1886792 27.8590123 18.1886792ZM25.5410164 4.63553068L25.5374926 4.68629619 24.1634766 9.92501965C24.1369255 10.0884106 23.9451681 10.1549773 23.8189687 10.0816867L23.7751677 10.0475629 22.3712817 8.60767983 11.767462 19.4833923C11.4986328 19.7591146 11.080454 19.7591146 10.8116248 19.4833923 10.5672346 19.2327357 10.5450173 18.8554848 10.7449729 18.581811L10.8116248 18.5030464 21.4154444 7.65796973 20.0414284 6.24872248C19.9352242 6.13979516 19.9706256 5.95824962 20.1056753 5.87621793L20.160908 5.85045696 25.2387935 4.44120971C25.3781864 4.39355401 25.4995099 4.47562772 25.5324938 4.58653019L25.5410164 4.63553068 25.5410164 4.63553068ZM27.8590123 14.0495283C27.9339212 14.0495283 28.0088301 14.1134041 28.0317189 14.1879258L28.0387937 14.2334906 28.0387937 15.7665094C28.0387937 15.8431604 27.9763696 15.9198113 27.9035415 15.9432324L27.8590123 15.9504717 27.1998142 15.9504717C27.1249054 15.9504717 27.0499965 15.8865959 27.0271077 15.8120742L27.0200329 15.7665094 27.0200329 14.2334906C27.0200329 14.1568396 27.082457 14.0801887 27.1552851 14.0567676L27.1998142 14.0495283 27.8590123 14.0495283ZM27.8590123 9.91037736C27.9339212 9.91037736 28.0088301 9.97425314 28.0317189 10.0487749L28.0387937 10.0943396 28.0387937 11.6273585C28.0387937 11.7040094 27.9763696 11.7806604 27.9035415 11.8040815L27.8590123 11.8113208 27.1998142 11.8113208C27.1249054 11.8113208 27.0499965 11.747445 27.0271077 11.6729232L27.0200329 11.6273585 27.0200329 10.0943396C27.0200329 10.0176887 27.082457 9.94103774 27.1552851 9.91761661L27.1998142 9.91037736 27.8590123 9.91037736ZM2.86941115 5.80188679C2.94432002 5.80188679 3.0192289 5.86576258 3.04211772 5.94028433L3.04919245 5.98584906 3.04919245 7.51886792C3.04919245 7.59551887 2.98676839 7.67216981 2.91394031 7.69559093L2.86941115 7.70283019 2.18024948 7.70283019C2.10534061 7.70283019 2.03043173 7.6389544 2.00754291 7.56443265L2.00046818 7.51886792 2.00046818 5.98584906C2.00046818 5.90919811 2.06289224 5.83254717 2.13572032 5.80912605L2.18024948 5.80188679 2.86941115 5.80188679ZM27.8590123 5.80188679C27.9339212 5.80188679 28.0088301 5.86576258 28.0317189 5.94028433L28.0387937 5.98584906 28.0387937 7.51886792C28.0387937 7.59551887 27.9763696 7.67216981 27.9035415 7.69559093L27.8590123 7.70283019 27.1998142 7.70283019C27.1249054 7.70283019 27.0499965 7.6389544 27.0271077 7.56443265L27.0200329 7.51886792 27.0200329 5.98584906C27.0200329 5.90919811 27.082457 5.83254717 27.1552851 5.80912605L27.1998142 5.80188679 27.8590123 5.80188679ZM3.37879151 2C3.45370038 2 3.52860926 2.06387579 3.55149808 2.13839754L3.55857281 2.18396226 3.55857281 2.85849057C3.55857281 2.93514151 3.49614875 3.01179245 3.42332067 3.03521357L3.37879151 3.04245283 3.22897376 3.04245283C3.15406488 3.04245283 3.079156 3.10632862 3.05626718 3.18085037L3.04919245 3.22641509 3.04919245 3.37971698C3.04919245 3.45636792 2.98676839 3.53301887 2.91394031 3.55643999L2.86941115 3.56367925 2.18024948 3.56367925C2.10534061 3.56367925 2.03043173 3.49980346 2.00754291 3.42528171L2.00046818 3.37971698 2.00046818 2.18396226C2.00046818 2.10731132 2.06289224 2.03066038 2.13572032 2.00723926L2.18024948 2 3.37879151 2ZM27.8889759 2C27.9638848 2 28.0387937 2.06387579 28.0616825 2.13839754L28.0687572 2.18396226 28.0687572 3.37971698C28.0687572 3.45636792 28.0063331 3.53301887 27.9335051 3.55643999L27.8889759 3.56367925 27.1998142 3.56367925C27.1249054 3.56367925 27.0499965 3.49980346 27.0271077 3.42528171L27.0200329 3.37971698 27.0200329 3.22641509C27.0200329 3.14976415 26.9576089 3.07311321 26.8847808 3.04969209L26.8402516 3.04245283 26.6904339 3.04245283C26.615525 3.04245283 26.5406161 2.97857704 26.5177273 2.90405529L26.5106526 2.85849057 26.5106526 2.18396226C26.5106526 2.10731132 26.5730766 2.03066038 26.6459047 2.00723926L26.6904339 2 27.8889759 2ZM19.948635 2C20.0235439 2 20.0984527 2.06387579 20.1213416 2.13839754L20.1284163 2.18396226 20.1284163 2.85849057C20.1284163 2.93514151 20.0659922 3.01179245 19.9931642 3.03521357L19.948635 3.04245283 18.3905304 3.04245283C18.3156215 3.04245283 18.2407126 2.97857704 18.2178238 2.90405529L18.2107491 2.85849057 18.2107491 2.18396226C18.2107491 2.10731132 18.2731731 2.03066038 18.3460012 2.00723926L18.3905304 2 19.948635 2ZM7.51376149 2C7.58867037 2 7.66357924 2.06387579 7.68646807 2.13839754L7.69354279 2.18396226 7.69354279 2.85849057C7.69354279 2.93514151 7.63111873 3.01179245 7.55829066 3.03521357L7.51376149 3.04245283 5.95565686 3.04245283C5.88074798 3.04245283 5.80583911 2.97857704 5.78295028 2.90405529L5.77587556 2.85849057 5.77587556 2.18396226C5.77587556 2.10731132 5.83829962 2.03066038 5.91112769 2.00723926L5.95565686 2 7.51376149 2ZM15.813665 2C15.8885739 2 15.9634828 2.06387579 15.9863716 2.13839754L15.9934463 2.18396226 15.9934463 2.85849057C15.9934463 2.93514151 15.9310222 3.01179245 15.8581942 3.03521357L15.813665 3.04245283 14.2555604 3.04245283C14.1806515 3.04245283 14.1057426 2.97857704 14.0828538 2.90405529L14.0757791 2.85849057 14.0757791 2.18396226C14.0757791 2.10731132 14.1382031 2.03066038 14.2110312 2.00723926L14.2555604 2 15.813665 2ZM11.678695 2C11.7536039 2 11.8285128 2.06387579 11.8514016 2.13839754L11.8584763 2.18396226 11.8584763 2.85849057C11.8584763 2.93514151 11.7960523 3.01179245 11.7232242 3.03521357L11.678695 3.04245283 10.1205904 3.04245283C10.0456815 3.04245283 9.97077264 2.97857704 9.94788382 2.90405529L9.94080909 2.85849057 9.94080909 2.18396226C9.94080909 2.10731132 10.0032332 2.03066038 10.0760612 2.00723926L10.1205904 2 11.678695 2ZM24.1135685 2C24.1884774 2 24.2633863 2.06387579 24.2862751 2.13839754L24.2933498 2.18396226 24.2933498 2.85849057C24.2933498 2.93514151 24.2309258 3.01179245 24.1580977 3.03521357L24.1135685 3.04245283 22.5554639 3.04245283C22.480555 3.04245283 22.4056461 2.97857704 22.3827573 2.90405529L22.3756826 2.85849057 22.3756826 2.18396226C22.3756826 2.10731132 22.4381067 2.03066038 22.5109347 2.00723926L22.5554639 2 24.1135685 2Z"/>
	</svg>
	