<?xml version="1.0"?>
	<svg xmlns="http://www.w3.org/2000/svg" 
		width="30" 
		height="30" 
		viewbox="0 0 30 30" 
		code="80937" 
		 transform=""
		><path d="M6.25 27.5L23.75 27.5C24.4375 27.5 25 28.0625 25 28.75 25 29.3945312 24.5056152 29.9291992 23.8773346 29.993515L23.75 30 6.25 30C5.5625 30 5 29.4375 5 28.75 5 28.1054688 5.49438477 27.5708008 6.12266541 27.506485L6.25 27.5ZM25 5C26.32 5 27.4096 6.0368 27.494656 7.336256L27.5 7.5 27.5 22.5C27.5 23.82 26.4632 24.9096 25.163744 24.994656L25 25 5 25C3.68 25 2.5904 23.9632 2.505344 22.663744L2.5 22.5 2.5 7.5C2.5 6.18 3.5368 5.0904 4.836256 5.005344L5 5 25 5ZM15 16.25C12.9674342 16.25 8.96764197 17.2336132 8.75853418 19.2123786L8.75 19.375 8.75 21.25 21.25 21.25 21.25 19.375C21.25 17.2875 17.0875 16.25 15 16.25ZM15 8.4375C13.45 8.4375 12.1875 9.7 12.1875 11.25 12.1875 12.8 13.45 14.0625 15 14.0625 16.55 14.0625 17.8125 12.8 17.8125 11.25 17.8125 9.7 16.55 8.4375 15 8.4375ZM6.25 0L23.75 0C24.4375 0 25 0.5625 25 1.25 25 1.89453125 24.5056152 2.42919922 23.8773346 2.49351501L23.75 2.5 6.25 2.5C5.5625 2.5 5 1.9375 5 1.25 5 0.60546875 5.49438477 0.0708007812 6.12266541 0.00648498535L6.25 0Z"/>
	</svg>
	