<?xml version="1.0"?>
	<svg xmlns="http://www.w3.org/2000/svg" 
		width="30" 
		height="30" 
		viewbox="0 0 30 30" 
		code="80945" 
		 transform=""
		><path d="M15 0C23.2846667 0 30 6.71566667 30 15 30 23.2843333 23.2846667 30 15 30 6.71566667 30 0 23.2843333 0 15 0 6.71566667 6.71566667 0 15 0ZM15 1.66666667C7.63633333 1.66666667 1.66666667 7.636 1.66666667 15 1.66666667 16.7046667 1.99 18.333 2.573 19.8316667L2.80670099 19.6457137C4.24262333 18.5287683 7.57044692 16.3880533 12.5053995 15.8160047L12.945 15.7696667 12.7793333 18.087C11.902 18.757 11.3333333 19.811 11.3333333 21 11.3333333 23.025 12.975 24.6666667 15 24.6666667 17.025 24.6666667 18.6666667 23.025 18.6666667 21 18.6666667 19.8853125 18.166862 18.8892773 17.381486 18.2170642L17.2206667 18.087 17.0546667 15.7626667C22.654 16.2566667 26.2736667 18.6446667 27.5173333 19.6023333 28.045 18.168 28.3333333 16.6176667 28.3333333 15 28.3333333 7.636 22.364 1.66666667 15 1.66666667ZM15 5.66666667C15.4357778 5.66666667 15.8715556 10.1334444 16.3073333 19.067 16.9263333 19.4866667 17.3333333 20.1956667 17.3333333 21 17.3333333 22.2886667 16.2886667 23.3333333 15 23.3333333 13.7113333 23.3333333 12.6666667 22.2886667 12.6666667 21 12.6666667 20.1956667 13.0736667 19.4866667 13.6926667 19.067L13.827908 16.4379215C14.2186054 9.25708495 14.6093027 5.66666667 15 5.66666667Z"/>
	</svg>
	