<?xml version="1.0"?>
	<svg xmlns="http://www.w3.org/2000/svg" 
		width="30" 
		height="30" 
		viewbox="0 0 30 30" 
		code="80950" 
		 transform=""
		><path d="M13.1142882 3.999999999998896L16.5523785 3.999999999998896C17.2466083 3.999999999998896 17.8152155 4.565301391 17.8152155 5.26283703L17.8152155 11.5505753 20.790486 11.5505753C21.8913361 11.5505753 22.4830843 12.91589387 21.6731496 13.71260519L15.7159969 19.573888C15.4713636 19.8152155 15.1573072 19.9375322 14.8333333 19.9375322 14.5027477 19.9375322 14.1886914 19.805298 13.9506698 19.573888L8.04971664 13.76549888C7.18027649 12.95887 7.71582518 11.5505753 8.87618066 11.5505753L11.85145114 11.5505753 11.85145114 5.26283703C11.85145114 4.565301391 12.4200584 3.999999999998896 13.1142882 3.999999999998896ZM6.85630259 20.5425039L22.8103641 20.5425039 22.8103641 15.4415679C22.8103641 15.1374292 23.0583033 14.88949 23.362442 14.88949L27.1145887 14.88949C27.4220333 14.88949 27.6666667 15.1374292 27.6666667 15.4415679L27.6666667 24.8500343C27.6666667 25.1541731 27.4220333 25.3988065 27.1145887 25.3988065 18.929289 25.3988065 10.7406835 25.3988065 2.552077967 25.3988065 2.247939207 25.3988065 2.0000000000000027 25.1541731 2.0000000000000027 24.8500343L2.0000000000000027 15.4415679C2.0000000000000027 15.1374292 2.247939207 14.88949 2.552077967 14.88949L6.30422463 14.88949C6.60836339 14.88949 6.85630259 15.1374292 6.85630259 15.4415679L6.85630259 20.5425039Z"/>
	</svg>
	