<?xml version="1.0"?>
	<svg xmlns="http://www.w3.org/2000/svg" 
		width="30" 
		height="30" 
		viewbox="0 0 30 30" 
		code="81123" 
		 transform=""
		><path d="M7.25 15C7.25 17.0625 5.5625 18.75 3.5 18.75 1.4375 18.75-0.25 17.0625-0.25 15-0.25 12.9375 1.4375 11.25 3.5 11.25 5.5625 11.25 7.25 12.9375 7.25 15ZM18.5 14.999999999999998C18.5 17.0625 16.8125 18.75 14.750000000000002 18.75 12.6875 18.75 11 17.0625 11 15 11 12.9375 12.6875 11.25 14.75 11.25 16.8125 11.249999999999998 18.5 12.937499999999998 18.5 14.999999999999998ZM29.75 14.999999999999998C29.75 17.0625 28.0625 18.75 26 18.75 23.9375 18.75 22.25 17.0625 22.25 14.999999999999998 22.25 12.937499999999998 23.9375 11.249999999999998 26 11.249999999999998 28.0625 11.249999999999998 29.75 12.937499999999998 29.75 14.999999999999998Z"/>
	</svg>
	