<?xml version="1.0"?>
	<svg xmlns="http://www.w3.org/2000/svg" 
		width="30" 
		height="30" 
		viewbox="0 0 30 30" 
		code="80952" 
		 transform=""
		><path d="M19.3231084 19.9100204L28.9141104 28.8568507C28.7423313 28.9141104 28.5247444 28.9713701 28.3346421 28.9919836L28.198364 29 2.71779141 29C2.48875256 29 2.2597137 28.9541922 2.06732106 28.8992229L1.93047035 28.8568507 11.593047 19.9100204 13.3108384 21.1267894C14.5431671 22.0168045 16.102926 22.0555008 17.4263657 21.2428783L17.605317 21.1267894 19.3231084 19.9100204ZM29.8445808 12.5378323L29.8445808 27.7116564 20.4683027 19.1226994 29.8445808 12.5378323ZM1 12.5378323L10.3762781 19.1226994 1.07157464 27.7116564C1.01431493 27.597137 1.00286299 27.4826176 1.0005726 27.4047444L1 12.5378323ZM14.0981595 1.42944785C14.7870654 0.928425358 15.6951687 0.865797546 16.438874 1.24156442L16.5955833 1.32879601 16.7464213 1.42944785 29.8445808 10.6148603 16.7464213 19.7764145C15.9591002 20.3490116 14.8854806 20.3490116 14.0981595 19.7764145L1 10.6148603 14.0981595 1.42944785Z"/>
	</svg>
	