<?xml version="1.0"?>
	<svg xmlns="http://www.w3.org/2000/svg" 
		width="30" 
		height="30" 
		viewbox="0 0 30 30" 
		code="80953" 
		 transform=""
		><path d="M19.057072 15.0918114L29.0322581 24.3970223C28.853598 24.4565757 28.6272953 24.516129 28.4295782 24.5375682L28.2878412 24.5459057 1.7866005 24.5459057C1.5483871 24.5459057 1.3101737 24.498263 1.11007444 24.4410918L0.967741935 24.3970223 11.0173697 15.0918114 12.8039702 16.357320100000003C14.0856619 17.282986299999997 15.7078996 17.3232327 17.0843519 16.4780592L17.2704715 16.357320100000003 19.057072 15.0918114ZM30 7.42431762L30 23.2059553 20.248139 14.2729529 30 7.42431762ZM3.90798505e-14 7.42431762L9.75186104 14.2729529 0.0744416873 23.2059553C0.0148883375 23.0868486 0.00297766749 22.9677419 0.000595533499 22.8867494L3.90798505e-14 7.42431762ZM1.7866005 4.000000000000067L28.2878412 4.000000000000067C29.1315136 4.000000000000067 29.8423858 4.597601323 29.9814789 5.47924772L30 5.63771712 16.3771712 15.1662531C15.6094913 15.7245658 14.5801024 15.7594603 13.7797088 15.2709367L13.6228288 15.1662531 0 5.63771712C0.070306038 4.723738627 0.804613547 4.0753607205 1.63852128 4.0061396522L1.7866005 4.000000000000067 28.2878412 4.000000000000067 1.7866005 4.000000000000067Z"/>
	</svg>
	