<?xml version="1.0"?>
	<svg xmlns="http://www.w3.org/2000/svg" 
		width="30" 
		height="30" 
		viewbox="0 0 30 30" 
		code="80954" 
		 transform=""
		><path d="M10.78125 19.6875C13.621875 19.6875 15.9375 21.99375 15.9375 24.84375 15.9375 27.684375 13.621875 30 10.78125 30 8.428125 30 6.440625 28.40625 5.821875 26.25L1.40625 26.25C0.628125 26.25 0 25.6125 0 24.84375 0 24.065625 0.628125 23.4375 1.40625 23.4375L5.821875 23.4375C6.440625 21.271875 8.428125 19.6875 10.78125 19.6875ZM28.59375 23.4375C29.371875 23.4375 30 24.065625 30 24.84375 30 25.6125 29.371875 26.25 28.59375 26.25L17.671875 26.25C17.765625 25.8 17.8125 25.321875 17.8125 24.84375 17.8125 24.365625 17.765625 23.8875 17.671875 23.4375L28.59375 23.4375ZM19.21875 9.375C22.059375 9.375 24.375 11.68125 24.375 14.53125 24.375 17.371875 22.059375 19.6875 19.21875 19.6875 16.865625 19.6875 14.878125 18.09375 14.259375 15.9375L1.40625 15.9375C0.628125 15.9375 0 15.3 0 14.53125 0 13.753125 0.628125 13.125 1.40625 13.125L14.259375 13.125C14.878125 10.959375 16.865625 9.375 19.21875 9.375ZM28.59375 13.125C29.371875 13.125 30 13.753125 30 14.53125 30 15.3 29.371875 15.9375 28.59375 15.9375L26.109375 15.9375C26.203125 15.4875 26.25 15.009375 26.25 14.53125 26.25 14.053125 26.203125 13.575 26.109375 13.125L28.59375 13.125ZM10.78125 0C13.621875 0 15.9375 2.30625 15.9375 5.15625 15.9375 7.996875 13.621875 10.3125 10.78125 10.3125 8.428125 10.3125 6.440625 8.71875 5.821875 6.5625L1.40625 6.5625C0.628125 6.5625 0 5.925 0 5.15625 0 4.378125 0.628125 3.75 1.40625 3.75L5.821875 3.75C6.440625 1.584375 8.428125 0 10.78125 0ZM28.59375 3.75C29.371875 3.75 30 4.378125 30 5.15625 30 5.925 29.371875 6.5625 28.59375 6.5625L17.671875 6.5625C17.765625 6.1125 17.8125 5.634375 17.8125 5.15625 17.8125 4.678125 17.765625 4.2 17.671875 3.75L28.59375 3.75Z"/>
	</svg>
	