<?xml version="1.0"?>
	<svg xmlns="http://www.w3.org/2000/svg" 
		width="30" 
		height="30" 
		viewbox="0 0 30 30" 
		code="80956" 
		 transform=""
		><path d="M24.4676259 6.35071942C26.6456835 8.60431655 28.0683453 11.8776978 28.0683453 15.4658273 28.0683453 22.9064748 21.9748201 29 14.5341727 29 7.09352518 29 1 22.9064748 1 15.4658273 1 11.8776978 2.42266187 8.60431655 4.60071942 6.35071942 6.57733813 4.22302158 9.77517986 6.6528777 7.63489209 9.04496403 6.07374101 10.7194245 5.10431655 12.9730216 5.10431655 15.4658273 5.10431655 20.6780576 9.32194245 24.8956835 14.5341727 24.8956835 19.7464029 24.8956835 23.9640288 20.6780576 23.9640288 15.4658273 23.9640288 12.9730216 22.9946043 10.7194245 21.4334532 9.04496403 19.2931655 6.6528777 22.4910072 4.22302158 24.4676259 6.35071942ZM14.5341727 1C15.8515827 1 16.7396863 1.88181871 16.8086268 3.24446066L16.8129496 3.41726619 16.8129496 13.6780576C16.8129496 15.1258993 15.9064748 16.0953237 14.5341727 16.0953237 13.2167626 16.0953237 12.328659 15.2019022 12.2597186 13.8494707L12.2553957 13.6780576 12.2553957 3.41726619C12.2553957 1.95683453 13.1618705 1 14.5341727 1Z"/>
	</svg>
	