<?xml version="1.0"?>
	<svg xmlns="http://www.w3.org/2000/svg" 
		width="30" 
		height="30" 
		viewbox="0 0 30 30" 
		code="80957" 
		 transform=""
		><path d="M9.8 20.2C10.4066667 20.8066667 10.4471111 21.7762963 9.92133333 22.431358L9.8 22.5666667 6.16666667 26.1666667 8.58333333 28.5833333C9.06960784 29.0696078 8.77341407 29.8954441 8.11160526 29.9909187L7.98333333 30 0.833333333 30C0.409090909 30 0.0674931129 29.6969697 0.00889055848 29.2912597L0 29.1666667 0 22.0166667C0 21.3107843 0.797231834 20.9444637 1.32177217 21.334558L1.41666667 21.4166667 3.83333333 23.8333333 7.43333333 20.2C8.08333333 19.55 9.15 19.55 9.8 20.2ZM22.431358 20.0786667L22.5666667 20.2 26.1666667 23.8333333 28.5833333 21.4166667C29.0696078 20.9303922 29.8954441 21.2265859 29.9909187 21.8883947L30 22.0166667 30 29.1666667C30 29.5909091 29.6969697 29.9325069 29.2912597 29.9911094L29.1666667 30 22.0166667 30C21.3107843 30 20.9444637 29.2027682 21.334558 28.6782278L21.4166667 28.5833333 23.8333333 26.1666667 20.2 22.5666667C19.55 21.9166667 19.55 20.85 20.2 20.2 20.8066667 19.5933333 21.7762963 19.5528889 22.431358 20.0786667ZM29.1666667 8.8817842e-16C29.5909091 8.8817842e-16 29.9325069 0.303030303 29.9911094 0.708740296L30 0.833333333 30 7.98333333C30 8.68921569 29.2027682 9.05553633 28.6782278 8.66544202L28.5833333 8.58333333 26.1666667 6.16666667 22.5666667 9.8C21.9166667 10.45 20.85 10.45 20.2 9.8 19.5933333 9.19333333 19.5528889 8.2237037 20.0786667 7.56864198L20.2 7.43333333 23.8333333 3.83333333 21.4166667 1.41666667C20.9303922 0.930392157 21.2265859 0.10455594 21.8883947 0.0090813488L22.0166667 8.8817842e-16 29.1666667 8.8817842e-16ZM7.98333333 0C8.68921569 0 9.05553633 0.797231834 8.66544202 1.32177217L8.58333333 1.41666667 6.16666667 3.83333333 9.8 7.43333333C10.45 8.08333333 10.45 9.15 9.8 9.8 9.19333333 10.4066667 8.2237037 10.4471111 7.56864198 9.92133333L7.43333333 9.8 3.83333333 6.16666667 1.41666667 8.58333333C0.930392157 9.06960784 0.10455594 8.77341407 0.0090813488 8.11160526L8.8817842e-16 7.98333333 8.8817842e-16 0.833333333C8.8817842e-16 0.409090909 0.303030303 0.0674931129 0.708740296 0.00889055848L0.833333333 0 7.98333333 0Z"/>
	</svg>
	