<?xml version="1.0"?>
	<svg xmlns="http://www.w3.org/2000/svg" 
		width="30" 
		height="30" 
		viewbox="0 0 30 30" 
		code="81022" 
		 transform=""
		><path d="M12.375 5.125L16.125 8.5625 11.75 12.9375C10.8125 13.875 10.5 14.8125 10.5 15.75 10.5 16.6875 10.8125 17.625 11.4375 18.25 12.375 19.1875 13.3125 19.5 14.25 19.5 15.1153846 19.5 15.9807692 19.2337278 16.8461538 18.7011834L17.0625 18.5625 21.4375 14.1875 24.875 17.625 24.875 23.875C24.875 25.6895161 23.7043444 26.9187045 21.9294795 26.9961188L21.75 27 6.125 27C4.31048387 27 3.08129553 25.8293444 3.00388121 24.0544795L3 23.875 3 8.25C3 6.43548387 4.17065557 5.20629553 5.94552046 5.12888121L6.125 5.125 12.375 5.125ZM26.125 2C27.0625 2 28 2.625 28 3.5625L28 11.6875C28 12.3125 27.375 12.9375 26.75 12.9375 26.4722222 12.9375 26.1944444 12.9375 25.9166667 12.7180213L25.8125 12.625 23 9.8125 15.5 17.3125C14.875 17.9375 13.625 17.9375 12.6875 17.3125 12.0625 16.6875 12.0625 15.4375 12.6875 14.5L20.1875 7 17.375 4.1875C17.0625 3.875 17.0625 3.5625 17.0625 3.25 17.0625 2.625 17.375 2 18 2L26.125 2Z"/>
	</svg>
	