<?xml version="1.0"?>
	<svg xmlns="http://www.w3.org/2000/svg" 
		width="30" 
		height="30" 
		viewbox="0 0 30 30" 
		code="80959" 
		 transform=""
		><path d="M14.0666667 14.0666667L15 15.3733333C15.0933333 15.2613333 15.168 15.14 15.252 15.0186667M7.72048533 2.89815019C7.97916023 2.95974518 8.2110798 3.10014652 8.38510695 3.29833668L8.467152 3.40215019 10.987152 6.91148352C12.323627 6.53614019 13.7056423 6.34768355 15.0938187 6.35148352 17.8812585 6.3551997 20.6181724 7.09577641 23.027152 8.49815019 25.3785156 9.83941854 27.3405373 11.7692759 28.7204853 14.0981502 28.9802202 14.4118777 29.1133701 14.8113273 29.0938187 15.2181502 29.0615977 15.5486933 28.96761 15.8696364 28.81735 16.1644962L28.7204853 16.3381502 28.4404853 16.8048169C27.7260282 17.9824221 26.8459058 19.0511422 25.827152 19.9781502 24.8562009 20.9560431 23.7350098 21.7706995 22.5070379 22.3916982L22.0938187 22.5914835 24.147152 25.4848169C24.314538 25.6844483 24.3896185 25.943224 24.3583691 26.1980343L24.3338187 26.3248169C24.3001742 26.5862664 24.1701497 26.8239653 23.9718572 26.9929346L23.867152 27.0714835 23.2138187 27.5381502C22.9809153 27.7334339 22.6675101 27.8030795 22.3738187 27.7248169 22.1269122 27.6729387 21.9020205 27.5494545 21.7263964 27.3713971L21.627152 27.2581502 5.947152 5.13815019C5.779766 4.93851871 5.70468552 4.67974308 5.7359349 4.42493274L5.76048533 4.29815019C5.79412978 4.03670067 5.92415426 3.79900173 6.12244685 3.63003245L6.227152 3.55148352 6.88048533 3.08481686C7.11338872 2.88953319 7.42679388 2.8198876 7.72048533 2.89815019ZM6.04048533 9.00215019L8.84048533 13.0154835C8.57357119 13.6988264 8.44661646 14.4288161 8.467152 15.1621502 8.46893964 16.3042314 8.75779051 17.4275404 9.307152 18.4288169 9.89238151 19.4340987 10.7285368 20.270254 11.7338187 20.8554835 12.61929 21.4438693 13.6521991 21.7669357 14.7111316 21.7899928L15.0004853 21.7888169 16.4938187 23.9354835C16.1237289 23.9958866 15.7498218 24.0285739 15.3752129 24.0333507L15.0004853 24.0288169C12.2130455 24.0251007 9.47613156 23.284524 7.067152 21.8821502 4.84641967 20.6153968 2.97297075 18.8236364 1.60916652 16.6665688L1.37381867 16.2821502 1.28048533 16.1888169C1.08951437 15.8810113 0.992227042 15.524291 1.00048533 15.1621502 1.03270632 14.831607 1.126694 14.510664 1.27695397 14.2158042L1.37381867 14.0421502 1.56048533 13.6688169C2.67664247 11.7906339 4.20940472 10.1940066 6.04048533 9.00215019ZM9.42615603 14.0988968L13.2528227 19.5122301C12.0920575 19.2102286 11.0704764 18.5181899 10.3594894 17.5522301 9.63257535 16.5558855 9.30011185 15.3257706 9.42615603 14.0988968ZM15.3831724 8.40364087L15.0938187 8.40481686C14.3569993 8.42118647 13.6265736 8.53929643 12.9231719 8.75532629L12.5738187 8.87148352 13.069 9.56466667 13.152662 9.54121171C13.7028436 9.40269908 14.2744833 9.36548009 14.8394894 9.4322301 15.5146372 9.53174872 16.1736747 9.72004515 16.7994894 9.9922301 16.2990381 10.0089493 15.8211865 10.1955395 15.4431079 10.5182376L15.306156 10.6455634C14.8710689 11.0169408 14.6302833 11.5673078 14.6528227 12.1388968 14.6560938 12.2368111 14.6658676 12.3338604 14.6818911 12.4294666 14.9662839 12.8916746 15.3083244 13.415307 15.7170755 13.9886703 16.0353703 14.1954163 16.4125676 14.3008209 16.7994894 14.2855634 17.3582695 14.2487781 17.8865689 14.0176471 18.2928227 13.6322301 18.7279099 13.2608528 18.9686954 12.7104857 18.946156 12.1388968 19.3804638 12.9716407 19.5743691 13.9088497 19.506156 14.8455634 19.4739019 15.7986319 19.1626891 16.7207729 18.6118265 17.497991L18.7788258 17.6750221 18.7788258 17.6750221 19.2004853 18.1114835 20.1338187 19.4181502C20.494254 18.9224183 20.8182463 18.4014307 21.103335 17.8593076L21.3098187 17.4488169 21.3098187 17.4861502C21.5926214 16.7314969 21.7319011 15.9306386 21.7204853 15.1248169 21.7307117 13.9394409 21.407282 12.7750939 20.787152 11.7648169 20.2019225 10.759535 19.3657672 9.9233797 18.3604853 9.33815019 17.5555114 8.80325403 16.6286881 8.4876301 15.6712358 8.41734137L15.3831724 8.40364087Z"/>
	</svg>
	