<?xml version="1.0"?>
	<svg xmlns="http://www.w3.org/2000/svg" 
		width="30" 
		height="30" 
		viewbox="0 0 30 30" 
		code="80960" 
		 transform=""
		><path d="M15 4.99999999999973C18.0902775 4.99999999999973 20.9375 5.763889154 23.5416667 7.29166667 26.1111108 8.78472249 28.1423608 10.79861085 29.6354167 13.33333333 29.8784725 13.71527751 30 14.13194418 30 14.58333333 30 15.0347225 29.8784725 15.4513892 29.6354167 15.8333333 28.1423608 18.3680558 26.1111108 20.3819442 23.5416667 21.875 20.9375 23.4027775 18.0902775 24.1666667 15 24.1666667 11.9097225 24.1666667 9.0625 23.4027775 6.45833333 21.875 3.88888915 20.3819442 1.85763915 18.3680558 0.364583333 15.8333333 0.121527513 15.4513892 0 15.0347225 0 14.58333333 0 14.13194418 0.121527513 13.71527751 0.364583333 13.33333333 1.85763915 10.79861085 3.88888915 8.78472249 6.45833333 7.29166667 9.0625 5.763889154 11.9097225 4.99999999999973 15 4.99999999999973ZM15 7.5C13.7152775 7.5 12.5347225 7.82118082 11.4583333 8.46354167 10.3819442 9.10590251 9.52256918 9.96527751 8.88020833 11.04166667 8.23784749 12.11805582 7.91666667 13.29861085 7.91666667 14.58333333 7.91666667 15.8680558 8.23784749 17.0486108 8.88020833 18.125 9.52256918 19.2013892 10.3819442 20.0607642 11.4583333 20.703125 12.5347225 21.3454858 13.7152775 21.6666667 15 21.6666667 16.2847225 21.6666667 17.4652775 21.3454858 18.5416667 20.703125 19.6180558 20.0607642 20.4774308 19.2013892 21.1197917 18.125 21.7621525 17.0486108 22.0833333 15.8680558 22.0833333 14.58333333 22.0833333 13.29861085 21.7621525 12.11805582 21.1197917 11.04166667 20.4774308 9.96527751 19.6180558 9.10590251 18.5416667 8.46354167 17.4652775 7.82118082 16.2847225 7.5 15 7.5ZM15 9.16666667C16.4930558 9.16666667 17.7690975 9.69618082 18.828125 10.75520833 19.8871525 11.81423585 20.4166667 13.09027751 20.4166667 14.58333333 20.4166667 16.0763892 19.8871525 17.3524308 18.828125 18.4114583 17.7690975 19.4704858 16.4930558 20 15 20 13.5069442 20 12.2309025 19.4704858 11.171875 18.4114583 10.1128475 17.3524308 9.58333333 16.0763892 9.58333333 14.58333333 9.58333333 13.68055582 9.79166667 12.82986085 10.2083333 12.03125 10.2083333 12.65625 10.4253475 13.18576415 10.859375 13.61979167 11.2934025 14.05381918 11.8229167 14.27083333 12.4479167 14.27083333 13.0729167 14.27083333 13.6024308 14.05381918 14.0364583 13.61979167 14.4704858 13.18576415 14.6875 12.65625 14.6875 12.03125 14.6875 11.40625 14.4704858 10.87673585 14.0364583 10.44270833 13.6024308 10.00868082 13.0729167 9.79166667 12.4479167 9.79166667 13.2465275 9.375 14.0972225 9.16666667 15 9.16666667Z"/>
	</svg>
	