<?xml version="1.0"?>
	<svg xmlns="http://www.w3.org/2000/svg" 
		width="30" 
		height="30" 
		viewbox="0 0 30 30" 
		code="80964" 
		 transform=""
		><path d="M3.99609375 0L19.7929688 0C20.0126953 0 20.2242839 0.0732421875 20.3972168 0.206163194L20.4960938 0.29296875 25.7167969 5.5078125C25.8730469 5.6640625 25.9723307 5.86507161 26.0010851 6.08032227L26.0097656 6.2109375 26.0097656 15.0117188C26.0097656 15.5231585 25.6257972 15.9436583 25.1299583 16.0011203L25.0136719 16.0078125 23.6015625 16.0078125C23.0901228 16.0078125 22.6696229 15.6238441 22.6121609 15.1280051L22.6054687 15.0117188 22.6054687 10.1953125C22.6054687 9.68387277 22.2215003 9.26337293 21.7256614 9.20591091L21.609375 9.19921875 16.8046875 9.19921875 16.8046875 4.57617188C16.8046875 4.06473214 16.4207191 3.6442323 15.9248801 3.58677028L15.8085937 3.58007813 7.39453125 3.58007813C6.88309152 3.58007813 6.46259168 3.96404656 6.40512966 4.45988549L6.3984375 4.57617188 6.3984375 25.7871094C6.3984375 26.2985491 6.78240593 26.7190489 7.27824486 26.776511L7.39453125 26.7832031 11.0097656 26.7832031C11.5212054 26.7832031 11.9417052 27.1671716 11.9991672 27.6630105L12.0058594 27.7792969 12.0058594 29.0039062C12.0058594 29.515346 11.6218909 29.9358458 11.126052 29.9933078L11.0097656 30 3.99609375 30C3.48465402 30 3.06415418 29.6160316 3.00669216 29.1201926L3 29.0039062 3 0.99609375C3 0.484654018 3.38396843 0.0641541773 3.87980736 0.00669215789L3.99609375 0 19.7929688 0 3.99609375 0ZM20.4316406 19.8046875L21.3691406 19.8046875C22.0063477 19.8046875 22.5302582 20.2887726 22.5932579 20.9093285L22.5996094 21.0351562 22.5996094 23.203125 24.7675781 23.203125C25.4047852 23.203125 25.9286957 23.6872101 25.9916954 24.307766L25.9980469 24.4335938 25.9980469 25.3710938C25.9980469 26.0083008 25.5139618 26.5322113 24.8934059 26.595211L24.7675781 26.6015625 22.5996094 26.6015625 22.5996094 28.7695312C22.5996094 29.4067383 22.1155243 29.9306488 21.4949684 29.9936485L21.3691406 30 20.4316406 30C19.7944336 30 19.2705231 29.5159149 19.2075233 28.895359L19.2011719 28.7695312 19.2011719 26.6015625 17.0332031 26.6015625C16.3959961 26.6015625 15.8720856 26.1174774 15.8090858 25.4969215L15.8027344 25.3710938 15.8027344 24.4335938C15.8027344 23.7963867 16.2868195 23.2724762 16.9073753 23.2094765L17.0332031 23.203125 19.2011719 23.203125 19.2011719 21.0351562C19.2011719 20.3979492 19.685257 19.8740387 20.3058128 19.811039L20.4316406 19.8046875 21.3691406 19.8046875 20.4316406 19.8046875Z"/>
	</svg>
	