<?xml version="1.0"?>
	<svg xmlns="http://www.w3.org/2000/svg" 
		width="30" 
		height="30" 
		viewbox="0 0 30 30" 
		code="80966" 
		 transform=""
		><path d="M3.99609375 0L19.7929688 0C20.0126953 0 20.2242839 0.0732421875 20.3972168 0.206163194L20.4960938 0.29296875 25.7167969 5.5078125C25.8730469 5.6640625 25.9723307 5.86507161 26.0010851 6.08032227L26.0097656 6.2109375 26.0097656 15.0117188C26.0097656 15.5231585 25.6257972 15.9436583 25.1299583 16.0011203L25.0136719 16.0078125 23.6015625 16.0078125C23.0901228 16.0078125 22.6696229 15.6238441 22.6121609 15.1280051L22.6054687 15.0117188 22.6054687 10.1953125C22.6054687 9.68387277 22.2215003 9.26337293 21.7256614 9.20591091L21.609375 9.19921875 16.8046875 9.19921875 16.8046875 4.57617188C16.8046875 4.06473214 16.4207191 3.6442323 15.9248801 3.58677028L15.8085937 3.58007813 7.39453125 3.58007813C6.88309152 3.58007813 6.46259168 3.96404656 6.40512966 4.45988549L6.3984375 4.57617188 6.3984375 25.7871094C6.3984375 26.2985491 6.78240593 26.7190489 7.27824486 26.776511L7.39453125 26.7832031 11.0097656 26.7832031C11.5212054 26.7832031 11.9417052 27.1671716 11.9991672 27.6630105L12.0058594 27.7792969 12.0058594 29.0039062C12.0058594 29.515346 11.6218909 29.9358458 11.126052 29.9933078L11.0097656 30 3.99609375 30C3.48465402 30 3.06415418 29.6160316 3.00669216 29.1201926L3 29.0039062 3 0.99609375C3 0.484654018 3.38396843 0.0641541773 3.87980736 0.00669215789L3.99609375 0 19.7929688 0 3.99609375 0ZM25 23C25.5522847 23 26 23.4477153 26 24L26 25C26 25.5522847 25.5522847 26 25 26L17 26C16.4477153 26 16 25.5522847 16 25L16 24C16 23.4477153 16.4477153 23 17 23L25 23Z"/>
	</svg>
	