<?xml version="1.0"?>
	<svg xmlns="http://www.w3.org/2000/svg" 
		width="30" 
		height="30" 
		viewbox="0 0 30 30" 
		code="80967" 
		 transform=""
		><path d="M3.99609375 0L19.7929688 0C20.0126953 0 20.2242839 0.0732421875 20.3972168 0.206163194L20.4960938 0.29296875 25.7167969 5.5078125C25.8730469 5.6640625 25.9723307 5.86507161 26.0010851 6.08032227L26.0097656 6.2109375 26.0097656 15.0117188C26.0097656 15.5231585 25.6257972 15.9436583 25.1299583 16.0011203L25.0136719 16.0078125 23.6015625 16.0078125C23.0901228 16.0078125 22.6696229 15.6238441 22.6121609 15.1280051L22.6054688 15.0117188 22.6054688 10.1953125C22.6054688 9.68387277 22.2215003 9.26337293 21.7256614 9.20591091L21.609375 9.19921875 16.8046875 9.19921875 16.8046875 4.57617188C16.8046875 4.06473214 16.4207191 3.6442323 15.9248801 3.58677028L15.8085938 3.58007813 7.39453125 3.58007813C6.88309152 3.58007813 6.46259168 3.96404656 6.40512966 4.45988549L6.3984375 4.57617188 6.3984375 25.7871094C6.3984375 26.2985491 6.78240593 26.7190489 7.27824486 26.776511L7.39453125 26.7832031 11.0097656 26.7832031C11.5212054 26.7832031 11.9417052 27.1671716 11.9991672 27.6630105L12.0058594 27.7792969 12.0058594 29.0039062C12.0058594 29.515346 11.6218909 29.9358458 11.126052 29.9933078L11.0097656 30 3.99609375 30C3.48465402 30 3.06415418 29.6160316 3.00669216 29.1201926L3 29.0039062 3 0.99609375C3 0.484654018 3.38396843 0.0641541773 3.87980736 0.00669215789L3.99609375 0 19.7929688 0 3.99609375 0ZM20.9003906 22.4992855L22.433376 20.9663001C22.8796583 20.5200179 23.5831574 20.4881406 24.0661849 20.8706682L24.1735216 20.9663001 24.8364342 21.6292128C25.2827165 22.075495 25.3145938 22.7789941 24.9320661 23.2620216L24.8364342 23.3693583 23.3034488 24.9023437 24.8364342 26.4353292C25.2827165 26.8816114 25.3145938 27.5851105 24.9320661 28.068138L24.8364342 28.1754747 24.1735216 28.8383874C23.7272394 29.2846696 23.0237403 29.3165469 22.5407128 28.9340193L22.433376 28.8383874 20.9003906 27.305402 19.3674052 28.8383874C18.921123 29.2846696 18.2176239 29.3165469 17.7345964 28.9340193L17.6272596 28.8383874 16.964347 28.1754747C16.5180648 27.7291925 16.4861875 27.0256934 16.8687151 26.5426659L16.964347 26.4353292 18.4973324 24.9023437 16.964347 23.3693583C16.5180648 22.9230761 16.4861875 22.219577 16.8687151 21.7365495L16.964347 21.6292128 17.6272596 20.9663001C18.0735419 20.5200179 18.777041 20.4881406 19.2600685 20.8706682L19.3674052 20.9663001 20.9003906 22.4992855 22.433376 20.9663001 20.9003906 22.4992855Z"/>
	</svg>
	