<?xml version="1.0"?>
	<svg xmlns="http://www.w3.org/2000/svg" 
		width="30" 
		height="30" 
		viewbox="0 0 30 30" 
		code="80969" 
		 transform=""
		><path d="M13.6666667 23L16.3333333 23C17.0666667 23 17.6666667 22.4 17.6666667 21.6666667 17.6666667 20.9333333 17.0666667 20.3333333 16.3333333 20.3333333L13.6666667 20.3333333C12.93333333 20.3333333 12.33333333 20.9333333 12.33333333 21.6666667 12.33333333 22.4 12.93333333 23 13.6666667 23ZM3 8.33333333C3 9.06666667 3.6 9.66666667 4.33333333 9.66666667L25.6666667 9.66666667C26.4 9.66666667 27 9.06666667 27 8.33333333 27 7.6 26.4 7 25.6666667 7L4.33333333 7C3.6 7 3 7.6 3 8.33333333ZM8.33333333 16.333333330000002L21.6666667 16.333333330000002C22.4 16.333333330000002 23 15.73333333 23 15 23 14.26666667 22.4 13.66666667 21.6666667 13.66666667L8.33333333 13.66666667C7.6 13.66666667 7 14.26666667 7 15 7 15.73333333 7.6 16.333333330000002 8.33333333 16.333333330000002Z"/>
	</svg>
	