<?xml version="1.0"?>
	<svg xmlns="http://www.w3.org/2000/svg" 
		width="30" 
		height="30" 
		viewbox="0 0 30 30" 
		code="80970" 
		 transform=""
		><path d="M6.66631952 5C7.58279525 5 8.33263903 5.74984378 8.33263903 6.66631952L8.33263903 23.3295147C8.33263903 24.2459904 7.58279525 24.9958342 6.66631952 24.9958342 5.74984378 24.9958342 5 24.2459904 5 23.3295147L5 6.66631952C5 5.74984378 5.74984378 5 6.66631952 5ZM14.5146844 13.8148302L22.163091 6.16642366C22.8129556 5.51655905 23.8627369 5.51655905 24.5126015 6.16642366 25.1191418 6.77296397 25.1595779 7.72787614 24.6339096 8.38086602L24.5126015 8.51593418 18.0306186 14.9979171 24.4959383 21.4799C25.145803 22.1131014 25.145803 23.1795459 24.5126015 23.8127473 23.9060612 24.4192876 22.9511491 24.4597237 22.2981592 23.9340554L22.163091 23.8127473 14.5146844 16.1643408C13.9081441 15.5578005 13.8677081 14.6028883 14.3933764 13.9498984L14.5146844 13.8148302 22.163091 6.16642366 14.5146844 13.8148302Z"/>
	</svg>
	