<?xml version="1.0"?>
	<svg xmlns="http://www.w3.org/2000/svg" 
		width="30" 
		height="30" 
		viewbox="0 0 30 30" 
		code="80973" 
		 transform=""
		><path d="M1.875 8.70588235L8.47375 8.70588235C9.22858333 8.70588235 9.90175 9.149226670000001 10.1954752 9.823999579999999L10.2525 9.97205882 10.93375 11.98929412C11.008125 12.210875 11.2002148 12.36814338 11.4271167 12.40399828L11.52625 12.41176471 28.125 12.41176471C29.15875 12.41176471 30 13.24311765 30 14.26470588 30 15.0472647 29.8775 15.8165827 29.6341748 16.5569365L29.5225 16.872411800000002 26.81875 23.9963529C26.3865 25.1346765 25.3033219 25.9184768 24.0857841 25.994011L23.8925 26 6.23625 26C4.90823864 26 3.75220816 25.1941084 3.30196199 23.9755504L3.2425 23.7987059 0.745 15.5728824C0.25125 13.94476471 0 12.25735294 0 10.55882353 0 9.58588235 0.763038549 8.7854902 1.728701 8.711468589999999L1.875 8.70588235 8.47375 8.70588235 1.875 8.70588235ZM5.625 4.999999999999919L24.375 4.999999999999919C26.0381034 4.999999999999919 27.4028954 6.29206183 27.4950414 7.91331392L27.5 8.08823529 27.5 10.55882353C27.5 10.86877005 27.268595 11.12562956 26.9673178 11.16976974L26.875 11.176470590000001 12.42625 11.176470590000001C12.1910937 11.176470590000001 11.9789062 11.04595404 11.8717529 10.8445046L11.8325 10.754 11.4375 9.580470590000001C11.0315476 8.37929412 9.93171769 7.55234734 8.66495114 7.4763142600000005L8.47375 7.47058824 3.47125 7.47058824C3.2475 7.47058824 3.04125 7.352 2.93 7.1605294100000005 2.81875 6.97029412 2.81875 6.7331176500000005 2.93125 6.54288235 3.45742187 5.651154412 4.39777832 5.0753674173 5.41963959 5.00687735524L5.625 4.999999999999919 24.375 4.999999999999919 5.625 4.999999999999919Z"/>
	</svg>
	