<?xml version="1.0"?>
	<svg xmlns="http://www.w3.org/2000/svg" 
		width="30" 
		height="30" 
		viewbox="0 0 30 30" 
		code="80977" 
		 transform=""
		><path d="M12.8571429 15L12.8571429 30 6.42857143 30C4.13035714 30 2.25606154 28.1932989 2.14779693 25.9220091L2.14285714 25.7142857 2.14285714 15 12.8571429 15ZM27.8571429 15L27.8571429 25.7142857C27.8571429 28.0125 26.0504418 29.8867956 23.779152 29.9950602L23.5714286 30 17.1428571 30 17.1428571 15 27.8571429 15ZM4.28571429 1.50990331e-14L10.7142857 1.50990331e-14C13.0821429 1.50990331e-14 15 1.91785714 15 4.28571429 15 1.9875 16.8067011 0.113204399 19.0779909 0.00493979166L19.2857143 1.50990331e-14 25.7142857 1.50990331e-14 25.7142857 2.14285714C25.7142857 3.69983193 25.1448344 5.11254572 24.2221 6.22378529L24.045 6.42857143 27.8571429 6.42857143C28.9885714 6.42857143 29.9161005 7.30690791 29.9946164 8.41846728L30 8.57142857 30 12.8571429 0 12.8571429 0 8.57142857C0 7.44 0.878336484 6.51247097 1.98989585 6.43395508L2.14285714 6.42857143 5.955 6.42857143C4.98894958 5.35563025 4.36267177 3.97138903 4.29233477 2.43306098L4.28571429 2.14285714 4.28571429 1.50990331e-14 10.7142857 1.50990331e-14 4.28571429 1.50990331e-14ZM10.7142857 2.14285714L6.42857143 2.14285714C6.42857143 4.43691176 8.23930981 6.31512234 10.5069185 6.42362084L10.7142857 6.42857143 12.8571429 6.42857143 12.8571429 4.28571429C12.8571429 3.1563354 11.9768458 2.22693492 10.8669913 2.14825242L10.7142857 2.14285714ZM23.5714286 2.14285714L19.2857143 2.14285714C18.1563354 2.14285714 17.2269349 3.0231542 17.1482524 4.13300872L17.1428571 4.28571429 17.1428571 6.42857143 19.2857143 6.42857143C21.5797689 6.42857143 23.4579795 4.61783304 23.566478 2.35022431L23.5714286 2.14285714Z"/>
	</svg>
	