<?xml version="1.0"?>
	<svg xmlns="http://www.w3.org/2000/svg" 
		width="30" 
		height="30" 
		viewbox="0 0 30 30" 
		code="80978" 
		 transform=""
		><path d="M14.5131451 29C21.9138267 29 28 22.9006816 28 15.5 28 8.0993184 21.9006816 2 14.5 2 7.0993184 2 1 8.0993184 1 15.5 1 22.9006816 7.11246349 29 14.5131451 29ZM10.687926 9.12463486C11.4371957 7.16601753 12.5019474 5.73320351 13.6587147 5.25998053L13.6587147 9.42697176C12.6071081 9.38753651 11.6080818 9.28237585 10.687926 9.12463486ZM15.3412853 5.25998053C16.4980526 5.73320351 17.5628043 7.16601753 18.312074 9.12463486 17.3919182 9.28237585 16.406037 9.38753651 15.3412853 9.42697176L15.3412853 5.25998053ZM18.4829601 5.86465433C19.7185979 6.36416748 20.8227848 7.10029211 21.7692308 8.02044791 21.2434275 8.28334956 20.6518987 8.51996105 20.0077897 8.71713729 19.587147 7.61295034 19.0744888 6.6533593 18.4829601 5.86465433ZM7.24391431 8.02044791C8.17721519 7.10029211 9.29454722 6.36416748 10.5170399 5.86465433 9.9255112 6.6533593 9.41285297 7.61295034 8.99221032 8.71713729 8.34810127 8.51996105 7.75657254 8.28334956 7.24391431 8.02044791ZM21.1514119 14.6455696C21.0856865 13.0813048 20.8622201 11.6090555 20.5204479 10.2945472 21.4011685 10.0185005 22.2030185 9.67672833 22.8734177 9.29552093 24.0038948 10.8072055 24.7137293 12.647517 24.8846154 14.6455696L21.1514119 14.6455696ZM4.1285297 14.6455696C4.28627069 12.647517 5.00925024 10.8072055 6.12658228 9.29552093 6.7969815 9.67672833 7.59883155 10.0185005 8.49269718 10.2945472 8.13777994 11.6090555 7.91431353 13.0813048 7.84858812 14.6455696L4.1285297 14.6455696ZM9.57059396 14.6455696C9.63631938 13.2653359 9.8466407 11.9245375 10.1752678 10.7151899 11.2531646 10.9255112 12.436222 11.0701071 13.6587147 11.1095424L13.6587147 14.6455696 9.57059396 14.6455696ZM15.3412853 14.6455696L15.3412853 11.1095424C16.563778 11.0701071 17.7468354 10.9255112 18.8247322 10.7151899 19.1533593 11.9245375 19.3636806 13.2653359 19.429406 14.6455696L15.3412853 14.6455696ZM4.1285297 16.3281402L7.84858812 16.3281402C7.90116845 17.9186952 8.12463486 19.4040896 8.49269718 20.744888 7.61197663 21.0209348 6.82327167 21.3495618 6.15287244 21.7307692 5.00925024 20.2059396 4.28627069 18.352483 4.1285297 16.3281402ZM9.57059396 16.3281402L13.6587147 16.3281402 13.6587147 19.9298929C12.436222 19.9693281 11.2531646 20.1139241 10.1752678 20.3242454 9.8466407 19.0886076 9.63631938 17.7346641 9.57059396 16.3281402ZM15.3412853 19.9298929L15.3412853 16.3281402 19.429406 16.3281402C19.3768257 17.7346641 19.1533593 19.0886076 18.8247322 20.3242454 17.7468354 20.1139241 16.563778 19.9693281 15.3412853 19.9298929ZM20.5204479 20.744888C20.8753651 19.4040896 21.0988315 17.9186952 21.1514119 16.3281402L24.8846154 16.3281402C24.7268744 18.352483 24.0038948 20.2059396 22.8602726 21.7307692 22.1898734 21.3495618 21.4011685 21.0209348 20.5204479 20.744888ZM10.687926 21.9148004C11.6080818 21.7570594 12.593963 21.6518987 13.6587147 21.6124635L13.6587147 25.7794547C12.5019474 25.3062317 11.4371957 23.8602726 10.687926 21.9148004ZM15.3412853 21.6124635C16.406037 21.6518987 17.3919182 21.7570594 18.312074 21.9148004 17.5628043 23.8602726 16.4980526 25.3062317 15.3412853 25.7794547L15.3412853 21.6124635ZM7.27020448 23.0058423C7.78286271 22.7429406 8.36124635 22.5063291 8.99221032 22.322298 9.39970789 23.3870497 9.89922103 24.3334956 10.4644596 25.1090555 9.26825706 24.5963973 8.19036027 23.8865628 7.27020448 23.0058423ZM20.0077897 22.322298C20.6518987 22.5063291 21.2302824 22.7429406 21.7429406 23.0058423 20.8227848 23.8997079 19.7317429 24.6095424 18.5223953 25.1090555 19.100779 24.3334956 19.6002921 23.3870497 20.0077897 22.322298Z"/>
	</svg>
	