<?xml version="1.0"?>
	<svg xmlns="http://www.w3.org/2000/svg" 
		width="30" 
		height="30" 
		viewbox="0 0 30 30" 
		code="80982" 
		 transform=""
		><path d="M25 2.5L5 2.5C3.625 2.5 2.5 3.625 2.5 5L2.5 25C2.5 26.375 3.625 27.5 5 27.5L25 27.5C26.375 27.5 27.5 26.375 27.5 25L27.5 5C27.5 3.625 26.375 2.5 25 2.5ZM10 25L6.25 25C5.5625 25 5 24.4375 5 23.75L5 20 10 20 10 25ZM10 17.5L5 17.5 5 12.5 10 12.5 10 17.5ZM10 10L5 10 5 6.25C5 5.5625 5.5625 5 6.25 5L10 5 10 10ZM17.5 25L12.5 25 12.5 20 17.5 20 17.5 25ZM17.5 17.5L12.5 17.5 12.5 12.5 17.5 12.5 17.5 17.5ZM17.5 10L12.5 10 12.5 5 17.5 5 17.5 10ZM23.75 25L20 25 20 20 25 20 25 23.75C25 24.4375 24.4375 25 23.75 25ZM25 17.5L20 17.5 20 12.5 25 12.5 25 17.5ZM25 10L20 10 20 5 23.75 5C24.4375 5 25 5.5625 25 6.25L25 10Z"/>
	</svg>
	