<?xml version="1.0"?>
	<svg xmlns="http://www.w3.org/2000/svg" 
		width="30" 
		height="30" 
		viewbox="0 0 30 30" 
		code="80984" 
		 transform=""
		><path d="M14.7893432 0C22.9730245 0 29.6153846 6.69144981 29.6153846 14.9814126 29.6153846 23.2713755 22.9730245 30 14.7893432 30 6.605662 30 0 23.2713755 0 14.9814126 0 6.69144981 6.605662 0 14.7893432 0ZM8.07358688 16.8773234L10.7525498 12.7881041C11.0461348 12.3048327 11.7800972 12.3791822 11.9635878 12.8996283L14.2021733 18.2899628 16.9545325 8.32713755C17.1380231 7.69516729 18.018778 7.62081784 18.2756649 8.2527881L21.6518921 16.8773234 25.6886855 16.8773234C26.6428367 16.8773234 26.6428367 18.66171 25.6886855 18.66171 24.1106663 18.66171 22.532647 18.66171 20.9546278 18.66171 20.6610428 18.66171 20.4041559 18.4758364 20.2940616 18.2156134 19.4500048 16.0594796 18.6426461 13.9405204 17.7985893 11.8215613L15.0829282 21.6356877C14.8994376 22.3048327 14.0186827 22.3420074 13.7617958 21.7472119L11.119531 15.3903346 9.21122867 18.3271375C9.06443618 18.5130112 8.84424745 18.66171 8.62405872 18.66171L3.92669908 18.66171C2.9725479 18.66171 2.9725479 16.8773234 3.92669908 16.8773234L8.07358688 16.8773234Z"/>
	</svg>
	