<?xml version="1.0"?>
	<svg xmlns="http://www.w3.org/2000/svg" 
		width="30" 
		height="30" 
		viewbox="0 0 30 30" 
		code="80987" 
		 transform=""
		><path d="M14.9876442 6.04118616C15.1112026 6.04118616 15.247117 6.09060956 15.3583196 6.20181219L26.0461285 15.8640857 26.0461285 24.8467875C26.0461285 26.6136738 24.9341021 27.6886326 23.0930807 27.6886326L18.2001647 27.6886326 18.2001647 18.7800659C18.2001647 18.199341 17.8294893 17.8286656 17.2487644 17.8286656L12.7759473 17.8286656C12.1952224 17.8286656 11.8121911 18.199341 11.8121911 18.7800659L11.8121911 27.6886326 6.90691928 27.6886326C5.07825371 27.6886326 3.9538715 26.6136738 3.9538715 24.8467875L3.9538715 15.9135091 14.6046129 6.21416804C14.7281713 6.09060956 14.8517298 6.04118616 14.9876442 6.04118616ZM22.1540362 1L24.1556837 1C24.6719816 1 25.0178193 1.30895925 25.0645905 1.78837878L25.0700165 1.90197694 25.0700165 9.35255354 29.5428336 13.4299835C29.8640857 13.7265239 30 14.0354201 30 14.4431631 30 15.1350906 29.4439868 15.6046129 28.7273476 15.6046129 28.3705725 15.6046129 28.0610971 15.4627137 27.7989214 15.2368574L15.3953871 3.90362438C15.2718287 3.79242175 15.1359143 3.74299835 15 3.74299835 14.8912685 3.74299835 14.7904448 3.77462932 14.6912026 3.84421746L14.6169687 3.90362438 2.31054366 15.1350906C2.01400329 15.4192751 1.68039539 15.6046129 1.27265239 15.6046129 0.55601318 15.6046129 0 15.1350906 0 14.4431631 0 14.086388 0.104059411 13.8052924 0.345288046 13.5419343L0.457166392 13.4299835 13.2454695 1.77841845C13.776771 1.29654036 14.3698517 1.04942339 15 1.04942339 15.5671334 1.04942339 16.1042422 1.2395799 16.5933114 1.63790774L16.7545305 1.77841845 21.2273476 5.86820428 21.2273476 1.90197694C21.2273476 1.39715227 21.5469606 1.05213412 22.0377949 1.00542144L22.1540362 1 24.1556837 1 22.1540362 1Z"/>
	</svg>
	