<?xml version="1.0"?>
	<svg xmlns="http://www.w3.org/2000/svg" 
		width="30" 
		height="30" 
		viewbox="0 0 30 30" 
		code="80988" 
		 transform=""
		><path d="M24.3320782 1L4.79150978 1C3.24222185 1 2 2.2561794 2 3.79150978L2 23.3320782C2 24.8674086 3.2561794 26.123588 4.79150978 26.123588L10.3745293 26.123588 13.570808 29.3198667C14.1151524 29.8642111 14.994478 29.8642111 15.5388224 29.3198667L18.7490587 26.123588 24.3320782 26.123588C25.8674086 26.123588 27.123588 24.8674086 27.123588 23.3320782L27.123588 3.79150978C27.123588 2.2561794 25.8674086 1 24.3320782 1ZM15.9575489 23.3320782L13.1660391 23.3320782 13.1660391 20.5405684 15.9575489 20.5405684 15.9575489 23.3320782ZM18.8467615 12.5149778L17.5905821 13.7990723C16.7810443 14.6225677 16.2087848 15.3344027 16.0273366 16.6743274 15.9435913 17.274502 15.4550771 17.7351011 14.840945 17.7351011L14.408261 17.7351011C13.6824684 17.7351011 13.1241665 17.0930539 13.2218693 16.3672613 13.3754023 15.0971244 13.9616194 13.9665629 14.8130299 13.1011949L16.5437659 11.3425437C17.0462377 10.840072 17.3533038 10.1421945 17.3533038 9.37452933 17.3533038 7.83919896 16.0971244 6.58301956 14.561794 6.58301956 13.3474872 6.58301956 12.3006711 7.37859984 11.9238173 8.46728866 11.7423691 8.98371796 11.3096851 9.36057178 10.7653407 9.36057178L10.3466142 9.36057178C9.5370764 9.36057178 8.97877444 8.57894905 9.20209523 7.79732631 9.88601512 5.48037319 12.0215201 3.79150978 14.561794 3.79150978 17.6464123 3.79150978 20.1448136 6.28991103 20.1448136 9.37452933 20.1448136 10.6027936 19.6423418 11.7193975 18.8467615 12.5149778Z"/>
	</svg>
	