<?xml version="1.0"?>
	<svg xmlns="http://www.w3.org/2000/svg" 
		width="30" 
		height="30" 
		viewbox="0 0 30 30" 
		code="80994" 
		 transform=""
		><path d="M23.75 16.475L23.75 19.9875C23.75 20.8391667 23.3144444 21.6363889 22.6059407 22.0946037L22.45 22.1875 16.2 25.6C15.5076923 25.9807692 14.687574 26.0100592 13.9756031 25.6878698L13.8 25.6 7.55 22.1875C6.80333333 21.7791667 6.318 21.0115 6.25660741 20.169063L6.25 19.9875 6.25 16.475 13.8 20.6C14.4923077 20.9807692 15.312426 21.0100592 16.0243969 20.6878698L16.2 20.6 23.75 16.475ZM3.2625 10.15L13.8 4.4C14.4923077 4.03076923 15.312426 4.00236686 16.0243969 4.3147929L16.2 4.4 28.1 10.8875C28.46 11.09 28.6985 11.444375 28.7426 11.8503875L28.75 11.9875 28.75 20C28.75 20.6875 28.1875 21.25 27.5 21.25 26.8554688 21.25 26.3208008 20.7556152 26.256485 20.1273346L26.25 20 26.25 12.6125 16.2 18.1C15.5076923 18.4807692 14.687574 18.5100592 13.9756031 18.1878698L13.8 18.1 3.2625 12.35C2.44107143 11.897619 2.40195578 10.7422902 3.14515306 10.2229619L3.2625 10.15 13.8 4.4 3.2625 10.15Z"/>
	</svg>
	