<?xml version="1.0"?>
	<svg xmlns="http://www.w3.org/2000/svg" 
		width="30" 
		height="30" 
		viewbox="0 0 30 30" 
		code="80997" 
		 transform=""
		><path d="M4.60845588 20.5565257L6.57306985 20.5565257C7.44623162 20.5565257 8.18152574 21.2688419 8.18152574 22.1649816 8.18152574 22.9896344 7.52566154 23.6913126 6.71721782 23.7667317L6.57306985 23.7734375 4.60845588 23.7734375C3.72380515 23.7734375 3 23.0381434 3 22.1649816 3 21.3186275 3.64561632 20.6362393 4.46259993 20.5630306L4.60845588 20.5565257ZM26.3800551 20.7403493C27.1842831 20.7403493 27.8046875 21.3722426 27.8046875 22.1649816 27.8046875 22.9577206 27.1727941 23.589614 26.3800551 23.589614L11.9613971 23.589614C11.1571691 23.589614 10.5252757 22.9577206 10.5252757 22.1649816 10.5252757 21.3607537 11.1571691 20.7403493 11.9613971 20.7403493L26.3800551 20.7403493ZM6.57306985 13.2725184C7.44623162 13.2725184 8.18152574 13.9963235 8.18152574 14.8809743 8.18152574 15.7164777 7.52566154 16.4085109 6.71721782 16.4828248L6.57306985 16.4894301 4.60845588 16.4894301C3.72380515 16.4894301 3 15.765625 3 14.8809743 3 14.0454708 3.64561632 13.3534376 4.46259993 13.2791238L4.60845588 13.2725184 6.57306985 13.2725184ZM26.3800551 13.4563419C27.1842831 13.4563419 27.8046875 14.0882353 27.8046875 14.8809743 27.8046875 15.6378947 27.244948 16.2319818 26.5181847 16.2992553L26.3800551 16.3056066 11.9613971 16.3056066C11.1571691 16.3056066 10.5252757 15.6737132 10.5252757 14.8809743 10.5252757 14.1240538 11.0850152 13.5299667 11.821357 13.4626932L11.9613971 13.4563419 26.3800551 13.4563419ZM6.57306985 6C7.44623162 6 8.18152574 6.71231618 8.18152574 7.60845588 8.18152574 8.43310866 7.52566154 9.1347869 6.71721782 9.21020593L6.57306985 9.21691176 4.60845588 9.21691176C3.72380515 9.21691176 3 8.48161765 3 7.60845588 3 6.76210172 3.64561632 6.0797136 4.46259993 6.0065049L4.60845588 6 6.57306985 6ZM26.3800551 6.18382353C27.1842831 6.18382353 27.8046875 6.81571691 27.8046875 7.60845588 27.8046875 8.35456315 27.244948 8.95819128 26.5181847 9.02662467L26.3800551 9.03308824 11.9613971 9.03308824C11.1571691 9.03308824 10.5252757 8.40119485 10.5252757 7.60845588 10.5252757 6.85153547 11.0850152 6.25744835 11.821357 6.19017485L11.9613971 6.18382353 26.3800551 6.18382353Z"/>
	</svg>
	