<?xml version="1.0"?>
	<svg xmlns="http://www.w3.org/2000/svg" 
		width="30" 
		height="30" 
		viewbox="0 0 30 30" 
		code="80998" 
		 transform=""
		><path d="M7.5 18.75C8.14453125 18.75 8.67919922 19.2443848 8.74351501 19.8726654L8.75 20 8.75 22.5C8.75 23.1445312 8.25561523 23.6791992 7.62733459 23.743515L7.5 23.75 5 23.75C4.35546875 23.75 3.82080078 23.2556152 3.75648499 22.6273346L3.75 22.5 3.75 20C3.75 19.3554688 4.24438477 18.8208008 4.87266541 18.756485L5 18.75 7.5 18.75ZM23.75 18.75C24.3945313 18.75 24.9291992 19.2443848 24.993515 19.8726654L25 20 25 22.5C25 23.1445312 24.5056152 23.6791992 23.8773346 23.743515L23.75 23.75 11.25 23.75C10.6054687 23.75 10.0708008 23.2556152 10.006485 22.6273346L10 22.5 10 20C10 19.3554688 10.4943848 18.8208008 11.1226654 18.756485L11.25 18.75 23.75 18.75ZM7.5 12.5C8.14453125 12.5 8.67919922 12.9943848 8.74351501 13.6226654L8.75 13.75 8.75 16.25C8.75 16.8945312 8.25561523 17.4291992 7.62733459 17.493515L7.5 17.5 5 17.5C4.35546875 17.5 3.82080078 17.0056152 3.75648499 16.3773346L3.75 16.25 3.75 13.75C3.75 13.1054687 4.24438477 12.5708008 4.87266541 12.506485L5 12.5 7.5 12.5ZM23.75 12.5C24.3945313 12.5 24.9291992 12.9943848 24.993515 13.6226654L25 13.75 25 16.25C25 16.8945312 24.5056152 17.4291992 23.8773346 17.493515L23.75 17.5 11.25 17.5C10.6054687 17.5 10.0708008 17.0056152 10.006485 16.3773346L10 16.25 10 13.75C10 13.1054687 10.4943848 12.5708008 11.1226654 12.506485L11.25 12.5 23.75 12.5ZM5 6.25L7.5 6.25C8.14453125 6.25 8.67919922 6.74438477 8.74351501 7.37266541L8.75 7.5 8.75 10C8.75 10.6445312 8.25561523 11.1791992 7.62733459 11.243515L7.5 11.25 5 11.25C4.35546875 11.25 3.82080078 10.7556152 3.75648499 10.1273346L3.75 10 3.75 7.5C3.75 6.85546875 4.24438477 6.32080078 4.87266541 6.25648499L5 6.25ZM11.25 6.25L23.75 6.25C24.3945313 6.25 24.9291992 6.74438477 24.993515 7.37266541L25 7.5 25 10C25 10.6445312 24.5056152 11.1791992 23.8773346 11.243515L23.75 11.25 11.25 11.25C10.6054687 11.25 10.0708008 10.7556152 10.006485 10.1273346L10 10 10 7.5C10 6.85546875 10.4943848 6.32080078 11.1226654 6.25648499L11.25 6.25Z"/>
	</svg>
	