<?xml version="1.0"?>
	<svg xmlns="http://www.w3.org/2000/svg" 
		width="30" 
		height="30" 
		viewbox="0 0 30 30" 
		code="80999" 
		 transform=""
		><path d="M18.609375 16.1101974C23.7743056 16.5172697 28.6354167 18.9226974 28.6354167 22.3396382 28.6354167 25.9662829 23.2638889 28.7171053 14.8177083 28.7171053 6.37152778 28.7171053 1 25.9662829 1 22.3396382 1 18.9226974 5.86111111 16.5172697 11.0260417 16.1101974L11.0260417 19.0213816C7.64756944 19.3050987 4.32986111 20.5386513 4.32986111 22.2039474 4.32986111 24.3379934 8.70486111 25.7442434 14.8177083 25.7442434 20.9184028 25.7442434 25.3055556 24.3256579 25.3055556 22.2039474 25.3055556 20.5386513 21.9878472 19.3050987 18.609375 19.0213816L18.609375 16.1101974ZM14.8420139-1.95399252e-14C17.7829861-1.95399252e-14 20.1284722 2.43009868 20.1284722 5.390625 20.1284722 7.72779605 18.6635359 9.73068805 16.6008904 10.4744623L16.3854167 10.546875 16.3854167 18.2935855C16.3854167 21.0320724 15.4496528 23.2524671 14.8420139 23.2524671 14.2539763 23.2524671 13.3472602 21.1614606 13.2893742 18.5558079L13.2864583 18.2935855 13.2864583 10.5345395C11.1232639 9.85608553 9.55555556 7.80838816 9.55555556 5.390625 9.55555556 2.43009868 11.9131944-1.95399252e-14 14.8420139-1.95399252e-14ZM13.3472222 2.02302632C12.3871528 2.02302632 11.5364583 2.86184211 11.5364583 3.86101974 11.5364583 4.84786184 12.3871528 5.71134868 13.3472222 5.71134868 14.34375 5.71134868 15.1579861 4.84786184 15.1579861 3.86101974 15.1579861 2.86184211 14.34375 2.02302632 13.3472222 2.02302632Z"/>
	</svg>
	