<?xml version="1.0"?>
	<svg xmlns="http://www.w3.org/2000/svg" 
		width="30" 
		height="30" 
		viewbox="0 0 30 30" 
		code="81001" 
		 transform=""
		><path d="M24.5242424 14.6909091C25.4480642 14.6909091 26.1969752 15.4398146 26.1969752 16.3636364L26.1969752 28.3242424C26.1977743 28.7684021 26.0218964 29.1946457 25.7081119 29.5089986 25.3943274 29.8233516 24.9684028 30 24.5242424 30L5.9 30C5.45583961 30 5.02991501 29.8233516 4.71613054 29.5089986 4.40234607 29.1946457 4.22646809 28.7684021 4.22726725 28.3242424L4.22726725 16.3636364C4.22726725 15.4398146 4.97617824 14.6909091 5.9 14.6909091L24.5242424 14.6909091ZM15.5 20C14.1192881 20 13 21.1192881 13 22.5 13 23.8807119 14.1192881 25 15.5 25 16.8807119 25 18 23.8807119 18 22.5 18 21.1192881 16.8807119 20 15.5 20ZM19.1985749 1.20522605C21.5248968 2.56891065 22.9632351 5.04498303 23.0065743 7.7278248L23.0060606 12.7272727C23.0060658 12.9955418 22.789476 13.2134852 22.5212121 13.2151515L20.3818182 13.2151515C20.1123702 13.2151515 19.8939394 12.9967207 19.8939394 12.7272727L19.8939394 8.04242424C19.942896 6.3740874 19.0831426 4.81044924 17.648173 3.95803689 16.2132034 3.10562453 14.4288014 3.09855993 12.9871273 3.93958339 11.6109839 4.74237852 10.7538051 6.19734166 10.709812 7.77926465L10.7090909 12.7272727C10.7090961 12.9955418 10.4925063 13.2134852 10.2242424 13.2151515L8.08484848 13.2151515C7.81540047 13.2151515 7.5969697 12.9967207 7.5969697 12.7272727L7.5969697 8.00606061C7.54165532 5.21706934 8.99791552 2.61593426 11.4044554 1.20522605 13.8109953-0.205482168 16.792035-0.205482168 19.1985749 1.20522605Z"/>
	</svg>
	