<?xml version="1.0"?>
	<svg xmlns="http://www.w3.org/2000/svg" 
		width="30" 
		height="30" 
		viewbox="0 0 30 30" 
		code="81002" 
		 transform=""
		><path d="M3.82909091 10.6785955C4.22181818 9.70405006 5.47272727 9.44223187 6.21454545 10.1840501 6.60727273 10.5767773 6.76727273 11.173141 6.54909091 11.6967773 6.12727273 12.7004137 5.90909091 13.8204137 5.90909091 14.9695046 5.90909091 19.6965129 9.68083065 23.5541982 14.3746645 23.692915L14.6363636 23.6967773 14.6363636 21.093141C14.6363636 20.4749591 15.3369697 20.1551836 15.7946702 20.5014163L15.8727273 20.5695046 19.9309091 24.6276864C20.1953719 24.8921492 20.219414 25.2888434 20.0030353 25.5773483L19.9309091 25.6604137 15.8727273 29.7185955C15.4468687 30.1581915 14.7226038 29.8971814 14.6434443 29.3154206L14.6363636 29.2095046 14.6363636 26.6058682C8.20727273 26.6058682 3 21.3985955 3 14.9695046 3 13.4567773 3.29090909 12.0022319 3.82909091 10.6785955ZM9.32727273 4.27859551L13.4 0.220413692C13.8258586-0.219182268 14.5501235 0.041827833 14.629283 0.623588651L14.6363636 0.729504601 14.6363636 3.33314096C21.0654545 3.33314096 26.2727273 8.54041369 26.2727273 14.9695046 26.2727273 16.4822319 25.9818182 17.9367773 25.4436364 19.2604137 25.0509091 20.2349591 23.8 20.4967773 23.0581818 19.7549591 22.6654545 19.3622319 22.5054545 18.7658682 22.7236364 18.2422319 23.1454545 17.2385955 23.3636364 16.1185955 23.3636364 14.9695046 23.3636364 10.2424963 19.5918966 6.38481099 14.8980627 6.24609417L14.6363636 6.24223187 14.6363636 8.84586824C14.6363636 9.46405006 13.9357576 9.78382559 13.4658037 9.43759289L13.3854545 9.3695046 9.32727273 5.31132278C9.06280992 5.04685997 9.03876784 4.65016576 9.25514651 4.36166087L9.32727273 4.27859551 13.4 0.220413692 9.32727273 4.27859551Z"/>
	</svg>
	