<?xml version="1.0"?>
	<svg xmlns="http://www.w3.org/2000/svg" 
		width="30" 
		height="30" 
		viewbox="0 0 30 30" 
		code="81003" 
		 transform=""
		><path d="M12.4766355 0C19.3302181 0 24.9376947 5.62305296 24.9376947 12.4766355 24.9376947 14.8422897 24.2805685 17.0573525 23.1203301 18.942141L22.8816199 19.3146417 29.2367601 25.6853583C29.7663551 26.2149533 30 26.8847352 30 27.5856698 30 29.0809969 28.8629283 30.2647975 27.3520249 30.2647975 26.7151263 30.2647975 26.090535 30.067882 25.5985881 29.6631112L25.4205607 29.5015576 19.0031153 23.0841121C17.1028037 24.2679128 14.8598131 24.953271 12.4766355 24.953271 5.62305296 24.953271 0 19.3302181 0 12.4766355 0 5.62305296 5.62305296 0 12.4766355 0ZM12.4766355 3.80062305C7.69470405 3.80062305 3.78504673 7.71028037 3.78504673 12.4766355 3.78504673 17.2429907 7.69470405 21.152648 12.4766355 21.152648 17.2429907 21.152648 21.152648 17.2429907 21.152648 12.4766355 21.152648 7.71028037 17.2429907 3.80062305 12.4766355 3.80062305Z"/>
	</svg>
	