<?xml version="1.0"?>
	<svg xmlns="http://www.w3.org/2000/svg" 
		width="30" 
		height="30" 
		viewbox="0 0 30 30" 
		code="81004" 
		 transform=""
		><path d="M23.0082652 15.9507254L23.0812726 15.9586566 25.4360263 16.5022944C25.5586697 16.5306088 25.6459281 16.6282614 25.6689546 16.7414593L25.6748319 16.8108131 25.545168 18.3796239C25.789203 18.551345 26.0123863 18.7454007 26.2145919 18.9566714L26.4098001 19.1734908 28.0085302 18.9362699C28.1288269 18.918795 28.2469026 18.97622 28.3090513 19.0769434L28.3391996 19.1423205 29.0583831 21.3987929C29.0954617 21.5179583 29.0543629 21.6400229 28.9634261 21.7121769L28.9031102 21.7490576 27.4391857 22.4095462C27.4204182 22.5982694 27.3951025 22.7884975 27.3514651 22.9775121 27.3223734 23.1035219 27.2857265 23.2264467 27.2450127 23.3470919L27.181328 23.5264508 28.204612 24.7611566C28.2807407 24.8566586 28.2911194 24.9851613 28.233427 25.0867762L28.1906244 25.1440396 26.5550542 26.8568743C26.4700405 26.9453387 26.341775 26.9693529 26.2312338 26.9290293L26.1675238 26.8971154 24.8345856 25.9830655C24.5675343 26.102402 24.2891329 26.1953631 24.000902 26.2610274L23.709451 26.3175586 23.1382708 27.7844373C23.0927519 27.8920748 22.9843705 27.9642513 22.8643388 27.9656575L22.7913314 27.9577262 20.4365778 27.4140885C20.3139344 27.385774 20.226676 27.2881215 20.2053529 27.1753168L20.2007156 27.1062493 20.3303796 25.5374385C20.0863445 25.3657174 19.8631612 25.1716617 19.6609557 24.960391L19.4657474 24.7435716 17.8670173 24.9807925C17.7467207 24.9982674 17.6286449 24.9408424 17.5664962 24.840119L17.5363479 24.7747419 16.8171645 22.5182695C16.7800858 22.3991041 16.8211846 22.2770395 16.9121214 22.2048855L16.9724373 22.1680048 18.4334183 21.5068367C18.4521859 21.3181134 18.4775015 21.1278853 18.521139 20.9388707 18.5502307 20.812861 18.5868776 20.6899362 18.6275914 20.5692909L18.6912761 20.3899321 17.667992 19.1552262C17.5918634 19.0597242 17.5814846 18.9312216 17.6391771 18.8296066L17.6819797 18.7723433 19.3175498 17.0595085C19.4025636 16.9710442 19.5308291 16.9470299 19.6413702 16.9873536L19.7050802 17.0192674 21.0380185 17.9333173C21.3050698 17.8139809 21.5834712 17.7210197 21.8717021 17.6553554L22.1631531 17.5988242 22.7343333 16.1319455C22.7798522 16.0243081 22.8882335 15.9521315 23.0082652 15.9507254ZM17.9560098 15.1984549L18.0705511 15.2699107 19.308919 16.1281548 16.5500087 18.8753208 17.7374287 20.058842 17.6815983 20.1847287 17.6316341 20.3135574 16.0836564 21.766576 17.0633861 25.4895489 17.6316341 25.7020709 17.6815983 25.8309116 17.7374286 25.9568102 16.8948754 27.1873325 2.28905695 27.1873325C0.95942805 27.24602 0.97317472 25.5340319 1.0109119 24.9133048L1.02325378 24.741931 1.02325378 19.1888296C1.02325378 18.8195812 1.18117473 18.4689106 1.45572417 18.2304062L1.56406651 18.1464077 5.70244395 15.2699107C6.14920647 14.9564019 6.74094312 14.9759917 7.18378288 15.2973459 8.5554045 16.2849212 10.1660984 16.8531453 11.8864856 16.8531453 13.6068967 16.8531453 15.2175667 16.2849212 16.5891883 15.2973459 16.9545311 15.0322287 17.4212331 14.9724999 17.8242543 15.1357541L17.9560098 15.1984549 17.9560098 15.1984549ZM23.2757889 19.6233666C22.114699 19.3553079 20.9588243 20.0775785 20.6907656 21.2386684 20.4227069 22.3997582 21.1449776 23.5556329 22.3060674 23.8236916 23.4671573 24.0917503 24.6230319 23.3694796 24.8910906 22.2083898 25.1591494 21.0473 24.4368787 19.8914253 23.2757889 19.6233666ZM11.8887579 6.33271213e-13C15.1541809 6.33271213e-13 17.8013407 2.01842022 17.8013407 6.17538286 17.8013407 10.3323455 15.1541809 13.7022235 11.8887579 13.7022235 8.62331106 13.7022235 5.9761512 10.3323455 5.9761512 6.17538286 5.9761512 2.01842026 8.6233111 6.33271213e-13 11.8887579 6.33271213e-13Z"/>
	</svg>
	