<?xml version="1.0"?>
	<svg xmlns="http://www.w3.org/2000/svg" 
		width="30" 
		height="30" 
		viewbox="0 0 30 30" 
		code="81005" 
		 transform=""
		><path d="M14.6261549 16.59375L26.3449049 23.34375C23.7199049 26.8125 19.4074049 29.15625 14.6261549 29.15625 9.97412787 29.15625 5.85460632 27.0262281 3.13111265 23.6297067L2.90740489 23.34375 14.6261549 16.59375ZM12.8449049 1.90070182e-13L12.8449049 13.5 1.12615489 20.25C0.376154894 18.46875 0.00115489365 16.59375 0.00115489365 14.53125-0.0925951064 7.03125 5.53240489 0.84375 12.8449049 1.90070182e-13ZM16.5011549 13.5L16.5011549 1.90070182e-13C23.7199049 0.84375 29.3449049 7.03125 29.3449049 14.53125 29.3449049 16.4350962 28.9454966 18.179179 28.3678908 19.8372354L28.2199049 20.25 16.5011549 13.5Z"/>
	</svg>
	