<?xml version="1.0"?>
	<svg xmlns="http://www.w3.org/2000/svg" 
		width="30" 
		height="30" 
		viewbox="0 0 30 30" 
		code="81009" 
		 transform=""
		><path d="M15 20C16.375 20 17.5 21.125 17.5 22.5 17.5 23.875 16.375 25 15 25 13.625 25 12.5 23.875 12.5 22.5 12.5 21.125 13.625 20 15 20ZM15 12.5C16.375 12.5 17.5 13.625 17.5 15 17.5 16.375 16.375 17.5 15 17.5 13.625 17.5 12.5 16.375 12.5 15 12.5 13.625 13.625 12.5 15 12.5ZM15 5C16.375 5 17.5 6.125 17.5 7.5 17.5 8.875 16.375 10 15 10 13.625 10 12.5 8.875 12.5 7.5 12.5 6.125 13.625 5 15 5Z"/>
	</svg>
	