<?xml version="1.0"?>
	<svg xmlns="http://www.w3.org/2000/svg" 
		width="30" 
		height="30" 
		viewbox="0 0 30 30" 
		code="81008" 
		 transform=""
		><path d="M10 15C10 16.375 8.875 17.5 7.5 17.5 6.125 17.5 5 16.375 5 15 5 13.625 6.125 12.5 7.5 12.5 8.875 12.5 10 13.625 10 15ZM17.5 14.999999999999998C17.5 16.375 16.375 17.5 15.000000000000002 17.5 13.625 17.5 12.5 16.375 12.5 15 12.5 13.625 13.625 12.5 15 12.5 16.375 12.499999999999998 17.5 13.624999999999998 17.5 14.999999999999998ZM25 14.999999999999998C25 16.375 23.875 17.5 22.5 17.5 21.125 17.5 20 16.375 20 14.999999999999998 20 13.624999999999998 21.125 12.499999999999998 22.5 12.499999999999998 23.875 12.499999999999998 25 13.624999999999998 25 14.999999999999998Z"/>
	</svg>
	