<?xml version="1.0"?>
	<svg xmlns="http://www.w3.org/2000/svg" 
		width="30" 
		height="30" 
		viewbox="0 0 30 30" 
		code="81017" 
		 transform=""
		><path d="M14.0177376 17.7713621L15.3256796 17.7713621C15.654473 17.7713621 15.9259321 18.0129309 15.972571 18.3285826L15.9796506 18.4253331 15.9796506 23.5923514 19.2962178 23.5928139C19.5626161 23.5937389 19.8012647 23.752838 19.900701599999998 23.996574 19.9901369 24.2106523 19.957408 24.4527046 19.822654200000002 24.6350468L19.7587149 24.7092821 15.134205699999999 29.3337913C14.904020899999999 29.5639761 14.546839 29.5877439 14.2905804 29.4030715L14.209211400000001 29.3337913 9.58608971 24.7106696C9.39831586 24.5228957 9.3423537 24.24216 9.44317809 23.9970365 9.47694038 23.9160995 9.52642758 23.8453374 9.58608971 23.7856753 9.68228912 23.6894758 9.80720036 23.6243562 9.94401072 23.6023932L10.0485869 23.5942014 13.3633041 23.5928139 13.3628416 18.4262581C13.3628416 18.0974646 13.604410399999999 17.8260055 13.920757 17.7786717L14.0177376 17.7713621 15.3256796 17.7713621 14.0177376 17.7713621ZM9.58470222 5.28347605L14.209211400000001 0.658966869C14.439396200000001 0.428782028 14.796578199999999 0.405014299 15.0514881 0.588338001L15.1323557 0.65711688 19.7573274 5.28208856C19.9432513 5.46801242 20.0010634 5.75059819 19.8983891 5.9938717 19.8664768 6.07665869 19.8169896 6.14742076 19.7573274 6.2070829 19.661127999999998 6.30328231 19.5359208 6.36810591 19.3992288 6.39018737L19.2948303 6.39855672 15.9801131 6.39994421 15.9805756 11.5665001C15.9805756 11.8952935 15.7390068 12.1667526 15.4212702 12.2126965L15.3238296 12.2195461 14.0158876 12.2195461C13.6870941 12.2195461 13.4156351 11.9779773 13.3689962 11.6623256L13.3619166 11.5655751 13.3619166 6.39855672 10.0453494 6.39809423C9.78080102 6.39901922 9.54215248 6.23992019 9.4408656 5.9943342 9.35143021 5.78025582 9.38557551 5.53961999 9.5206834 5.35763187L9.58470222 5.28347605 14.209211400000001 0.658966869 9.58470222 5.28347605Z"/>
	</svg>
	