<?xml version="1.0"?>
	<svg xmlns="http://www.w3.org/2000/svg" 
		width="30" 
		height="30" 
		viewbox="0 0 30 30" 
		code="81023" 
		 transform=""
		><path d="M4.3312 5.4274L14.2216 5.4274C14.9116 5.4274 15.4708 5.9866 15.4708 6.6766 15.4708 7.323475 14.9793156 7.85538906 14.3493376 7.91935146L14.2216 7.9258 4.3312 7.9258C3.91443077 7.9258 3.55747692 8.25069467 3.50502704 8.65579545L3.4984 8.7586 3.4984 24.6856C3.4984 25.1023692 3.82329467 25.4593231 4.22839545 25.511773L4.3312 25.5184 20.2582 25.5184C20.6749692 25.5184 21.0319231 25.1935053 21.084373 24.7884046L21.091 24.6856 21.091 14.83C21.091 14.14 21.6502 13.5808 22.3402 13.5808 22.987075 13.5808 23.5189891 14.072548 23.5829515 14.7023118L23.5894 14.83 23.5894 24.6856C23.5894 26.46127 22.1930597 27.9167993 20.4407053 28.0118617L20.2582 28.0168 4.3312 28.0168C2.55553 28.0168 1.10000067 26.6204597 1.00493834 24.8681053L1 24.6856 1 8.7586C1 6.98293 2.39634033 5.52740067 4.14869466 5.43233834L4.3312 5.4274 14.2216 5.4274 4.3312 5.4274ZM18.0556 1L26.6611 1C27.307975 1 27.8398891 1.49148437 27.9038515 2.1214624L27.9103 2.2492 27.9103 10.8544C27.9103 11.5444 27.3511 12.1036 26.6611 12.1036 26.014225 12.1036 25.4823109 11.6121156 25.4183485 10.9821376L25.4119 10.8544 25.4119 5.4034 13.2913 17.5243C13.0474 17.7682 12.7276 17.8903 12.4081 17.8903 12.0886 17.8903 11.7688 17.7682 11.5249 17.5243 11.06934 17.06902 11.0389693 16.349532 11.433788 15.8590243L11.5249 15.7576 23.7841 3.4984 18.0556 3.4984C17.3656 3.4984 16.8064 2.9392 16.8064 2.2492 16.8064 1.602325 17.2978844 1.07041094 17.9278624 1.00644854L18.0556 1 26.6611 1 18.0556 1Z"/>
	</svg>
	