<?xml version="1.0"?>
	<svg xmlns="http://www.w3.org/2000/svg" 
		width="30" 
		height="30" 
		viewbox="0 0 30 30" 
		code="81025" 
		 transform=""
		><path d="M18.2080838 4.49251497C17.9520958 5.16616766 17.8173653 5.90718563 17.8173653 6.6751497 17.8173653 10.245509 20.754491 13.1826347 24.3383234 13.1826347 25.0928144 13.1826347 25.8338323 13.0479042 26.5209581 12.7919162L26.5209581 21.8188623C26.5209581 24.1227545 26.3188623 26.0359281 24.9446108 27.4101796 23.65625 28.6985404 21.8705441 28.9685278 19.7651163 28.9972436L9.19461078 29C6.89071856 29 4.9505988 28.7844311 3.57634731 27.4101796 2.28798653 26.1218189 2.02984071 24.359796 2.00260514 22.2462272L2 11.6332335C2 9.38323353 2.20209581 7.45658683 3.57634731 6.08233533 4.86470808 4.79397455 6.65041402 4.52398718 8.73363892 4.49527142L18.2080838 4.49251497ZM24.3383234 2C26.8982036 2 29 4.11526946 29 6.6751497 29 9.23502994 26.8847305 11.3502994 24.3383234 11.3502994 21.7649701 11.3502994 19.6631737 9.23502994 19.6631737 6.6751497 19.6631737 4.11526946 21.7649701 2 24.3383234 2Z"/>
	</svg>
	