<?xml version="1.0"?>
	<svg xmlns="http://www.w3.org/2000/svg" 
		width="30" 
		height="30" 
		viewbox="0 0 30 30" 
		code="81026" 
		 transform=""
		><path d="M11.9830965 24.375L16.9830965 24.375C16.9830965 25.75 15.8580965 26.875 14.4830965 26.875 13.1510965 26.875 12.0725365 25.8382 11.9883829 24.538744L11.9830965 24.375 16.9830965 24.375 11.9830965 24.375ZM14.4830965 2.5C15.4711917 2.5 16.2778811 3.25963719 16.352468 4.2282151L16.3580965 4.375 16.3580965 5.225C19.8459014 6.05426829 21.8821893 9.1321981 21.9794456 12.8453479L21.9830965 13.125 21.9830965 19.375 23.5955965 20.9875C24.3539298 21.7458333 23.8604113 23.0257716 22.8294036 23.1195416L22.7080965 23.125 6.24559648 23.125C5.17430019 23.125 4.62460883 21.8731481 5.28856123 21.0772176L5.37059648 20.9875 6.98309648 19.375 6.98309648 13.125C6.98309648 9.36890244 8.92241832 6.23148424 12.3483698 5.29136439L12.6080965 5.225 12.6080965 4.375C12.6080965 3.3375 13.4455965 2.5 14.4830965 2.5Z"/>
	</svg>
	