<?xml version="1.0"?>
	<svg xmlns="http://www.w3.org/2000/svg" 
		width="30" 
		height="30" 
		viewbox="0 0 30 30" 
		code="81027" 
		 transform=""
		><path d="M25.7356837 16.4625C25.7956837 15.9825 25.8406837 15.495 25.8406837 15 25.8406837 14.505 25.7956837 14.0175 25.7356837 13.5375L28.9081837 11.055C29.1931837 10.83 29.2756837 10.425 29.0881837 10.095L26.0881837 4.8975C25.9006837 4.575 25.5106837 4.44 25.1731837 4.575L21.4381837 6.0825C20.6656837 5.49 19.8181837 4.9875 18.9031837 4.605L18.3406837 0.63C18.2731837 0.2775 17.9656837 0 17.5906837 0L11.5906837 0C11.2156837 0 10.9081837 0.2775 10.8481837 0.63L10.2856837 4.605C9.37068371 4.9875 8.52318371 5.4825 7.75068371 6.0825L4.01568371 4.575C3.67818371 4.4475 3.28818371 4.575 3.10068371 4.8975L0.100683708 10.095C-0.0868162918 10.4175-0.00431629179 10.8225 0.280683708 11.055L3.44568371 13.5375C3.38568371 14.0175 3.34068371 14.505 3.34068371 15 3.34068371 15.495 3.38568371 15.9825 3.44568371 16.4625L0.280683708 18.945C-0.00431629179 19.17-0.0868162918 19.575 0.100683708 19.905L3.10068371 25.1025C3.28818371 25.425 3.67818371 25.56 4.01568371 25.425L7.75068371 23.9175C8.52318371 24.51 9.37068371 25.0125 10.2856837 25.395L10.8481837 29.37C10.9081837 29.7225 11.2156837 30 11.5906837 30L17.5906837 30C17.9656837 30 18.2731837 29.7225 18.3331837 29.37L18.8956837 25.395C19.8106837 25.0125 20.6581837 24.5175 21.4306837 23.9175L25.1656837 25.425C25.5031837 25.5525 25.8931837 25.425 26.0806837 25.1025L29.0806837 19.905C29.2681837 19.5825 29.1856837 19.1775 28.9006837 18.945L25.7356837 16.4625 25.7356837 16.4625ZM14.5906837 20.25C11.6881837 20.25 9.34068371 17.9025 9.34068371 15 9.34068371 12.0975 11.6881837 9.75 14.5906837 9.75 17.4931837 9.75 19.8406837 12.0975 19.8406837 15 19.8406837 17.9025 17.4931837 20.25 14.5906837 20.25Z"/>
	</svg>
	