<?xml version="1.0"?>
	<svg xmlns="http://www.w3.org/2000/svg" 
		width="30" 
		height="30" 
		viewbox="0 0 30 30" 
		code="81029" 
		 transform=""
		><path d="M15 0C6.71666667 0 0 6.71666667 0 15 0 23.2833333 6.71666667 30 15 30 16.3833333 30 17.5 28.8833333 17.5 27.5 17.5 26.85 17.25 26.2666667 16.85 25.8166667 16.4666667 25.3833333 16.2166667 24.8 16.2166667 24.1666667 16.2166667 22.7833333 17.3333333 21.6666667 18.7166667 21.6666667L21.6666667 21.6666667C26.2666667 21.6666667 30 17.9333333 30 13.3333333 30 5.96666667 23.2833333 0 15 0ZM5.83333333 15C4.45 15 3.33333333 13.8833333 3.33333333 12.5 3.33333333 11.1166667 4.45 10 5.83333333 10 7.21666667 10 8.33333333 11.1166667 8.33333333 12.5 8.33333333 13.8833333 7.21666667 15 5.83333333 15ZM10.8333333 8.33333333C9.45 8.33333333 8.33333333 7.21666667 8.33333333 5.83333333 8.33333333 4.45 9.45 3.33333333 10.8333333 3.33333333 12.2166667 3.33333333 13.3333333 4.45 13.3333333 5.83333333 13.3333333 7.21666667 12.2166667 8.33333333 10.8333333 8.33333333ZM19.1666667 8.33333333C17.7833333 8.33333333 16.6666667 7.21666667 16.6666667 5.83333333 16.6666667 4.45 17.7833333 3.33333333 19.1666667 3.33333333 20.55 3.33333333 21.6666667 4.45 21.6666667 5.83333333 21.6666667 7.21666667 20.55 8.33333333 19.1666667 8.33333333ZM24.1666667 15C22.7833333 15 21.6666667 13.8833333 21.6666667 12.5 21.6666667 11.1166667 22.7833333 10 24.1666667 10 25.55 10 26.6666667 11.1166667 26.6666667 12.5 26.6666667 13.8833333 25.55 15 24.1666667 15Z"/>
	</svg>
	