<?xml version="1.0"?>
	<svg xmlns="http://www.w3.org/2000/svg" 
		width="30" 
		height="30" 
		viewbox="0 0 30 30" 
		code="81032" 
		 transform=""
		><path d="M25 23.75C25.6875 23.75 26.25 24.3125 26.25 25 26.25 25.6445312 25.7556152 26.1791992 25.1273346 26.243515L25 26.25 5 26.25C4.3125 26.25 3.75 25.6875 3.75 25 3.75 24.3554688 4.24438477 23.8208008 4.87266541 23.756485L5 23.75 25 23.75ZM25 18.75C25.6875 18.75 26.25 19.3125 26.25 20 26.25 20.6445312 25.7556152 21.1791992 25.1273346 21.243515L25 21.25 5 21.25C4.3125 21.25 3.75 20.6875 3.75 20 3.75 19.3554688 4.24438477 18.8208008 4.87266541 18.756485L5 18.75 25 18.75ZM25 13.75C25.6875 13.75 26.25 14.3125 26.25 15 26.25 15.6445312 25.7556152 16.1791992 25.1273346 16.243515L25 16.25 5 16.25C4.3125 16.25 3.75 15.6875 3.75 15 3.75 14.3554688 4.24438477 13.8208008 4.87266541 13.756485L5 13.75 25 13.75ZM5 8.75L25 8.75C25.6875 8.75 26.25 9.3125 26.25 10 26.25 10.6445312 25.7556152 11.1791992 25.1273346 11.243515L25 11.25 5 11.25C4.3125 11.25 3.75 10.6875 3.75 10 3.75 9.35546875 4.24438477 8.82080078 4.87266541 8.75648499L5 8.75ZM5 3.75L25 3.75C25.6875 3.75 26.25 4.3125 26.25 5 26.25 5.64453125 25.7556152 6.17919922 25.1273346 6.24351501L25 6.25 5 6.25C4.3125 6.25 3.75 5.6875 3.75 5 3.75 4.35546875 4.24438477 3.82080078 4.87266541 3.75648499L5 3.75 25 3.75 5 3.75Z"/>
	</svg>
	