<?xml version="1.0"?>
	<svg xmlns="http://www.w3.org/2000/svg" 
		width="30" 
		height="30" 
		viewbox="0 0 30 30" 
		code="81034" 
		 transform=""
		><path d="M10 8.75L25 8.75C25.6875 8.75 26.25 8.1875 26.25 7.5 26.25 6.8125 25.6875 6.25 25 6.25L10 6.25C9.3125 6.25 8.75 6.8125 8.75 7.5 8.75 8.1875 9.3125 8.75 10 8.75ZM25 21.25L10 21.25C9.3125 21.25 8.75 21.8125 8.75 22.5 8.75 23.1875 9.3125 23.75 10 23.75L25 23.75C25.6875 23.75 26.25 23.1875 26.25 22.5 26.25 21.8125 25.6875 21.25 25 21.25ZM25 13.75L10 13.75C9.3125 13.75 8.75 14.3125 8.75 15 8.75 15.6875 9.3125 16.25 10 16.25L25 16.25C25.6875 16.25 26.25 15.6875 26.25 15 26.25 14.3125 25.6875 13.75 25 13.75ZM5.625 20L3.125 20C2.775 20 2.5 20.275 2.5 20.625 2.5 20.975 2.775 21.25 3.125 21.25L5 21.25 5 21.875 4.375 21.875C4.025 21.875 3.75 22.15 3.75 22.5 3.75 22.85 4.025 23.125 4.375 23.125L5 23.125 5 23.75 3.125 23.75C2.775 23.75 2.5 24.025 2.5 24.375 2.5 24.725 2.775 25 3.125 25L5.625 25C5.975 25 6.25 24.725 6.25 24.375L6.25 20.625C6.25 20.275 5.975 20 5.625 20ZM3.125 6.25L3.75 6.25 3.75 9.375C3.75 9.725 4.025 10 4.375 10 4.725 10 5 9.725 5 9.375L5 5.625C5 5.275 4.725 5 4.375 5L3.125 5C2.775 5 2.5 5.275 2.5 5.625 2.5 5.975 2.775 6.25 3.125 6.25ZM5.625 12.5L3.125 12.5C2.775 12.5 2.5 12.775 2.5 13.125 2.5 13.475 2.775 13.75 3.125 13.75L4.75 13.75 2.65 16.2C2.55 16.3125 2.5 16.4625 2.5 16.6L2.5 16.875C2.5 17.225 2.775 17.5 3.125 17.5L5.625 17.5C5.975 17.5 6.25 17.225 6.25 16.875 6.25 16.525 5.975 16.25 5.625 16.25L4 16.25 6.1 13.8C6.2 13.6875 6.25 13.5375 6.25 13.4L6.25 13.125C6.25 12.775 5.975 12.5 5.625 12.5L5.625 12.5Z"/>
	</svg>
	