<?xml version="1.0"?>
	<svg xmlns="http://www.w3.org/2000/svg" 
		width="30" 
		height="30" 
		viewbox="0 0 30 30" 
		code="81036" 
		 transform=""
		><path d="M12 9C12.7764706 9 13.4200692 9.59792388 13.4930999 10.3560757L13.5 10.5 13.5 19.5C13.5 20.325 12.825 21 12 21 11.2235294 21 10.5799308 20.4020761 10.5069001 19.6439243L10.5 19.5 10.5 10.5C10.5 9.675 11.175 9 12 9ZM18 9C18.7764706 9 19.4200692 9.59792388 19.4930999 10.3560757L19.5 10.5 19.5 19.5C19.5 20.325 18.825 21 18 21 17.2235294 21 16.5799308 20.4020761 16.5069001 19.6439243L16.5 19.5 16.5 10.5C16.5 9.675 17.175 9 18 9ZM15 0C23.28 0 30 6.72 30 15 30 23.28 23.28 30 15 30 6.72 30 0 23.28 0 15 0 6.72 6.72 0 15 0ZM15 3C8.385 3 3 8.385 3 15 3 21.615 8.385 27 15 27 21.615 27 27 21.615 27 15 27 8.385 21.615 3 15 3Z"/>
	</svg>
	