<?xml version="1.0"?>
	<svg xmlns="http://www.w3.org/2000/svg" 
		width="30" 
		height="30" 
		viewbox="0 0 30 30" 
		code="81039" 
		 transform=""
		><path d="M20.9653548 0C17.6350246-0.00164782217 14.575196 1.80613206 13.008212 4.70119212 11.441228 7.59625219 11.6225226 11.1066688 13.4796721 13.8300976L1 26.1246552 4.00063484 29.0807807 6.12122484 26.9916461 9.18547738 30 16.056189 23.2312036 13.0131423 20.212404 16.6287483 16.6504294C19.9292734 18.4468613 24.0160948 18.0291513 26.8719898 15.6034776 29.7278847 13.1778039 30.7490595 9.25700287 29.4314702 5.77635093 28.1138809 2.29569899 24.7360926-0.0089238615 20.9653548 0ZM20.9653548 14.6239687C17.7446386 14.6239687 15.1337323 12.0517907 15.1337323 8.87884837 15.1337323 5.705906 17.7446386 3.133728 20.9653548 3.133728 24.186071 3.133728 26.7969773 5.705906 26.7969773 8.87884837 26.7969773 10.402549 26.182576 11.8638429 25.0889346 12.9412619 23.9952933 14.018681 22.5119973 14.6239687 20.9653548 14.6239687L20.9653548 14.6239687Z"/>
	</svg>
	