<?xml version="1.0"?>
	<svg xmlns="http://www.w3.org/2000/svg" 
		width="30" 
		height="30" 
		viewbox="0 0 30 30" 
		code="81040" 
		 transform=""
		><path d="M6.2875 3.7625L8.45 3.7625C9.66956522 3.7625 10.694707 4.63168715 10.9128175 5.81215069L10.9375 5.975 11.3 9.125C11.3802083 9.82395833 11.1663194 10.5124132 10.7161024 11.0363137L10.5875 11.175 8.275 13.4875C10.0083333 16.9060185 12.7616941 19.7102023 16.1220914 21.5205463L16.5125 21.725 18.8125 19.425C19.3052083 18.9322917 19.9764757 18.6706597 20.6722512 18.6978733L20.8625 18.7125 24.0375 19.075C25.2451087 19.2184783 26.1668006 20.1968336 26.2338322 21.3865189L26.2376219 21.55 26.2376219 23.7125C26.2376219 25.125 25.0625 26.3 23.65 26.2125 12.9875 25.55 4.45 17.025 3.7875 6.35 3.70336538 4.99182692 4.78648299 3.85323595 6.12563154 3.76766116L6.2875 3.7625 8.45 3.7625 6.2875 3.7625ZM16.2719452 3.8174408L16.4 3.825C21.5125 4.4625 25.525 8.475 26.1625 13.5875 26.25 14.275 25.7625 14.9 25.075 14.9875 25.025 15 24.975 15 24.925 15 24.3 15 23.7625 14.5375 23.6875 13.9 23.1988636 10.0153409 20.2151278 6.95442278 16.3696657 6.35061866L16.1 6.3125C15.4125 6.2375 14.925 5.6125 15.0125 4.925 15.078125 4.3234375 15.5648438 3.875 16.1460693 3.82253418L16.2719452 3.8174408ZM16.575 8.95C18.7625 9.5125 20.475 11.225 21.0625 13.4375 21.225 14.1 20.825 14.7875 20.1625 14.9625 20.0625 14.9875 19.95 15 19.85 15 19.2875 15 18.7875 14.625 18.6375 14.0625 18.3059211 12.8072368 17.3685249 11.8212258 16.1547912 11.4339463L15.95 11.375C15.275 11.2 14.875 10.525 15.05 9.85 15.225 9.175 15.9125 8.775 16.575 8.95Z"/>
	</svg>
	