<?xml version="1.0"?>
	<svg xmlns="http://www.w3.org/2000/svg" 
		width="30" 
		height="30" 
		viewbox="0 0 30 30" 
		code="81121" 
		 transform=""
		><path d="M15.0168646 0C21.8620912 0 27.6371315 4.57470703 29.4459012 10.8305859 28.9758029 10.588125 28.4155448 10.4436328 27.7682945 10.4436328L22.2378061 10.4436328 20.0097962 22.4859375 22.6466051 22.4859375 23.2570758 19.187168 26.2959965 19.187168C27.941751 19.187168 29.0523537 18.5308594 29.7982695 17.6583984 29.8181481 17.547452 29.8368081 17.43608 29.8542342 17.3242971 29.8368907 17.4360745 29.8182469 17.5474203 29.7983869 17.6583398 28.5424842 24.674707 22.4021117 30 15.0168646 30 9.45264702 30 4.59516058 26.9773242 2.00123185 22.4859375L2.51426895 22.4859375 3.1247397 19.187168 6.16366036 19.187168C9.86390966 19.187168 10.8587183 15.8688281 11.0971697 14.2389844 11.3362077 12.6097852 10.1428362 10.4436914 7.63589969 10.4436914L2.10541135 10.4436914 0.529579117 18.9612305C0.183897932 17.6994141 0 16.3708008 0 15 0 6.71572266 6.72327321 0 15.0168646 0ZM15.5382901 7.23445313L12.9123332 7.23445313 10.6842646 19.2764062 13.3102214 19.2764062 14.5915237 12.3514453 16.2697756 12.3514453C17.3837806 12.3514453 18.1397859 12.5899219 17.9805837 13.6232227L17.9701413 13.6894003C17.7852025 14.8375101 16.9063499 19.2268945 16.9063499 19.2268945L19.572078 19.2268945 19.6912509 18.6348561C19.9679507 17.2515959 20.6399607 13.8394342 20.7656841 12.7091016 20.9248863 11.2783594 19.6119079 10.4835352 18.1397859 10.4835352L14.9371462 10.4835352 15.5382901 7.23445313ZM6.47567092 12.3618164C8.51121865 12.3618164 8.57369116 13.59 8.43824608 14.5138477L8.42945485 14.5704083C8.27489767 15.5122568 7.577409 17.3191406 5.52192404 17.3191406L3.47042088 17.3191406 4.38738818 12.3618164 6.47567092 12.3618164ZM26.6080657 12.3618164C28.623258 12.3618164 28.7046392 13.5655591 28.5746431 14.4860425L28.5706409 14.5138477C28.4351958 15.4377539 27.7517525 17.3191406 25.6536736 17.3191406L23.6028157 17.3191406 24.519783 12.3618164 26.6080657 12.3618164ZM29.8874554 17.2634308L29.8965308 17.2017651 29.8927732 17.2279969 29.8874554 17.2634308ZM29.9453434 16.8360801L29.9530434 16.7705801 29.9485737 16.8098206 29.9453434 16.8360801ZM30.0139272 16.1110352L30.0224272 16.0110352 30.020547 16.0349998 30.0139272 16.1110352Z"/>
	</svg>
	