<?xml version="1.0"?>
	<svg xmlns="http://www.w3.org/2000/svg" 
		width="30" 
		height="30" 
		viewbox="0 0 30 30" 
		code="81044" 
		 transform=""
		><path d="M13.2 20.85L20.205 15.6C20.61 15.3 20.61 14.7 20.205 14.4L13.2 9.15C12.705 8.775 12 9.135 12 9.75L12 20.25C12 20.865 12.705 21.225 13.2 20.85ZM15 0C23.28 0 30 6.72 30 15 30 23.28 23.28 30 15 30 6.72 30 0 23.28 0 15 0 6.72 6.72 0 15 0ZM15 3C8.385 3 3 8.385 3 15 3 21.615 8.385 27 15 27 21.615 27 27 21.615 27 15 27 8.385 21.615 3 15 3Z"/>
	</svg>
	