<?xml version="1.0"?>
	<svg xmlns="http://www.w3.org/2000/svg" 
		width="30" 
		height="30" 
		viewbox="0 0 30 30" 
		code="81045" 
		 transform=""
		><path d="M5.46225615 25L24.5377439 25C26.8532655 25 28 23.8701793 28 21.6322651L28 8.36773493C28 6.12982075 26.8532655 5 24.5377439 5L5.46225615 5C3.15776081 5 2 6.11895709 2 8.36773493L2 21.6322651C2 23.8810429 3.15776081 25 5.46225615 25ZM12.8278202 19.2965779C12.2985581 19.6007605 11.7031383 19.263987 11.7031383 18.7208039L11.7031383 11.2791961C11.7031383 10.7468767 12.331637 10.4209669 12.8278202 10.7034221L19.1789652 14.4187941C19.6310433 14.679522 19.6530958 15.320478 19.1789652 15.6029332L12.8278202 19.2965779Z"/>
	</svg>
	