<?xml version="1.0"?>
	<svg xmlns="http://www.w3.org/2000/svg" 
		width="30" 
		height="30" 
		viewbox="0 0 30 30" 
		code="81046" 
		 transform=""
		><path d="M22.5 8.75L22.5 5C22.5 3.625 21.375 2.5 20 2.5L10 2.5C8.625 2.5 7.5 3.625 7.5 5L7.5 8.75C6.8125 8.75 6.25 9.3125 6.25 10L6.25 15.875C6.25 16.125 6.325 16.3625 6.4625 16.5625L10 23.75 10 26.25C10 26.9375 10.5625 27.5 11.25 27.5L18.75 27.5C19.4375 27.5 20 26.9375 20 26.25L20 23.75 23.5375 16.5625C23.675 16.3625 23.75 16.1125 23.75 15.875L23.75 10C23.75 9.3125 23.1875 8.75 22.5 8.75ZM20 8.75L17.5 8.75 17.5 6.875C17.5 6.525 17.225 6.25 16.875 6.25 16.525 6.25 16.25 6.525 16.25 6.875L16.25 8.75 13.75 8.75 13.75 6.875C13.75 6.525 13.475 6.25 13.125 6.25 12.775 6.25 12.5 6.525 12.5 6.875L12.5 8.75 10 8.75 10 5 20 5 20 8.75Z"/>
	</svg>
	