<?xml version="1.0"?>
	<svg xmlns="http://www.w3.org/2000/svg" 
		width="30" 
		height="30" 
		viewbox="0 0 30 30" 
		code="81048" 
		 transform=""
		><path d="M15 0C23.28 0 30 6.72 30 15 30 23.28 23.28 30 15 30 6.72 30 0 23.28 0 15 0 6.72 6.72 0 15 0ZM15 3C8.385 3 3 8.385 3 15 3 21.615 8.385 27 15 27 21.615 27 27 21.615 27 15 27 8.385 21.615 3 15 3ZM15.5 8C16.0522847 8 16.5 8.44771525 16.5 9L16.5 14.5 22 14.5C22.5522847 14.5 23 14.9477153 23 15.5 23 16.0522847 22.5522847 16.5 22 16.5L16.5 16.5 16.5 22C16.5 22.5522847 16.0522847 23 15.5 23 14.9477153 23 14.5 22.5522847 14.5 22L14.5 16.5 9 16.5C8.44771525 16.5 8 16.0522847 8 15.5 8 14.9477153 8.44771525 14.5 9 14.5L14.5 14.499 14.5 9C14.5 8.44771525 14.9477153 8 15.5 8Z"/>
	</svg>
	