<?xml version="1.0"?>
	<svg xmlns="http://www.w3.org/2000/svg" 
		width="30" 
		height="30" 
		viewbox="0 0 30 30" 
		code="81052" 
		 transform=""
		><path d="M10.125 23.9285714L16.5 25.0261432 12.6810142 29.4932603C11.8741156 30.4399159 10.2663221 29.9859641 10.1337402 28.7466022L10.125 28.5805427 10.125 23.9285714ZM29.9974059 1.42974638L29.9791959 1.5832066 25.7602422 26.0088999C25.6885197 26.4180311 25.4272789 26.7732384 25.0507218 26.9736298 24.7279586 27.1453939 24.3507008 27.1873296 23.99957 27.0952012L23.8265551 27.0379453 16.5254213 24.0865074 10.3141839 23.0122292 24.4300998 6.41915463C24.685832 6.11989142 24.3100067 5.73287434 23.9969763 5.90093533L23.9261693 5.94986469 7.09137205 20.266035 0.861969711 17.7443083C0.363663155 17.5424556 0.0293148352 17.0829246 0.00182828141 16.5621231-0.0226042109 16.0991884 0.199264448 15.6606477 0.582110711 15.3935689L0.733057237 15.3017389 27.8931577 0.182687097C28.8602409-0.357022036 30.063311 0.370604004 29.9974059 1.42974638Z"/>
	</svg>
	