<?xml version="1.0"?>
	<svg xmlns="http://www.w3.org/2000/svg" 
		width="30" 
		height="30" 
		viewbox="0 0 30 30" 
		code="81055" 
		 transform=""
		><path d="M23.402027 5C27.2027027 5 30 7.70608108 30 11.4763514 30 15.0945946 27.7195946 17.7398649 24.375 17.7398649 22.8547297 17.7398649 21.5168919 17.3445946 20.6959459 16.3412162L20.1790541 16.3412162C20.9087838 18.5 23.0675676 20.2939189 25.8040541 20.902027 26.7162162 21.1148649 27.1418919 21.6317568 27.1418919 22.3918919 27.1418919 23.2736486 26.4121622 23.8209459 25.4695946 23.8209459 21.972973 23.8209459 16.347973 19.625 16.347973 12.9358108 16.347973 8.49662162 19.0540541 5 23.402027 5ZM7.07432432 5C10.875 5 13.6722973 7.70608108 13.6722973 11.4763514 13.6722973 15.0945946 11.3918919 17.7398649 8.01689189 17.7398649 6.58604928 17.7398649 5.34374123 17.3897293 4.51811039 16.5120138L4.36824324 16.3412162 3.82094595 16.3412162C4.58108108 18.5 6.73986486 20.2939189 9.44594595 20.902027 10.3581081 21.1148649 10.8141892 21.6317568 10.8141892 22.3918919 10.8141892 23.2736486 10.0844595 23.8209459 9.14189189 23.8209459 5.64527027 23.8209459 0.0202702703 19.625 0.0202702703 12.9358108 0.0202702703 8.49662162 2.72635135 5 7.07432432 5Z"/>
	</svg>
	