<?xml version="1.0"?>
	<svg xmlns="http://www.w3.org/2000/svg" 
		width="30" 
		height="30" 
		viewbox="0 0 30 30" 
		code="81057" 
		 transform=""
		><path d="M15 0C23.2842712 0 30 6.71572875 30 15 30 23.2842712 23.2842712 30 15 30 6.71572875 30 0 23.2842712 0 15 0 6.71572875 6.71572875 0 15 0ZM15 3.33333333C8.55667792 3.33333333 3.33333333 8.55667792 3.33333333 15 3.33333333 21.4433221 8.55667792 26.6666667 15 26.6666667 21.4433221 26.6666667 26.6666667 21.4433221 26.6666667 15 26.6666667 8.55667792 21.4433221 3.33333333 15 3.33333333ZM15 8.33333333C18.6818983 8.33333333 21.6666667 11.3181017 21.6666667 15 21.6666667 18.6818983 18.6818983 21.6666667 15 21.6666667 11.3181017 21.6666667 8.33333333 18.6818983 8.33333333 15 8.33333333 11.3181017 11.3181017 8.33333333 15 8.33333333Z"/>
	</svg>
	