<?xml version="1.0"?>
	<svg xmlns="http://www.w3.org/2000/svg" 
		width="30" 
		height="30" 
		viewbox="0 0 30 30" 
		code="81059" 
		 transform=""
		><path d="M7.0818 7.55714477L14.1639 14.6392448 9.5238 14.6392448C9.3945 17.1430448 10.2798 19.6900448 12.1917 21.6037448 14.2104 23.6218448 16.9353 24.5029448 19.5702 24.2500448 15.6291 26.1310448 10.7712 25.4518448 7.5081 22.1878448 5.508804 20.1876848 4.48575888 17.5870102 4.41773098 14.9668272L4.4142 14.6392448 2.13162821e-14 14.6392448 7.0818 7.55714477ZM10.4298 5.03594477C14.3694 3.15404477 19.2288 3.83324477 22.4919 7.09724477 24.491196 9.09740477 25.5142411 11.6980793 25.582269 14.3182623L25.5858 14.6458448 30 14.6458448 22.9161 21.7285448 15.8343 14.6458448 20.4762 14.6458448C20.6058 12.1420448 19.7205 9.59504477 17.8068 7.68134477 15.7896 5.66324477 13.0647 4.78244477 10.4298 5.03594477Z"/>
	</svg>
	