<?xml version="1.0"?>
	<svg xmlns="http://www.w3.org/2000/svg" 
		width="30" 
		height="30" 
		viewbox="0 0 30 30" 
		code="81062" 
		 transform=""
		><path d="M10.6676432 5.68522135L10.6676432 14.0478516C10.6676432 15.4427791 11.2930863 16.1392952 12.6337099 16.1972249L12.8209635 16.2011719 21.0582682 16.2011719 21.0582682 25.3727214C21.0582682 27.6745334 19.9616952 28.8691262 17.7685493 28.9462081L17.5377604 28.9501953 6.53190104 28.9501953C4.24957997 28.9501953 3.07694283 27.8405114 3.00366376 25.6004919L3 25.3727214 3 9.26269531C3 6.95832283 4.10968392 5.76363428 6.30840008 5.68895548L6.53190104 5.68522135 10.6676432 5.68522135ZM18.1985677 7.28306304e-14L18.1985677 6.84733073C18.1985677 7.97580295 18.8082734 8.63924541 19.8898982 8.69987151L20.0556641 8.70442708 26.811849 8.70442708 26.811849 19.6875C26.811849 21.9918725 25.7128351 23.186561 23.5044815 23.2612398L23.2799479 23.264974 22.6191406 23.264974 22.6191406 16.5087891C22.6191406 15.0453921 22.1923165 13.7852447 21.0699271 12.5651826L20.8645833 12.3502604 14.3932292 5.86751302C13.1880787 4.66236256 11.9829282 4.18891059 10.4994388 4.14002442L10.2347005 4.13574219 8.75358073 4.13574219 8.75358073 3.57747396C8.75358073 1.27310148 9.86326465 0.0784129217 12.0619808 0.00373413076L12.2854818 7.28306304e-14 18.1985677 7.28306304e-14ZM12.2171224 6.2890625C12.5979818 6.39648437 12.9788411 6.63783482 13.3883995 7.02746333L19.5315755 13.2617187C20.0328776 13.7858073 20.3404948 14.1959635 20.4658203 14.6402995L12.8095703 14.6402995C12.4222005 14.6402995 12.2171224 14.4466146 12.2171224 14.0592448L12.2171224 6.2890625ZM19.6341146 6.61946615L19.6227214 0.546875C19.9317627 0.596720378 20.2233582 0.794855754 20.5585683 1.11075083L20.7050781 1.25325521 25.7380371 6.39123234C25.9903158 6.65956097 26.1554013 6.89785643 26.2332938 7.15179128L26.264974 7.28027344 20.2835286 7.28027344C19.8553331 7.28027344 19.6664745 7.11752432 19.6379717 6.73059628L19.6341146 6.61946615Z"/>
	</svg>
	