<?xml version="1.0"?>
	<svg xmlns="http://www.w3.org/2000/svg" 
		width="30" 
		height="30" 
		viewbox="0 0 30 30" 
		code="81063" 
		 transform=""
		><path d="M15.6666667 5C16.0348565 5 16.3333333 5.29847683 16.3333333 5.66666667L16.3333333 13.6666667 24.3333333 13.6666667C24.7015232 13.6666667 25 13.9651435 25 14.3333333L25 15.6666667C25 16.0348565 24.7015232 16.3333333 24.3333333 16.3333333L16.3333333 16.3333333 16.3333333 24.3333333C16.3333333 24.7015232 16.0348565 25 15.6666667 25L14.3333333 25C13.9651435 25 13.6666667 24.7015232 13.6666667 24.3333333L13.6666667 16.3333333 5.66666667 16.3333333C5.29847683 16.3333333 5 16.0348565 5 15.6666667L5 14.3333333C5 13.9651435 5.29847683 13.6666667 5.66666667 13.6666667L13.6666667 13.6666667 13.6666667 5.66666667C13.6666667 5.29847683 13.9651435 5 14.3333333 5L15.6666667 5Z"/>
	</svg>
	