<?xml version="1.0"?>
	<svg xmlns="http://www.w3.org/2000/svg" 
		width="30" 
		height="30" 
		viewbox="0 0 30 30" 
		code="81064" 
		 transform=""
		><path d="M24.0613644 0.0426176481C24.6895455 0.0342908588 25.2161632 0.51534881 25.2645582 1.14171834 25.3539466 2.39917436 25.1776572 3.66136505 24.7471542 4.84620813 23.8041932 7.56181346 21.3120819 12.441943 19.8486553 15.215718 19.1928272 16.4579717 18.0700931 17.3835863 16.7339109 17.7932517L16.4809373 17.863969 13.0611728 18.7273294C12.8969573 18.7688379 12.7593616 18.8805709 12.6850316 19.0327704 12.6255676 19.1545301 12.6114236 19.2922984 12.6430793 19.4219103L12.675416 19.5172123 13.4744836 21.3541494C14.2954379 23.0629263 14.261529 25.0641791 13.3829487 26.7502824 12.5043685 28.4363858 10.8835551 29.610748 9.00766493 29.9203994 8.68162371 29.9724989 8.35201841 29.999113 8.02184202 30 4.88417055 29.9917809 2.27578618 27.5814733 2.02030382 24.4542095 1.77120852 21.4051274 3.83980379 18.6655277 6.81177139 18.0509181L7.04214224 18.0078624 9.9077641 17.5363819C10.7873274 17.3911508 11.5783585 16.923756 12.1294253 16.2297041L12.2621051 16.0515244 12.5223379 15.6780138C12.5918886 15.5780796 12.7067629 15.5194937 12.8284941 15.5218742 12.926552 15.5196139 13.0200852 15.5576011 13.0884337 15.6250926L13.1346503 15.6810754 13.3520211 15.9872316C13.661025 16.3249594 14.1715463 16.3835957 14.5490734 16.1247199 14.89514 15.8874171 15.0326035 15.4497282 14.8962204 15.0626656L14.8521864 14.9585468 14.2398741 14.0615092C14.0883369 13.8442226 14.0693948 13.5644311 14.1830476 13.3315183L14.2398741 13.2348875 23.0724799 0.547775347C23.2952927 0.222791651 23.6674594 0.032675517 24.0613644 0.0426176481ZM25.852378 19.6825367C28.2084375 22.0399974 28.2084375 25.8607104 25.852378 28.218171 24.1259762 29.9455995 21.5289013 30.4627918 19.2724389 29.5285274 17.0159765 28.594263 15.5446229 26.3925808 15.5446229 23.9503539 15.5446229 21.5081269 17.0159765 19.3064447 19.2724389 18.3721803 21.5289013 17.4379159 24.1259762 17.9551082 25.852378 19.6825367ZM20.252981 20.7506508C18.9544397 21.2884614 18.1077521 22.5555624 18.1077521 23.9610693 18.1077521 25.3665763 18.9544397 26.6336772 20.252981 27.1714879 21.4865952 27.682408 22.8971972 27.4395502 23.8871997 26.5618202L24.0399334 26.4179727 24.0399334 26.4057264C25.3919051 25.0515534 25.3919051 22.858339 24.0399334 21.504166 23.0461719 20.5102405 21.5515223 20.2128401 20.252981 20.7506508ZM6.69638525 20.7384045C5.39784396 21.2762152 4.55115639 22.5433161 4.55115639 23.9488231 4.55115639 25.35433 5.39784396 26.621431 6.69638525 27.1592416 7.99492654 27.6970523 9.4895762 27.3996519 10.4833377 26.4057264 11.1394159 25.7564951 11.5085778 24.871829 11.5085778 23.9488231 11.5085778 23.0258172 11.1394159 22.1411511 10.4833377 21.4919197 9.4895762 20.4979943 7.99492654 20.2005938 6.69638525 20.7384045ZM6.51555361 0.511036606L13.7683936 10.9203468C13.8753284 11.0773571 13.8753284 11.2838019 13.7683936 11.4408123L11.1323888 15.2187796C11.0010926 15.4051213 10.8420982 15.5703103 10.6609083 15.7086295 10.5629229 15.7876537 10.4363198 15.8220288 10.3118232 15.8034125 10.1873266 15.7847962 10.0763168 15.7148902 10.0057341 15.6106595 9.91694879 15.4728892 9.83122506 15.3320573 9.75468601 15.1851024L8.91248501 13.5628073C7.47347521 10.7649306 5.63568737 7.04613997 4.85924867 4.80028471 4.42874573 3.61544162 4.25245629 2.35325093 4.34184472 1.09579491 4.38450743 0.593695925 4.73703617 0.172074576 5.22364436 0.0411701209 5.71025254-0.0897343338 6.22673625 0.0981104268 6.51555361 0.511036606Z"/>
	</svg>
	