<?xml version="1.0"?>
	<svg xmlns="http://www.w3.org/2000/svg" 
		width="30" 
		height="30" 
		viewbox="0 0 30 30" 
		code="81067" 
		 transform=""
		><path d="M21.9847583 19.3467193L20.5953911 19.3467193 20.1029571 18.8718723C22.2133883 16.4097026 23.3037778 13.0505996 22.7058223 9.48045358 21.8792367 4.59128803 17.7990698 0.686990357 12.8747304 0.0890348583 5.4354605-0.825485317-0.825485317 5.4354605 0.0890348583 12.8747304 0.686990357 17.7990698 4.59128803 21.8792367 9.48045358 22.7058223 13.0505996 23.3037778 16.4097026 22.2133883 18.8718723 20.1029571L19.3467193 20.5953911 19.3467193 21.9847583 26.821163 29.459202C27.542227 30.180266 28.7205511 30.180266 29.4416151 29.459202 30.1626791 28.738138 30.1626791 27.559814 29.4416151 26.83875L21.9847583 19.3467193ZM11.4326024 19.3467193C7.05345773 19.3467193 3.51848551 15.8117471 3.51848551 11.4326024 3.51848551 7.05345773 7.05345773 3.51848551 11.4326024 3.51848551 15.8117471 3.51848551 19.3467193 7.05345773 19.3467193 11.4326024 19.3467193 15.8117471 15.8117471 19.3467193 11.4326024 19.3467193Z"/>
	</svg>
	