<?xml version="1.0"?>
	<svg xmlns="http://www.w3.org/2000/svg" 
		width="30" 
		height="30" 
		viewbox="0 0 30 30" 
		code="81068" 
		 transform=""
		><path d="M1.8941376000000005 14.8493924C2.3731953000000026 14.4322538 2.9681765999999996 14.2027344 3.5673479000000015 14.2027344 4.177227000000002 14.2027344 4.7182037 14.4387716 5.090183400000001 14.8670836L8.661002400000001 18.9714303C8.7885649 19.1176151 8.994340900000001 19.170223 9.175442400000001 19.1017862 9.357475 19.0338149 9.4775886 18.8596968 9.4775886 18.6655597L9.4775886 1.77796055C9.4775886 0.797498409 10.275087000000003 0 11.254618 0 12.2350802 0 13.0325786 0.797498409 13.0325786 1.77796055L13.0595809 12.0318441C13.060046400000001 12.1566132 13.109861 12.2753302 13.1992478 12.3628548 13.288634700000001 12.4503794 13.414335000000001 12.491814 13.5330519 12.496004L14.1424654 12.4862273C14.396659300000001 12.4820373 14.600107600000001 12.2748646 14.600107600000001 12.0206707 14.600107600000001 11.0402086 15.397606000000001 10.2427102 16.377137 10.2427102 17.3575991 10.2427102 18.15509753 11.0402086 18.15509753 12.0206707 18.15509753 12.2776579 18.363201330000003 12.4862273 18.620654130000002 12.4862273L18.78965123 12.4862273C19.04710393 12.4862273 19.255207730000002 12.2776579 19.255207730000002 12.0206707 19.255207730000002 11.0402086 20.05270616 10.2427102 21.03223719 10.2427102 22.01269934 10.2427102 22.81019774 11.0402086 22.81019774 12.0206707 22.81019774 12.1445088 22.85908118 12.2632257 22.946605820000002 12.3502848 23.03413046 12.4373438 23.152381830000003 12.4862273 23.27575432 12.4862273L23.276219870000002 12.4862273 23.44568247 12.4857617C23.662631830000002 12.4857617 23.85071668 12.3358525 23.89913457 12.1244898L23.91496349 12.0551219C24.13796509 11.0737286 24.4252135 10.2599358 25.69432071 10.2431757 26.681766201000002 10.2431757 27.466229030606 11.0402086 27.466229030606 12.0206707L27.466229030606 24.8788777C27.466229030606 27.354242 26.509044721000002 30 23.8237144 30L14.018161800000001 30C13.1303455 30 12.488808500000001 30 11.6801367 29.4604199 11.194095700000002 29.1354614 10.920348400000002 28.9147876 10.486915200000002 28.3882431L1.4681533000000009 18.0193672C0.7041749999999993 17.1399308 0.8955187000000002 15.718121 1.8941376000000005 14.8493924Z"/>
	</svg>
	