<?xml version="1.0"?>
	<svg xmlns="http://www.w3.org/2000/svg" 
		width="30" 
		height="30" 
		viewbox="0 0 30 30" 
		code="81072" 
		 transform=""
		><path d="M15.2727273-0.00000646210871C15.5769817-0.000470254766 15.8786239 0.0499728125 16.165282 0.148731001L16.3772727 0.231818182 25.9227273 4.47272727C26.8518412 4.88428149 27.4701214 5.77524376 27.5390308 6.77878759L27.5454552 6.96818182 27.5454552 13.3772727C27.5454552 20.9454545 22.3090909 28.0227273 15.2727273 29.7409091 8.34461538 28.0491608 3.1615443 21.1619484 3.00370497 13.7262071L2.99999872 13.3772727 2.99999872 6.96818182C2.99930569 5.95199821 3.56289128 5.02546951 4.45221923 4.55542219L4.62272727 4.47272727 14.1681818 0.231818182C14.5161727 0.0783762256 14.8924093-0.000587006227 15.2727273-0.00000646210871ZM24.760162 14.7409091L15.2727273 14.7409091 15.2727273 26.9181818C20.4768298 25.0901786 24.1121215 20.4544903 24.7263437 15.071435L24.760162 14.7409091ZM15.2727273 2.72727273L5.72709721 6.96818182 5.72709721 13.3772727C5.72486749 13.8315035 5.74414594 14.2821128 5.78412148 14.72795L15.2727273 14.7272727 15.2727273 2.72727273Z"/>
	</svg>
	