<?xml version="1.0"?>
	<svg xmlns="http://www.w3.org/2000/svg" 
		width="30" 
		height="30" 
		viewbox="0 0 30 30" 
		code="81074" 
		 transform=""
		><path d="M12.25 4C14.260375 4 16.1425 4.53325 17.774875 5.456875L15.949 7.0555C14.8195 6.5425 13.569625 6.25 12.25 6.25 7.287625 6.25 3.25 10.287625 3.25 15.25 3.25 20.212375 7.287625 24.25 12.25 24.25 13.569625 24.25 14.8195 23.9575 15.949 23.445625L17.774875 25.04425C16.1425 25.96675 14.260375 26.5 12.25 26.5 6.03775 26.5 1 21.463375 1 15.25 1 9.036625 6.03775 4 12.25 4ZM19 7.375L19 11.875 28 11.875 28 18.625 19 18.625 19 23.125 10 15.25 19 7.375Z"/>
	</svg>
	