<?xml version="1.0"?>
	<svg xmlns="http://www.w3.org/2000/svg" 
		width="30" 
		height="30" 
		viewbox="0 0 30 30" 
		code="81079" 
		 transform=""
		><path d="M14.9875 2.5C21.9 2.5 27.5 8.0875 27.5 15 27.5 21.9125 21.8875 27.5 14.9875 27.5 8.0875 27.5 2.5 21.9125 2.5 15 2.5 8.0875 8.0875 2.5 14.9875 2.5ZM15 5C9.475 5 5 9.475 5 15 5 20.525 9.475 25 15 25 20.525 25 25 20.525 25 15 25 9.475 20.525 5 15 5ZM9.6125 17.5L20.3875 17.5C20.875 17.5 21.175 18.025 20.9375 18.4375 19.75 20.4875 17.5375 21.875 15 21.875 12.4625 21.875 10.25 20.4875 9.0625 18.4375 8.84083333 18.0525 9.09827778 17.5695 9.51978148 17.5068111L9.6125 17.5ZM11.8861778 10.5715L11.9875 10.6625 13.0875 11.7625C13.45 12.125 13.45 12.725 13.0875 13.0875 12.7552083 13.4197917 12.2233507 13.4474826 11.857798 13.1705729L11.7625 13.0875 11.1 12.425 10.4375 13.0875C10.075 13.45 9.475 13.45 9.1125 13.0875 8.78020833 12.7552083 8.75251736 12.2233507 9.02942708 11.857798L9.1125 11.7625 10.225 10.6625C10.68 10.2075 11.3963333 10.1771667 11.8861778 10.5715ZM16.925 11.7625L18.025 10.6625C18.48 10.2075 19.1963333 10.1771667 19.6861778 10.5715L19.7875 10.6625 20.8875 11.7625C21.25 12.125 21.25 12.725 20.8875 13.0875 20.5552083 13.4197917 20.0233507 13.4474826 19.657798 13.1705729L19.5625 13.0875 18.9 12.425 18.2375 13.0875C17.875 13.45 17.275 13.45 16.9125 13.0875 16.5778846 12.7528846 16.552145 12.2159024 16.8451127 11.8501536L16.925 11.7625 18.025 10.6625 16.925 11.7625Z"/>
	</svg>
	