<?xml version="1.0"?>
	<svg xmlns="http://www.w3.org/2000/svg" 
		width="30" 
		height="30" 
		viewbox="0 0 30 30" 
		code="81161" 
		 transform=""
		><path d="M18.8775954 0.510632125C13.0239213-1.05784872 6.78695792 1.05939122 3.09775977 5.86724887-0.591437953 10.6750797-1.02368057 17.2476372 2.00640431 22.4959001 5.03648919 27.7441638 10.9449014 30.6627985 16.9532271 29.8717696 22.9615492 29.0807671 27.9168724 24.7328313 29.4853587 18.8791486 29.7062261 18.1322106 29.5043911 17.3242459 28.95821 16.7689217 28.4120289 16.2135974 27.607526 15.9983781 26.8570245 16.2068159 26.106523 16.4152537 25.5282281 17.0145193 25.3466447 17.7719665 24.2235657 21.9633645 20.6964851 25.0559752 16.3943669 25.6223346 12.0922508 26.1887204 7.8876878 24.1132673 5.71806627 20.3553643 3.54844739 16.5974891 3.85679605 11.919553 6.49836056 8.47699322 9.1399217 5.03445988 13.5790397 3.52625632 17.7704241 4.6493378 18.5173884 4.87028948 19.3254228 4.66849049 19.8807986 4.12229162 20.4361743 3.57609276 20.6514073 2.77153254 20.4429309 2.02099074 20.2344544 1.27044894 19.6351083 0.692152674 18.8775954 0.510632125Z"/>
	</svg>
	