<?xml version="1.0"?>
	<svg xmlns="http://www.w3.org/2000/svg" 
		width="30" 
		height="30" 
		viewbox="0 0 30 30" 
		code="81083" 
		 transform=""
		><path d="M24.0833333 4C25.0873016 4 25.9174225 4.78231293 25.9942051 5.76744772L26 5.91666667 26 25.0833333C26 26.1375 25.1375 27 24.0833333 27 23.0793651 27 22.2492441 26.2176871 22.1724616 25.2325523L22.1666667 25.0833333 22.1666667 5.91666667C22.1666667 4.8625 23.0291667 4 24.0833333 4ZM3 23.3008333L3 7.69916667C3 6.19674731 4.63345473 5.30462973 5.90269712 6.04770398L6.02833333 6.1275 17.0875 13.9475C18.1161111 14.6638542 18.1589699 16.1723307 17.2160764 16.9715644L17.0875 17.0716667 6.02833333 24.8725C4.7855914 25.7257258 3.11204821 24.9095968 3.00537086 23.449003L3 23.3008333 3 7.69916667 3 23.3008333Z"/>
	</svg>
	