<?xml version="1.0"?>
	<svg xmlns="http://www.w3.org/2000/svg" 
		width="30" 
		height="30" 
		viewbox="0 0 30 30" 
		code="81085" 
		 transform=""
		><path d="M15 1C7.272 1 1 7.272 1 15 1 22.728 7.272 29 15 29 22.728 29 29 22.728 29 15 29 7.272 22.728 1 15 1ZM11.206 21.006L6.18 15.98C5.634 15.434 5.634 14.552 6.18 14.006 6.726 13.46 7.608 13.46 8.154 14.006L12.2 18.038 21.832 8.406C22.378 7.86 23.26 7.86 23.806 8.406 24.352 8.952 24.352 9.834 23.806 10.38L13.18 21.006C12.648 21.552 11.752 21.552 11.206 21.006Z"/>
	</svg>
	