<?xml version="1.0"?>
	<svg xmlns="http://www.w3.org/2000/svg" 
		width="30" 
		height="30" 
		viewbox="0 0 30 30" 
		code="81088" 
		 transform=""
		><path d="M20.9784141 4L27.1124709 4C27.6232982 4.00055046 28.0655933 4.18743181 28.439356 4.56064404 28.7663983 4.88720474 28.9503596 5.26665696 28.9912399 5.69900069L29 5.88752912 29 12.0215859C29 12.5423216 28.8698161 13.1172776 28.6094483 13.746454 28.3862758 14.285748 28.1214482 14.7275768 27.8149652 15.0719404L27.6582525 15.2360001 17.1158326 25.7932824C16.7519782 26.1571368 16.3096832 26.339064 15.7889475 26.339064 15.3414919 26.339064 14.9431348 26.199776 14.5938762 25.9212L14.4472 25.7932824 7.20754328 18.5387632C6.88917067 18.2203906 6.71008608 17.8419619 6.67028951 17.4034771L6.66176167 17.2118782C6.66176167 16.7637001 6.80104968 16.3652527 7.07962571 16.0159828L7.20754328 15.8693049 17.7499631 5.34174752C18.1231754 4.96798482 18.6243697 4.65091956 19.253546 4.39055174 19.7928401 4.16737932 20.2922987 4.03985222 20.751922 4.00797044L20.9784141 4 27.1124709 4 20.9784141 4ZM15.3166524 4.00082569L18.6194155 4.00082569C18.0981294 4.00082569 17.5231734 4.1310096 16.8945475 4.39137743 16.3557253 4.61454985 15.9105263 4.87937753 15.5589505 5.18586047L15.3909646 5.34257321 4.84854472 15.8701306C4.48469032 16.2532512 4.30276312 16.7005003 4.30276312 17.2118782 4.30276312 17.6675218 4.44205113 18.0631094 4.72062716 18.3986409L4.84854472 18.5387632 11.7785674 25.4687859C11.484071 25.7737411 11.2237032 25.9950262 10.9974639 26.1326413 10.7712247 26.2702565 10.481132 26.339064 10.1271859 26.339064 9.67973027 26.339064 9.28137318 26.199776 8.93211458 25.9212L8.78543835 25.7932824 1.5457816 18.5387632C1.1819272 18.1749088 1 17.7326138 1 17.2118782 1 16.7644226 1.13928801 16.3660655 1.41786404 16.0168069L1.5457816 15.8701306 12.0882015 5.34257321C12.4614137 4.96881051 12.962608 4.65174525 13.5917844 4.39137743 14.1310784 4.16820501 14.6305371 4.04067791 15.0901604 4.00879613L15.3166524 4.00082569 18.6194155 4.00082569 15.3166524 4.00082569ZM24.2820029 6.83129368C23.7612672 6.83129368 23.3164951 7.01569795 22.9476866 7.3845065 22.578878 7.75331505 22.3944738 8.19808715 22.3944738 8.7188228 22.3944738 9.23955845 22.578878 9.68433055 22.9476866 10.0531391 23.3164951 10.4219476 23.7612672 10.6063519 24.2820029 10.6063519 24.8027385 10.6063519 25.2475106 10.4219476 25.6163192 10.0531391 25.9851277 9.68433055 26.169532 9.23955845 26.169532 8.7188228 26.169532 8.19808715 25.9851277 7.75331505 25.6163192 7.3845065 25.2475106 7.01569795 24.8027385 6.83129368 24.2820029 6.83129368Z"/>
	</svg>
	