<?xml version="1.0"?>
	<svg xmlns="http://www.w3.org/2000/svg" 
		width="30" 
		height="30" 
		viewbox="0 0 30 30" 
		code="81090" 
		 transform=""
		><path d="M19.075 3.4375C19.9773438 3.4609375 20.8357422 3.967773437 21.2588074 4.8035125700000005L21.3375 4.975 27.5375 19.9375C28.040625 21.1473958 27.4990668 22.5409722 26.3308901 23.1170745L26.175 23.1875 16.975 27C16.6625 27.125 16.3375 27.1875 16.0125 27.1875 15.0984375 27.1757812 14.2283203 26.6696777 13.8038361 25.8236847L13.725 25.65 7.525 10.6875C7.3875 10.3625 7.325 10.025 7.3375 9.6875 7.3609375 8.78515625 7.86777344 7.93774414 8.703512570000001 7.51605225L8.875 7.4375 18.0875 3.625C18.4125 3.4875 18.75 3.4375 19.075 3.4375ZM7.35 16.7625L11.6625 27.1875 9.85 27.1875C8.475 27.1875 7.35 26.0625 7.35 24.6875L7.35 24.6875 7.35 16.7625ZM4.8375 13.975L4.8375 25.2625 3.1625 24.5625C1.952604167 24.059375 1.3396701389999999 22.6952474 1.741762514 21.4602702L1.8 21.3 4.8375 13.975ZM9.85 8.4375C9.1625 8.4375 8.6 9 8.6 9.6875 8.6 10.375 9.1625 10.9375 9.85 10.9375 10.5375 10.9375 11.1 10.375 11.1 9.6875 11.1 9 10.5375 8.4375 9.85 8.4375Z"/>
	</svg>
	