<?xml version="1.0"?>
	<svg xmlns="http://www.w3.org/2000/svg" 
		width="30" 
		height="30" 
		viewbox="0 0 30 30" 
		code="81148" 
		 transform=""
		><path d="M30 15C30 12.2142857 27.9029412 10 25.2647059 10L11.7352941 10C9.16836248 10 7.11374984 12.096212 7.00456474 14.7754159L7 15C7 17.7857143 9.09705882 20 11.7352941 20L25.2647059 20C27.8316375 20 29.8862502 17.903788 29.9954353 15.2245841L30 15ZM8 7C12.418278 7 16 10.581722 16 15 16 19.418278 12.418278 23 8 23 3.581722 23 0 19.418278 0 15 0 10.581722 3.581722 7 8 7Z"/>
	</svg>
	