<?xml version="1.0"?>
	<svg xmlns="http://www.w3.org/2000/svg" 
		width="30" 
		height="30" 
		viewbox="0 0 30 30" 
		code="81095" 
		 transform=""
		><path d="M24.3313179 10.0922626L24.3313179 27.4239584C24.3313179 28.1572225 23.9980161 28.7571658 23.264752 28.7571658L7.36625413 28.7571658C6.63299008 28.7571658 5.99971658 28.1572225 5.99971658 27.4239584L5.99971658 10.0922626 24.3313179 10.0922626ZM15.9987718 13.0919792L14.3322626 13.0919792 14.3322626 23.0910345 15.9987718 23.0910345 15.9987718 13.0919792ZM19.998394 13.0919792L18.6651866 13.0919792 18.6651866 23.0910345 19.998394 23.0910345 19.998394 13.0919792ZM11.6658479 13.0919792L9.99933869 13.0919792 9.99933869 23.0910345 11.6658479 23.0910345 11.6658479 13.0919792ZM20.731658 1C21.2982711 1 21.7315635 1.43329239 21.7315635 1.99990553L21.73088 4.42608 26.9977326 4.42613132C27.1977137 4.42613132 27.3310345 4.55945205 27.3310345 4.75943316L27.3310345 8.42575342C27.3310345 8.62573453 27.1977137 8.75905527 26.9977326 8.75905527L3.33330184 8.75905527C3.13332074 8.75905527 3 8.62573453 3 8.42575342L3 4.75943316C3 4.55945205 3.13332074 4.42613132 3.33330184 4.42613132L8.86544 4.42608 8.86611242 1.99990553C8.86611242 1.43329239 9.29940482 1 9.86601795 1L20.731658 1Z"/>
	</svg>
	