<?xml version="1.0"?>
	<svg xmlns="http://www.w3.org/2000/svg" 
		width="30" 
		height="30" 
		viewbox="0 0 30 30" 
		code="81096" 
		 transform=""
		><path d="M23.1052632 21.5297628L16.7894737 15.2139734 16.7894737 10.1929207C18.9210526 9.41923651 20.3578947 7.2087102 19.8368421 4.72976283 19.4421053 2.86660494 17.8947368 1.38239441 16.0157895 1.06660494 13.0473684 0.577131252 10.4736842 2.85081546 10.4736842 5.74028915 10.4736842 7.79292073 11.8 9.52976283 13.6315789 10.1929207L13.6315789 15.2139734 7.31578947 21.5297628 2.57894737 21.5297628C1.71052632 21.5297628 1 22.2402891 1 23.1087102L1 27.8455523C1 28.7139734 1.71052632 29.4244997 2.57894737 29.4244997L7.31578947 29.4244997C8.18421053 29.4244997 8.89473684 28.7139734 8.89473684 27.8455523L8.89473684 24.6087102 15.2105263 17.9771313 21.5263158 24.6087102 21.5263158 27.8455523C21.5263158 28.7139734 22.2368421 29.4244997 23.1052632 29.4244997L27.8421053 29.4244997C28.7105263 29.4244997 29.4210526 28.7139734 29.4210526 27.8455523L29.4210526 23.1087102C29.4210526 22.2402891 28.7105263 21.5297628 27.8421053 21.5297628L23.1052632 21.5297628Z"/>
	</svg>
	