<?xml version="1.0"?>
	<svg xmlns="http://www.w3.org/2000/svg" 
		width="30" 
		height="30" 
		viewbox="0 0 30 30" 
		code="81099" 
		 transform=""
		><path d="M30 19.4017535C30 25.822589 25.7761733 30 18.891181 30L15.0232078 30C13.8628159 30 13.0118618 29.1026302 13.0118618 28.0195977 13.0118618 26.9210933 13.8628159 26.0237236 15.0232078 26.0237236L18.6900464 26.0237236C23.3780299 26.0237236 26.0856111 23.2078391 26.0856111 19.3089221 26.0856111 15.3945333 23.3780299 12.6560083 18.6900464 12.6560083L9.54615781 12.6560083 6.00309438 12.4858174 8.54048479 14.5899948 12.0526044 18.024755C12.4239299 18.3806086 12.6714801 18.8138216 12.6714801 19.4172254 12.6714801 20.5157298 11.8978855 21.3357401 10.7374936 21.3357401 10.2269211 21.3357401 9.70087674 21.1036617 9.29860753 20.7168644L0.603403816 12.1299639C0.216606498 11.7586385 0 11.2016503 0 10.6601341 0 10.1340897 0.216606498 9.5771016 0.603403816 9.20577617L9.29860753 0.603403816C9.70087674 0.216606498 10.2269211 0 10.7374936 0 11.8978855 0 12.6714801 0.804538422 12.6714801 1.90304281 12.6714801 2.50644662 12.4239299 2.93965962 12.0526044 3.29551315L8.54048479 6.73027334 6.00309438 8.83445075 9.54615781 8.67973182 18.7209902 8.67973182C25.7142857 8.67973182 30 13.0582775 30 19.4017535Z"/>
	</svg>
	