<?xml version="1.0"?>
	<svg xmlns="http://www.w3.org/2000/svg" 
		width="30" 
		height="30" 
		viewbox="0 0 30 30" 
		code="81101" 
		 transform=""
		><path d="M28.4052793 10.6001929L19.9224069 9.86407588 16.6098803 2.0647407C16.013976 0.645086433 13.9808909 0.645086433 13.3849866 2.0647407L10.07246 9.88160248 1.60711416 10.6001929C0.0647737174 10.7228791-0.566183735 12.6508046 0.608098191 13.6673472L7.04035889 19.2408047 5.11243334 27.513358C4.76190142 29.0206452 6.39187484 30.2124537 7.72389613 29.4062303L14.9974334 25.0245813 22.2709707 29.4237569C23.602992 30.2299803 25.2329654 29.0381718 24.8824335 27.5308846L22.954508 19.2408047 29.3867687 13.6673472C30.5610506 12.6508046 29.9476197 10.7228791 28.4052793 10.6001929L28.4052793 10.6001929ZM14.9974334 21.7471079L8.40743337 25.7256452 10.160093 18.2242621 4.34126312 13.1766025 12.0179121 12.5105919 14.9974334 5.44737371 17.9944813 12.5281185 25.6711303 13.1941291 19.8523005 18.2417887 21.6049601 25.7431718 14.9974334 21.7471079Z"/>
	</svg>
	