<?xml version="1.0"?>
	<svg xmlns="http://www.w3.org/2000/svg" 
		width="30" 
		height="30" 
		viewbox="0 0 30 30" 
		code="81102" 
		 transform=""
		><path d="M20.5242424 14.6909091C21.4480642 14.6909091 22.1969752 15.4398146 22.1969752 16.3636364L22.1969752 28.3242424C22.1977743 28.7684021 22.0218964 29.1946457 21.7081119 29.5089986 21.3943274 29.8233516 20.9684028 30 20.5242424 30L1.9 30C1.45583961 30 1.02991501 29.8233516 0.716130538 29.5089986 0.402346069 29.1946457 0.226468089 28.7684021 0.227267248 28.3242424L0.227267248 16.3636364C0.227267248 15.4398146 0.976178237 14.6909091 1.9 14.6909091L20.5242424 14.6909091ZM11.5 20C10.1192881 20 9 21.1192881 9 22.5 9 23.8807119 10.1192881 25 11.5 25 12.8807119 25 14 23.8807119 14 22.5 14 21.1192881 12.8807119 20 11.5 20ZM25.6031268 1.20522605C27.9294487 2.56891065 29.367787 5.04498303 29.4111261 7.7278248L29.4106125 12.7272727C29.4106177 12.9955418 29.1940279 13.2134852 28.925764 13.2151515L26.7863701 13.2151515C26.5169221 13.2151515 26.2984913 12.9967207 26.2984913 12.7272727L26.2984913 8.04242424C26.3474479 6.3740874 25.4876945 4.81044924 24.0527249 3.95803689 22.6177552 3.10562453 20.8333533 3.09855993 19.3916792 3.93958339 18.0155358 4.74237852 17.158357 6.19734166 17.1143639 7.77926465L17.1136428 12.7272727C17.113648 12.9955418 16.8970582 13.2134852 16.6287943 13.2151515L14.4894004 13.2151515C14.2199524 13.2151515 14.0015216 12.9967207 14.0015216 12.7272727L14.0015216 8.00606061C13.9462072 5.21706934 15.4024674 2.61593426 17.8090073 1.20522605 20.2155472-0.205482168 23.1965869-0.205482168 25.6031268 1.20522605Z"/>
	</svg>
	