<svg xmlns="http://www.w3.org/2000/svg" width="30" height="30" viewBox="0 0 30 30">
  <g fill="none" fill-rule="evenodd" class="unpublish">
    <path fill="#7A8391" fill-rule="nonzero" d="M14.9080395,0.580687029 L14.9714526,0.710549212 L26.3696468,28.4041454 C26.5921363,28.9481436 26.3726571,29.5649689 25.8781956,29.8488044 L25.748948,29.9125912 L25.6130278,29.9593493 C25.1108519,30.0976103 24.5762053,29.8747279 24.3175724,29.4193025 L24.2541112,29.2894266 L23.0248545,26.2985427 C22.9205209,26.2973366 22.8170107,26.2824612 22.7168907,26.2544569 L22.5695742,26.2026712 L16.266472,23.5407081 L10.9042823,22.5717943 L17.9368447,13.9336728 L17.1648917,12.0585696 L8.122014,20.0918849 L2.7441424,17.8190171 C2.31395207,17.636962 2.02530763,17.2225015 2.00157836,16.7527798 C1.98048568,16.3352493 2.17202591,15.9397203 2.50253885,15.6988365 L2.63285167,15.6160131 L15.540047,8.10948095 L12.8589522,1.59430059 C12.6373996,1.05134202 12.8556647,0.435964984 13.3483334,0.151400496 L13.4771216,0.0873846537 L13.6130093,0.0406347088 C14.1150649,-0.097596943 14.6495791,0.125305694 14.9080395,0.580687029 Z M11.1304348,23.8043478 L16.3478261,24.747799 L13.2223134,28.5861556 C12.5631844,29.398344 11.2510673,29.0111451 11.1382162,27.9503773 L11.1304348,27.8016015 L11.1304348,23.8043478 Z M28.084933,2.92442035 L28.0697349,3.06336725 L25.1039023,21.1956522 L20.7830774,10.5826167 L23.3189847,7.43413229 C23.5379248,7.16356112 23.2161693,6.81364953 22.9481744,6.96559758 L22.8875544,7.0098358 L20.2789059,9.3501121 L18.9565217,6.10194355 L26.2808041,1.79558978 C27.067356,1.33202379 28.0362451,1.90256817 28.0850361,2.7829444 L28.084933,2.92442035 Z" class="unpublish__shape"/>
  </g>
</svg>
