<?xml version="1.0"?>
	<svg xmlns="http://www.w3.org/2000/svg" 
		width="30" 
		height="30" 
		viewbox="0 0 30 30" 
		code="81103" 
		 transform=""
		><path d="M15.3264316 3.46454962L15.3771621 3.56843937 24.4957174 25.7233163C24.673709 26.1585149 24.4981257 26.6519751 24.1025565 26.8790435L23.9991584 26.9300729 23.8904222 26.9674795C23.4886815 27.0780883 23.0609642 26.8997823 22.8540579 26.535442L22.8032889 26.4315413 21.8198836 24.0388342C21.7364167 24.0378693 21.6536086 24.025969 21.5735126 24.0035655L21.4556594 23.962137 16.4131776 21.8325665 12.1234258 21.0574354 17.7494757 14.1469382 17.1319133 12.6468557 9.8976112 19.0735079 5.59531392 17.2552137C5.25116166 17.1095696 5.02024611 16.7780012 5.00126269 16.4022238 4.98438854 16.0681995 5.13762073 15.7517763 5.40203108 15.5590692L5.50628134 15.4928105 15.8320376 9.48758476 13.6871617 4.27544047C13.5099197 3.84107362 13.6845317 3.34877199 14.0786667 3.1211204L14.1816973 3.06990772 14.2904074 3.03250777C14.6920519 2.92192245 15.1196633 3.10024456 15.3264316 3.46454962ZM12.3043478 22.0434783L16.4782609 22.7982392 13.9778507 25.8689245C13.4505475 26.5186752 12.4008538 26.2089161 12.3105729 25.3603018L12.3043478 25.2412812 12.3043478 22.0434783ZM25.8679464 5.33953628L25.8557879 5.4506938 23.4831218 19.9565217 20.0264619 11.4660934 22.0551878 8.94730583C22.2303399 8.7308489 21.9729355 8.45091963 21.7585395 8.57247806L21.7100435 8.60786864 19.6231247 10.4800897 18.5652174 7.88155484 24.4246432 4.43647183C25.0538848 4.06561904 25.8289961 4.52205454 25.8680289 5.22635552L25.8679464 5.33953628Z"/>
	</svg>
	