<?xml version="1.0"?>
	<svg xmlns="http://www.w3.org/2000/svg" 
		width="30" 
		height="30" 
		viewbox="0 0 30 30" 
		code="81104" 
		 transform=""
		><path d="M24.6755844 13.1192208C24.1161039 13.1192208 23.5609091 13.2084416 23.025974 13.3841558L22.3725974 13.5972727 22.2658442 12.9201299C21.7277922 9.49 18.8181818 7 15.3479221 7 11.8090909 7 8.81844156 9.64818182 8.3925974 13.1609091L8.29558442 13.9596104 7.56584416 13.6202597C6.85246753 13.2887013 6.09857143 13.12 5.32441558 13.12 2.38831169 13.12 0 15.5087013 0 18.4444156 0 21.3801299 2.38831169 23.7688312 5.32441558 23.7688312L13.4415584 23.7688312 13.4415584 19.1285714 11.212987 19.1285714 15 12.8854545 18.7866234 19.1285714 16.5584416 19.1285714 16.5584416 23.7688312 24.675974 23.7688312C27.6116883 23.7688312 30 21.3793506 30 18.4436364 30 15.5079221 27.6112987 13.1192208 24.6755844 13.1192208Z"/>
	</svg>
	