<?xml version="1.0"?>
	<svg xmlns="http://www.w3.org/2000/svg" 
		width="30" 
		height="30" 
		viewbox="0 0 30 30" 
		code="81105" 
		 transform=""
		><path d="M15.625125 13.9185L17.058 17.500125 26.25 17.500125 26.25 27.499875C26.25 28.819635 25.2128544 29.909571 23.9135919 29.9946543L23.749875 30 2.500125 30C1.180365 30 0.090429 28.9628544 0.005345736 27.6635919L0 27.499875 0 18.75 7.5 18.75 10.000125 25.000125 11.25 25.000125 15.625125 13.9185ZM2.500125 3.75L19.999875 3.75C19.999875 7.11966667 22.6808765 9.87519111 26.0212493 9.99599483L26.25 10.000125 26.25 15 18.75 15 16.249875 8.749875 15 8.749875 10.624875 19.8315 9.192 16.25025 0 16.25025 0 6.250125C0 4.930365 1.0371456 3.840429 2.33640806 3.75534574L2.500125 3.75ZM26.25 0C28.3210678 0 30 1.67893219 30 3.75 30 5.82106781 28.3210678 7.5 26.25 7.5 24.1789322 7.5 22.5 5.82106781 22.5 3.75 22.5 1.67893219 24.1789322 0 26.25 0Z"/>
	</svg>
	