<?xml version="1.0"?>
	<svg xmlns="http://www.w3.org/2000/svg" 
		width="30" 
		height="30" 
		viewbox="0 0 30 30" 
		code="81109" 
		 transform=""
		><path d="M1 7L26 7C26.5128358 7 26.9355072 7.38604019 26.9932723 7.88337887L27 8 27 26C27 26.5128358 26.6139598 26.9355072 26.1166211 26.9932723L26 27 1 27C0.487164161 27 0.0644928393 26.6139598 0.00672773133 26.1166211L0 26 0 8C0 7.48716416 0.38604019 7.06449284 0.883378875 7.00672773L1 7 26 7 1 7ZM9 17L7 17C4.85780461 17 3.10892112 18.6839685 3.00489531 20.8003597L3 21 3 23C3 23.5128358 3.38604019 23.9355072 3.88337887 23.9932723L4 24 12 24C12.5128358 24 12.9355072 23.6139598 12.9932723 23.1166211L13 23 13 21C13 18.8578046 11.3160315 17.1089211 9.19964034 17.0048953L9 17ZM4 4L29 4C29.5128358 4 29.9355072 4.38604019 29.9932723 4.88337887L30 5 30 23C30 23.5128358 29.6139598 23.9355072 29.1166211 23.9932723L29 24 28 24 28 8C28 6.9456382 27.1841222 6.08183488 26.1492623 6.00548574L26 6 3 6 3 5C3 4.48716416 3.38604019 4.06449284 3.88337887 4.00672773L4 4 29 4 4 4ZM21 17L15 17C14.4477153 17 14 17.4477153 14 18 14 18.5128358 14.3860402 18.9355072 14.8833789 18.9932723L15 19 21 19C21.5522847 19 22 18.5522847 22 18 22 17.4871642 21.6139598 17.0644928 21.1166211 17.0067277L21 17ZM8 10C6.34314575 10 5 11.3431458 5 13 5 14.6568542 6.34314575 16 8 16 9.65685425 16 11 14.6568542 11 13 11 11.3431458 9.65685425 10 8 10ZM23 14L15 14C14.4477153 14 14 14.4477153 14 15 14 15.5128358 14.3860402 15.9355072 14.8833789 15.9932723L15 16 23 16C23.5522847 16 24 15.5522847 24 15 24 14.4871642 23.6139598 14.0644928 23.1166211 14.0067277L23 14Z"/>
	</svg>
	