<?xml version="1.0"?>
	<svg xmlns="http://www.w3.org/2000/svg" 
		width="30" 
		height="30" 
		viewbox="0 0 30 30" 
		code="81110" 
		 transform=""
		><path d="M1.000000000000039 21.2355534L1.000000000000039 8.36247012C1.000000000000039 7.7359063 1.2488930169999999 7.1350032 1.691938531 6.691953672 2.13498405 6.248904142 2.73588489 5.999999999999943 3.36244871 5.999999999999943L17.8755967 5.999999999999943C18.50216 5.999999999999943 19.1030604 6.248903722 19.5461058 6.69195259 19.9891512 7.13500146 20.2380454 7.73590377 20.2380454 8.36246706L20.2380454 21.2355534C20.2380454 22.5402971 19.1803404 23.5980021 17.8755967 23.5980021L3.36244871 23.5980021C2.0577050100000003 23.5980021 1.000000000000039 22.5402971 1.000000000000039 21.2355534ZM27.2626612 6.798854588L22.0488659 10.08681153C21.8558405 10.20853177 21.7387624 10.420772620000001 21.7387624 10.64897129L21.7387624 18.6567266C21.7387624 18.8774834 21.8483772 19.083832700000002 22.031296 19.2074219L27.2408181 22.7273478C27.4940216 22.8984266 27.8209831 22.9157562 28.0908522 22.7724012 28.3607213 22.6290461 28.5294118 22.3484256 28.5294118 22.0428442L28.5294118 7.4976C28.5294118 7.19669782 28.365794 6.919596801 28.1023175 6.77426193 27.8388409 6.6289270590000005 27.51718 6.638348173 27.2626612 6.798854588L27.2626612 6.798854588Z"/>
	</svg>
	