<?xml version="1.0"?>
	<svg xmlns="http://www.w3.org/2000/svg" 
		width="30" 
		height="30" 
		viewbox="0 0 30 30" 
		code="81111" 
		 transform=""
		><path d="M14.8505859 22.0869141C15.6376953 22.0869141 16.2978516 22.7597656 16.2978516 23.546875L16.2978516 27.203125C16.2978516 27.9902344 15.6376953 28.6630859 14.8505859 28.6630859 14.0634766 28.6630859 13.390625 27.9902344 13.390625 27.203125L13.390625 23.546875C13.390625 22.7597656 14.0634766 22.0869141 14.8505859 22.0869141ZM15.2882782 12.7201244L15.4091797 12.8320312 26.8095703 24.3212891C27.5078125 25.0322266 27.5205078 26.2001953 26.8095703 26.9238281 26.1501194 27.5952691 25.0377122 27.6325714 24.3279328 27.035735L24.2070313 26.9238281 12.8066406 15.4345703C12.1083984 14.7236328 12.0957031 13.5556641 12.8066406 12.8320312 13.4273003 12.2000868 14.4491946 12.1298708 15.1590176 12.6213831L15.2882782 12.7201244ZM9.65820312 20.0175781C10.1699829 20.5293579 10.1908112 21.3981934 9.73114848 21.9546051L9.6328125 22.0615234 7.11914062 24.5751953C6.57324219 25.1210937 5.62109375 25.1083984 5.0625 24.5498047 4.55072021 24.0380249 4.52989197 23.1691895 4.98955464 22.6127777L5.08789062 22.5058594 7.6015625 20.0048828C8.14746094 19.4462891 9.09960938 19.4589844 9.65820312 20.0175781ZM13.8730469 13.8222656C13.6053874 14.0899251 13.6684231 14.4109226 13.9056962 14.6874717L13.9746094 14.7617188 17.7197266 18.5068359 18.5195313 17.6816406 14.7998047 13.9492188C14.4951172 13.6572266 14.1396484 13.5683594 13.8730469 13.8222656ZM6.12890625 13.3779297C6.91601562 13.3779297 7.58886719 14.0380859 7.58886719 14.8251953 7.58886719 15.5660041 6.99284643 16.2056019 6.26650814 16.2782853L6.12890625 16.2851562 2.45996094 16.2851562C1.67285156 16.2851562 1 15.6123047 1 14.8251953 1 14.0843865 1.59602076 13.4560344 2.32235905 13.384674L2.45996094 13.3779297 6.12890625 13.3779297ZM27.2412109 13.3779297C28.0283203 13.3779297 28.7011719 14.0380859 28.7011719 14.8251953 28.7011719 15.5660041 28.1051511 16.2056019 27.3788128 16.2782853L27.2412109 16.2851562 23.5722656 16.2851562C22.7851562 16.2851562 22.125 15.6123047 22.125 14.8251953 22.125 14.0843865 22.7097751 13.4560344 23.4347904 13.384674L23.5722656 13.3779297 27.2412109 13.3779297ZM24.5878906 5.07519531C25.1234741 5.59887695 25.1569481 6.46845627 24.7092338 7.0249145L24.6132813 7.13183594 22.0996094 9.65820313C21.5537109 10.2167969 20.6015625 10.2167969 20.0429688 9.67089844 19.5192871 9.1472168 19.486557 8.28879547 19.9343178 7.72327137L20.0302734 7.61425781 22.5439453 5.10058594C23.1025391 4.54199219 24.0419922 4.52929688 24.5878906 5.07519531ZM7.04821301 5.00434208L7.15722656 5.10058594 9.65820312 7.61425781C10.2041016 8.17285156 10.1914062 9.11230469 9.6328125 9.67089844 9.12103271 10.1826782 8.25219727 10.2146645 7.69578552 9.75639653L7.58886719 9.65820312 5.08789062 7.13183594C4.54199219 6.5859375 4.54199219 5.63378906 5.10058594 5.07519531 5.62426758 4.56341553 6.4826889 4.55374527 7.04821301 5.00434208ZM14.8505859 1C15.5913948 1 16.2197468 1.59602076 16.2911073 2.32235905L16.2978516 2.45996094 16.2978516 6.11621094C16.2978516 6.90332031 15.6376953 7.57617188 14.8505859 7.57617188 14.1097771 7.57617188 13.4701794 6.98015111 13.3974959 6.25381283L13.390625 6.11621094 13.390625 2.45996094C13.390625 1.67285156 14.0634766 1 14.8505859 1Z"/>
	</svg>
	