<?xml version="1.0"?>
	<svg xmlns="http://www.w3.org/2000/svg" 
		width="30" 
		height="30" 
		viewbox="0 0 30 30" 
		code="81115" 
		 transform=""
		><path d="M12.6037858 1C18.9881374 1 24.2227005 6.2345631 24.2227005 12.6189146 24.2227005 14.7405057 23.6464452 16.7414851 22.6326773 18.4578843L22.4375027 18.7763342 27.9746417 24.328602C28.5192783 24.8581099 28.761339 25.5540344 28.761339 26.2650878 28.761339 27.8082249 27.5964218 29.0185285 26.0381559 29.0185285 25.3779903 29.0185285 24.7303278 28.8059752 24.2201998 28.3695021L24.0714125 28.2318312 18.4737583 22.634177C16.7490757 23.6478063 14.7369459 24.2378293 12.6037858 24.2378293 6.2345631 24.2378293 1 19.0032662 1 12.6189146 1 6.2345631 6.2345631 1 12.6037858 1ZM12.6037858 4.87297154C8.33746562 4.87297154 4.85784275 8.35259442 4.85784275 12.6189146 4.85784275 16.8852349 8.33746562 20.3648577 12.6037858 20.3648577 16.8701061 20.3648577 20.3648577 16.8852349 20.3648577 12.6189146 20.3648577 8.35259442 16.8701061 4.87297154 12.6037858 4.87297154ZM12.6037858 7.59615466C13.2997104 7.59615466 13.919991 8.0954049 13.919991 8.82158706L13.919991 11.3934822 16.2346967 11.3934822C16.9003636 11.3934822 17.4450003 11.9683764 17.4450003 12.6189146 17.4450003 13.2694528 16.9003636 13.844347 16.2346967 13.844347L13.919991 13.844347 13.919991 16.4162422C13.919991 17.1424244 13.2997104 17.6416746 12.6037858 17.6416746 11.9078613 17.6416746 11.3027095 17.1424244 11.3027095 16.4162422L11.3027095 13.844347 8.98800381 13.844347C8.32233683 13.844347 7.76257141 13.2694528 7.76257141 12.6189146 7.76257141 11.9683764 8.32233683 11.3934822 8.98800381 11.3934822L11.3027095 11.3934822 11.3027095 8.82158706C11.3027095 8.0954049 11.9078613 7.59615466 12.6037858 7.59615466Z"/>
	</svg>
	