<?xml version="1.0"?>
	<svg xmlns="http://www.w3.org/2000/svg" 
		width="30" 
		height="30" 
		viewbox="0 0 30 30" 
		code="81116" 
		 transform=""
		><path d="M12.3760968 1C18.6351748 1 23.7670255 6.1318507 23.7670255 12.3909287 23.7670255 14.47089 23.2020775 16.4326063 22.2082018 18.1153264L22.0168568 18.4275277 27.4453462 23.8708491C27.979296 24.3899669 28.216607 25.0722361 28.216607 25.7693372 28.216607 27.2821949 27.0745478 28.46875 25.5468581 28.46875 24.9061184 28.46875 24.2773925 28.2645142 23.7796178 27.8452301L23.6187061 27.6974892 18.1308889 22.209672C16.4400479 23.2034119 14.4674001 23.7818575 12.3760968 23.7818575 6.1318507 23.7818575 1 18.6500067 1 12.3909287 1 6.1318507 6.1318507 1 12.3760968 1ZM12.3760968 4.79697624C8.19349015 4.79697624 4.7821443 8.20832208 4.7821443 12.3909287 4.7821443 16.5735354 8.19349015 19.9848812 12.3760968 19.9848812 16.5587034 19.9848812 19.9848812 16.5735354 19.9848812 12.3909287 19.9848812 8.20832208 16.5587034 4.79697624 12.3760968 4.79697624ZM15.9060981 11.115382C16.6180312 11.115382 17.1816448 11.6938276 17.1816448 12.3909287 17.1816448 13.1028618 16.6180312 13.6664754 15.9060981 13.6664754L8.86092738 13.6664754C8.14899433 13.6664754 7.58538067 13.1028618 7.58538067 12.3909287 7.58538067 11.6938276 8.14899433 11.115382 8.86092738 11.115382L15.9060981 11.115382Z"/>
	</svg>
	